<?xml version="1.0" standalone="no"?>
<!DOCTYPE svg PUBLIC "-//W3C//DTD SVG 20010904//EN"
 "http://www.w3.org/TR/2001/REC-SVG-20010904/DTD/svg10.dtd">
<svg version="1.0" xmlns="http://www.w3.org/2000/svg"
 width="816.000000pt" height="816.000000pt" viewBox="0 0 816.000000 816.000000"
 preserveAspectRatio="xMidYMid meet">
<metadata>
Created by potrace 1.11, written by Peter Selinger 2001-2013
</metadata>
<g transform="translate(0.000000,816.000000) scale(0.100000,-0.100000)"
fill="#000000" stroke="none">
<path d="M2130 7589 c0 -5 -8 -9 -18 -9 -23 0 -67 -46 -82 -85 -6 -16 -10 -30
-9 -30 2 0 -4 -13 -13 -30 -9 -16 -25 -52 -34 -80 -10 -27 -21 -54 -24 -60 -4
-5 -13 -28 -20 -50 -6 -22 -20 -59 -31 -82 -10 -24 -19 -49 -19 -56 0 -7 -5
-18 -11 -24 -6 -6 -12 -17 -13 -24 -2 -8 -7 -23 -11 -34 -45 -112 -105 -274
-105 -283 0 -7 -4 -12 -8 -12 -5 0 -9 -6 -9 -12 -1 -11 -143 -382 -176 -458
-6 -14 -11 -28 -12 -32 -2 -5 -4 -10 -5 -13 -1 -3 -3 -9 -4 -13 0 -4 -9 -26
-18 -47 -9 -22 -40 -101 -68 -175 -29 -74 -56 -144 -61 -155 -5 -11 -29 -74
-55 -140 -25 -66 -51 -131 -57 -145 -6 -14 -11 -28 -12 -32 -2 -5 -4 -10 -5
-13 -1 -3 -3 -8 -4 -12 -1 -5 -35 -91 -75 -193 -40 -102 -74 -191 -74 -197 0
-7 -4 -13 -9 -13 -4 0 -8 -6 -8 -14 0 -8 -26 -81 -59 -162 -32 -82 -81 -210
-110 -284 -29 -74 -56 -144 -61 -155 -5 -11 -20 -49 -33 -85 -13 -36 -52 -137
-87 -225 -77 -198 -77 -198 -79 -207 -1 -5 -12 -33 -26 -63 -13 -30 -21 -55
-18 -55 3 0 1 -6 -4 -12 -6 -7 -23 -47 -38 -88 -15 -41 -36 -94 -46 -117 -11
-23 -19 -49 -19 -57 0 -9 -4 -16 -10 -16 -5 0 -9 -3 -8 -7 3 -10 -21 -81 -35
-108 -6 -11 -12 -23 -13 -27 -1 -5 -3 -10 -4 -13 -1 -3 -3 -8 -5 -12 -1 -5 -5
-17 -10 -28 -5 -11 -39 -99 -76 -195 -105 -274 -178 -461 -200 -514 -11 -27
-22 -57 -24 -68 -3 -11 -8 -25 -13 -32 -5 -6 -15 -29 -22 -51 -7 -22 -17 -46
-23 -52 -5 -7 -7 -13 -4 -13 3 0 -6 -26 -20 -57 -18 -39 -27 -76 -27 -115 -1
-49 3 -61 30 -95 21 -25 51 -46 90 -62 32 -13 68 -27 79 -32 101 -42 195 -76
199 -71 3 3 6 0 6 -6 0 -7 5 -12 12 -12 12 0 310 -114 340 -131 10 -5 22 -9
28 -9 6 0 29 -9 53 -19 23 -11 103 -43 177 -71 74 -28 144 -56 155 -61 23 -11
325 -129 340 -133 6 -2 24 -8 40 -15 17 -7 32 -13 35 -13 3 0 14 -5 25 -11 11
-6 25 -12 30 -13 12 -2 207 -79 252 -100 17 -8 36 -14 43 -14 7 0 24 -6 38
-14 15 -8 65 -29 112 -46 47 -17 104 -40 127 -51 24 -10 47 -19 53 -19 6 0 18
-4 28 -10 9 -5 69 -29 132 -54 188 -72 454 -176 475 -186 11 -4 92 -36 180
-70 88 -35 166 -67 173 -72 6 -6 12 -8 12 -5 0 3 17 -1 38 -9 36 -15 49 -20
105 -43 15 -6 37 -15 50 -20 12 -5 128 -50 257 -100 129 -51 249 -98 265 -105
54 -23 121 -12 275 48 80 32 226 88 325 126 99 37 216 83 260 100 44 18 85 33
90 35 13 3 43 14 80 30 17 7 75 29 130 49 55 20 109 41 120 46 11 5 133 52
270 104 308 117 299 113 305 114 3 1 39 15 80 32 41 17 82 33 90 35 8 2 121
45 250 96 129 50 240 92 245 93 6 2 24 8 40 15 52 21 170 65 175 66 3 1 16 6
30 12 39 17 144 58 150 58 3 0 24 8 45 17 22 9 78 31 125 49 47 17 99 38 117
45 17 8 33 14 36 14 3 0 16 4 29 9 13 5 26 9 30 10 4 1 20 8 35 16 14 8 30 12
35 9 4 -3 8 0 8 5 0 6 6 11 12 11 11 0 164 56 223 81 11 5 63 25 115 45 52 20
106 41 120 46 14 6 31 12 38 14 8 1 21 6 30 10 9 4 19 8 22 9 3 1 14 5 25 10
11 4 43 17 70 27 66 26 114 63 131 103 14 34 12 111 -4 141 -11 20 -16 31 -82
189 -23 55 -49 116 -57 135 -46 105 -62 142 -84 195 -4 11 -21 49 -37 85 -16
36 -29 67 -30 70 -2 7 -32 79 -52 125 -10 22 -55 128 -100 235 -80 189 -93
220 -130 305 -10 22 -36 85 -59 140 -23 55 -49 112 -57 128 -8 15 -12 27 -8
27 4 0 -1 9 -11 20 -10 11 -15 20 -12 20 3 0 -5 26 -19 58 -42 94 -49 111
-109 252 -31 74 -63 149 -70 165 -8 17 -26 59 -40 95 -15 36 -36 85 -47 110
-31 70 -49 111 -98 230 -17 41 -36 83 -41 94 -6 10 -17 35 -24 55 -7 20 -21
54 -31 76 -10 22 -18 42 -19 45 -2 6 -31 74 -50 115 -7 17 -43 102 -80 189
-37 87 -70 166 -75 175 -4 9 -16 36 -26 61 -9 25 -32 78 -51 118 -18 41 -33
77 -33 81 0 5 -6 21 -14 37 -8 16 -49 110 -91 209 -41 99 -80 189 -85 200 -5
11 -30 70 -56 130 -25 61 -52 124 -59 140 -8 17 -39 91 -70 165 -32 74 -64
151 -72 170 -57 129 -60 137 -129 300 -31 74 -67 159 -80 188 -13 29 -24 56
-24 60 0 14 -64 79 -85 87 -39 14 -81 16 -116 3 -32 -11 -119 -82 -224 -183
-18 -16 -69 -64 -115 -105 -45 -41 -100 -91 -120 -110 -39 -36 -204 -187 -275
-252 -22 -20 -54 -49 -71 -65 -78 -70 -315 -288 -380 -348 -17 -16 -68 -63
-113 -104 -44 -40 -98 -90 -120 -110 -21 -20 -67 -61 -101 -91 -34 -30 -81
-73 -104 -95 -23 -22 -57 -54 -76 -72 l-35 -32 -45 40 c-25 22 -81 73 -124
112 -44 40 -97 88 -119 107 -22 19 -50 44 -62 55 -11 11 -61 56 -110 100 -50
43 -97 86 -106 95 -9 8 -46 42 -83 75 -37 33 -80 71 -95 85 -15 14 -50 45 -77
69 -27 24 -89 80 -138 125 -49 44 -98 89 -110 99 -18 16 -121 108 -192 172
-12 11 -37 34 -55 50 -19 17 -83 75 -144 129 -60 55 -145 131 -188 170 -43 39
-81 71 -85 71 -4 0 -13 4 -21 9 -19 12 -111 17 -111 5z"/>
</g>
</svg>
