<svg id="Layer_1" xmlns="http://www.w3.org/2000/svg" width="700" height="351" viewBox="0 0 700 351"><style>.st0{fill:#aa8a04}.st1{fill:#fff}.st2{display:none}.st3{font-family:&apos;Streetwear&apos;}.st4{font-size:9.7318px}</style><path d="M310.4 74.2l.2 40.8c1.9-1 3.9-1.9 5.9-2.6l-.2-38.2h7.6l.2 35.6c2-.6 3.9-1.2 5.9-1.8l-.2-33.9h7.6l.2 31.6c2-.6 4-1.3 5.9-2.1l-.1-29.6h7.6l.1 26.2c2-1 3.9-2 5.9-3.1l-.3-23.1h7.6l.1 19.1c2-1 3.9-2.1 5.9-3.1l-.1-16h7.6l.1 12.2c1.9-1 3.9-1.9 5.9-2.8v-9.5h7.6v6.4c2-.8 3.9-1.6 5.9-2.3v-4.1h7.6v1.4c7.5-2.5 15.2-4.6 22.9-5.8 5.1-.8 10-1.7 14.7-1.7 10.4-5.6 22.7-10.8 33.6-10.5V46l-241.2 1.2c-10.5.1-18.9 8.6-18.9 19v8.6l.2 41.5c0 1.6 1.3 2.9 3 2.9 1.6 0 2.9-1.3 2.9-3l-.2-41.5h7.6l.2 41.5c0 1.6 1.3 2.9 3 2.9 1.6 0 2.9-1.3 2.9-3l-.2-41.5h7.6l.2 41.5c0 1.6 1.3 2.9 3 2.9 1.6 0 2.9-1.3 2.9-3l-.2-41.5h7.6l.2 41.5c0 1.6 1.3 3 3 2.9 1.6 0 2.9-1.3 2.9-3l-.2-41.5h7.6l.2 41.5c0 1.6 1.3 3 3 2.9 1.6 0 3-1.3 2.9-3l-.2-41.5h7.6l.2 41.5c0 1.6 1.3 2.9 3 2.9 1.6 0 3-1.4 2.9-3l-.2-41.5h7.6l.2 41.5c0 1.6 1.3 3 3 2.9 1.6 0 2.9-1.3 2.9-3l-.2-41.5 7.5.1z"/><path class="st0" d="M343.1 264.7H362v14.9h-18.9z"/><g id="scissors"><path d="M482 321.4c10-4.1 18.5-10.8 17.9-25-.6-13.6-10.4-20-11-20.4-16.5-9.1-28.7-3.7-38.3-.9-17.3 5.1-23.3 8.9-44 5.6-6.6-1-14.2-3.3-21.9-6-6.6 3.4-12.7 6.4-17.6 8.2 26.9.9 56.2 8.7 67.1 16.4 7 5 14.6 12.1 22.9 18.6 7.8 6.2 17.3 5.9 24.9 3.5zm-18.1-6.5c-11.8-4.6-18.1-16.6-14.1-26.8 4-10.2 16.8-14.7 28.6-10.1s18.1 16.6 14.1 26.8c-4 10.2-16.8 14.8-28.6 10.1z"/><path d="M547.2 206.5s-8.6 18.4-19.8 26.2c-11.3 7.7-15.8.6-19.8-5.4-4.1-6-22.9-15.7-37.2-5.2-14.2 10.5-16 25.2-38.3 26.9-11 0-9.4-4.5-17-2.4s-7.3 10.2-29.6 12.2-51.2.8-75 3.2c-17.1 1.7-61.7 7.9-88 11.9 1.1 2.5 2.3 4.9 3.6 7.3 36.1 1.5 119 4.2 129.5 2.6 13-2 42.7-23.2 63.4-25.9 20.7-2.7 26.6 1.3 43.8 6.8 17.2 5.5 42.3 19.6 88-56.4l-3.6-1.8zm-200.3 65c-.1-2.8 1.8-5.2 4.4-5.8l.4 11.3c-2.6-.4-4.7-2.7-4.8-5.5zm7.1 5.4l-.4-11.3c2.7.4 4.7 2.7 4.8 5.5.1 2.8-1.7 5.2-4.4 5.8zm136.7-14.4c-11.9 4.3-24.6-.6-28.3-10.8-3.7-10.3 2.9-22.1 14.8-26.4 11.9-4.3 24.6.6 28.3 10.8 3.7 10.3-2.9 22.1-14.8 26.4z"/></g><path id="background" class="st1" d="M503.4 201.2c8.1.3 10.8 3.1 13.2 2.4 6.8-2 8.8-31.7 0-67.8-7.5-30.6-17.9-46.1-15.2-75.7.5-5.3 1.3-9.7 1.8-12.5l.3-.3c-15.1.4-37 2.1-62.5 8.7-5.5 1.4-15.2 4.1-52.4 19.3-40.6 16.6-96.4 40.1-96.4 40.1s-18.7 7.9-33.8 11.9c-5.9 1.6-13.1 3.3-13.1 3.3-3.5.9-6.4 1.6-8.3 2-13.8.8-27.5 1.7-41.3 2.5l1.8 76.6c-9.2 29.4-6.4 56.4 8.8 68.7 13 10.6 31.1 7.2 53.5 3 29.9-5.6 41.8-15.1 93.5-37.8 18.7-8.2 33.7-14.7 52.7-21.5 20.4-7.3 50.1-16.3 88-22.3 2.3-.3 5.5-.8 9.4-.6z"/><path d="M243.1 269.5c-7.7 1-12.1 1.2-19.1 1.2v-10.2h3v-22.1h-3v-10.2c8 0 12.3-.3 20.7-1.4 4.1-.5 7.2-.8 9.4-.7 2.2.2 3.9 1 5.2 2.6 1.3 1.6 1.9 3.6 1.9 6s-.6 4.4-1.8 6.1c-1.2 1.7-2.7 3.1-4.5 4 2.4.4 4.3 1.4 5.6 3 1.3 1.6 2 3.6 2 6 0 2.8-.7 5.4-2.2 7.8-1.5 2.3-3.4 4-6 5.1-2.6 1.2-6.3 2.2-11.2 2.8zm-3.1-32.7v7.7c1-.1 1.7-.2 2.8-.3 2-.2 3.3-.8 3.9-1.6.6-.8.9-1.8.9-2.9 0-1-.3-1.8-.8-2.6-.5-.7-1.9-.9-4.4-.6-1 .1-1.4.2-2.4.3zm0 15.4v8.4c1-.1 1.7-.2 2.9-.3 1.9-.2 3.2-.7 4.1-1.5.8-.7 1.2-1.9 1.2-3.4 0-1.4-.4-2.5-1.1-3-.7-.6-2.1-.7-4.2-.4-1.2.1-1.9.1-2.9.2zm37 9.8c-5 1.6-8 2.4-13 3.7v-10.2c1-.2 1.5-.4 2.6-.6 2.6-9.5 3.7-14.3 6.3-23.8-1.1.3-1.9.5-2.9.8v-10.2c10-2.6 15-4.3 25-7.9V224c-1 .4-1.8.6-2.9 1 2.6 7.9 3.8 11.9 6.4 19.7 1-.4 1.4-.6 2.4-1v10.2c-7 2.8-11 4-18 6.4V251c1-.4 1.9-.6 3.1-1-.5-2-.7-2.9-1.2-4.9-3.5 1.2-5.2 1.7-8.7 2.7-.6 2.3-1.1 3.5-1.7 5.8 1.1-.3 1.6-.5 2.6-.8v9.2zm3.7-32.6c-1.3 5.1-1.9 7.6-3.2 12.7 2.4-.7 3.7-1.1 6.1-1.9-1.2-4.3-1.7-6.5-2.9-10.8zM322 245c-7 3.3-11 4.8-18 7.8v-10.2c1-.4 1-.7 3-1.1v-22.1c-2 .4-2 .7-3 1.1v-10.2c7-2.9 11.1-4.5 18.5-7.8 1.7-.7 3.2-1.4 4.6-2 1.4-.6 2.6-1 3.6-1.3 1-.3 1.9-.6 2.8-.7 2.4-.5 4.3 0 5.8 1.4s2.3 3.6 2.3 6.6c0 2.2-.5 4.4-1.4 6.6-.9 2.2-2.1 4.1-3.6 5.6 1.9 3 2.9 4.5 4.8 7.5 1-.5 1.6-.7 2.6-1.2v10.2c-5 2.3-7.5 3.5-12.4 5.7-3-5.6-4.4-8.4-7.4-14-1.7.7-2.2 1.1-4.2 1.8v7.2c1-.4 1-.7 2-1.1V245zm-2-32v8.1c0-.3.8-.4 1.4-.6 1.9-.8 3.2-1.5 3.9-1.9.7-.5 1.3-1.2 1.8-2.1.5-.9.8-1.8.8-2.9 0-1.1-.3-1.9-.8-2.3-.5-.4-1.2-.6-1.9-.4-.7.2-2 .7-4 1.6-.6.2-1.2.3-1.2.5zm46.2 11.6c-7.7 3.7-11.2 5.5-19.2 9.2v-10.2c1-.6 2-.8 3-1.4v-22.1c-1 .6-2 .8-3 1.4v-10.2c8-3.9 12.4-6 20.8-9.9 4.1-1.9 7.2-3.2 9.5-3.6 2.2-.4 3.9 0 5.2 1.2 1.3 1.2 1.9 3.1 1.9 5.6 0 2.4-.6 4.6-1.8 6.6-1.2 2-2.7 3.7-4.5 5.1 2.4-.2 4.3.3 5.6 1.6 1.3 1.3 2 3.1 2 5.5 0 2.8-.7 5.6-2.2 8.3-1.5 2.7-3.5 4.9-6 6.7-2.7 1.8-6.4 3.9-11.3 6.2zM363 193v7.7c1-.6 1.8-.8 2.9-1.4 2-.9 3.3-1.9 3.9-2.9.6-1 .9-2.1.9-3.2 0-1-.3-1.8-.8-2.3s-2-.2-4.5.9c-.9.5-1.4.8-2.4 1.2zm0 15.5v8.4c1-.6 1.8-.8 3-1.4 1.9-.9 3.3-1.9 4.1-2.9.8-1 1.2-2.3 1.2-3.8 0-1.4-.4-2.3-1.1-2.7-.7-.3-2.2 0-4.3 1-1.1.5-1.9.8-2.9 1.4zm59-8.7c-11 4.2-21 8.9-32 13.7v-10.2c1-.5 1-.7 3-1.2V180c-2 .5-2 .7-3 1.2V171c11-4.9 21-9.6 32-13.8v13.6c-3 1.4-5 2.1-8 3.5v-3.4c-4 1.3-5 1.9-8 3.2v6.5c2-1.1 4-1.7 7-2.8v8.6c-3 1.1-5 1.7-7 2.8v7c3-1.3 4-2 8-3.2v-3.4c3-1.5 5-2.2 8-3.5v13.7zm24-8c-7 2.2-11 3.4-18 6.1v-10.2c1-.4 1-.6 2-1v-22.1c-1 .4-1 .6-2 1v-10.2c7-2.7 10.9-3.9 18.4-6.1 1.7-.5 3.1-.9 4.5-1.2 1.4-.3 2.6-.5 3.6-.7 1-.1 1.9-.2 2.8-.2 2.4.1 4.3 1 5.8 2.8 1.5 1.8 2.3 4.2 2.3 7.2 0 2.2-.5 4.3-1.4 6.3-.9 2-2.1 3.5-3.6 4.7 1.9 3.5 3.1 5.2 5 8.7 1-.2 1.7-.3 2.7-.5v10.2c-5 .9-7.6 1.5-12.6 2.7-3-6.2-4.4-9.3-7.3-15.3-1.7.5-3.1.7-4.1 1.2v7.2c1-.3 1-.5 2-.8-.1 4.1-.1 6.2-.1 10.2zm-2-32.3v8.1c0-.2.7-.3 1.2-.4 1.9-.6 3.1-1 3.8-1.3.7-.3 1.3-.9 1.8-1.7.5-.8.7-1.7.7-2.8 0-1.1-.3-1.9-.8-2.4s-1.2-.8-1.9-.7c-.8.1-1.9.4-3.9 1-.4 0-.9 0-.9.2zm34 25.5c-3 .4-4 .6-7 1.1v-13.6c3-.5 4.4-.8 7.5-1.1.9 3.6 2.5 5.2 5.1 5 1.8-.2 2.7-1.1 2.7-3 0-1-.3-1.7-1-2.3-.7-.6-2.2-1.5-4.4-2.4-2.8-1.2-4.8-2.3-6.2-3.3-1.2-.9-2.3-2.1-3.1-3.8-.9-1.7-1.3-3.6-1.3-5.8 0-3.9 1-7.2 3.1-9.7 2-2.5 4.8-4 7.8-4.3 3-.3 5.8.5 7.8 2.5v-2.6c3-.2 4-.2 7-.3v12.1c-3 0-4.4.1-7.5.3-.9-3.3-2.5-4.8-4.9-4.6-1.7.2-2.5 1.1-2.5 2.9 0 .9.3 1.5.7 1.8.5.4 2 1.2 4.5 2.6 3.4 1.8 5.6 3.3 6.7 4.2.6.5 1.2 1.1 1.8 1.9.6.8 1.1 1.7 1.5 2.6.9 2 1.4 4.1 1.4 6.5 0 3.6-1.1 6.6-3.2 9.1s-5 3.9-8.2 4.1c-3 .2-5.3-.6-8.3-2.5v2.6z" id="barbers"/><g id="middle_line_prestige"><path d="M493.4 124.8c-3.7-.2-9.1.5-15.2.9-55.4 3.6-135 50.2-197.7 72.5-36.2 12.8-50.3 13.7-63.8 14.6v4.1c2.1-.1 5.9-.3 11.1-.6 57.3-2.4 158.7-67.2 238.9-80.8 12.6-1.7 3.9-1.2 26.6-2.3h.1v-8.4z"/><path class="st2" d="M559.8 130.8c-19.1 0-25.8-1.6-25.8 4.8 0 2.3 2 4.8 4.8 4.8h42.6c0 47.7-1.6 51.3 4.8 51.3s4.8-3 4.8-56.1c.1-6.5-5.7-4.8-31.2-4.8z"/></g><path d="M236 190.8c-8 .9-12 1.1-19 1.1v-9.5h3v-20.7h-3v-9.5c8 0 11.9-.3 19.9-1.2 4.6-.6 7.9-.6 10 .1 2.1.7 3.7 1.9 4.7 3.6 1 1.7 1.5 3.7 1.5 6 0 2.8-.6 5.3-1.8 7.3-1.2 2.1-2.8 3.8-4.7 4.9-1.9 1.2-4.6 2.1-8.7 2.6-2 .3-2.8.4-4.8.6v5.6c1-.1 1-.2 3-.3-.1 3.7-.1 5.6-.1 9.4zm-3-30.7v7.5c1-.1 1.2-.1 2.2-.3 1.7-.2 2.9-.6 3.6-1.2.7-.6 1.1-1.6 1.1-3 0-.9-.2-1.7-.6-2.3-.4-.6-.9-.9-1.6-1-.6-.1-1.5 0-3 .1-.8.1-1.7.1-1.7.2zm41 22.7c-7 2.1-11 3-18 4.6v-9.5l3-.6v-20.7l-3 .6v-9.5c7-1.6 10.7-2.5 17.8-4.6 1.6-.5 3.1-.9 4.5-1.2 1.4-.4 2.6-.6 3.5-.8 1-.2 1.9-.3 2.7-.4 2.3-.2 4.1.5 5.6 2 1.4 1.5 2.2 3.6 2.2 6.4 0 2.1-.4 4.1-1.3 6.1s-2 3.6-3.4 4.9c1.8 3 2.5 4.5 4.3 7.5.9-.3 1.2-.5 2.2-.8v9.5c-4 1.7-6.9 2.5-11.6 4-2.8-5.6-4.4-8.4-7.3-14-1.6.5-2.2.7-4.2 1.2v6.7c1-.3 2-.4 3-.7v9.3zm-3-30.4v7.6c1-.2 1.1-.2 1.7-.4 1.8-.5 3.2-1 3.9-1.3.7-.3 1.4-.9 1.8-1.7.5-.7.8-1.6.8-2.7 0-1-.2-1.8-.7-2.2-.5-.5-1.1-.7-1.8-.6-.7.1-2.3.4-4.2 1-.6.1-.5.2-1.5.3zm57 10c-10 4.4-20 8.6-31 12.6v-9.5c1-.4 2-.6 3-.9v-20.7c-1 .4-2 .6-3 1v-9.5c11-4 21-8.2 31-12.6v12.7c-3 1.5-5 2.2-8 3.6v-3.2c-3 1.2-5 1.9-8 3.1v6.1c3-1 4-1.6 7-2.7v8.1c-3 1.1-4 1.6-7 2.7v6.5c3-1.2 5-1.8 8-3.1v-3.2c3-1.4 5-2.2 8-3.6v12.6zm13-5.4c-3 1.3-5 1.9-8 3.2v-12.8c3-1.3 4.5-1.9 7.5-3.2.9 3.1 2.6 4.1 5 3 1.7-.8 2.7-2 2.7-3.7 0-.9-.3-1.5-.9-1.8-.7-.3-2-.6-4.1-.8-2.6-.3-4.6-.7-5.9-1.2-1.2-.5-2.2-1.4-3-2.7-.8-1.3-1.2-3-1.2-5.1 0-3.7 1-7 3-10 2-2.9 4.2-5 7-6.3 2.9-1.3 5.1-1.4 7.1-.3v-2.5c3-1.3 5-2 8-3.3v11.3c-3 1.3-4.5 2-7.4 3.3-.9-2.7-2.5-3.6-4.8-2.6-1.6.7-2.4 1.9-2.4 3.6 0 .8.2 1.3.7 1.5.4.2 1.9.5 4.2.9 3.2.5 5.3 1 6.4 1.4.5.2 1.1.6 1.7 1.1.6.5 1 1.1 1.4 1.8.9 1.5 1.3 3.3 1.3 5.5 0 3.3-1 6.6-3 9.8-2 3.2-4.4 5.6-7.5 7-2.9 1.3-5.6 1.4-7.6.4-.2 1-.2 1.5-.2 2.5zm47-21c-7 3.1-11 4.7-18 7.9v-9.5c1-.5 2-.7 3-1.2v-20.7c-2 .7-3 1-4 1.7v7.2c-2 1.1-4 1.6-6 2.7v-16.8c11-4.8 21-9.5 32-14v16.8c-2 1-4 1.5-6 2.5v-7.2c-1 .6-2 .9-4 1.6v20.7c1-.5 2-.7 3-1.2v9.5zm29-11.4c-7 2.6-11 4.1-18 7.1v-9.5c1-.5 1-.7 3-1.2v-20.7c-2 .5-2 .7-3 1.2V92c7-3 11-4.4 18-7.1v9.5c-1 .4-2 .6-3 1.1v20.7c1-.4 2-.6 3-1.1v9.5zm28.5-22.5c-1.3.3-1.5.5-3.5.9v-7.6c6-1.6 9-2.3 14.8-3.4 0 4.3-.1 7.6-.6 9.9-.5 2.1-1.5 4.4-3 6.9-1.5 2.4-3.3 4.3-5.5 5.8s-4.5 2.6-6.9 3.2c-3.7 1-7 1.2-10 .7s-5.3-2.2-7-4.9c-1.6-2.7-2.5-6.2-2.5-10.3 0-6.2 1.7-11.8 5-16.7 3.3-4.9 7.4-8.1 12.2-9.4 4-1.1 7.5-.7 9.5 1.1v-2.8c3-.8 5-1.1 8-1.8v13.9c-3 .7-4.8 1-7.9 1.8-.7-1.5-1.6-2.6-2.7-3.2-1.1-.6-2.4-.7-3.9-.3-2.1.6-3.6 1.8-4.6 3.7-1 1.9-1.4 5.1-1.4 9.5s.5 7.2 1.5 8.5c1 1.3 2.4 1.7 4.3 1.1 2.9-.8 4.2-3 4.2-6.6zm47.5 7.4c-11-.1-21 1-31 2.9v-9.5c1-.2 1-.3 2-.4V81.8c-1 .2-1 .3-2 .4v-9.5c10-1.9 20-3 31-2.9v12.7c-4 0-5 0-9 .2v-3.2c-3 .2-4 .3-7 .6v6.1c2-.3 4-.4 6-.5v8.1c-2 .2-4 .3-6 .5v6.5c3-.3 4-.4 7-.6V97c4-.2 5-.2 9-.2v12.7zm-17-62h-17.4C405.8 58 339.4 94.4 280.5 117.2 242.9 131 229.1 131 215 132v4.1c.7 0 5.3-.3 12.8-.7C285 133 386.6 68.2 466.7 54.6c6-.8 7.2-1.1 9.3-1.3v-5.8z"/><g id="bottom_line_prestige_1_"><path d="M485.5 198.7c-55.4 3.6-131.2 46.6-197.7 72.5-38 14-51.7 13.8-66 14.8h-.1v4c.2 0 .3.1.5.1 0 0 4.7-.3 12.9-.7 57.3-2.4 158.7-67.2 238.9-80.8 12.6-1.7 4-1.2 26.4-2.3V198c-3.7-.4-8.9.3-14.9.7z"/><path class="st2" d="M567.1 203.8c-19.1 0-25.8-1.6-25.8 4.8 0 2.3 2 4.8 4.8 4.8h42.6c0 47.7-1.6 51.3 4.8 51.3s4.8-3 4.8-56.1c.1-6.5-5.7-4.8-31.2-4.8z"/></g><text transform="translate(232.843 66.758)" class="st0 st3 st4">EST - 2017</text></svg>