<svg width="1200" height="800" viewBox="0 0 1200 800" fill="none" xmlns="http://www.w3.org/2000/svg">
<g clip-path="url(#clip0)">
<rect width="1200" height="800" fill="white"/>
<rect width="1200" height="800" fill="white"/>
<path d="M0 0C31.1151 538.332 113.638 1018.29 230.657 1387.99V0H0Z" transform="translate(1228.99 570.668) rotate(90.0001)" fill="#EF4631"/>
<path d="M0 0C13.5283 516.713 73.0528 992.348 166.398 1381.5V0H0Z" transform="translate(1229 634.926) rotate(90.0001)" fill="#12ABE3"/>
<path d="M0.676409 0C-5.19087e-06 38.9156 5.16063e-06 77.8312 5.16063e-06 116.747C5.16063e-06 557.79 35.1736 972.89 98.0801 1333.94V0H0.676409Z" transform="translate(1229 703.92) rotate(90.0001)" fill="#2EB349"/>
<path d="M11.4991 0C4.05849 138.367 0 281.057 0 428.072C0 739.397 16.9104 1035.59 48.0254 1312.32V0H11.4991Z" transform="translate(1229 753.299) rotate(90.0001)" fill="#FFCD30"/>
<path d="M250.928 38.4844C250.928 40.4297 250.565 42.1055 249.839 43.5117C249.135 44.918 248.186 46.1133 246.991 47.0977C245.796 48.082 244.413 48.8906 242.842 49.5234C241.296 50.1328 239.678 50.6133 237.991 50.9648C236.303 51.3164 234.604 51.5508 232.893 51.668C231.206 51.7852 229.624 51.8438 228.147 51.8438C226.694 51.8438 225.182 51.7852 223.612 51.668C222.065 51.5742 220.518 51.3984 218.971 51.1406C217.424 50.8828 215.901 50.543 214.401 50.1211C212.901 49.6758 211.483 49.125 210.147 48.4688L210.077 3.1875C211.389 2.64844 212.784 2.16797 214.26 1.74609C215.737 1.30078 217.237 0.9375 218.76 0.65625C220.307 0.351562 221.842 0.128906 223.366 -0.0117188C224.889 -0.175781 226.366 -0.257812 227.796 -0.257812C229.46 -0.257812 231.135 -0.152344 232.823 0.0585938C234.534 0.269531 236.174 0.621094 237.745 1.11328C239.315 1.60547 240.78 2.25 242.139 3.04688C243.499 3.82031 244.682 4.78125 245.69 5.92969C246.721 7.07813 247.518 8.41406 248.081 9.9375C248.667 11.4609 248.96 13.2187 248.96 15.2109C248.96 16.5234 248.772 17.7539 248.397 18.9023C248.022 20.0508 247.483 21.082 246.78 21.9961C246.077 22.9102 245.221 23.6953 244.214 24.3516C243.206 24.9844 242.069 25.4531 240.803 25.7578C242.327 26.1562 243.71 26.7422 244.952 27.5156C246.217 28.2891 247.284 29.2266 248.151 30.3281C249.042 31.4297 249.721 32.6719 250.19 34.0547C250.682 35.4375 250.928 36.9141 250.928 38.4844ZM233.069 18.4453C233.069 17.7656 232.928 17.1914 232.647 16.7227C232.366 16.2305 232.014 15.832 231.592 15.5273C231.194 15.2227 230.749 15 230.257 14.8594C229.788 14.7188 229.366 14.6484 228.991 14.6484C228.522 14.6484 228.065 14.7188 227.62 14.8594C227.174 15 226.741 15.1641 226.319 15.3516L226.108 23.1562C226.647 23.1562 227.315 23.1094 228.112 23.0156C228.909 22.9219 229.671 22.7227 230.397 22.418C231.147 22.0898 231.78 21.6211 232.296 21.0117C232.811 20.3789 233.069 19.5234 233.069 18.4453ZM228.077 29.9062C227.397 29.9062 226.741 29.9766 226.108 30.1172L225.967 38.1328C226.319 38.2031 226.659 38.2734 226.987 38.3438C227.339 38.3906 227.678 38.4141 228.007 38.4141C228.499 38.4141 229.038 38.3672 229.624 38.2734C230.21 38.1562 230.76 37.9453 231.276 37.6406C231.792 37.3125 232.214 36.8789 232.542 36.3398C232.893 35.8008 233.069 35.0859 233.069 34.1953C233.069 33.3047 232.893 32.5781 232.542 32.0156C232.214 31.4531 231.803 31.0195 231.311 30.7148C230.819 30.3867 230.28 30.1758 229.694 30.082C229.108 29.9648 228.569 29.9062 228.077 29.9062ZM292.078 22.5938C292.078 24.6328 291.937 26.6719 291.656 28.7109C287.648 28.9688 283.664 29.3906 279.703 29.9766C275.742 30.5391 271.781 31.1016 267.82 31.6641C268.43 33.3516 269.379 34.6992 270.668 35.707C271.98 36.7148 273.539 37.2188 275.344 37.2188C276.281 37.2188 277.301 37.043 278.402 36.6914C279.527 36.3398 280.641 35.9062 281.742 35.3906C282.844 34.8516 283.898 34.2773 284.906 33.668C285.914 33.0586 286.781 32.5078 287.508 32.0156L285.82 47.9766C284.906 48.6797 283.91 49.2773 282.832 49.7695C281.777 50.2617 280.676 50.6602 279.527 50.9648C278.379 51.2695 277.219 51.4922 276.047 51.6328C274.875 51.7734 273.727 51.8438 272.602 51.8438C270.281 51.8438 268.16 51.5273 266.238 50.8945C264.316 50.2617 262.57 49.3828 261 48.2578C259.453 47.1094 258.094 45.7617 256.922 44.2148C255.75 42.668 254.777 40.9805 254.004 39.1523C253.23 37.3242 252.644 35.3906 252.246 33.3516C251.848 31.3125 251.648 29.25 251.648 27.1641C251.648 24.9844 251.848 22.8047 252.246 20.625C252.644 18.4453 253.242 16.3477 254.039 14.332C254.859 12.3164 255.879 10.4531 257.098 8.74219C258.34 7.00781 259.781 5.49609 261.422 4.20703C263.062 2.91797 264.914 1.91016 266.977 1.18359C269.062 0.457031 271.359 0.09375 273.867 0.09375C275.953 0.09375 277.852 0.386719 279.562 0.972656C281.297 1.53516 282.832 2.33203 284.168 3.36328C285.527 4.37109 286.699 5.57812 287.684 6.98438C288.691 8.39062 289.512 9.9375 290.144 11.625C290.801 13.2891 291.281 15.0586 291.586 16.9336C291.914 18.7852 292.078 20.6719 292.078 22.5938ZM278.016 20.7656C278.016 20.1094 277.945 19.4414 277.805 18.7617C277.664 18.0586 277.43 17.4258 277.102 16.8633C276.797 16.3008 276.387 15.8438 275.871 15.4922C275.355 15.1172 274.711 14.9297 273.937 14.9297C273 14.9297 272.168 15.1875 271.441 15.7031C270.738 16.1953 270.129 16.8281 269.613 17.6016C269.098 18.3516 268.676 19.1719 268.348 20.0625C268.019 20.9531 267.773 21.7734 267.609 22.5234L278.016 21.5391V20.7656ZM331.154 33C331.154 36.2109 330.591 38.9883 329.466 41.332C328.364 43.6523 326.841 45.5742 324.896 47.0977C322.974 48.5977 320.712 49.7109 318.111 50.4375C315.532 51.1406 312.755 51.4922 309.779 51.4922C308.63 51.4922 307.364 51.3398 305.982 51.0352C304.622 50.7305 303.239 50.3555 301.833 49.9102C300.427 49.4414 299.068 48.9492 297.755 48.4336C296.466 47.8945 295.318 47.3906 294.31 46.9219L295.857 33.1406C297.849 34.3359 300.052 35.25 302.466 35.8828C304.904 36.4922 307.294 36.7969 309.638 36.7969C310.083 36.7969 310.622 36.7852 311.255 36.7617C311.888 36.7148 312.486 36.6094 313.048 36.4453C313.634 36.2578 314.126 35.9883 314.525 35.6367C314.923 35.2852 315.122 34.7812 315.122 34.125C315.122 33.6797 314.982 33.3047 314.7 33C314.419 32.6719 314.056 32.4141 313.611 32.2266C313.165 32.0156 312.661 31.8633 312.099 31.7695C311.536 31.6523 310.986 31.5703 310.447 31.5234C309.907 31.4766 309.404 31.4531 308.935 31.4531C308.466 31.4531 308.091 31.4531 307.81 31.4531C305.794 31.4531 303.954 31.1367 302.29 30.5039C300.65 29.8711 299.232 28.9805 298.036 27.832C296.864 26.6602 295.95 25.2539 295.294 23.6133C294.638 21.9492 294.31 20.1094 294.31 18.0938C294.31 15.3281 294.861 12.8555 295.962 10.6758C297.087 8.47266 298.575 6.60937 300.427 5.08594C302.302 3.53906 304.447 2.35547 306.861 1.53516C309.275 0.714844 311.771 0.304688 314.349 0.304688C315.497 0.304688 316.681 0.351562 317.9 0.445312C319.118 0.515625 320.325 0.65625 321.521 0.867188C322.739 1.07812 323.923 1.34766 325.072 1.67578C326.22 2.00391 327.31 2.41406 328.341 2.90625L327.005 17.1797C325.411 16.6406 323.736 16.1953 321.978 15.8438C320.243 15.4688 318.544 15.2812 316.88 15.2812C316.575 15.2812 316.177 15.293 315.685 15.3164C315.216 15.3164 314.712 15.3516 314.173 15.4219C313.657 15.4688 313.13 15.5508 312.591 15.668C312.052 15.7852 311.572 15.9492 311.15 16.1602C310.728 16.3477 310.388 16.6055 310.13 16.9336C309.872 17.2617 309.755 17.6484 309.779 18.0938C309.802 18.6094 309.989 19.0078 310.341 19.2891C310.716 19.5703 311.185 19.7812 311.747 19.9219C312.333 20.0391 312.966 20.0977 313.646 20.0977C314.349 20.0977 315.04 20.0859 315.72 20.0625C316.4 20.0156 317.032 19.9805 317.618 19.957C318.204 19.9102 318.685 19.8984 319.06 19.9219C320.935 20.0391 322.622 20.4375 324.122 21.1172C325.622 21.7969 326.888 22.6992 327.919 23.8242C328.974 24.9492 329.771 26.2969 330.31 27.8672C330.872 29.4141 331.154 31.125 331.154 33ZM370.545 1.42969L370.194 16.3359L359.717 16.7578L358.452 49.3828L343.616 50.1562L342.28 17.5312L331.803 18.0938L332.225 1.5L370.545 1.42969ZM451.544 2.20312L443.317 49.5234L423.349 49.9453L419.06 26.1094L414.771 48.1172L394.802 48.8203L386.505 3.60938L403.942 2.0625L407.458 29.8359L412.169 4.17188H425.88L431.364 30.1875L434.177 0.65625L451.544 2.20312ZM492.412 22.5938C492.412 24.6328 492.272 26.6719 491.991 28.7109C487.983 28.9688 483.998 29.3906 480.037 29.9766C476.077 30.5391 472.116 31.1016 468.155 31.6641C468.764 33.3516 469.713 34.6992 471.002 35.707C472.315 36.7148 473.873 37.2188 475.678 37.2188C476.616 37.2188 477.635 37.043 478.737 36.6914C479.862 36.3398 480.975 35.9062 482.077 35.3906C483.178 34.8516 484.233 34.2773 485.241 33.668C486.248 33.0586 487.116 32.5078 487.842 32.0156L486.155 47.9766C485.241 48.6797 484.244 49.2773 483.166 49.7695C482.112 50.2617 481.01 50.6602 479.862 50.9648C478.713 51.2695 477.553 51.4922 476.381 51.6328C475.209 51.7734 474.061 51.8438 472.936 51.8438C470.616 51.8438 468.494 51.5273 466.573 50.8945C464.651 50.2617 462.905 49.3828 461.334 48.2578C459.787 47.1094 458.428 45.7617 457.256 44.2148C456.084 42.668 455.112 40.9805 454.338 39.1523C453.565 37.3242 452.979 35.3906 452.58 33.3516C452.182 31.3125 451.983 29.25 451.983 27.1641C451.983 24.9844 452.182 22.8047 452.58 20.625C452.979 18.4453 453.577 16.3477 454.373 14.332C455.194 12.3164 456.213 10.4531 457.432 8.74219C458.674 7.00781 460.116 5.49609 461.756 4.20703C463.397 2.91797 465.248 1.91016 467.311 1.18359C469.397 0.457031 471.694 0.09375 474.202 0.09375C476.287 0.09375 478.186 0.386719 479.897 0.972656C481.631 1.53516 483.166 2.33203 484.502 3.36328C485.862 4.37109 487.034 5.57812 488.018 6.98438C489.026 8.39062 489.846 9.9375 490.479 11.625C491.135 13.2891 491.616 15.0586 491.92 16.9336C492.248 18.7852 492.412 20.6719 492.412 22.5938ZM478.35 20.7656C478.35 20.1094 478.28 19.4414 478.139 18.7617C477.998 18.0586 477.764 17.4258 477.436 16.8633C477.131 16.3008 476.721 15.8438 476.205 15.4922C475.69 15.1172 475.045 14.9297 474.272 14.9297C473.334 14.9297 472.502 15.1875 471.776 15.7031C471.073 16.1953 470.463 16.8281 469.948 17.6016C469.432 18.3516 469.01 19.1719 468.682 20.0625C468.354 20.9531 468.108 21.7734 467.944 22.5234L478.35 21.5391V20.7656ZM536.375 38.4844C536.375 40.4297 536.011 42.1055 535.285 43.5117C534.582 44.918 533.632 46.1133 532.437 47.0977C531.242 48.082 529.859 48.8906 528.289 49.5234C526.742 50.1328 525.125 50.6133 523.437 50.9648C521.75 51.3164 520.05 51.5508 518.339 51.668C516.652 51.7852 515.07 51.8438 513.593 51.8438C512.14 51.8438 510.629 51.7852 509.058 51.668C507.511 51.5742 505.964 51.3984 504.418 51.1406C502.871 50.8828 501.347 50.543 499.847 50.1211C498.347 49.6758 496.929 49.125 495.593 48.4688L495.523 3.1875C496.836 2.64844 498.23 2.16797 499.707 1.74609C501.183 1.30078 502.683 0.9375 504.207 0.65625C505.754 0.351562 507.289 0.128906 508.812 -0.0117188C510.336 -0.175781 511.812 -0.257812 513.242 -0.257812C514.906 -0.257812 516.582 -0.152344 518.269 0.0585938C519.98 0.269531 521.621 0.621094 523.191 1.11328C524.761 1.60547 526.226 2.25 527.586 3.04688C528.945 3.82031 530.129 4.78125 531.136 5.92969C532.168 7.07813 532.964 8.41406 533.527 9.9375C534.113 11.4609 534.406 13.2187 534.406 15.2109C534.406 16.5234 534.218 17.7539 533.843 18.9023C533.468 20.0508 532.929 21.082 532.226 21.9961C531.523 22.9102 530.668 23.6953 529.66 24.3516C528.652 24.9844 527.515 25.4531 526.25 25.7578C527.773 26.1562 529.156 26.7422 530.398 27.5156C531.664 28.2891 532.73 29.2266 533.597 30.3281C534.488 31.4297 535.168 32.6719 535.636 34.0547C536.129 35.4375 536.375 36.9141 536.375 38.4844ZM518.515 18.4453C518.515 17.7656 518.375 17.1914 518.093 16.7227C517.812 16.2305 517.461 15.832 517.039 15.5273C516.64 15.2227 516.195 15 515.703 14.8594C515.234 14.7188 514.812 14.6484 514.437 14.6484C513.968 14.6484 513.511 14.7188 513.066 14.8594C512.621 15 512.187 15.1641 511.765 15.3516L511.554 23.1562C512.093 23.1562 512.761 23.1094 513.558 23.0156C514.355 22.9219 515.117 22.7227 515.843 22.418C516.593 22.0898 517.226 21.6211 517.742 21.0117C518.257 20.3789 518.515 19.5234 518.515 18.4453ZM513.523 29.9062C512.843 29.9062 512.187 29.9766 511.554 30.1172L511.414 38.1328C511.765 38.2031 512.105 38.2734 512.433 38.3438C512.785 38.3906 513.125 38.4141 513.453 38.4141C513.945 38.4141 514.484 38.3672 515.07 38.2734C515.656 38.1562 516.207 37.9453 516.722 37.6406C517.238 37.3125 517.66 36.8789 517.988 36.3398C518.339 35.8008 518.515 35.0859 518.515 34.1953C518.515 33.3047 518.339 32.5781 517.988 32.0156C517.66 31.4531 517.25 31.0195 516.757 30.7148C516.265 30.3867 515.726 30.1758 515.14 30.082C514.554 29.9648 514.015 29.9062 513.523 29.9062ZM574.606 33C574.606 36.2109 574.044 38.9883 572.919 41.332C571.817 43.6523 570.294 45.5742 568.349 47.0977C566.427 48.5977 564.165 49.7109 561.563 50.4375C558.985 51.1406 556.208 51.4922 553.231 51.4922C552.083 51.4922 550.817 51.3398 549.434 51.0352C548.075 50.7305 546.692 50.3555 545.286 49.9102C543.88 49.4414 542.52 48.9492 541.208 48.4336C539.919 47.8945 538.77 47.3906 537.763 46.9219L539.309 33.1406C541.302 34.3359 543.505 35.25 545.919 35.8828C548.356 36.4922 550.747 36.7969 553.091 36.7969C553.536 36.7969 554.075 36.7852 554.708 36.7617C555.341 36.7148 555.938 36.6094 556.501 36.4453C557.087 36.2578 557.579 35.9883 557.977 35.6367C558.376 35.2852 558.575 34.7812 558.575 34.125C558.575 33.6797 558.434 33.3047 558.153 33C557.872 32.6719 557.509 32.4141 557.063 32.2266C556.618 32.0156 556.114 31.8633 555.552 31.7695C554.989 31.6523 554.438 31.5703 553.899 31.5234C553.36 31.4766 552.856 31.4531 552.388 31.4531C551.919 31.4531 551.544 31.4531 551.263 31.4531C549.247 31.4531 547.407 31.1367 545.743 30.5039C544.102 29.8711 542.684 28.9805 541.489 27.832C540.317 26.6602 539.403 25.2539 538.747 23.6133C538.091 21.9492 537.763 20.1094 537.763 18.0938C537.763 15.3281 538.313 12.8555 539.415 10.6758C540.54 8.47266 542.028 6.60937 543.88 5.08594C545.755 3.53906 547.899 2.35547 550.313 1.53516C552.727 0.714844 555.224 0.304688 557.802 0.304688C558.95 0.304688 560.134 0.351562 561.352 0.445312C562.571 0.515625 563.778 0.65625 564.974 0.867188C566.192 1.07812 567.376 1.34766 568.524 1.67578C569.673 2.00391 570.763 2.41406 571.794 2.90625L570.458 17.1797C568.864 16.6406 567.188 16.1953 565.431 15.8438C563.696 15.4688 561.997 15.2812 560.333 15.2812C560.028 15.2812 559.63 15.293 559.138 15.3164C558.669 15.3164 558.165 15.3516 557.626 15.4219C557.11 15.4688 556.583 15.5508 556.044 15.668C555.505 15.7852 555.024 15.9492 554.602 16.1602C554.181 16.3477 553.841 16.6055 553.583 16.9336C553.325 17.2617 553.208 17.6484 553.231 18.0938C553.255 18.6094 553.442 19.0078 553.794 19.2891C554.169 19.5703 554.638 19.7812 555.2 19.9219C555.786 20.0391 556.419 20.0977 557.099 20.0977C557.802 20.0977 558.493 20.0859 559.173 20.0625C559.852 20.0156 560.485 19.9805 561.071 19.957C561.657 19.9102 562.138 19.8984 562.513 19.9219C564.388 20.0391 566.075 20.4375 567.575 21.1172C569.075 21.7969 570.341 22.6992 571.372 23.8242C572.427 24.9492 573.224 26.2969 573.763 27.8672C574.325 29.4141 574.606 31.125 574.606 33ZM595.963 1.5L593.502 49.3828L578.666 50.1562L577.26 2.48438L595.963 1.5ZM636.796 1.42969L636.445 16.3359L625.968 16.7578L624.703 49.3828L609.867 50.1562L608.531 17.5312L598.054 18.0938L598.476 1.5L636.796 1.42969ZM678.052 22.5938C678.052 24.6328 677.911 26.6719 677.63 28.7109C673.622 28.9688 669.637 29.3906 665.677 29.9766C661.716 30.5391 657.755 31.1016 653.794 31.6641C654.403 33.3516 655.352 34.6992 656.641 35.707C657.954 36.7148 659.512 37.2188 661.317 37.2188C662.255 37.2188 663.274 37.043 664.376 36.6914C665.501 36.3398 666.614 35.9062 667.716 35.3906C668.817 34.8516 669.872 34.2773 670.88 33.668C671.887 33.0586 672.755 32.5078 673.481 32.0156L671.794 47.9766C670.88 48.6797 669.884 49.2773 668.805 49.7695C667.751 50.2617 666.649 50.6602 665.501 50.9648C664.352 51.2695 663.192 51.4922 662.02 51.6328C660.848 51.7734 659.7 51.8438 658.575 51.8438C656.255 51.8438 654.134 51.5273 652.212 50.8945C650.29 50.2617 648.544 49.3828 646.973 48.2578C645.427 47.1094 644.067 45.7617 642.895 44.2148C641.723 42.668 640.751 40.9805 639.977 39.1523C639.204 37.3242 638.618 35.3906 638.219 33.3516C637.821 31.3125 637.622 29.25 637.622 27.1641C637.622 24.9844 637.821 22.8047 638.219 20.625C638.618 18.4453 639.216 16.3477 640.012 14.332C640.833 12.3164 641.852 10.4531 643.071 8.74219C644.313 7.00781 645.755 5.49609 647.395 4.20703C649.036 2.91797 650.887 1.91016 652.95 1.18359C655.036 0.457031 657.333 0.09375 659.841 0.09375C661.927 0.09375 663.825 0.386719 665.536 0.972656C667.27 1.53516 668.805 2.33203 670.141 3.36328C671.501 4.37109 672.673 5.57812 673.657 6.98438C674.665 8.39062 675.485 9.9375 676.118 11.625C676.774 13.2891 677.255 15.0586 677.559 16.9336C677.887 18.7852 678.052 20.6719 678.052 22.5938ZM663.989 20.7656C663.989 20.1094 663.919 19.4414 663.778 18.7617C663.637 18.0586 663.403 17.4258 663.075 16.8633C662.77 16.3008 662.36 15.8438 661.844 15.4922C661.329 15.1172 660.684 14.9297 659.911 14.9297C658.973 14.9297 658.141 15.1875 657.415 15.7031C656.712 16.1953 656.102 16.8281 655.587 17.6016C655.071 18.3516 654.649 19.1719 654.321 20.0625C653.993 20.9531 653.747 21.7734 653.583 22.5234L663.989 21.5391V20.7656ZM735.706 23.0859C735.706 26.3672 735.284 29.3086 734.441 31.9102C733.597 34.5117 732.413 36.8203 730.89 38.8359C729.39 40.8281 727.597 42.5273 725.511 43.9336C723.425 45.3398 721.14 46.5 718.656 47.4141C716.171 48.3047 713.523 48.9609 710.71 49.3828C707.921 49.8047 705.05 50.0156 702.097 50.0156C700.995 50.0156 699.917 49.9922 698.863 49.9453C697.808 49.875 696.73 49.7812 695.628 49.6641L696.613 3.89062C699.191 3.07031 701.839 2.49609 704.558 2.16797C707.3 1.81641 710.019 1.64062 712.714 1.64062C716.066 1.64062 719.148 2.10937 721.96 3.04688C724.773 3.98438 727.199 5.36719 729.238 7.19531C731.277 9 732.859 11.2383 733.984 13.9102C735.132 16.5586 735.706 19.6172 735.706 23.0859ZM711.8 36.5859C713.206 36.375 714.484 35.9531 715.632 35.3203C716.804 34.6641 717.812 33.8672 718.656 32.9297C719.499 31.9688 720.144 30.8906 720.589 29.6953C721.058 28.4766 721.292 27.1875 721.292 25.8281C721.292 24.4922 721.152 23.25 720.87 22.1016C720.589 20.9297 720.132 19.9219 719.499 19.0781C718.867 18.2109 718.034 17.5312 717.003 17.0391C715.972 16.5234 714.706 16.2422 713.206 16.1953L711.8 36.5859ZM777.876 22.5938C777.876 24.6328 777.735 26.6719 777.454 28.7109C773.446 28.9688 769.462 29.3906 765.501 29.9766C761.54 30.5391 757.579 31.1016 753.618 31.6641C754.227 33.3516 755.176 34.6992 756.465 35.707C757.778 36.7148 759.337 37.2188 761.141 37.2188C762.079 37.2188 763.098 37.043 764.2 36.6914C765.325 36.3398 766.438 35.9062 767.54 35.3906C768.641 34.8516 769.696 34.2773 770.704 33.668C771.712 33.0586 772.579 32.5078 773.305 32.0156L771.618 47.9766C770.704 48.6797 769.708 49.2773 768.63 49.7695C767.575 50.2617 766.473 50.6602 765.325 50.9648C764.176 51.2695 763.016 51.4922 761.844 51.6328C760.672 51.7734 759.524 51.8438 758.399 51.8438C756.079 51.8438 753.958 51.5273 752.036 50.8945C750.114 50.2617 748.368 49.3828 746.797 48.2578C745.251 47.1094 743.891 45.7617 742.719 44.2148C741.547 42.668 740.575 40.9805 739.801 39.1523C739.028 37.3242 738.442 35.3906 738.044 33.3516C737.645 31.3125 737.446 29.25 737.446 27.1641C737.446 24.9844 737.645 22.8047 738.044 20.625C738.442 18.4453 739.04 16.3477 739.837 14.332C740.657 12.3164 741.676 10.4531 742.895 8.74219C744.137 7.00781 745.579 5.49609 747.219 4.20703C748.86 2.91797 750.712 1.91016 752.774 1.18359C754.86 0.457031 757.157 0.09375 759.665 0.09375C761.751 0.09375 763.649 0.386719 765.36 0.972656C767.094 1.53516 768.63 2.33203 769.965 3.36328C771.325 4.37109 772.497 5.57812 773.481 6.98438C774.489 8.39062 775.309 9.9375 775.942 11.625C776.598 13.2891 777.079 15.0586 777.383 16.9336C777.712 18.7852 777.876 20.6719 777.876 22.5938ZM763.813 20.7656C763.813 20.1094 763.743 19.4414 763.602 18.7617C763.462 18.0586 763.227 17.4258 762.899 16.8633C762.594 16.3008 762.184 15.8438 761.669 15.4922C761.153 15.1172 760.508 14.9297 759.735 14.9297C758.797 14.9297 757.965 15.1875 757.239 15.7031C756.536 16.1953 755.926 16.8281 755.411 17.6016C754.895 18.3516 754.473 19.1719 754.145 20.0625C753.817 20.9531 753.571 21.7734 753.407 22.5234L763.813 21.5391V20.7656ZM816.951 33C816.951 36.2109 816.389 38.9883 815.264 41.332C814.162 43.6523 812.639 45.5742 810.693 47.0977C808.771 48.5977 806.51 49.7109 803.908 50.4375C801.33 51.1406 798.553 51.4922 795.576 51.4922C794.428 51.4922 793.162 51.3398 791.779 51.0352C790.42 50.7305 789.037 50.3555 787.631 49.9102C786.224 49.4414 784.865 48.9492 783.553 48.4336C782.264 47.8945 781.115 47.3906 780.107 46.9219L781.654 33.1406C783.646 34.3359 785.849 35.25 788.264 35.8828C790.701 36.4922 793.092 36.7969 795.435 36.7969C795.881 36.7969 796.42 36.7852 797.053 36.7617C797.685 36.7148 798.283 36.6094 798.846 36.4453C799.432 36.2578 799.924 35.9883 800.322 35.6367C800.721 35.2852 800.92 34.7812 800.92 34.125C800.92 33.6797 800.779 33.3047 800.498 33C800.217 32.6719 799.853 32.4141 799.408 32.2266C798.963 32.0156 798.459 31.8633 797.896 31.7695C797.334 31.6523 796.783 31.5703 796.244 31.5234C795.705 31.4766 795.201 31.4531 794.732 31.4531C794.264 31.4531 793.889 31.4531 793.607 31.4531C791.592 31.4531 789.752 31.1367 788.088 30.5039C786.447 29.8711 785.029 28.9805 783.834 27.832C782.662 26.6602 781.748 25.2539 781.092 23.6133C780.435 21.9492 780.107 20.1094 780.107 18.0938C780.107 15.3281 780.658 12.8555 781.76 10.6758C782.885 8.47266 784.373 6.60937 786.224 5.08594C788.099 3.53906 790.244 2.35547 792.658 1.53516C795.072 0.714844 797.568 0.304688 800.146 0.304688C801.295 0.304688 802.478 0.351562 803.697 0.445312C804.916 0.515625 806.123 0.65625 807.318 0.867188C808.537 1.07812 809.721 1.34766 810.869 1.67578C812.017 2.00391 813.107 2.41406 814.139 2.90625L812.803 17.1797C811.209 16.6406 809.533 16.1953 807.775 15.8438C806.041 15.4688 804.342 15.2812 802.678 15.2812C802.373 15.2812 801.974 15.293 801.482 15.3164C801.014 15.3164 800.51 15.3516 799.971 15.4219C799.455 15.4688 798.928 15.5508 798.389 15.668C797.849 15.7852 797.369 15.9492 796.947 16.1602C796.525 16.3477 796.185 16.6055 795.928 16.9336C795.67 17.2617 795.553 17.6484 795.576 18.0938C795.599 18.6094 795.787 19.0078 796.139 19.2891C796.514 19.5703 796.982 19.7812 797.545 19.9219C798.131 20.0391 798.764 20.0977 799.443 20.0977C800.146 20.0977 800.838 20.0859 801.517 20.0625C802.197 20.0156 802.83 19.9805 803.416 19.957C804.002 19.9102 804.482 19.8984 804.857 19.9219C806.732 20.0391 808.42 20.4375 809.92 21.1172C811.42 21.7969 812.685 22.6992 813.717 23.8242C814.771 24.9492 815.568 26.2969 816.107 27.8672C816.67 29.4141 816.951 31.125 816.951 33ZM838.308 1.5L835.847 49.3828L821.011 50.1562L819.605 2.48438L838.308 1.5ZM884.414 43.125C883.313 44.5078 881.953 45.7148 880.336 46.7461C878.719 47.7773 876.985 48.6328 875.133 49.3125C873.282 49.9922 871.383 50.5078 869.438 50.8594C867.493 51.1875 865.641 51.3516 863.883 51.3516C860.485 51.3516 857.356 50.7773 854.496 49.6289C851.637 48.4805 849.164 46.8867 847.078 44.8477C845.016 42.7852 843.399 40.3359 842.227 37.5C841.055 34.6641 840.469 31.5703 840.469 28.2188C840.469 25.6641 840.762 23.1797 841.348 20.7656C841.934 18.3516 842.766 16.0898 843.844 13.9805C844.946 11.8711 846.282 9.9375 847.852 8.17969C849.422 6.42188 851.203 4.91016 853.196 3.64453C855.188 2.37891 857.368 1.40625 859.735 0.726562C862.125 0.0234375 864.657 -0.328125 867.328 -0.328125C868.336 -0.328125 869.414 -0.28125 870.563 -0.1875C871.711 -0.117188 872.848 0.0234375 873.973 0.234375C875.121 0.421875 876.235 0.691406 877.313 1.04297C878.391 1.39453 879.375 1.82812 880.266 2.34375L879.282 15.7734C877.969 15.2812 876.61 14.9531 875.203 14.7891C873.821 14.6016 872.461 14.5078 871.125 14.5078C869.25 14.5078 867.493 14.7656 865.852 15.2812C864.235 15.7734 862.817 16.5117 861.598 17.4961C860.403 18.4805 859.453 19.7109 858.75 21.1875C858.047 22.6641 857.696 24.375 857.696 26.3203C857.696 27.5391 857.86 28.7227 858.188 29.8711C858.516 30.9961 859.008 32.0039 859.664 32.8945C860.344 33.7617 861.176 34.4648 862.161 35.0039C863.168 35.543 864.328 35.8125 865.641 35.8125C866.532 35.8125 867.446 35.6953 868.383 35.4609C869.344 35.2266 870.164 34.8281 870.844 34.2656L870.985 31.5234L862.547 31.3828L862.969 20.8359C866.461 20.7188 869.953 20.625 873.446 20.5547C876.938 20.4609 880.453 20.3438 883.993 20.2031L884.414 43.125ZM931.47 33.2109C931.47 35.8594 931.435 38.4844 931.365 41.0859C931.318 43.6641 931.236 46.2656 931.119 48.8906L910.869 48.5391C911.572 44.3906 912.181 40.2539 912.697 36.1289C913.213 31.9805 913.47 27.7969 913.47 23.5781C913.47 23.2734 913.459 22.7812 913.435 22.1016C913.412 21.4219 913.365 20.6602 913.295 19.8164C913.224 18.9492 913.119 18.0703 912.978 17.1797C912.861 16.2656 912.685 15.4336 912.451 14.6836C912.24 13.9336 911.97 13.3242 911.642 12.8555C911.338 12.3633 910.963 12.1172 910.517 12.1172C909.72 12.1172 909.041 12.3516 908.478 12.8203C907.939 13.2891 907.482 13.8984 907.107 14.6484C906.756 15.375 906.474 16.1953 906.263 17.1094C906.052 18.0234 905.888 18.9375 905.771 19.8516C905.677 20.7656 905.607 21.6328 905.56 22.4531C905.537 23.25 905.525 23.9062 905.525 24.4219C905.408 28.5703 905.314 32.6953 905.244 36.7969C905.174 40.875 905.08 45 904.963 49.1719L887.033 49.9453C887.502 41.6719 887.947 33.4453 888.369 25.2656C888.814 17.0859 889.166 8.85937 889.424 0.585938L906.017 -0.257812L905.877 5.36719C906.533 4.57031 907.236 3.82031 907.986 3.11719C908.76 2.41406 909.58 1.81641 910.447 1.32422C911.314 0.808594 912.228 0.410156 913.189 0.128906C914.174 -0.175781 915.205 -0.328125 916.283 -0.328125C918.275 -0.328125 920.021 0 921.521 0.65625C923.021 1.3125 924.31 2.20312 925.388 3.32812C926.467 4.45312 927.369 5.78906 928.095 7.33594C928.822 8.85937 929.408 10.4883 929.853 12.2227C930.299 13.957 930.638 15.7734 930.873 17.6719C931.107 19.5469 931.26 21.3984 931.33 23.2266C931.424 25.0547 931.47 26.8242 931.47 28.5352C931.47 30.2461 931.47 31.8047 931.47 33.2109ZM321.732 110.484C321.732 112.43 321.368 114.105 320.642 115.512C319.939 116.918 318.989 118.113 317.794 119.098C316.599 120.082 315.216 120.891 313.646 121.523C312.099 122.133 310.482 122.613 308.794 122.965C307.107 123.316 305.407 123.551 303.697 123.668C302.009 123.785 300.427 123.844 298.95 123.844C297.497 123.844 295.986 123.785 294.415 123.668C292.868 123.574 291.322 123.398 289.775 123.141C288.228 122.883 286.704 122.543 285.204 122.121C283.704 121.676 282.286 121.125 280.95 120.469L280.88 75.1875C282.193 74.6484 283.587 74.168 285.064 73.7461C286.54 73.3008 288.04 72.9375 289.564 72.6562C291.111 72.3516 292.646 72.1289 294.169 71.9883C295.693 71.8242 297.169 71.7422 298.599 71.7422C300.263 71.7422 301.939 71.8477 303.626 72.0586C305.337 72.2695 306.978 72.6211 308.548 73.1133C310.118 73.6055 311.583 74.25 312.943 75.0469C314.302 75.8203 315.486 76.7812 316.493 77.9297C317.525 79.0781 318.322 80.4141 318.884 81.9375C319.47 83.4609 319.763 85.2188 319.763 87.2109C319.763 88.5234 319.575 89.7539 319.2 90.9023C318.825 92.0508 318.286 93.082 317.583 93.9961C316.88 94.9102 316.025 95.6953 315.017 96.3516C314.009 96.9844 312.872 97.4531 311.607 97.7578C313.13 98.1562 314.513 98.7422 315.755 99.5156C317.021 100.289 318.087 101.227 318.954 102.328C319.845 103.43 320.525 104.672 320.993 106.055C321.486 107.438 321.732 108.914 321.732 110.484ZM303.872 90.4453C303.872 89.7656 303.732 89.1914 303.45 88.7227C303.169 88.2305 302.818 87.832 302.396 87.5273C301.997 87.2227 301.552 87 301.06 86.8594C300.591 86.7188 300.169 86.6484 299.794 86.6484C299.325 86.6484 298.868 86.7188 298.423 86.8594C297.978 87 297.544 87.1641 297.122 87.3516L296.911 95.1562C297.45 95.1562 298.118 95.1094 298.915 95.0156C299.712 94.9219 300.474 94.7227 301.2 94.418C301.95 94.0898 302.583 93.6211 303.099 93.0117C303.614 92.3789 303.872 91.5234 303.872 90.4453ZM298.88 101.906C298.2 101.906 297.544 101.977 296.911 102.117L296.771 110.133C297.122 110.203 297.462 110.273 297.79 110.344C298.142 110.391 298.482 110.414 298.81 110.414C299.302 110.414 299.841 110.367 300.427 110.273C301.013 110.156 301.564 109.945 302.079 109.641C302.595 109.312 303.017 108.879 303.345 108.34C303.697 107.801 303.872 107.086 303.872 106.195C303.872 105.305 303.697 104.578 303.345 104.016C303.017 103.453 302.607 103.02 302.114 102.715C301.622 102.387 301.083 102.176 300.497 102.082C299.911 101.965 299.372 101.906 298.88 101.906ZM355.182 104.367L353.706 119.977L324.104 122.297L325.229 72.0938H343.51L340.909 104.367H355.182ZM401.008 96.0703C401.008 98.2031 400.762 100.266 400.269 102.258C399.777 104.227 399.062 106.078 398.125 107.812C397.211 109.547 396.086 111.141 394.75 112.594C393.437 114.023 391.949 115.254 390.285 116.285C388.644 117.316 386.851 118.125 384.906 118.711C382.961 119.273 380.898 119.555 378.719 119.555C376.609 119.555 374.594 119.285 372.672 118.746C370.773 118.207 368.992 117.457 367.328 116.496C365.664 115.512 364.152 114.34 362.793 112.98C361.457 111.598 360.308 110.074 359.347 108.41C358.41 106.723 357.672 104.918 357.133 102.996C356.617 101.074 356.359 99.0703 356.359 96.9844C356.359 94.9453 356.605 92.9531 357.097 91.0078C357.59 89.0391 358.293 87.1875 359.207 85.4531C360.144 83.7188 361.269 82.125 362.582 80.6719C363.894 79.2188 365.359 77.9648 366.976 76.9102C368.617 75.8555 370.387 75.0352 372.285 74.4492C374.183 73.8633 376.187 73.5703 378.297 73.5703C381.695 73.5703 384.789 74.0977 387.578 75.1523C390.39 76.207 392.781 77.7188 394.75 79.6875C396.742 81.6328 398.277 84 399.355 86.7891C400.457 89.5547 401.008 92.6484 401.008 96.0703ZM385.398 96.9844C385.398 95.9766 385.246 95.0039 384.941 94.0664C384.66 93.1055 384.238 92.2617 383.676 91.5352C383.113 90.7852 382.41 90.1875 381.566 89.7422C380.746 89.2734 379.797 89.0391 378.719 89.0391C377.617 89.0391 376.633 89.2383 375.765 89.6367C374.898 90.0352 374.148 90.5859 373.515 91.2891C372.906 91.9688 372.437 92.7773 372.109 93.7148C371.781 94.6289 371.617 95.6016 371.617 96.6328C371.617 97.6172 371.758 98.6016 372.039 99.5859C372.32 100.57 372.742 101.461 373.304 102.258C373.867 103.055 374.558 103.699 375.379 104.191C376.222 104.684 377.195 104.93 378.297 104.93C379.398 104.93 380.383 104.719 381.25 104.297C382.14 103.852 382.89 103.266 383.5 102.539C384.109 101.789 384.578 100.934 384.906 99.9727C385.234 99.0117 385.398 98.0156 385.398 96.9844ZM446.692 115.125C445.591 116.508 444.232 117.715 442.614 118.746C440.997 119.777 439.263 120.633 437.411 121.312C435.56 121.992 433.661 122.508 431.716 122.859C429.771 123.188 427.919 123.352 426.161 123.352C422.763 123.352 419.634 122.777 416.774 121.629C413.915 120.48 411.442 118.887 409.357 116.848C407.294 114.785 405.677 112.336 404.505 109.5C403.333 106.664 402.747 103.57 402.747 100.219C402.747 97.6641 403.04 95.1797 403.626 92.7656C404.212 90.3516 405.044 88.0898 406.122 85.9805C407.224 83.8711 408.56 81.9375 410.13 80.1797C411.7 78.4219 413.482 76.9102 415.474 75.6445C417.466 74.3789 419.646 73.4062 422.013 72.7266C424.403 72.0234 426.935 71.6719 429.607 71.6719C430.614 71.6719 431.692 71.7188 432.841 71.8125C433.989 71.8828 435.126 72.0234 436.251 72.2344C437.399 72.4219 438.513 72.6914 439.591 73.043C440.669 73.3945 441.653 73.8281 442.544 74.3438L441.56 87.7734C440.247 87.2812 438.888 86.9531 437.482 86.7891C436.099 86.6016 434.739 86.5078 433.403 86.5078C431.528 86.5078 429.771 86.7656 428.13 87.2812C426.513 87.7734 425.095 88.5117 423.876 89.4961C422.681 90.4805 421.732 91.7109 421.028 93.1875C420.325 94.6641 419.974 96.375 419.974 98.3203C419.974 99.5391 420.138 100.723 420.466 101.871C420.794 102.996 421.286 104.004 421.942 104.895C422.622 105.762 423.454 106.465 424.439 107.004C425.446 107.543 426.607 107.812 427.919 107.812C428.81 107.812 429.724 107.695 430.661 107.461C431.622 107.227 432.442 106.828 433.122 106.266L433.263 103.523L424.825 103.383L425.247 92.8359C428.739 92.7188 432.232 92.625 435.724 92.5547C439.216 92.4609 442.732 92.3438 446.271 92.2031L446.692 115.125ZM486.155 105C486.155 108.211 485.592 110.988 484.467 113.332C483.366 115.652 481.842 117.574 479.897 119.098C477.975 120.598 475.713 121.711 473.112 122.438C470.534 123.141 467.756 123.492 464.78 123.492C463.631 123.492 462.366 123.34 460.983 123.035C459.623 122.73 458.241 122.355 456.834 121.91C455.428 121.441 454.069 120.949 452.756 120.434C451.467 119.895 450.319 119.391 449.311 118.922L450.858 105.141C452.85 106.336 455.053 107.25 457.467 107.883C459.905 108.492 462.295 108.797 464.639 108.797C465.084 108.797 465.623 108.785 466.256 108.762C466.889 108.715 467.487 108.609 468.049 108.445C468.635 108.258 469.127 107.988 469.526 107.637C469.924 107.285 470.123 106.781 470.123 106.125C470.123 105.68 469.983 105.305 469.702 105C469.42 104.672 469.057 104.414 468.612 104.227C468.166 104.016 467.662 103.863 467.1 103.77C466.537 103.652 465.987 103.57 465.448 103.523C464.909 103.477 464.405 103.453 463.936 103.453C463.467 103.453 463.092 103.453 462.811 103.453C460.795 103.453 458.955 103.137 457.291 102.504C455.651 101.871 454.233 100.98 453.037 99.832C451.866 98.6602 450.952 97.2539 450.295 95.6133C449.639 93.9492 449.311 92.1094 449.311 90.0938C449.311 87.3281 449.862 84.8555 450.963 82.6758C452.088 80.4727 453.577 78.6094 455.428 77.0859C457.303 75.5391 459.448 74.3555 461.862 73.5352C464.276 72.7148 466.772 72.3047 469.35 72.3047C470.498 72.3047 471.682 72.3516 472.901 72.4453C474.119 72.5156 475.327 72.6562 476.522 72.8672C477.741 73.0781 478.924 73.3477 480.073 73.6758C481.221 74.0039 482.311 74.4141 483.342 74.9062L482.006 89.1797C480.412 88.6406 478.737 88.1953 476.979 87.8438C475.244 87.4688 473.545 87.2812 471.881 87.2812C471.577 87.2812 471.178 87.293 470.686 87.3164C470.217 87.3164 469.713 87.3516 469.174 87.4219C468.659 87.4688 468.131 87.5508 467.592 87.668C467.053 87.7852 466.573 87.9492 466.151 88.1602C465.729 88.3477 465.389 88.6055 465.131 88.9336C464.873 89.2617 464.756 89.6484 464.78 90.0938C464.803 90.6094 464.991 91.0078 465.342 91.2891C465.717 91.5703 466.186 91.7812 466.748 91.9219C467.334 92.0391 467.967 92.0977 468.647 92.0977C469.35 92.0977 470.041 92.0859 470.721 92.0625C471.401 92.0156 472.034 91.9805 472.619 91.957C473.205 91.9102 473.686 91.8984 474.061 91.9219C475.936 92.0391 477.623 92.4375 479.123 93.1172C480.623 93.7969 481.889 94.6992 482.92 95.8242C483.975 96.9492 484.772 98.2969 485.311 99.8672C485.873 101.414 486.155 103.125 486.155 105ZM541.173 73.4297L540.821 88.3359L530.345 88.7578L529.079 121.383L514.243 122.156L512.907 89.5312L502.431 90.0938L502.852 73.5L541.173 73.4297ZM586.647 96.0703C586.647 98.2031 586.401 100.266 585.908 102.258C585.416 104.227 584.701 106.078 583.764 107.812C582.85 109.547 581.725 111.141 580.389 112.594C579.076 114.023 577.588 115.254 575.924 116.285C574.283 117.316 572.49 118.125 570.545 118.711C568.6 119.273 566.537 119.555 564.358 119.555C562.248 119.555 560.233 119.285 558.311 118.746C556.412 118.207 554.631 117.457 552.967 116.496C551.303 115.512 549.791 114.34 548.432 112.98C547.096 111.598 545.947 110.074 544.987 108.41C544.049 106.723 543.311 104.918 542.772 102.996C542.256 101.074 541.998 99.0703 541.998 96.9844C541.998 94.9453 542.244 92.9531 542.737 91.0078C543.229 89.0391 543.932 87.1875 544.846 85.4531C545.783 83.7188 546.908 82.125 548.221 80.6719C549.533 79.2188 550.998 77.9648 552.615 76.9102C554.256 75.8555 556.026 75.0352 557.924 74.4492C559.822 73.8633 561.826 73.5703 563.936 73.5703C567.334 73.5703 570.428 74.0977 573.217 75.1523C576.029 76.207 578.42 77.7188 580.389 79.6875C582.381 81.6328 583.916 84 584.994 86.7891C586.096 89.5547 586.647 92.6484 586.647 96.0703ZM571.037 96.9844C571.037 95.9766 570.885 95.0039 570.58 94.0664C570.299 93.1055 569.877 92.2617 569.315 91.5352C568.752 90.7852 568.049 90.1875 567.205 89.7422C566.385 89.2734 565.436 89.0391 564.358 89.0391C563.256 89.0391 562.272 89.2383 561.404 89.6367C560.537 90.0352 559.787 90.5859 559.154 91.2891C558.545 91.9688 558.076 92.7773 557.748 93.7148C557.42 94.6289 557.256 95.6016 557.256 96.6328C557.256 97.6172 557.397 98.6016 557.678 99.5859C557.959 100.57 558.381 101.461 558.944 102.258C559.506 103.055 560.197 103.699 561.018 104.191C561.862 104.684 562.834 104.93 563.936 104.93C565.037 104.93 566.022 104.719 566.889 104.297C567.779 103.852 568.529 103.266 569.139 102.539C569.748 101.789 570.217 100.934 570.545 99.9727C570.873 99.0117 571.037 98.0156 571.037 96.9844ZM637.868 73.0078C637.727 75.2109 637.598 77.3906 637.481 79.5469C637.364 81.7031 637.212 83.8828 637.024 86.0859L622.118 86.8594V91.2891H635.055L634.352 102.188L622.048 102.539L622.118 121.945L604.329 122.297L605.454 73.0078H637.868ZM683.236 96.0703C683.236 98.2031 682.99 100.266 682.498 102.258C682.006 104.227 681.291 106.078 680.354 107.812C679.439 109.547 678.314 111.141 676.979 112.594C675.666 114.023 674.178 115.254 672.514 116.285C670.873 117.316 669.08 118.125 667.135 118.711C665.189 119.273 663.127 119.555 660.947 119.555C658.838 119.555 656.822 119.285 654.9 118.746C653.002 118.207 651.221 117.457 649.557 116.496C647.893 115.512 646.381 114.34 645.021 112.98C643.686 111.598 642.537 110.074 641.576 108.41C640.639 106.723 639.9 104.918 639.361 102.996C638.846 101.074 638.588 99.0703 638.588 96.9844C638.588 94.9453 638.834 92.9531 639.326 91.0078C639.818 89.0391 640.521 87.1875 641.436 85.4531C642.373 83.7188 643.498 82.125 644.811 80.6719C646.123 79.2188 647.588 77.9648 649.205 76.9102C650.846 75.8555 652.615 75.0352 654.514 74.4492C656.412 73.8633 658.416 73.5703 660.525 73.5703C663.924 73.5703 667.018 74.0977 669.807 75.1523C672.619 76.207 675.01 77.7188 676.979 79.6875C678.971 81.6328 680.506 84 681.584 86.7891C682.686 89.5547 683.236 92.6484 683.236 96.0703ZM667.627 96.9844C667.627 95.9766 667.475 95.0039 667.17 94.0664C666.889 93.1055 666.467 92.2617 665.904 91.5352C665.342 90.7852 664.639 90.1875 663.795 89.7422C662.975 89.2734 662.025 89.0391 660.947 89.0391C659.846 89.0391 658.861 89.2383 657.994 89.6367C657.127 90.0352 656.377 90.5859 655.744 91.2891C655.135 91.9688 654.666 92.7773 654.338 93.7148C654.01 94.6289 653.846 95.6016 653.846 96.6328C653.846 97.6172 653.986 98.6016 654.268 99.5859C654.549 100.57 654.971 101.461 655.533 102.258C656.096 103.055 656.787 103.699 657.607 104.191C658.451 104.684 659.424 104.93 660.525 104.93C661.627 104.93 662.611 104.719 663.479 104.297C664.369 103.852 665.119 103.266 665.729 102.539C666.338 101.789 666.807 100.934 667.135 99.9727C667.463 99.0117 667.627 98.0156 667.627 96.9844ZM717.249 104.367L715.773 119.977L686.171 122.297L687.296 72.0938H705.577L702.976 104.367H717.249ZM750.454 104.367L748.977 119.977L719.376 122.297L720.501 72.0938H738.782L736.18 104.367H750.454ZM796.279 96.0703C796.279 98.2031 796.033 100.266 795.541 102.258C795.049 104.227 794.334 106.078 793.396 107.812C792.482 109.547 791.357 111.141 790.021 112.594C788.709 114.023 787.221 115.254 785.557 116.285C783.916 117.316 782.123 118.125 780.178 118.711C778.232 119.273 776.17 119.555 773.99 119.555C771.881 119.555 769.865 119.285 767.943 118.746C766.045 118.207 764.264 117.457 762.599 116.496C760.935 115.512 759.424 114.34 758.064 112.98C756.728 111.598 755.58 110.074 754.619 108.41C753.682 106.723 752.943 104.918 752.404 102.996C751.889 101.074 751.631 99.0703 751.631 96.9844C751.631 94.9453 751.877 92.9531 752.369 91.0078C752.861 89.0391 753.564 87.1875 754.478 85.4531C755.416 83.7188 756.541 82.125 757.853 80.6719C759.166 79.2188 760.631 77.9648 762.248 76.9102C763.889 75.8555 765.658 75.0352 767.557 74.4492C769.455 73.8633 771.459 73.5703 773.568 73.5703C776.967 73.5703 780.06 74.0977 782.849 75.1523C785.662 76.207 788.053 77.7188 790.021 79.6875C792.014 81.6328 793.549 84 794.627 86.7891C795.728 89.5547 796.279 92.6484 796.279 96.0703ZM780.67 96.9844C780.67 95.9766 780.517 95.0039 780.213 94.0664C779.932 93.1055 779.51 92.2617 778.947 91.5352C778.385 90.7852 777.682 90.1875 776.838 89.7422C776.017 89.2734 775.068 89.0391 773.99 89.0391C772.889 89.0391 771.904 89.2383 771.037 89.6367C770.17 90.0352 769.42 90.5859 768.787 91.2891C768.178 91.9688 767.709 92.7773 767.381 93.7148C767.053 94.6289 766.889 95.6016 766.889 96.6328C766.889 97.6172 767.029 98.6016 767.31 99.5859C767.592 100.57 768.014 101.461 768.576 102.258C769.139 103.055 769.83 103.699 770.65 104.191C771.494 104.684 772.467 104.93 773.568 104.93C774.67 104.93 775.654 104.719 776.521 104.297C777.412 103.852 778.162 103.266 778.771 102.539C779.381 101.789 779.849 100.934 780.178 99.9727C780.506 99.0117 780.67 98.0156 780.67 96.9844ZM861.968 74.2031L853.741 121.523L833.773 121.945L829.484 98.1094L825.194 120.117L805.226 120.82L796.929 75.6094L814.366 74.0625L817.882 101.836L822.593 76.1719H836.304L841.788 102.188L844.601 72.6562L861.968 74.2031Z" transform="translate(29 388)" fill="#212529"/>
<path d="M65.7772 0H0V188.126H65.7772V0Z" transform="translate(497.655 122)" fill="#12ABE3"/>
<path d="M28.127 0H0V75.339H28.127V0Z" transform="translate(516.481 140.835)" fill="white"/>
<path d="M38.3144 85.5321H0V0H38.3144V85.5321ZM10.1876 75.3391H28.1268V10.193H10.1876V75.3391Z" transform="translate(511.388 135.738)" fill="#212529"/>
<path d="M28.3484 14.1815C28.3484 21.937 22.1472 28.363 14.1742 28.363C6.42272 28.363 0 21.937 0 14.1815C0 6.42603 6.20125 0 14.1742 0C22.1472 0 28.3484 6.42603 28.3484 14.1815Z" transform="translate(516.26 263.15)" fill="white"/>
<path d="M19.2679 38.5559C8.63727 38.5559 0 29.9141 0 19.278C0 8.64186 8.63727 0 19.2679 0C29.8985 0 38.5361 8.64186 38.5361 19.278C38.5361 29.9141 29.6771 38.5559 19.2679 38.5559ZM19.2679 10.193C14.3955 10.193 10.1876 14.1815 10.1876 19.278C10.1876 24.1528 14.1741 28.3629 19.2679 28.3629C24.3617 28.3629 28.3482 24.3744 28.3482 19.278C28.1267 14.1815 24.1403 10.193 19.2679 10.193Z" transform="translate(511.388 258.053)" fill="#212529"/>
<path d="M10.1876 0H0V18.8348H10.1876V0Z" transform="translate(525.561 230.355)" fill="#212529"/>
<path d="M65.7769 0H0V188.126H65.7769V0Z" transform="translate(576.722 122)" fill="#12ABE3"/>
<path d="M28.1268 0H0V75.339H28.1268V0Z" transform="translate(595.326 140.835)" fill="white"/>
<path d="M38.3147 85.5321H0V0H38.3147V85.5321ZM9.96621 75.3391H27.9053V10.193H9.96621V75.3391Z" transform="translate(590.453 135.738)" fill="#212529"/>
<path d="M28.3482 14.1815C28.3482 21.937 21.9254 28.363 14.1739 28.363C6.42245 28.363 0 21.937 0 14.1815C0 6.42603 6.20098 0 14.1739 0C21.9254 0 28.3482 6.42603 28.3482 14.1815Z" transform="translate(595.326 263.15)" fill="white"/>
<path d="M19.2679 38.5559C8.63727 38.5559 0 29.9141 0 19.278C0 8.64186 8.63727 0 19.2679 0C29.8985 0 38.5361 8.64186 38.5361 19.278C38.5361 29.9141 29.8985 38.5559 19.2679 38.5559ZM19.2679 10.193C14.3955 10.193 10.1876 14.1815 10.1876 19.278C10.1876 24.1528 14.1741 28.3629 19.2679 28.3629C24.1403 28.3629 28.3484 24.3744 28.3484 19.278C28.3484 14.1815 24.3617 10.193 19.2679 10.193Z" transform="translate(590.23 258.053)" fill="#212529"/>
<path d="M10.1876 0H0V18.8348H10.1876V0Z" transform="translate(604.406 230.355)" fill="#212529"/>
<path d="M65.7769 0H0V188.126H65.7769V0Z" transform="translate(655.565 122)" fill="#2EB349"/>
<path d="M28.1268 0H0V75.339H28.1268V0Z" transform="translate(674.39 140.835)" fill="white"/>
<path d="M38.3147 85.5321H0V0H38.3147V85.5321ZM10.1879 75.3391H28.127V10.193H10.1879V75.3391Z" transform="translate(669.297 135.738)" fill="#212529"/>
<path d="M28.3482 14.1815C28.3482 21.937 22.1472 28.363 14.1742 28.363C6.42272 28.363 0 21.937 0 14.1815C0 6.42603 6.20125 0 14.1742 0C22.1472 0 28.3482 6.42603 28.3482 14.1815Z" transform="translate(674.169 263.15)" fill="white"/>
<path d="M19.2682 38.5559C8.63754 38.5559 0 29.9141 0 19.278C0 8.64186 8.63754 0 19.2682 0C29.8988 0 38.5361 8.64186 38.5361 19.278C38.5361 29.9141 29.6773 38.5559 19.2682 38.5559ZM19.2682 10.193C14.3958 10.193 10.1879 14.1815 10.1879 19.278C10.1879 24.1528 14.1743 28.3629 19.2682 28.3629C24.1405 28.3629 28.3484 24.3744 28.3484 19.278C28.127 14.1815 24.1405 10.193 19.2682 10.193Z" transform="translate(669.297 258.053)" fill="#212529"/>
<path d="M10.1876 0H0V18.8348H10.1876V0Z" transform="translate(683.47 230.355)" fill="#212529"/>
<path d="M295 34.5673H0V0H295V34.5673ZM10.1876 24.3744H284.812V10.1929H10.1876V24.3744Z" transform="translate(462 310.348)" fill="#212529"/>
<path d="M10.1876 0H0V14.1814H10.1876V0Z" transform="translate(492.562 339.819)" fill="#212529"/>
<path d="M10.1876 0H0V14.1814H10.1876V0Z" transform="translate(716.248 339.819)" fill="#212529"/>
</g>
<defs>
<clipPath id="clip0">
<rect width="1200" height="800" fill="white"/>
</clipPath>
</defs>
</svg>
