<svg width="1200" height="800" viewBox="0 0 1200 800" fill="none" xmlns="http://www.w3.org/2000/svg">
<g clip-path="url(#clip0)">
<rect width="1200" height="800" fill="white"/>
<rect width="1200" height="800" fill="white"/>
<path d="M0 0C31.1151 538.332 113.638 1018.29 230.657 1387.99V0H0Z" transform="translate(1228.99 570.668) rotate(90.0001)" fill="#EF4631"/>
<path d="M0 0C13.5283 516.713 73.0528 992.348 166.398 1381.5V0H0Z" transform="translate(1229 634.926) rotate(90.0001)" fill="#12ABE3"/>
<path d="M0.676409 0C-5.19087e-06 38.9156 5.16063e-06 77.8312 5.16063e-06 116.747C5.16063e-06 557.79 35.1736 972.89 98.0801 1333.94V0H0.676409Z" transform="translate(1229 703.92) rotate(90.0001)" fill="#2EB349"/>
<path d="M11.4991 0C4.05849 138.367 0 281.057 0 428.072C0 739.397 16.9104 1035.59 48.0254 1312.32V0H11.4991Z" transform="translate(1229 753.299) rotate(90.0001)" fill="#FFCD30"/>
<path d="M385.566 38.4844C385.566 40.4297 385.202 42.1055 384.476 43.5117C383.773 44.918 382.823 46.1133 381.628 47.0977C380.433 48.082 379.05 48.8906 377.48 49.5234C375.933 50.1328 374.316 50.6133 372.628 50.9648C370.941 51.3164 369.241 51.5508 367.53 51.668C365.843 51.7852 364.261 51.8438 362.784 51.8438C361.331 51.8438 359.819 51.7852 358.249 51.668C356.702 51.5742 355.155 51.3984 353.609 51.1406C352.062 50.8828 350.538 50.543 349.038 50.1211C347.538 49.6758 346.12 49.125 344.784 48.4688L344.714 3.1875C346.026 2.64844 347.421 2.16797 348.898 1.74609C350.374 1.30078 351.874 0.9375 353.398 0.65625C354.944 0.351562 356.48 0.128906 358.003 -0.0117188C359.526 -0.175781 361.003 -0.257812 362.433 -0.257812C364.097 -0.257812 365.773 -0.152344 367.46 0.0585938C369.171 0.269531 370.812 0.621094 372.382 1.11328C373.952 1.60547 375.417 2.25 376.776 3.04688C378.136 3.82031 379.319 4.78125 380.327 5.92969C381.359 7.07813 382.155 8.41406 382.718 9.9375C383.304 11.4609 383.597 13.2187 383.597 15.2109C383.597 16.5234 383.409 17.7539 383.034 18.9023C382.659 20.0508 382.12 21.082 381.417 21.9961C380.714 22.9102 379.859 23.6953 378.851 24.3516C377.843 24.9844 376.706 25.4531 375.441 25.7578C376.964 26.1562 378.347 26.7422 379.589 27.5156C380.855 28.2891 381.921 29.2266 382.788 30.3281C383.679 31.4297 384.359 32.6719 384.827 34.0547C385.319 35.4375 385.566 36.9141 385.566 38.4844ZM367.706 18.4453C367.706 17.7656 367.566 17.1914 367.284 16.7227C367.003 16.2305 366.651 15.832 366.23 15.5273C365.831 15.2227 365.386 15 364.894 14.8594C364.425 14.7188 364.003 14.6484 363.628 14.6484C363.159 14.6484 362.702 14.7188 362.257 14.8594C361.812 15 361.378 15.1641 360.956 15.3516L360.745 23.1562C361.284 23.1562 361.952 23.1094 362.749 23.0156C363.546 22.9219 364.308 22.7227 365.034 22.418C365.784 22.0898 366.417 21.6211 366.933 21.0117C367.448 20.3789 367.706 19.5234 367.706 18.4453ZM362.714 29.9062C362.034 29.9062 361.378 29.9766 360.745 30.1172L360.605 38.1328C360.956 38.2031 361.296 38.2734 361.624 38.3438C361.976 38.3906 362.316 38.4141 362.644 38.4141C363.136 38.4141 363.675 38.3672 364.261 38.2734C364.847 38.1562 365.398 37.9453 365.913 37.6406C366.429 37.3125 366.851 36.8789 367.179 36.3398C367.53 35.8008 367.706 35.0859 367.706 34.1953C367.706 33.3047 367.53 32.5781 367.179 32.0156C366.851 31.4531 366.441 31.0195 365.948 30.7148C365.456 30.3867 364.917 30.1758 364.331 30.082C363.745 29.9648 363.206 29.9062 362.714 29.9062ZM430.793 24.0703C430.793 26.2031 430.547 28.2656 430.055 30.2578C429.563 32.2266 428.848 34.0781 427.911 35.8125C426.996 37.5469 425.871 39.1406 424.536 40.5938C423.223 42.0234 421.735 43.2539 420.071 44.2852C418.43 45.3164 416.637 46.125 414.692 46.7109C412.746 47.2734 410.684 47.5547 408.504 47.5547C406.395 47.5547 404.379 47.2852 402.457 46.7461C400.559 46.207 398.778 45.457 397.114 44.4961C395.45 43.5117 393.938 42.3398 392.579 40.9805C391.243 39.5977 390.094 38.0742 389.133 36.4102C388.196 34.7227 387.457 32.918 386.918 30.9961C386.403 29.0742 386.145 27.0703 386.145 24.9844C386.145 22.9453 386.391 20.9531 386.883 19.0078C387.375 17.0391 388.079 15.1875 388.993 13.4531C389.93 11.7188 391.055 10.125 392.368 8.67188C393.68 7.21875 395.145 5.96484 396.762 4.91016C398.403 3.85547 400.172 3.03516 402.071 2.44922C403.969 1.86328 405.973 1.57031 408.082 1.57031C411.481 1.57031 414.575 2.09766 417.364 3.15234C420.176 4.20703 422.567 5.71875 424.536 7.6875C426.528 9.63281 428.063 12 429.141 14.7891C430.243 17.5547 430.793 20.6484 430.793 24.0703ZM415.184 24.9844C415.184 23.9766 415.032 23.0039 414.727 22.0664C414.446 21.1055 414.024 20.2617 413.461 19.5352C412.899 18.7852 412.196 18.1875 411.352 17.7422C410.532 17.2734 409.582 17.0391 408.504 17.0391C407.403 17.0391 406.418 17.2383 405.551 17.6367C404.684 18.0352 403.934 18.5859 403.301 19.2891C402.692 19.9688 402.223 20.7773 401.895 21.7148C401.567 22.6289 401.403 23.6016 401.403 24.6328C401.403 25.6172 401.543 26.6016 401.825 27.5859C402.106 28.5703 402.528 29.4609 403.09 30.2578C403.653 31.0547 404.344 31.6992 405.164 32.1914C406.008 32.6836 406.981 32.9297 408.082 32.9297C409.184 32.9297 410.168 32.7188 411.036 32.2969C411.926 31.8516 412.676 31.2656 413.286 30.5391C413.895 29.7891 414.364 28.9336 414.692 27.9727C415.02 27.0117 415.184 26.0156 415.184 24.9844ZM477.427 24.0703C477.427 26.2031 477.181 28.2656 476.689 30.2578C476.197 32.2266 475.482 34.0781 474.545 35.8125C473.631 37.5469 472.506 39.1406 471.17 40.5938C469.857 42.0234 468.369 43.2539 466.705 44.2852C465.064 45.3164 463.271 46.125 461.326 46.7109C459.381 47.2734 457.318 47.5547 455.138 47.5547C453.029 47.5547 451.013 47.2852 449.091 46.7461C447.193 46.207 445.412 45.457 443.748 44.4961C442.084 43.5117 440.572 42.3398 439.213 40.9805C437.877 39.5977 436.728 38.0742 435.767 36.4102C434.83 34.7227 434.091 32.918 433.552 30.9961C433.037 29.0742 432.779 27.0703 432.779 24.9844C432.779 22.9453 433.025 20.9531 433.517 19.0078C434.009 17.0391 434.713 15.1875 435.627 13.4531C436.564 11.7188 437.689 10.125 439.002 8.67188C440.314 7.21875 441.779 5.96484 443.396 4.91016C445.037 3.85547 446.806 3.03516 448.705 2.44922C450.603 1.86328 452.607 1.57031 454.716 1.57031C458.115 1.57031 461.209 2.09766 463.998 3.15234C466.81 4.20703 469.201 5.71875 471.17 7.6875C473.162 9.63281 474.697 12 475.775 14.7891C476.877 17.5547 477.427 20.6484 477.427 24.0703ZM461.818 24.9844C461.818 23.9766 461.666 23.0039 461.361 22.0664C461.08 21.1055 460.658 20.2617 460.095 19.5352C459.533 18.7852 458.83 18.1875 457.986 17.7422C457.166 17.2734 456.216 17.0391 455.138 17.0391C454.037 17.0391 453.052 17.2383 452.185 17.6367C451.318 18.0352 450.568 18.5859 449.935 19.2891C449.326 19.9688 448.857 20.7773 448.529 21.7148C448.201 22.6289 448.037 23.6016 448.037 24.6328C448.037 25.6172 448.177 26.6016 448.459 27.5859C448.74 28.5703 449.162 29.4609 449.724 30.2578C450.287 31.0547 450.978 31.6992 451.799 32.1914C452.642 32.6836 453.615 32.9297 454.716 32.9297C455.818 32.9297 456.802 32.7188 457.67 32.2969C458.56 31.8516 459.31 31.2656 459.92 30.5391C460.529 29.7891 460.998 28.9336 461.326 27.9727C461.654 27.0117 461.818 26.0156 461.818 24.9844ZM517.839 1.42969L517.487 16.3359L507.011 16.7578L505.745 49.3828L490.909 50.1562L489.573 17.5312L479.097 18.0938L479.519 1.5L517.839 1.42969ZM556.598 33C556.598 36.2109 556.035 38.9883 554.91 41.332C553.809 43.6523 552.285 45.5742 550.34 47.0977C548.418 48.5977 546.156 49.7109 543.555 50.4375C540.977 51.1406 538.199 51.4922 535.223 51.4922C534.074 51.4922 532.809 51.3398 531.426 51.0352C530.067 50.7305 528.684 50.3555 527.278 49.9102C525.871 49.4414 524.512 48.9492 523.199 48.4336C521.91 47.8945 520.762 47.3906 519.754 46.9219L521.301 33.1406C523.293 34.3359 525.496 35.25 527.91 35.8828C530.348 36.4922 532.739 36.7969 535.082 36.7969C535.528 36.7969 536.067 36.7852 536.699 36.7617C537.332 36.7148 537.93 36.6094 538.492 36.4453C539.078 36.2578 539.571 35.9883 539.969 35.6367C540.367 35.2852 540.567 34.7812 540.567 34.125C540.567 33.6797 540.426 33.3047 540.145 33C539.864 32.6719 539.5 32.4141 539.055 32.2266C538.61 32.0156 538.106 31.8633 537.543 31.7695C536.981 31.6523 536.43 31.5703 535.891 31.5234C535.352 31.4766 534.848 31.4531 534.379 31.4531C533.91 31.4531 533.535 31.4531 533.254 31.4531C531.239 31.4531 529.399 31.1367 527.735 30.5039C526.094 29.8711 524.676 28.9805 523.481 27.832C522.309 26.6602 521.395 25.2539 520.739 23.6133C520.082 21.9492 519.754 20.1094 519.754 18.0938C519.754 15.3281 520.305 12.8555 521.406 10.6758C522.531 8.47266 524.02 6.60937 525.871 5.08594C527.746 3.53906 529.891 2.35547 532.305 1.53516C534.719 0.714844 537.215 0.304688 539.793 0.304688C540.942 0.304688 542.125 0.351562 543.344 0.445312C544.563 0.515625 545.77 0.65625 546.965 0.867188C548.184 1.07812 549.367 1.34766 550.516 1.67578C551.664 2.00391 552.754 2.41406 553.785 2.90625L552.449 17.1797C550.856 16.6406 549.18 16.1953 547.422 15.8438C545.688 15.4688 543.989 15.2812 542.324 15.2812C542.02 15.2812 541.621 15.293 541.129 15.3164C540.66 15.3164 540.156 15.3516 539.617 15.4219C539.102 15.4688 538.574 15.5508 538.035 15.668C537.496 15.7852 537.016 15.9492 536.594 16.1602C536.172 16.3477 535.832 16.6055 535.574 16.9336C535.317 17.2617 535.199 17.6484 535.223 18.0938C535.246 18.6094 535.434 19.0078 535.785 19.2891C536.16 19.5703 536.629 19.7812 537.192 19.9219C537.778 20.0391 538.41 20.0977 539.09 20.0977C539.793 20.0977 540.485 20.0859 541.164 20.0625C541.844 20.0156 542.477 19.9805 543.063 19.957C543.649 19.9102 544.129 19.8984 544.504 19.9219C546.379 20.0391 548.067 20.4375 549.567 21.1172C551.067 21.7969 552.332 22.6992 553.364 23.8242C554.418 24.9492 555.215 26.2969 555.754 27.8672C556.317 29.4141 556.598 31.125 556.598 33ZM595.99 1.42969L595.638 16.3359L585.162 16.7578L583.896 49.3828L569.06 50.1562L567.724 17.5312L557.248 18.0938L557.669 1.5L595.99 1.42969ZM639.917 17.1094C639.917 18.9375 639.753 20.6016 639.425 22.1016C639.12 23.5781 638.628 24.9375 637.948 26.1797C637.268 27.4219 636.389 28.5703 635.311 29.625C634.233 30.6797 632.932 31.6875 631.409 32.6484L639.776 47.5547L623.956 50.6484L618.542 35.6719L614.182 35.8125L613.55 50.4375H598.432C598.55 45.0938 598.655 39.7734 598.749 34.4766C598.866 29.1797 598.995 23.8594 599.136 18.5156C599.182 15.8203 599.229 13.1484 599.276 10.5C599.323 7.85156 599.417 5.17969 599.557 2.48438C601.198 1.875 602.815 1.37109 604.409 0.972656C606.003 0.574219 607.596 0.269531 609.19 0.0585938C610.807 -0.175781 612.436 -0.328125 614.077 -0.398438C615.741 -0.492188 617.44 -0.539062 619.175 -0.539062C621.846 -0.539062 624.425 -0.164062 626.909 0.585938C629.417 1.3125 631.632 2.41406 633.554 3.89062C635.475 5.36719 637.011 7.20703 638.159 9.41016C639.331 11.6133 639.917 14.1797 639.917 17.1094ZM624.167 18.2344C624.167 17.25 624.026 16.3477 623.745 15.5273C623.487 14.707 623.089 14.0039 622.55 13.418C622.034 12.8086 621.378 12.3398 620.581 12.0117C619.807 11.6602 618.893 11.4844 617.839 11.4844C617.37 11.4844 616.913 11.5195 616.468 11.5898C616.022 11.6367 615.589 11.7188 615.167 11.8359L614.604 24.9141H615.448C616.456 24.9141 617.475 24.7852 618.507 24.5273C619.561 24.2695 620.499 23.8711 621.319 23.332C622.163 22.793 622.843 22.1016 623.358 21.2578C623.897 20.4141 624.167 19.4062 624.167 18.2344ZM687.43 47.9766L669.992 50.2266L667.883 42.2812H659.867L658.109 50.2266L640.18 48.4688L654.172 1.64062L673.719 0.65625L687.43 47.9766ZM666.617 31.5234L663.945 19.2891L661.344 31.5234H666.617ZM729.845 18.5859C729.845 20.8594 729.505 22.875 728.826 24.6328C728.146 26.3906 727.208 27.9375 726.013 29.2734C724.841 30.5859 723.458 31.6992 721.865 32.6133C720.271 33.5039 718.56 34.2422 716.732 34.8281C714.927 35.3906 713.052 35.8125 711.107 36.0938C709.161 36.3516 707.251 36.4922 705.376 36.5156V51.4922H688.994C688.994 48.8203 688.994 46.2188 688.994 43.6875C689.017 41.1562 689.029 38.6484 689.029 36.1641C689.052 33.6562 689.064 31.1367 689.064 28.6055C689.087 26.0742 689.111 23.4609 689.134 20.7656C689.181 17.9062 689.193 15.0469 689.169 12.1875C689.146 9.32813 689.204 6.44531 689.345 3.53906C692.345 2.64844 695.345 1.98047 698.345 1.53516C701.345 1.08984 704.439 0.867188 707.626 0.867188C709.431 0.867188 711.236 1.01953 713.04 1.32422C714.845 1.60547 716.568 2.0625 718.208 2.69531C719.872 3.32812 721.408 4.125 722.814 5.08594C724.244 6.02344 725.474 7.14844 726.505 8.46094C727.536 9.77344 728.345 11.2734 728.931 12.9609C729.54 14.6484 729.845 16.5234 729.845 18.5859ZM714.236 19.7812C714.236 18.2578 713.767 17.0742 712.829 16.2305C711.915 15.3633 710.72 14.9297 709.244 14.9297C708.751 14.9297 708.236 14.9766 707.697 15.0703C707.181 15.1406 706.689 15.2344 706.22 15.3516L705.798 25.6172C706.126 25.6641 706.443 25.6875 706.747 25.6875C707.052 25.6875 707.369 25.6875 707.697 25.6875C708.54 25.6875 709.349 25.5469 710.122 25.2656C710.919 24.9844 711.622 24.5859 712.232 24.0703C712.841 23.5312 713.322 22.9102 713.673 22.207C714.048 21.4805 714.236 20.6719 714.236 19.7812ZM782.332 33.2812C782.332 36.3984 781.828 39.1055 780.82 41.4023C779.836 43.6758 778.453 45.5742 776.672 47.0977C774.891 48.5977 772.758 49.7227 770.273 50.4727C767.812 51.1992 765.105 51.5625 762.152 51.5625C760.816 51.5625 759.445 51.4336 758.039 51.1758C756.633 50.918 755.238 50.5664 753.855 50.1211C752.473 49.6758 751.125 49.1484 749.812 48.5391C748.523 47.9297 747.316 47.2734 746.191 46.5703L747.527 32.4375C748.418 33.0469 749.414 33.6328 750.516 34.1953C751.617 34.7344 752.754 35.2266 753.926 35.6719C755.121 36.0938 756.316 36.4336 757.512 36.6914C758.73 36.9492 759.902 37.0781 761.027 37.0781C761.684 37.0781 762.352 37.0312 763.031 36.9375C763.734 36.8203 764.367 36.6211 764.93 36.3398C765.492 36.0586 765.949 35.6602 766.301 35.1445C766.676 34.6289 766.863 33.9609 766.863 33.1406C766.863 32.625 766.629 32.1445 766.16 31.6992C765.691 31.2539 765.129 30.8789 764.473 30.5742C763.816 30.2461 763.137 30 762.434 29.8359C761.73 29.6484 761.144 29.5547 760.676 29.5547C760.348 29.5547 759.949 29.5781 759.48 29.625C759.035 29.6484 758.578 29.6953 758.109 29.7656C757.641 29.8359 757.184 29.9414 756.738 30.082C756.316 30.1992 755.988 30.3516 755.754 30.5391L755.965 20.4844C756.363 20.5312 756.738 20.5664 757.09 20.5898C757.441 20.6133 757.816 20.625 758.215 20.625C759.035 20.625 759.926 20.5547 760.887 20.4141C761.848 20.25 762.738 19.9805 763.559 19.6055C764.379 19.207 765.059 18.668 765.598 17.9883C766.16 17.3086 766.441 16.4297 766.441 15.3516C766.441 14.5781 766.23 13.957 765.809 13.4883C765.387 12.9961 764.859 12.6211 764.227 12.3633C763.617 12.1055 762.949 11.9297 762.223 11.8359C761.496 11.7422 760.84 11.6953 760.254 11.6953C758.355 11.6953 756.48 12.0234 754.629 12.6797C752.801 13.3359 751.184 14.2969 749.777 15.5625L746.824 2.76562C748.98 1.00781 751.43 -0.328125 754.172 -1.24219C756.937 -2.17969 759.715 -2.64844 762.504 -2.64844C765.059 -2.64844 767.496 -2.27344 769.816 -1.52344C772.16 -0.796875 774.223 0.292969 776.004 1.74609C777.785 3.17578 779.203 4.94531 780.258 7.05469C781.312 9.16406 781.84 11.6016 781.84 14.3672C781.84 15.1641 781.723 15.9727 781.488 16.793C781.254 17.6133 780.937 18.4102 780.539 19.1836C780.141 19.957 779.672 20.6836 779.133 21.3633C778.594 22.0195 778.019 22.5938 777.41 23.0859C778.394 23.5312 779.203 24.1289 779.836 24.8789C780.469 25.6289 780.973 26.4609 781.348 27.375C781.723 28.2891 781.98 29.2617 782.121 30.293C782.262 31.3008 782.332 32.2969 782.332 33.2812ZM366.784 90.5859C366.784 92.8594 366.444 94.875 365.764 96.6328C365.084 98.3906 364.147 99.9375 362.952 101.273C361.78 102.586 360.397 103.699 358.803 104.613C357.209 105.504 355.499 106.242 353.67 106.828C351.866 107.391 349.991 107.812 348.045 108.094C346.1 108.352 344.19 108.492 342.315 108.516V123.492H325.932C325.932 120.82 325.932 118.219 325.932 115.688C325.956 113.156 325.967 110.648 325.967 108.164C325.991 105.656 326.002 103.137 326.002 100.605C326.026 98.0742 326.049 95.4609 326.073 92.7656C326.12 89.9062 326.131 87.0469 326.108 84.1875C326.084 81.3281 326.143 78.4453 326.284 75.5391C329.284 74.6484 332.284 73.9805 335.284 73.5352C338.284 73.0898 341.377 72.8672 344.565 72.8672C346.37 72.8672 348.174 73.0195 349.979 73.3242C351.784 73.6055 353.506 74.0625 355.147 74.6953C356.811 75.3281 358.346 76.125 359.752 77.0859C361.182 78.0234 362.413 79.1484 363.444 80.4609C364.475 81.7734 365.284 83.2734 365.87 84.9609C366.479 86.6484 366.784 88.5234 366.784 90.5859ZM351.174 91.7812C351.174 90.2578 350.706 89.0742 349.768 88.2305C348.854 87.3633 347.659 86.9297 346.182 86.9297C345.69 86.9297 345.174 86.9766 344.635 87.0703C344.12 87.1406 343.627 87.2344 343.159 87.3516L342.737 97.6172C343.065 97.6641 343.381 97.6875 343.686 97.6875C343.991 97.6875 344.307 97.6875 344.635 97.6875C345.479 97.6875 346.288 97.5469 347.061 97.2656C347.858 96.9844 348.561 96.5859 349.17 96.0703C349.78 95.5312 350.26 94.9102 350.612 94.207C350.987 93.4805 351.174 92.6719 351.174 91.7812ZM410.605 119.977L393.168 122.227L391.058 114.281H383.043L381.285 122.227L363.355 120.469L377.347 73.6406L396.894 72.6562L410.605 119.977ZM389.793 103.523L387.121 91.2891L384.519 103.523H389.793ZM453.653 115.125C452.552 116.508 451.192 117.715 449.575 118.746C447.958 119.777 446.224 120.633 444.372 121.312C442.521 121.992 440.622 122.508 438.677 122.859C436.732 123.188 434.88 123.352 433.122 123.352C429.724 123.352 426.595 122.777 423.735 121.629C420.876 120.48 418.403 118.887 416.317 116.848C414.255 114.785 412.638 112.336 411.466 109.5C410.294 106.664 409.708 103.57 409.708 100.219C409.708 97.6641 410.001 95.1797 410.587 92.7656C411.173 90.3516 412.005 88.0898 413.083 85.9805C414.185 83.8711 415.521 81.9375 417.091 80.1797C418.661 78.4219 420.442 76.9102 422.435 75.6445C424.427 74.3789 426.607 73.4062 428.974 72.7266C431.364 72.0234 433.896 71.6719 436.567 71.6719C437.575 71.6719 438.653 71.7188 439.802 71.8125C440.95 71.8828 442.087 72.0234 443.212 72.2344C444.36 72.4219 445.474 72.6914 446.552 73.043C447.63 73.3945 448.614 73.8281 449.505 74.3438L448.521 87.7734C447.208 87.2812 445.849 86.9531 444.442 86.7891C443.06 86.6016 441.7 86.5078 440.364 86.5078C438.489 86.5078 436.732 86.7656 435.091 87.2812C433.474 87.7734 432.056 88.5117 430.837 89.4961C429.642 90.4805 428.692 91.7109 427.989 93.1875C427.286 94.6641 426.935 96.375 426.935 98.3203C426.935 99.5391 427.099 100.723 427.427 101.871C427.755 102.996 428.247 104.004 428.903 104.895C429.583 105.762 430.415 106.465 431.399 107.004C432.407 107.543 433.567 107.812 434.88 107.812C435.771 107.812 436.685 107.695 437.622 107.461C438.583 107.227 439.403 106.828 440.083 106.266L440.224 103.523L431.786 103.383L432.208 92.8359C435.7 92.7188 439.192 92.625 442.685 92.5547C446.177 92.4609 449.692 92.3438 453.232 92.2031L453.653 115.125ZM496.315 94.5938C496.315 96.6328 496.174 98.6719 495.893 100.711C491.885 100.969 487.901 101.391 483.94 101.977C479.979 102.539 476.018 103.102 472.057 103.664C472.666 105.352 473.616 106.699 474.905 107.707C476.217 108.715 477.776 109.219 479.58 109.219C480.518 109.219 481.537 109.043 482.639 108.691C483.764 108.34 484.877 107.906 485.979 107.391C487.08 106.852 488.135 106.277 489.143 105.668C490.151 105.059 491.018 104.508 491.744 104.016L490.057 119.977C489.143 120.68 488.147 121.277 487.069 121.77C486.014 122.262 484.912 122.66 483.764 122.965C482.616 123.27 481.455 123.492 480.284 123.633C479.112 123.773 477.963 123.844 476.838 123.844C474.518 123.844 472.397 123.527 470.475 122.895C468.553 122.262 466.807 121.383 465.237 120.258C463.69 119.109 462.33 117.762 461.159 116.215C459.987 114.668 459.014 112.98 458.241 111.152C457.467 109.324 456.881 107.391 456.483 105.352C456.084 103.312 455.885 101.25 455.885 99.1641C455.885 96.9844 456.084 94.8047 456.483 92.625C456.881 90.4453 457.479 88.3477 458.276 86.332C459.096 84.3164 460.116 82.4531 461.334 80.7422C462.577 79.0078 464.018 77.4961 465.659 76.207C467.299 74.918 469.151 73.9102 471.213 73.1836C473.299 72.457 475.596 72.0938 478.104 72.0938C480.19 72.0938 482.088 72.3867 483.799 72.9727C485.534 73.5352 487.069 74.332 488.405 75.3633C489.764 76.3711 490.936 77.5781 491.92 78.9844C492.928 80.3906 493.748 81.9375 494.381 83.625C495.037 85.2891 495.518 87.0586 495.823 88.9336C496.151 90.7852 496.315 92.6719 496.315 94.5938ZM482.252 92.7656C482.252 92.1094 482.182 91.4414 482.041 90.7617C481.901 90.0586 481.666 89.4258 481.338 88.8633C481.034 88.3008 480.623 87.8438 480.108 87.4922C479.592 87.1172 478.948 86.9297 478.174 86.9297C477.237 86.9297 476.405 87.1875 475.678 87.7031C474.975 88.1953 474.366 88.8281 473.85 89.6016C473.334 90.3516 472.912 91.1719 472.584 92.0625C472.256 92.9531 472.01 93.7734 471.846 94.5234L482.252 93.5391V92.7656ZM535.39 105C535.39 108.211 534.828 110.988 533.703 113.332C532.601 115.652 531.078 117.574 529.132 119.098C527.211 120.598 524.949 121.711 522.347 122.438C519.769 123.141 516.992 123.492 514.015 123.492C512.867 123.492 511.601 123.34 510.218 123.035C508.859 122.73 507.476 122.355 506.07 121.91C504.664 121.441 503.304 120.949 501.992 120.434C500.703 119.895 499.554 119.391 498.547 118.922L500.093 105.141C502.086 106.336 504.289 107.25 506.703 107.883C509.14 108.492 511.531 108.797 513.875 108.797C514.32 108.797 514.859 108.785 515.492 108.762C516.125 108.715 516.722 108.609 517.285 108.445C517.871 108.258 518.363 107.988 518.761 107.637C519.16 107.285 519.359 106.781 519.359 106.125C519.359 105.68 519.218 105.305 518.937 105C518.656 104.672 518.293 104.414 517.847 104.227C517.402 104.016 516.898 103.863 516.336 103.77C515.773 103.652 515.222 103.57 514.683 103.523C514.144 103.477 513.64 103.453 513.172 103.453C512.703 103.453 512.328 103.453 512.047 103.453C510.031 103.453 508.191 103.137 506.527 102.504C504.886 101.871 503.468 100.98 502.273 99.832C501.101 98.6602 500.187 97.2539 499.531 95.6133C498.875 93.9492 498.547 92.1094 498.547 90.0938C498.547 87.3281 499.097 84.8555 500.199 82.6758C501.324 80.4727 502.812 78.6094 504.664 77.0859C506.539 75.5391 508.683 74.3555 511.097 73.5352C513.511 72.7148 516.007 72.3047 518.586 72.3047C519.734 72.3047 520.918 72.3516 522.136 72.4453C523.355 72.5156 524.562 72.6562 525.757 72.8672C526.976 73.0781 528.16 73.3477 529.308 73.6758C530.457 74.0039 531.547 74.4141 532.578 74.9062L531.242 89.1797C529.648 88.6406 527.972 88.1953 526.214 87.8438C524.48 87.4688 522.781 87.2812 521.117 87.2812C520.812 87.2812 520.414 87.293 519.922 87.3164C519.453 87.3164 518.949 87.3516 518.41 87.4219C517.894 87.4688 517.367 87.5508 516.828 87.668C516.289 87.7852 515.808 87.9492 515.386 88.1602C514.964 88.3477 514.625 88.6055 514.367 88.9336C514.109 89.2617 513.992 89.6484 514.015 90.0938C514.039 90.6094 514.226 91.0078 514.578 91.2891C514.953 91.5703 515.422 91.7812 515.984 91.9219C516.57 92.0391 517.203 92.0977 517.882 92.0977C518.586 92.0977 519.277 92.0859 519.957 92.0625C520.636 92.0156 521.269 91.9805 521.855 91.957C522.441 91.9102 522.922 91.8984 523.297 91.9219C525.172 92.0391 526.859 92.4375 528.359 93.1172C529.859 93.7969 531.125 94.6992 532.156 95.8242C533.211 96.9492 534.007 98.2969 534.547 99.8672C535.109 101.414 535.39 103.125 535.39 105ZM590.408 73.4297L590.057 88.3359L579.58 88.7578L578.315 121.383L563.479 122.156L562.143 89.5312L551.666 90.0938L552.088 73.5L590.408 73.4297ZM635.882 96.0703C635.882 98.2031 635.636 100.266 635.144 102.258C634.652 104.227 633.937 106.078 633 107.812C632.085 109.547 630.96 111.141 629.625 112.594C628.312 114.023 626.824 115.254 625.16 116.285C623.519 117.316 621.726 118.125 619.781 118.711C617.835 119.273 615.773 119.555 613.593 119.555C611.484 119.555 609.468 119.285 607.546 118.746C605.648 118.207 603.867 117.457 602.203 116.496C600.539 115.512 599.027 114.34 597.667 112.98C596.332 111.598 595.183 110.074 594.222 108.41C593.285 106.723 592.546 104.918 592.007 102.996C591.492 101.074 591.234 99.0703 591.234 96.9844C591.234 94.9453 591.48 92.9531 591.972 91.0078C592.464 89.0391 593.167 87.1875 594.082 85.4531C595.019 83.7188 596.144 82.125 597.457 80.6719C598.769 79.2188 600.234 77.9648 601.851 76.9102C603.492 75.8555 605.261 75.0352 607.16 74.4492C609.058 73.8633 611.062 73.5703 613.171 73.5703C616.57 73.5703 619.664 74.0977 622.453 75.1523C625.265 76.207 627.656 77.7188 629.625 79.6875C631.617 81.6328 633.152 84 634.23 86.7891C635.332 89.5547 635.882 92.6484 635.882 96.0703ZM620.273 96.9844C620.273 95.9766 620.121 95.0039 619.816 94.0664C619.535 93.1055 619.113 92.2617 618.55 91.5352C617.988 90.7852 617.285 90.1875 616.441 89.7422C615.621 89.2734 614.671 89.0391 613.593 89.0391C612.492 89.0391 611.507 89.2383 610.64 89.6367C609.773 90.0352 609.023 90.5859 608.39 91.2891C607.781 91.9688 607.312 92.7773 606.984 93.7148C606.656 94.6289 606.492 95.6016 606.492 96.6328C606.492 97.6172 606.632 98.6016 606.914 99.5859C607.195 100.57 607.617 101.461 608.179 102.258C608.742 103.055 609.433 103.699 610.253 104.191C611.097 104.684 612.07 104.93 613.171 104.93C614.273 104.93 615.257 104.719 616.125 104.297C617.015 103.852 617.765 103.266 618.375 102.539C618.984 101.789 619.453 100.934 619.781 99.9727C620.109 99.0117 620.273 98.0156 620.273 96.9844ZM689.881 105C689.881 108.211 689.318 110.988 688.193 113.332C687.092 115.652 685.568 117.574 683.623 119.098C681.701 120.598 679.439 121.711 676.838 122.438C674.26 123.141 671.482 123.492 668.506 123.492C667.357 123.492 666.092 123.34 664.709 123.035C663.35 122.73 661.967 122.355 660.561 121.91C659.154 121.441 657.795 120.949 656.482 120.434C655.193 119.895 654.045 119.391 653.037 118.922L654.584 105.141C656.576 106.336 658.779 107.25 661.193 107.883C663.631 108.492 666.021 108.797 668.365 108.797C668.811 108.797 669.35 108.785 669.982 108.762C670.615 108.715 671.213 108.609 671.775 108.445C672.361 108.258 672.854 107.988 673.252 107.637C673.65 107.285 673.85 106.781 673.85 106.125C673.85 105.68 673.709 105.305 673.428 105C673.146 104.672 672.783 104.414 672.338 104.227C671.893 104.016 671.389 103.863 670.826 103.77C670.264 103.652 669.713 103.57 669.174 103.523C668.635 103.477 668.131 103.453 667.662 103.453C667.193 103.453 666.818 103.453 666.537 103.453C664.521 103.453 662.682 103.137 661.018 102.504C659.377 101.871 657.959 100.98 656.764 99.832C655.592 98.6602 654.678 97.2539 654.021 95.6133C653.365 93.9492 653.037 92.1094 653.037 90.0938C653.037 87.3281 653.588 84.8555 654.689 82.6758C655.814 80.4727 657.303 78.6094 659.154 77.0859C661.029 75.5391 663.174 74.3555 665.588 73.5352C668.002 72.7148 670.498 72.3047 673.076 72.3047C674.225 72.3047 675.408 72.3516 676.627 72.4453C677.846 72.5156 679.053 72.6562 680.248 72.8672C681.467 73.0781 682.65 73.3477 683.799 73.6758C684.947 74.0039 686.037 74.4141 687.068 74.9062L685.732 89.1797C684.139 88.6406 682.463 88.1953 680.705 87.8438C678.971 87.4688 677.271 87.2812 675.607 87.2812C675.303 87.2812 674.904 87.293 674.412 87.3164C673.943 87.3164 673.439 87.3516 672.9 87.4219C672.385 87.4688 671.857 87.5508 671.318 87.668C670.779 87.7852 670.299 87.9492 669.877 88.1602C669.455 88.3477 669.115 88.6055 668.857 88.9336C668.6 89.2617 668.482 89.6484 668.506 90.0938C668.529 90.6094 668.717 91.0078 669.068 91.2891C669.443 91.5703 669.912 91.7812 670.475 91.9219C671.061 92.0391 671.693 92.0977 672.373 92.0977C673.076 92.0977 673.768 92.0859 674.447 92.0625C675.127 92.0156 675.76 91.9805 676.346 91.957C676.932 91.9102 677.412 91.8984 677.787 91.9219C679.662 92.0391 681.35 92.4375 682.85 93.1172C684.35 93.7969 685.615 94.6992 686.646 95.8242C687.701 96.9492 688.498 98.2969 689.037 99.8672C689.6 101.414 689.881 103.125 689.881 105ZM736.726 119.977L719.288 122.227L717.179 114.281H709.163L707.406 122.227L689.476 120.469L703.468 73.6406L723.015 72.6562L736.726 119.977ZM715.913 103.523L713.242 91.2891L710.64 103.523H715.913ZM777.454 73.7109L764.587 121.242L747.149 122.227L731.329 76.3125L747.993 74.7656L754.743 101.484L761.282 72.6562L777.454 73.7109ZM816.67 94.5938C816.67 96.6328 816.529 98.6719 816.248 100.711C812.24 100.969 808.256 101.391 804.295 101.977C800.334 102.539 796.373 103.102 792.412 103.664C793.021 105.352 793.971 106.699 795.26 107.707C796.572 108.715 798.131 109.219 799.935 109.219C800.873 109.219 801.892 109.043 802.994 108.691C804.119 108.34 805.232 107.906 806.334 107.391C807.435 106.852 808.49 106.277 809.498 105.668C810.506 105.059 811.373 104.508 812.099 104.016L810.412 119.977C809.498 120.68 808.502 121.277 807.424 121.77C806.369 122.262 805.267 122.66 804.119 122.965C802.971 123.27 801.81 123.492 800.639 123.633C799.467 123.773 798.318 123.844 797.193 123.844C794.873 123.844 792.752 123.527 790.83 122.895C788.908 122.262 787.162 121.383 785.592 120.258C784.045 119.109 782.685 117.762 781.514 116.215C780.342 114.668 779.369 112.98 778.596 111.152C777.822 109.324 777.236 107.391 776.838 105.352C776.439 103.312 776.24 101.25 776.24 99.1641C776.24 96.9844 776.439 94.8047 776.838 92.625C777.236 90.4453 777.834 88.3477 778.631 86.332C779.451 84.3164 780.471 82.4531 781.689 80.7422C782.932 79.0078 784.373 77.4961 786.014 76.207C787.654 74.918 789.506 73.9102 791.568 73.1836C793.654 72.457 795.951 72.0938 798.459 72.0938C800.545 72.0938 802.443 72.3867 804.154 72.9727C805.889 73.5352 807.424 74.332 808.76 75.3633C810.119 76.3711 811.291 77.5781 812.275 78.9844C813.283 80.3906 814.103 81.9375 814.736 83.625C815.392 85.2891 815.873 87.0586 816.178 88.9336C816.506 90.7852 816.67 92.6719 816.67 94.5938ZM802.607 92.7656C802.607 92.1094 802.537 91.4414 802.396 90.7617C802.256 90.0586 802.021 89.4258 801.693 88.8633C801.389 88.3008 800.978 87.8438 800.463 87.4922C799.947 87.1172 799.303 86.9297 798.529 86.9297C797.592 86.9297 796.76 87.1875 796.033 87.7031C795.33 88.1953 794.721 88.8281 794.205 89.6016C793.689 90.3516 793.267 91.1719 792.939 92.0625C792.611 92.9531 792.365 93.7734 792.201 94.5234L802.607 93.5391V92.7656Z" transform="translate(29 390)" fill="#212529"/>
<path d="M30.0921 0H0V11.4163H30.0921V0Z" transform="translate(561.399 176.294)" fill="#EF4631"/>
<path d="M32.3304 0H0V11.4163H32.3304V0Z" transform="translate(591.49 215.507)" fill="#212529"/>
<path d="M32.3304 0H0V11.4165H32.3304V0Z" transform="translate(591.49 235.113)" fill="#212529"/>
<path d="M32.3304 0H0V11.4165H32.3304V0Z" transform="translate(591.49 293.932)" fill="#212529"/>
<path d="M32.3304 0H0V11.4163H32.3304V0Z" transform="translate(591.49 313.539)" fill="#212529"/>
<path d="M62.4226 0H0V11.4165H62.4226V0Z" transform="translate(561.399 195.9)" fill="#12ABE3"/>
<path d="M30.0921 0H0V11.4163H30.0921V0Z" transform="translate(561.399 254.72)" fill="#EF4631"/>
<path d="M62.4226 0H0V11.4163H62.4226V0Z" transform="translate(561.399 274.326)" fill="#12ABE3"/>
<path d="M32.3304 0H0V11.4163H32.3304V0Z" transform="translate(636.255 215.507)" fill="#EF4631"/>
<path d="M62.4227 0H0V11.4165H62.4227V0Z" transform="translate(636.255 235.113)" fill="#212529"/>
<path d="M32.3304 0H0V11.4165H32.3304V0Z" transform="translate(636.255 293.932)" fill="#EF4631"/>
<path d="M62.4227 0H0V11.4163H62.4227V0Z" transform="translate(636.255 313.539)" fill="#212529"/>
<path d="M32.3304 0H0V11.4165H32.3304V0Z" transform="translate(636.255 195.9)" fill="#212529"/>
<path d="M32.3304 0H0V11.4163H32.3304V0Z" transform="translate(636.255 274.326)" fill="#212529"/>
<path d="M286 204.751H0V0H286V204.751ZM11.4399 193.334H274.56V11.4165H11.4399V193.334Z" transform="translate(447 148.249)" fill="#212529"/>
<path d="M286 45.6657H0V0H286V45.6657ZM11.4399 34.2492H274.56V11.4165H11.4399V34.2492Z" transform="translate(447 114)" fill="#212529"/>
<path d="M11.4399 0H0V11.4163H11.4399V0Z" transform="translate(464.161 131.124)" fill="#212529"/>
<path d="M11.4401 0H0V11.4163H11.4401V0Z" transform="translate(487.039 131.124)" fill="#212529"/>
<path d="M11.4401 0H0V11.4163H11.4401V0Z" transform="translate(509.919 131.124)" fill="#212529"/>
<path d="M11.4399 0H0V193.334H11.4399V0Z" transform="translate(527.081 153.958)" fill="#212529"/>
<path d="M45.7599 0H0V50.6292H45.7599V0Z" transform="translate(469.88 176.294)" fill="#12ABE3"/>
<path d="M45.7599 0H0V11.4165H45.7599V0Z" transform="translate(469.88 235.113)" fill="#212529"/>
<path d="M45.7599 0H0V11.4163H45.7599V0Z" transform="translate(469.88 254.72)" fill="#212529"/>
<path d="M45.7599 0H0V11.4163H45.7599V0Z" transform="translate(469.88 274.326)" fill="#212529"/>
<path d="M45.7599 0H0V11.4165H45.7599V0Z" transform="translate(469.88 293.932)" fill="#212529"/>
</g>
<defs>
<clipPath id="clip0">
<rect width="1200" height="800" fill="white"/>
</clipPath>
</defs>
</svg>
