<svg width="1200" height="800" viewBox="0 0 1200 800" fill="none" xmlns="http://www.w3.org/2000/svg">
<g clip-path="url(#clip0)">
<rect width="1200" height="800" fill="white"/>
<rect width="1200" height="800" fill="white"/>
<path d="M0 0C31.1151 538.332 113.638 1018.29 230.657 1387.99V0H0Z" transform="translate(1228.99 570.668) rotate(90.0001)" fill="#EF4631"/>
<path d="M0 0C13.5283 516.713 73.0528 992.348 166.398 1381.5V0H0Z" transform="translate(1229 634.926) rotate(90.0001)" fill="#12ABE3"/>
<path d="M0.676409 0C-5.19087e-06 38.9156 5.16063e-06 77.8312 5.16063e-06 116.747C5.16063e-06 557.79 35.1736 972.89 98.0801 1333.94V0H0.676409Z" transform="translate(1229 703.921) rotate(90.0001)" fill="#2EB349"/>
<path d="M11.4991 0C4.05849 138.367 0 281.057 0 428.072C0 739.397 16.9104 1035.59 48.0254 1312.32V0H11.4991Z" transform="translate(1229 753.3) rotate(90.0001)" fill="#FFCD30"/>
<path d="M314.165 38.4844C314.165 40.4297 313.801 42.1055 313.075 43.5117C312.372 44.918 311.422 46.1133 310.227 47.0977C309.032 48.082 307.649 48.8906 306.079 49.5234C304.532 50.1328 302.915 50.6133 301.227 50.9648C299.54 51.3164 297.84 51.5508 296.129 51.668C294.442 51.7852 292.86 51.8438 291.383 51.8438C289.93 51.8438 288.419 51.7852 286.848 51.668C285.301 51.5742 283.754 51.3984 282.208 51.1406C280.661 50.8828 279.137 50.543 277.637 50.1211C276.137 49.6758 274.719 49.125 273.383 48.4688L273.313 3.1875C274.626 2.64844 276.02 2.16797 277.497 1.74609C278.973 1.30078 280.473 0.9375 281.997 0.65625C283.544 0.351562 285.079 0.128906 286.602 -0.0117188C288.126 -0.175781 289.602 -0.257812 291.032 -0.257812C292.696 -0.257812 294.372 -0.152344 296.059 0.0585938C297.77 0.269531 299.411 0.621094 300.981 1.11328C302.551 1.60547 304.016 2.25 305.376 3.04688C306.735 3.82031 307.919 4.78125 308.926 5.92969C309.958 7.07813 310.754 8.41406 311.317 9.9375C311.903 11.4609 312.196 13.2187 312.196 15.2109C312.196 16.5234 312.008 17.7539 311.633 18.9023C311.258 20.0508 310.719 21.082 310.016 21.9961C309.313 22.9102 308.458 23.6953 307.45 24.3516C306.442 24.9844 305.305 25.4531 304.04 25.7578C305.563 26.1562 306.946 26.7422 308.188 27.5156C309.454 28.2891 310.52 29.2266 311.387 30.3281C312.278 31.4297 312.958 32.6719 313.426 34.0547C313.919 35.4375 314.165 36.9141 314.165 38.4844ZM296.305 18.4453C296.305 17.7656 296.165 17.1914 295.883 16.7227C295.602 16.2305 295.251 15.832 294.829 15.5273C294.43 15.2227 293.985 15 293.493 14.8594C293.024 14.7188 292.602 14.6484 292.227 14.6484C291.758 14.6484 291.301 14.7188 290.856 14.8594C290.411 15 289.977 15.1641 289.555 15.3516L289.344 23.1562C289.883 23.1562 290.551 23.1094 291.348 23.0156C292.145 22.9219 292.907 22.7227 293.633 22.418C294.383 22.0898 295.016 21.6211 295.532 21.0117C296.047 20.3789 296.305 19.5234 296.305 18.4453ZM291.313 29.9062C290.633 29.9062 289.977 29.9766 289.344 30.1172L289.204 38.1328C289.555 38.2031 289.895 38.2734 290.223 38.3438C290.575 38.3906 290.915 38.4141 291.243 38.4141C291.735 38.4141 292.274 38.3672 292.86 38.2734C293.446 38.1562 293.997 37.9453 294.512 37.6406C295.028 37.3125 295.45 36.8789 295.778 36.3398C296.129 35.8008 296.305 35.0859 296.305 34.1953C296.305 33.3047 296.129 32.5781 295.778 32.0156C295.45 31.4531 295.04 31.0195 294.547 30.7148C294.055 30.3867 293.516 30.1758 292.93 30.082C292.344 29.9648 291.805 29.9062 291.313 29.9062ZM359.392 24.0703C359.392 26.2031 359.146 28.2656 358.654 30.2578C358.162 32.2266 357.447 34.0781 356.51 35.8125C355.596 37.5469 354.471 39.1406 353.135 40.5938C351.822 42.0234 350.334 43.2539 348.67 44.2852C347.029 45.3164 345.236 46.125 343.291 46.7109C341.346 47.2734 339.283 47.5547 337.103 47.5547C334.994 47.5547 332.978 47.2852 331.056 46.7461C329.158 46.207 327.377 45.457 325.713 44.4961C324.049 43.5117 322.537 42.3398 321.178 40.9805C319.842 39.5977 318.693 38.0742 317.732 36.4102C316.795 34.7227 316.056 32.918 315.517 30.9961C315.002 29.0742 314.744 27.0703 314.744 24.9844C314.744 22.9453 314.99 20.9531 315.482 19.0078C315.974 17.0391 316.678 15.1875 317.592 13.4531C318.529 11.7188 319.654 10.125 320.967 8.67188C322.279 7.21875 323.744 5.96484 325.361 4.91016C327.002 3.85547 328.771 3.03516 330.67 2.44922C332.568 1.86328 334.572 1.57031 336.681 1.57031C340.08 1.57031 343.174 2.09766 345.963 3.15234C348.775 4.20703 351.166 5.71875 353.135 7.6875C355.127 9.63281 356.662 12 357.74 14.7891C358.842 17.5547 359.392 20.6484 359.392 24.0703ZM343.783 24.9844C343.783 23.9766 343.631 23.0039 343.326 22.0664C343.045 21.1055 342.623 20.2617 342.06 19.5352C341.498 18.7852 340.795 18.1875 339.951 17.7422C339.131 17.2734 338.181 17.0391 337.103 17.0391C336.002 17.0391 335.017 17.2383 334.15 17.6367C333.283 18.0352 332.533 18.5859 331.9 19.2891C331.291 19.9688 330.822 20.7773 330.494 21.7148C330.166 22.6289 330.002 23.6016 330.002 24.6328C330.002 25.6172 330.142 26.6016 330.424 27.5859C330.705 28.5703 331.127 29.4609 331.689 30.2578C332.252 31.0547 332.943 31.6992 333.764 32.1914C334.607 32.6836 335.58 32.9297 336.681 32.9297C337.783 32.9297 338.767 32.7188 339.635 32.2969C340.525 31.8516 341.275 31.2656 341.885 30.5391C342.494 29.7891 342.963 28.9336 343.291 27.9727C343.619 27.0117 343.783 26.0156 343.783 24.9844ZM406.026 24.0703C406.026 26.2031 405.78 28.2656 405.288 30.2578C404.796 32.2266 404.081 34.0781 403.144 35.8125C402.23 37.5469 401.105 39.1406 399.769 40.5938C398.456 42.0234 396.968 43.2539 395.304 44.2852C393.663 45.3164 391.87 46.125 389.925 46.7109C387.98 47.2734 385.917 47.5547 383.737 47.5547C381.628 47.5547 379.612 47.2852 377.691 46.7461C375.792 46.207 374.011 45.457 372.347 44.4961C370.683 43.5117 369.171 42.3398 367.812 40.9805C366.476 39.5977 365.327 38.0742 364.366 36.4102C363.429 34.7227 362.691 32.918 362.151 30.9961C361.636 29.0742 361.378 27.0703 361.378 24.9844C361.378 22.9453 361.624 20.9531 362.116 19.0078C362.609 17.0391 363.312 15.1875 364.226 13.4531C365.163 11.7188 366.288 10.125 367.601 8.67188C368.913 7.21875 370.378 5.96484 371.995 4.91016C373.636 3.85547 375.405 3.03516 377.304 2.44922C379.202 1.86328 381.206 1.57031 383.316 1.57031C386.714 1.57031 389.808 2.09766 392.597 3.15234C395.409 4.20703 397.8 5.71875 399.769 7.6875C401.761 9.63281 403.296 12 404.374 14.7891C405.476 17.5547 406.026 20.6484 406.026 24.0703ZM390.417 24.9844C390.417 23.9766 390.265 23.0039 389.96 22.0664C389.679 21.1055 389.257 20.2617 388.694 19.5352C388.132 18.7852 387.429 18.1875 386.585 17.7422C385.765 17.2734 384.816 17.0391 383.737 17.0391C382.636 17.0391 381.651 17.2383 380.784 17.6367C379.917 18.0352 379.167 18.5859 378.534 19.2891C377.925 19.9688 377.456 20.7773 377.128 21.7148C376.8 22.6289 376.636 23.6016 376.636 24.6328C376.636 25.6172 376.776 26.6016 377.058 27.5859C377.339 28.5703 377.761 29.4609 378.323 30.2578C378.886 31.0547 379.577 31.6992 380.398 32.1914C381.241 32.6836 382.214 32.9297 383.316 32.9297C384.417 32.9297 385.401 32.7188 386.269 32.2969C387.159 31.8516 387.909 31.2656 388.519 30.5391C389.128 29.7891 389.597 28.9336 389.925 27.9727C390.253 27.0117 390.417 26.0156 390.417 24.9844ZM446.438 1.42969L446.086 16.3359L435.61 16.7578L434.344 49.3828L419.508 50.1562L418.172 17.5312L407.696 18.0938L408.118 1.5L446.438 1.42969ZM485.197 33C485.197 36.2109 484.634 38.9883 483.509 41.332C482.408 43.6523 480.884 45.5742 478.939 47.0977C477.017 48.5977 474.756 49.7109 472.154 50.4375C469.576 51.1406 466.799 51.4922 463.822 51.4922C462.674 51.4922 461.408 51.3398 460.025 51.0352C458.666 50.7305 457.283 50.3555 455.877 49.9102C454.47 49.4414 453.111 48.9492 451.799 48.4336C450.509 47.8945 449.361 47.3906 448.353 46.9219L449.9 33.1406C451.892 34.3359 454.095 35.25 456.509 35.8828C458.947 36.4922 461.338 36.7969 463.681 36.7969C464.127 36.7969 464.666 36.7852 465.299 36.7617C465.931 36.7148 466.529 36.6094 467.091 36.4453C467.677 36.2578 468.17 35.9883 468.568 35.6367C468.966 35.2852 469.166 34.7812 469.166 34.125C469.166 33.6797 469.025 33.3047 468.744 33C468.463 32.6719 468.099 32.4141 467.654 32.2266C467.209 32.0156 466.705 31.8633 466.142 31.7695C465.58 31.6523 465.029 31.5703 464.49 31.5234C463.951 31.4766 463.447 31.4531 462.978 31.4531C462.509 31.4531 462.134 31.4531 461.853 31.4531C459.838 31.4531 457.998 31.1367 456.334 30.5039C454.693 29.8711 453.275 28.9805 452.08 27.832C450.908 26.6602 449.994 25.2539 449.338 23.6133C448.681 21.9492 448.353 20.1094 448.353 18.0938C448.353 15.3281 448.904 12.8555 450.006 10.6758C451.131 8.47266 452.619 6.60937 454.47 5.08594C456.345 3.53906 458.49 2.35547 460.904 1.53516C463.318 0.714844 465.814 0.304688 468.392 0.304688C469.541 0.304688 470.724 0.351562 471.943 0.445312C473.162 0.515625 474.369 0.65625 475.564 0.867188C476.783 1.07812 477.966 1.34766 479.115 1.67578C480.263 2.00391 481.353 2.41406 482.384 2.90625L481.049 17.1797C479.455 16.6406 477.779 16.1953 476.021 15.8438C474.287 15.4688 472.588 15.2812 470.924 15.2812C470.619 15.2812 470.22 15.293 469.728 15.3164C469.259 15.3164 468.756 15.3516 468.216 15.4219C467.701 15.4688 467.174 15.5508 466.634 15.668C466.095 15.7852 465.615 15.9492 465.193 16.1602C464.771 16.3477 464.431 16.6055 464.174 16.9336C463.916 17.2617 463.799 17.6484 463.822 18.0938C463.845 18.6094 464.033 19.0078 464.384 19.2891C464.759 19.5703 465.228 19.7812 465.791 19.9219C466.377 20.0391 467.009 20.0977 467.689 20.0977C468.392 20.0977 469.084 20.0859 469.763 20.0625C470.443 20.0156 471.076 19.9805 471.662 19.957C472.248 19.9102 472.728 19.8984 473.103 19.9219C474.978 20.0391 476.666 20.4375 478.166 21.1172C479.666 21.7969 480.931 22.6992 481.963 23.8242C483.017 24.9492 483.814 26.2969 484.353 27.8672C484.916 29.4141 485.197 31.125 485.197 33ZM524.589 1.42969L524.237 16.3359L513.761 16.7578L512.495 49.3828L497.659 50.1562L496.323 17.5312L485.847 18.0938L486.269 1.5L524.589 1.42969ZM568.516 17.1094C568.516 18.9375 568.352 20.6016 568.024 22.1016C567.719 23.5781 567.227 24.9375 566.547 26.1797C565.867 27.4219 564.989 28.5703 563.91 29.625C562.832 30.6797 561.531 31.6875 560.008 32.6484L568.375 47.5547L552.555 50.6484L547.141 35.6719L542.781 35.8125L542.149 50.4375H527.031C527.149 45.0938 527.254 39.7734 527.348 34.4766C527.465 29.1797 527.594 23.8594 527.735 18.5156C527.781 15.8203 527.828 13.1484 527.875 10.5C527.922 7.85156 528.016 5.17969 528.156 2.48438C529.797 1.875 531.414 1.37109 533.008 0.972656C534.602 0.574219 536.196 0.269531 537.789 0.0585938C539.406 -0.175781 541.035 -0.328125 542.676 -0.398438C544.34 -0.492188 546.039 -0.539062 547.774 -0.539062C550.446 -0.539062 553.024 -0.164062 555.508 0.585938C558.016 1.3125 560.231 2.41406 562.153 3.89062C564.074 5.36719 565.61 7.20703 566.758 9.41016C567.93 11.6133 568.516 14.1797 568.516 17.1094ZM552.766 18.2344C552.766 17.25 552.625 16.3477 552.344 15.5273C552.086 14.707 551.688 14.0039 551.149 13.418C550.633 12.8086 549.977 12.3398 549.18 12.0117C548.406 11.6602 547.492 11.4844 546.438 11.4844C545.969 11.4844 545.512 11.5195 545.067 11.5898C544.621 11.6367 544.188 11.7188 543.766 11.8359L543.203 24.9141H544.047C545.055 24.9141 546.074 24.7852 547.106 24.5273C548.16 24.2695 549.098 23.8711 549.918 23.332C550.762 22.793 551.442 22.1016 551.957 21.2578C552.496 20.4141 552.766 19.4062 552.766 18.2344ZM616.029 47.9766L598.591 50.2266L596.482 42.2812H588.466L586.708 50.2266L568.779 48.4688L582.771 1.64062L602.318 0.65625L616.029 47.9766ZM595.216 31.5234L592.544 19.2891L589.943 31.5234H595.216ZM658.444 18.5859C658.444 20.8594 658.104 22.875 657.425 24.6328C656.745 26.3906 655.807 27.9375 654.612 29.2734C653.44 30.5859 652.057 31.6992 650.464 32.6133C648.87 33.5039 647.159 34.2422 645.331 34.8281C643.526 35.3906 641.651 35.8125 639.706 36.0938C637.761 36.3516 635.85 36.4922 633.975 36.5156V51.4922H617.593C617.593 48.8203 617.593 46.2188 617.593 43.6875C617.616 41.1562 617.628 38.6484 617.628 36.1641C617.651 33.6562 617.663 31.1367 617.663 28.6055C617.686 26.0742 617.71 23.4609 617.733 20.7656C617.78 17.9062 617.792 15.0469 617.768 12.1875C617.745 9.32813 617.804 6.44531 617.944 3.53906C620.944 2.64844 623.944 1.98047 626.944 1.53516C629.944 1.08984 633.038 0.867188 636.225 0.867188C638.03 0.867188 639.835 1.01953 641.639 1.32422C643.444 1.60547 645.167 2.0625 646.807 2.69531C648.471 3.32812 650.007 4.125 651.413 5.08594C652.843 6.02344 654.073 7.14844 655.104 8.46094C656.136 9.77344 656.944 11.2734 657.53 12.9609C658.139 14.6484 658.444 16.5234 658.444 18.5859ZM642.835 19.7812C642.835 18.2578 642.366 17.0742 641.429 16.2305C640.514 15.3633 639.319 14.9297 637.843 14.9297C637.35 14.9297 636.835 14.9766 636.296 15.0703C635.78 15.1406 635.288 15.2344 634.819 15.3516L634.397 25.6172C634.725 25.6641 635.042 25.6875 635.346 25.6875C635.651 25.6875 635.968 25.6875 636.296 25.6875C637.139 25.6875 637.948 25.5469 638.721 25.2656C639.518 24.9844 640.221 24.5859 640.831 24.0703C641.44 23.5312 641.921 22.9102 642.272 22.207C642.647 21.4805 642.835 20.6719 642.835 19.7812ZM710.931 33.2812C710.931 36.3984 710.427 39.1055 709.419 41.4023C708.435 43.6758 707.052 45.5742 705.271 47.0977C703.49 48.5977 701.357 49.7227 698.872 50.4727C696.411 51.1992 693.704 51.5625 690.751 51.5625C689.415 51.5625 688.044 51.4336 686.638 51.1758C685.232 50.918 683.837 50.5664 682.454 50.1211C681.072 49.6758 679.724 49.1484 678.411 48.5391C677.122 47.9297 675.915 47.2734 674.79 46.5703L676.126 32.4375C677.017 33.0469 678.013 33.6328 679.115 34.1953C680.216 34.7344 681.353 35.2266 682.525 35.6719C683.72 36.0938 684.915 36.4336 686.111 36.6914C687.329 36.9492 688.501 37.0781 689.626 37.0781C690.283 37.0781 690.951 37.0312 691.63 36.9375C692.333 36.8203 692.966 36.6211 693.529 36.3398C694.091 36.0586 694.548 35.6602 694.9 35.1445C695.275 34.6289 695.462 33.9609 695.462 33.1406C695.462 32.625 695.228 32.1445 694.759 31.6992C694.29 31.2539 693.728 30.8789 693.072 30.5742C692.415 30.2461 691.736 30 691.033 29.8359C690.329 29.6484 689.744 29.5547 689.275 29.5547C688.947 29.5547 688.548 29.5781 688.079 29.625C687.634 29.6484 687.177 29.6953 686.708 29.7656C686.24 29.8359 685.783 29.9414 685.337 30.082C684.915 30.1992 684.587 30.3516 684.353 30.5391L684.564 20.4844C684.962 20.5312 685.337 20.5664 685.689 20.5898C686.04 20.6133 686.415 20.625 686.814 20.625C687.634 20.625 688.525 20.5547 689.486 20.4141C690.447 20.25 691.337 19.9805 692.158 19.6055C692.978 19.207 693.658 18.668 694.197 17.9883C694.759 17.3086 695.04 16.4297 695.04 15.3516C695.04 14.5781 694.829 13.957 694.408 13.4883C693.986 12.9961 693.458 12.6211 692.826 12.3633C692.216 12.1055 691.548 11.9297 690.822 11.8359C690.095 11.7422 689.439 11.6953 688.853 11.6953C686.954 11.6953 685.079 12.0234 683.228 12.6797C681.4 13.3359 679.783 14.2969 678.376 15.5625L675.423 2.76562C677.579 1.00781 680.029 -0.328125 682.771 -1.24219C685.536 -2.17969 688.314 -2.64844 691.103 -2.64844C693.658 -2.64844 696.095 -2.27344 698.415 -1.52344C700.759 -0.796875 702.822 0.292969 704.603 1.74609C706.384 3.17578 707.802 4.94531 708.857 7.05469C709.911 9.16406 710.439 11.6016 710.439 14.3672C710.439 15.1641 710.322 15.9727 710.087 16.793C709.853 17.6133 709.536 18.4102 709.138 19.1836C708.74 19.957 708.271 20.6836 707.732 21.3633C707.193 22.0195 706.619 22.5938 706.009 23.0859C706.994 23.5312 707.802 24.1289 708.435 24.8789C709.068 25.6289 709.572 26.4609 709.947 27.375C710.322 28.2891 710.579 29.2617 710.72 30.293C710.861 31.3008 710.931 32.2969 710.931 33.2812ZM766.723 1.42969L766.371 16.3359L755.894 16.7578L754.629 49.3828L739.793 50.1562L738.457 17.5312L727.98 18.0938L728.402 1.5L766.723 1.42969ZM811.177 49.5938L793.599 50.4375L793.458 35.6016H785.372L784.88 51H769.13L770.466 1.57031L787.2 2.34375L786.146 27.5859H793.95L794.021 1.14844L810.052 1.57031L811.177 49.5938ZM854.471 22.5938C854.471 24.6328 854.331 26.6719 854.049 28.7109C850.042 28.9688 846.057 29.3906 842.096 29.9766C838.135 30.5391 834.174 31.1016 830.213 31.6641C830.823 33.3516 831.772 34.6992 833.061 35.707C834.374 36.7148 835.932 37.2188 837.737 37.2188C838.674 37.2188 839.694 37.043 840.795 36.6914C841.92 36.3398 843.034 35.9062 844.135 35.3906C845.237 34.8516 846.292 34.2773 847.299 33.668C848.307 33.0586 849.174 32.5078 849.901 32.0156L848.213 47.9766C847.299 48.6797 846.303 49.2773 845.225 49.7695C844.17 50.2617 843.069 50.6602 841.92 50.9648C840.772 51.2695 839.612 51.4922 838.44 51.6328C837.268 51.7734 836.12 51.8438 834.995 51.8438C832.674 51.8438 830.553 51.5273 828.631 50.8945C826.709 50.2617 824.963 49.3828 823.393 48.2578C821.846 47.1094 820.487 45.7617 819.315 44.2148C818.143 42.668 817.17 40.9805 816.397 39.1523C815.624 37.3242 815.038 35.3906 814.639 33.3516C814.241 31.3125 814.042 29.25 814.042 27.1641C814.042 24.9844 814.241 22.8047 814.639 20.625C815.038 18.4453 815.635 16.3477 816.432 14.332C817.252 12.3164 818.272 10.4531 819.491 8.74219C820.733 7.00781 822.174 5.49609 823.815 4.20703C825.456 2.91797 827.307 1.91016 829.37 1.18359C831.456 0.457031 833.752 0.09375 836.26 0.09375C838.346 0.09375 840.245 0.386719 841.956 0.972656C843.69 1.53516 845.225 2.33203 846.561 3.36328C847.92 4.37109 849.092 5.57812 850.077 6.98438C851.084 8.39062 851.905 9.9375 852.538 11.625C853.194 13.2891 853.674 15.0586 853.979 16.9336C854.307 18.7852 854.471 20.6719 854.471 22.5938ZM840.409 20.7656C840.409 20.1094 840.338 19.4414 840.198 18.7617C840.057 18.0586 839.823 17.4258 839.495 16.8633C839.19 16.3008 838.78 15.8438 838.264 15.4922C837.749 15.1172 837.104 14.9297 836.331 14.9297C835.393 14.9297 834.561 15.1875 833.834 15.7031C833.131 16.1953 832.522 16.8281 832.006 17.6016C831.491 18.3516 831.069 19.1719 830.741 20.0625C830.413 20.9531 830.167 21.7734 830.002 22.5234L840.409 21.5391V20.7656ZM445.681 105C445.681 108.211 445.119 110.988 443.994 113.332C442.892 115.652 441.369 117.574 439.424 119.098C437.502 120.598 435.24 121.711 432.638 122.438C430.06 123.141 427.283 123.492 424.306 123.492C423.158 123.492 421.892 123.34 420.509 123.035C419.15 122.73 417.767 122.355 416.361 121.91C414.955 121.441 413.595 120.949 412.283 120.434C410.994 119.895 409.845 119.391 408.838 118.922L410.384 105.141C412.377 106.336 414.58 107.25 416.994 107.883C419.431 108.492 421.822 108.797 424.166 108.797C424.611 108.797 425.15 108.785 425.783 108.762C426.416 108.715 427.013 108.609 427.576 108.445C428.162 108.258 428.654 107.988 429.052 107.637C429.451 107.285 429.65 106.781 429.65 106.125C429.65 105.68 429.509 105.305 429.228 105C428.947 104.672 428.584 104.414 428.138 104.227C427.693 104.016 427.189 103.863 426.627 103.77C426.064 103.652 425.513 103.57 424.974 103.523C424.435 103.477 423.931 103.453 423.463 103.453C422.994 103.453 422.619 103.453 422.338 103.453C420.322 103.453 418.482 103.137 416.818 102.504C415.177 101.871 413.759 100.98 412.564 99.832C411.392 98.6602 410.478 97.2539 409.822 95.6133C409.166 93.9492 408.838 92.1094 408.838 90.0938C408.838 87.3281 409.388 84.8555 410.49 82.6758C411.615 80.4727 413.103 78.6094 414.955 77.0859C416.83 75.5391 418.974 74.3555 421.388 73.5352C423.802 72.7148 426.299 72.3047 428.877 72.3047C430.025 72.3047 431.209 72.3516 432.427 72.4453C433.646 72.5156 434.853 72.6562 436.049 72.8672C437.267 73.0781 438.451 73.3477 439.599 73.6758C440.748 74.0039 441.838 74.4141 442.869 74.9062L441.533 89.1797C439.939 88.6406 438.263 88.1953 436.506 87.8438C434.771 87.4688 433.072 87.2812 431.408 87.2812C431.103 87.2812 430.705 87.293 430.213 87.3164C429.744 87.3164 429.24 87.3516 428.701 87.4219C428.185 87.4688 427.658 87.5508 427.119 87.668C426.58 87.7852 426.099 87.9492 425.677 88.1602C425.256 88.3477 424.916 88.6055 424.658 88.9336C424.4 89.2617 424.283 89.6484 424.306 90.0938C424.33 90.6094 424.517 91.0078 424.869 91.2891C425.244 91.5703 425.713 91.7812 426.275 91.9219C426.861 92.0391 427.494 92.0977 428.174 92.0977C428.877 92.0977 429.568 92.0859 430.248 92.0625C430.927 92.0156 431.56 91.9805 432.146 91.957C432.732 91.9102 433.213 91.8984 433.588 91.9219C435.463 92.0391 437.15 92.4375 438.65 93.1172C440.15 93.7969 441.416 94.6992 442.447 95.8242C443.502 96.9492 444.299 98.2969 444.838 99.8672C445.4 101.414 445.681 103.125 445.681 105ZM492.526 119.977L475.089 122.227L472.979 114.281H464.964L463.206 122.227L445.276 120.469L459.269 73.6406L478.815 72.6562L492.526 119.977ZM471.714 103.523L469.042 91.2891L466.44 103.523H471.714ZM530.02 105C530.02 108.211 529.457 110.988 528.332 113.332C527.231 115.652 525.707 117.574 523.762 119.098C521.84 120.598 519.578 121.711 516.977 122.438C514.399 123.141 511.621 123.492 508.645 123.492C507.496 123.492 506.231 123.34 504.848 123.035C503.489 122.73 502.106 122.355 500.699 121.91C499.293 121.441 497.934 120.949 496.621 120.434C495.332 119.895 494.184 119.391 493.176 118.922L494.723 105.141C496.715 106.336 498.918 107.25 501.332 107.883C503.77 108.492 506.16 108.797 508.504 108.797C508.949 108.797 509.489 108.785 510.121 108.762C510.754 108.715 511.352 108.609 511.914 108.445C512.5 108.258 512.992 107.988 513.391 107.637C513.789 107.285 513.989 106.781 513.989 106.125C513.989 105.68 513.848 105.305 513.567 105C513.285 104.672 512.922 104.414 512.477 104.227C512.031 104.016 511.528 103.863 510.965 103.77C510.403 103.652 509.852 103.57 509.313 103.523C508.774 103.477 508.27 103.453 507.801 103.453C507.332 103.453 506.957 103.453 506.676 103.453C504.66 103.453 502.821 103.137 501.156 102.504C499.516 101.871 498.098 100.98 496.903 99.832C495.731 98.6602 494.817 97.2539 494.16 95.6133C493.504 93.9492 493.176 92.1094 493.176 90.0938C493.176 87.3281 493.727 84.8555 494.828 82.6758C495.953 80.4727 497.442 78.6094 499.293 77.0859C501.168 75.5391 503.313 74.3555 505.727 73.5352C508.141 72.7148 510.637 72.3047 513.215 72.3047C514.364 72.3047 515.547 72.3516 516.766 72.4453C517.985 72.5156 519.192 72.6562 520.387 72.8672C521.606 73.0781 522.789 73.3477 523.938 73.6758C525.086 74.0039 526.176 74.4141 527.207 74.9062L525.871 89.1797C524.278 88.6406 522.602 88.1953 520.844 87.8438C519.11 87.4688 517.41 87.2812 515.746 87.2812C515.442 87.2812 515.043 87.293 514.551 87.3164C514.082 87.3164 513.578 87.3516 513.039 87.4219C512.524 87.4688 511.996 87.5508 511.457 87.668C510.918 87.7852 510.438 87.9492 510.016 88.1602C509.594 88.3477 509.254 88.6055 508.996 88.9336C508.739 89.2617 508.621 89.6484 508.645 90.0938C508.668 90.6094 508.856 91.0078 509.207 91.2891C509.582 91.5703 510.051 91.7812 510.614 91.9219C511.199 92.0391 511.832 92.0977 512.512 92.0977C513.215 92.0977 513.906 92.0859 514.586 92.0625C515.266 92.0156 515.899 91.9805 516.485 91.957C517.071 91.9102 517.551 91.8984 517.926 91.9219C519.801 92.0391 521.489 92.4375 522.989 93.1172C524.489 93.7969 525.754 94.6992 526.785 95.8242C527.84 96.9492 528.637 98.2969 529.176 99.8672C529.739 101.414 530.02 103.125 530.02 105ZM568.708 105C568.708 108.211 568.146 110.988 567.021 113.332C565.919 115.652 564.396 117.574 562.451 119.098C560.529 120.598 558.267 121.711 555.666 122.438C553.087 123.141 550.31 123.492 547.333 123.492C546.185 123.492 544.919 123.34 543.537 123.035C542.177 122.73 540.794 122.355 539.388 121.91C537.982 121.441 536.623 120.949 535.31 120.434C534.021 119.895 532.873 119.391 531.865 118.922L533.412 105.141C535.404 106.336 537.607 107.25 540.021 107.883C542.458 108.492 544.849 108.797 547.193 108.797C547.638 108.797 548.177 108.785 548.81 108.762C549.443 108.715 550.041 108.609 550.603 108.445C551.189 108.258 551.681 107.988 552.08 107.637C552.478 107.285 552.677 106.781 552.677 106.125C552.677 105.68 552.537 105.305 552.255 105C551.974 104.672 551.611 104.414 551.166 104.227C550.72 104.016 550.216 103.863 549.654 103.77C549.091 103.652 548.541 103.57 548.001 103.523C547.462 103.477 546.958 103.453 546.49 103.453C546.021 103.453 545.646 103.453 545.365 103.453C543.349 103.453 541.509 103.137 539.845 102.504C538.205 101.871 536.787 100.98 535.591 99.832C534.419 98.6602 533.505 97.2539 532.849 95.6133C532.193 93.9492 531.865 92.1094 531.865 90.0938C531.865 87.3281 532.416 84.8555 533.517 82.6758C534.642 80.4727 536.13 78.6094 537.982 77.0859C539.857 75.5391 542.001 74.3555 544.416 73.5352C546.83 72.7148 549.326 72.3047 551.904 72.3047C553.052 72.3047 554.236 72.3516 555.455 72.4453C556.673 72.5156 557.88 72.6562 559.076 72.8672C560.294 73.0781 561.478 73.3477 562.626 73.6758C563.775 74.0039 564.865 74.4141 565.896 74.9062L564.56 89.1797C562.966 88.6406 561.291 88.1953 559.533 87.8438C557.798 87.4688 556.099 87.2812 554.435 87.2812C554.13 87.2812 553.732 87.293 553.24 87.3164C552.771 87.3164 552.267 87.3516 551.728 87.4219C551.212 87.4688 550.685 87.5508 550.146 87.668C549.607 87.7852 549.126 87.9492 548.705 88.1602C548.283 88.3477 547.943 88.6055 547.685 88.9336C547.427 89.2617 547.31 89.6484 547.333 90.0938C547.357 90.6094 547.544 91.0078 547.896 91.2891C548.271 91.5703 548.74 91.7812 549.302 91.9219C549.888 92.0391 550.521 92.0977 551.201 92.0977C551.904 92.0977 552.595 92.0859 553.275 92.0625C553.955 92.0156 554.587 91.9805 555.173 91.957C555.759 91.9102 556.24 91.8984 556.615 91.9219C558.49 92.0391 560.177 92.4375 561.677 93.1172C563.177 93.7969 564.443 94.6992 565.474 95.8242C566.529 96.9492 567.326 98.2969 567.865 99.8672C568.427 101.414 568.708 103.125 568.708 105ZM649.988 74.2031L641.762 121.523L621.793 121.945L617.504 98.1094L613.215 120.117L593.246 120.82L584.949 75.6094L602.387 74.0625L605.902 101.836L610.613 76.1719H624.324L629.809 102.188L632.621 72.6562L649.988 74.2031ZM694.408 119.977L676.97 122.227L674.861 114.281H666.845L665.087 122.227L647.158 120.469L661.15 73.6406L680.697 72.6562L694.408 119.977ZM673.595 103.523L670.923 91.2891L668.322 103.523H673.595ZM734.924 75.3984L718.401 102.398L718.893 122.297H700.823L701.245 102.539L688.378 76.4531L706.307 74.2031L711.932 89.3906L718.049 74.2031L734.924 75.3984Z" transform="translate(29 390)" fill="#212529"/>
<path d="M0 0V142.815H80.804V119.819C61.7085 112.154 48.04 93.3947 48.04 71.4076C48.04 42.5622 71.3567 19.3648 99.8995 19.3648C128.643 19.3648 151.759 42.7639 151.759 71.4076C151.759 93.3947 138.291 112.154 118.995 119.819V142.815H199.799V0H0Z" transform="translate(491.101 174.017)" fill="#FFCD30"/>
<path d="M240 182.957H129.648V173.678H230.754V9.27902H9.24594V173.678H110.352V182.957H0V0H240V182.957Z" transform="translate(471 153.845)" fill="#212529"/>
<path d="M240 38.1244H0V0H240V38.1244ZM9.24594 28.8454H230.754V9.07723H9.24594V28.8454Z" transform="translate(471 125)" fill="#212529"/>
<path d="M9.24594 0H0V9.27902H9.24594V0Z" transform="translate(527.884 139.322)" fill="#212529"/>
<path d="M9.24644 0H0V9.27902H9.24644V0Z" transform="translate(509.392 139.322)" fill="#212529"/>
<path d="M9.24594 0H0V9.27902H9.24594V0Z" transform="translate(491.101 139.323)" fill="#212529"/>
<path d="M56.4827 113.365C25.3269 113.365 0 87.9483 0 56.6823C0 25.4163 25.3269 0 56.4827 0C87.6385 0 112.965 25.4163 112.965 56.6823C112.965 87.9483 87.6385 113.365 56.4827 113.365ZM56.4827 9.07723C30.352 9.07723 9.24644 30.4592 9.24644 56.4805C9.24644 82.5019 30.553 103.884 56.4827 103.884C82.6133 103.884 103.719 82.5019 103.719 56.4805C103.719 30.4592 82.6133 9.07723 56.4827 9.07723Z" transform="translate(534.517 188.743)" fill="#212529"/>
<path d="M47.8388 23.1974H0V0H9.24594V13.9185H38.5929V0H47.8388V23.1974Z" transform="translate(567.08 293.433)" fill="#212529"/>
<path d="M9.24644 0H0V48.0084H9.24644V0Z" transform="translate(596.024 311.991)" fill="#212529"/>
<path d="M9.24644 0H0V48.0084H9.24644V0Z" transform="translate(576.728 311.992)" fill="#212529"/>
<path d="M18.0905 36.5107L0 18.1545L18.0905 0L24.7232 6.45494L13.0653 18.1545L24.7232 30.0558L18.0905 36.5107Z" transform="translate(555.02 227.068)" fill="#212529"/>
<path d="M6.63278 36.5107L0 30.0558L11.8591 18.1545L0 6.45494L6.63278 0L24.7232 18.1545L6.63278 36.5107Z" transform="translate(602.256 227.068)" fill="#212529"/>
<path d="M52.0369 0H0V9.24718H52.0369V0Z" transform="matrix(0.173206 -0.984905 0.984695 0.174396 582.228 270.16)" fill="#212529"/>
<path d="M9.24594 0H0V9.2789H9.24594V0Z" transform="translate(508.187 222.228)" fill="white"/>
<path d="M9.24594 0H0V9.2789H9.24594V0Z" transform="translate(508.187 240.786)" fill="white"/>
<path d="M9.24594 0H0V9.2789H9.24594V0Z" transform="translate(508.187 259.141)" fill="white"/>
<path d="M9.24594 0H0V9.2789H9.24594V0Z" transform="translate(664.568 222.228)" fill="white"/>
<path d="M9.24594 0H0V9.2789H9.24594V0Z" transform="translate(664.567 240.786)" fill="white"/>
<path d="M9.24594 0H0V9.2789H9.24594V0Z" transform="translate(664.567 259.141)" fill="white"/>
</g>
<defs>
<clipPath id="clip0">
<rect width="1200" height="800" fill="white"/>
</clipPath>
</defs>
</svg>
