<svg width="1200" height="800" viewBox="0 0 1200 800" fill="none" xmlns="http://www.w3.org/2000/svg">
<g clip-path="url(#clip0)">
<rect width="1200" height="800" fill="white"/>
<rect width="1200" height="800" fill="white"/>
<path d="M0 0C31.1151 538.332 113.638 1018.29 230.657 1387.99V0H0Z" transform="translate(1228.99 570.668) rotate(90.0001)" fill="#EF4631"/>
<path d="M0 0C13.5283 516.713 73.0528 992.348 166.398 1381.5V0H0Z" transform="translate(1229 634.925) rotate(90.0001)" fill="#12ABE3"/>
<path d="M0.676409 0C-5.19087e-06 38.9156 5.16063e-06 77.8312 5.16063e-06 116.747C5.16063e-06 557.79 35.1736 972.89 98.0801 1333.94V0H0.676409Z" transform="translate(1229 703.92) rotate(90.0001)" fill="#2EB349"/>
<path d="M11.4991 0C4.05849 138.367 0 281.057 0 428.072C0 739.397 16.9104 1035.59 48.0254 1312.32V0H11.4991Z" transform="translate(1229 753.299) rotate(90.0001)" fill="#FFCD30"/>
<path d="M385.566 38.4844C385.566 40.4297 385.202 42.1055 384.476 43.5117C383.773 44.918 382.823 46.1133 381.628 47.0977C380.433 48.082 379.05 48.8906 377.48 49.5234C375.933 50.1328 374.316 50.6133 372.628 50.9648C370.941 51.3164 369.241 51.5508 367.53 51.668C365.843 51.7852 364.261 51.8438 362.784 51.8438C361.331 51.8438 359.819 51.7852 358.249 51.668C356.702 51.5742 355.155 51.3984 353.609 51.1406C352.062 50.8828 350.538 50.543 349.038 50.1211C347.538 49.6758 346.12 49.125 344.784 48.4688L344.714 3.1875C346.026 2.64844 347.421 2.16797 348.898 1.74609C350.374 1.30078 351.874 0.9375 353.398 0.65625C354.944 0.351562 356.48 0.128906 358.003 -0.0117188C359.526 -0.175781 361.003 -0.257812 362.433 -0.257812C364.097 -0.257812 365.773 -0.152344 367.46 0.0585938C369.171 0.269531 370.812 0.621094 372.382 1.11328C373.952 1.60547 375.417 2.25 376.776 3.04688C378.136 3.82031 379.319 4.78125 380.327 5.92969C381.359 7.07813 382.155 8.41406 382.718 9.9375C383.304 11.4609 383.597 13.2187 383.597 15.2109C383.597 16.5234 383.409 17.7539 383.034 18.9023C382.659 20.0508 382.12 21.082 381.417 21.9961C380.714 22.9102 379.859 23.6953 378.851 24.3516C377.843 24.9844 376.706 25.4531 375.441 25.7578C376.964 26.1562 378.347 26.7422 379.589 27.5156C380.855 28.2891 381.921 29.2266 382.788 30.3281C383.679 31.4297 384.359 32.6719 384.827 34.0547C385.319 35.4375 385.566 36.9141 385.566 38.4844ZM367.706 18.4453C367.706 17.7656 367.566 17.1914 367.284 16.7227C367.003 16.2305 366.651 15.832 366.23 15.5273C365.831 15.2227 365.386 15 364.894 14.8594C364.425 14.7188 364.003 14.6484 363.628 14.6484C363.159 14.6484 362.702 14.7188 362.257 14.8594C361.812 15 361.378 15.1641 360.956 15.3516L360.745 23.1562C361.284 23.1562 361.952 23.1094 362.749 23.0156C363.546 22.9219 364.308 22.7227 365.034 22.418C365.784 22.0898 366.417 21.6211 366.933 21.0117C367.448 20.3789 367.706 19.5234 367.706 18.4453ZM362.714 29.9062C362.034 29.9062 361.378 29.9766 360.745 30.1172L360.605 38.1328C360.956 38.2031 361.296 38.2734 361.624 38.3438C361.976 38.3906 362.316 38.4141 362.644 38.4141C363.136 38.4141 363.675 38.3672 364.261 38.2734C364.847 38.1562 365.398 37.9453 365.913 37.6406C366.429 37.3125 366.851 36.8789 367.179 36.3398C367.53 35.8008 367.706 35.0859 367.706 34.1953C367.706 33.3047 367.53 32.5781 367.179 32.0156C366.851 31.4531 366.441 31.0195 365.948 30.7148C365.456 30.3867 364.917 30.1758 364.331 30.082C363.745 29.9648 363.206 29.9062 362.714 29.9062ZM430.793 24.0703C430.793 26.2031 430.547 28.2656 430.055 30.2578C429.563 32.2266 428.848 34.0781 427.911 35.8125C426.996 37.5469 425.871 39.1406 424.536 40.5938C423.223 42.0234 421.735 43.2539 420.071 44.2852C418.43 45.3164 416.637 46.125 414.692 46.7109C412.746 47.2734 410.684 47.5547 408.504 47.5547C406.395 47.5547 404.379 47.2852 402.457 46.7461C400.559 46.207 398.778 45.457 397.114 44.4961C395.45 43.5117 393.938 42.3398 392.579 40.9805C391.243 39.5977 390.094 38.0742 389.133 36.4102C388.196 34.7227 387.457 32.918 386.918 30.9961C386.403 29.0742 386.145 27.0703 386.145 24.9844C386.145 22.9453 386.391 20.9531 386.883 19.0078C387.375 17.0391 388.079 15.1875 388.993 13.4531C389.93 11.7188 391.055 10.125 392.368 8.67188C393.68 7.21875 395.145 5.96484 396.762 4.91016C398.403 3.85547 400.172 3.03516 402.071 2.44922C403.969 1.86328 405.973 1.57031 408.082 1.57031C411.481 1.57031 414.575 2.09766 417.364 3.15234C420.176 4.20703 422.567 5.71875 424.536 7.6875C426.528 9.63281 428.063 12 429.141 14.7891C430.243 17.5547 430.793 20.6484 430.793 24.0703ZM415.184 24.9844C415.184 23.9766 415.032 23.0039 414.727 22.0664C414.446 21.1055 414.024 20.2617 413.461 19.5352C412.899 18.7852 412.196 18.1875 411.352 17.7422C410.532 17.2734 409.582 17.0391 408.504 17.0391C407.403 17.0391 406.418 17.2383 405.551 17.6367C404.684 18.0352 403.934 18.5859 403.301 19.2891C402.692 19.9688 402.223 20.7773 401.895 21.7148C401.567 22.6289 401.403 23.6016 401.403 24.6328C401.403 25.6172 401.543 26.6016 401.825 27.5859C402.106 28.5703 402.528 29.4609 403.09 30.2578C403.653 31.0547 404.344 31.6992 405.164 32.1914C406.008 32.6836 406.981 32.9297 408.082 32.9297C409.184 32.9297 410.168 32.7188 411.036 32.2969C411.926 31.8516 412.676 31.2656 413.286 30.5391C413.895 29.7891 414.364 28.9336 414.692 27.9727C415.02 27.0117 415.184 26.0156 415.184 24.9844ZM477.427 24.0703C477.427 26.2031 477.181 28.2656 476.689 30.2578C476.197 32.2266 475.482 34.0781 474.545 35.8125C473.631 37.5469 472.506 39.1406 471.17 40.5938C469.857 42.0234 468.369 43.2539 466.705 44.2852C465.064 45.3164 463.271 46.125 461.326 46.7109C459.381 47.2734 457.318 47.5547 455.138 47.5547C453.029 47.5547 451.013 47.2852 449.091 46.7461C447.193 46.207 445.412 45.457 443.748 44.4961C442.084 43.5117 440.572 42.3398 439.213 40.9805C437.877 39.5977 436.728 38.0742 435.767 36.4102C434.83 34.7227 434.091 32.918 433.552 30.9961C433.037 29.0742 432.779 27.0703 432.779 24.9844C432.779 22.9453 433.025 20.9531 433.517 19.0078C434.009 17.0391 434.713 15.1875 435.627 13.4531C436.564 11.7188 437.689 10.125 439.002 8.67188C440.314 7.21875 441.779 5.96484 443.396 4.91016C445.037 3.85547 446.806 3.03516 448.705 2.44922C450.603 1.86328 452.607 1.57031 454.716 1.57031C458.115 1.57031 461.209 2.09766 463.998 3.15234C466.81 4.20703 469.201 5.71875 471.17 7.6875C473.162 9.63281 474.697 12 475.775 14.7891C476.877 17.5547 477.427 20.6484 477.427 24.0703ZM461.818 24.9844C461.818 23.9766 461.666 23.0039 461.361 22.0664C461.08 21.1055 460.658 20.2617 460.095 19.5352C459.533 18.7852 458.83 18.1875 457.986 17.7422C457.166 17.2734 456.216 17.0391 455.138 17.0391C454.037 17.0391 453.052 17.2383 452.185 17.6367C451.318 18.0352 450.568 18.5859 449.935 19.2891C449.326 19.9688 448.857 20.7773 448.529 21.7148C448.201 22.6289 448.037 23.6016 448.037 24.6328C448.037 25.6172 448.177 26.6016 448.459 27.5859C448.74 28.5703 449.162 29.4609 449.724 30.2578C450.287 31.0547 450.978 31.6992 451.799 32.1914C452.642 32.6836 453.615 32.9297 454.716 32.9297C455.818 32.9297 456.802 32.7188 457.67 32.2969C458.56 31.8516 459.31 31.2656 459.92 30.5391C460.529 29.7891 460.998 28.9336 461.326 27.9727C461.654 27.0117 461.818 26.0156 461.818 24.9844ZM517.839 1.42969L517.487 16.3359L507.011 16.7578L505.745 49.3828L490.909 50.1562L489.573 17.5312L479.097 18.0938L479.519 1.5L517.839 1.42969ZM556.598 33C556.598 36.2109 556.035 38.9883 554.91 41.332C553.809 43.6523 552.285 45.5742 550.34 47.0977C548.418 48.5977 546.156 49.7109 543.555 50.4375C540.977 51.1406 538.199 51.4922 535.223 51.4922C534.074 51.4922 532.809 51.3398 531.426 51.0352C530.067 50.7305 528.684 50.3555 527.278 49.9102C525.871 49.4414 524.512 48.9492 523.199 48.4336C521.91 47.8945 520.762 47.3906 519.754 46.9219L521.301 33.1406C523.293 34.3359 525.496 35.25 527.91 35.8828C530.348 36.4922 532.739 36.7969 535.082 36.7969C535.528 36.7969 536.067 36.7852 536.699 36.7617C537.332 36.7148 537.93 36.6094 538.492 36.4453C539.078 36.2578 539.571 35.9883 539.969 35.6367C540.367 35.2852 540.567 34.7812 540.567 34.125C540.567 33.6797 540.426 33.3047 540.145 33C539.864 32.6719 539.5 32.4141 539.055 32.2266C538.61 32.0156 538.106 31.8633 537.543 31.7695C536.981 31.6523 536.43 31.5703 535.891 31.5234C535.352 31.4766 534.848 31.4531 534.379 31.4531C533.91 31.4531 533.535 31.4531 533.254 31.4531C531.239 31.4531 529.399 31.1367 527.735 30.5039C526.094 29.8711 524.676 28.9805 523.481 27.832C522.309 26.6602 521.395 25.2539 520.739 23.6133C520.082 21.9492 519.754 20.1094 519.754 18.0938C519.754 15.3281 520.305 12.8555 521.406 10.6758C522.531 8.47266 524.02 6.60937 525.871 5.08594C527.746 3.53906 529.891 2.35547 532.305 1.53516C534.719 0.714844 537.215 0.304688 539.793 0.304688C540.942 0.304688 542.125 0.351562 543.344 0.445312C544.563 0.515625 545.77 0.65625 546.965 0.867188C548.184 1.07812 549.367 1.34766 550.516 1.67578C551.664 2.00391 552.754 2.41406 553.785 2.90625L552.449 17.1797C550.856 16.6406 549.18 16.1953 547.422 15.8438C545.688 15.4688 543.989 15.2812 542.324 15.2812C542.02 15.2812 541.621 15.293 541.129 15.3164C540.66 15.3164 540.156 15.3516 539.617 15.4219C539.102 15.4688 538.574 15.5508 538.035 15.668C537.496 15.7852 537.016 15.9492 536.594 16.1602C536.172 16.3477 535.832 16.6055 535.574 16.9336C535.317 17.2617 535.199 17.6484 535.223 18.0938C535.246 18.6094 535.434 19.0078 535.785 19.2891C536.16 19.5703 536.629 19.7812 537.192 19.9219C537.778 20.0391 538.41 20.0977 539.09 20.0977C539.793 20.0977 540.485 20.0859 541.164 20.0625C541.844 20.0156 542.477 19.9805 543.063 19.957C543.649 19.9102 544.129 19.8984 544.504 19.9219C546.379 20.0391 548.067 20.4375 549.567 21.1172C551.067 21.7969 552.332 22.6992 553.364 23.8242C554.418 24.9492 555.215 26.2969 555.754 27.8672C556.317 29.4141 556.598 31.125 556.598 33ZM595.99 1.42969L595.638 16.3359L585.162 16.7578L583.896 49.3828L569.06 50.1562L567.724 17.5312L557.248 18.0938L557.669 1.5L595.99 1.42969ZM639.917 17.1094C639.917 18.9375 639.753 20.6016 639.425 22.1016C639.12 23.5781 638.628 24.9375 637.948 26.1797C637.268 27.4219 636.389 28.5703 635.311 29.625C634.233 30.6797 632.932 31.6875 631.409 32.6484L639.776 47.5547L623.956 50.6484L618.542 35.6719L614.182 35.8125L613.55 50.4375H598.432C598.55 45.0938 598.655 39.7734 598.749 34.4766C598.866 29.1797 598.995 23.8594 599.136 18.5156C599.182 15.8203 599.229 13.1484 599.276 10.5C599.323 7.85156 599.417 5.17969 599.557 2.48438C601.198 1.875 602.815 1.37109 604.409 0.972656C606.003 0.574219 607.596 0.269531 609.19 0.0585938C610.807 -0.175781 612.436 -0.328125 614.077 -0.398438C615.741 -0.492188 617.44 -0.539062 619.175 -0.539062C621.846 -0.539062 624.425 -0.164062 626.909 0.585938C629.417 1.3125 631.632 2.41406 633.554 3.89062C635.475 5.36719 637.011 7.20703 638.159 9.41016C639.331 11.6133 639.917 14.1797 639.917 17.1094ZM624.167 18.2344C624.167 17.25 624.026 16.3477 623.745 15.5273C623.487 14.707 623.089 14.0039 622.55 13.418C622.034 12.8086 621.378 12.3398 620.581 12.0117C619.807 11.6602 618.893 11.4844 617.839 11.4844C617.37 11.4844 616.913 11.5195 616.468 11.5898C616.022 11.6367 615.589 11.7188 615.167 11.8359L614.604 24.9141H615.448C616.456 24.9141 617.475 24.7852 618.507 24.5273C619.561 24.2695 620.499 23.8711 621.319 23.332C622.163 22.793 622.843 22.1016 623.358 21.2578C623.897 20.4141 624.167 19.4062 624.167 18.2344ZM687.43 47.9766L669.992 50.2266L667.883 42.2812H659.867L658.109 50.2266L640.18 48.4688L654.172 1.64062L673.719 0.65625L687.43 47.9766ZM666.617 31.5234L663.945 19.2891L661.344 31.5234H666.617ZM729.845 18.5859C729.845 20.8594 729.505 22.875 728.826 24.6328C728.146 26.3906 727.208 27.9375 726.013 29.2734C724.841 30.5859 723.458 31.6992 721.865 32.6133C720.271 33.5039 718.56 34.2422 716.732 34.8281C714.927 35.3906 713.052 35.8125 711.107 36.0938C709.161 36.3516 707.251 36.4922 705.376 36.5156V51.4922H688.994C688.994 48.8203 688.994 46.2188 688.994 43.6875C689.017 41.1562 689.029 38.6484 689.029 36.1641C689.052 33.6562 689.064 31.1367 689.064 28.6055C689.087 26.0742 689.111 23.4609 689.134 20.7656C689.181 17.9062 689.193 15.0469 689.169 12.1875C689.146 9.32813 689.204 6.44531 689.345 3.53906C692.345 2.64844 695.345 1.98047 698.345 1.53516C701.345 1.08984 704.439 0.867188 707.626 0.867188C709.431 0.867188 711.236 1.01953 713.04 1.32422C714.845 1.60547 716.568 2.0625 718.208 2.69531C719.872 3.32812 721.408 4.125 722.814 5.08594C724.244 6.02344 725.474 7.14844 726.505 8.46094C727.536 9.77344 728.345 11.2734 728.931 12.9609C729.54 14.6484 729.845 16.5234 729.845 18.5859ZM714.236 19.7812C714.236 18.2578 713.767 17.0742 712.829 16.2305C711.915 15.3633 710.72 14.9297 709.244 14.9297C708.751 14.9297 708.236 14.9766 707.697 15.0703C707.181 15.1406 706.689 15.2344 706.22 15.3516L705.798 25.6172C706.126 25.6641 706.443 25.6875 706.747 25.6875C707.052 25.6875 707.369 25.6875 707.697 25.6875C708.54 25.6875 709.349 25.5469 710.122 25.2656C710.919 24.9844 711.622 24.5859 712.232 24.0703C712.841 23.5312 713.322 22.9102 713.673 22.207C714.048 21.4805 714.236 20.6719 714.236 19.7812ZM782.332 33.2812C782.332 36.3984 781.828 39.1055 780.82 41.4023C779.836 43.6758 778.453 45.5742 776.672 47.0977C774.891 48.5977 772.758 49.7227 770.273 50.4727C767.812 51.1992 765.105 51.5625 762.152 51.5625C760.816 51.5625 759.445 51.4336 758.039 51.1758C756.633 50.918 755.238 50.5664 753.855 50.1211C752.473 49.6758 751.125 49.1484 749.812 48.5391C748.523 47.9297 747.316 47.2734 746.191 46.5703L747.527 32.4375C748.418 33.0469 749.414 33.6328 750.516 34.1953C751.617 34.7344 752.754 35.2266 753.926 35.6719C755.121 36.0938 756.316 36.4336 757.512 36.6914C758.73 36.9492 759.902 37.0781 761.027 37.0781C761.684 37.0781 762.352 37.0312 763.031 36.9375C763.734 36.8203 764.367 36.6211 764.93 36.3398C765.492 36.0586 765.949 35.6602 766.301 35.1445C766.676 34.6289 766.863 33.9609 766.863 33.1406C766.863 32.625 766.629 32.1445 766.16 31.6992C765.691 31.2539 765.129 30.8789 764.473 30.5742C763.816 30.2461 763.137 30 762.434 29.8359C761.73 29.6484 761.144 29.5547 760.676 29.5547C760.348 29.5547 759.949 29.5781 759.48 29.625C759.035 29.6484 758.578 29.6953 758.109 29.7656C757.641 29.8359 757.184 29.9414 756.738 30.082C756.316 30.1992 755.988 30.3516 755.754 30.5391L755.965 20.4844C756.363 20.5312 756.738 20.5664 757.09 20.5898C757.441 20.6133 757.816 20.625 758.215 20.625C759.035 20.625 759.926 20.5547 760.887 20.4141C761.848 20.25 762.738 19.9805 763.559 19.6055C764.379 19.207 765.059 18.668 765.598 17.9883C766.16 17.3086 766.441 16.4297 766.441 15.3516C766.441 14.5781 766.23 13.957 765.809 13.4883C765.387 12.9961 764.859 12.6211 764.227 12.3633C763.617 12.1055 762.949 11.9297 762.223 11.8359C761.496 11.7422 760.84 11.6953 760.254 11.6953C758.355 11.6953 756.48 12.0234 754.629 12.6797C752.801 13.3359 751.184 14.2969 749.777 15.5625L746.824 2.76562C748.98 1.00781 751.43 -0.328125 754.172 -1.24219C756.937 -2.17969 759.715 -2.64844 762.504 -2.64844C765.059 -2.64844 767.496 -2.27344 769.816 -1.52344C772.16 -0.796875 774.223 0.292969 776.004 1.74609C777.785 3.17578 779.203 4.94531 780.258 7.05469C781.312 9.16406 781.84 11.6016 781.84 14.3672C781.84 15.1641 781.723 15.9727 781.488 16.793C781.254 17.6133 780.937 18.4102 780.539 19.1836C780.141 19.957 779.672 20.6836 779.133 21.3633C778.594 22.0195 778.019 22.5938 777.41 23.0859C778.394 23.5312 779.203 24.1289 779.836 24.8789C780.469 25.6289 780.973 26.4609 781.348 27.375C781.723 28.2891 781.98 29.2617 782.121 30.293C782.262 31.3008 782.332 32.2969 782.332 33.2812ZM375.713 99.1641C375.713 102.516 375.608 105.855 375.397 109.184C375.186 112.512 374.94 115.852 374.659 119.203L356.588 120.047C357.127 115.969 357.608 111.891 358.03 107.812C358.475 103.711 358.698 99.6094 358.698 95.5078C358.698 95.25 358.686 94.8047 358.663 94.1719C358.639 93.5156 358.592 92.7773 358.522 91.957C358.475 91.1367 358.393 90.293 358.276 89.4258C358.182 88.5352 358.042 87.7266 357.854 87C357.69 86.25 357.479 85.6406 357.221 85.1719C356.963 84.7031 356.659 84.4688 356.307 84.4688C355.487 84.4688 354.842 84.7852 354.374 85.418C353.905 86.0273 353.553 86.7656 353.319 87.6328C353.108 88.5 352.979 89.3906 352.932 90.3047C352.885 91.1953 352.862 91.9219 352.862 92.4844C352.862 93.4688 352.885 94.4531 352.932 95.4375C352.979 96.4219 353.002 97.4297 353.002 98.4609C353.002 102.094 352.909 105.715 352.721 109.324C352.557 112.934 352.346 116.555 352.088 120.188L335.424 120.82C335.963 116.742 336.432 112.676 336.831 108.621C337.252 104.543 337.463 100.453 337.463 96.3516C337.463 96.0938 337.452 95.625 337.428 94.9453C337.405 94.2656 337.358 93.5039 337.288 92.6602C337.241 91.8164 337.159 90.9375 337.042 90.0234C336.924 89.1094 336.772 88.2773 336.584 87.5273C336.42 86.7539 336.209 86.1211 335.952 85.6289C335.694 85.1367 335.377 84.8906 335.002 84.8906C334.417 84.8906 333.924 85.125 333.526 85.5938C333.127 86.0391 332.799 86.625 332.542 87.3516C332.307 88.0781 332.12 88.8867 331.979 89.7773C331.862 90.6445 331.768 91.5 331.698 92.3438C331.651 93.1875 331.616 93.9727 331.592 94.6992C331.592 95.4023 331.581 95.9297 331.557 96.2812L330.784 121.945H313.065C313.44 117.984 313.815 114.012 314.19 110.027C314.588 106.043 314.928 102.07 315.209 98.1094C315.514 94.125 315.76 90.1406 315.948 86.1562C316.135 82.1719 316.229 78.1875 316.229 74.2031L332.963 73.5L332.893 77.5781C333.409 76.9219 333.995 76.2656 334.651 75.6094C335.307 74.9297 335.999 74.332 336.725 73.8164C337.475 73.2773 338.26 72.8438 339.081 72.5156C339.924 72.1875 340.792 72.0234 341.682 72.0234C342.831 72.0234 343.862 72.1172 344.776 72.3047C345.69 72.4688 346.51 72.7617 347.237 73.1836C347.987 73.6055 348.643 74.1914 349.206 74.9414C349.768 75.668 350.26 76.5938 350.682 77.7188C351.432 76.8984 352.182 76.1367 352.932 75.4336C353.706 74.7305 354.514 74.1328 355.358 73.6406C356.202 73.125 357.116 72.7266 358.1 72.4453C359.084 72.1641 360.174 72.0234 361.37 72.0234C363.643 72.0234 365.577 72.4688 367.17 73.3594C368.764 74.2266 370.088 75.3867 371.143 76.8398C372.221 78.293 373.053 79.957 373.639 81.832C374.249 83.707 374.706 85.6523 375.01 87.668C375.315 89.6836 375.502 91.6875 375.573 93.6797C375.667 95.6719 375.713 97.5 375.713 99.1641ZM418.902 94.5938C418.902 96.6328 418.762 98.6719 418.48 100.711C414.472 100.969 410.488 101.391 406.527 101.977C402.566 102.539 398.605 103.102 394.644 103.664C395.254 105.352 396.203 106.699 397.492 107.707C398.804 108.715 400.363 109.219 402.168 109.219C403.105 109.219 404.125 109.043 405.226 108.691C406.351 108.34 407.465 107.906 408.566 107.391C409.668 106.852 410.722 106.277 411.73 105.668C412.738 105.059 413.605 104.508 414.332 104.016L412.644 119.977C411.73 120.68 410.734 121.277 409.656 121.77C408.601 122.262 407.5 122.66 406.351 122.965C405.203 123.27 404.043 123.492 402.871 123.633C401.699 123.773 400.551 123.844 399.426 123.844C397.105 123.844 394.984 123.527 393.062 122.895C391.14 122.262 389.394 121.383 387.824 120.258C386.277 119.109 384.918 117.762 383.746 116.215C382.574 114.668 381.601 112.98 380.828 111.152C380.054 109.324 379.469 107.391 379.07 105.352C378.672 103.312 378.472 101.25 378.472 99.1641C378.472 96.9844 378.672 94.8047 379.07 92.625C379.469 90.4453 380.066 88.3477 380.863 86.332C381.683 84.3164 382.703 82.4531 383.922 80.7422C385.164 79.0078 386.605 77.4961 388.246 76.207C389.887 74.918 391.738 73.9102 393.801 73.1836C395.887 72.457 398.183 72.0938 400.691 72.0938C402.777 72.0938 404.676 72.3867 406.387 72.9727C408.121 73.5352 409.656 74.332 410.992 75.3633C412.351 76.3711 413.523 77.5781 414.508 78.9844C415.515 80.3906 416.336 81.9375 416.969 83.625C417.625 85.2891 418.105 87.0586 418.41 88.9336C418.738 90.7852 418.902 92.6719 418.902 94.5938ZM404.84 92.7656C404.84 92.1094 404.769 91.4414 404.629 90.7617C404.488 90.0586 404.254 89.4258 403.926 88.8633C403.621 88.3008 403.211 87.8438 402.695 87.4922C402.179 87.1172 401.535 86.9297 400.762 86.9297C399.824 86.9297 398.992 87.1875 398.265 87.7031C397.562 88.1953 396.953 88.8281 396.437 89.6016C395.922 90.3516 395.5 91.1719 395.172 92.0625C394.844 92.9531 394.597 93.7734 394.433 94.5234L404.84 93.5391V92.7656ZM461.774 95.0859C461.774 98.3672 461.353 101.309 460.509 103.91C459.665 106.512 458.482 108.82 456.958 110.836C455.458 112.828 453.665 114.527 451.579 115.934C449.493 117.34 447.208 118.5 444.724 119.414C442.239 120.305 439.591 120.961 436.778 121.383C433.989 121.805 431.118 122.016 428.165 122.016C427.064 122.016 425.985 121.992 424.931 121.945C423.876 121.875 422.798 121.781 421.696 121.664L422.681 75.8906C425.259 75.0703 427.907 74.4961 430.626 74.168C433.368 73.8164 436.087 73.6406 438.782 73.6406C442.134 73.6406 445.216 74.1094 448.028 75.0469C450.841 75.9844 453.267 77.3672 455.306 79.1953C457.345 81 458.927 83.2383 460.052 85.9102C461.2 88.5586 461.774 91.6172 461.774 95.0859ZM437.868 108.586C439.274 108.375 440.552 107.953 441.7 107.32C442.872 106.664 443.88 105.867 444.724 104.93C445.567 103.969 446.212 102.891 446.657 101.695C447.126 100.477 447.36 99.1875 447.36 97.8281C447.36 96.4922 447.22 95.25 446.939 94.1016C446.657 92.9297 446.2 91.9219 445.567 91.0781C444.935 90.2109 444.103 89.5312 443.071 89.0391C442.04 88.5234 440.774 88.2422 439.274 88.1953L437.868 108.586ZM483.061 73.5L480.6 121.383L465.764 122.156L464.358 74.4844L483.061 73.5ZM530.433 119.977L512.996 122.227L510.886 114.281H502.871L501.113 122.227L483.183 120.469L497.175 73.6406L516.722 72.6562L530.433 119.977ZM509.621 103.523L506.949 91.2891L504.347 103.523H509.621ZM593.924 96.8438C593.924 100.406 593.256 103.805 591.92 107.039C590.608 110.273 588.627 113.109 585.979 115.547L590.83 121.312L577.963 129.609L574.94 121.312C574.049 121.5 573.147 121.641 572.233 121.734C571.342 121.828 570.44 121.875 569.526 121.875C567.276 121.875 565.119 121.594 563.057 121.031C560.994 120.469 559.061 119.684 557.256 118.676C555.451 117.645 553.811 116.402 552.334 114.949C550.858 113.496 549.58 111.879 548.502 110.098C547.447 108.316 546.627 106.395 546.041 104.332C545.479 102.246 545.197 100.078 545.197 97.8281C545.197 95.6016 545.467 93.4453 546.006 91.3594C546.569 89.25 547.354 87.2695 548.362 85.418C549.393 83.5664 550.623 81.8789 552.053 80.3555C553.506 78.8086 555.123 77.4844 556.904 76.3828C558.686 75.2578 560.608 74.3906 562.67 73.7812C564.733 73.1719 566.901 72.8672 569.174 72.8672C572.807 72.8672 576.135 73.418 579.158 74.5195C582.205 75.6211 584.819 77.2031 586.998 79.2656C589.178 81.3281 590.877 83.8477 592.096 86.8242C593.315 89.7773 593.924 93.1172 593.924 96.8438ZM576.838 97.8281C576.838 96.75 576.674 95.707 576.346 94.6992C576.041 93.668 575.584 92.7656 574.975 91.9922C574.365 91.1953 573.604 90.5625 572.69 90.0938C571.776 89.625 570.721 89.3906 569.526 89.3906C568.354 89.3906 567.299 89.6016 566.362 90.0234C565.424 90.4219 564.615 90.9844 563.936 91.7109C563.279 92.4375 562.764 93.293 562.389 94.2773C562.037 95.2617 561.862 96.3281 561.862 97.4766C561.862 98.5547 562.014 99.6211 562.319 100.676C562.647 101.707 563.115 102.645 563.725 103.488C564.334 104.309 565.096 104.977 566.01 105.492C566.924 106.008 567.979 106.266 569.174 106.266C570.322 106.266 571.365 106.043 572.303 105.598C573.264 105.129 574.072 104.508 574.729 103.734C575.408 102.961 575.924 102.07 576.276 101.062C576.651 100.031 576.838 98.9531 576.838 97.8281ZM639.082 73.5C638.027 81.75 637.125 89.9648 636.375 98.1445C635.625 106.301 634.91 114.516 634.23 122.789L619.816 123.844L620.449 118.43C619.98 118.969 619.429 119.438 618.796 119.836C618.187 120.234 617.531 120.562 616.828 120.82C616.125 121.055 615.398 121.23 614.648 121.348C613.898 121.441 613.183 121.477 612.503 121.453C610.91 121.43 609.41 121.125 608.003 120.539C606.597 119.93 605.308 119.133 604.136 118.148C602.964 117.141 601.91 115.98 600.972 114.668C600.035 113.332 599.238 111.938 598.582 110.484C597.949 109.008 597.457 107.508 597.105 105.984C596.777 104.461 596.613 102.984 596.613 101.555C596.613 99.4453 596.648 97.2656 596.718 95.0156C596.812 92.7422 596.964 90.4688 597.175 88.1953C597.386 85.9219 597.656 83.6719 597.984 81.4453C598.335 79.2188 598.769 77.0859 599.285 75.0469C602.144 75.1875 605.015 75.3164 607.898 75.4336C610.781 75.5508 613.652 75.5859 616.511 75.5391C615.972 77.5781 615.433 79.6289 614.894 81.6914C614.378 83.7305 613.91 85.793 613.488 87.8789C613.066 89.9414 612.726 92.0156 612.468 94.1016C612.21 96.1875 612.082 98.2969 612.082 100.43C612.082 100.922 612.105 101.625 612.152 102.539C612.199 103.453 612.316 104.355 612.503 105.246C612.714 106.137 613.019 106.922 613.417 107.602C613.839 108.258 614.425 108.586 615.175 108.586C616.066 108.586 616.863 108.211 617.566 107.461C618.269 106.688 618.89 105.656 619.429 104.367C619.968 103.078 620.425 101.59 620.8 99.9023C621.199 98.2148 621.527 96.457 621.785 94.6289C622.066 92.7773 622.289 90.9141 622.453 89.0391C622.617 87.1641 622.734 85.4062 622.804 83.7656C622.898 82.1016 622.957 80.6133 622.98 79.3008C623.027 77.9883 623.05 76.9688 623.05 76.2422C623.05 75.7734 623.039 75.3164 623.015 74.8711C622.992 74.4258 622.957 73.9688 622.91 73.5C624.433 73.5469 625.945 73.582 627.445 73.6055C628.945 73.6289 630.457 73.6406 631.98 73.6406C633.152 73.6406 634.324 73.6406 635.496 73.6406C636.691 73.6172 637.886 73.5703 639.082 73.5ZM680.583 94.5938C680.583 96.6328 680.442 98.6719 680.161 100.711C676.153 100.969 672.169 101.391 668.208 101.977C664.247 102.539 660.286 103.102 656.325 103.664C656.934 105.352 657.884 106.699 659.173 107.707C660.485 108.715 662.044 109.219 663.848 109.219C664.786 109.219 665.805 109.043 666.907 108.691C668.032 108.34 669.145 107.906 670.247 107.391C671.348 106.852 672.403 106.277 673.411 105.668C674.419 105.059 675.286 104.508 676.012 104.016L674.325 119.977C673.411 120.68 672.415 121.277 671.337 121.77C670.282 122.262 669.18 122.66 668.032 122.965C666.884 123.27 665.723 123.492 664.552 123.633C663.38 123.773 662.231 123.844 661.106 123.844C658.786 123.844 656.665 123.527 654.743 122.895C652.821 122.262 651.075 121.383 649.505 120.258C647.958 119.109 646.598 117.762 645.427 116.215C644.255 114.668 643.282 112.98 642.509 111.152C641.735 109.324 641.149 107.391 640.751 105.352C640.352 103.312 640.153 101.25 640.153 99.1641C640.153 96.9844 640.352 94.8047 640.751 92.625C641.149 90.4453 641.747 88.3477 642.544 86.332C643.364 84.3164 644.384 82.4531 645.602 80.7422C646.844 79.0078 648.286 77.4961 649.927 76.207C651.567 74.918 653.419 73.9102 655.481 73.1836C657.567 72.457 659.864 72.0938 662.372 72.0938C664.458 72.0938 666.356 72.3867 668.067 72.9727C669.802 73.5352 671.337 74.332 672.673 75.3633C674.032 76.3711 675.204 77.5781 676.188 78.9844C677.196 80.3906 678.016 81.9375 678.649 83.625C679.305 85.2891 679.786 87.0586 680.091 88.9336C680.419 90.7852 680.583 92.6719 680.583 94.5938ZM666.52 92.7656C666.52 92.1094 666.45 91.4414 666.309 90.7617C666.169 90.0586 665.934 89.4258 665.606 88.8633C665.302 88.3008 664.891 87.8438 664.376 87.4922C663.86 87.1172 663.216 86.9297 662.442 86.9297C661.505 86.9297 660.673 87.1875 659.946 87.7031C659.243 88.1953 658.634 88.8281 658.118 89.6016C657.602 90.3516 657.18 91.1719 656.852 92.0625C656.524 92.9531 656.278 93.7734 656.114 94.5234L666.52 93.5391V92.7656ZM724.826 89.1094C724.826 90.9375 724.662 92.6016 724.334 94.1016C724.029 95.5781 723.537 96.9375 722.857 98.1797C722.178 99.4219 721.299 100.57 720.221 101.625C719.143 102.68 717.842 103.688 716.318 104.648L724.686 119.555L708.865 122.648L703.451 107.672L699.092 107.812L698.459 122.438H683.342C683.459 117.094 683.564 111.773 683.658 106.477C683.775 101.18 683.904 95.8594 684.045 90.5156C684.092 87.8203 684.139 85.1484 684.186 82.5C684.232 79.8516 684.326 77.1797 684.467 74.4844C686.107 73.875 687.725 73.3711 689.318 72.9727C690.912 72.5742 692.506 72.2695 694.1 72.0586C695.717 71.8242 697.346 71.6719 698.986 71.6016C700.65 71.5078 702.35 71.4609 704.084 71.4609C706.756 71.4609 709.334 71.8359 711.818 72.5859C714.326 73.3125 716.541 74.4141 718.463 75.8906C720.385 77.3672 721.92 79.207 723.068 81.4102C724.24 83.6133 724.826 86.1797 724.826 89.1094ZM709.076 90.2344C709.076 89.25 708.936 88.3477 708.654 87.5273C708.396 86.707 707.998 86.0039 707.459 85.418C706.943 84.8086 706.287 84.3398 705.49 84.0117C704.717 83.6602 703.803 83.4844 702.748 83.4844C702.279 83.4844 701.822 83.5195 701.377 83.5898C700.932 83.6367 700.498 83.7188 700.076 83.8359L699.514 96.9141H700.357C701.365 96.9141 702.385 96.7852 703.416 96.5273C704.471 96.2695 705.408 95.8711 706.229 95.332C707.072 94.793 707.752 94.1016 708.268 93.2578C708.807 92.4141 709.076 91.4062 709.076 90.2344ZM746.359 73.5L743.898 121.383L729.062 122.156L727.656 74.4844L746.359 73.5ZM789.196 94.5938C789.196 96.6328 789.055 98.6719 788.774 100.711C784.766 100.969 780.782 101.391 776.821 101.977C772.86 102.539 768.899 103.102 764.938 103.664C765.547 105.352 766.497 106.699 767.786 107.707C769.098 108.715 770.657 109.219 772.462 109.219C773.399 109.219 774.419 109.043 775.52 108.691C776.645 108.34 777.758 107.906 778.86 107.391C779.962 106.852 781.016 106.277 782.024 105.668C783.032 105.059 783.899 104.508 784.626 104.016L782.938 119.977C782.024 120.68 781.028 121.277 779.95 121.77C778.895 122.262 777.794 122.66 776.645 122.965C775.497 123.27 774.337 123.492 773.165 123.633C771.993 123.773 770.844 123.844 769.719 123.844C767.399 123.844 765.278 123.527 763.356 122.895C761.434 122.262 759.688 121.383 758.118 120.258C756.571 119.109 755.212 117.762 754.04 116.215C752.868 114.668 751.895 112.98 751.122 111.152C750.348 109.324 749.762 107.391 749.364 105.352C748.965 103.312 748.766 101.25 748.766 99.1641C748.766 96.9844 748.965 94.8047 749.364 92.625C749.762 90.4453 750.36 88.3477 751.157 86.332C751.977 84.3164 752.997 82.4531 754.215 80.7422C755.458 79.0078 756.899 77.4961 758.54 76.207C760.18 74.918 762.032 73.9102 764.094 73.1836C766.18 72.457 768.477 72.0938 770.985 72.0938C773.071 72.0938 774.969 72.3867 776.68 72.9727C778.415 73.5352 779.95 74.332 781.286 75.3633C782.645 76.3711 783.817 77.5781 784.801 78.9844C785.809 80.3906 786.63 81.9375 787.262 83.625C787.919 85.2891 788.399 87.0586 788.704 88.9336C789.032 90.7852 789.196 92.6719 789.196 94.5938ZM775.133 92.7656C775.133 92.1094 775.063 91.4414 774.922 90.7617C774.782 90.0586 774.547 89.4258 774.219 88.8633C773.915 88.3008 773.505 87.8438 772.989 87.4922C772.473 87.1172 771.829 86.9297 771.055 86.9297C770.118 86.9297 769.286 87.1875 768.559 87.7031C767.856 88.1953 767.247 88.8281 766.731 89.6016C766.215 90.3516 765.794 91.1719 765.465 92.0625C765.137 92.9531 764.891 93.7734 764.727 94.5234L775.133 93.5391V92.7656ZM828.271 105C828.271 108.211 827.709 110.988 826.584 113.332C825.482 115.652 823.959 117.574 822.014 119.098C820.092 120.598 817.83 121.711 815.228 122.438C812.65 123.141 809.873 123.492 806.896 123.492C805.748 123.492 804.482 123.34 803.099 123.035C801.74 122.73 800.357 122.355 798.951 121.91C797.545 121.441 796.185 120.949 794.873 120.434C793.584 119.895 792.435 119.391 791.428 118.922L792.974 105.141C794.967 106.336 797.17 107.25 799.584 107.883C802.021 108.492 804.412 108.797 806.756 108.797C807.201 108.797 807.74 108.785 808.373 108.762C809.006 108.715 809.603 108.609 810.166 108.445C810.752 108.258 811.244 107.988 811.642 107.637C812.041 107.285 812.24 106.781 812.24 106.125C812.24 105.68 812.099 105.305 811.818 105C811.537 104.672 811.174 104.414 810.728 104.227C810.283 104.016 809.779 103.863 809.217 103.77C808.654 103.652 808.103 103.57 807.564 103.523C807.025 103.477 806.521 103.453 806.053 103.453C805.584 103.453 805.209 103.453 804.928 103.453C802.912 103.453 801.072 103.137 799.408 102.504C797.767 101.871 796.349 100.98 795.154 99.832C793.982 98.6602 793.068 97.2539 792.412 95.6133C791.756 93.9492 791.428 92.1094 791.428 90.0938C791.428 87.3281 791.978 84.8555 793.08 82.6758C794.205 80.4727 795.693 78.6094 797.545 77.0859C799.42 75.5391 801.564 74.3555 803.978 73.5352C806.392 72.7148 808.889 72.3047 811.467 72.3047C812.615 72.3047 813.799 72.3516 815.017 72.4453C816.236 72.5156 817.443 72.6562 818.639 72.8672C819.857 73.0781 821.041 73.3477 822.189 73.6758C823.338 74.0039 824.428 74.4141 825.459 74.9062L824.123 89.1797C822.529 88.6406 820.853 88.1953 819.096 87.8438C817.361 87.4688 815.662 87.2812 813.998 87.2812C813.693 87.2812 813.295 87.293 812.803 87.3164C812.334 87.3164 811.83 87.3516 811.291 87.4219C810.775 87.4688 810.248 87.5508 809.709 87.668C809.17 87.7852 808.689 87.9492 808.267 88.1602C807.846 88.3477 807.506 88.6055 807.248 88.9336C806.99 89.2617 806.873 89.6484 806.896 90.0938C806.92 90.6094 807.107 91.0078 807.459 91.2891C807.834 91.5703 808.303 91.7812 808.865 91.9219C809.451 92.0391 810.084 92.0977 810.764 92.0977C811.467 92.0977 812.158 92.0859 812.838 92.0625C813.517 92.0156 814.15 91.9805 814.736 91.957C815.322 91.9102 815.803 91.8984 816.178 91.9219C818.053 92.0391 819.74 92.4375 821.24 93.1172C822.74 93.7969 824.006 94.6992 825.037 95.8242C826.092 96.9492 826.889 98.2969 827.428 99.8672C827.99 101.414 828.271 103.125 828.271 105Z" transform="translate(29 390)" fill="#212529"/>
<path d="M77.9887 26.2203H0V0H10.0209V16.1691H67.9678V0H77.9887V26.2203Z" transform="translate(558.32 320.78)" fill="#242D3C"/>
<path d="M106.744 0H0V10.0512H106.744V0Z" transform="translate(543.941 336.949)" fill="#212529"/>
<path d="M240.937 167.154H29.627V125.42C29.627 124.109 28.5377 122.798 27.0128 122.798H0V13.3286C0 9.83255 1.30708 6.55504 3.92122 3.93301C6.53537 1.52949 9.80302 0 13.2885 0H127.657V96.5779C127.657 100.074 130.489 102.914 133.975 102.914H200.636C204.121 102.914 206.953 100.074 206.953 96.5779V0H227.866C231.352 0 234.62 1.31099 237.234 3.93301C239.63 6.33654 241.155 9.83255 241.155 13.3286V167.154H240.937ZM39.6479 157.103H230.916V13.3286C230.916 12.4546 230.48 11.7991 230.045 11.1436C229.173 10.2695 228.302 10.2695 227.866 10.2695H216.974V96.7964C216.974 105.755 209.567 113.184 200.636 113.184H133.975C124.825 113.184 117.637 105.755 117.637 96.7964V10.051H13.2885C12.4172 10.051 11.5458 10.4881 11.1101 10.9251C10.4566 11.5806 10.2387 12.2361 10.2387 13.1101V112.747H27.2307C34.2017 112.747 39.8657 118.428 39.8657 125.42V157.103H39.6479Z" transform="translate(476.845 127.01)" fill="#242D3C"/>
<path d="M198.239 37.3638H0V0H211.31V24.0352C211.31 27.5313 210.003 30.8088 207.389 33.4308C204.993 36.0528 201.725 37.3638 198.239 37.3638ZM10.0209 27.3128H198.239C198.675 27.3128 199.764 27.0942 200.418 26.4387C201.071 25.7832 201.289 25.1277 201.289 24.2537V10.2696H10.0209V27.3128Z" transform="translate(506.472 283.894)" fill="#212529"/>
<path d="M187.565 0V72.3243C187.565 78.6609 182.554 83.6864 176.237 83.6864H109.576C103.259 83.6864 98.2483 78.6609 98.2483 72.3243V0H0V93.3005H2.832C6.97106 93.3005 10.4566 96.7965 10.4566 100.948V118.428H192.575V0H187.565Z" transform="translate(501.244 151.482)" fill="#EF4631"/>
<path d="M9.58522 0H0V10.0512H9.58522V0Z" transform="translate(477.062 255.271)" fill="#212529"/>
<path d="M21.131 0H0V10.051H21.131V0Z" transform="translate(471.179 330.435)" fill="#212529"/>
<path d="M56.8576 116.243H12.635C5.66395 116.243 0 110.562 0 103.57V12.6731C0 5.68103 5.66395 0 12.635 0H56.8576C63.8287 0 69.4927 5.68103 69.4927 12.6731V103.57C69.4927 110.562 63.8287 116.243 56.8576 116.243ZM12.635 10.051C11.3279 10.051 10.0209 11.1436 10.0209 12.6731V103.57C10.0209 104.881 11.1101 106.192 12.635 106.192H56.8576C58.1647 106.192 59.4718 105.1 59.4718 103.57V12.6731C59.4718 11.3621 58.3826 10.051 56.8576 10.051H12.635Z" transform="translate(447 239.757)" fill="#212529"/>
<path d="M9.58519 0H0V10.051H9.58519V0Z" transform="translate(639.357 127.01)" fill="#212529"/>
<path d="M28.9735 0H0V10.051H28.9735V0Z" transform="translate(629.555 210.696)" fill="#242D3C"/>
<path d="M82.9991 132.194H16.3384C7.18887 132.194 0 124.765 0 115.806V16.3877C0 7.42908 7.40671 0 16.3384 0H82.9991C91.9307 0 99.3375 7.42908 99.3375 16.3877V115.806C99.3375 124.765 91.9307 132.194 82.9991 132.194ZM16.3384 9.8326C12.8528 9.8326 10.0209 12.673 10.0209 16.1691V115.588C10.0209 119.084 12.8528 121.924 16.3384 121.924H82.9991C86.4846 121.924 89.3166 119.084 89.3166 115.588V16.1691C89.3166 12.673 86.4846 9.8326 82.9991 9.8326H16.3384Z" transform="translate(594.481 108)" fill="#212529"/>
</g>
<defs>
<clipPath id="clip0">
<rect width="1200" height="800" fill="white"/>
</clipPath>
</defs>
</svg>
