<svg width="1200" height="800" viewBox="0 0 1200 800" fill="none" xmlns="http://www.w3.org/2000/svg">
<g clip-path="url(#clip0)">
<rect width="1200" height="800" fill="white"/>
<rect width="1200" height="800" fill="white"/>
<rect width="1200" height="800" fill="white" fill-opacity="0.92"/>
<path d="M512.297 42.1641C512.297 45.0234 511.242 47.2891 509.133 48.9609C507.039 50.6328 504.25 51.4688 500.766 51.4688C496.578 51.4688 493.367 51.0078 491.133 50.0859V47.6953C493.602 48.7422 496.75 49.2656 500.578 49.2656C503.391 49.2656 505.617 48.625 507.258 47.3438C508.914 46.0469 509.742 44.3516 509.742 42.2578C509.742 40.9609 509.469 39.8906 508.922 39.0469C508.375 38.1875 507.484 37.4062 506.25 36.7031C505.016 36 503.203 35.2422 500.812 34.4297C497.312 33.2266 494.891 31.9297 493.547 30.5391C492.219 29.1328 491.555 27.2656 491.555 24.9375C491.555 22.375 492.555 20.2891 494.555 18.6797C496.57 17.0547 499.156 16.2422 502.312 16.2422C505.531 16.2422 508.555 16.8516 511.383 18.0703L510.516 20.1328C507.672 18.9453 504.953 18.3516 502.359 18.3516C499.828 18.3516 497.812 18.9375 496.312 20.1094C494.812 21.2812 494.062 22.875 494.062 24.8906C494.062 26.1562 494.289 27.1953 494.742 28.0078C495.211 28.8203 495.969 29.5547 497.016 30.2109C498.062 30.8516 499.859 31.625 502.406 32.5312C505.078 33.4531 507.086 34.3516 508.43 35.2266C509.773 36.0859 510.75 37.0703 511.359 38.1797C511.984 39.2734 512.297 40.6016 512.297 42.1641ZM529.242 51.4688C525.539 51.4688 522.648 50.3281 520.57 48.0469C518.508 45.7656 517.477 42.5703 517.477 38.4609C517.477 34.3984 518.477 31.1484 520.477 28.7109C522.477 26.2578 525.172 25.0312 528.562 25.0312C531.562 25.0312 533.93 26.0781 535.664 28.1719C537.398 30.2656 538.266 33.1094 538.266 36.7031V38.5781H519.914C519.945 42.0781 520.758 44.75 522.352 46.5938C523.961 48.4375 526.258 49.3594 529.242 49.3594C530.695 49.3594 531.969 49.2578 533.062 49.0547C534.172 48.8516 535.57 48.4141 537.258 47.7422V49.8516C535.82 50.4766 534.492 50.8984 533.273 51.1172C532.055 51.3516 530.711 51.4688 529.242 51.4688ZM528.562 27.0938C526.109 27.0938 524.141 27.9062 522.656 29.5312C521.172 31.1406 520.305 33.4688 520.055 36.5156H535.805C535.805 33.5625 535.164 31.2578 533.883 29.6016C532.602 27.9297 530.828 27.0938 528.562 27.0938ZM563.062 51V34.4766C563.062 31.9141 562.523 30.0547 561.445 28.8984C560.367 27.7266 558.695 27.1406 556.43 27.1406C553.383 27.1406 551.148 27.9141 549.727 29.4609C548.32 30.9922 547.617 33.4844 547.617 36.9375V51H545.297V25.5234H547.266L547.711 29.0156H547.852C549.508 26.3594 552.453 25.0312 556.688 25.0312C562.469 25.0312 565.359 28.1328 565.359 34.3359V51H563.062ZM582.938 25.0312C584.781 25.0312 586.375 25.3672 587.719 26.0391C589.062 26.7109 590.266 27.8594 591.328 29.4844H591.469C591.375 27.5156 591.328 25.5859 591.328 23.6953V14.5312H593.625V51H592.102L591.516 47.1094H591.328C589.391 50.0156 586.609 51.4688 582.984 51.4688C579.469 51.4688 576.781 50.375 574.922 48.1875C573.062 46 572.133 42.8125 572.133 38.625C572.133 34.2188 573.055 30.8516 574.898 28.5234C576.742 26.1953 579.422 25.0312 582.938 25.0312ZM582.938 27.1406C580.156 27.1406 578.062 28.1172 576.656 30.0703C575.266 32.0234 574.57 34.8594 574.57 38.5781C574.57 45.7969 577.375 49.4062 582.984 49.4062C585.859 49.4062 587.969 48.5703 589.312 46.8984C590.656 45.2266 591.328 42.4688 591.328 38.625V38.2266C591.328 34.2891 590.664 31.4609 589.336 29.7422C588.023 28.0078 585.891 27.1406 582.938 27.1406ZM616.688 25.5234V42.0234C616.688 44.5859 617.227 46.4531 618.305 47.625C619.383 48.7812 621.055 49.3594 623.32 49.3594C626.352 49.3594 628.578 48.5938 630 47.0625C631.438 45.5312 632.156 43.0391 632.156 39.5859V25.5234H634.453V51H632.484L632.062 47.4844H631.922C630.266 50.1406 627.32 51.4688 623.086 51.4688C617.289 51.4688 614.391 48.3672 614.391 42.1641V25.5234H616.688ZM658.781 44.3672C658.781 46.6484 657.914 48.4062 656.18 49.6406C654.445 50.8594 651.984 51.4688 648.797 51.4688C645.391 51.4688 642.688 50.9453 640.688 49.8984V47.3906C643.25 48.6719 645.953 49.3125 648.797 49.3125C651.312 49.3125 653.219 48.8984 654.516 48.0703C655.828 47.2266 656.484 46.1094 656.484 44.7188C656.484 43.4375 655.961 42.3594 654.914 41.4844C653.883 40.6094 652.18 39.75 649.805 38.9062C647.258 37.9844 645.469 37.1953 644.438 36.5391C643.406 35.8672 642.625 35.1172 642.094 34.2891C641.578 33.4453 641.32 32.4219 641.32 31.2188C641.32 29.3125 642.117 27.8047 643.711 26.6953C645.32 25.5859 647.562 25.0312 650.438 25.0312C653.188 25.0312 655.797 25.5469 658.266 26.5781L657.398 28.6875C654.898 27.6562 652.578 27.1406 650.438 27.1406C648.359 27.1406 646.711 27.4844 645.492 28.1719C644.273 28.8594 643.664 29.8125 643.664 31.0312C643.664 32.3594 644.133 33.4219 645.07 34.2188C646.023 35.0156 647.875 35.9062 650.625 36.8906C652.922 37.7188 654.594 38.4688 655.641 39.1406C656.688 39.7969 657.469 40.5469 657.984 41.3906C658.516 42.2344 658.781 43.2266 658.781 44.3672ZM693.281 51L692.695 46.9688H692.508C691.227 48.6094 689.906 49.7734 688.547 50.4609C687.203 51.1328 685.609 51.4688 683.766 51.4688C681.266 51.4688 679.32 50.8281 677.93 49.5469C676.539 48.2656 675.844 46.4922 675.844 44.2266C675.844 41.7422 676.875 39.8125 678.938 38.4375C681.016 37.0625 684.016 36.3359 687.938 36.2578L692.789 36.1172V34.4297C692.789 32.0078 692.297 30.1797 691.312 28.9453C690.328 27.7109 688.742 27.0938 686.555 27.0938C684.195 27.0938 681.75 27.75 679.219 29.0625L678.352 27.0469C681.148 25.7344 683.914 25.0781 686.648 25.0781C689.445 25.0781 691.531 25.8047 692.906 27.2578C694.297 28.7109 694.992 30.9766 694.992 34.0547V51H693.281ZM683.906 49.3594C686.625 49.3594 688.766 48.5859 690.328 47.0391C691.906 45.4766 692.695 43.3125 692.695 40.5469V38.0391L688.242 38.2266C684.664 38.3984 682.109 38.9609 680.578 39.9141C679.062 40.8516 678.305 42.3203 678.305 44.3203C678.305 45.9141 678.789 47.1562 679.758 48.0469C680.742 48.9219 682.125 49.3594 683.906 49.3594ZM468.82 117V100.289C468.82 97.8047 468.336 95.9922 467.367 94.8516C466.398 93.7109 464.914 93.1406 462.914 93.1406C460.305 93.1406 458.375 93.8594 457.125 95.2969C455.875 96.7344 455.25 98.9922 455.25 102.07V117H452.883V99.5859C452.883 95.2891 450.914 93.1406 446.977 93.1406C444.305 93.1406 442.359 93.9219 441.141 95.4844C439.922 97.0312 439.312 99.5156 439.312 102.938V117H436.992V91.5234H438.914L439.406 95.0156H439.547C440.25 93.75 441.25 92.7734 442.547 92.0859C443.844 91.3828 445.273 91.0312 446.836 91.0312C450.852 91.0312 453.43 92.5391 454.57 95.5547H454.664C455.492 94.1016 456.602 92.9844 457.992 92.2031C459.398 91.4219 460.992 91.0312 462.773 91.0312C465.555 91.0312 467.641 91.7734 469.031 93.2578C470.422 94.7422 471.117 97.1016 471.117 100.336V117H468.82ZM489.656 117.469C485.953 117.469 483.062 116.328 480.984 114.047C478.922 111.766 477.891 108.57 477.891 104.461C477.891 100.398 478.891 97.1484 480.891 94.7109C482.891 92.2578 485.586 91.0312 488.977 91.0312C491.977 91.0312 494.344 92.0781 496.078 94.1719C497.812 96.2656 498.68 99.1094 498.68 102.703V104.578H480.328C480.359 108.078 481.172 110.75 482.766 112.594C484.375 114.438 486.672 115.359 489.656 115.359C491.109 115.359 492.383 115.258 493.477 115.055C494.586 114.852 495.984 114.414 497.672 113.742V115.852C496.234 116.477 494.906 116.898 493.688 117.117C492.469 117.352 491.125 117.469 489.656 117.469ZM488.977 93.0938C486.523 93.0938 484.555 93.9062 483.07 95.5312C481.586 97.1406 480.719 99.4688 480.469 102.516H496.219C496.219 99.5625 495.578 97.2578 494.297 95.6016C493.016 93.9297 491.242 93.0938 488.977 93.0938ZM521.508 110.367C521.508 112.648 520.641 114.406 518.906 115.641C517.172 116.859 514.711 117.469 511.523 117.469C508.117 117.469 505.414 116.945 503.414 115.898V113.391C505.977 114.672 508.68 115.312 511.523 115.312C514.039 115.312 515.945 114.898 517.242 114.07C518.555 113.227 519.211 112.109 519.211 110.719C519.211 109.438 518.688 108.359 517.641 107.484C516.609 106.609 514.906 105.75 512.531 104.906C509.984 103.984 508.195 103.195 507.164 102.539C506.133 101.867 505.352 101.117 504.82 100.289C504.305 99.4453 504.047 98.4219 504.047 97.2188C504.047 95.3125 504.844 93.8047 506.438 92.6953C508.047 91.5859 510.289 91.0312 513.164 91.0312C515.914 91.0312 518.523 91.5469 520.992 92.5781L520.125 94.6875C517.625 93.6562 515.305 93.1406 513.164 93.1406C511.086 93.1406 509.438 93.4844 508.219 94.1719C507 94.8594 506.391 95.8125 506.391 97.0312C506.391 98.3594 506.859 99.4219 507.797 100.219C508.75 101.016 510.602 101.906 513.352 102.891C515.648 103.719 517.32 104.469 518.367 105.141C519.414 105.797 520.195 106.547 520.711 107.391C521.242 108.234 521.508 109.227 521.508 110.367ZM543.867 110.367C543.867 112.648 543 114.406 541.266 115.641C539.531 116.859 537.07 117.469 533.883 117.469C530.477 117.469 527.773 116.945 525.773 115.898V113.391C528.336 114.672 531.039 115.312 533.883 115.312C536.398 115.312 538.305 114.898 539.602 114.07C540.914 113.227 541.57 112.109 541.57 110.719C541.57 109.438 541.047 108.359 540 107.484C538.969 106.609 537.266 105.75 534.891 104.906C532.344 103.984 530.555 103.195 529.523 102.539C528.492 101.867 527.711 101.117 527.18 100.289C526.664 99.4453 526.406 98.4219 526.406 97.2188C526.406 95.3125 527.203 93.8047 528.797 92.6953C530.406 91.5859 532.648 91.0312 535.523 91.0312C538.273 91.0312 540.883 91.5469 543.352 92.5781L542.484 94.6875C539.984 93.6562 537.664 93.1406 535.523 93.1406C533.445 93.1406 531.797 93.4844 530.578 94.1719C529.359 94.8594 528.75 95.8125 528.75 97.0312C528.75 98.3594 529.219 99.4219 530.156 100.219C531.109 101.016 532.961 101.906 535.711 102.891C538.008 103.719 539.68 104.469 540.727 105.141C541.773 105.797 542.555 106.547 543.07 107.391C543.602 108.234 543.867 109.227 543.867 110.367ZM565.898 117L565.312 112.969H565.125C563.844 114.609 562.523 115.773 561.164 116.461C559.82 117.133 558.227 117.469 556.383 117.469C553.883 117.469 551.938 116.828 550.547 115.547C549.156 114.266 548.461 112.492 548.461 110.227C548.461 107.742 549.492 105.812 551.555 104.438C553.633 103.062 556.633 102.336 560.555 102.258L565.406 102.117V100.43C565.406 98.0078 564.914 96.1797 563.93 94.9453C562.945 93.7109 561.359 93.0938 559.172 93.0938C556.812 93.0938 554.367 93.75 551.836 95.0625L550.969 93.0469C553.766 91.7344 556.531 91.0781 559.266 91.0781C562.062 91.0781 564.148 91.8047 565.523 93.2578C566.914 94.7109 567.609 96.9766 567.609 100.055V117H565.898ZM556.523 115.359C559.242 115.359 561.383 114.586 562.945 113.039C564.523 111.477 565.312 109.312 565.312 106.547V104.039L560.859 104.227C557.281 104.398 554.727 104.961 553.195 105.914C551.68 106.852 550.922 108.32 550.922 110.32C550.922 111.914 551.406 113.156 552.375 114.047C553.359 114.922 554.742 115.359 556.523 115.359ZM595.758 91.5234V93.1406L590.484 93.4688C591.891 95.2188 592.594 97.1406 592.594 99.2344C592.594 101.688 591.773 103.68 590.133 105.211C588.508 106.727 586.32 107.484 583.57 107.484C582.414 107.484 581.602 107.438 581.133 107.344C580.211 107.828 579.508 108.398 579.023 109.055C578.539 109.711 578.297 110.406 578.297 111.141C578.297 111.953 578.602 112.547 579.211 112.922C579.836 113.297 580.875 113.484 582.328 113.484H586.781C589.547 113.484 591.664 114.047 593.133 115.172C594.602 116.281 595.336 117.93 595.336 120.117C595.336 122.805 594.242 124.875 592.055 126.328C589.883 127.797 586.781 128.531 582.75 128.531C579.547 128.531 577.062 127.914 575.297 126.68C573.547 125.445 572.672 123.727 572.672 121.523C572.672 119.773 573.211 118.32 574.289 117.164C575.383 116.008 576.859 115.219 578.719 114.797C577.953 114.469 577.336 114.008 576.867 113.414C576.414 112.805 576.188 112.109 576.188 111.328C576.188 109.625 577.273 108.125 579.445 106.828C577.961 106.219 576.805 105.266 575.977 103.969C575.148 102.656 574.734 101.156 574.734 99.4688C574.734 96.9219 575.539 94.8828 577.148 93.3516C578.773 91.8047 580.961 91.0312 583.711 91.0312C585.383 91.0312 586.68 91.1953 587.602 91.5234H595.758ZM575.133 121.312C575.133 124.812 577.734 126.562 582.938 126.562C589.625 126.562 592.969 124.43 592.969 120.164C592.969 118.633 592.445 117.523 591.398 116.836C590.352 116.148 588.656 115.805 586.312 115.805H582.141C577.469 115.805 575.133 117.641 575.133 121.312ZM577.078 99.4688C577.078 101.438 577.672 102.969 578.859 104.062C580.062 105.141 581.664 105.68 583.664 105.68C585.789 105.68 587.414 105.141 588.539 104.062C589.68 102.984 590.25 101.422 590.25 99.375C590.25 97.2031 589.664 95.5781 588.492 94.5C587.336 93.4062 585.711 92.8594 583.617 92.8594C581.586 92.8594 579.984 93.4453 578.812 94.6172C577.656 95.7734 577.078 97.3906 577.078 99.4688ZM611.297 117.469C607.594 117.469 604.703 116.328 602.625 114.047C600.562 111.766 599.531 108.57 599.531 104.461C599.531 100.398 600.531 97.1484 602.531 94.7109C604.531 92.2578 607.227 91.0312 610.617 91.0312C613.617 91.0312 615.984 92.0781 617.719 94.1719C619.453 96.2656 620.32 99.1094 620.32 102.703V104.578H601.969C602 108.078 602.812 110.75 604.406 112.594C606.016 114.438 608.312 115.359 611.297 115.359C612.75 115.359 614.023 115.258 615.117 115.055C616.227 114.852 617.625 114.414 619.312 113.742V115.852C617.875 116.477 616.547 116.898 615.328 117.117C614.109 117.352 612.766 117.469 611.297 117.469ZM610.617 93.0938C608.164 93.0938 606.195 93.9062 604.711 95.5312C603.227 97.1406 602.359 99.4688 602.109 102.516H617.859C617.859 99.5625 617.219 97.2578 615.938 95.6016C614.656 93.9297 612.883 93.0938 610.617 93.0938ZM646.547 115.406C648.016 115.406 649.297 115.281 650.391 115.031V116.906C649.266 117.281 647.969 117.469 646.5 117.469C644.25 117.469 642.586 116.867 641.508 115.664C640.445 114.461 639.914 112.57 639.914 109.992V93.5391H636.141V92.1797L639.914 91.125L641.086 85.3594H642.281V91.5234H649.758V93.5391H642.281V109.664C642.281 111.617 642.625 113.062 643.312 114C644 114.938 645.078 115.406 646.547 115.406ZM676.969 104.227C676.969 108.383 675.961 111.633 673.945 113.977C671.93 116.305 669.148 117.469 665.602 117.469C663.367 117.469 661.398 116.93 659.695 115.852C657.992 114.773 656.688 113.227 655.781 111.211C654.875 109.195 654.422 106.867 654.422 104.227C654.422 100.07 655.43 96.8359 657.445 94.5234C659.461 92.1953 662.227 91.0312 665.742 91.0312C669.242 91.0312 671.984 92.2109 673.969 94.5703C675.969 96.9141 676.969 100.133 676.969 104.227ZM656.859 104.227C656.859 107.727 657.625 110.461 659.156 112.43C660.703 114.383 662.883 115.359 665.695 115.359C668.508 115.359 670.68 114.383 672.211 112.43C673.758 110.461 674.531 107.727 674.531 104.227C674.531 100.711 673.75 97.9844 672.188 96.0469C670.641 94.1094 668.461 93.1406 665.648 93.1406C662.836 93.1406 660.664 94.1094 659.133 96.0469C657.617 97.9688 656.859 100.695 656.859 104.227ZM693.352 91.0312C695.195 91.0312 696.789 91.3672 698.133 92.0391C699.477 92.7109 700.68 93.8594 701.742 95.4844H701.883C701.789 93.5156 701.742 91.5859 701.742 89.6953V80.5312H704.039V117H702.516L701.93 113.109H701.742C699.805 116.016 697.023 117.469 693.398 117.469C689.883 117.469 687.195 116.375 685.336 114.188C683.477 112 682.547 108.812 682.547 104.625C682.547 100.219 683.469 96.8516 685.312 94.5234C687.156 92.1953 689.836 91.0312 693.352 91.0312ZM693.352 93.1406C690.57 93.1406 688.477 94.1172 687.07 96.0703C685.68 98.0234 684.984 100.859 684.984 104.578C684.984 111.797 687.789 115.406 693.398 115.406C696.273 115.406 698.383 114.57 699.727 112.898C701.07 111.227 701.742 108.469 701.742 104.625V104.227C701.742 100.289 701.078 97.4609 699.75 95.7422C698.438 94.0078 696.305 93.1406 693.352 93.1406ZM728.086 117L727.5 112.969H727.312C726.031 114.609 724.711 115.773 723.352 116.461C722.008 117.133 720.414 117.469 718.57 117.469C716.07 117.469 714.125 116.828 712.734 115.547C711.344 114.266 710.648 112.492 710.648 110.227C710.648 107.742 711.68 105.812 713.742 104.438C715.82 103.062 718.82 102.336 722.742 102.258L727.594 102.117V100.43C727.594 98.0078 727.102 96.1797 726.117 94.9453C725.133 93.7109 723.547 93.0938 721.359 93.0938C719 93.0938 716.555 93.75 714.023 95.0625L713.156 93.0469C715.953 91.7344 718.719 91.0781 721.453 91.0781C724.25 91.0781 726.336 91.8047 727.711 93.2578C729.102 94.7109 729.797 96.9766 729.797 100.055V117H728.086ZM718.711 115.359C721.43 115.359 723.57 114.586 725.133 113.039C726.711 111.477 727.5 109.312 727.5 106.547V104.039L723.047 104.227C719.469 104.398 716.914 104.961 715.383 105.914C713.867 106.852 713.109 108.32 713.109 110.32C713.109 111.914 713.594 113.156 714.562 114.047C715.547 114.922 716.93 115.359 718.711 115.359ZM733.805 91.5234H736.195L741.586 105.82C743.227 110.211 744.266 113.172 744.703 114.703H744.844C745.5 112.688 746.57 109.68 748.055 105.68L753.445 91.5234H755.836L744.422 121.125C743.5 123.531 742.727 125.156 742.102 126C741.477 126.844 740.742 127.477 739.898 127.898C739.07 128.32 738.062 128.531 736.875 128.531C735.984 128.531 734.992 128.367 733.898 128.039V126.023C734.805 126.273 735.781 126.398 736.828 126.398C737.625 126.398 738.328 126.211 738.938 125.836C739.547 125.461 740.094 124.875 740.578 124.078C741.078 123.297 741.648 122.047 742.289 120.328C742.945 118.625 743.367 117.516 743.555 117L733.805 91.5234ZM759.633 115.172C759.633 113.641 760.258 112.875 761.508 112.875C762.789 112.875 763.43 113.641 763.43 115.172C763.43 116.703 762.789 117.469 761.508 117.469C760.258 117.469 759.633 116.703 759.633 115.172Z" transform="translate(0 334)" fill="#271A15"/>
<path d="M488.479 25.0547C484.724 25.0547 481.771 26.3854 479.62 29.0469C477.469 31.7083 476.393 35.3815 476.393 40.0664C476.393 44.9701 477.423 48.6797 479.483 51.1953C481.561 53.7109 484.56 54.9688 488.479 54.9688C490.175 54.9688 491.815 54.8047 493.401 54.4766C494.987 54.1302 496.637 53.6927 498.35 53.1641V58.7695C495.215 59.9544 491.66 60.5469 487.686 60.5469C481.835 60.5469 477.341 58.7786 474.206 55.2422C471.07 51.6875 469.503 46.6107 469.503 40.0117C469.503 35.8555 470.259 32.2188 471.772 29.1016C473.304 25.9844 475.509 23.5964 478.389 21.9375C481.27 20.2786 484.651 19.4492 488.534 19.4492C492.617 19.4492 496.391 20.306 499.854 22.0195L497.503 27.4609C496.154 26.8229 494.723 26.2669 493.21 25.793C491.715 25.3008 490.138 25.0547 488.479 25.0547ZM533.104 44.8242C533.104 49.7643 531.837 53.6198 529.304 56.3906C526.77 59.1615 523.242 60.5469 518.721 60.5469C515.896 60.5469 513.399 59.9089 511.229 58.6328C509.06 57.3568 507.392 55.5247 506.225 53.1367C505.059 50.7487 504.475 47.9779 504.475 44.8242C504.475 39.9206 505.733 36.0924 508.249 33.3398C510.764 30.5872 514.31 29.2109 518.886 29.2109C523.261 29.2109 526.724 30.6237 529.276 33.4492C531.828 36.2565 533.104 40.0482 533.104 44.8242ZM511.093 44.8242C511.093 51.806 513.672 55.2969 518.831 55.2969C523.935 55.2969 526.487 51.806 526.487 44.8242C526.487 37.9154 523.917 34.4609 518.776 34.4609C516.078 34.4609 514.119 35.3542 512.897 37.1406C511.694 38.9271 511.093 41.4883 511.093 44.8242ZM567.12 60H560.667V41.4062C560.667 39.0729 560.193 37.332 559.245 36.1836C558.315 35.0352 556.83 34.4609 554.788 34.4609C552.072 34.4609 550.085 35.263 548.827 36.8672C547.569 38.4714 546.94 41.1602 546.94 44.9336V60H540.514V29.7578H545.546L546.448 33.7227H546.776C547.688 32.2826 548.982 31.1706 550.659 30.3867C552.336 29.6029 554.195 29.2109 556.237 29.2109C563.492 29.2109 567.12 32.9023 567.12 40.2852V60ZM587.327 55.3516C588.895 55.3516 590.462 55.1055 592.03 54.6133V59.4531C591.319 59.763 590.399 60.0182 589.268 60.2188C588.156 60.4375 586.999 60.5469 585.796 60.5469C579.707 60.5469 576.663 57.3385 576.663 50.9219V34.625H572.534V31.7812L576.964 29.4297L579.151 23.0312H583.116V29.7578H591.729V34.625H583.116V50.8125C583.116 52.362 583.499 53.5104 584.264 54.2578C585.048 54.987 586.069 55.3516 587.327 55.3516ZM617.022 60L615.737 55.7891H615.518C614.06 57.6302 612.593 58.888 611.116 59.5625C609.639 60.2188 607.744 60.5469 605.429 60.5469C602.457 60.5469 600.133 59.7448 598.456 58.1406C596.797 56.5365 595.968 54.2669 595.968 51.332C595.968 48.2148 597.125 45.8633 599.44 44.2773C601.755 42.6914 605.283 41.8255 610.022 41.6797L615.245 41.5156V39.9023C615.245 37.9701 614.789 36.5299 613.878 35.582C612.985 34.6159 611.59 34.1328 609.694 34.1328C608.145 34.1328 606.659 34.3607 605.237 34.8164C603.815 35.2721 602.448 35.8099 601.136 36.4297L599.057 31.8359C600.698 30.9792 602.494 30.332 604.444 29.8945C606.395 29.4388 608.236 29.2109 609.968 29.2109C613.814 29.2109 616.712 30.0495 618.663 31.7266C620.632 33.4036 621.616 36.0378 621.616 39.6289V60H617.022ZM607.452 55.625C609.785 55.625 611.654 54.9779 613.057 53.6836C614.479 52.3711 615.19 50.5391 615.19 48.1875V45.5625L611.307 45.7266C608.281 45.8359 606.076 46.3464 604.69 47.2578C603.323 48.151 602.639 49.5273 602.639 51.3867C602.639 52.7357 603.041 53.7839 603.843 54.5312C604.645 55.2604 605.848 55.625 607.452 55.625ZM642.78 60.5469C638.205 60.5469 634.723 59.2161 632.335 56.5547C629.965 53.875 628.78 50.0378 628.78 45.043C628.78 39.957 630.02 36.0469 632.499 33.3125C634.996 30.5781 638.596 29.2109 643.3 29.2109C646.49 29.2109 649.361 29.8034 651.913 30.9883L649.971 36.1562C647.255 35.099 645.013 34.5703 643.245 34.5703C638.013 34.5703 635.397 38.043 635.397 44.9883C635.397 48.3789 636.044 50.931 637.339 52.6445C638.651 54.3398 640.565 55.1875 643.081 55.1875C645.943 55.1875 648.65 54.4766 651.202 53.0547V58.6602C650.054 59.3346 648.823 59.8177 647.511 60.1094C646.216 60.401 644.639 60.5469 642.78 60.5469ZM669.577 55.3516C671.145 55.3516 672.712 55.1055 674.28 54.6133V59.4531C673.569 59.763 672.649 60.0182 671.518 60.2188C670.406 60.4375 669.249 60.5469 668.046 60.5469C661.957 60.5469 658.913 57.3385 658.913 50.9219V34.625H654.784V31.7812L659.214 29.4297L661.401 23.0312H665.366V29.7578H673.979V34.625H665.366V50.8125C665.366 52.362 665.749 53.5104 666.514 54.2578C667.298 54.987 668.319 55.3516 669.577 55.3516Z" transform="translate(29 257)" fill="#212529"/>
<path d="M0 0C31.1151 538.332 113.638 1018.29 230.657 1387.99V0H0Z" transform="translate(1228.99 570.668) rotate(90.0001)" fill="#EF4631"/>
<path d="M0 0C13.5283 516.713 73.0528 992.348 166.398 1381.5V0H0Z" transform="translate(1229 634.925) rotate(90.0001)" fill="#12ABE3"/>
<path d="M0.676409 0C-5.19087e-06 38.9156 5.16063e-06 77.8312 5.16063e-06 116.747C5.16063e-06 557.79 35.1736 972.89 98.0801 1333.94V0H0.676409Z" transform="translate(1229 703.921) rotate(90.0001)" fill="#2EB349"/>
<path d="M11.4991 0C4.05849 138.367 0 281.057 0 428.072C0 739.397 16.9104 1035.59 48.0254 1312.32V0H11.4991Z" transform="translate(1229 753.299) rotate(90.0001)" fill="#FFCD30"/>
<path d="M152.877 49.9333C154.134 47.8353 154.972 45.7373 154.972 43.2196C154.972 36.0863 149.108 30.2118 141.988 30.2118C138.637 30.2118 135.705 31.4706 133.192 33.5686C129.841 28.5333 124.396 24.7569 117.695 24.7569C113.925 24.7569 110.574 26.0157 107.642 27.6941C105.967 12.1686 92.983 0 77.067 0C65.7582 0 56.1249 5.87451 50.6799 14.6863C48.1669 13.4275 45.235 12.5882 42.3031 12.5882C32.2509 12.5882 24.2929 20.9804 24.2929 31.051C24.2929 33.9882 25.1305 36.9255 26.3871 39.4431C25.5494 39.4431 25.1305 39.4431 24.2929 39.4431C10.8899 39.4431 0 50.3529 0 63.7804C0 77.2078 10.8899 88.1176 24.2929 88.1176C37.6958 88.1176 137.799 88.1176 148.27 88.1176C158.741 88.1176 167.537 79.3059 167.537 68.8157C167.956 59.5843 161.254 51.6118 152.877 49.9333Z" transform="translate(819 82.8824)" fill="#12ABE3" fill-opacity="0.11"/>
<path d="M164.167 80.2186C165.206 77.1133 166.245 74.0081 166.245 70.3853C166.245 55.8942 154.296 43.9908 139.749 43.9908C137.671 43.9908 135.074 44.5084 132.996 45.0259C134.035 41.9207 134.554 38.2979 134.554 34.6751C134.554 15.5262 118.969 0 99.7468 0C84.1613 0 71.1735 10.3508 66.4979 24.3243C62.3417 20.184 56.6271 17.5963 50.3929 17.5963C37.9246 17.5963 28.0538 27.4296 28.0538 39.8505C28.0538 41.4031 28.0538 43.4733 28.5733 45.0259C11.9488 47.6136 0 61.5872 0 78.666C0 97.8149 15.5854 112.824 34.288 112.824C52.9905 112.824 151.179 112.824 160.01 112.824C169.362 112.824 176.635 105.578 176.635 96.2623C176.635 88.4992 171.44 82.2887 164.167 80.2186Z" transform="translate(1006.37 17)" fill="#12ABE3" fill-opacity="0.11"/>
<path d="M29.3013 2.83395C30.9008 1.30029 33.0557 1.32252 35.0328 0.833525C40.1201 -0.455639 45.2519 -0.0333274 50.3392 0.655709C53.6048 1.10025 56.715 2.10046 59.6474 3.96753C61.6912 5.2567 64.246 5.79014 66.2231 7.36826C68.5335 9.23532 71.2882 10.5912 72.9988 13.1695C73.5542 14.0141 74.2651 14.7698 73.8208 15.9034C73.5764 16.5258 73.9096 17.1259 74.3539 17.4815C77.6418 20.3044 79.2191 24.1496 81.0408 27.9282C83.7955 33.5961 84.884 39.7307 86.7501 45.6653C87.772 48.9327 86.7057 52.3112 85.5283 55.4674C84.3731 58.5792 83.3956 61.7799 81.9294 64.7583C80.6187 67.3811 78.9303 69.8705 77.1086 72.2044C74.0874 76.0496 71.1105 80.0283 66.6897 82.451C66.5564 81.0729 67.7116 80.6728 68.5557 80.006C69.5776 79.1836 70.644 78.5391 71.3993 77.2721C73.0877 74.4493 74.6427 71.582 76.1978 68.6925C77.7751 65.7363 77.9528 62.0911 81.4406 59.4683C80.1299 59.6906 79.7078 59.7795 79.1525 59.8684C79.73 59.1571 80.2188 58.557 80.6853 57.9791C81.1963 57.3345 81.7072 56.6677 82.2848 55.9564C81.3296 55.9564 80.0189 57.1122 79.7078 55.5786C79.4413 54.2894 80.863 54.8451 81.5739 54.645C82.0849 54.5117 82.5292 54.2894 82.7735 53.8004C82.9291 53.5115 82.9068 52.8669 82.6625 52.9558C80.8186 53.6671 80.9297 51.7111 80.0855 51.2221C78.0639 50.0441 77.4419 48.8883 78.7304 46.7545C79.2191 45.9321 79.3302 44.7318 78.5526 43.9316C77.975 43.3315 78.0417 42.8425 78.5304 42.4647C79.3968 41.7978 78.8859 41.8423 78.3749 41.1977C77.3974 39.9975 76.6421 38.2193 77.5307 36.6856C78.3527 35.3076 78.6415 37.9304 79.619 37.2413C78.0417 32.3292 77.7529 31.7957 76.3089 31.0844C76.5533 32.8848 76.2645 32.5959 74.665 34.2407C73.0877 35.841 72.8877 33.4183 71.9325 33.7517C72.2879 30.7733 69.3555 29.6841 68.3114 27.4837C67.6005 25.9722 66.4231 24.6831 65.4456 23.2828C65.3345 24.972 64.2238 26.6613 66.001 27.7504C66.4231 28.0171 66.001 28.6839 65.8677 29.1729C65.6455 30.0176 65.49 30.9733 66.1121 31.5734C67.8671 33.2627 67.0451 34.7741 65.8899 36.1967C64.7791 37.5747 64.1127 38.9306 64.5348 40.7532C65.179 43.576 64.4903 45.8876 61.8467 47.4435C60.6249 48.177 60.2028 49.2883 61.1803 50.5997C61.1803 50.6664 61.1803 50.7553 61.2025 50.822C61.1803 50.7553 61.1803 50.6664 61.158 50.5997C62.5354 49.644 63.935 48.666 65.3123 47.7102H65.2901C65.7566 48.4882 65.2457 48.8883 64.7125 49.3773C62.802 51.1999 61.4913 53.4448 59.8251 55.8453C63.2019 55.5786 63.8905 52.4668 65.8677 51.1554C66.8674 51.7111 65.2457 52.289 66.001 52.6668C66.3564 52.8447 67.1117 51.8667 67.3117 52.9558C67.445 53.6226 66.8674 54.245 66.3564 54.2894C63.8017 54.4895 63.6906 56.7566 62.8464 58.3347C62.4021 59.1571 61.8023 59.7795 61.2913 60.513C59.6474 62.8468 56.4262 63.5358 55.3376 66.4698C58.5811 65.314 63.424 61.1575 65.0901 58.268C65.9121 56.8455 66.2453 54.8229 68.6668 55.0674C68.9112 55.0896 69.4888 54.5339 69.4888 54.2672C69.3777 52 71.9991 51.4888 72.4434 49.5773C72.5101 49.2439 73.1099 49.0438 73.532 49.2883C73.9763 49.5328 73.8874 49.9552 73.8652 50.3997C73.5764 54.4005 73.0655 58.3569 71.2882 62.0244C70.6884 63.2913 71.6437 64.5805 70.5329 66.0697C68.2892 69.1148 66.3342 72.271 62.8908 74.1826C62.0911 74.6271 61.047 75.0272 60.7137 76.4719C64.3348 74.6716 67.1562 72.1377 70.9994 69.8261C69.3111 71.8932 68.2892 73.5824 67.4894 75.405C67.2228 75.9829 66.8896 76.5386 66.2676 76.5386C63.8239 76.4942 62.1577 78.3835 60.9803 79.7838C59.1809 81.8731 57.2259 83.5623 54.8267 84.5848C53.4493 85.1627 51.761 86.4519 50.4058 85.8073C47.9177 84.6515 45.9183 85.5183 43.8967 86.5408C43.1636 86.9186 42.7638 87.0742 41.8974 86.8964C41.2087 86.7408 39.5425 85.7628 39.4759 87.8299C39.4537 89.1413 39.2537 90.5861 41.342 90.2527C42.0751 90.1415 42.897 90.2749 43.5857 90.0304C47.6956 88.5634 52.1386 89.2302 56.2707 88.0744C56.3817 88.0522 56.5373 88.2522 56.6705 88.3634C53.1827 90.8083 49.0507 91.3196 45.0519 91.4307C38.8316 91.5863 32.6114 91.4307 26.7243 88.5412C22.4812 86.4519 18.6824 83.8513 15.4611 80.5173C14.1282 79.117 14.106 76.6942 12.6176 75.1161C9.72958 72.0932 8.55216 68.0701 6.61943 64.4916C6.46392 64.2026 6.41949 63.647 6.21955 63.6025C1.62098 62.3356 2.35409 57.9791 1.46548 54.8673C-0.0895942 49.4217 -0.489471 43.7316 0.665725 38.0859C2.10972 31.04 5.08658 24.6831 9.52964 19.0152C10.4405 17.8594 10.9958 16.3257 12.5509 15.7256C11.7956 18.3484 10.2627 20.7044 8.84096 22.8827C6.97488 25.7277 6.06405 28.7284 5.17544 31.8402C4.90885 32.7515 4.62005 33.9517 6.2862 34.374C6.88601 34.5296 7.77463 36.0633 7.30811 36.4412C4.9755 38.2193 6.15291 40.8643 5.57531 43.0426C5.48645 43.3982 4.6867 44.8207 5.81968 45.532C7.93014 46.8656 5.59753 46.6433 5.13101 47.2657C5.90854 48.0436 6.99709 48.666 7.10817 49.9107C6.59722 50.7331 5.77525 49.0883 5.46424 50.1107C5.2643 50.7331 5.88633 51.022 6.46392 51.3332C7.84127 52.0889 8.30779 53.2447 6.55278 53.9116C5.61974 54.2672 5.64196 54.8229 5.57531 55.3785C5.4198 56.5788 6.55279 56.2009 7.1526 56.5121C6.70829 56.8677 5.75303 57.379 5.9974 57.6679C7.39697 59.4683 7.10817 62.2689 9.41856 63.5358C7.59691 61.5132 8.5966 58.6014 7.1526 56.4899C8.70767 56.6677 10.1295 58.557 9.46299 59.8017C9.06312 60.5574 9.15198 61.002 9.55185 61.6021C10.5071 62.9579 11.218 64.625 12.4843 65.6029C13.7061 66.5365 14.5503 68.8259 16.8163 67.6478H16.8385C18.1048 68.5369 19.371 69.4038 20.6373 70.3151C21.1482 70.6929 21.6814 70.9374 22.2146 70.4929C22.8366 69.9594 22.3034 69.4704 22.0591 68.9592C21.5703 68.0479 20.4596 67.4033 20.7262 66.1364H20.7484C22.57 67.3811 24.6805 67.8923 26.7909 68.3813C27.724 68.5814 28.7015 68.9148 29.3013 67.9368C29.6789 67.3366 30.0344 66.3587 29.5679 65.8252C28.968 65.114 28.1239 64.7805 26.9242 65.2473C25.3914 65.8474 21.9036 63.4025 21.3482 61.691C23.903 61.7577 26.4799 62.869 29.168 61.9133C28.9458 61.6021 28.9014 61.402 28.7681 61.3576C26.1467 60.3351 23.1254 60.1129 21.2593 57.4679C20.6151 56.5343 20.5484 58.0458 20.193 58.0902C19.3044 58.2236 18.7046 59.2238 17.7715 58.9571C17.4827 58.8682 17.0828 58.2458 17.1717 57.9791C17.4605 57.0233 18.238 56.601 19.2155 56.401C20.8372 56.0676 19.7487 55.2896 19.3932 54.7117C18.2158 52.8224 16.5941 51.1554 16.1942 48.9327C18.3491 49.1328 20.0819 50.0663 21.3926 51.7778C21.5259 51.9556 21.8369 52.1334 22.0591 52.1112C25.7913 51.6889 27.9461 55.2896 31.3451 55.7119C32.6336 55.8675 34.2775 57.09 34.1442 54.4228C34.0776 53.0669 35.7215 53.0447 35.8326 53.1114C37.7875 54.1783 39.4315 52.3334 41.2531 52.6446C42.2084 52.8224 42.8748 52.489 43.4969 51.7555C42.0751 51.3555 40.8088 49.5773 39.2093 51.5777C38.9871 51.8444 37.943 51.4888 37.2766 51.3554C36.4546 51.1999 35.6549 50.9331 34.8329 50.8442C34.2331 50.7775 33.5222 51.4888 33.0779 50.5775C32.8557 50.0885 32.9002 49.5773 33.3667 49.2217C33.9665 48.7327 34.5885 48.2214 35.2994 49.0661C35.2994 49.1328 35.2994 49.1994 35.2994 49.2661C35.2994 49.1994 35.2772 49.1328 35.2772 49.0661C38.9872 48.4659 41.5641 46.021 43.9856 43.4426C44.6743 42.7092 44.9186 41.5089 45.2074 40.4642C45.4074 39.6863 44.2966 39.3084 44.2077 39.5529C43.6301 41.0644 41.6974 40.2197 41.0976 41.5089C41.1865 42.3091 42.3195 41.4867 42.3861 42.3091C42.4083 42.7758 42.0529 42.9981 41.6752 43.2204C38.6539 45.1097 34.4552 44.3095 31.9449 47.399C31.8116 47.5546 31.2784 47.4657 30.9674 47.3768C28.6348 46.5989 26.2133 46.3988 24.214 44.3984C23.1254 43.3093 22.9921 41.3533 21.1038 40.9755C20.7262 40.9088 20.7928 40.242 21.1927 39.9308C21.5481 39.6418 21.9702 39.6641 22.3701 39.8641C23.0143 40.1975 22.6367 41.2199 23.4364 41.4644C25.7913 38.9528 26.0578 38.9528 26.9465 41.4422C25.9023 41.5534 23.9252 40.9088 24.6361 42.8203C24.9026 43.4871 25.9245 45.2208 27.4796 45.4208C27.8573 45.4653 28.4571 45.8432 28.4127 45.1763C28.3238 43.7761 29.3013 44.2206 30.0122 43.9539C30.9452 43.576 32.2337 43.1759 31.3451 41.5978C31.0341 41.0644 31.0119 40.5309 31.9227 40.3086C33.3667 39.9752 33.9221 38.6861 34.6996 37.5747C30.7675 37.3969 34.1886 35.1075 33.6555 33.8628C33.1889 32.7959 34.4997 31.9958 35.7659 32.1069C36.5879 32.1736 37.3876 32.5292 38.2096 32.6626C38.8094 32.7737 39.4759 32.7737 39.1871 31.7957C38.8539 30.6399 35.3661 29.3507 34.3886 30.0175C32.7891 31.0844 31.6117 32.7515 29.2791 33.8184C30.3454 30.7955 33.7665 29.0173 31.9671 25.7055C30.8786 25.9056 30.6342 27.0614 29.9455 27.7504C29.3235 28.3505 28.7015 28.3283 28.1461 27.8838C27.5463 27.417 28.3238 27.0614 28.4127 26.6391C28.8347 24.8387 30.5009 24.1274 31.5672 22.9049C33.0334 21.2157 33.4111 18.3039 36.4768 18.3039C36.6545 18.3039 36.9211 18.015 36.9878 17.7927C37.4765 16.2146 38.4762 16.6814 39.4981 17.0814C40.3423 17.4149 41.2309 17.7038 42.0973 17.9928C42.6527 18.1928 43.3191 18.5262 43.7634 18.1039C44.3633 17.5482 43.6524 17.0592 43.3858 16.5925C42.6749 15.3477 43.1858 15.1032 44.3633 15.2588C44.8298 15.3255 45.2741 15.8367 45.9628 15.2144C44.6298 13.1473 41.7863 13.8363 40.3423 12.1693V12.1915C41.031 11.8137 41.6308 10.9468 42.5194 11.8359C42.8082 12.1026 43.2081 12.5471 43.5191 12.0137C43.6746 11.747 43.6079 11.1024 43.3858 10.8801C42.897 10.3689 42.2528 9.99104 41.3642 9.34646C43.9634 8.85747 45.6295 7.52385 46.1627 5.05665C46.2071 4.87884 46.5404 4.7677 46.7625 4.61211H46.7403C47.118 5.25669 47.4956 5.87905 48.1621 6.96817C47.5623 2.87841 43.9189 0.522348 40.0979 1.45588C37.943 1.98933 35.6993 2.2116 33.6333 3.25626C32.1893 3.90085 30.5898 4.10089 29.3013 2.83395ZM60.4472 69.137C60.3139 69.426 60.2472 69.8038 60.0251 69.9817C55.582 73.2935 50.7613 75.8718 45.3407 77.1832C44.3188 77.4277 43.3858 77.7167 42.3194 78.4057C51.0945 79.6282 63.0241 71.3375 64.4681 65.4474C64.1571 65.7141 63.7794 66.003 63.4018 66.3142C63.7128 64.1137 65.2234 62.5801 66.4675 60.9131C66.8007 60.4685 67.2006 59.8239 66.623 59.3794C66.2676 59.1127 65.5789 59.246 65.2679 59.6906C64.0905 61.3131 61.6912 62.1578 62.1577 64.8028C62.2466 65.2695 61.7801 65.8252 61.4913 65.7141C59.5363 64.9584 59.0476 66.8254 58.0479 67.6478C56.3151 69.1148 54.0936 69.5593 52.2053 70.7151C51.7832 70.9819 51.1611 71.0486 51.3611 71.7154C51.5388 72.36 52.1164 72.271 52.6274 72.2044C54.9377 71.8932 57.2037 71.4264 58.6699 69.3371C59.1587 68.648 59.714 68.2924 60.4472 69.137ZM54.3824 30.8622C54.8933 35.1964 54.9822 39.0417 54.1824 42.887C54.0491 43.5093 52.9162 44.2206 54.138 44.6874C54.9155 44.9763 55.3821 44.0872 55.8041 43.4426C58.3811 39.3307 58.0257 35.1964 54.3824 30.8622ZM56.9149 45.3542C54.449 47.0879 52.0053 48.7994 49.5394 50.5331C52.3608 49.355 55.1599 48.177 56.9149 45.3542ZM58.4922 43.865C58.47 43.7538 58.3811 43.4426 58.2478 43.1315C58.2478 43.1092 57.8924 43.1537 57.8257 43.2426C57.6925 43.5093 57.6258 43.7983 57.5147 44.0872C57.6702 44.0428 57.8257 44.0205 58.4922 43.865ZM5.24208 37.5525C5.2643 37.508 5.33094 37.4414 5.30873 37.3969C5.28651 37.3525 5.21987 37.308 5.17544 37.2635C5.131 37.3525 5.08658 37.4191 5.04215 37.508C5.10879 37.5303 5.17544 37.5303 5.24208 37.5525Z" transform="translate(61.9424 62.3922)" fill="#FFCD30"/>
<path d="M2.18221 55.2818C1.58239 54.9929 0.449412 55.3485 0.604919 54.1483C0.671565 53.6148 0.627136 53.0369 1.58239 52.6813C3.3374 52.0145 2.8931 50.8587 1.49353 50.1029C0.938149 49.7918 0.31612 49.5028 0.493842 48.8805C0.804857 47.858 1.62683 49.5028 2.13778 48.6804C2.0267 47.4357 0.938149 46.8134 0.160613 46.0354C0.604919 45.4131 2.95974 45.6353 0.849289 44.3017C-0.283692 43.5904 0.516058 42.1901 0.604919 41.8123C1.18252 39.634 0.00510608 37.0113 2.33771 35.2109C2.80424 34.8552 1.91562 33.2994 1.31581 33.1438C-0.35034 32.7215 -0.0615412 31.5212 0.205043 30.6099C1.09366 27.4981 2.00448 24.4975 3.87057 21.6524C5.29235 19.4742 6.82521 17.1403 7.58053 14.4953C12.1125 8.80522 17.7551 4.58209 24.3975 1.6259C25.7082 2.89284 27.2855 2.6928 28.6184 2.00376C30.6845 0.959095 32.9282 0.714596 35.0831 0.203376C38.9263 -0.730157 42.5474 1.6259 43.1473 5.71567C42.4808 4.62655 42.1031 3.98197 41.7255 3.35961C41.7255 3.29293 41.7033 3.20402 41.7033 3.13734C41.7255 3.20402 41.7255 3.29293 41.7477 3.35961C41.5477 3.5152 41.1923 3.62633 41.1479 3.80415C40.5925 6.27134 38.9263 7.60496 36.3494 8.09395C37.238 8.73854 37.8822 9.1164 38.371 9.62762C38.5931 9.84989 38.6598 10.4945 38.5042 10.7612C38.1932 11.2946 37.7934 10.8723 37.5046 10.5834C36.5937 9.71653 36.0161 10.5611 35.3275 10.939C33.3503 8.73854 32.6616 8.73854 30.329 11.0057C32.0396 11.1391 33.7057 12.4727 35.3497 10.8946C36.8159 12.5616 39.6594 11.8725 40.9701 13.9397C40.2815 14.5398 39.8372 14.0286 39.3707 13.9841C38.1932 13.8285 37.6823 14.073 38.3932 15.3177C38.6598 15.7845 39.3706 16.2735 38.7708 16.8292C38.3265 17.2515 37.6601 16.9181 37.1047 16.718C36.2383 16.4068 35.3497 16.1401 34.5055 15.8067C33.4614 15.3844 32.4617 14.9399 31.9952 16.518C31.9285 16.718 31.6619 17.0292 31.4842 17.0292C28.3963 17.0292 28.0408 19.9409 26.5746 21.6302C25.5083 22.8527 23.8421 23.5639 23.42 25.3643C23.3312 25.7866 22.5537 26.12 23.1535 26.609C23.7089 27.0536 24.3309 27.0758 24.9529 26.4757C25.6638 25.7866 25.886 24.6308 26.9745 24.4308C28.7739 27.7426 25.3528 29.5208 24.2864 32.5436C26.6413 31.4545 27.7965 29.8097 29.396 28.7428C30.3957 28.076 33.8835 29.3652 34.1945 30.521C34.4833 31.499 33.8168 31.499 33.217 31.3878C32.395 31.2545 31.5953 30.8988 30.7733 30.8322C29.507 30.721 28.2186 31.5212 28.6629 32.5881C29.196 33.8328 25.7749 36.0999 29.707 36.3C28.9295 37.4113 28.3741 38.7005 26.9301 39.0339C26.0192 39.234 26.0637 39.7674 26.3525 40.3231C27.2411 41.9012 25.9526 42.3013 25.0196 42.6791C24.3309 42.9459 23.3312 42.5013 23.42 43.9016C23.4645 44.5907 22.8647 44.1906 22.487 44.1461C20.9319 43.9461 19.91 42.2124 19.6434 41.5456C18.9103 39.6563 20.8875 40.2786 21.9538 40.1675C21.0652 37.6781 20.7986 37.6781 18.4438 40.1897C17.6441 39.9452 18.0217 38.9228 17.3775 38.5894C16.9776 38.3671 16.5555 38.3671 16.2001 38.6561C15.8002 38.9672 15.7336 39.6118 16.1112 39.7007C17.9995 40.0564 18.1328 42.0346 19.2214 43.1237C21.2207 45.1241 23.6644 45.3241 25.9748 46.1021C26.2858 46.2132 26.819 46.2799 26.9523 46.1243C29.4848 43.0348 33.6613 43.8349 36.6826 41.9456C37.0603 41.7012 37.4379 41.5011 37.3935 41.0343C37.3268 40.2119 36.2161 41.0566 36.105 40.2342C36.7048 38.945 38.6375 39.7896 39.2151 38.2782C39.304 38.0115 40.4148 38.4116 40.2148 39.1895C39.926 40.2342 39.6817 41.4344 38.993 42.1679C36.5715 44.7462 33.9945 47.1912 30.2846 47.7913H30.3068C29.5959 46.9467 28.9739 47.4579 28.3741 47.9469C27.9075 48.3248 27.8631 48.836 28.0853 49.3028C28.5296 50.2141 29.2405 49.525 29.8403 49.5695C30.6622 49.6584 31.462 49.9251 32.284 50.0807C32.9504 50.1919 33.9945 50.5697 34.2167 50.303C35.8162 48.3248 37.0825 50.0807 38.5042 50.4808C37.8822 51.2143 37.2158 51.5255 36.2605 51.3699C34.4611 51.0587 32.7949 52.9035 30.84 51.8367C30.7289 51.77 29.085 51.77 29.1516 53.148C29.2849 55.8153 27.641 54.5928 26.3525 54.4372C22.9313 54.0149 20.7764 50.4141 17.0665 50.8364C16.8665 50.8587 16.5333 50.6809 16.4 50.503C15.0893 48.7916 13.3565 47.8358 11.2016 47.658C11.6015 49.8807 13.2232 51.5477 14.4006 53.437C14.7561 54.0149 15.8446 54.7706 14.2229 55.1262C13.2454 55.3263 12.4679 55.7486 12.1791 56.7044C12.1125 56.9711 12.4901 57.5934 12.7789 57.6824C13.712 57.9491 14.3118 56.9489 15.2004 56.8155C15.5558 56.771 15.6225 55.2596 16.2667 56.1931C18.1328 58.8381 21.1319 59.0604 23.7755 60.0829C23.8866 60.1273 23.9532 60.3274 24.1754 60.6385C21.4651 61.5721 18.9103 60.4829 16.3556 60.4163C16.911 62.1277 20.3988 64.5505 21.9316 63.9726C23.1313 63.5058 23.9532 63.8392 24.5752 64.5505C25.0418 65.0839 24.6863 66.0619 24.3087 66.662C23.6866 67.6178 22.7092 67.3066 21.7983 67.1066C19.6879 66.6176 17.5774 66.1064 15.7558 64.8617C15.7558 64.7728 15.778 64.6616 15.778 64.5727C15.7558 64.6616 15.7336 64.7728 15.7113 64.8617C15.467 66.1286 16.5555 66.751 17.0443 67.6845C17.3108 68.1735 17.8218 68.6847 17.1998 69.2182C16.6666 69.6627 16.1334 69.4182 15.6225 69.0403C14.3784 68.129 13.0899 67.2622 11.8237 66.3731C11.8237 66.1508 11.8237 65.9286 11.8237 65.7063C11.757 65.7063 11.6681 65.7063 11.6015 65.7063C11.6681 65.9286 11.7348 66.1508 11.8014 66.3509C9.53548 67.5067 8.6913 65.2395 7.46945 64.306C6.20318 63.3502 5.49229 61.661 4.53703 60.3051C4.13715 59.7272 4.02608 59.2605 4.44817 58.5048C5.11463 57.2823 3.69285 55.3707 2.13778 55.1929L2.18221 55.2818ZM13.2677 43.8127C12.7123 44.035 12.3346 42.8792 11.8014 43.546C11.4682 43.9683 11.8459 44.4795 12.1347 44.8796C12.4235 45.2575 12.7567 45.8131 13.2899 45.3686C13.823 44.9241 13.5787 44.3239 13.2677 43.8127C13.2677 43.7238 13.2454 43.6571 13.2454 43.5682C13.2454 43.6349 13.2454 43.7238 13.2677 43.8127ZM24.5086 19.7631C23.931 19.1185 23.3756 19.363 22.8424 19.8965C21.1763 21.6302 19.4435 23.3417 17.844 25.1643C16.6888 26.4757 16.4889 28.1871 16.4444 29.8542C16.4222 30.2098 16.6222 30.8099 16.8887 30.9211C17.4441 31.1656 17.7551 30.6766 17.9773 30.1876C19.599 26.7646 21.3985 23.4306 24.5086 21.0967C25.1528 20.63 24.7752 20.2299 24.5086 19.7631Z" transform="translate(66.8457 63.5558)" fill="#FFCD30"/>
<path d="M21.7523 27.317C20.7748 26.0056 21.1969 24.8942 22.4188 24.1607C25.0846 22.5826 25.7511 20.2932 25.1068 17.4704C24.6847 15.6478 25.3512 14.2697 26.462 12.9139C27.6172 11.4914 28.4391 9.97992 26.6841 8.29067C26.0621 7.69054 26.2176 6.73478 26.4397 5.89015C26.573 5.42338 27.0173 4.75658 26.573 4.46762C24.7958 3.35628 25.9066 1.68925 26.0177 0C26.9951 1.4003 28.1725 2.68946 28.8834 4.2009C29.9275 6.40137 32.86 7.49049 32.5045 10.4689C33.4598 10.1355 33.6375 12.5582 35.237 10.9579C36.8587 9.31311 37.1475 9.60206 36.881 7.80167C38.3249 8.51293 38.6137 9.04638 40.191 13.9585C39.2358 14.6254 38.9248 12.0248 38.1028 13.4029C37.192 14.9365 37.9695 16.7147 38.947 17.9149C39.4579 18.5595 39.9689 18.4929 39.1025 19.1819C38.6137 19.5597 38.5471 20.0487 39.1247 20.6489C39.9022 21.4713 39.7911 22.6493 39.3024 23.4717C38.0139 25.5833 38.636 26.7613 40.6576 27.9393C41.5017 28.4283 41.3907 30.3843 43.2345 29.673C43.4789 29.5841 43.5011 30.2065 43.3456 30.5176C43.1012 31.0066 42.6569 31.2067 42.146 31.3623C41.4351 31.5623 40.0133 31.0066 40.2799 32.2958C40.5909 33.8295 41.9016 32.6737 42.8569 32.6737C42.3015 33.3849 41.7905 34.0517 41.2574 34.6963C40.7908 35.2742 40.3021 35.8743 39.7245 36.5856C40.2799 36.4967 40.702 36.4078 42.0127 36.1855C38.5471 38.8083 38.3694 42.4535 36.7699 45.4097C35.2148 48.2992 33.6597 51.1665 31.9714 53.9893C31.216 55.2563 30.1497 55.9009 29.1278 56.7233C28.3058 57.3901 27.1284 57.7901 27.2617 59.1682C24.0405 61.3465 21.1303 64.0359 17.2204 65.0584C17.0871 64.9695 16.9094 64.7472 16.8205 64.7694C12.6662 65.9252 8.2454 65.2584 4.13556 66.7254C3.44689 66.9699 2.64714 66.8143 1.89182 66.9477C-0.218639 67.2588 -0.0187002 65.8141 0.0257304 64.5249C0.0701611 62.4356 1.75852 63.4358 2.4472 63.5914C3.29138 63.7692 3.69126 63.6359 4.44658 63.2358C6.46817 62.2133 8.46755 61.3465 10.9557 62.5023C12.3108 63.1468 13.9992 61.8577 15.3765 61.2798C17.7758 60.2573 19.7307 58.5681 21.5302 56.4788C22.7298 55.1007 24.3737 53.1892 26.8174 53.2336C27.4617 53.2559 27.7949 52.6779 28.0392 52.1C28.839 50.2997 29.8609 48.6104 31.5493 46.5211C27.7282 48.8327 24.8847 51.3888 21.2636 53.1669C21.5968 51.7444 22.6409 51.3221 23.4407 50.8776C26.884 48.966 28.839 45.7876 31.0827 42.7647C32.1935 41.2755 31.216 39.9863 31.8381 38.7194C33.6153 35.052 34.1262 31.0955 34.415 27.0947C34.4373 26.6501 34.5261 26.2278 34.0818 25.9833C33.6375 25.7388 33.0599 25.9389 32.9933 26.2723C32.549 28.1838 29.9276 28.695 30.0386 30.9622C30.0608 31.2289 29.4832 31.8068 29.2167 31.7624C26.8174 31.5179 26.462 33.5405 25.64 34.963C23.9516 37.8526 19.1309 42.009 15.8875 43.1648C16.976 40.2308 20.1972 39.5418 21.8412 37.208C22.3521 36.4745 22.9519 35.8521 23.3962 35.0297C24.2404 33.4516 24.3515 31.1622 26.9063 30.9844C27.395 30.94 27.9948 30.3398 27.8615 29.6508C27.6616 28.5617 26.884 29.5397 26.5508 29.3618C25.7955 28.984 27.395 28.4061 26.4175 27.8504C24.4404 29.1396 23.7517 32.2513 20.375 32.5403C22.0411 30.1398 23.3518 27.8949 25.2623 26.0723C25.7733 25.5833 26.3065 25.1832 25.8399 24.4052C26.4175 23.9607 27.2173 23.7162 27.2617 22.7827C26.4175 22.9827 25.2401 22.8716 25.8621 24.4052C24.4848 25.361 23.0852 26.339 21.7079 27.2947L21.7523 27.317Z" transform="translate(101.259 85.7639)" fill="#FFCD30"/>
<path d="M25.2303 26.3176C27.6518 26.2287 29.1624 28.1402 31.0952 29.096C31.8283 29.4516 31.2951 30.4518 31.0952 31.1853C30.7841 32.43 30.2065 31.3632 29.7844 31.3187C28.3627 31.2076 27.1186 31.9633 25.608 31.8744C21.1205 31.6077 18.2547 28.7404 15.3001 25.962C12.7675 23.5837 10.235 21.1832 7.90235 18.6049C4.57006 14.9152 0.793454 11.47 0.0381329 6.09108C-0.18402 4.49073 0.593517 3.44607 1.61542 2.57922C2.43739 1.86795 2.4596 -0.243611 4.41455 0.801058C4.54784 0.867738 4.79221 0.912187 4.90329 0.823279C7.61356 -1.08824 10.1461 0.867736 12.7009 1.31228C15.8332 1.84572 17.5882 4.64632 19.7209 6.55784C23.1199 9.60293 25.9856 13.2926 29.4734 16.3155C30.9174 17.5602 29.8511 19.2494 30.6064 20.5608C29.4956 21.1832 28.3849 21.4721 27.052 21.2943C25.6746 21.1387 24.275 20.2052 23.0532 22.4946C22.2757 23.9616 22.2979 23.7838 23.5419 24.2061C24.475 24.5395 24.7194 25.5841 25.2747 26.2954C24.8304 26.6955 24.0085 27.0067 24.6749 27.8291C24.9637 28.1847 25.5413 28.1847 25.7635 27.8957C26.3411 27.2067 25.4525 26.8511 25.2303 26.3176ZM28.4515 18.7827C27.5851 18.5382 26.8298 18.4937 26.23 18.1381C25.3192 17.6047 24.0973 17.4935 23.6974 16.1599C22.8533 13.3371 19.4543 11.2922 16.0332 11.6256C19.2099 14.2484 22.1868 16.7823 25.2303 19.2495C26.2522 20.0496 27.3408 20.2052 28.4515 18.7827Z" transform="translate(124.483 149.532)" fill="#FFCD30"/>
<path d="M32.5221 19.4746C32.6109 19.8747 32.5665 20.3859 32.7886 20.6971C34.2104 22.5642 32.9219 23.0309 31.4557 23.72C30.345 24.2312 28.0346 22.4308 28.1679 25.3648C27.5014 25.2758 26.7683 25.3425 26.2129 25.0536C19.726 21.475 12.7282 18.9412 6.37463 15.0959C3.95316 13.6511 2.24258 11.5396 0.443143 9.51692C0.398713 9.45024 0.332067 9.38356 0.309851 9.31688C-0.645407 7.62763 0.776373 0.937306 2.28701 1.07067C4.48633 1.27071 6.01919 -0.351859 8.37401 0.0704537C12.5283 0.848398 15.6384 3.11555 18.8596 5.3827C20.6591 6.64964 23.1028 6.38292 24.7023 8.0944C25.1244 8.56116 25.7908 8.80566 26.0352 9.49469C25.0577 10.3838 24.1247 8.56116 23.0806 9.78364C25.9019 11.7396 29.012 13.2066 32.0111 14.8292C33.1885 15.4738 34.4326 16.0294 35.5211 16.8074C36.1876 17.2741 36.7652 18.0965 36.3875 19.0078C35.9654 19.9858 35.0768 19.5857 34.4104 19.3635C33.6995 19.1412 33.1219 19.0745 32.5221 19.5635C32.0778 18.83 31.5002 18.8523 30.8781 19.2746C30.8337 19.319 30.9226 19.7636 31.0559 19.8747C31.6334 20.297 32.0778 19.8525 32.5221 19.4746Z" transform="translate(20 71.4015)" fill="#FFCD30"/>
<path d="M28.383 19.2704C31.0933 21.4486 29.0939 24.2492 27.7832 26.8275C26.5391 29.2725 24.0288 29.2503 21.4962 29.4281C16.0313 29.8504 13.4543 25.8273 10.0776 22.8489C7.18957 20.2928 5.07911 17.0477 2.14669 14.5805C1.03592 13.6469 0.34725 12.5356 0.169527 10.9575C-0.141487 8.06797 -0.0970565 5.26737 0.924848 2.51122C1.61352 0.666381 4.72367 -0.64501 6.47868 0.332977C7.78938 1.06647 9.25559 0.421884 10.6774 1.37764C13.8542 3.53366 16.0979 6.5343 18.6971 9.20154C21.0741 11.6465 22.6736 14.8472 26.0059 16.4031C26.8057 16.7809 27.2722 17.9145 28.383 19.2704ZM13.3432 15.4473C13.01 14.9806 12.7434 14.9139 12.3657 14.9139C11.0328 14.8694 9.23338 15.1139 10.7884 12.8245C10.8551 12.7356 10.744 12.4467 10.7218 12.4467C9.23338 12.4467 8.23369 10.9797 6.85634 11.0019C5.67893 11.0242 4.96804 12.0688 5.70114 13.1579C7.54501 15.9585 9.4111 18.7814 11.5882 21.3152C12.388 22.2488 13.5654 22.5822 13.9652 24.1603C14.2985 25.4495 15.9646 25.894 17.5197 25.5606C18.4972 25.3606 19.3191 24.7604 19.0303 23.9603C18.586 22.6489 18.8304 20.7151 16.7644 20.3595C15.9868 20.2261 15.587 19.7816 15.1649 19.0481C14.4762 17.8034 12.6768 17.2033 13.3432 15.4473Z" transform="translate(41.0674 45.7335)" fill="#FFCD30"/>
<path d="M18.876 3.81803C20.0979 5.84069 19.8979 8.44124 18.0318 10.5084C16.8322 11.842 16.188 13.2645 16.0991 15.3538C18.1429 13.9535 18.7872 11.4863 21.1198 9.93045C20.4089 12.2198 19.4092 14.0202 20.4755 15.9762C21.7418 15.3094 23.1636 14.7759 24.341 13.9091C25.3185 13.1756 26.1849 13.0422 27.0291 13.709C28.0287 14.487 27.6289 15.6872 27.0957 16.443C23.6523 21.4218 20.1201 26.3784 16.5434 31.2684C15.5882 32.5575 13.3222 32.8687 12.7446 32.313C11.2117 30.8683 10.5453 32.2019 9.54559 32.6687C8.72362 33.0465 7.87945 33.4466 7.03526 33.8022C6.54653 34.0023 5.96893 34.8024 5.56905 33.5577C5.36911 32.9354 4.30278 32.7353 4.94702 31.6684C6.12444 29.668 6.9464 27.4231 8.59033 25.6894C9.23458 25.0226 9.78996 24.3113 9.03464 23.5334C8.14603 22.6221 7.27963 23.5778 6.99083 24.1779C6.19108 25.8672 3.39195 26.6007 4.6138 29.3568C4.85816 29.8903 3.9029 31.3128 3.1698 31.7573C2.54777 32.1352 1.34814 31.8463 0.637254 31.1794C-0.229143 30.3793 -0.0514246 29.3346 0.237375 28.3566C0.437312 27.6231 0.770542 26.9341 1.45922 26.5118H1.41479C3.14759 25.9783 1.74802 24.8003 1.52587 24.4891C0.859407 23.5778 0.881619 22.911 1.45922 22.0442C3.92512 18.31 6.56874 14.6648 8.14603 10.4194C8.3904 9.73041 9.36787 9.33032 10.0121 8.79688H9.96769C10.0788 9.08583 10.1676 9.66373 10.5009 9.41923C13.4333 7.17431 16.188 4.72934 18.0541 1.46197C18.4539 0.75071 18.6983 -0.382866 19.6758 0.128354C20.3867 0.506213 20.0312 1.66202 19.8535 2.43996C19.7424 2.97341 19.4536 3.55131 18.8538 3.81803L18.7205 3.77358L18.876 3.81803ZM11.1895 23.7779L11.3228 23.6L11.1229 23.6445L11.1895 23.7779Z" transform="translate(121.13 33.0909)" fill="#FFCD30"/>
<path d="M12.044 32.9346C10.3334 34.5794 8.73393 36.5798 6.69012 37.8912C5.89037 38.4024 3.97985 38.4024 2.758 37.2244C0.558688 35.0906 -0.374353 32.4678 0.1366 29.5561C1.18072 23.6215 2.44699 17.7091 3.71327 11.7967C3.91321 10.9077 3.49111 10.1964 3.55776 9.35178C3.71326 6.61786 5.57935 4.72856 6.77898 2.55032C7.42322 1.37229 14.4433 -0.405868 15.6429 0.0831259C17.509 0.838843 16.8425 2.88373 17.5312 4.2618C17.7533 4.72856 16.9314 5.68432 18.3309 5.19533C19.5084 4.77302 19.0418 5.72878 19.1973 6.12886C20.5525 9.48514 19.6861 12.7747 18.6197 15.931C17.309 19.8207 16.9758 23.9327 15.6651 27.8224C14.9764 29.8895 14.7099 32.1344 12.044 32.9346ZM16.9536 13.5527C15.5318 14.6863 15.6207 16.3088 15.243 18.3537C17.2202 16.82 17.0425 15.1752 16.9314 13.5527C17.198 13.286 17.5756 13.0637 17.2202 12.6191C17.1757 12.5747 17.0425 12.5525 16.998 12.5747C16.5093 12.8636 16.7759 13.2193 16.9536 13.5527ZM15.243 2.19469C14.0656 1.88351 12.7549 1.12779 11.8219 1.43897C11.0443 1.7057 9.44482 2.72814 10.4889 4.37293C11.1776 5.46206 10.2224 5.81769 9.62254 6.35113C9.15602 6.77345 8.20076 6.88458 8.37848 7.72921C8.57842 8.68497 9.24488 8.39602 9.93356 8.15152C10.5112 7.95148 10.4445 8.48492 10.5112 8.90724C10.8444 10.7521 10.4445 12.508 9.82248 14.2195C9.48925 15.1086 8.00082 15.9087 9.91134 16.7534C10.4445 16.9979 10.0668 17.6869 10.0002 18.1092C9.80026 19.7762 9.66697 21.4433 9.22266 23.0658C9.04494 23.7104 8.37849 25.0663 9.8447 25.2885C10.9332 25.4441 11.6664 24.8884 11.9107 23.5993C12.9326 18.0203 14.0878 12.4413 15.3319 6.90681C15.5985 5.61764 15.6873 3.83949 15.243 2.19469Z" transform="translate(99.7041 20)" fill="#FFCD30"/>
<path d="M2.80777 13.2573C-2.39061 10.1455 0.986116 6.25575 2.23017 2.49939C2.63005 1.29913 3.69638 1.52141 4.56278 1.45473C8.78369 1.09909 13.0046 0.743459 17.2255 0.498962C18.003 0.454508 18.6917 0.210016 19.4248 0.121108C19.9136 0.0544269 20.6911 -0.323436 20.7133 0.721232C20.7577 2.45494 21.6241 1.41027 22.3573 1.29914C25.8228 0.765688 29.244 -0.479025 32.7985 0.943502C34.198 1.49918 36.1085 4.8999 35.6198 6.27798C34.5535 9.18971 34.0203 12.6571 29.6661 12.3904C23.8235 16.3246 16.8701 15.5022 10.4276 16.8136C7.18419 17.4137 4.42949 16.8803 2.80777 13.2573ZM15.8704 4.58873C13.3823 3.78856 10.8719 3.83301 8.31717 3.87747C6.22893 3.92192 4.71829 4.41091 4.07405 6.4558C3.89632 6.98924 2.6967 7.27819 3.58531 8.07836C4.11848 8.56736 4.78494 8.63404 5.4514 8.25618C6.89539 7.45601 8.09502 7.83387 9.20578 9.52312C9.49458 7.6116 10.4943 7.34487 11.8938 7.30042C13.7155 7.25597 15.626 6.92256 15.8704 4.58873ZM24.8009 8.72295C24.7787 7.10038 24.3122 6.52248 23.6013 6.52248C22.4461 6.50025 21.9129 5.61117 22.0018 4.94436C22.4461 1.87704 19.8691 4.87768 19.336 3.54406C19.0694 2.89948 18.4696 3.67742 18.3363 4.07751C18.0475 4.96659 17.0034 5.12218 16.4924 5.92235C17.6032 6.41134 18.5584 6.50025 19.5803 6.34466C20.0469 6.27798 20.9577 6.32244 20.9577 6.36689C21.1798 9.14526 23.6235 7.07815 24.8009 8.72295Z" transform="translate(20.457 107.47)" fill="#FFCD30"/>
<path d="M12.5117 3.22959C13.267 3.87417 13.3559 5.14111 13.5781 6.38582C14.6 12.1648 16.5105 17.7216 18.11 23.345C18.6876 25.3899 18.421 27.5459 19.6206 29.5463C20.487 31.0133 15.6885 35.881 13.9113 35.5921C13.4226 35.5032 12.8672 35.4142 12.5117 35.1031C10.9567 33.7472 9.69038 31.9691 7.2467 32.1913C7.02455 32.2136 6.62467 31.8135 6.53581 31.5245C5.42504 28.1016 2.22604 25.7233 1.78173 21.878C1.55958 20.0332 0.559889 18.2995 0.382167 16.3657C0.248875 14.9654 -0.773034 13.7207 1.20413 12.5205C1.95945 12.0537 1.40407 9.98658 1.00419 8.69742C0.137795 5.91905 1.84838 3.76303 2.89249 1.54033C3.75889 -0.282285 6.93568 -0.415647 8.8462 0.762383C9.46823 1.14024 10.3568 1.05134 10.9789 1.40697C11.512 1.74038 11.8453 2.40719 12.5117 3.22959ZM4.62529 3.47408C3.07021 3.34072 3.67003 4.42985 3.55895 5.27447C3.15908 8.25289 5.89156 10.1866 5.98042 12.9872C5.98042 13.2762 6.51359 13.943 6.84682 13.5874C7.86872 12.4093 8.60183 13.5207 9.49045 13.7207C11.3121 14.143 12.5339 14.0319 12.6006 11.5202C12.645 9.69764 11.1788 8.58629 11.2455 6.7859C11.3121 5.31892 11.6231 2.85172 8.5574 3.87416C8.37968 3.94084 8.02423 3.54076 7.77986 3.34072C6.6691 2.34051 5.60276 1.58478 4.62529 3.47408Z" transform="translate(102.058 161.396)" fill="#FFCD30"/>
<path d="M6.7142 29.6069C6.80306 31.674 5.559 32.652 4.22608 33.7633C2.95981 34.808 2.16006 34.1412 1.42695 33.4077C0.649419 32.6075 0.893789 31.5406 1.51582 30.696C3.04868 28.6956 3.31526 25.406 1.42695 24.2724C-0.461347 23.1388 0.0051763 22.1609 0.182899 20.4938C0.671636 15.9595 1.67132 11.5808 2.82652 7.20208C3.40412 5.00161 3.91507 2.66779 6.93635 2.60111C7.62503 2.57888 7.53617 1.88984 7.82497 1.51198C8.84687 0.222817 9.95764 -0.732949 11.5794 0.756259C11.8682 1.02298 12.2902 1.24526 12.6679 1.26749C15.1116 1.42308 15.8225 2.24547 15.356 4.53485C14.6895 7.75776 14.6229 11.0474 14.3118 14.2703C13.7787 19.7381 13.1122 25.2059 12.6235 30.696C12.468 32.2963 10.3797 32.5853 9.93542 34.2301C9.77991 34.8302 9.04681 33.9634 8.62472 33.6077C7.49174 32.5853 7.42509 31.0294 6.7142 29.6069Z" transform="translate(74.3545 152.733)" fill="#FFCD30"/>
<path d="M14.346 15.7292C10.5916 16.9295 6.68171 17.0184 2.79403 17.1518C2.172 17.174 1.32782 16.485 1.68326 16.1515C3.81593 14.1289 1.54997 12.9286 0.683575 12.0618C-0.693775 10.7282 0.30592 10.3281 1.10567 9.88354C2.99397 8.8611 4.94892 7.97202 6.88165 7.03849C6.9483 6.99403 7.08159 6.99403 7.10381 6.92735C9.23648 2.17078 13.7018 4.52683 17.0341 3.94893C21.7215 3.12653 26.2756 2.01519 30.7187 0.325935C31.8961 -0.118605 32.6292 -0.340873 33.4512 1.23724C33.9843 2.28191 35.8504 2.70422 37.2056 3.23767C38.0053 3.57108 38.4718 4.03784 38.6496 4.81579C40.0491 10.5948 37.3611 14.8846 31.7184 17.2407C27.5863 18.9744 23.4098 20.1746 19.0112 20.6636C16.5453 20.9303 14.0128 20.9748 11.5469 20.4636C11.0803 20.3747 10.3917 20.4414 10.3695 19.7745C10.3472 19.1966 10.9915 18.7966 11.4136 18.9077C12.9242 19.2633 13.835 17.8186 15.2124 17.7963C17.1673 17.7519 16.4565 16.7961 15.7678 15.907C15.79 15.7737 15.79 15.6625 15.8122 15.5292C20.3664 15.4625 24.6983 14.1733 29.2525 13.551C29.408 14.2623 28.3861 15.8848 30.5854 15.6848C32.0738 15.5514 33.2512 15.3736 32.607 13.4176C32.3404 12.6397 32.6292 11.9729 33.1846 11.3505C33.4734 11.0171 34.0732 10.3725 33.5622 10.0836C31.4074 8.90555 33.3623 8.72773 33.9177 8.06092C34.5175 7.34966 35.6505 7.06071 35.9171 5.74932C34.0066 6.28276 32.3626 6.86066 30.6965 7.17184C29.7857 7.34966 28.3194 7.50525 28.1195 6.30499C27.9418 5.17142 29.3413 5.2381 30.1855 5.01583C30.4299 4.94915 30.6965 4.94915 30.9186 4.86024C31.5407 4.59351 32.2071 4.30456 31.8072 3.39326C31.4074 2.5264 30.8298 2.99317 30.341 3.23767C24.3651 6.3939 17.7894 6.68285 11.2581 7.14962C10.9248 7.17185 10.5472 7.10517 10.4361 7.48303C10.3695 7.66084 10.5916 8.10538 10.6583 8.10538C12.4577 7.94979 13.2352 9.35009 14.4349 10.3058C16.0788 11.6172 16.8563 9.88354 17.7005 8.81664C18.0115 8.41656 18.2337 7.37189 18.9001 8.08315C19.8554 9.10559 18.3003 9.99467 18.3892 11.0838C18.4336 11.6395 18.167 12.3063 17.1673 12.284C13.9683 12.1507 13.9683 12.1951 14.4126 15.3736C14.3904 15.507 14.3682 15.6181 14.346 15.7292Z" transform="translate(151.985 94.3509)" fill="#FFCD30"/>
<path d="M7.46435 28.5041C5.39833 29.4376 3.82104 30.3489 2.64363 32.1271C1.82166 30.6823 0.155507 29.8599 0 28.0596C0.933043 27.3038 1.53287 29.5932 2.35483 28.1262C3.04351 26.9037 2.19932 26.2592 1.35514 25.659C0.066654 24.7477 0.155507 24.0587 0.999689 22.5917C4.88737 15.9014 12.0407 13.2564 17.639 8.72208C19.8161 6.96615 21.9265 5.25467 23.1706 2.67634C23.7038 1.58721 25.0145 0.431413 25.9031 0.764818C28.5245 1.76503 31.1459 -1.56902 33.6562 0.987088C35.5001 2.85415 35.7 5.67698 37.655 7.56627C38.0326 7.9219 37.0774 10.4113 36.1665 11.2782C33.9894 13.3231 33.1675 16.3015 30.8349 18.213C29.9685 18.9243 29.3909 20.0801 28.3245 20.6135C25.6809 21.9249 24.4591 24.681 22.1042 26.3703C18.4165 29.0153 13.9734 30.2822 10.419 33.1495C9.50816 33.883 7.86422 33.8163 6.55352 33.8386C5.26503 33.8608 4.9096 31.8159 5.95372 30.4156C6.37581 29.9044 7.17556 29.771 7.46435 28.5041ZM11.8186 21.3692C10.1524 22.5473 8.57512 23.6142 7.04226 24.7255C6.53131 25.1034 5.75378 25.3701 6.02036 26.2592C6.17587 26.7259 6.46466 27.2372 6.99783 27.3261C7.79758 27.4372 8.13081 26.8371 8.46404 26.2147C8.81949 25.5701 9.33043 24.9922 9.77474 24.3921C10.1746 23.8587 10.5301 23.1029 11.352 23.6808C11.9963 24.1254 12.3739 24.7922 12.0185 25.659C11.6853 26.5259 11.352 27.3927 11.0632 28.2596C10.9077 28.7264 10.5078 29.1931 10.8855 29.6821C11.352 30.3045 11.7741 29.571 12.2184 29.5488C14.6399 29.4154 15.995 26.926 18.0833 26.5259C21.8154 25.8146 23.8593 22.7918 26.1697 20.6135C29.502 17.5017 31.879 13.2786 34.1672 8.76653C31.4791 9.96679 28.9244 10.3446 26.5251 11.5671C27.5026 9.27775 28.8355 7.32178 30.5016 5.65475C31.3903 4.7879 31.0126 3.83214 31.1903 2.92083C31.257 2.58743 30.9015 2.18734 30.5683 2.34293C29.1021 3.00974 27.1693 2.25402 26.0364 4.00996C23.0373 8.72208 18.6164 11.9005 14.0623 14.9012C13.2626 15.4124 12.5517 16.0125 12.9738 17.2572C13.7735 16.8127 14.5288 16.3682 15.2619 15.9458C14.9065 19.4577 11.5075 19.88 9.57481 21.8138C10.4412 22.1916 10.7744 20.858 11.8186 21.3692Z" transform="translate(139.406 53.4145)" fill="#FFCD30"/>
<path d="M8.51717 9.5359C7.38419 6.95757 7.73963 4.15697 6.9621 1.53419C6.82881 1.06742 6.34007 0.289479 7.18425 0.0449824C7.8285 -0.132833 8.36166 0.222798 8.71711 1.00074C10.1167 4.02361 12.005 6.80198 13.6489 9.66927C15.004 12.0253 16.959 14.8037 15.7594 18.0488C15.4483 18.8935 16.0037 19.5158 16.3147 20.1604C17.5144 22.5609 15.5594 25.606 17.8254 27.8065C18.0698 28.051 17.781 28.54 17.4033 28.4955C15.7371 28.3177 14.7819 30.9849 12.7825 29.518C11.1608 28.3399 9.40578 29.2957 9.33913 31.2961C9.2947 33.1187 7.89514 32.0518 7.29533 32.163C6.11792 32.363 5.05158 31.6073 5.38481 30.207C6.27342 26.4951 5.18487 23.6945 2.3191 21.1606C0.25307 19.338 0.608514 16.4263 0.2975 13.9146C0.186423 13.0033 0.341932 12.0698 0.16421 11.1807C-0.146805 9.62481 -0.235668 8.44678 1.96365 9.02468C2.40795 9.13582 2.80783 9.29141 3.16328 8.6246C4.71835 5.75732 4.76278 5.77954 6.80659 8.40233C7.16203 8.84687 7.53969 9.29141 7.89514 9.73595C8.11729 9.66927 8.31723 9.60258 8.51717 9.5359Z" transform="translate(70.9297 29.4624)" fill="#FFCD30"/>
<path d="M11.3905 1.11256C14.6783 1.5571 17.2997 3.5353 19.8767 5.29123C22.0538 6.80267 24.5419 7.44725 26.7635 8.69196C27.8298 9.29209 29.0739 9.46991 29.8958 10.6257C30.9622 12.1149 32.3617 9.80331 33.9168 10.9591C32.2729 13.1151 33.6724 15.8713 32.695 18.3607C32.3617 19.2053 33.2059 19.8944 33.7169 20.5612V20.5167C31.6064 21.8503 29.918 19.9166 27.9853 19.7388C27.2744 19.6721 26.6302 19.0497 25.5638 19.2276C26.2747 19.9166 27.9631 19.961 26.719 21.6281C25.8526 22.8061 27.4299 22.9172 28.2297 23.2062C28.8073 23.4062 29.8736 23.095 29.7625 24.0508C29.6292 25.051 28.6518 24.6509 27.9409 24.6954C26.2303 24.7843 24.4086 24.0063 22.8758 25.7623C22.587 26.0735 20.632 25.0955 19.5435 24.5176C14.9671 22.0504 10.3241 19.7165 6.01435 16.827C3.81503 15.3378 2.39326 13.3374 1.59351 10.7146C0.949266 8.62527 -0.494735 6.80267 0.171724 4.33547C0.549385 2.9574 0.927048 1.62378 2.32661 1.20146C4.59258 0.512428 6.90297 -0.132152 9.32444 0.0234373C7.92487 0.95697 7.16956 3.51307 4.85916 2.11277C3.79283 1.46819 2.882 1.29037 2.21554 2.11277C1.39357 3.13521 2.14888 4.1132 2.90421 4.95783C3.99276 6.18031 5.57005 6.64708 6.85854 7.55839C7.76937 8.20297 8.5469 8.73641 6.81411 9.31431C6.14765 9.53658 5.39232 10.1367 6.01435 10.7813C7.03625 11.8482 6.7919 14.0709 8.52469 14.2042C10.1908 14.3376 11.4349 14.6266 11.9903 16.2714C12.1902 16.8715 12.4124 17.5161 13.1233 17.3827C15.8557 16.8715 16.6999 20.6945 19.699 20.1611C20.3655 20.0499 21.9205 20.3611 23.0757 20.4056C23.3645 20.4278 23.831 19.961 23.9199 19.6276C24.0976 19.0497 23.6311 18.6719 23.1201 18.583C21.965 18.3829 21.0986 17.8495 20.5432 16.8048C20.5432 16.7381 20.5432 16.6714 20.5432 16.5825C20.5654 16.6492 20.5654 16.7159 20.5876 16.8048C17.433 17.9606 18.0551 14.96 17.1442 13.6708V13.6486C18.0773 13.4263 18.7437 14.0264 19.4991 14.3821C20.1655 14.6932 21.1652 15.2711 21.4984 14.5154C21.9427 13.5374 20.9875 12.8706 20.0544 12.5817C18.9659 12.2483 17.7663 12.1149 17.1664 10.7368C17.9218 10.6035 18.5438 10.5146 19.188 10.4034H19.1658C21.0319 11.5592 22.8091 12.9818 25.2528 12.5817C25.5861 11.4037 24.6086 10.6035 23.9865 10.3812C21.5206 9.49213 20.632 5.78022 17.2331 6.6693C16.8999 6.75821 16.8332 6.42481 16.8332 6.18031C16.6999 4.26879 15.056 3.82425 13.7675 3.24635C12.6567 2.75736 11.9903 2.02386 11.3905 1.11256Z" transform="translate(143.944 126.438)" fill="#FFCD30"/>
<path d="M7.44213 15.9789C6.88675 16.3345 6.33137 16.7123 5.77598 17.0902C4.84294 16.3567 5.68712 13.7117 3.11014 14.6675C2.77691 14.7786 2.26596 13.9562 2.62141 13.2672C2.77692 12.956 3.55445 12.5559 3.06571 12.3559C0.488738 11.3556 2.44369 9.95533 2.77691 8.73285C1.75501 8.26608 0.933043 9.99979 0 8.82176C0.488737 8.44391 0.977474 8.06604 1.46621 7.66596C3.95433 6.73243 5.93149 4.9765 7.73093 3.19834C10.6189 0.375514 14.24 0.64224 17.6834 0.019885C17.8389 -0.00234199 18.1277 -0.0245798 18.1721 0.0643281C19.2163 2.15366 20.638 0.686694 21.9265 0.464425C22.3042 2.22036 20.8158 2.66489 19.8605 3.48729C19.2162 4.04296 18.4609 4.732 18.9497 5.59885C19.5717 6.7102 20.3048 5.26545 21.1268 5.42104C20.5492 6.02117 20.1049 6.73243 20.6602 7.35479C21.3045 8.08828 21.6821 7.0436 22.1931 6.84356C23.1484 6.44347 24.0592 5.95449 25.0811 5.4655C24.7256 6.91025 24.2147 8.04382 22.9706 8.75509C22.2153 9.1774 21.6155 9.75529 21.771 10.7777C20.1271 11.9558 18.4831 13.1116 16.8392 14.2896C15.884 14.1118 14.5955 14.4007 14.1734 13.3783C13.5069 11.8224 12.6405 12.3114 11.6408 12.7559C10.4412 13.2894 9.24157 13.8006 8.06416 14.3785C7.28663 14.7119 6.97561 15.2231 7.44213 15.9789ZM15.9284 10.3999C17.5279 10.8666 18.7275 10.7777 19.6383 9.5108C20.016 8.97735 19.6383 8.73286 19.2607 8.57727C17.6167 7.86601 16.8836 9.04403 15.9284 10.3999ZM15.6396 11.2445C15.4841 11.2667 15.3508 11.3112 15.1953 11.3334C15.2175 11.489 15.2619 11.6224 15.2841 11.778C15.4396 11.7557 15.6396 11.7557 15.7062 11.6668C15.7729 11.6001 15.684 11.4001 15.6396 11.2445Z" transform="translate(36.1934 144.201)" fill="#FFCD30"/>
<path d="M18.6843 16.7914C19.2397 17.8361 20.1061 18.3918 21.2613 18.5696C21.7723 18.6585 22.261 19.0364 22.0611 19.6143C21.95 19.9477 21.4835 20.4144 21.2169 20.3922C20.0617 20.3255 18.5066 20.0366 17.8402 20.1477C14.8411 20.6812 13.9969 16.8581 11.2644 17.3693C10.5535 17.5027 10.3536 16.8581 10.1314 16.258C9.55384 14.6132 8.30979 14.3243 6.66585 14.1909C4.91084 14.0575 5.15521 11.8348 4.15552 10.7679C3.55571 10.1234 4.28881 9.54545 4.95527 9.30095C6.66585 8.72305 5.88832 8.18961 4.9997 7.54503C3.71122 6.63372 2.15615 6.16695 1.04538 4.94447C0.29006 4.09984 -0.465269 3.12185 0.356697 2.09941C1.02316 1.25479 1.93399 1.45483 3.00033 2.09941C5.31072 3.49971 6.06603 0.965837 7.4656 0.0100771C8.37643 -0.0788308 8.99846 0.432387 9.50941 1.07697C10.1092 1.98828 10.7757 2.72177 11.8642 3.21076C13.1527 3.78866 14.7967 4.2332 14.93 6.14473C14.9522 6.38922 15.0188 6.72262 15.3298 6.63371C18.7288 5.72241 19.6174 9.43432 22.0833 10.3456C22.7053 10.5679 23.6828 11.3681 23.3496 12.5461C20.9059 12.9462 19.1286 11.5459 17.2626 10.3678C17.4847 10.1456 17.7957 9.92332 17.5958 9.54546C17.5514 9.47878 17.2626 9.43431 17.2181 9.47877C16.9071 9.76772 17.1293 10.0789 17.2848 10.3456C16.6627 10.4568 16.0407 10.5457 15.2632 10.679C15.863 12.0571 17.0404 12.1905 18.1512 12.5239C19.0842 12.8128 20.0395 13.4796 19.5952 14.4576C19.2619 15.2356 18.2623 14.6354 17.5958 14.3243C16.8405 13.9909 16.174 13.3685 15.241 13.5908C14.5523 12.7017 13.8636 11.8126 12.5529 12.4127C12.153 11.8793 11.8642 11.1236 11.3311 10.9013C10.4425 10.5012 9.39834 10.4345 8.42087 10.2123C8.39865 11.3681 9.37612 11.7682 10.0204 12.435C10.909 13.3685 11.7309 14.302 12.5529 12.3905C13.2194 13.324 13.7747 14.4576 15.241 13.613C16.1518 14.9244 15.552 17.9028 18.6843 16.747V16.7914Z" transform="translate(145.825 126.451)" fill="#FFCD30"/>
<path d="M21.1156 18.3364C20.9601 17.3361 21.5599 16.736 22.3152 16.3137C23.5815 15.6024 24.0924 14.4689 24.4256 13.0241C23.4037 13.5131 22.4929 14.0243 21.5377 14.4022C21.0267 14.6022 20.649 15.6469 20.0048 14.9134C19.4494 14.2911 19.9159 13.5798 20.4713 12.9797C19.6493 12.8241 18.9162 14.2466 18.2942 13.1575C17.8055 12.2906 18.5608 11.6016 19.205 11.0459C20.1603 10.2235 21.6487 9.75675 21.2711 8.02305C19.9826 8.24532 18.5608 9.71229 17.5167 7.62295C17.4722 7.55627 17.2057 7.55628 17.0279 7.57851C13.5846 8.17864 9.94125 7.91191 7.07548 10.757C5.27604 12.5351 3.29888 14.291 0.81076 15.2246C-0.544375 15.0023 0.0776544 14.5578 0.677468 14.1132C2.58799 12.7352 4.38743 11.1793 6.3868 9.97902C9.94126 7.84523 12.2072 4.2 15.8505 2.19958C16.2948 1.95508 16.7836 1.31049 17.0724 1.3994C21.0045 2.66633 24.4256 -1.06779 28.5577 0.310282C27.6691 1.97731 26.6694 3.44428 24.9588 3.93328C22.4929 4.64454 23.3371 6.26712 23.9813 7.46737C24.6034 8.57872 25.7586 9.55671 27.1803 8.08973C27.6024 7.64519 28.2467 7.13396 28.9131 7.84522C29.4241 8.4009 29.1797 8.97881 28.8465 9.4678C26.6694 12.7129 25.0921 16.6027 21.1156 18.3364Z" transform="translate(36.8047 136.642)" fill="#FFCD30"/>
<path d="M2.63001 0.170794C3.56305 1.34882 4.38502 -0.384886 5.40693 0.0818807C5.0737 1.30436 3.11875 2.68245 5.69572 3.70489C6.20668 3.90493 5.42914 4.30501 5.25142 4.61619C4.89597 5.30523 5.40693 6.12762 5.74016 6.01649C8.31713 5.08295 7.47295 7.70574 8.40599 8.43923C5.58465 8.23919 2.87438 7.57238 0.230756 6.61662C-0.324627 6.41658 0.208541 1.83781 0.919431 1.57109C1.7414 1.25991 1.80804 0.281929 2.63001 0.170794ZM2.38564 4.41614C2.85216 4.34946 3.18539 4.19388 3.3409 3.66043C2.89659 3.77157 2.54115 3.88269 2.38564 4.41614Z" transform="translate(33.542 152.852)" fill="#FFCD30"/>
<path d="M0.222217 3.66274C-0.244305 2.90702 0.06671 2.3958 0.755385 2.06239C1.9328 1.50672 3.13242 0.973275 4.33205 0.439828C5.33174 -0.004712 6.22035 -0.493708 6.8646 1.06218C7.28669 2.08462 8.59739 1.79567 9.53043 1.97348C8.30859 3.01815 7.10896 4.08506 5.86491 5.15195C4.90965 3.77388 6.35365 3.19597 6.68688 2.01794C4.93187 2.3958 4.04325 3.81832 2.68812 4.30731C1.91058 4.61849 0.511016 5.88544 0.222217 3.66274Z" transform="translate(43.4141 156.517)" fill="#FFCD30"/>
<path d="M0.644243 0.17782C0.599812 0.311182 0.577597 0.444541 0.533166 0.577903C0.355444 0.511222 0.177723 0.422314 0 0.355633C0.0888613 0.244498 0.133293 0.044454 0.24437 0C0.355446 0 0.488736 0.133366 0.644243 0.17782Z" transform="translate(49.5234 97.3219)" fill="#FFCD30"/>
<path d="M1.46621 0.747548C0.910823 1.05873 0.444306 0.969818 0 0.525278C0.0222153 0.414143 0.0666378 0.280787 0.0888531 0.169652C0.599805 -0.119299 1.08855 -0.0303922 1.51064 0.369693C1.48842 0.503055 1.48842 0.614186 1.46621 0.747548Z" transform="translate(166.309 109.555)" fill="#FFCD30"/>
<path d="M0 0.0444567C0.066646 0.0222297 0.133284 0.022227 0.19993 0C0.133284 0 0.066646 0 0 0V0.0444567Z" transform="translate(177.639 146.977)" fill="#FFCD30"/>
<path d="M0.0666432 0.311176C0.0666432 0.200041 0.0888599 0.111135 0.0888599 0C0.111075 0.044454 0.155502 0.111136 0.133286 0.133363C0.111071 0.200044 0.0444306 0.244497 0 0.288951L0.0666432 0.311176Z" transform="translate(122.545 59.336)" fill="#FFCD30"/>
<path d="M0.0666432 0.28895C0.0666432 0.200042 0.0888599 0.0889079 0.0888599 0C0.111075 0.044454 0.133292 0.0889076 0.111077 0.133362C0.0888613 0.200042 0.0444306 0.244496 0 0.28895H0.0666432Z" transform="translate(131.098 41.6211)" fill="#FFCD30"/>
<path d="M21.0823 0.866858C21.46 0.55568 21.8154 0.266724 22.1487 0C20.7047 5.89015 8.77505 14.1808 0 12.9583C1.06634 12.2693 1.99938 11.9803 3.02128 11.7358C8.44182 10.4245 13.2625 7.84613 17.7056 4.53431C17.9278 4.35649 17.9944 3.97863 18.1277 3.68968C19.1052 2.73392 20.0826 1.80039 21.0823 0.866858Z" transform="translate(104.262 127.862)" fill="#FFCD30"/>
<path d="M12.095 7.05931C11.1175 7.99285 10.1178 8.92637 9.14035 9.85991C8.40724 9.01528 7.87407 9.34869 7.34091 10.1044C5.8747 12.1937 3.63095 12.6605 1.29834 12.9717C0.787392 13.0384 0.209791 13.1273 0.0320682 12.4827C-0.145654 11.8159 0.454157 11.7492 0.876248 11.4825C2.74233 10.3267 4.96387 9.85991 6.71888 8.41515C7.69635 7.59275 8.18509 5.72569 10.1623 6.48141C10.4288 6.59255 10.8954 6.01464 10.8287 5.5701C10.3622 2.94732 12.7614 2.08047 13.9389 0.457897C14.2721 0.0133573 14.9385 -0.14223 15.294 0.14672C15.8938 0.59126 15.4717 1.23584 15.1385 1.68038C13.8944 3.32518 12.406 4.85884 12.095 7.05931Z" transform="translate(113.249 121.669)" fill="#FFCD30"/>
<path d="M0.822974 0C4.44407 4.35649 4.82173 8.46848 2.22254 12.5805C1.80045 13.2251 1.35614 14.1141 0.556387 13.8252C-0.665455 13.3584 0.489744 12.6472 0.600821 12.0248C1.42279 8.17953 1.33393 4.31203 0.822974 0Z" transform="translate(115.502 93.2543)" fill="#FFCD30"/>
<path d="M7.37549 0C5.64269 2.82283 2.82135 4.00086 0 5.17889C2.4659 3.44519 4.90959 1.7337 7.37549 0Z" transform="translate(111.481 107.746)" fill="#FFCD30"/>
<path d="M1.18887 0C2.65508 2.11156 1.65539 5.02329 3.45483 7.04595C1.14444 5.77901 1.45546 2.97841 0.0336773 1.17803C-0.188476 0.889077 0.744567 0.377853 1.18887 0.0222216V0Z" transform="translate(67.8174 118.838)" fill="#FFCD30"/>
<path d="M0.955263 0.739159C0.288803 0.894747 0.133292 0.916974 0 0.961428C0.0888613 0.672478 0.155506 0.383523 0.311013 0.116799C0.355444 0.0278912 0.710894 -0.0165628 0.73311 0.00566419C0.821971 0.316842 0.910832 0.628024 0.955263 0.739159Z" transform="translate(119.479 105.518)" fill="#FFCD30"/>
<path d="M0.177723 0.311183C0.111077 0.288956 0.066646 0.266725 0 0.244498C0.0444306 0.15559 0.0888626 0.0889079 0.133293 0C0.177724 0.044454 0.244368 0.0889093 0.266583 0.133363C0.244368 0.200044 0.199939 0.266729 0.177723 0.311183Z" transform="translate(67.0068 99.6335)" fill="#FFCD30"/>
<path d="M0 0C0 0.0666809 0.0222167 0.133361 0.0222167 0.200041C0.0222167 0.155588 0.0222153 0.0666809 0 0Z" transform="translate(97.1523 111.436)" fill="#FFCD30"/>
<path d="M0 0C0.0222153 0.0666809 0.0222112 0.155589 0.0444266 0.22227C0.0444266 0.155589 0.0444252 0.0666809 0.0222099 0H0Z" transform="translate(122.989 113.081)" fill="#FFCD30"/>
<path d="M8.04194 0.402437C8.30852 0.891431 8.68619 1.26929 8.06416 1.73606C4.9318 4.09212 3.15457 7.40393 1.53286 10.8269C1.3107 11.3159 0.999689 11.8049 0.444306 11.5604C0.177723 11.4492 0 10.8491 0 10.4935C0.0444306 8.80423 0.266581 7.11499 1.39956 5.8036C2.99907 3.98099 4.70964 2.29173 6.39801 0.5358C6.90896 -0.0198742 7.48656 -0.264372 8.04194 0.402437Z" transform="translate(83.3125 82.9164)" fill="#FFCD30"/>
<path d="M5.02066 1.61433C3.37673 3.17022 1.73279 1.85882 0 1.72546C2.33261 -0.563917 3.0435 -0.563918 4.99845 1.65878L5.02066 1.61433Z" transform="translate(97.1748 72.9471)" fill="#FFCD30"/>
<path d="M1.58394 0.485618C1.91717 0.996839 2.13932 1.59697 1.62836 2.04151C1.0952 2.48605 0.761971 1.93037 0.473172 1.55251C0.184372 1.15242 -0.215503 0.663431 0.139942 0.218892C0.673109 -0.470145 1.02855 0.707888 1.58394 0.485618Z" transform="translate(78.5068 106.883)" fill="#FFCD30"/>
<path d="M0.199943 0.644581C0.133297 0.422311 0.066646 0.200043 0 0C0.066646 0 0.155507 0 0.222153 0C0.222153 0.22227 0.222153 0.44454 0.222153 0.666809L0.199943 0.644581Z" transform="translate(78.4697 129.329)" fill="#FFCD30"/>
<path d="M0.0222167 0.244498C0.0222167 0.15559 0 0.0889079 0 0C0 0.0666809 1.35558e-06 0.15559 0.0222167 0.244498Z" transform="translate(80.0908 107.124)" fill="#FFCD30"/>
<path d="M0 0.288955C0.0222153 0.200047 0.0444279 0.0889079 0.0666432 0C0.0666432 0.0889079 0.0444266 0.200047 0.0444266 0.288955H0Z" transform="translate(82.5576 128.195)" fill="#FFCD30"/>
<path d="M0.0444266 0.22227C0.0222112 0.155589 0.0222153 0.0666809 0 0C0.0222153 0.0666809 0.0222112 0.133362 0.0444266 0.22227Z" transform="translate(108.549 66.7598)" fill="#FFCD30"/>
<path d="M0.17443 1.62257C-0.447599 0.088912 0.729817 0.200043 1.574 0C1.55178 0.933533 0.729813 1.17803 0.17443 1.62257Z" transform="translate(126.969 108.547)" fill="#FFCD30"/>
<path d="M12.4184 7.21462C11.3076 8.63715 10.2191 8.48156 9.19715 7.65916C6.15365 5.19197 3.17679 2.68032 0 0.0353091C3.42116 -0.298096 6.84232 1.76902 7.66428 4.56962C8.06416 5.90324 9.28601 6.01436 10.1968 6.54781C10.7966 6.92567 11.5742 6.97012 12.4184 7.21462Z" transform="translate(140.517 161.1)" fill="#FFCD30"/>
<path d="M0.787789 0C1.03216 0.533448 1.92077 0.889082 1.34317 1.60035C1.12102 1.8893 0.543415 1.88929 0.254616 1.53365C-0.411843 0.711255 0.387911 0.422313 0.854433 0H0.787789Z" transform="translate(148.927 175.85)" fill="#FFCD30"/>
<path d="M1.66385 0.554318C1.21955 0.932177 0.797455 1.37672 0.197641 0.887723C0.0643493 0.776588 -0.0467245 0.332052 0.0199214 0.287598C0.64195 -0.134714 1.24176 -0.134717 1.66385 0.576546V0.554318Z" transform="translate(50.8584 90.3217)" fill="#FFCD30"/>
<path d="M7.91749 4.44565C7.22882 6.20158 9.02826 6.82393 9.76137 8.04642C10.2057 8.77991 10.5833 9.22445 11.3609 9.35781C13.4269 9.71344 13.1825 11.6472 13.6268 12.9586C13.8934 13.7588 13.0937 14.3589 12.1162 14.5589C10.5389 14.8701 8.89497 14.4478 8.56174 13.1586C8.16186 11.6027 6.98445 11.2471 6.1847 10.3136C4.0076 7.77969 2.14151 4.95687 0.297639 2.15627C-0.435467 1.06714 0.275425 0.000250052 1.45284 0.000250052C2.83019 -0.0219769 3.82988 1.445 5.3183 1.445C5.34052 1.445 5.4516 1.75618 5.38495 1.82286C3.80766 4.09001 5.62932 3.84552 6.96223 3.9122C7.31768 3.9122 7.60648 3.97888 7.91749 4.44565Z" transform="translate(46.4932 56.7352)" fill="#FFCD30"/>
<path d="M0.0888667 0.177813L0 0.0666782L0.199943 0L0.0888667 0.177813Z" transform="translate(132.23 56.691)" fill="#FFCD30"/>
<path d="M0.133286 0.0222266L0 0L0.133286 0.0444533V0.0222266Z" transform="translate(139.873 36.8867)" fill="#FFCD30"/>
<path d="M6.90851 0.816685C7.35282 2.48371 7.26396 4.26187 6.97516 5.55103C5.7311 11.0856 4.5759 16.6645 3.554 22.2435C3.30963 23.5327 2.57653 24.0883 1.48798 23.9327C0.0217667 23.7105 0.688222 22.3546 0.865945 21.71C1.33247 20.0652 1.44354 18.3982 1.64348 16.7534C1.68791 16.3089 2.08779 15.6199 1.55462 15.3976C-0.355897 14.553 1.13253 13.7528 1.46576 12.8637C2.08779 11.1522 2.48767 9.41853 2.15444 7.55146C2.08779 7.12915 2.15444 6.5957 1.57684 6.79574C0.888163 7.04024 0.221703 7.32919 0.0217653 6.37343C-0.155957 5.52881 0.799303 5.41767 1.26582 4.99536C1.86564 4.43968 2.8209 4.08405 2.13222 3.01716C1.0881 1.37236 2.6876 0.349918 3.46514 0.0831945C4.4204 -0.25021 5.7311 0.505507 6.90851 0.816685Z" transform="translate(108.039 21.378)" fill="#FFCD30"/>
<path d="M1.68837 0C1.79944 1.62257 1.95495 3.26737 0 4.80103C0.37766 2.77837 0.311017 1.1558 1.71058 0H1.68837Z" transform="translate(114.947 33.5305)" fill="#FFCD30"/>
<path d="M0.224876 0.986707C0.0471533 0.653302 -0.197219 0.319897 0.269302 0.00871972C0.313733 -0.0135073 0.447025 0.00871989 0.491456 0.0531739C0.846901 0.497713 0.469243 0.719983 0.202659 0.986707H0.224876Z" transform="translate(116.433 32.566)" fill="#FFCD30"/>
<path d="M12.6095 0.731608C12.3651 3.08767 10.4546 3.42107 8.63292 3.46552C7.23335 3.50998 6.23366 3.7767 5.94486 5.68822C4.8341 3.99897 3.65668 3.59888 2.19047 4.42128C1.52401 4.79914 0.857553 4.73246 0.324386 4.24347C-0.564227 3.4433 0.6354 3.15435 0.813123 2.6209C1.47958 0.553792 2.96801 0.0870246 5.05625 0.0425706C7.58879 -0.0463373 10.1213 -0.0685629 12.6095 0.731608Z" transform="translate(23.7178 111.327)" fill="#FFCD30"/>
<path d="M8.28631 5.43501C7.1089 3.79021 4.66522 5.85733 4.46528 3.07896C4.46528 3.0345 3.55445 2.99005 3.08793 3.05673C2.06602 3.21232 1.11077 3.14564 0 2.63442C0.488737 1.83425 1.55507 1.67865 1.84387 0.789573C1.97716 0.389488 2.57698 -0.410682 2.84356 0.256127C3.39894 1.58975 5.97592 -1.4109 5.5094 1.65642C5.42054 2.30101 5.9537 3.21231 7.1089 3.23454C7.79758 3.23454 8.2641 3.81244 8.28631 5.43501Z" transform="translate(36.9717 110.758)" fill="#FFCD30"/>
<path d="M1.12849 1.16448C2.12818 -0.724818 3.1723 0.0308969 4.26085 1.00888C4.50522 1.23115 4.86066 1.60902 5.03839 1.54234C8.08188 0.519896 7.79309 2.98709 7.72644 4.45407C7.65979 6.25445 9.12601 7.38804 9.08158 9.18842C9.01493 11.7001 7.79309 11.8112 5.97143 11.3889C5.10503 11.1888 4.34971 10.0775 3.32781 11.2555C3.0168 11.6334 2.48362 10.9666 2.46141 10.6554C2.37255 7.8548 -0.359937 5.92105 0.0399388 2.94263C0.151015 2.12024 -0.426584 1.05334 1.12849 1.16448Z" transform="translate(105.555 163.705)" fill="#FFCD30"/>
<path d="M5.4047 12.6826C4.98261 12.2826 4.51608 12.1936 3.98291 12.4826C3.5386 9.30414 3.53861 9.25968 6.73762 9.39304C7.75952 9.4375 8.00389 8.74846 7.95946 8.19279C7.8706 7.10366 9.42567 6.21458 8.47041 5.19214C7.80395 4.48088 7.5818 5.52555 7.27079 5.92564C6.42661 7.01476 5.64907 8.74846 4.00514 7.41484C2.82772 6.45908 2.02797 5.05878 0.228531 5.21437C0.161885 5.21437 -0.0380532 4.76983 0.00637741 4.59202C0.117454 4.21416 0.495117 4.30307 0.828347 4.25861C7.35965 3.79185 13.9354 3.5029 19.9113 0.346665C20.3778 0.102168 20.9776 -0.364603 21.3775 0.502249C21.7774 1.41356 21.1331 1.70251 20.4889 1.96923C20.2668 2.05814 20.0002 2.05814 19.7558 2.12482C18.9116 2.36932 17.4898 2.28041 17.6898 3.41399C17.8897 4.61424 19.3337 4.45865 20.2668 4.28084C21.9551 3.96966 23.599 3.39176 25.4874 2.85831C25.1986 4.1697 24.0656 4.45865 23.488 5.16992C22.9326 5.83672 20.9776 6.01454 23.1325 7.19257C23.6435 7.48152 23.0437 8.12611 22.7549 8.45951C22.1995 9.08187 21.9107 9.74867 22.1773 10.5266C22.8215 12.4826 21.6441 12.6604 20.1557 12.7938C17.9564 12.9938 18.9783 11.3712 18.8228 10.66C14.2908 11.3268 9.95884 12.6382 5.4047 12.6826ZM12.4914 8.90405C11.8027 7.83716 10.6919 7.83715 9.73668 7.61488C9.42567 7.5482 9.42567 8.41506 9.62561 8.68178C10.4254 9.7709 11.4917 8.97073 12.4914 8.90405ZM5.78236 6.8814C6.02673 6.74803 6.16002 6.50354 5.93787 6.30349C5.71572 6.10345 5.36026 5.90341 5.09368 5.94786C4.6938 6.01454 4.71602 6.41463 4.91596 6.70358C5.13811 6.99253 5.44913 7.03698 5.78236 6.8814ZM6.04895 10.8823C6.02673 10.7267 6.02673 10.5266 5.93787 10.4599C5.84901 10.3933 5.58242 10.4599 5.51577 10.5488C5.44913 10.6378 5.51578 10.9045 5.60464 10.9489C5.6935 11.0156 5.89344 10.9045 6.04895 10.8823Z" transform="translate(162.415 97.2419)" fill="#FFCD30"/>
<path d="M5.83839 19.0819C4.79427 18.5706 4.46104 19.9043 3.61686 19.5042C5.54959 17.5704 8.94854 17.1481 9.30399 13.6363C8.54867 14.0586 7.79334 14.4809 7.0158 14.9476C6.59371 13.7029 7.3046 13.1028 8.10436 12.5916C12.6585 9.59094 17.0793 6.39026 20.0784 1.70036C21.1892 -0.0333405 23.1219 0.70015 24.6103 0.0333405C24.9436 -0.122248 25.299 0.300062 25.2324 0.61124C25.0546 1.52255 25.4323 2.47831 24.5437 3.34516C22.8775 5.01218 21.5224 6.94593 20.5671 9.25754C22.9664 8.03505 25.5434 7.65719 28.2092 6.45694C25.921 10.969 23.544 15.1921 20.2117 18.3039C17.9013 20.4822 15.8575 23.4828 12.1253 24.2163C10.0371 24.6164 8.68196 27.1058 6.26049 27.2392C5.81618 27.2614 5.39409 27.9949 4.92757 27.3725C4.54991 26.8835 4.94978 26.4168 5.10529 25.95C5.39409 25.0831 5.7051 24.1941 6.06054 23.3494C6.39377 22.4826 6.03833 21.8158 5.39408 21.3712C4.57212 20.7933 4.21668 21.5713 3.8168 22.0825C3.3725 22.6826 2.86154 23.2605 2.50609 23.9051C2.17286 24.5275 1.83964 25.1276 1.03989 25.0165C0.506719 24.9498 0.217915 24.4386 0.0624074 23.9496C-0.226392 23.0827 0.551153 22.7938 1.08432 22.4159C2.59496 21.3268 4.17224 20.2599 5.83839 19.0819Z" transform="translate(145.387 55.7019)" fill="#FFCD30"/>
<path d="M0.0444333 0.22227C0.022218 0.155589 0.0222153 0.0889079 0 0C0 0.0666809 0 0.133362 0 0.22227H0.0444333Z" transform="translate(164.487 143.021)" fill="#FFCD30"/>
<path d="M0 2.03662C0.955259 0.680772 1.68836 -0.497247 3.3323 0.214016C3.70996 0.369605 4.08762 0.614091 3.70996 1.14754C2.79913 2.41448 1.5995 2.50338 0 2.03662Z" transform="translate(52.1221 152.564)" fill="#FFCD30"/>
<path d="M0.444306 0C0.466522 0.155589 0.577599 0.355624 0.510953 0.422304C0.444307 0.511212 0.222155 0.488985 0.0888633 0.533439C0.066648 0.377851 0.0222153 0.244489 0 0.0888998C0.155507 0.0666728 0.311014 0.044454 0.444306 0Z" transform="translate(51.3887 155.445)" fill="#FFCD30"/>
<path d="M4.13348 2.17825C3.31151 4.08978 2.48955 3.15623 1.60094 2.2227C0.956693 1.55589 -0.0429989 1.1558 0.00143177 0C0.978906 0.22227 2.02302 0.288959 2.91163 0.689045C3.42259 0.911314 3.71138 1.66703 4.13348 2.17825Z" transform="translate(154.267 136.708)" fill="#FFCD30"/>
<path d="M2.68806 1.3959C1.22185 2.24052 0.66646 1.10695 0 0.173413V0.195634C1.3107 -0.404494 1.99939 0.48459 2.68806 1.3959Z" transform="translate(158.4 138.713)" fill="#FFCD30"/>
<path d="M0.213503 0.89895C0.0579956 0.61 -0.141953 0.321057 0.146846 0.0321063C0.213492 -0.0345746 0.502294 0.00987665 0.524509 0.0987846C0.724447 0.476643 0.391217 0.676689 0.191279 0.921186L0.213503 0.89895Z" transform="translate(162.919 135.92)" fill="#FFCD30"/>
<path d="M0 0.755709C0.155507 0.222262 0.510951 0.111135 0.955258 0C0.79975 0.511221 0.466522 0.666801 0 0.755709Z" transform="translate(35.9268 156.512)" fill="#FFCD30"/>
<path d="M3.01158 1.29281C2.01189 1.33727 0.945553 2.15967 0.145801 1.07054C-0.0541367 0.803821 -0.076352 -0.0630356 0.256878 0.00364531C1.21214 0.225915 2.32291 0.248146 3.01158 1.29281Z" transform="translate(171.895 104.853)" fill="#FFCD30"/>
<path d="M1.00632 0.939287C0.673092 1.09488 0.362072 1.05042 0.139919 0.761474C-0.0600189 0.472523 -0.082237 0.0724323 0.317639 0.00575137C0.584223 -0.0387026 0.917463 0.183569 1.16183 0.361384C1.38398 0.561427 1.22847 0.805925 1.00632 0.939287Z" transform="translate(167.191 103.184)" fill="#FFCD30"/>
<path d="M0.550602 0.4494C0.395095 0.471627 0.217373 0.582759 0.106296 0.516078C0.0174348 0.471624 -0.0270012 0.182676 0.0174294 0.115995C0.0840753 0.0270875 0.350665 -0.0395921 0.439526 0.0270889C0.528387 0.0937698 0.506172 0.293811 0.550602 0.4494Z" transform="translate(167.913 107.675)" fill="#FFCD30"/>
<path d="M2.688 0C2.688 0 -1.512 8.5 0.588 14.1C2.688 19.7 9.388 21.6 9.388 21.6C9.388 21.6 11.788 13.6 10.288 9.1C8.688 4.7 2.688 0 2.688 0Z" transform="translate(1082.03 406.686) rotate(0.229869)" fill="#2EB349"/>
<path d="M0 2.60012C0 2.60012 5.6 10.3001 11.5 11.0001C17.4 11.7001 22.3 6.70012 22.3 6.70012C22.3 6.70012 16.3 0.800119 11.7 0.100119C6.9 -0.599881 0 2.60012 0 2.60012Z" transform="translate(1064.65 423.416) rotate(0.229869)" fill="#2EB349"/>
<path d="M10.2049 0C10.2049 0 3.50486 1.2 1.20486 4.8C-1.09514 8.4 0.604862 13.1 0.604862 13.1C0.604862 13.1 6.30486 11.1 8.20486 8.3C10.1049 5.4 10.2049 0 10.2049 0Z" transform="translate(1086.66 443.705) rotate(0.229869)" fill="#2EB349"/>
<path d="M0.693462 0C0.693462 0 -1.10654 6.5 1.09346 10.2C3.29346 13.8 8.29346 14.3 8.29346 14.3C8.29346 14.3 8.89346 8.3 7.19346 5.4C5.59346 2.5 0.693462 0 0.693462 0Z" transform="translate(1073.69 439.653) rotate(0.229869)" fill="#2EB349"/>
<path d="M0 0.0843745C0 0.0843745 2.3 8.08437 7 10.4844C11.7 12.8844 17.2 10.0844 17.2 10.0844C17.2 10.0844 14 3.38438 10.3 1.48438C6.7 -0.515624 0 0.0843745 0 0.0843745Z" transform="translate(1053.95 447.489) rotate(0.229869)" fill="#2EB349"/>
<path d="M18.4012 0.309917C18.4012 0.309917 9.20123 -1.19008 4.50123 2.40992C-0.19877 6.00992 0.00123029 12.9099 0.00123029 12.9099C0.00123029 12.9099 8.30123 12.8099 12.0012 10.1099C15.8012 7.40992 18.4012 0.309917 18.4012 0.309917Z" transform="translate(1108.64 401.883) rotate(0.229869)" fill="#2EB349"/>
<path d="M4.71959 0C4.71959 0 -0.880408 7.5 0.119592 13.3C1.11959 19.1 7.31959 22.2 7.31959 22.2C7.31959 22.2 11.1196 14.8 10.4196 10.2C9.71959 5.6 4.71959 0 4.71959 0Z" transform="translate(1098.27 388.951) rotate(0.229869)" fill="#2EB349"/>
<path d="M14.4 0.762109C14.4 0.762109 7.9 -1.13789 4.2 1.06211C0.499997 3.26211 0 8.26211 0 8.26211C0 8.26211 6 8.96211 8.9 7.36211C11.8 5.66211 14.4 0.762109 14.4 0.762109Z" transform="translate(1134.03 452.933) rotate(0.229869)" fill="#2EB349"/>
<path d="M15.5 7.09357C15.5 7.09357 12.1 1.19357 8 0.193572C3.9 -0.806428 0 2.39357 0 2.39357C0 2.39357 3.8 7.09357 7.1 7.89357C10.3 8.79357 15.5 7.09357 15.5 7.09357Z" transform="translate(1136.69 463.812) rotate(0.229869)" fill="#2EB349"/>
<path d="M12.183 0C12.183 0 3.98304 1.8 1.28304 6.3C-1.41696 10.8 0.983038 16.5 0.983038 16.5C0.983038 16.5 7.88304 13.8 10.083 10.2C12.283 6.8 12.183 0 12.183 0Z" transform="translate(1128.98 420.574) rotate(0.229869)" fill="#2EB349"/>
<path d="M4.17979 0C4.17979 0 -1.02021 7.5 0.179786 13.1C1.37979 18.7 7.47978 21.5 7.47978 21.5C7.47978 21.5 10.8798 14.2 10.0798 9.8C9.27978 5.3 4.17979 0 4.17979 0Z" transform="translate(1117.41 415.028) rotate(0.229869)" fill="#2EB349"/>
<path d="M104.3 85.2C103.8 84.4 103.5 83.4 103.5 82.5L85.8 87.7L96.7 73.8C97.1 73.4 96.5 73.1 95.9 73L90.4 71.3L83.2 87.8L58.4 96.2L57.3 59.6L64.8 52.7L82.8 52.5L83.6 50.8H66.8L83.7 35L83.1 32.4L71.7 42.5L79 26.5L74.9 25.4L68.8 45L57.5 54.9L54.9 0H52.3L52 28.2L42.2 15.2L35.8 15.9L51.5 31.3L50.4 67.4L35 54.6L34.9 47.2L32.5 40.4V52.9L22 46.1L19.2 45.8L50.6 71.1L50.4 88L19.1 73.4L14.8 63.2C13.9 63 13 63.9 13.4 64.8L16.5 72.6L0 67.4L0.300001 68.5L29.6 82.4L13.4 83.5L15.4 85.2L33 84.3L49.9 93.6L49.4 169.3H60.1L59 100.4L104.3 85.2Z" transform="translate(1051.59 413.364) rotate(0.229869)" fill="#53372A"/>
<path d="M0 2.28428C0 2.28428 5 8.98429 10.2 9.68429C15.4 10.2843 19.7 5.88428 19.7 5.88428C19.7 5.88428 14.4 0.684287 10.3 0.0842873C6.1 -0.515713 0 2.28428 0 2.28428Z" transform="translate(1043.28 489.947) rotate(0.229869)" fill="#2EB349"/>
<path d="M0 11.8036C0 11.8036 8.9 13.5036 13.6 10.1036C18.2 6.70355 18.3 0.00355548 18.3 0.00355548C18.3 0.00355548 10.2 -0.196443 6.5 2.40356C2.8 5.00356 0 11.8036 0 11.8036Z" transform="translate(1046.14 500.639) rotate(0.229869)" fill="#2EB349"/>
<path d="M0 0C0 0 2.3 8.8 7.4 11.5C12.4 14.2 16.5 12.4 16.5 12.4C16.5 12.4 13.2 5.1 9.2 2.8C5.3 0.599995 0 0 0 0Z" transform="translate(1033.07 468.59) rotate(0.229869)" fill="#2EB349"/>
<path d="M0.693464 0C0.693464 0 -1.10654 6.5 1.09346 10.2C3.29346 13.8 8.29346 14.3 8.29346 14.3C8.29346 14.3 8.89346 8.29999 7.19346 5.39999C5.59346 2.39999 0.693464 0 0.693464 0Z" transform="translate(1131.17 470.384) rotate(0.229869)" fill="#2EB349"/>
<path d="M10.8173 0C10.8173 0 2.61728 3.40001 0.617284 8.60001C-1.38272 13.8 2.11728 19.3 2.11728 19.3C2.11728 19.3 8.81729 15.2 10.4173 11.1C12.2173 7.00001 10.8173 0 10.8173 0Z" transform="translate(1153.92 475.875) rotate(0.229869)" fill="#2EB349"/>
<path d="M0 6.36348C0 6.36348 7.2 10.6635 12.3 9.16348C17.4 7.66348 19.6 1.86348 19.6 1.86348C19.6 1.86348 12.7 -0.836521 8.6 0.263479C4.5 1.36348 0 6.36348 0 6.36348Z" transform="translate(1116.6 484.762) rotate(0.229869)" fill="#2EB349"/>
<path d="M4.3065 0C4.3065 0 -0.793499 6.7 0.106501 11.9C1.0065 17.1 6.5065 19.9 6.5065 19.9C6.5065 19.9 9.9065 13.3 9.3065 9.2C8.8065 5.1 4.3065 0 4.3065 0Z" transform="translate(1070.77 467.441) rotate(0.229869)" fill="#2EB349"/>
<path d="M16.3 12.5992C16.3 12.5992 14.8 4.29925 10.3 1.49925C5.9 -1.40075 0 0.799251 0 0.799251C0 0.799251 2.5 7.79925 6 10.0992C9.6 12.3992 16.3 12.5992 16.3 12.5992Z" transform="translate(1158.14 499.793) rotate(0.229869)" fill="#2EB349"/>
<path d="M16.5284 0.00100834C7.41272 0.00100834 0 7.45013 0 16.7112C0 25.8716 7.51289 33.3207 16.6285 33.3207C25.8444 33.3207 33.2571 25.7709 33.1569 16.6105C33.1569 7.34946 25.7442 -0.0996554 16.5284 0.00100834ZM16.6285 26.5762C11.2193 26.5762 6.81169 22.147 6.81169 16.7112C6.81169 11.2753 11.2193 6.84614 16.6285 6.84614C22.0378 6.84614 26.4454 11.2753 26.4454 16.7112C26.4454 22.0464 22.0378 26.4756 16.6285 26.5762Z" transform="translate(119.602 689.981) scale(-1 1) rotate(13.9366)" fill="#53372A"/>
<path d="M23.0403 0C10.3184 0 -0.0994555 10.469 0.000716403 23.2533C0.000716403 36.0376 10.4186 46.5066 23.1404 46.406C35.8623 46.406 46.2801 35.9369 46.18 23.1527C46.18 10.3684 35.7621 0 23.0403 0ZM23.1404 37.4469C15.327 37.4469 9.01618 31.1051 8.91601 23.2533C8.91601 15.4015 15.2268 9.05974 23.0403 8.95907C30.8537 8.95907 37.1645 15.3009 37.2647 23.1527C37.2647 31.1051 30.9538 37.4469 23.1404 37.4469Z" transform="translate(63.5127 690.21) scale(-1 1) rotate(13.9366)" fill="#53372A"/>
<path d="M10.6182 0H0V5.5365H1.90327V14.8982H8.71495V5.5365H10.6182V0Z" transform="translate(87.3457 661.479) scale(-1 1) rotate(13.9366)" fill="#53372A"/>
<path d="M0 3.72456V13.0863H6.81169V0L0 3.72456Z" transform="translate(36.1953 651.25) scale(-1 1) rotate(13.9366)" fill="#53372A"/>
<path d="M70.8215 4.93252C70.8215 2.91925 69.5193 1.20796 67.8164 0.402654C67.4157 0.201327 66.9148 0 66.414 0H66.0133L40.4694 0.100664H32.9566C31.3538 0.100664 30.0516 1.40929 30.0516 3.01991C30.0516 4.63053 31.3538 5.93916 32.9566 5.93916H35.561L32.2553 23.8573L4.80825 23.958C2.10361 23.958 0 26.1726 0 28.7898L2.5043 37.6482C3.2055 37.5476 3.9067 37.5476 4.60791 37.5476C16.5284 37.5476 26.1449 47.2113 26.1449 59.0896H38.8667C38.3658 56.9757 38.0653 54.7611 38.0653 52.5465C38.0653 37.3462 50.2863 24.9646 65.5124 24.8639C67.3155 24.8639 69.0184 25.0653 70.7214 25.3673L70.8215 4.93252ZM53.4918 24.6626H36.4626L40.1689 5.5365H60.5038V22.448C57.9995 23.052 55.6956 23.7566 53.4918 24.6626Z" transform="translate(97.874 651.502) scale(-1 1) rotate(13.9366)" fill="#53372A"/>
</g>
<defs>
<clipPath id="clip0">
<rect width="1200" height="800" fill="white"/>
</clipPath>
</defs>
</svg>
