<svg width="1200" height="800" viewBox="0 0 1200 800" fill="none" xmlns="http://www.w3.org/2000/svg">
<g clip-path="url(#clip0)">
<rect width="1200" height="800" fill="white"/>
<rect width="1200" height="800" fill="white"/>
<path d="M343.945 33.5391C343.945 39.1953 342.406 43.5234 339.328 46.5234C336.266 49.5078 331.852 51 326.086 51H316.594V16.7344H327.094C332.422 16.7344 336.562 18.2109 339.516 21.1641C342.469 24.1172 343.945 28.2422 343.945 33.5391ZM339.727 33.6797C339.727 29.2109 338.602 25.8438 336.352 23.5781C334.117 21.3125 330.789 20.1797 326.367 20.1797H320.578V47.5547H325.43C330.18 47.5547 333.75 46.3906 336.141 44.0625C338.531 41.7188 339.727 38.2578 339.727 33.6797ZM370.711 51H351.609V16.7344H370.711V20.2734H355.594V31.3125H369.797V34.8281H355.594V47.4375H370.711V51ZM397.664 41.8828C397.664 44.8984 396.57 47.25 394.383 48.9375C392.195 50.625 389.227 51.4688 385.477 51.4688C381.414 51.4688 378.289 50.9453 376.102 49.8984V46.0547C377.508 46.6484 379.039 47.1172 380.695 47.4609C382.352 47.8047 383.992 47.9766 385.617 47.9766C388.273 47.9766 390.273 47.4766 391.617 46.4766C392.961 45.4609 393.633 44.0547 393.633 42.2578C393.633 41.0703 393.391 40.1016 392.906 39.3516C392.438 38.5859 391.641 37.8828 390.516 37.2422C389.406 36.6016 387.711 35.875 385.43 35.0625C382.242 33.9219 379.961 32.5703 378.586 31.0078C377.227 29.4453 376.547 27.4062 376.547 24.8906C376.547 22.25 377.539 20.1484 379.523 18.5859C381.508 17.0234 384.133 16.2422 387.398 16.2422C390.805 16.2422 393.938 16.8672 396.797 18.1172L395.555 21.5859C392.727 20.3984 389.977 19.8047 387.305 19.8047C385.195 19.8047 383.547 20.2578 382.359 21.1641C381.172 22.0703 380.578 23.3281 380.578 24.9375C380.578 26.125 380.797 27.1016 381.234 27.8672C381.672 28.6172 382.406 29.3125 383.438 29.9531C384.484 30.5781 386.078 31.2734 388.219 32.0391C391.812 33.3203 394.281 34.6953 395.625 36.1641C396.984 37.6328 397.664 39.5391 397.664 41.8828ZM404.672 51V16.7344H408.656V51H404.672ZM433.148 33.0469H444.797V49.7109C442.984 50.2891 441.141 50.7266 439.266 51.0234C437.391 51.3203 435.219 51.4688 432.75 51.4688C427.562 51.4688 423.523 49.9297 420.633 46.8516C417.742 43.7578 416.297 39.4297 416.297 33.8672C416.297 30.3047 417.008 27.1875 418.43 24.5156C419.867 21.8281 421.93 19.7812 424.617 18.375C427.305 16.9531 430.453 16.2422 434.062 16.2422C437.719 16.2422 441.125 16.9141 444.281 18.2578L442.734 21.7734C439.641 20.4609 436.664 19.8047 433.805 19.8047C429.633 19.8047 426.375 21.0469 424.031 23.5312C421.688 26.0156 420.516 29.4609 420.516 33.8672C420.516 38.4922 421.641 42 423.891 44.3906C426.156 46.7812 429.477 47.9766 433.852 47.9766C436.227 47.9766 438.547 47.7031 440.812 47.1562V36.6094H433.148V33.0469ZM479.812 51H475.266L456.539 22.2422H456.352C456.602 25.6172 456.727 28.7109 456.727 31.5234V51H453.047V16.7344H457.547L476.227 45.375H476.414C476.383 44.9531 476.312 43.6016 476.203 41.3203C476.094 39.0234 476.055 37.3828 476.086 36.3984V16.7344H479.812V51Z" transform="translate(0 404)" fill="#EF4631"/>
<path d="M516.375 19.8047C512.609 19.8047 509.633 21.0625 507.445 23.5781C505.273 26.0781 504.188 29.5078 504.188 33.8672C504.188 38.3516 505.234 41.8203 507.328 44.2734C509.438 46.7109 512.438 47.9297 516.328 47.9297C518.719 47.9297 521.445 47.5 524.508 46.6406V50.1328C522.133 51.0234 519.203 51.4688 515.719 51.4688C510.672 51.4688 506.773 49.9375 504.023 46.875C501.289 43.8125 499.922 39.4609 499.922 33.8203C499.922 30.2891 500.578 27.1953 501.891 24.5391C503.219 21.8828 505.125 19.8359 507.609 18.3984C510.109 16.9609 513.047 16.2422 516.422 16.2422C520.016 16.2422 523.156 16.8984 525.844 18.2109L524.156 21.6328C521.562 20.4141 518.969 19.8047 516.375 19.8047ZM535.969 36.75V51H531.984V16.7344H541.383C545.586 16.7344 548.688 17.5391 550.688 19.1484C552.703 20.7578 553.711 23.1797 553.711 26.4141C553.711 30.9453 551.414 34.0078 546.82 35.6016L556.125 51H551.414L543.117 36.75H535.969ZM535.969 33.3281H541.43C544.242 33.3281 546.305 32.7734 547.617 31.6641C548.93 30.5391 549.586 28.8594 549.586 26.625C549.586 24.3594 548.914 22.7266 547.57 21.7266C546.242 20.7266 544.102 20.2266 541.148 20.2266H535.969V33.3281ZM580.758 51H561.656V16.7344H580.758V20.2734H565.641V31.3125H579.844V34.8281H565.641V47.4375H580.758V51ZM609.914 51L605.648 40.1016H591.914L587.695 51H583.664L597.211 16.5938H600.562L614.039 51H609.914ZM604.406 36.5156L600.422 25.8984C599.906 24.5547 599.375 22.9062 598.828 20.9531C598.484 22.4531 597.992 24.1016 597.352 25.8984L593.32 36.5156H604.406ZM629.297 51H625.312V20.2734H614.461V16.7344H640.148V20.2734H629.297V51ZM664.43 51H645.328V16.7344H664.43V20.2734H649.312V31.3125H663.516V34.8281H649.312V47.4375H664.43V51Z" transform="translate(0 404)" fill="#12ABE3"/>
<path d="M711.867 33.5391C711.867 39.1953 710.328 43.5234 707.25 46.5234C704.188 49.5078 699.773 51 694.008 51H684.516V16.7344H695.016C700.344 16.7344 704.484 18.2109 707.438 21.1641C710.391 24.1172 711.867 28.2422 711.867 33.5391ZM707.648 33.6797C707.648 29.2109 706.523 25.8438 704.273 23.5781C702.039 21.3125 698.711 20.1797 694.289 20.1797H688.5V47.5547H693.352C698.102 47.5547 701.672 46.3906 704.062 44.0625C706.453 41.7188 707.648 38.2578 707.648 33.6797ZM738.633 51H719.531V16.7344H738.633V20.2734H723.516V31.3125H737.719V34.8281H723.516V47.4375H738.633V51ZM765.82 16.7344H770.109L757.758 51H753.82L741.539 16.7344H745.758L753.633 38.9062C754.539 41.4531 755.258 43.9297 755.789 46.3359C756.352 43.8047 757.086 41.2812 757.992 38.7656L765.82 16.7344ZM793.945 51H774.844V16.7344H793.945V20.2734H778.828V31.3125H793.031V34.8281H778.828V47.4375H793.945V51ZM801.562 51V16.7344H805.547V47.3906H820.664V51H801.562ZM856.242 33.8203C856.242 39.3047 854.852 43.6172 852.07 46.7578C849.305 49.8984 845.453 51.4688 840.516 51.4688C835.469 51.4688 831.57 49.9297 828.82 46.8516C826.086 43.7578 824.719 39.3984 824.719 33.7734C824.719 28.1953 826.094 23.875 828.844 20.8125C831.594 17.7344 835.5 16.1953 840.562 16.1953C845.484 16.1953 849.328 17.7578 852.094 20.8828C854.859 24.0078 856.242 28.3203 856.242 33.8203ZM828.938 33.8203C828.938 38.4609 829.922 41.9844 831.891 44.3906C833.875 46.7812 836.75 47.9766 840.516 47.9766C844.312 47.9766 847.18 46.7812 849.117 44.3906C851.055 42 852.023 38.4766 852.023 33.8203C852.023 29.2109 851.055 25.7188 849.117 23.3438C847.195 20.9531 844.344 19.7578 840.562 19.7578C836.766 19.7578 833.875 20.9609 831.891 23.3672C829.922 25.7578 828.938 29.2422 828.938 33.8203ZM885.633 26.7188C885.633 30.1875 884.445 32.8594 882.07 34.7344C879.711 36.5938 876.328 37.5234 871.922 37.5234H867.891V51H863.906V16.7344H872.789C881.352 16.7344 885.633 20.0625 885.633 26.7188ZM867.891 34.1016H871.477C875.008 34.1016 877.562 33.5312 879.141 32.3906C880.719 31.25 881.508 29.4219 881.508 26.9062C881.508 24.6406 880.766 22.9531 879.281 21.8438C877.797 20.7344 875.484 20.1797 872.344 20.1797H867.891V34.1016Z" transform="translate(0 404)" fill="#2EB349"/>
<path d="M379.374 77L364.468 34.0742H364.186C364.585 40.4492 364.784 46.4258 364.784 52.0039V77H357.155V25.6016H369.003L383.276 66.4883H383.487L398.182 25.6016H410.065V77H401.979V51.582C401.979 49.0273 402.038 45.6992 402.155 41.5977C402.296 37.4961 402.413 35.0117 402.507 34.1445H402.225L386.792 77H379.374ZM455.487 77L450.354 62.7266H430.702L425.675 77H416.815L436.046 25.3906H445.186L464.417 77H455.487ZM448.139 55.4844L443.323 41.4922C442.971 40.5547 442.479 39.0781 441.846 37.0625C441.237 35.0469 440.815 33.5703 440.581 32.6328C439.948 35.5156 439.022 38.668 437.804 42.0898L433.163 55.4844H448.139ZM510.436 77H500.698L484.561 53.7266L479.604 57.7695V77H471.202V25.6016H479.604V50.1406C481.901 47.3281 484.186 44.6211 486.46 42.0195L500.346 25.6016H509.909C500.932 36.1484 494.499 43.6602 490.608 48.1367L510.436 77ZM546.331 77H517.257V25.6016H546.331V32.7031H525.659V46.6953H545.03V53.7266H525.659V69.8633H546.331V77ZM608.065 77L602.932 62.7266H583.28L578.253 77H569.393L588.624 25.3906H597.764L616.995 77H608.065ZM600.718 55.4844L595.901 41.4922C595.55 40.5547 595.057 39.0781 594.425 37.0625C593.815 35.0469 593.393 33.5703 593.159 32.6328C592.526 35.5156 591.6 38.668 590.382 42.0898L585.741 55.4844H600.718ZM689.909 77H680.768L672.05 46.3438C671.675 45.0078 671.206 43.0859 670.643 40.5781C670.081 38.0469 669.741 36.2891 669.624 35.3047C669.389 36.8047 669.003 38.75 668.464 41.1406C667.948 43.5312 667.514 45.3125 667.163 46.4844L658.655 77H649.514L642.87 51.2656L636.12 25.6016H644.698L652.046 55.5547C653.194 60.3594 654.014 64.6016 654.507 68.2812C654.764 66.2891 655.151 64.0625 655.667 61.6016C656.182 59.1406 656.651 57.1484 657.073 55.625L665.44 25.6016H673.772L682.35 55.7656C683.171 58.5547 684.038 62.7266 684.952 68.2812C685.304 64.9297 686.147 60.6641 687.483 55.4844L694.796 25.6016H703.304L689.909 77ZM739.69 77H710.616V25.6016H739.69V32.7031H719.018V46.6953H738.389V53.7266H719.018V69.8633H739.69V77ZM750.835 25.6016H766.093C773.171 25.6016 778.28 26.6328 781.421 28.6953C784.585 30.7578 786.167 34.0156 786.167 38.4688C786.167 41.4688 785.393 43.9648 783.846 45.957C782.3 47.9492 780.073 49.2031 777.167 49.7188V50.0703C780.776 50.75 783.425 52.0977 785.112 54.1133C786.823 56.1055 787.679 58.8125 787.679 62.2344C787.679 66.8516 786.061 70.4727 782.827 73.0977C779.616 75.6992 775.139 77 769.397 77H750.835V25.6016ZM759.237 46.8359H767.323C770.839 46.8359 773.405 46.2852 775.022 45.1836C776.639 44.0586 777.448 42.1602 777.448 39.4883C777.448 37.0742 776.569 35.3281 774.811 34.25C773.077 33.1719 770.311 32.6328 766.514 32.6328H759.237V46.8359ZM759.237 53.6562V69.9336H768.167C771.682 69.9336 774.331 69.2656 776.112 67.9297C777.917 66.5703 778.819 64.4375 778.819 61.5312C778.819 58.8594 777.905 56.8789 776.077 55.5898C774.249 54.3008 771.471 53.6562 767.745 53.6562H759.237Z" transform="translate(29 307)" fill="#212529"/>
<path d="M0 0C31.1151 538.332 113.638 1018.29 230.657 1387.99V0H0Z" transform="translate(1228.99 570.668) rotate(90.0001)" fill="#EF4631"/>
<path d="M0 0C13.5283 516.713 73.0528 992.348 166.398 1381.5V0H0Z" transform="translate(1229 634.925) rotate(90.0001)" fill="#12ABE3"/>
<path d="M0.676409 0C-5.19087e-06 38.9156 5.16063e-06 77.8312 5.16063e-06 116.747C5.16063e-06 557.79 35.1736 972.89 98.0801 1333.94V0H0.676409Z" transform="translate(1229 703.921) rotate(90.0001)" fill="#2EB349"/>
<path d="M11.4991 0C4.05849 138.367 0 281.057 0 428.072C0 739.397 16.9104 1035.59 48.0254 1312.32V0H11.4991Z" transform="translate(1229 753.299) rotate(90.0001)" fill="#FFCD30"/>
</g>
<defs>
<clipPath id="clip0">
<rect width="1200" height="800" fill="white"/>
</clipPath>
</defs>
</svg>
