<svg width="1200" height="800" viewBox="0 0 1200 800" fill="none" xmlns="http://www.w3.org/2000/svg">
<g clip-path="url(#clip0)">
<rect width="1200" height="800" fill="white"/>
<rect width="1200" height="800" fill="white"/>
<path d="M0 0C31.1151 538.332 113.638 1018.29 230.657 1387.99V0H0Z" transform="translate(1228.99 570.668) rotate(90.0001)" fill="#EF4631"/>
<path d="M0 0C13.5283 516.713 73.0528 992.348 166.398 1381.5V0H0Z" transform="translate(1229 634.926) rotate(90.0001)" fill="#12ABE3"/>
<path d="M0.676409 0C-5.19087e-06 38.9156 5.16063e-06 77.8312 5.16063e-06 116.747C5.16063e-06 557.79 35.1736 972.89 98.0801 1333.94V0H0.676409Z" transform="translate(1229 703.921) rotate(90.0001)" fill="#2EB349"/>
<path d="M11.4991 0C4.05849 138.367 0 281.057 0 428.072C0 739.397 16.9104 1035.59 48.0254 1312.32V0H11.4991Z" transform="translate(1229 753.3) rotate(90.0001)" fill="#FFCD30"/>
<path d="M239.811 51L222.232 51.8438L222.092 35.6016H214.006L213.514 51H197.764L199.1 1.57031L215.834 2.34375L214.779 27.5859H222.584L222.654 0.445312L238.686 0.867188L239.811 51ZM286.972 24.0703C286.972 26.2031 286.726 28.2656 286.234 30.2578C285.741 32.2266 285.027 34.0781 284.089 35.8125C283.175 37.5469 282.05 39.1406 280.714 40.5938C279.402 42.0234 277.913 43.2539 276.249 44.2852C274.609 45.3164 272.816 46.125 270.87 46.7109C268.925 47.2734 266.863 47.5547 264.683 47.5547C262.574 47.5547 260.558 47.2852 258.636 46.7461C256.738 46.207 254.956 45.457 253.292 44.4961C251.628 43.5117 250.116 42.3398 248.757 40.9805C247.421 39.5977 246.273 38.0742 245.312 36.4102C244.374 34.7227 243.636 32.918 243.097 30.9961C242.581 29.0742 242.324 27.0703 242.324 24.9844C242.324 22.9453 242.57 20.9531 243.062 19.0078C243.554 17.0391 244.257 15.1875 245.171 13.4531C246.109 11.7188 247.234 10.125 248.546 8.67188C249.859 7.21875 251.324 5.96484 252.941 4.91016C254.581 3.85547 256.351 3.03516 258.249 2.44922C260.148 1.86328 262.152 1.57031 264.261 1.57031C267.659 1.57031 270.753 2.09766 273.542 3.15234C276.355 4.20703 278.745 5.71875 280.714 7.6875C282.706 9.63281 284.241 12 285.32 14.7891C286.421 17.5547 286.972 20.6484 286.972 24.0703ZM271.363 24.9844C271.363 23.9766 271.21 23.0039 270.906 22.0664C270.624 21.1055 270.202 20.2617 269.64 19.5352C269.077 18.7852 268.374 18.1875 267.531 17.7422C266.71 17.2734 265.761 17.0391 264.683 17.0391C263.581 17.0391 262.597 17.2383 261.73 17.6367C260.863 18.0352 260.113 18.5859 259.48 19.2891C258.87 19.9688 258.402 20.7773 258.074 21.7148C257.745 22.6289 257.581 23.6016 257.581 24.6328C257.581 25.6172 257.722 26.6016 258.003 27.5859C258.284 28.5703 258.706 29.4609 259.269 30.2578C259.831 31.0547 260.523 31.6992 261.343 32.1914C262.187 32.6836 263.159 32.9297 264.261 32.9297C265.363 32.9297 266.347 32.7188 267.214 32.2969C268.105 31.8516 268.855 31.2656 269.464 30.5391C270.074 29.7891 270.542 28.9336 270.87 27.9727C271.199 27.0117 271.363 26.0156 271.363 24.9844ZM352.661 2.20312L344.434 49.5234L324.465 49.9453L320.176 26.1094L315.887 48.1172L295.919 48.8203L287.622 3.60938L305.059 2.0625L308.575 29.8359L313.286 4.17188H326.997L332.481 30.1875L335.294 0.65625L352.661 2.20312ZM407.433 1.42969L407.081 16.3359L396.605 16.7578L395.339 49.3828L380.503 50.1562L379.167 17.5312L368.691 18.0938L369.112 1.5L407.433 1.42969ZM452.907 24.0703C452.907 26.2031 452.661 28.2656 452.168 30.2578C451.676 32.2266 450.961 34.0781 450.024 35.8125C449.11 37.5469 447.985 39.1406 446.649 40.5938C445.336 42.0234 443.848 43.2539 442.184 44.2852C440.543 45.3164 438.75 46.125 436.805 46.7109C434.86 47.2734 432.797 47.5547 430.618 47.5547C428.508 47.5547 426.493 47.2852 424.571 46.7461C422.672 46.207 420.891 45.457 419.227 44.4961C417.563 43.5117 416.051 42.3398 414.692 40.9805C413.356 39.5977 412.207 38.0742 411.246 36.4102C410.309 34.7227 409.571 32.918 409.032 30.9961C408.516 29.0742 408.258 27.0703 408.258 24.9844C408.258 22.9453 408.504 20.9531 408.996 19.0078C409.489 17.0391 410.192 15.1875 411.106 13.4531C412.043 11.7188 413.168 10.125 414.481 8.67188C415.793 7.21875 417.258 5.96484 418.875 4.91016C420.516 3.85547 422.286 3.03516 424.184 2.44922C426.082 1.86328 428.086 1.57031 430.196 1.57031C433.594 1.57031 436.688 2.09766 439.477 3.15234C442.289 4.20703 444.68 5.71875 446.649 7.6875C448.641 9.63281 450.176 12 451.254 14.7891C452.356 17.5547 452.907 20.6484 452.907 24.0703ZM437.297 24.9844C437.297 23.9766 437.145 23.0039 436.84 22.0664C436.559 21.1055 436.137 20.2617 435.575 19.5352C435.012 18.7852 434.309 18.1875 433.465 17.7422C432.645 17.2734 431.696 17.0391 430.618 17.0391C429.516 17.0391 428.532 17.2383 427.664 17.6367C426.797 18.0352 426.047 18.5859 425.414 19.2891C424.805 19.9688 424.336 20.7773 424.008 21.7148C423.68 22.6289 423.516 23.6016 423.516 24.6328C423.516 25.6172 423.657 26.6016 423.938 27.5859C424.219 28.5703 424.641 29.4609 425.204 30.2578C425.766 31.0547 426.457 31.6992 427.278 32.1914C428.121 32.6836 429.094 32.9297 430.196 32.9297C431.297 32.9297 432.282 32.7188 433.149 32.2969C434.039 31.8516 434.789 31.2656 435.399 30.5391C436.008 29.7891 436.477 28.9336 436.805 27.9727C437.133 27.0117 437.297 26.0156 437.297 24.9844ZM510.104 22.5938C510.104 24.6328 509.964 26.6719 509.683 28.7109C505.675 28.9688 501.69 29.3906 497.729 29.9766C493.769 30.5391 489.808 31.1016 485.847 31.6641C486.456 33.3516 487.405 34.6992 488.694 35.707C490.007 36.7148 491.565 37.2188 493.37 37.2188C494.308 37.2188 495.327 37.043 496.429 36.6914C497.554 36.3398 498.667 35.9062 499.769 35.3906C500.87 34.8516 501.925 34.2773 502.933 33.668C503.94 33.0586 504.808 32.5078 505.534 32.0156L503.847 47.9766C502.933 48.6797 501.936 49.2773 500.858 49.7695C499.804 50.2617 498.702 50.6602 497.554 50.9648C496.405 51.2695 495.245 51.4922 494.073 51.6328C492.901 51.7734 491.753 51.8438 490.628 51.8438C488.308 51.8438 486.186 51.5273 484.265 50.8945C482.343 50.2617 480.597 49.3828 479.026 48.2578C477.479 47.1094 476.12 45.7617 474.948 44.2148C473.776 42.668 472.804 40.9805 472.03 39.1523C471.257 37.3242 470.671 35.3906 470.272 33.3516C469.874 31.3125 469.675 29.25 469.675 27.1641C469.675 24.9844 469.874 22.8047 470.272 20.625C470.671 18.4453 471.269 16.3477 472.065 14.332C472.886 12.3164 473.905 10.4531 475.124 8.74219C476.366 7.00781 477.808 5.49609 479.448 4.20703C481.089 2.91797 482.94 1.91016 485.003 1.18359C487.089 0.457031 489.386 0.09375 491.894 0.09375C493.979 0.09375 495.878 0.386719 497.589 0.972656C499.323 1.53516 500.858 2.33203 502.194 3.36328C503.554 4.37109 504.726 5.57812 505.71 6.98438C506.718 8.39062 507.538 9.9375 508.171 11.625C508.827 13.2891 509.308 15.0586 509.612 16.9336C509.94 18.7852 510.104 20.6719 510.104 22.5938ZM496.042 20.7656C496.042 20.1094 495.972 19.4414 495.831 18.7617C495.69 18.0586 495.456 17.4258 495.128 16.8633C494.823 16.3008 494.413 15.8438 493.897 15.4922C493.382 15.1172 492.737 14.9297 491.964 14.9297C491.026 14.9297 490.194 15.1875 489.468 15.7031C488.765 16.1953 488.155 16.8281 487.64 17.6016C487.124 18.3516 486.702 19.1719 486.374 20.0625C486.046 20.9531 485.8 21.7734 485.636 22.5234L496.042 21.5391V20.7656ZM552.977 23.0859C552.977 26.3672 552.555 29.3086 551.711 31.9102C550.867 34.5117 549.684 36.8203 548.16 38.8359C546.66 40.8281 544.867 42.5273 542.781 43.9336C540.696 45.3398 538.41 46.5 535.926 47.4141C533.442 48.3047 530.793 48.9609 527.981 49.3828C525.192 49.8047 522.321 50.0156 519.367 50.0156C518.266 50.0156 517.188 49.9922 516.133 49.9453C515.078 49.875 514 49.7812 512.899 49.6641L513.883 3.89062C516.461 3.07031 519.11 2.49609 521.828 2.16797C524.571 1.81641 527.289 1.64062 529.985 1.64062C533.336 1.64062 536.418 2.10937 539.231 3.04688C542.043 3.98438 544.469 5.36719 546.508 7.19531C548.547 9 550.129 11.2383 551.254 13.9102C552.403 16.5586 552.977 19.6172 552.977 23.0859ZM529.071 36.5859C530.477 36.375 531.754 35.9531 532.903 35.3203C534.074 34.6641 535.082 33.8672 535.926 32.9297C536.77 31.9688 537.414 30.8906 537.86 29.6953C538.328 28.4766 538.563 27.1875 538.563 25.8281C538.563 24.4922 538.422 23.25 538.141 22.1016C537.86 20.9297 537.403 19.9219 536.77 19.0781C536.137 18.2109 535.305 17.5312 534.274 17.0391C533.242 16.5234 531.977 16.2422 530.477 16.1953L529.071 36.5859ZM574.263 1.5L571.802 49.3828L556.966 50.1562L555.56 2.48438L574.263 1.5ZM615.096 1.42969L614.745 16.3359L604.268 16.7578L603.003 49.3828L588.167 50.1562L586.831 17.5312L576.354 18.0938L576.776 1.5L615.096 1.42969ZM666.142 2.97656L664.876 17.8125C664.197 17.625 663.529 17.4961 662.872 17.4258C662.216 17.3555 661.548 17.3203 660.869 17.3203C659.204 17.3203 657.611 17.5312 656.087 17.9531C654.587 18.375 653.251 19.0195 652.079 19.8867C650.931 20.7539 650.005 21.8555 649.302 23.1914C648.622 24.5039 648.283 26.0625 648.283 27.8672C648.283 29.1797 648.47 30.3281 648.845 31.3125C649.244 32.2734 649.794 33.082 650.497 33.7383C651.224 34.3711 652.091 34.8516 653.099 35.1797C654.13 35.5078 655.267 35.6719 656.509 35.6719C657.376 35.6719 658.267 35.5898 659.181 35.4258C660.095 35.2383 661.009 34.9922 661.923 34.6875C662.837 34.3828 663.716 34.0312 664.56 33.6328C665.404 33.2344 666.189 32.8125 666.915 32.3672L666.353 48.8906C665.439 49.3594 664.454 49.7812 663.4 50.1562C662.345 50.5078 661.255 50.8125 660.13 51.0703C659.029 51.3516 657.915 51.5625 656.79 51.7031C655.689 51.8438 654.634 51.9141 653.626 51.9141C650.298 51.9141 647.263 51.293 644.521 50.0508C641.802 48.8086 639.458 47.1211 637.49 44.9883C635.544 42.832 634.033 40.3359 632.954 37.5C631.876 34.6641 631.337 31.6406 631.337 28.4297C631.337 24.5859 631.876 21 632.954 17.6719C634.056 14.3437 635.661 11.4609 637.771 9.02344C639.904 6.5625 642.529 4.64062 645.646 3.25781C648.786 1.85156 652.384 1.14844 656.439 1.14844C658.056 1.14844 659.697 1.27734 661.361 1.53516C663.025 1.79297 664.619 2.27344 666.142 2.97656ZM713.057 24.0703C713.057 26.2031 712.811 28.2656 712.319 30.2578C711.827 32.2266 711.112 34.0781 710.174 35.8125C709.26 37.5469 708.135 39.1406 706.799 40.5938C705.487 42.0234 703.999 43.2539 702.335 44.2852C700.694 45.3164 698.901 46.125 696.956 46.7109C695.01 47.2734 692.948 47.5547 690.768 47.5547C688.659 47.5547 686.643 47.2852 684.721 46.7461C682.823 46.207 681.042 45.457 679.378 44.4961C677.714 43.5117 676.202 42.3398 674.842 40.9805C673.506 39.5977 672.358 38.0742 671.397 36.4102C670.46 34.7227 669.721 32.918 669.182 30.9961C668.667 29.0742 668.409 27.0703 668.409 24.9844C668.409 22.9453 668.655 20.9531 669.147 19.0078C669.639 17.0391 670.342 15.1875 671.256 13.4531C672.194 11.7188 673.319 10.125 674.631 8.67188C675.944 7.21875 677.409 5.96484 679.026 4.91016C680.667 3.85547 682.436 3.03516 684.335 2.44922C686.233 1.86328 688.237 1.57031 690.346 1.57031C693.745 1.57031 696.839 2.09766 699.628 3.15234C702.44 4.20703 704.831 5.71875 706.799 7.6875C708.792 9.63281 710.327 12 711.405 14.7891C712.506 17.5547 713.057 20.6484 713.057 24.0703ZM697.448 24.9844C697.448 23.9766 697.296 23.0039 696.991 22.0664C696.71 21.1055 696.288 20.2617 695.725 19.5352C695.163 18.7852 694.46 18.1875 693.616 17.7422C692.796 17.2734 691.846 17.0391 690.768 17.0391C689.667 17.0391 688.682 17.2383 687.815 17.6367C686.948 18.0352 686.198 18.5859 685.565 19.2891C684.956 19.9688 684.487 20.7773 684.159 21.7148C683.831 22.6289 683.667 23.6016 683.667 24.6328C683.667 25.6172 683.807 26.6016 684.089 27.5859C684.37 28.5703 684.792 29.4609 685.354 30.2578C685.917 31.0547 686.608 31.6992 687.428 32.1914C688.272 32.6836 689.245 32.9297 690.346 32.9297C691.448 32.9297 692.432 32.7188 693.299 32.2969C694.19 31.8516 694.94 31.2656 695.549 30.5391C696.159 29.7891 696.628 28.9336 696.956 27.9727C697.284 27.0117 697.448 26.0156 697.448 24.9844ZM759.445 33.2109C759.445 35.8594 759.41 38.4844 759.34 41.0859C759.293 43.6641 759.211 46.2656 759.094 48.8906L738.844 48.5391C739.547 44.3906 740.156 40.2539 740.672 36.1289C741.187 31.9805 741.445 27.7969 741.445 23.5781C741.445 23.2734 741.434 22.7812 741.41 22.1016C741.387 21.4219 741.34 20.6602 741.269 19.8164C741.199 18.9492 741.094 18.0703 740.953 17.1797C740.836 16.2656 740.66 15.4336 740.426 14.6836C740.215 13.9336 739.945 13.3242 739.617 12.8555C739.312 12.3633 738.937 12.1172 738.492 12.1172C737.695 12.1172 737.016 12.3516 736.453 12.8203C735.914 13.2891 735.457 13.8984 735.082 14.6484C734.73 15.375 734.449 16.1953 734.238 17.1094C734.027 18.0234 733.863 18.9375 733.746 19.8516C733.652 20.7656 733.582 21.6328 733.535 22.4531C733.512 23.25 733.5 23.9062 733.5 24.4219C733.383 28.5703 733.289 32.6953 733.219 36.7969C733.148 40.875 733.055 45 732.937 49.1719L715.008 49.9453C715.477 41.6719 715.922 33.4453 716.344 25.2656C716.789 17.0859 717.141 8.85937 717.398 0.585938L733.992 -0.257812L733.852 5.36719C734.508 4.57031 735.211 3.82031 735.961 3.11719C736.734 2.41406 737.555 1.81641 738.422 1.32422C739.289 0.808594 740.203 0.410156 741.164 0.128906C742.148 -0.175781 743.18 -0.328125 744.258 -0.328125C746.25 -0.328125 747.996 0 749.496 0.65625C750.996 1.3125 752.285 2.20312 753.363 3.32812C754.441 4.45312 755.344 5.78906 756.07 7.33594C756.797 8.85937 757.383 10.4883 757.828 12.2227C758.273 13.957 758.613 15.7734 758.848 17.6719C759.082 19.5469 759.234 21.3984 759.305 23.2266C759.398 25.0547 759.445 26.8242 759.445 28.5352C759.445 30.2461 759.445 31.8047 759.445 33.2109ZM800.736 1.42969L800.384 16.3359L789.907 16.7578L788.642 49.3828L773.806 50.1562L772.47 17.5312L761.993 18.0938L762.415 1.5L800.736 1.42969ZM841.991 22.5938C841.991 24.6328 841.85 26.6719 841.569 28.7109C837.561 28.9688 833.577 29.3906 829.616 29.9766C825.655 30.5391 821.694 31.1016 817.733 31.6641C818.342 33.3516 819.292 34.6992 820.581 35.707C821.893 36.7148 823.452 37.2188 825.256 37.2188C826.194 37.2188 827.213 37.043 828.315 36.6914C829.44 36.3398 830.553 35.9062 831.655 35.3906C832.756 34.8516 833.811 34.2773 834.819 33.668C835.827 33.0586 836.694 32.5078 837.42 32.0156L835.733 47.9766C834.819 48.6797 833.823 49.2773 832.745 49.7695C831.69 50.2617 830.588 50.6602 829.44 50.9648C828.292 51.2695 827.131 51.4922 825.959 51.6328C824.788 51.7734 823.639 51.8438 822.514 51.8438C820.194 51.8438 818.073 51.5273 816.151 50.8945C814.229 50.2617 812.483 49.3828 810.913 48.2578C809.366 47.1094 808.006 45.7617 806.834 44.2148C805.663 42.668 804.69 40.9805 803.917 39.1523C803.143 37.3242 802.557 35.3906 802.159 33.3516C801.76 31.3125 801.561 29.25 801.561 27.1641C801.561 24.9844 801.76 22.8047 802.159 20.625C802.557 18.4453 803.155 16.3477 803.952 14.332C804.772 12.3164 805.792 10.4531 807.01 8.74219C808.252 7.00781 809.694 5.49609 811.334 4.20703C812.975 2.91797 814.827 1.91016 816.889 1.18359C818.975 0.457031 821.272 0.09375 823.78 0.09375C825.866 0.09375 827.764 0.386719 829.475 0.972656C831.209 1.53516 832.745 2.33203 834.081 3.36328C835.44 4.37109 836.612 5.57812 837.596 6.98438C838.604 8.39062 839.424 9.9375 840.057 11.625C840.713 13.2891 841.194 15.0586 841.499 16.9336C841.827 18.7852 841.991 20.6719 841.991 22.5938ZM827.928 20.7656C827.928 20.1094 827.858 19.4414 827.717 18.7617C827.577 18.0586 827.342 17.4258 827.014 16.8633C826.709 16.3008 826.299 15.8438 825.784 15.4922C825.268 15.1172 824.624 14.9297 823.85 14.9297C822.913 14.9297 822.081 15.1875 821.354 15.7031C820.651 16.1953 820.042 16.8281 819.526 17.6016C819.01 18.3516 818.588 19.1719 818.26 20.0625C817.932 20.9531 817.686 21.7734 817.522 22.5234L827.928 21.5391V20.7656ZM888.66 33.2109C888.66 35.8594 888.625 38.4844 888.554 41.0859C888.508 43.6641 888.426 46.2656 888.308 48.8906L868.058 48.5391C868.761 44.3906 869.371 40.2539 869.886 36.1289C870.402 31.9805 870.66 27.7969 870.66 23.5781C870.66 23.2734 870.648 22.7812 870.625 22.1016C870.601 21.4219 870.554 20.6602 870.484 19.8164C870.414 18.9492 870.308 18.0703 870.168 17.1797C870.051 16.2656 869.875 15.4336 869.64 14.6836C869.429 13.9336 869.16 13.3242 868.832 12.8555C868.527 12.3633 868.152 12.1172 867.707 12.1172C866.91 12.1172 866.23 12.3516 865.668 12.8203C865.129 13.2891 864.672 13.8984 864.297 14.6484C863.945 15.375 863.664 16.1953 863.453 17.1094C863.242 18.0234 863.078 18.9375 862.961 19.8516C862.867 20.7656 862.797 21.6328 862.75 22.4531C862.726 23.25 862.715 23.9062 862.715 24.4219C862.597 28.5703 862.504 32.6953 862.433 36.7969C862.363 40.875 862.269 45 862.152 49.1719L844.222 49.9453C844.691 41.6719 845.136 33.4453 845.558 25.2656C846.004 17.0859 846.355 8.85937 846.613 0.585938L863.207 -0.257812L863.066 5.36719C863.722 4.57031 864.426 3.82031 865.176 3.11719C865.949 2.41406 866.769 1.81641 867.636 1.32422C868.504 0.808594 869.418 0.410156 870.379 0.128906C871.363 -0.175781 872.394 -0.328125 873.472 -0.328125C875.465 -0.328125 877.211 0 878.711 0.65625C880.211 1.3125 881.5 2.20312 882.578 3.32812C883.656 4.45312 884.558 5.78906 885.285 7.33594C886.011 8.85937 886.597 10.4883 887.043 12.2227C887.488 13.957 887.828 15.7734 888.062 17.6719C888.297 19.5469 888.449 21.3984 888.519 23.2266C888.613 25.0547 888.66 26.8242 888.66 28.5352C888.66 30.2461 888.66 31.8047 888.66 33.2109ZM929.95 1.42969L929.599 16.3359L919.122 16.7578L917.857 49.3828L903.021 50.1562L901.685 17.5312L891.208 18.0938L891.63 1.5L929.95 1.42969ZM345.663 73.5L343.202 121.383L328.366 122.156L326.96 74.4844L345.663 73.5ZM392.895 105.211C392.895 107.859 392.86 110.484 392.789 113.086C392.743 115.664 392.661 118.266 392.543 120.891L372.293 120.539C372.996 116.391 373.606 112.254 374.121 108.129C374.637 103.98 374.895 99.7969 374.895 95.5781C374.895 95.2734 374.883 94.7812 374.86 94.1016C374.836 93.4219 374.789 92.6602 374.719 91.8164C374.649 90.9492 374.543 90.0703 374.403 89.1797C374.286 88.2656 374.11 87.4336 373.875 86.6836C373.664 85.9336 373.395 85.3242 373.067 84.8555C372.762 84.3633 372.387 84.1172 371.942 84.1172C371.145 84.1172 370.465 84.3516 369.903 84.8203C369.364 85.2891 368.907 85.8984 368.532 86.6484C368.18 87.375 367.899 88.1953 367.688 89.1094C367.477 90.0234 367.313 90.9375 367.196 91.8516C367.102 92.7656 367.032 93.6328 366.985 94.4531C366.961 95.25 366.95 95.9062 366.95 96.4219C366.832 100.57 366.739 104.695 366.668 108.797C366.598 112.875 366.504 117 366.387 121.172L348.457 121.945C348.926 113.672 349.371 105.445 349.793 97.2656C350.239 89.0859 350.59 80.8594 350.848 72.5859L367.442 71.7422L367.301 77.3672C367.957 76.5703 368.661 75.8203 369.411 75.1172C370.184 74.4141 371.004 73.8164 371.871 73.3242C372.739 72.8086 373.653 72.4102 374.614 72.1289C375.598 71.8242 376.629 71.6719 377.707 71.6719C379.7 71.6719 381.446 72 382.946 72.6562C384.446 73.3125 385.735 74.2031 386.813 75.3281C387.891 76.4531 388.793 77.7891 389.52 79.3359C390.246 80.8594 390.832 82.4883 391.278 84.2227C391.723 85.957 392.063 87.7734 392.297 89.6719C392.532 91.5469 392.684 93.3984 392.754 95.2266C392.848 97.0547 392.895 98.8242 392.895 100.535C392.895 102.246 392.895 103.805 392.895 105.211ZM475.159 74.2031L466.933 122.93L446.964 123.352L442.675 98.1094L438.386 121.523L418.417 122.227L410.12 74.2031L427.558 72.6562L431.073 101.836L435.784 72.6562H449.495L454.979 102.188L457.792 72.6562L475.159 74.2031ZM520.246 96.0703C520.246 98.2031 520 100.266 519.508 102.258C519.016 104.227 518.301 106.078 517.364 107.812C516.449 109.547 515.324 111.141 513.989 112.594C512.676 114.023 511.188 115.254 509.524 116.285C507.883 117.316 506.09 118.125 504.145 118.711C502.199 119.273 500.137 119.555 497.957 119.555C495.848 119.555 493.832 119.285 491.91 118.746C490.012 118.207 488.231 117.457 486.567 116.496C484.903 115.512 483.391 114.34 482.031 112.98C480.696 111.598 479.547 110.074 478.586 108.41C477.649 106.723 476.91 104.918 476.371 102.996C475.856 101.074 475.598 99.0703 475.598 96.9844C475.598 94.9453 475.844 92.9531 476.336 91.0078C476.828 89.0391 477.531 87.1875 478.446 85.4531C479.383 83.7188 480.508 82.125 481.821 80.6719C483.133 79.2188 484.598 77.9648 486.215 76.9102C487.856 75.8555 489.625 75.0352 491.524 74.4492C493.422 73.8633 495.426 73.5703 497.535 73.5703C500.934 73.5703 504.028 74.0977 506.817 75.1523C509.629 76.207 512.02 77.7188 513.989 79.6875C515.981 81.6328 517.516 84 518.594 86.7891C519.696 89.5547 520.246 92.6484 520.246 96.0703ZM504.637 96.9844C504.637 95.9766 504.485 95.0039 504.18 94.0664C503.899 93.1055 503.477 92.2617 502.914 91.5352C502.352 90.7852 501.649 90.1875 500.805 89.7422C499.985 89.2734 499.035 89.0391 497.957 89.0391C496.856 89.0391 495.871 89.2383 495.004 89.6367C494.137 90.0352 493.387 90.5859 492.754 91.2891C492.145 91.9688 491.676 92.7773 491.348 93.7148C491.02 94.6289 490.856 95.6016 490.856 96.6328C490.856 97.6172 490.996 98.6016 491.278 99.5859C491.559 100.57 491.981 101.461 492.543 102.258C493.106 103.055 493.797 103.699 494.617 104.191C495.461 104.684 496.434 104.93 497.535 104.93C498.637 104.93 499.621 104.719 500.489 104.297C501.379 103.852 502.129 103.266 502.739 102.539C503.348 101.789 503.817 100.934 504.145 99.9727C504.473 99.0117 504.637 98.0156 504.637 96.9844ZM564.63 89.1094C564.63 90.9375 564.466 92.6016 564.138 94.1016C563.833 95.5781 563.341 96.9375 562.662 98.1797C561.982 99.4219 561.103 100.57 560.025 101.625C558.947 102.68 557.646 103.688 556.123 104.648L564.49 119.555L548.669 122.648L543.255 107.672L538.896 107.812L538.263 122.438H523.146C523.263 117.094 523.369 111.773 523.462 106.477C523.58 101.18 523.708 95.8594 523.849 90.5156C523.896 87.8203 523.943 85.1484 523.99 82.5C524.037 79.8516 524.13 77.1797 524.271 74.4844C525.912 73.875 527.529 73.3711 529.123 72.9727C530.716 72.5742 532.31 72.2695 533.904 72.0586C535.521 71.8242 537.15 71.6719 538.791 71.6016C540.455 71.5078 542.154 71.4609 543.888 71.4609C546.56 71.4609 549.138 71.8359 551.623 72.5859C554.13 73.3125 556.345 74.4141 558.267 75.8906C560.189 77.3672 561.724 79.207 562.873 81.4102C564.044 83.6133 564.63 86.1797 564.63 89.1094ZM548.88 90.2344C548.88 89.25 548.74 88.3477 548.458 87.5273C548.201 86.707 547.802 86.0039 547.263 85.418C546.748 84.8086 546.091 84.3398 545.294 84.0117C544.521 83.6602 543.607 83.4844 542.552 83.4844C542.083 83.4844 541.626 83.5195 541.181 83.5898C540.736 83.6367 540.302 83.7188 539.88 83.8359L539.318 96.9141H540.162C541.169 96.9141 542.189 96.7852 543.22 96.5273C544.275 96.2695 545.212 95.8711 546.033 95.332C546.876 94.793 547.556 94.1016 548.072 93.2578C548.611 92.4141 548.88 91.4062 548.88 90.2344ZM607.643 95.0859C607.643 98.3672 607.221 101.309 606.378 103.91C605.534 106.512 604.35 108.82 602.827 110.836C601.327 112.828 599.534 114.527 597.448 115.934C595.362 117.34 593.077 118.5 590.593 119.414C588.108 120.305 585.46 120.961 582.647 121.383C579.858 121.805 576.987 122.016 574.034 122.016C572.932 122.016 571.854 121.992 570.8 121.945C569.745 121.875 568.667 121.781 567.565 121.664L568.55 75.8906C571.128 75.0703 573.776 74.4961 576.495 74.168C579.237 73.8164 581.956 73.6406 584.651 73.6406C588.003 73.6406 591.085 74.1094 593.897 75.0469C596.71 75.9844 599.136 77.3672 601.175 79.1953C603.214 81 604.796 83.2383 605.921 85.9102C607.069 88.5586 607.643 91.6172 607.643 95.0859ZM583.737 108.586C585.143 108.375 586.421 107.953 587.569 107.32C588.741 106.664 589.749 105.867 590.593 104.93C591.436 103.969 592.081 102.891 592.526 101.695C592.995 100.477 593.229 99.1875 593.229 97.8281C593.229 96.4922 593.089 95.25 592.807 94.1016C592.526 92.9297 592.069 91.9219 591.436 91.0781C590.804 90.2109 589.971 89.5312 588.94 89.0391C587.909 88.5234 586.643 88.2422 585.143 88.1953L583.737 108.586ZM651.535 89.1797C651.535 91.4531 651.195 93.4688 650.516 95.2266C649.836 96.9844 648.899 98.5195 647.703 99.832C646.531 101.145 645.149 102.258 643.555 103.172C641.961 104.086 640.25 104.836 638.422 105.422C636.617 105.984 634.742 106.406 632.797 106.688C630.852 106.945 628.942 107.086 627.067 107.109V123.492H610.684C610.684 118.125 610.695 112.781 610.719 107.461C610.742 102.141 610.777 96.7734 610.824 91.3594C610.871 88.5 610.883 85.6406 610.859 82.7812C610.836 79.9219 610.895 77.0391 611.035 74.1328C614.035 73.2422 617.035 72.5742 620.035 72.1289C623.035 71.6836 626.129 71.4609 629.317 71.4609C631.121 71.4609 632.926 71.6133 634.731 71.918C636.535 72.1992 638.258 72.6562 639.899 73.2891C641.563 73.9219 643.098 74.7188 644.504 75.6797C645.934 76.6172 647.164 77.7422 648.195 79.0547C649.227 80.3672 650.035 81.8672 650.621 83.5547C651.231 85.2188 651.535 87.0938 651.535 89.1797ZM635.926 90.375C635.926 88.8516 635.457 87.668 634.52 86.8242C633.606 85.957 632.41 85.5234 630.934 85.5234C630.442 85.5234 629.926 85.5703 629.387 85.6641C628.871 85.7344 628.379 85.8281 627.91 85.9453L627.488 96.2109C627.817 96.2578 628.133 96.2812 628.438 96.2812C628.742 96.2812 629.059 96.2812 629.387 96.2812C630.231 96.2812 631.039 96.1406 631.813 95.8594C632.609 95.5781 633.313 95.1797 633.922 94.6641C634.531 94.125 635.012 93.5039 635.363 92.8008C635.738 92.0742 635.926 91.2656 635.926 90.375ZM695.392 89.1094C695.392 90.9375 695.228 92.6016 694.9 94.1016C694.595 95.5781 694.103 96.9375 693.423 98.1797C692.744 99.4219 691.865 100.57 690.786 101.625C689.708 102.68 688.408 103.688 686.884 104.648L695.251 119.555L679.431 122.648L674.017 107.672L669.658 107.812L669.025 122.438H653.908C654.025 117.094 654.13 111.773 654.224 106.477C654.341 101.18 654.47 95.8594 654.611 90.5156C654.658 87.8203 654.704 85.1484 654.751 82.5C654.798 79.8516 654.892 77.1797 655.033 74.4844C656.673 73.875 658.29 73.3711 659.884 72.9727C661.478 72.5742 663.072 72.2695 664.665 72.0586C666.283 71.8242 667.911 71.6719 669.552 71.6016C671.216 71.5078 672.915 71.4609 674.65 71.4609C677.322 71.4609 679.9 71.8359 682.384 72.5859C684.892 73.3125 687.107 74.4141 689.029 75.8906C690.951 77.3672 692.486 79.207 693.634 81.4102C694.806 83.6133 695.392 86.1797 695.392 89.1094ZM679.642 90.2344C679.642 89.25 679.501 88.3477 679.22 87.5273C678.962 86.707 678.564 86.0039 678.025 85.418C677.509 84.8086 676.853 84.3398 676.056 84.0117C675.283 83.6602 674.369 83.4844 673.314 83.4844C672.845 83.4844 672.388 83.5195 671.943 83.5898C671.497 83.6367 671.064 83.7188 670.642 83.8359L670.079 96.9141H670.923C671.931 96.9141 672.951 96.7852 673.982 96.5273C675.036 96.2695 675.974 95.8711 676.794 95.332C677.638 94.793 678.318 94.1016 678.833 93.2578C679.372 92.4141 679.642 91.4062 679.642 90.2344ZM737.456 94.5938C737.456 96.6328 737.315 98.6719 737.034 100.711C733.026 100.969 729.042 101.391 725.081 101.977C721.12 102.539 717.159 103.102 713.198 103.664C713.807 105.352 714.756 106.699 716.046 107.707C717.358 108.715 718.917 109.219 720.721 109.219C721.659 109.219 722.678 109.043 723.78 108.691C724.905 108.34 726.018 107.906 727.12 107.391C728.221 106.852 729.276 106.277 730.284 105.668C731.292 105.059 732.159 104.508 732.885 104.016L731.198 119.977C730.284 120.68 729.288 121.277 728.21 121.77C727.155 122.262 726.053 122.66 724.905 122.965C723.756 123.27 722.596 123.492 721.424 123.633C720.253 123.773 719.104 123.844 717.979 123.844C715.659 123.844 713.538 123.527 711.616 122.895C709.694 122.262 707.948 121.383 706.378 120.258C704.831 119.109 703.471 117.762 702.299 116.215C701.128 114.668 700.155 112.98 699.381 111.152C698.608 109.324 698.022 107.391 697.624 105.352C697.225 103.312 697.026 101.25 697.026 99.1641C697.026 96.9844 697.225 94.8047 697.624 92.625C698.022 90.4453 698.62 88.3477 699.417 86.332C700.237 84.3164 701.256 82.4531 702.475 80.7422C703.717 79.0078 705.159 77.4961 706.799 76.207C708.44 74.918 710.292 73.9102 712.354 73.1836C714.44 72.457 716.737 72.0938 719.245 72.0938C721.331 72.0938 723.229 72.3867 724.94 72.9727C726.674 73.5352 728.21 74.332 729.546 75.3633C730.905 76.3711 732.077 77.5781 733.061 78.9844C734.069 80.3906 734.889 81.9375 735.522 83.625C736.178 85.2891 736.659 87.0586 736.964 88.9336C737.292 90.7852 737.456 92.6719 737.456 94.5938ZM723.393 92.7656C723.393 92.1094 723.323 91.4414 723.182 90.7617C723.042 90.0586 722.807 89.4258 722.479 88.8633C722.174 88.3008 721.764 87.8438 721.249 87.4922C720.733 87.1172 720.089 86.9297 719.315 86.9297C718.378 86.9297 717.546 87.1875 716.819 87.7031C716.116 88.1953 715.506 88.8281 714.991 89.6016C714.475 90.3516 714.053 91.1719 713.725 92.0625C713.397 92.9531 713.151 93.7734 712.987 94.5234L723.393 93.5391V92.7656ZM776.531 105C776.531 108.211 775.969 110.988 774.844 113.332C773.742 115.652 772.219 117.574 770.273 119.098C768.352 120.598 766.09 121.711 763.488 122.438C760.91 123.141 758.133 123.492 755.156 123.492C754.008 123.492 752.742 123.34 751.359 123.035C750 122.73 748.617 122.355 747.211 121.91C745.805 121.441 744.445 120.949 743.133 120.434C741.844 119.895 740.695 119.391 739.687 118.922L741.234 105.141C743.227 106.336 745.43 107.25 747.844 107.883C750.281 108.492 752.672 108.797 755.016 108.797C755.461 108.797 756 108.785 756.633 108.762C757.266 108.715 757.863 108.609 758.426 108.445C759.012 108.258 759.504 107.988 759.902 107.637C760.301 107.285 760.5 106.781 760.5 106.125C760.5 105.68 760.359 105.305 760.078 105C759.797 104.672 759.434 104.414 758.988 104.227C758.543 104.016 758.039 103.863 757.477 103.77C756.914 103.652 756.363 103.57 755.824 103.523C755.285 103.477 754.781 103.453 754.312 103.453C753.844 103.453 753.469 103.453 753.187 103.453C751.172 103.453 749.332 103.137 747.668 102.504C746.027 101.871 744.609 100.98 743.414 99.832C742.242 98.6602 741.328 97.2539 740.672 95.6133C740.016 93.9492 739.687 92.1094 739.687 90.0938C739.687 87.3281 740.238 84.8555 741.34 82.6758C742.465 80.4727 743.953 78.6094 745.805 77.0859C747.68 75.5391 749.824 74.3555 752.238 73.5352C754.652 72.7148 757.148 72.3047 759.727 72.3047C760.875 72.3047 762.059 72.3516 763.277 72.4453C764.496 72.5156 765.703 72.6562 766.898 72.8672C768.117 73.0781 769.301 73.3477 770.449 73.6758C771.598 74.0039 772.687 74.4141 773.719 74.9062L772.383 89.1797C770.789 88.6406 769.113 88.1953 767.355 87.8438C765.621 87.4688 763.922 87.2812 762.258 87.2812C761.953 87.2812 761.555 87.293 761.062 87.3164C760.594 87.3164 760.09 87.3516 759.551 87.4219C759.035 87.4688 758.508 87.5508 757.969 87.668C757.43 87.7852 756.949 87.9492 756.527 88.1602C756.105 88.3477 755.766 88.6055 755.508 88.9336C755.25 89.2617 755.133 89.6484 755.156 90.0938C755.18 90.6094 755.367 91.0078 755.719 91.2891C756.094 91.5703 756.562 91.7812 757.125 91.9219C757.711 92.0391 758.344 92.0977 759.023 92.0977C759.727 92.0977 760.418 92.0859 761.098 92.0625C761.777 92.0156 762.41 91.9805 762.996 91.957C763.582 91.9102 764.062 91.8984 764.437 91.9219C766.312 92.0391 768 92.4375 769.5 93.1172C771 93.7969 772.266 94.6992 773.297 95.8242C774.352 96.9492 775.148 98.2969 775.687 99.8672C776.25 101.414 776.531 103.125 776.531 105ZM815.22 105C815.22 108.211 814.657 110.988 813.532 113.332C812.431 115.652 810.907 117.574 808.962 119.098C807.04 120.598 804.779 121.711 802.177 122.438C799.599 123.141 796.822 123.492 793.845 123.492C792.697 123.492 791.431 123.34 790.048 123.035C788.689 122.73 787.306 122.355 785.9 121.91C784.493 121.441 783.134 120.949 781.822 120.434C780.532 119.895 779.384 119.391 778.376 118.922L779.923 105.141C781.915 106.336 784.118 107.25 786.532 107.883C788.97 108.492 791.361 108.797 793.704 108.797C794.15 108.797 794.689 108.785 795.322 108.762C795.954 108.715 796.552 108.609 797.115 108.445C797.7 108.258 798.193 107.988 798.591 107.637C798.99 107.285 799.189 106.781 799.189 106.125C799.189 105.68 799.048 105.305 798.767 105C798.486 104.672 798.122 104.414 797.677 104.227C797.232 104.016 796.728 103.863 796.165 103.77C795.603 103.652 795.052 103.57 794.513 103.523C793.974 103.477 793.47 103.453 793.001 103.453C792.532 103.453 792.157 103.453 791.876 103.453C789.861 103.453 788.021 103.137 786.357 102.504C784.716 101.871 783.298 100.98 782.103 99.832C780.931 98.6602 780.017 97.2539 779.361 95.6133C778.704 93.9492 778.376 92.1094 778.376 90.0938C778.376 87.3281 778.927 84.8555 780.029 82.6758C781.154 80.4727 782.642 78.6094 784.493 77.0859C786.368 75.5391 788.513 74.3555 790.927 73.5352C793.341 72.7148 795.837 72.3047 798.415 72.3047C799.564 72.3047 800.747 72.3516 801.966 72.4453C803.185 72.5156 804.392 72.6562 805.587 72.8672C806.806 73.0781 807.99 73.3477 809.138 73.6758C810.286 74.0039 811.376 74.4141 812.407 74.9062L811.072 89.1797C809.478 88.6406 807.802 88.1953 806.044 87.8438C804.31 87.4688 802.611 87.2812 800.947 87.2812C800.642 87.2812 800.243 87.293 799.751 87.3164C799.282 87.3164 798.779 87.3516 798.24 87.4219C797.724 87.4688 797.197 87.5508 796.657 87.668C796.118 87.7852 795.638 87.9492 795.216 88.1602C794.794 88.3477 794.454 88.6055 794.197 88.9336C793.939 89.2617 793.822 89.6484 793.845 90.0938C793.868 90.6094 794.056 91.0078 794.407 91.2891C794.782 91.5703 795.251 91.7812 795.814 91.9219C796.4 92.0391 797.032 92.0977 797.712 92.0977C798.415 92.0977 799.107 92.0859 799.786 92.0625C800.466 92.0156 801.099 91.9805 801.685 91.957C802.271 91.9102 802.751 91.8984 803.126 91.9219C805.001 92.0391 806.689 92.4375 808.189 93.1172C809.689 93.7969 810.954 94.6992 811.986 95.8242C813.04 96.9492 813.837 98.2969 814.376 99.8672C814.939 101.414 815.22 103.125 815.22 105Z" transform="translate(29 390)" fill="#212529"/>
<path d="M146.489 193H0V0H113.432L146.489 33.0905V193ZM7.71893 185.273H138.77V36.45L110.076 7.72668H7.55097V185.273H7.71893Z" transform="translate(525 152)" fill="#212529"/>
<path d="M34.7344 34.7702H0V0H7.71873V27.0436H34.7344V34.7702Z" transform="translate(632.895 155.863)" fill="#212529"/>
<path d="M50.8433 0H0V7.72668H50.8433V0Z" transform="translate(547.317 182.907)" fill="#212529"/>
<path d="M101.854 0H0V7.72678H101.854V0Z" transform="translate(547.317 198.36)" fill="#212529"/>
<path d="M101.854 0H0V7.72678H101.854V0Z" transform="translate(547.317 213.813)" fill="#212529"/>
<path d="M89.4371 0H0V7.72668H89.4371V0Z" transform="translate(547.317 229.099)" fill="#212529"/>
<path d="M98.2131 0H0V38.2779H98.2131V0Z" transform="translate(598.125 292.649) scale(0.999476 1.0005) rotate(-45)" fill="#FFCD30"/>
<path d="M30.8332 104.269C29.8264 104.269 28.8197 103.933 28.1485 103.093L1.13265 76.0493C-0.377548 74.5376 -0.377548 72.018 1.13265 70.6742L70.6016 1.13381C72.1118 -0.377937 74.6289 -0.377937 75.9713 1.13381L102.987 28.1773C103.658 28.8492 104.161 29.8571 104.161 30.8649C104.161 31.8727 103.826 32.8805 102.987 33.5524L33.518 103.093C32.8468 103.933 31.84 104.269 30.8332 104.269ZM9.35485 73.3618L31.001 95.0302L94.9325 31.0328L73.2863 9.36438L9.35485 73.3618Z" transform="translate(594.342 219.231)" fill="#212529"/>
<path d="M98.2131 0H0V7.72281H98.2131V0Z" transform="translate(608.903 303.412) scale(0.999476 1.00051) rotate(-44.9919)" fill="#212529"/>
<path d="M32.5531 41.993L0 9.4064L2.68475 6.71888C7.04753 2.35161 12.7526 0 18.9612 0C25.1698 0 30.8751 2.35161 35.2378 6.71888C44.1312 15.6214 44.1312 30.2349 35.2378 39.3054L32.5531 41.993ZM11.2425 9.91029L32.2174 30.9068C35.5734 25.0278 34.9021 17.3011 29.8681 12.4299C27.0156 9.57435 23.1563 7.89471 19.1292 7.89471C16.2766 7.72674 13.5917 8.56652 11.2425 9.91029Z" transform="translate(662.093 213.646)" fill="#212529"/>
<path d="M30.8751 30.9068H0V0H7.71873V23.3481H30.8751V30.9068Z" transform="translate(594.301 292.593)" fill="#212529"/>
</g>
<defs>
<clipPath id="clip0">
<rect width="1200" height="800" fill="white"/>
</clipPath>
</defs>
</svg>
