<svg width="1200" height="800" viewBox="0 0 1200 800" fill="none" xmlns="http://www.w3.org/2000/svg">
<g clip-path="url(#clip0)">
<rect width="1200" height="800" fill="white"/>
<rect width="1200" height="800" fill="white"/>
<path d="M0 0C31.1151 538.332 113.638 1018.29 230.657 1387.99V0H0Z" transform="translate(1228.99 570.668) rotate(90.0001)" fill="#EF4631"/>
<path d="M0 0C13.5283 516.713 73.0528 992.348 166.398 1381.5V0H0Z" transform="translate(1229 634.926) rotate(90.0001)" fill="#12ABE3"/>
<path d="M0.676409 0C-5.19087e-06 38.9156 5.16063e-06 77.8312 5.16063e-06 116.747C5.16063e-06 557.79 35.1736 972.89 98.0801 1333.94V0H0.676409Z" transform="translate(1229 703.921) rotate(90.0001)" fill="#2EB349"/>
<path d="M11.4991 0C4.05849 138.367 0 281.057 0 428.072C0 739.397 16.9104 1035.59 48.0254 1312.32V0H11.4991Z" transform="translate(1229 753.3) rotate(90.0001)" fill="#FFCD30"/>
<path d="M333.588 11.9062C333.588 13.6406 333.506 15.5508 333.342 17.6367C333.178 19.7227 332.908 21.8789 332.533 24.1055C332.158 26.332 331.666 28.5938 331.056 30.8906C330.471 33.1641 329.732 35.3555 328.842 37.4648C327.951 39.5742 326.908 41.5547 325.713 43.4062C324.541 45.2344 323.181 46.8398 321.635 48.2227C320.111 49.582 318.4 50.6484 316.502 51.4219C314.603 52.2188 312.494 52.6172 310.174 52.6172C307.455 52.6172 305.088 52.1719 303.072 51.2812C301.08 50.4141 299.369 49.2422 297.939 47.7656C296.51 46.2656 295.338 44.5312 294.424 42.5625C293.51 40.5703 292.795 38.4727 292.279 36.2695C291.764 34.043 291.4 31.7812 291.189 29.4844C291.002 27.1641 290.908 24.9375 290.908 22.8047C290.908 19.5234 291.072 16.2539 291.4 12.9961C291.728 9.71484 292.197 6.44531 292.806 3.1875L309.26 3.82031C308.627 7.5 308.076 11.2031 307.607 14.9297C307.162 18.6328 306.939 22.3594 306.939 26.1094C306.939 26.5078 306.951 27.1055 306.974 27.9023C307.021 28.6758 307.092 29.5547 307.185 30.5391C307.279 31.5 307.408 32.4961 307.572 33.5273C307.76 34.5352 308.006 35.4609 308.31 36.3047C308.615 37.1484 308.978 37.8398 309.4 38.3789C309.846 38.918 310.361 39.1875 310.947 39.1875C311.627 39.1875 312.236 38.8711 312.775 38.2383C313.314 37.582 313.783 36.7148 314.181 35.6367C314.603 34.5586 314.967 33.3164 315.271 31.9102C315.576 30.5039 315.834 29.0391 316.045 27.5156C316.256 25.9922 316.42 24.4688 316.537 22.9453C316.678 21.4219 316.783 20.0039 316.853 18.6914C316.947 17.3789 317.006 16.2188 317.029 15.2109C317.053 14.2031 317.064 13.4531 317.064 12.9609C317.064 11.1328 317.029 9.31641 316.959 7.51172C316.912 5.68359 316.83 3.86719 316.713 2.0625H333.166C333.447 5.29688 333.588 8.57812 333.588 11.9062ZM380.327 33.2109C380.327 35.8594 380.292 38.4844 380.222 41.0859C380.175 43.6641 380.093 46.2656 379.976 48.8906L359.726 48.5391C360.429 44.3906 361.038 40.2539 361.554 36.1289C362.069 31.9805 362.327 27.7969 362.327 23.5781C362.327 23.2734 362.316 22.7812 362.292 22.1016C362.269 21.4219 362.222 20.6602 362.151 19.8164C362.081 18.9492 361.976 18.0703 361.835 17.1797C361.718 16.2656 361.542 15.4336 361.308 14.6836C361.097 13.9336 360.827 13.3242 360.499 12.8555C360.194 12.3633 359.819 12.1172 359.374 12.1172C358.577 12.1172 357.898 12.3516 357.335 12.8203C356.796 13.2891 356.339 13.8984 355.964 14.6484C355.612 15.375 355.331 16.1953 355.12 17.1094C354.909 18.0234 354.745 18.9375 354.628 19.8516C354.534 20.7656 354.464 21.6328 354.417 22.4531C354.394 23.25 354.382 23.9062 354.382 24.4219C354.265 28.5703 354.171 32.6953 354.101 36.7969C354.03 40.875 353.937 45 353.819 49.1719L335.89 49.9453C336.359 41.6719 336.804 33.4453 337.226 25.2656C337.671 17.0859 338.023 8.85937 338.28 0.585938L354.874 -0.257812L354.734 5.36719C355.39 4.57031 356.093 3.82031 356.843 3.11719C357.616 2.41406 358.437 1.81641 359.304 1.32422C360.171 0.808594 361.085 0.410156 362.046 0.128906C363.03 -0.175781 364.062 -0.328125 365.14 -0.328125C367.132 -0.328125 368.878 0 370.378 0.65625C371.878 1.3125 373.167 2.20312 374.245 3.32812C375.323 4.45312 376.226 5.78906 376.952 7.33594C377.679 8.85937 378.265 10.4883 378.71 12.2227C379.155 13.957 379.495 15.7734 379.73 17.6719C379.964 19.5469 380.116 21.3984 380.187 23.2266C380.28 25.0547 380.327 26.8242 380.327 28.5352C380.327 30.2461 380.327 31.8047 380.327 33.2109ZM424.219 23.0859C424.219 26.3672 423.797 29.3086 422.954 31.9102C422.11 34.5117 420.926 36.8203 419.403 38.8359C417.903 40.8281 416.11 42.5273 414.024 43.9336C411.938 45.3398 409.653 46.5 407.168 47.4141C404.684 48.3047 402.036 48.9609 399.223 49.3828C396.434 49.8047 393.563 50.0156 390.61 50.0156C389.508 50.0156 388.43 49.9922 387.375 49.9453C386.321 49.875 385.243 49.7812 384.141 49.6641L385.125 3.89062C387.704 3.07031 390.352 2.49609 393.071 2.16797C395.813 1.81641 398.532 1.64062 401.227 1.64062C404.579 1.64062 407.661 2.10937 410.473 3.04688C413.286 3.98438 415.711 5.36719 417.75 7.19531C419.789 9 421.371 11.2383 422.496 13.9102C423.645 16.5586 424.219 19.6172 424.219 23.0859ZM400.313 36.5859C401.719 36.375 402.996 35.9531 404.145 35.3203C405.317 34.6641 406.325 33.8672 407.168 32.9297C408.012 31.9688 408.657 30.8906 409.102 29.6953C409.571 28.4766 409.805 27.1875 409.805 25.8281C409.805 24.4922 409.664 23.25 409.383 22.1016C409.102 20.9297 408.645 19.9219 408.012 19.0781C407.379 18.2109 406.547 17.5312 405.516 17.0391C404.485 16.5234 403.219 16.2422 401.719 16.1953L400.313 36.5859ZM466.388 22.5938C466.388 24.6328 466.248 26.6719 465.966 28.7109C461.959 28.9688 457.974 29.3906 454.013 29.9766C450.052 30.5391 446.091 31.1016 442.131 31.6641C442.74 33.3516 443.689 34.6992 444.978 35.707C446.291 36.7148 447.849 37.2188 449.654 37.2188C450.591 37.2188 451.611 37.043 452.713 36.6914C453.838 36.3398 454.951 35.9062 456.052 35.3906C457.154 34.8516 458.209 34.2773 459.216 33.668C460.224 33.0586 461.091 32.5078 461.818 32.0156L460.131 47.9766C459.216 48.6797 458.22 49.2773 457.142 49.7695C456.088 50.2617 454.986 50.6602 453.838 50.9648C452.689 51.2695 451.529 51.4922 450.357 51.6328C449.185 51.7734 448.037 51.8438 446.912 51.8438C444.591 51.8438 442.47 51.5273 440.549 50.8945C438.627 50.2617 436.881 49.3828 435.31 48.2578C433.763 47.1094 432.404 45.7617 431.232 44.2148C430.06 42.668 429.088 40.9805 428.314 39.1523C427.541 37.3242 426.955 35.3906 426.556 33.3516C426.158 31.3125 425.959 29.25 425.959 27.1641C425.959 24.9844 426.158 22.8047 426.556 20.625C426.955 18.4453 427.552 16.3477 428.349 14.332C429.17 12.3164 430.189 10.4531 431.408 8.74219C432.65 7.00781 434.091 5.49609 435.732 4.20703C437.373 2.91797 439.224 1.91016 441.287 1.18359C443.373 0.457031 445.67 0.09375 448.177 0.09375C450.263 0.09375 452.162 0.386719 453.873 0.972656C455.607 1.53516 457.142 2.33203 458.478 3.36328C459.838 4.37109 461.009 5.57812 461.994 6.98438C463.002 8.39062 463.822 9.9375 464.455 11.625C465.111 13.2891 465.591 15.0586 465.896 16.9336C466.224 18.7852 466.388 20.6719 466.388 22.5938ZM452.326 20.7656C452.326 20.1094 452.256 19.4414 452.115 18.7617C451.974 18.0586 451.74 17.4258 451.412 16.8633C451.107 16.3008 450.697 15.8438 450.181 15.4922C449.666 15.1172 449.021 14.9297 448.248 14.9297C447.31 14.9297 446.478 15.1875 445.752 15.7031C445.049 16.1953 444.439 16.8281 443.924 17.6016C443.408 18.3516 442.986 19.1719 442.658 20.0625C442.33 20.9531 442.084 21.7734 441.92 22.5234L452.326 21.5391V20.7656ZM510.632 17.1094C510.632 18.9375 510.468 20.6016 510.14 22.1016C509.835 23.5781 509.343 24.9375 508.663 26.1797C507.983 27.4219 507.104 28.5703 506.026 29.625C504.948 30.6797 503.647 31.6875 502.124 32.6484L510.491 47.5547L494.671 50.6484L489.257 35.6719L484.897 35.8125L484.265 50.4375H469.147C469.265 45.0938 469.37 39.7734 469.464 34.4766C469.581 29.1797 469.71 23.8594 469.851 18.5156C469.897 15.8203 469.944 13.1484 469.991 10.5C470.038 7.85156 470.132 5.17969 470.272 2.48438C471.913 1.875 473.53 1.37109 475.124 0.972656C476.718 0.574219 478.311 0.269531 479.905 0.0585938C481.522 -0.175781 483.151 -0.328125 484.792 -0.398438C486.456 -0.492188 488.155 -0.539062 489.89 -0.539062C492.561 -0.539062 495.14 -0.164062 497.624 0.585938C500.132 1.3125 502.347 2.41406 504.269 3.89062C506.19 5.36719 507.726 7.20703 508.874 9.41016C510.046 11.6133 510.632 14.1797 510.632 17.1094ZM494.882 18.2344C494.882 17.25 494.741 16.3477 494.46 15.5273C494.202 14.707 493.804 14.0039 493.265 13.418C492.749 12.8086 492.093 12.3398 491.296 12.0117C490.522 11.6602 489.608 11.4844 488.554 11.4844C488.085 11.4844 487.628 11.5195 487.183 11.5898C486.737 11.6367 486.304 11.7188 485.882 11.8359L485.319 24.9141H486.163C487.171 24.9141 488.19 24.7852 489.222 24.5273C490.276 24.2695 491.214 23.8711 492.034 23.332C492.878 22.793 493.558 22.1016 494.073 21.2578C494.612 20.4141 494.882 19.4062 494.882 18.2344ZM549.848 33C549.848 36.2109 549.285 38.9883 548.16 41.332C547.059 43.6523 545.535 45.5742 543.59 47.0977C541.668 48.5977 539.406 49.7109 536.805 50.4375C534.227 51.1406 531.449 51.4922 528.473 51.4922C527.324 51.4922 526.059 51.3398 524.676 51.0352C523.317 50.7305 521.934 50.3555 520.528 49.9102C519.121 49.4414 517.762 48.9492 516.449 48.4336C515.16 47.8945 514.012 47.3906 513.004 46.9219L514.551 33.1406C516.543 34.3359 518.746 35.25 521.16 35.8828C523.598 36.4922 525.989 36.7969 528.332 36.7969C528.778 36.7969 529.317 36.7852 529.949 36.7617C530.582 36.7148 531.18 36.6094 531.742 36.4453C532.328 36.2578 532.821 35.9883 533.219 35.6367C533.617 35.2852 533.817 34.7812 533.817 34.125C533.817 33.6797 533.676 33.3047 533.395 33C533.114 32.6719 532.75 32.4141 532.305 32.2266C531.86 32.0156 531.356 31.8633 530.793 31.7695C530.231 31.6523 529.68 31.5703 529.141 31.5234C528.602 31.4766 528.098 31.4531 527.629 31.4531C527.16 31.4531 526.785 31.4531 526.504 31.4531C524.489 31.4531 522.649 31.1367 520.985 30.5039C519.344 29.8711 517.926 28.9805 516.731 27.832C515.559 26.6602 514.645 25.2539 513.989 23.6133C513.332 21.9492 513.004 20.1094 513.004 18.0938C513.004 15.3281 513.555 12.8555 514.656 10.6758C515.781 8.47266 517.27 6.60937 519.121 5.08594C520.996 3.53906 523.141 2.35547 525.555 1.53516C527.969 0.714844 530.465 0.304688 533.043 0.304688C534.192 0.304688 535.375 0.351562 536.594 0.445312C537.813 0.515625 539.02 0.65625 540.215 0.867188C541.434 1.07812 542.617 1.34766 543.766 1.67578C544.914 2.00391 546.004 2.41406 547.035 2.90625L545.699 17.1797C544.106 16.6406 542.43 16.1953 540.672 15.8438C538.938 15.4688 537.239 15.2812 535.574 15.2812C535.27 15.2812 534.871 15.293 534.379 15.3164C533.91 15.3164 533.406 15.3516 532.867 15.4219C532.352 15.4688 531.824 15.5508 531.285 15.668C530.746 15.7852 530.266 15.9492 529.844 16.1602C529.422 16.3477 529.082 16.6055 528.824 16.9336C528.567 17.2617 528.449 17.6484 528.473 18.0938C528.496 18.6094 528.684 19.0078 529.035 19.2891C529.41 19.5703 529.879 19.7812 530.442 19.9219C531.028 20.0391 531.66 20.0977 532.34 20.0977C533.043 20.0977 533.735 20.0859 534.414 20.0625C535.094 20.0156 535.727 19.9805 536.313 19.957C536.899 19.9102 537.379 19.8984 537.754 19.9219C539.629 20.0391 541.317 20.4375 542.817 21.1172C544.317 21.7969 545.582 22.6992 546.614 23.8242C547.668 24.9492 548.465 26.2969 549.004 27.8672C549.567 29.4141 549.848 31.125 549.848 33ZM589.24 1.42969L588.888 16.3359L578.412 16.7578L577.146 49.3828L562.31 50.1562L560.974 17.5312L550.498 18.0938L550.919 1.5L589.24 1.42969ZM631.725 47.9766L614.288 50.2266L612.179 42.2812H604.163L602.405 50.2266L584.475 48.4688L598.468 1.64062L618.014 0.65625L631.725 47.9766ZM610.913 31.5234L608.241 19.2891L605.639 31.5234H610.913ZM676.813 33.2109C676.813 35.8594 676.777 38.4844 676.707 41.0859C676.66 43.6641 676.578 46.2656 676.461 48.8906L656.211 48.5391C656.914 44.3906 657.524 40.2539 658.039 36.1289C658.555 31.9805 658.813 27.7969 658.813 23.5781C658.813 23.2734 658.801 22.7812 658.777 22.1016C658.754 21.4219 658.707 20.6602 658.637 19.8164C658.567 18.9492 658.461 18.0703 658.32 17.1797C658.203 16.2656 658.027 15.4336 657.793 14.6836C657.582 13.9336 657.313 13.3242 656.984 12.8555C656.68 12.3633 656.305 12.1172 655.859 12.1172C655.063 12.1172 654.383 12.3516 653.82 12.8203C653.281 13.2891 652.824 13.8984 652.449 14.6484C652.098 15.375 651.817 16.1953 651.606 17.1094C651.395 18.0234 651.231 18.9375 651.113 19.8516C651.02 20.7656 650.949 21.6328 650.902 22.4531C650.879 23.25 650.867 23.9062 650.867 24.4219C650.75 28.5703 650.656 32.6953 650.586 36.7969C650.516 40.875 650.422 45 650.305 49.1719L632.375 49.9453C632.844 41.6719 633.289 33.4453 633.711 25.2656C634.156 17.0859 634.508 8.85937 634.766 0.585938L651.359 -0.257812L651.219 5.36719C651.875 4.57031 652.578 3.82031 653.328 3.11719C654.102 2.41406 654.922 1.81641 655.789 1.32422C656.656 0.808594 657.57 0.410156 658.531 0.128906C659.516 -0.175781 660.547 -0.328125 661.625 -0.328125C663.617 -0.328125 665.363 0 666.863 0.65625C668.363 1.3125 669.652 2.20312 670.731 3.32812C671.809 4.45312 672.711 5.78906 673.438 7.33594C674.164 8.85937 674.75 10.4883 675.195 12.2227C675.641 13.957 675.981 15.7734 676.215 17.6719C676.449 19.5469 676.602 21.3984 676.672 23.2266C676.766 25.0547 676.813 26.8242 676.813 28.5352C676.813 30.2461 676.813 31.8047 676.813 33.2109ZM720.704 23.0859C720.704 26.3672 720.283 29.3086 719.439 31.9102C718.595 34.5117 717.411 36.8203 715.888 38.8359C714.388 40.8281 712.595 42.5273 710.509 43.9336C708.423 45.3398 706.138 46.5 703.654 47.4141C701.169 48.3047 698.521 48.9609 695.708 49.3828C692.919 49.8047 690.048 50.0156 687.095 50.0156C685.994 50.0156 684.915 49.9922 683.861 49.9453C682.806 49.875 681.728 49.7812 680.626 49.6641L681.611 3.89062C684.189 3.07031 686.837 2.49609 689.556 2.16797C692.298 1.81641 695.017 1.64062 697.712 1.64062C701.064 1.64062 704.146 2.10937 706.958 3.04688C709.771 3.98438 712.197 5.36719 714.236 7.19531C716.275 9 717.857 11.2383 718.982 13.9102C720.13 16.5586 720.704 19.6172 720.704 23.0859ZM696.798 36.5859C698.204 36.375 699.482 35.9531 700.63 35.3203C701.802 34.6641 702.81 33.8672 703.654 32.9297C704.497 31.9688 705.142 30.8906 705.587 29.6953C706.056 28.4766 706.29 27.1875 706.29 25.8281C706.29 24.4922 706.15 23.25 705.869 22.1016C705.587 20.9297 705.13 19.9219 704.497 19.0781C703.865 18.2109 703.033 17.5312 702.001 17.0391C700.97 16.5234 699.704 16.2422 698.204 16.1953L696.798 36.5859ZM741.991 1.5L739.53 49.3828L724.694 50.1562L723.288 2.48438L741.991 1.5ZM789.223 33.2109C789.223 35.8594 789.187 38.4844 789.117 41.0859C789.07 43.6641 788.988 46.2656 788.871 48.8906L768.621 48.5391C769.324 44.3906 769.934 40.2539 770.449 36.1289C770.965 31.9805 771.223 27.7969 771.223 23.5781C771.223 23.2734 771.211 22.7812 771.187 22.1016C771.164 21.4219 771.117 20.6602 771.047 19.8164C770.977 18.9492 770.871 18.0703 770.73 17.1797C770.613 16.2656 770.437 15.4336 770.203 14.6836C769.992 13.9336 769.723 13.3242 769.394 12.8555C769.09 12.3633 768.715 12.1172 768.269 12.1172C767.473 12.1172 766.793 12.3516 766.23 12.8203C765.691 13.2891 765.234 13.8984 764.859 14.6484C764.508 15.375 764.227 16.1953 764.016 17.1094C763.805 18.0234 763.641 18.9375 763.523 19.8516C763.43 20.7656 763.359 21.6328 763.312 22.4531C763.289 23.25 763.277 23.9062 763.277 24.4219C763.16 28.5703 763.066 32.6953 762.996 36.7969C762.926 40.875 762.832 45 762.715 49.1719L744.785 49.9453C745.254 41.6719 745.699 33.4453 746.121 25.2656C746.566 17.0859 746.918 8.85937 747.176 0.585938L763.769 -0.257812L763.629 5.36719C764.285 4.57031 764.988 3.82031 765.738 3.11719C766.512 2.41406 767.332 1.81641 768.199 1.32422C769.066 0.808594 769.98 0.410156 770.941 0.128906C771.926 -0.175781 772.957 -0.328125 774.035 -0.328125C776.027 -0.328125 777.773 0 779.273 0.65625C780.773 1.3125 782.062 2.20312 783.141 3.32812C784.219 4.45312 785.121 5.78906 785.848 7.33594C786.574 8.85937 787.16 10.4883 787.605 12.2227C788.051 13.957 788.391 15.7734 788.625 17.6719C788.859 19.5469 789.012 21.3984 789.082 23.2266C789.176 25.0547 789.223 26.8242 789.223 28.5352C789.223 30.2461 789.223 31.8047 789.223 33.2109ZM835.786 43.125C834.685 44.5078 833.325 45.7148 831.708 46.7461C830.091 47.7773 828.357 48.6328 826.505 49.3125C824.654 49.9922 822.755 50.5078 820.81 50.8594C818.865 51.1875 817.013 51.3516 815.255 51.3516C811.857 51.3516 808.728 50.7773 805.868 49.6289C803.009 48.4805 800.536 46.8867 798.45 44.8477C796.388 42.7852 794.771 40.3359 793.599 37.5C792.427 34.6641 791.841 31.5703 791.841 28.2188C791.841 25.6641 792.134 23.1797 792.72 20.7656C793.306 18.3516 794.138 16.0898 795.216 13.9805C796.318 11.8711 797.654 9.9375 799.224 8.17969C800.794 6.42188 802.575 4.91016 804.568 3.64453C806.56 2.37891 808.74 1.40625 811.107 0.726562C813.497 0.0234375 816.029 -0.328125 818.7 -0.328125C819.708 -0.328125 820.786 -0.28125 821.935 -0.1875C823.083 -0.117188 824.22 0.0234375 825.345 0.234375C826.493 0.421875 827.607 0.691406 828.685 1.04297C829.763 1.39453 830.747 1.82812 831.638 2.34375L830.654 15.7734C829.341 15.2812 827.982 14.9531 826.575 14.7891C825.193 14.6016 823.833 14.5078 822.497 14.5078C820.622 14.5078 818.865 14.7656 817.224 15.2812C815.607 15.7734 814.189 16.5117 812.97 17.4961C811.775 18.4805 810.825 19.7109 810.122 21.1875C809.419 22.6641 809.068 24.375 809.068 26.3203C809.068 27.5391 809.232 28.7227 809.56 29.8711C809.888 30.9961 810.38 32.0039 811.036 32.8945C811.716 33.7617 812.548 34.4648 813.532 35.0039C814.54 35.543 815.7 35.8125 817.013 35.8125C817.904 35.8125 818.818 35.6953 819.755 35.4609C820.716 35.2266 821.536 34.8281 822.216 34.2656L822.357 31.5234L813.919 31.3828L814.341 20.8359C817.833 20.7188 821.325 20.625 824.818 20.5547C828.31 20.4609 831.825 20.3438 835.365 20.2031L835.786 43.125ZM302.669 115.828C301.567 117.211 300.208 118.418 298.59 119.449C296.973 120.48 295.239 121.336 293.387 122.016C291.536 122.695 289.637 123.199 287.692 123.527C285.747 123.879 283.895 124.055 282.137 124.055C278.739 124.055 275.61 123.445 272.751 122.227C269.891 121.008 267.419 119.332 265.333 117.199C263.27 115.043 261.653 112.512 260.481 109.605C259.309 106.699 258.723 103.57 258.723 100.219C258.723 97.6641 259.016 95.168 259.602 92.7305C260.188 90.2695 261.02 87.9609 262.098 85.8047C263.2 83.625 264.536 81.6328 266.106 79.8281C267.676 78 269.458 76.4297 271.45 75.1172C273.442 73.8047 275.622 72.7852 277.989 72.0586C280.356 71.332 282.887 70.9688 285.583 70.9688C286.59 70.9688 287.669 71.0156 288.817 71.1094C289.965 71.1797 291.102 71.3203 292.227 71.5312C293.376 71.7188 294.489 71.9883 295.567 72.3398C296.645 72.6914 297.629 73.125 298.52 73.6406L297.536 87.0703C296.223 86.5781 294.864 86.25 293.458 86.0859C292.075 85.8984 290.715 85.8047 289.379 85.8047C287.504 85.8047 285.747 86.0977 284.106 86.6836C282.489 87.2461 281.071 88.0664 279.852 89.1445C278.657 90.2227 277.708 91.5352 277.004 93.082C276.301 94.6289 275.95 96.375 275.95 98.3203C275.95 99.5391 276.114 100.723 276.442 101.871C276.77 102.996 277.262 104.004 277.919 104.895C278.598 105.762 279.43 106.465 280.415 107.004C281.422 107.543 282.583 107.812 283.895 107.812C284.786 107.812 285.7 107.695 286.637 107.461C287.598 107.227 288.419 106.828 289.098 106.266L289.239 103.523L280.801 103.383L281.223 92.8359C284.715 92.7188 288.208 92.625 291.7 92.5547C295.192 92.4609 298.708 92.3438 302.247 92.2031L302.669 115.828ZM349.549 96.0703C349.549 98.2031 349.303 100.266 348.81 102.258C348.318 104.227 347.603 106.078 346.666 107.812C345.752 109.547 344.627 111.141 343.291 112.594C341.978 114.023 340.49 115.254 338.826 116.285C337.185 117.316 335.392 118.125 333.447 118.711C331.502 119.273 329.439 119.555 327.26 119.555C325.15 119.555 323.135 119.285 321.213 118.746C319.314 118.207 317.533 117.457 315.869 116.496C314.205 115.512 312.693 114.34 311.334 112.98C309.998 111.598 308.849 110.074 307.889 108.41C306.951 106.723 306.213 104.918 305.674 102.996C305.158 101.074 304.9 99.0703 304.9 96.9844C304.9 94.9453 305.146 92.9531 305.639 91.0078C306.131 89.0391 306.834 87.1875 307.748 85.4531C308.685 83.7188 309.81 82.125 311.123 80.6719C312.435 79.2188 313.9 77.9648 315.517 76.9102C317.158 75.8555 318.928 75.0352 320.826 74.4492C322.724 73.8633 324.728 73.5703 326.838 73.5703C330.236 73.5703 333.33 74.0977 336.119 75.1523C338.931 76.207 341.322 77.7188 343.291 79.6875C345.283 81.6328 346.818 84 347.896 86.7891C348.998 89.5547 349.549 92.6484 349.549 96.0703ZM333.939 96.9844C333.939 95.9766 333.787 95.0039 333.482 94.0664C333.201 93.1055 332.779 92.2617 332.217 91.5352C331.654 90.7852 330.951 90.1875 330.107 89.7422C329.287 89.2734 328.338 89.0391 327.26 89.0391C326.158 89.0391 325.174 89.2383 324.306 89.6367C323.439 90.0352 322.689 90.5859 322.056 91.2891C321.447 91.9688 320.978 92.7773 320.65 93.7148C320.322 94.6289 320.158 95.6016 320.158 96.6328C320.158 97.6172 320.299 98.6016 320.58 99.5859C320.861 100.57 321.283 101.461 321.846 102.258C322.408 103.055 323.099 103.699 323.92 104.191C324.764 104.684 325.736 104.93 326.838 104.93C327.939 104.93 328.924 104.719 329.791 104.297C330.681 103.852 331.431 103.266 332.041 102.539C332.65 101.789 333.119 100.934 333.447 99.9727C333.775 99.0117 333.939 98.0156 333.939 96.9844ZM396.183 96.0703C396.183 98.2031 395.937 100.266 395.444 102.258C394.952 104.227 394.237 106.078 393.3 107.812C392.386 109.547 391.261 111.141 389.925 112.594C388.612 114.023 387.124 115.254 385.46 116.285C383.819 117.316 382.026 118.125 380.081 118.711C378.136 119.273 376.073 119.555 373.894 119.555C371.784 119.555 369.769 119.285 367.847 118.746C365.948 118.207 364.167 117.457 362.503 116.496C360.839 115.512 359.327 114.34 357.968 112.98C356.632 111.598 355.484 110.074 354.523 108.41C353.585 106.723 352.847 104.918 352.308 102.996C351.792 101.074 351.534 99.0703 351.534 96.9844C351.534 94.9453 351.78 92.9531 352.273 91.0078C352.765 89.0391 353.468 87.1875 354.382 85.4531C355.319 83.7188 356.444 82.125 357.757 80.6719C359.069 79.2188 360.534 77.9648 362.151 76.9102C363.792 75.8555 365.562 75.0352 367.46 74.4492C369.359 73.8633 371.362 73.5703 373.472 73.5703C376.87 73.5703 379.964 74.0977 382.753 75.1523C385.566 76.207 387.956 77.7188 389.925 79.6875C391.917 81.6328 393.452 84 394.53 86.7891C395.632 89.5547 396.183 92.6484 396.183 96.0703ZM380.573 96.9844C380.573 95.9766 380.421 95.0039 380.116 94.0664C379.835 93.1055 379.413 92.2617 378.851 91.5352C378.288 90.7852 377.585 90.1875 376.741 89.7422C375.921 89.2734 374.972 89.0391 373.894 89.0391C372.792 89.0391 371.808 89.2383 370.941 89.6367C370.073 90.0352 369.323 90.5859 368.691 91.2891C368.081 91.9688 367.612 92.7773 367.284 93.7148C366.956 94.6289 366.792 95.6016 366.792 96.6328C366.792 97.6172 366.933 98.6016 367.214 99.5859C367.495 100.57 367.917 101.461 368.48 102.258C369.042 103.055 369.734 103.699 370.554 104.191C371.398 104.684 372.37 104.93 373.472 104.93C374.573 104.93 375.558 104.719 376.425 104.297C377.316 103.852 378.066 103.266 378.675 102.539C379.284 101.789 379.753 100.934 380.081 99.9727C380.409 99.0117 380.573 98.0156 380.573 96.9844ZM441.868 115.125C440.766 116.508 439.407 117.715 437.789 118.746C436.172 119.777 434.438 120.633 432.586 121.312C430.735 121.992 428.836 122.508 426.891 122.859C424.946 123.188 423.094 123.352 421.336 123.352C417.938 123.352 414.809 122.777 411.95 121.629C409.09 120.48 406.618 118.887 404.532 116.848C402.469 114.785 400.852 112.336 399.68 109.5C398.508 106.664 397.922 103.57 397.922 100.219C397.922 97.6641 398.215 95.1797 398.801 92.7656C399.387 90.3516 400.219 88.0898 401.297 85.9805C402.399 83.8711 403.735 81.9375 405.305 80.1797C406.875 78.4219 408.657 76.9102 410.649 75.6445C412.641 74.3789 414.821 73.4062 417.188 72.7266C419.579 72.0234 422.11 71.6719 424.782 71.6719C425.789 71.6719 426.868 71.7188 428.016 71.8125C429.164 71.8828 430.301 72.0234 431.426 72.2344C432.575 72.4219 433.688 72.6914 434.766 73.043C435.844 73.3945 436.829 73.8281 437.719 74.3438L436.735 87.7734C435.422 87.2812 434.063 86.9531 432.657 86.7891C431.274 86.6016 429.914 86.5078 428.579 86.5078C426.704 86.5078 424.946 86.7656 423.305 87.2812C421.688 87.7734 420.27 88.5117 419.051 89.4961C417.856 90.4805 416.907 91.7109 416.204 93.1875C415.5 94.6641 415.149 96.375 415.149 98.3203C415.149 99.5391 415.313 100.723 415.641 101.871C415.969 102.996 416.461 104.004 417.118 104.895C417.797 105.762 418.629 106.465 419.614 107.004C420.621 107.543 421.782 107.812 423.094 107.812C423.985 107.812 424.899 107.695 425.836 107.461C426.797 107.227 427.618 106.828 428.297 106.266L428.438 103.523L420 103.383L420.422 92.8359C423.914 92.7188 427.407 92.625 430.899 92.5547C434.391 92.4609 437.907 92.3438 441.446 92.2031L441.868 115.125ZM476.127 104.367L474.65 119.977L445.049 122.297L446.174 72.0938H464.455L461.853 104.367H476.127ZM517.733 94.5938C517.733 96.6328 517.593 98.6719 517.311 100.711C513.304 100.969 509.319 101.391 505.358 101.977C501.397 102.539 497.436 103.102 493.476 103.664C494.085 105.352 495.034 106.699 496.323 107.707C497.636 108.715 499.194 109.219 500.999 109.219C501.936 109.219 502.956 109.043 504.058 108.691C505.183 108.34 506.296 107.906 507.397 107.391C508.499 106.852 509.554 106.277 510.561 105.668C511.569 105.059 512.436 104.508 513.163 104.016L511.476 119.977C510.561 120.68 509.565 121.277 508.487 121.77C507.433 122.262 506.331 122.66 505.183 122.965C504.034 123.27 502.874 123.492 501.702 123.633C500.53 123.773 499.382 123.844 498.257 123.844C495.936 123.844 493.815 123.527 491.894 122.895C489.972 122.262 488.226 121.383 486.655 120.258C485.108 119.109 483.749 117.762 482.577 116.215C481.405 114.668 480.433 112.98 479.659 111.152C478.886 109.324 478.3 107.391 477.901 105.352C477.503 103.312 477.304 101.25 477.304 99.1641C477.304 96.9844 477.503 94.8047 477.901 92.625C478.3 90.4453 478.897 88.3477 479.694 86.332C480.515 84.3164 481.534 82.4531 482.753 80.7422C483.995 79.0078 485.436 77.4961 487.077 76.207C488.718 74.918 490.569 73.9102 492.632 73.1836C494.718 72.457 497.015 72.0938 499.522 72.0938C501.608 72.0938 503.507 72.3867 505.218 72.9727C506.952 73.5352 508.487 74.332 509.823 75.3633C511.183 76.3711 512.354 77.5781 513.339 78.9844C514.347 80.3906 515.167 81.9375 515.8 83.625C516.456 85.2891 516.936 87.0586 517.241 88.9336C517.569 90.7852 517.733 92.6719 517.733 94.5938ZM503.671 92.7656C503.671 92.1094 503.601 91.4414 503.46 90.7617C503.319 90.0586 503.085 89.4258 502.757 88.8633C502.452 88.3008 502.042 87.8438 501.526 87.4922C501.011 87.1172 500.366 86.9297 499.593 86.9297C498.655 86.9297 497.823 87.1875 497.097 87.7031C496.394 88.1953 495.784 88.8281 495.269 89.6016C494.753 90.3516 494.331 91.1719 494.003 92.0625C493.675 92.9531 493.429 93.7734 493.265 94.5234L503.671 93.5391V92.7656ZM579.888 119.977L562.451 122.227L560.341 114.281H552.326L550.568 122.227L532.638 120.469L546.63 73.6406L566.177 72.6562L579.888 119.977ZM559.076 103.523L556.404 91.2891L553.802 103.523H559.076ZM624.975 105.211C624.975 107.859 624.94 110.484 624.87 113.086C624.823 115.664 624.741 118.266 624.624 120.891L604.374 120.539C605.077 116.391 605.686 112.254 606.202 108.129C606.718 103.98 606.975 99.7969 606.975 95.5781C606.975 95.2734 606.964 94.7812 606.94 94.1016C606.917 93.4219 606.87 92.6602 606.8 91.8164C606.729 90.9492 606.624 90.0703 606.483 89.1797C606.366 88.2656 606.19 87.4336 605.956 86.6836C605.745 85.9336 605.475 85.3242 605.147 84.8555C604.843 84.3633 604.468 84.1172 604.022 84.1172C603.225 84.1172 602.546 84.3516 601.983 84.8203C601.444 85.2891 600.987 85.8984 600.612 86.6484C600.261 87.375 599.979 88.1953 599.768 89.1094C599.557 90.0234 599.393 90.9375 599.276 91.8516C599.182 92.7656 599.112 93.6328 599.065 94.4531C599.042 95.25 599.03 95.9062 599.03 96.4219C598.913 100.57 598.819 104.695 598.749 108.797C598.679 112.875 598.585 117 598.468 121.172L580.538 121.945C581.007 113.672 581.452 105.445 581.874 97.2656C582.319 89.0859 582.671 80.8594 582.929 72.5859L599.522 71.7422L599.382 77.3672C600.038 76.5703 600.741 75.8203 601.491 75.1172C602.264 74.4141 603.085 73.8164 603.952 73.3242C604.819 72.8086 605.733 72.4102 606.694 72.1289C607.679 71.8242 608.71 71.6719 609.788 71.6719C611.78 71.6719 613.526 72 615.026 72.6562C616.526 73.3125 617.815 74.2031 618.893 75.3281C619.971 76.4531 620.874 77.7891 621.6 79.3359C622.327 80.8594 622.913 82.4883 623.358 84.2227C623.804 85.957 624.143 87.7734 624.378 89.6719C624.612 91.5469 624.764 93.3984 624.835 95.2266C624.929 97.0547 624.975 98.8242 624.975 100.535C624.975 102.246 624.975 103.805 624.975 105.211ZM673.367 119.977L655.93 122.227L653.82 114.281H645.805L644.047 122.227L626.117 120.469L640.109 73.6406L659.656 72.6562L673.367 119.977ZM652.555 103.523L649.883 91.2891L647.281 103.523H652.555ZM705.658 104.367L704.181 119.977L674.579 122.297L675.704 72.0938H693.986L691.384 104.367H705.658ZM745.753 75.3984L729.229 102.398L729.721 122.297H711.651L712.073 102.539L699.206 76.4531L717.135 74.2031L722.76 89.3906L728.878 74.2031L745.753 75.3984ZM783.949 73.4297L783.598 88.3359L773.121 88.7578L771.855 121.383L757.019 122.156L755.684 89.5312L745.207 90.0938L745.629 73.5L783.949 73.4297ZM805.025 73.5L802.564 121.383L787.728 122.156L786.321 74.4844L805.025 73.5ZM842.167 74.9766L840.901 89.8125C840.221 89.625 839.553 89.4961 838.897 89.4258C838.241 89.3555 837.573 89.3203 836.893 89.3203C835.229 89.3203 833.635 89.5312 832.112 89.9531C830.612 90.375 829.276 91.0195 828.104 91.8867C826.956 92.7539 826.03 93.8555 825.327 95.1914C824.647 96.5039 824.307 98.0625 824.307 99.8672C824.307 101.18 824.495 102.328 824.87 103.312C825.268 104.273 825.819 105.082 826.522 105.738C827.249 106.371 828.116 106.852 829.124 107.18C830.155 107.508 831.292 107.672 832.534 107.672C833.401 107.672 834.292 107.59 835.206 107.426C836.12 107.238 837.034 106.992 837.948 106.688C838.862 106.383 839.741 106.031 840.584 105.633C841.428 105.234 842.213 104.812 842.94 104.367L842.377 120.891C841.463 121.359 840.479 121.781 839.424 122.156C838.37 122.508 837.28 122.812 836.155 123.07C835.053 123.352 833.94 123.562 832.815 123.703C831.713 123.844 830.659 123.914 829.651 123.914C826.323 123.914 823.288 123.293 820.545 122.051C817.827 120.809 815.483 119.121 813.514 116.988C811.569 114.832 810.057 112.336 808.979 109.5C807.901 106.664 807.362 103.641 807.362 100.43C807.362 96.5859 807.901 93 808.979 89.6719C810.081 86.3438 811.686 83.4609 813.795 81.0234C815.928 78.5625 818.553 76.6406 821.67 75.2578C824.811 73.8516 828.409 73.1484 832.463 73.1484C834.081 73.1484 835.721 73.2773 837.385 73.5352C839.049 73.793 840.643 74.2734 842.167 74.9766ZM882.297 105C882.297 108.211 881.734 110.988 880.609 113.332C879.508 115.652 877.984 117.574 876.039 119.098C874.117 120.598 871.855 121.711 869.254 122.438C866.676 123.141 863.898 123.492 860.922 123.492C859.773 123.492 858.508 123.34 857.125 123.035C855.765 122.73 854.383 122.355 852.976 121.91C851.57 121.441 850.211 120.949 848.898 120.434C847.609 119.895 846.461 119.391 845.453 118.922L847 105.141C848.992 106.336 851.195 107.25 853.609 107.883C856.047 108.492 858.437 108.797 860.781 108.797C861.226 108.797 861.765 108.785 862.398 108.762C863.031 108.715 863.629 108.609 864.191 108.445C864.777 108.258 865.269 107.988 865.668 107.637C866.066 107.285 866.265 106.781 866.265 106.125C866.265 105.68 866.125 105.305 865.844 105C865.562 104.672 865.199 104.414 864.754 104.227C864.308 104.016 863.804 103.863 863.242 103.77C862.679 103.652 862.129 103.57 861.59 103.523C861.051 103.477 860.547 103.453 860.078 103.453C859.609 103.453 859.234 103.453 858.953 103.453C856.937 103.453 855.097 103.137 853.433 102.504C851.793 101.871 850.375 100.98 849.179 99.832C848.008 98.6602 847.094 97.2539 846.437 95.6133C845.781 93.9492 845.453 92.1094 845.453 90.0938C845.453 87.3281 846.004 84.8555 847.105 82.6758C848.23 80.4727 849.719 78.6094 851.57 77.0859C853.445 75.5391 855.59 74.3555 858.004 73.5352C860.418 72.7148 862.914 72.3047 865.492 72.3047C866.64 72.3047 867.824 72.3516 869.043 72.4453C870.261 72.5156 871.469 72.6562 872.664 72.8672C873.883 73.0781 875.066 73.3477 876.215 73.6758C877.363 74.0039 878.453 74.4141 879.484 74.9062L878.148 89.1797C876.554 88.6406 874.879 88.1953 873.121 87.8438C871.386 87.4688 869.687 87.2812 868.023 87.2812C867.719 87.2812 867.32 87.293 866.828 87.3164C866.359 87.3164 865.855 87.3516 865.316 87.4219C864.801 87.4688 864.273 87.5508 863.734 87.668C863.195 87.7852 862.715 87.9492 862.293 88.1602C861.871 88.3477 861.531 88.6055 861.273 88.9336C861.015 89.2617 860.898 89.6484 860.922 90.0938C860.945 90.6094 861.133 91.0078 861.484 91.2891C861.859 91.5703 862.328 91.7812 862.89 91.9219C863.476 92.0391 864.109 92.0977 864.789 92.0977C865.492 92.0977 866.183 92.0859 866.863 92.0625C867.543 92.0156 868.176 91.9805 868.761 91.957C869.347 91.9102 869.828 91.8984 870.203 91.9219C872.078 92.0391 873.765 92.4375 875.265 93.1172C876.765 93.7969 878.031 94.6992 879.062 95.8242C880.117 96.9492 880.914 98.2969 881.453 99.8672C882.015 101.414 882.297 103.125 882.297 105Z" transform="translate(29 390)" fill="#212529"/>
<path d="M267.674 174.965H0V13.96C0 10.2373 1.39518 6.74745 4.18588 4.18812C6.74402 1.62878 10.2326 0 13.9535 0H253.721C257.442 0 260.93 1.39611 263.488 4.18812C266.046 6.74745 267.674 10.2373 267.674 13.96V174.965ZM10.4651 164.263H256.977V13.96C256.977 13.0293 256.744 12.3313 256.047 11.6333C255.349 10.9353 254.651 10.7026 253.721 10.7026H13.721C12.7908 10.7026 12.0931 10.9353 11.3954 11.6333C10.6977 12.3313 10.4651 13.0293 10.4651 13.96V164.263Z" transform="translate(466.278 139)" fill="#212529"/>
<path d="M303.256 33.5041H16.7444C12.3258 33.5041 8.13948 31.8755 4.88367 28.6181C1.62785 25.3608 0 21.1729 0 16.7522V0H320V16.7522C320 21.1729 318.14 25.3608 315.116 28.6181C311.861 31.6428 307.675 33.5041 303.256 33.5041ZM10.6976 10.47V16.5196C10.6976 18.1482 11.3954 19.7767 12.5582 20.94C13.721 22.1033 15.349 22.8015 16.9769 22.8015H303.256C304.884 22.8015 306.512 22.1033 307.675 20.94C308.837 19.7767 309.535 18.1482 309.535 16.5196V10.47H10.6976Z" transform="translate(440 303.496)" fill="#212529"/>
<path d="M30.9301 0H0V29.316H30.9301V0Z" transform="translate(494.187 256.497)" fill="#2EB349"/>
<path d="M30.9301 0H0V51.6519H30.9301V0Z" transform="translate(539.304 234.162)" fill="#2EB349"/>
<path d="M30.9304 0H0V73.9879H30.9304V0Z" transform="translate(584.419 211.826)" fill="#2EB349"/>
<path d="M30.9304 0H0V96.3241H30.9304V0Z" transform="translate(629.536 189.489)" fill="#2EB349"/>
<path d="M30.9304 0H0V118.66H30.9304V0Z" transform="translate(674.651 167.153)" fill="#2EB349"/>
<path d="M90.2324 0H0V10.7026H90.2324V0Z" transform="translate(494.186 186.697)" fill="#212529"/>
<path d="M46.7441 0H0V10.7026H46.7441V0Z" transform="translate(494.186 206.009)" fill="#212529"/>
<path d="M90.2324 0H0V10.7026H90.2324V0Z" transform="translate(494.186 167.153)" fill="#212529"/>
</g>
<defs>
<clipPath id="clip0">
<rect width="1200" height="800" fill="white"/>
</clipPath>
</defs>
</svg>
