<svg width="1200" height="800" viewBox="0 0 1200 800" fill="none" xmlns="http://www.w3.org/2000/svg">
<g clip-path="url(#clip0)">
<rect width="1200" height="800" fill="white"/>
<rect width="1200" height="800" fill="white"/>
<path d="M0 0C31.1151 538.332 113.638 1018.29 230.657 1387.99V0H0Z" transform="translate(1228.99 570.668) rotate(90.0001)" fill="#EF4631"/>
<path d="M0 0C13.5283 516.713 73.0528 992.348 166.398 1381.5V0H0Z" transform="translate(1229 634.926) rotate(90.0001)" fill="#12ABE3"/>
<path d="M0.676409 0C-5.19087e-06 38.9156 5.16063e-06 77.8312 5.16063e-06 116.747C5.16063e-06 557.79 35.1736 972.89 98.0801 1333.94V0H0.676409Z" transform="translate(1229 703.921) rotate(90.0001)" fill="#2EB349"/>
<path d="M11.4991 0C4.05849 138.367 0 281.057 0 428.072C0 739.397 16.9104 1035.59 48.0254 1312.32V0H11.4991Z" transform="translate(1229 753.3) rotate(90.0001)" fill="#FFCD30"/>
<path d="M251.904 2.20312L243.678 50.9297L223.709 51.3516L219.42 26.1094L215.131 49.5234L195.162 50.2266L186.865 2.20312L204.303 0.65625L207.818 29.8359L212.529 0.65625H226.24L231.725 30.1875L234.537 0.65625L251.904 2.20312ZM292.773 22.5938C292.773 24.6328 292.632 26.6719 292.351 28.7109C288.343 28.9688 284.359 29.3906 280.398 29.9766C276.437 30.5391 272.476 31.1016 268.515 31.6641C269.124 33.3516 270.074 34.6992 271.363 35.707C272.675 36.7148 274.234 37.2188 276.038 37.2188C276.976 37.2188 277.995 37.043 279.097 36.6914C280.222 36.3398 281.335 35.9062 282.437 35.3906C283.538 34.8516 284.593 34.2773 285.601 33.668C286.609 33.0586 287.476 32.5078 288.202 32.0156L286.515 47.9766C285.601 48.6797 284.605 49.2773 283.527 49.7695C282.472 50.2617 281.37 50.6602 280.222 50.9648C279.074 51.2695 277.913 51.4922 276.741 51.6328C275.57 51.7734 274.421 51.8438 273.296 51.8438C270.976 51.8438 268.855 51.5273 266.933 50.8945C265.011 50.2617 263.265 49.3828 261.695 48.2578C260.148 47.1094 258.788 45.7617 257.616 44.2148C256.445 42.668 255.472 40.9805 254.699 39.1523C253.925 37.3242 253.339 35.3906 252.941 33.3516C252.542 31.3125 252.343 29.25 252.343 27.1641C252.343 24.9844 252.542 22.8047 252.941 20.625C253.339 18.4453 253.937 16.3477 254.734 14.332C255.554 12.3164 256.574 10.4531 257.792 8.74219C259.034 7.00781 260.476 5.49609 262.116 4.20703C263.757 2.91797 265.609 1.91016 267.671 1.18359C269.757 0.457031 272.054 0.09375 274.562 0.09375C276.648 0.09375 278.546 0.386719 280.257 0.972656C281.991 1.53516 283.527 2.33203 284.863 3.36328C286.222 4.37109 287.394 5.57812 288.378 6.98438C289.386 8.39062 290.206 9.9375 290.839 11.625C291.495 13.2891 291.976 15.0586 292.281 16.9336C292.609 18.7852 292.773 20.6719 292.773 22.5938ZM278.71 20.7656C278.71 20.1094 278.64 19.4414 278.499 18.7617C278.359 18.0586 278.124 17.4258 277.796 16.8633C277.491 16.3008 277.081 15.8438 276.566 15.4922C276.05 15.1172 275.406 14.9297 274.632 14.9297C273.695 14.9297 272.863 15.1875 272.136 15.7031C271.433 16.1953 270.824 16.8281 270.308 17.6016C269.792 18.3516 269.37 19.1719 269.042 20.0625C268.714 20.9531 268.468 21.7734 268.304 22.5234L278.71 21.5391V20.7656ZM336.735 38.4844C336.735 40.4297 336.372 42.1055 335.645 43.5117C334.942 44.918 333.993 46.1133 332.797 47.0977C331.602 48.082 330.219 48.8906 328.649 49.5234C327.102 50.1328 325.485 50.6133 323.797 50.9648C322.11 51.3164 320.411 51.5508 318.7 51.668C317.012 51.7852 315.43 51.8438 313.954 51.8438C312.501 51.8438 310.989 51.7852 309.419 51.668C307.872 51.5742 306.325 51.3984 304.778 51.1406C303.231 50.8828 301.708 50.543 300.208 50.1211C298.708 49.6758 297.29 49.125 295.954 48.4688L295.883 3.1875C297.196 2.64844 298.59 2.16797 300.067 1.74609C301.544 1.30078 303.044 0.9375 304.567 0.65625C306.114 0.351562 307.649 0.128906 309.172 -0.0117188C310.696 -0.175781 312.172 -0.257812 313.602 -0.257812C315.266 -0.257812 316.942 -0.152344 318.629 0.0585938C320.34 0.269531 321.981 0.621094 323.551 1.11328C325.122 1.60547 326.586 2.25 327.946 3.04688C329.305 3.82031 330.489 4.78125 331.497 5.92969C332.528 7.07813 333.325 8.41406 333.887 9.9375C334.473 11.4609 334.766 13.2187 334.766 15.2109C334.766 16.5234 334.579 17.7539 334.204 18.9023C333.829 20.0508 333.29 21.082 332.586 21.9961C331.883 22.9102 331.028 23.6953 330.02 24.3516C329.012 24.9844 327.876 25.4531 326.61 25.7578C328.133 26.1562 329.516 26.7422 330.758 27.5156C332.024 28.2891 333.09 29.2266 333.958 30.3281C334.848 31.4297 335.528 32.6719 335.997 34.0547C336.489 35.4375 336.735 36.9141 336.735 38.4844ZM318.876 18.4453C318.876 17.7656 318.735 17.1914 318.454 16.7227C318.172 16.2305 317.821 15.832 317.399 15.5273C317.001 15.2227 316.555 15 316.063 14.8594C315.594 14.7188 315.172 14.6484 314.797 14.6484C314.329 14.6484 313.872 14.7188 313.426 14.8594C312.981 15 312.547 15.1641 312.126 15.3516L311.915 23.1562C312.454 23.1562 313.122 23.1094 313.919 23.0156C314.715 22.9219 315.477 22.7227 316.204 22.418C316.954 22.0898 317.586 21.6211 318.102 21.0117C318.618 20.3789 318.876 19.5234 318.876 18.4453ZM313.883 29.9062C313.204 29.9062 312.547 29.9766 311.915 30.1172L311.774 38.1328C312.126 38.2031 312.465 38.2734 312.794 38.3438C313.145 38.3906 313.485 38.4141 313.813 38.4141C314.305 38.4141 314.844 38.3672 315.43 38.2734C316.016 38.1562 316.567 37.9453 317.083 37.6406C317.598 37.3125 318.02 36.8789 318.348 36.3398C318.7 35.8008 318.876 35.0859 318.876 34.1953C318.876 33.3047 318.7 32.5781 318.348 32.0156C318.02 31.4531 317.61 31.0195 317.118 30.7148C316.626 30.3867 316.086 30.1758 315.501 30.082C314.915 29.9648 314.376 29.9062 313.883 29.9062ZM393.968 23.0859C393.968 26.3672 393.546 29.3086 392.702 31.9102C391.859 34.5117 390.675 36.8203 389.151 38.8359C387.651 40.8281 385.859 42.5273 383.773 43.9336C381.687 45.3398 379.401 46.5 376.917 47.4141C374.433 48.3047 371.784 48.9609 368.972 49.3828C366.183 49.8047 363.312 50.0156 360.359 50.0156C359.257 50.0156 358.179 49.9922 357.124 49.9453C356.069 49.875 354.991 49.7812 353.89 49.6641L354.874 3.89062C357.452 3.07031 360.101 2.49609 362.819 2.16797C365.562 1.81641 368.28 1.64062 370.976 1.64062C374.327 1.64062 377.409 2.10937 380.222 3.04688C383.034 3.98438 385.46 5.36719 387.499 7.19531C389.538 9 391.12 11.2383 392.245 13.9102C393.394 16.5586 393.968 19.6172 393.968 23.0859ZM370.062 36.5859C371.468 36.375 372.745 35.9531 373.894 35.3203C375.066 34.6641 376.073 33.8672 376.917 32.9297C377.761 31.9688 378.405 30.8906 378.851 29.6953C379.319 28.4766 379.554 27.1875 379.554 25.8281C379.554 24.4922 379.413 23.25 379.132 22.1016C378.851 20.9297 378.394 19.9219 377.761 19.0781C377.128 18.2109 376.296 17.5312 375.265 17.0391C374.234 16.5234 372.968 16.2422 371.468 16.1953L370.062 36.5859ZM436.137 22.5938C436.137 24.6328 435.996 26.6719 435.715 28.7109C431.707 28.9688 427.723 29.3906 423.762 29.9766C419.801 30.5391 415.84 31.1016 411.879 31.6641C412.489 33.3516 413.438 34.6992 414.727 35.707C416.039 36.7148 417.598 37.2188 419.403 37.2188C420.34 37.2188 421.36 37.043 422.461 36.6914C423.586 36.3398 424.7 35.9062 425.801 35.3906C426.903 34.8516 427.957 34.2773 428.965 33.668C429.973 33.0586 430.84 32.5078 431.567 32.0156L429.879 47.9766C428.965 48.6797 427.969 49.2773 426.891 49.7695C425.836 50.2617 424.735 50.6602 423.586 50.9648C422.438 51.2695 421.278 51.4922 420.106 51.6328C418.934 51.7734 417.786 51.8438 416.661 51.8438C414.34 51.8438 412.219 51.5273 410.297 50.8945C408.375 50.2617 406.629 49.3828 405.059 48.2578C403.512 47.1094 402.153 45.7617 400.981 44.2148C399.809 42.668 398.836 40.9805 398.063 39.1523C397.289 37.3242 396.704 35.3906 396.305 33.3516C395.907 31.3125 395.707 29.25 395.707 27.1641C395.707 24.9844 395.907 22.8047 396.305 20.625C396.704 18.4453 397.301 16.3477 398.098 14.332C398.918 12.3164 399.938 10.4531 401.157 8.74219C402.399 7.00781 403.84 5.49609 405.481 4.20703C407.121 2.91797 408.973 1.91016 411.036 1.18359C413.121 0.457031 415.418 0.09375 417.926 0.09375C420.012 0.09375 421.911 0.386719 423.621 0.972656C425.356 1.53516 426.891 2.33203 428.227 3.36328C429.586 4.37109 430.758 5.57812 431.743 6.98438C432.75 8.39062 433.571 9.9375 434.204 11.625C434.86 13.2891 435.34 15.0586 435.645 16.9336C435.973 18.7852 436.137 20.6719 436.137 22.5938ZM422.075 20.7656C422.075 20.1094 422.004 19.4414 421.864 18.7617C421.723 18.0586 421.489 17.4258 421.161 16.8633C420.856 16.3008 420.446 15.8438 419.93 15.4922C419.414 15.1172 418.77 14.9297 417.996 14.9297C417.059 14.9297 416.227 15.1875 415.5 15.7031C414.797 16.1953 414.188 16.8281 413.672 17.6016C413.157 18.3516 412.735 19.1719 412.407 20.0625C412.079 20.9531 411.832 21.7734 411.668 22.5234L422.075 21.5391V20.7656ZM475.213 33C475.213 36.2109 474.65 38.9883 473.525 41.332C472.424 43.6523 470.9 45.5742 468.955 47.0977C467.033 48.5977 464.771 49.7109 462.17 50.4375C459.591 51.1406 456.814 51.4922 453.838 51.4922C452.689 51.4922 451.424 51.3398 450.041 51.0352C448.681 50.7305 447.299 50.3555 445.892 49.9102C444.486 49.4414 443.127 48.9492 441.814 48.4336C440.525 47.8945 439.377 47.3906 438.369 46.9219L439.916 33.1406C441.908 34.3359 444.111 35.25 446.525 35.8828C448.963 36.4922 451.353 36.7969 453.697 36.7969C454.142 36.7969 454.681 36.7852 455.314 36.7617C455.947 36.7148 456.545 36.6094 457.107 36.4453C457.693 36.2578 458.185 35.9883 458.584 35.6367C458.982 35.2852 459.181 34.7812 459.181 34.125C459.181 33.6797 459.041 33.3047 458.759 33C458.478 32.6719 458.115 32.4141 457.67 32.2266C457.224 32.0156 456.72 31.8633 456.158 31.7695C455.595 31.6523 455.045 31.5703 454.506 31.5234C453.966 31.4766 453.463 31.4531 452.994 31.4531C452.525 31.4531 452.15 31.4531 451.869 31.4531C449.853 31.4531 448.013 31.1367 446.349 30.5039C444.709 29.8711 443.291 28.9805 442.095 27.832C440.924 26.6602 440.009 25.2539 439.353 23.6133C438.697 21.9492 438.369 20.1094 438.369 18.0938C438.369 15.3281 438.92 12.8555 440.021 10.6758C441.146 8.47266 442.634 6.60937 444.486 5.08594C446.361 3.53906 448.506 2.35547 450.92 1.53516C453.334 0.714844 455.83 0.304688 458.408 0.304688C459.556 0.304688 460.74 0.351562 461.959 0.445312C463.177 0.515625 464.384 0.65625 465.58 0.867188C466.799 1.07812 467.982 1.34766 469.131 1.67578C470.279 2.00391 471.369 2.41406 472.4 2.90625L471.064 17.1797C469.47 16.6406 467.795 16.1953 466.037 15.8438C464.302 15.4688 462.603 15.2812 460.939 15.2812C460.634 15.2812 460.236 15.293 459.744 15.3164C459.275 15.3164 458.771 15.3516 458.232 15.4219C457.716 15.4688 457.189 15.5508 456.65 15.668C456.111 15.7852 455.631 15.9492 455.209 16.1602C454.787 16.3477 454.447 16.6055 454.189 16.9336C453.931 17.2617 453.814 17.6484 453.838 18.0938C453.861 18.6094 454.049 19.0078 454.4 19.2891C454.775 19.5703 455.244 19.7812 455.806 19.9219C456.392 20.0391 457.025 20.0977 457.705 20.0977C458.408 20.0977 459.099 20.0859 459.779 20.0625C460.459 20.0156 461.091 19.9805 461.677 19.957C462.263 19.9102 462.744 19.8984 463.119 19.9219C464.994 20.0391 466.681 20.4375 468.181 21.1172C469.681 21.7969 470.947 22.6992 471.978 23.8242C473.033 24.9492 473.83 26.2969 474.369 27.8672C474.931 29.4141 475.213 31.125 475.213 33ZM496.569 1.5L494.108 49.3828L479.272 50.1562L477.866 2.48438L496.569 1.5ZM542.676 43.125C541.574 44.5078 540.215 45.7148 538.598 46.7461C536.981 47.7773 535.246 48.6328 533.395 49.3125C531.543 49.9922 529.645 50.5078 527.699 50.8594C525.754 51.1875 523.903 51.3516 522.145 51.3516C518.746 51.3516 515.617 50.7773 512.758 49.6289C509.899 48.4805 507.426 46.8867 505.34 44.8477C503.278 42.7852 501.66 40.3359 500.489 37.5C499.317 34.6641 498.731 31.5703 498.731 28.2188C498.731 25.6641 499.024 23.1797 499.61 20.7656C500.196 18.3516 501.028 16.0898 502.106 13.9805C503.207 11.8711 504.543 9.9375 506.114 8.17969C507.684 6.42188 509.465 4.91016 511.457 3.64453C513.449 2.37891 515.629 1.40625 517.996 0.726562C520.387 0.0234375 522.918 -0.328125 525.59 -0.328125C526.598 -0.328125 527.676 -0.28125 528.824 -0.1875C529.973 -0.117188 531.11 0.0234375 532.235 0.234375C533.383 0.421875 534.496 0.691406 535.574 1.04297C536.653 1.39453 537.637 1.82812 538.528 2.34375L537.543 15.7734C536.231 15.2812 534.871 14.9531 533.465 14.7891C532.082 14.6016 530.723 14.5078 529.387 14.5078C527.512 14.5078 525.754 14.7656 524.114 15.2812C522.496 15.7734 521.078 16.5117 519.86 17.4961C518.664 18.4805 517.715 19.7109 517.012 21.1875C516.309 22.6641 515.957 24.375 515.957 26.3203C515.957 27.5391 516.121 28.7227 516.449 29.8711C516.778 30.9961 517.27 32.0039 517.926 32.8945C518.606 33.7617 519.438 34.4648 520.422 35.0039C521.43 35.543 522.59 35.8125 523.903 35.8125C524.793 35.8125 525.707 35.6953 526.645 35.4609C527.606 35.2266 528.426 34.8281 529.106 34.2656L529.246 31.5234L520.809 31.3828L521.231 20.8359C524.723 20.7188 528.215 20.625 531.707 20.5547C535.199 20.4609 538.715 20.3438 542.254 20.2031L542.676 43.125ZM589.732 33.2109C589.732 35.8594 589.697 38.4844 589.626 41.0859C589.58 43.6641 589.498 46.2656 589.38 48.8906L569.13 48.5391C569.833 44.3906 570.443 40.2539 570.958 36.1289C571.474 31.9805 571.732 27.7969 571.732 23.5781C571.732 23.2734 571.72 22.7812 571.697 22.1016C571.673 21.4219 571.626 20.6602 571.556 19.8164C571.486 18.9492 571.38 18.0703 571.24 17.1797C571.123 16.2656 570.947 15.4336 570.712 14.6836C570.501 13.9336 570.232 13.3242 569.904 12.8555C569.599 12.3633 569.224 12.1172 568.779 12.1172C567.982 12.1172 567.302 12.3516 566.74 12.8203C566.201 13.2891 565.744 13.8984 565.369 14.6484C565.017 15.375 564.736 16.1953 564.525 17.1094C564.314 18.0234 564.15 18.9375 564.033 19.8516C563.939 20.7656 563.869 21.6328 563.822 22.4531C563.798 23.25 563.787 23.9062 563.787 24.4219C563.669 28.5703 563.576 32.6953 563.505 36.7969C563.435 40.875 563.341 45 563.224 49.1719L545.294 49.9453C545.763 41.6719 546.208 33.4453 546.63 25.2656C547.076 17.0859 547.427 8.85937 547.685 0.585938L564.279 -0.257812L564.138 5.36719C564.794 4.57031 565.498 3.82031 566.248 3.11719C567.021 2.41406 567.841 1.81641 568.708 1.32422C569.576 0.808594 570.49 0.410156 571.451 0.128906C572.435 -0.175781 573.466 -0.328125 574.544 -0.328125C576.537 -0.328125 578.283 0 579.783 0.65625C581.283 1.3125 582.572 2.20312 583.65 3.32812C584.728 4.45312 585.63 5.78906 586.357 7.33594C587.083 8.85937 587.669 10.4883 588.115 12.2227C588.56 13.957 588.9 15.7734 589.134 17.6719C589.369 19.5469 589.521 21.3984 589.591 23.2266C589.685 25.0547 589.732 26.8242 589.732 28.5352C589.732 30.2461 589.732 31.8047 589.732 33.2109ZM649.531 18.5859C649.531 20.8594 649.192 22.875 648.512 24.6328C647.832 26.3906 646.895 27.9375 645.699 29.2734C644.527 30.5859 643.145 31.6992 641.551 32.6133C639.957 33.5039 638.246 34.2422 636.418 34.8281C634.613 35.3906 632.738 35.8125 630.793 36.0938C628.848 36.3516 626.938 36.4922 625.063 36.5156V51.4922H608.68C608.68 48.8203 608.68 46.2188 608.68 43.6875C608.703 41.1562 608.715 38.6484 608.715 36.1641C608.738 33.6562 608.75 31.1367 608.75 28.6055C608.774 26.0742 608.797 23.4609 608.82 20.7656C608.867 17.9062 608.879 15.0469 608.856 12.1875C608.832 9.32813 608.891 6.44531 609.031 3.53906C612.031 2.64844 615.031 1.98047 618.031 1.53516C621.031 1.08984 624.125 0.867188 627.313 0.867188C629.117 0.867188 630.922 1.01953 632.727 1.32422C634.531 1.60547 636.254 2.0625 637.895 2.69531C639.559 3.32812 641.094 4.125 642.5 5.08594C643.93 6.02344 645.16 7.14844 646.192 8.46094C647.223 9.77344 648.031 11.2734 648.617 12.9609C649.227 14.6484 649.531 16.5234 649.531 18.5859ZM633.922 19.7812C633.922 18.2578 633.453 17.0742 632.516 16.2305C631.602 15.3633 630.406 14.9297 628.93 14.9297C628.438 14.9297 627.922 14.9766 627.383 15.0703C626.867 15.1406 626.375 15.2344 625.906 15.3516L625.484 25.6172C625.813 25.6641 626.129 25.6875 626.434 25.6875C626.738 25.6875 627.055 25.6875 627.383 25.6875C628.227 25.6875 629.035 25.5469 629.809 25.2656C630.606 24.9844 631.309 24.5859 631.918 24.0703C632.527 23.5312 633.008 22.9102 633.359 22.207C633.734 21.4805 633.922 20.6719 633.922 19.7812ZM695.708 24.0703C695.708 26.2031 695.462 28.2656 694.97 30.2578C694.478 32.2266 693.763 34.0781 692.826 35.8125C691.911 37.5469 690.786 39.1406 689.451 40.5938C688.138 42.0234 686.65 43.2539 684.986 44.2852C683.345 45.3164 681.552 46.125 679.607 46.7109C677.661 47.2734 675.599 47.5547 673.419 47.5547C671.31 47.5547 669.294 47.2852 667.372 46.7461C665.474 46.207 663.693 45.457 662.029 44.4961C660.365 43.5117 658.853 42.3398 657.494 40.9805C656.158 39.5977 655.009 38.0742 654.048 36.4102C653.111 34.7227 652.372 32.918 651.833 30.9961C651.318 29.0742 651.06 27.0703 651.06 24.9844C651.06 22.9453 651.306 20.9531 651.798 19.0078C652.29 17.0391 652.994 15.1875 653.908 13.4531C654.845 11.7188 655.97 10.125 657.283 8.67188C658.595 7.21875 660.06 5.96484 661.677 4.91016C663.318 3.85547 665.087 3.03516 666.986 2.44922C668.884 1.86328 670.888 1.57031 672.997 1.57031C676.396 1.57031 679.49 2.09766 682.279 3.15234C685.091 4.20703 687.482 5.71875 689.451 7.6875C691.443 9.63281 692.978 12 694.056 14.7891C695.158 17.5547 695.708 20.6484 695.708 24.0703ZM680.099 24.9844C680.099 23.9766 679.947 23.0039 679.642 22.0664C679.361 21.1055 678.939 20.2617 678.376 19.5352C677.814 18.7852 677.111 18.1875 676.267 17.7422C675.447 17.2734 674.497 17.0391 673.419 17.0391C672.318 17.0391 671.333 17.2383 670.466 17.6367C669.599 18.0352 668.849 18.5859 668.216 19.2891C667.607 19.9688 667.138 20.7773 666.81 21.7148C666.482 22.6289 666.318 23.6016 666.318 24.6328C666.318 25.6172 666.458 26.6016 666.74 27.5859C667.021 28.5703 667.443 29.4609 668.005 30.2578C668.568 31.0547 669.259 31.6992 670.079 32.1914C670.923 32.6836 671.896 32.9297 672.997 32.9297C674.099 32.9297 675.083 32.7188 675.951 32.2969C676.841 31.8516 677.591 31.2656 678.201 30.5391C678.81 29.7891 679.279 28.9336 679.607 27.9727C679.935 27.0117 680.099 26.0156 680.099 24.9844ZM738.721 23.0859C738.721 26.3672 738.299 29.3086 737.456 31.9102C736.612 34.5117 735.428 36.8203 733.905 38.8359C732.405 40.8281 730.612 42.5273 728.526 43.9336C726.44 45.3398 724.155 46.5 721.671 47.4141C719.186 48.3047 716.538 48.9609 713.725 49.3828C710.936 49.8047 708.065 50.0156 705.112 50.0156C704.01 50.0156 702.932 49.9922 701.878 49.9453C700.823 49.875 699.745 49.7812 698.643 49.6641L699.628 3.89062C702.206 3.07031 704.854 2.49609 707.573 2.16797C710.315 1.81641 713.034 1.64062 715.729 1.64062C719.081 1.64062 722.163 2.10937 724.975 3.04688C727.788 3.98438 730.214 5.36719 732.253 7.19531C734.292 9 735.874 11.2383 736.999 13.9102C738.147 16.5586 738.721 19.6172 738.721 23.0859ZM714.815 36.5859C716.221 36.375 717.499 35.9531 718.647 35.3203C719.819 34.6641 720.827 33.8672 721.671 32.9297C722.514 31.9688 723.159 30.8906 723.604 29.6953C724.073 28.4766 724.307 27.1875 724.307 25.8281C724.307 24.4922 724.167 23.25 723.885 22.1016C723.604 20.9297 723.147 19.9219 722.514 19.0781C721.881 18.2109 721.049 17.5312 720.018 17.0391C718.987 16.5234 717.721 16.2422 716.221 16.1953L714.815 36.5859ZM775.195 2.97656L773.93 17.8125C773.25 17.625 772.582 17.4961 771.926 17.4258C771.269 17.3555 770.602 17.3203 769.922 17.3203C768.258 17.3203 766.664 17.5312 765.141 17.9531C763.641 18.375 762.305 19.0195 761.133 19.8867C759.984 20.7539 759.059 21.8555 758.355 23.1914C757.676 24.5039 757.336 26.0625 757.336 27.8672C757.336 29.1797 757.523 30.3281 757.898 31.3125C758.297 32.2734 758.848 33.082 759.551 33.7383C760.277 34.3711 761.144 34.8516 762.152 35.1797C763.184 35.5078 764.32 35.6719 765.562 35.6719C766.43 35.6719 767.32 35.5898 768.234 35.4258C769.148 35.2383 770.062 34.9922 770.977 34.6875C771.891 34.3828 772.769 34.0312 773.613 33.6328C774.457 33.2344 775.242 32.8125 775.969 32.3672L775.406 48.8906C774.492 49.3594 773.508 49.7812 772.453 50.1562C771.398 50.5078 770.309 50.8125 769.184 51.0703C768.082 51.3516 766.969 51.5625 765.844 51.7031C764.742 51.8438 763.687 51.9141 762.68 51.9141C759.352 51.9141 756.316 51.293 753.574 50.0508C750.855 48.8086 748.512 47.1211 746.543 44.9883C744.598 42.832 743.086 40.3359 742.008 37.5C740.93 34.6641 740.391 31.6406 740.391 28.4297C740.391 24.5859 740.93 21 742.008 17.6719C743.109 14.3437 744.715 11.4609 746.824 9.02344C748.957 6.5625 751.582 4.64062 754.699 3.25781C757.84 1.85156 761.437 1.14844 765.492 1.14844C767.109 1.14844 768.75 1.27734 770.414 1.53516C772.078 1.79297 773.672 2.27344 775.195 2.97656ZM823.622 47.9766L806.185 50.2266L804.075 42.2812H796.06L794.302 50.2266L776.372 48.4688L790.364 1.64062L809.911 0.65625L823.622 47.9766ZM802.81 31.5234L800.138 19.2891L797.536 31.5234H802.81ZM861.116 33C861.116 36.2109 860.553 38.9883 859.428 41.332C858.327 43.6523 856.803 45.5742 854.858 47.0977C852.936 48.5977 850.674 49.7109 848.073 50.4375C845.495 51.1406 842.717 51.4922 839.741 51.4922C838.592 51.4922 837.327 51.3398 835.944 51.0352C834.584 50.7305 833.202 50.3555 831.795 49.9102C830.389 49.4414 829.03 48.9492 827.717 48.4336C826.428 47.8945 825.28 47.3906 824.272 46.9219L825.819 33.1406C827.811 34.3359 830.014 35.25 832.428 35.8828C834.866 36.4922 837.256 36.7969 839.6 36.7969C840.045 36.7969 840.584 36.7852 841.217 36.7617C841.85 36.7148 842.448 36.6094 843.01 36.4453C843.596 36.2578 844.088 35.9883 844.487 35.6367C844.885 35.2852 845.084 34.7812 845.084 34.125C845.084 33.6797 844.944 33.3047 844.663 33C844.381 32.6719 844.018 32.4141 843.573 32.2266C843.127 32.0156 842.624 31.8633 842.061 31.7695C841.499 31.6523 840.948 31.5703 840.409 31.5234C839.87 31.4766 839.366 31.4531 838.897 31.4531C838.428 31.4531 838.053 31.4531 837.772 31.4531C835.756 31.4531 833.917 31.1367 832.252 30.5039C830.612 29.8711 829.194 28.9805 827.999 27.832C826.827 26.6602 825.913 25.2539 825.256 23.6133C824.6 21.9492 824.272 20.1094 824.272 18.0938C824.272 15.3281 824.823 12.8555 825.924 10.6758C827.049 8.47266 828.538 6.60937 830.389 5.08594C832.264 3.53906 834.409 2.35547 836.823 1.53516C839.237 0.714844 841.733 0.304688 844.311 0.304688C845.459 0.304688 846.643 0.351562 847.862 0.445312C849.081 0.515625 850.288 0.65625 851.483 0.867188C852.702 1.07812 853.885 1.34766 855.034 1.67578C856.182 2.00391 857.272 2.41406 858.303 2.90625L856.967 17.1797C855.374 16.6406 853.698 16.1953 851.94 15.8438C850.206 15.4688 848.506 15.2812 846.842 15.2812C846.538 15.2812 846.139 15.293 845.647 15.3164C845.178 15.3164 844.674 15.3516 844.135 15.4219C843.62 15.4688 843.092 15.5508 842.553 15.668C842.014 15.7852 841.534 15.9492 841.112 16.1602C840.69 16.3477 840.35 16.6055 840.092 16.9336C839.834 17.2617 839.717 17.6484 839.741 18.0938C839.764 18.6094 839.952 19.0078 840.303 19.2891C840.678 19.5703 841.147 19.7812 841.709 19.9219C842.295 20.0391 842.928 20.0977 843.608 20.0977C844.311 20.0977 845.002 20.0859 845.682 20.0625C846.362 20.0156 846.995 19.9805 847.581 19.957C848.167 19.9102 848.647 19.8984 849.022 19.9219C850.897 20.0391 852.584 20.4375 854.084 21.1172C855.584 21.7969 856.85 22.6992 857.881 23.8242C858.936 24.9492 859.733 26.2969 860.272 27.8672C860.834 29.4141 861.116 31.125 861.116 33ZM900.508 1.42969L900.156 16.3359L889.679 16.7578L888.414 49.3828L873.578 50.1562L872.242 17.5312L861.765 18.0938L862.187 1.5L900.508 1.42969ZM939.267 33C939.267 36.2109 938.704 38.9883 937.579 41.332C936.478 43.6523 934.954 45.5742 933.009 47.0977C931.087 48.5977 928.825 49.7109 926.224 50.4375C923.646 51.1406 920.868 51.4922 917.892 51.4922C916.743 51.4922 915.478 51.3398 914.095 51.0352C912.735 50.7305 911.353 50.3555 909.946 49.9102C908.54 49.4414 907.181 48.9492 905.868 48.4336C904.579 47.8945 903.431 47.3906 902.423 46.9219L903.97 33.1406C905.962 34.3359 908.165 35.25 910.579 35.8828C913.017 36.4922 915.407 36.7969 917.751 36.7969C918.196 36.7969 918.735 36.7852 919.368 36.7617C920.001 36.7148 920.599 36.6094 921.161 36.4453C921.747 36.2578 922.239 35.9883 922.638 35.6367C923.036 35.2852 923.235 34.7812 923.235 34.125C923.235 33.6797 923.095 33.3047 922.814 33C922.532 32.6719 922.169 32.4141 921.724 32.2266C921.278 32.0156 920.774 31.8633 920.212 31.7695C919.649 31.6523 919.099 31.5703 918.56 31.5234C918.021 31.4766 917.517 31.4531 917.048 31.4531C916.579 31.4531 916.204 31.4531 915.923 31.4531C913.907 31.4531 912.067 31.1367 910.403 30.5039C908.763 29.8711 907.345 28.9805 906.149 27.832C904.978 26.6602 904.064 25.2539 903.407 23.6133C902.751 21.9492 902.423 20.1094 902.423 18.0938C902.423 15.3281 902.974 12.8555 904.075 10.6758C905.2 8.47266 906.689 6.60937 908.54 5.08594C910.415 3.53906 912.56 2.35547 914.974 1.53516C917.388 0.714844 919.884 0.304688 922.462 0.304688C923.61 0.304688 924.794 0.351562 926.013 0.445312C927.232 0.515625 928.439 0.65625 929.634 0.867188C930.853 1.07812 932.036 1.34766 933.185 1.67578C934.333 2.00391 935.423 2.41406 936.454 2.90625L935.118 17.1797C933.524 16.6406 931.849 16.1953 930.091 15.8438C928.357 15.4688 926.657 15.2812 924.993 15.2812C924.689 15.2812 924.29 15.293 923.798 15.3164C923.329 15.3164 922.825 15.3516 922.286 15.4219C921.771 15.4688 921.243 15.5508 920.704 15.668C920.165 15.7852 919.685 15.9492 919.263 16.1602C918.841 16.3477 918.501 16.6055 918.243 16.9336C917.985 17.2617 917.868 17.6484 917.892 18.0938C917.915 18.6094 918.103 19.0078 918.454 19.2891C918.829 19.5703 919.298 19.7812 919.86 19.9219C920.446 20.0391 921.079 20.0977 921.759 20.0977C922.462 20.0977 923.153 20.0859 923.833 20.0625C924.513 20.0156 925.146 19.9805 925.732 19.957C926.317 19.9102 926.798 19.8984 927.173 19.9219C929.048 20.0391 930.735 20.4375 932.235 21.1172C933.735 21.7969 935.001 22.6992 936.032 23.8242C937.087 24.9492 937.884 26.2969 938.423 27.8672C938.985 29.4141 939.267 31.125 939.267 33ZM398.046 73.4297L397.694 88.3359L387.218 88.7578L385.952 121.383L371.116 122.156L369.78 89.5312L359.304 90.0938L359.726 73.5L398.046 73.4297ZM443.52 96.0703C443.52 98.2031 443.274 100.266 442.782 102.258C442.289 104.227 441.575 106.078 440.637 107.812C439.723 109.547 438.598 111.141 437.262 112.594C435.95 114.023 434.461 115.254 432.797 116.285C431.157 117.316 429.364 118.125 427.418 118.711C425.473 119.273 423.411 119.555 421.231 119.555C419.121 119.555 417.106 119.285 415.184 118.746C413.286 118.207 411.504 117.457 409.84 116.496C408.176 115.512 406.664 114.34 405.305 112.98C403.969 111.598 402.821 110.074 401.86 108.41C400.922 106.723 400.184 104.918 399.645 102.996C399.129 101.074 398.871 99.0703 398.871 96.9844C398.871 94.9453 399.118 92.9531 399.61 91.0078C400.102 89.0391 400.805 87.1875 401.719 85.4531C402.657 83.7188 403.782 82.125 405.094 80.6719C406.407 79.2188 407.871 77.9648 409.489 76.9102C411.129 75.8555 412.899 75.0352 414.797 74.4492C416.696 73.8633 418.7 73.5703 420.809 73.5703C424.207 73.5703 427.301 74.0977 430.09 75.1523C432.903 76.207 435.293 77.7188 437.262 79.6875C439.254 81.6328 440.789 84 441.868 86.7891C442.969 89.5547 443.52 92.6484 443.52 96.0703ZM427.911 96.9844C427.911 95.9766 427.758 95.0039 427.454 94.0664C427.172 93.1055 426.75 92.2617 426.188 91.5352C425.625 90.7852 424.922 90.1875 424.079 89.7422C423.258 89.2734 422.309 89.0391 421.231 89.0391C420.129 89.0391 419.145 89.2383 418.278 89.6367C417.411 90.0352 416.661 90.5859 416.028 91.2891C415.418 91.9688 414.95 92.7773 414.621 93.7148C414.293 94.6289 414.129 95.6016 414.129 96.6328C414.129 97.6172 414.27 98.6016 414.551 99.5859C414.832 100.57 415.254 101.461 415.817 102.258C416.379 103.055 417.071 103.699 417.891 104.191C418.735 104.684 419.707 104.93 420.809 104.93C421.911 104.93 422.895 104.719 423.762 104.297C424.653 103.852 425.403 103.266 426.012 102.539C426.621 101.789 427.09 100.934 427.418 99.9727C427.746 99.0117 427.911 98.0156 427.911 96.9844ZM492.315 104.367L490.839 119.977L461.237 122.297L462.362 72.0938H480.644L478.042 104.367H492.315ZM513.039 73.5L510.578 121.383L495.742 122.156L494.336 74.4844L513.039 73.5ZM552.677 105C552.677 108.211 552.115 110.988 550.99 113.332C549.888 115.652 548.365 117.574 546.419 119.098C544.498 120.598 542.236 121.711 539.634 122.438C537.056 123.141 534.279 123.492 531.302 123.492C530.154 123.492 528.888 123.34 527.505 123.035C526.146 122.73 524.763 122.355 523.357 121.91C521.951 121.441 520.591 120.949 519.279 120.434C517.99 119.895 516.841 119.391 515.833 118.922L517.38 105.141C519.373 106.336 521.576 107.25 523.99 107.883C526.427 108.492 528.818 108.797 531.162 108.797C531.607 108.797 532.146 108.785 532.779 108.762C533.412 108.715 534.009 108.609 534.572 108.445C535.158 108.258 535.65 107.988 536.048 107.637C536.447 107.285 536.646 106.781 536.646 106.125C536.646 105.68 536.505 105.305 536.224 105C535.943 104.672 535.58 104.414 535.134 104.227C534.689 104.016 534.185 103.863 533.623 103.77C533.06 103.652 532.509 103.57 531.97 103.523C531.431 103.477 530.927 103.453 530.458 103.453C529.99 103.453 529.615 103.453 529.333 103.453C527.318 103.453 525.478 103.137 523.814 102.504C522.173 101.871 520.755 100.98 519.56 99.832C518.388 98.6602 517.474 97.2539 516.818 95.6133C516.162 93.9492 515.833 92.1094 515.833 90.0938C515.833 87.3281 516.384 84.8555 517.486 82.6758C518.611 80.4727 520.099 78.6094 521.951 77.0859C523.826 75.5391 525.97 74.3555 528.384 73.5352C530.798 72.7148 533.294 72.3047 535.873 72.3047C537.021 72.3047 538.205 72.3516 539.423 72.4453C540.642 72.5156 541.849 72.6562 543.044 72.8672C544.263 73.0781 545.447 73.3477 546.595 73.6758C547.744 74.0039 548.833 74.4141 549.865 74.9062L548.529 89.1797C546.935 88.6406 545.259 88.1953 543.501 87.8438C541.767 87.4688 540.068 87.2812 538.404 87.2812C538.099 87.2812 537.701 87.293 537.208 87.3164C536.74 87.3164 536.236 87.3516 535.697 87.4219C535.181 87.4688 534.654 87.5508 534.115 87.668C533.576 87.7852 533.095 87.9492 532.673 88.1602C532.251 88.3477 531.912 88.6055 531.654 88.9336C531.396 89.2617 531.279 89.6484 531.302 90.0938C531.326 90.6094 531.513 91.0078 531.865 91.2891C532.24 91.5703 532.708 91.7812 533.271 91.9219C533.857 92.0391 534.49 92.0977 535.169 92.0977C535.873 92.0977 536.564 92.0859 537.244 92.0625C537.923 92.0156 538.556 91.9805 539.142 91.957C539.728 91.9102 540.208 91.8984 540.583 91.9219C542.458 92.0391 544.146 92.4375 545.646 93.1172C547.146 93.7969 548.412 94.6992 549.443 95.8242C550.498 96.9492 551.294 98.2969 551.833 99.8672C552.396 101.414 552.677 103.125 552.677 105ZM592.069 73.4297L591.718 88.3359L581.241 88.7578L579.975 121.383L565.139 122.156L563.804 89.5312L553.327 90.0938L553.749 73.5L592.069 73.4297ZM633.324 94.5938C633.324 96.6328 633.184 98.6719 632.902 100.711C628.895 100.969 624.91 101.391 620.949 101.977C616.988 102.539 613.027 103.102 609.067 103.664C609.676 105.352 610.625 106.699 611.914 107.707C613.227 108.715 614.785 109.219 616.59 109.219C617.527 109.219 618.547 109.043 619.649 108.691C620.774 108.34 621.887 107.906 622.988 107.391C624.09 106.852 625.145 106.277 626.152 105.668C627.16 105.059 628.027 104.508 628.754 104.016L627.067 119.977C626.152 120.68 625.156 121.277 624.078 121.77C623.024 122.262 621.922 122.66 620.774 122.965C619.625 123.27 618.465 123.492 617.293 123.633C616.121 123.773 614.973 123.844 613.848 123.844C611.527 123.844 609.406 123.527 607.484 122.895C605.563 122.262 603.817 121.383 602.246 120.258C600.699 119.109 599.34 117.762 598.168 116.215C596.996 114.668 596.024 112.98 595.25 111.152C594.477 109.324 593.891 107.391 593.492 105.352C593.094 103.312 592.895 101.25 592.895 99.1641C592.895 96.9844 593.094 94.8047 593.492 92.625C593.891 90.4453 594.488 88.3477 595.285 86.332C596.106 84.3164 597.125 82.4531 598.344 80.7422C599.586 79.0078 601.027 77.4961 602.668 76.207C604.309 74.918 606.16 73.9102 608.223 73.1836C610.309 72.457 612.606 72.0938 615.113 72.0938C617.199 72.0938 619.098 72.3867 620.809 72.9727C622.543 73.5352 624.078 74.332 625.414 75.3633C626.774 76.3711 627.945 77.5781 628.93 78.9844C629.938 80.3906 630.758 81.9375 631.391 83.625C632.047 85.2891 632.527 87.0586 632.832 88.9336C633.16 90.7852 633.324 92.6719 633.324 94.5938ZM619.262 92.7656C619.262 92.1094 619.192 91.4414 619.051 90.7617C618.91 90.0586 618.676 89.4258 618.348 88.8633C618.043 88.3008 617.633 87.8438 617.117 87.4922C616.602 87.1172 615.957 86.9297 615.184 86.9297C614.246 86.9297 613.414 87.1875 612.688 87.7031C611.984 88.1953 611.375 88.8281 610.859 89.6016C610.344 90.3516 609.922 91.1719 609.594 92.0625C609.266 92.9531 609.02 93.7734 608.856 94.5234L619.262 93.5391V92.7656ZM679.994 105.211C679.994 107.859 679.958 110.484 679.888 113.086C679.841 115.664 679.759 118.266 679.642 120.891L659.392 120.539C660.095 116.391 660.704 112.254 661.22 108.129C661.736 103.98 661.994 99.7969 661.994 95.5781C661.994 95.2734 661.982 94.7812 661.958 94.1016C661.935 93.4219 661.888 92.6602 661.818 91.8164C661.747 90.9492 661.642 90.0703 661.501 89.1797C661.384 88.2656 661.208 87.4336 660.974 86.6836C660.763 85.9336 660.494 85.3242 660.165 84.8555C659.861 84.3633 659.486 84.1172 659.04 84.1172C658.244 84.1172 657.564 84.3516 657.001 84.8203C656.462 85.2891 656.005 85.8984 655.63 86.6484C655.279 87.375 654.997 88.1953 654.786 89.1094C654.576 90.0234 654.411 90.9375 654.294 91.8516C654.201 92.7656 654.13 93.6328 654.083 94.4531C654.06 95.25 654.048 95.9062 654.048 96.4219C653.931 100.57 653.837 104.695 653.767 108.797C653.697 112.875 653.603 117 653.486 121.172L635.556 121.945C636.025 113.672 636.47 105.445 636.892 97.2656C637.337 89.0859 637.689 80.8594 637.947 72.5859L654.54 71.7422L654.4 77.3672C655.056 76.5703 655.759 75.8203 656.509 75.1172C657.283 74.4141 658.103 73.8164 658.97 73.3242C659.837 72.8086 660.751 72.4102 661.712 72.1289C662.697 71.8242 663.728 71.6719 664.806 71.6719C666.798 71.6719 668.544 72 670.044 72.6562C671.544 73.3125 672.833 74.2031 673.911 75.3281C674.99 76.4531 675.892 77.7891 676.619 79.3359C677.345 80.8594 677.931 82.4883 678.376 84.2227C678.822 85.957 679.161 87.7734 679.396 89.6719C679.63 91.5469 679.783 93.3984 679.853 95.2266C679.947 97.0547 679.994 98.8242 679.994 100.535C679.994 102.246 679.994 103.805 679.994 105.211ZM736.066 73.4297L735.715 88.3359L725.238 88.7578L723.973 121.383L709.137 122.156L707.801 89.5312L697.324 90.0938L697.746 73.5L736.066 73.4297ZM781.54 96.0703C781.54 98.2031 781.294 100.266 780.802 102.258C780.31 104.227 779.595 106.078 778.657 107.812C777.743 109.547 776.618 111.141 775.282 112.594C773.97 114.023 772.482 115.254 770.818 116.285C769.177 117.316 767.384 118.125 765.439 118.711C763.493 119.273 761.431 119.555 759.251 119.555C757.142 119.555 755.126 119.285 753.204 118.746C751.306 118.207 749.525 117.457 747.861 116.496C746.197 115.512 744.685 114.34 743.325 112.98C741.99 111.598 740.841 110.074 739.88 108.41C738.943 106.723 738.204 104.918 737.665 102.996C737.15 101.074 736.892 99.0703 736.892 96.9844C736.892 94.9453 737.138 92.9531 737.63 91.0078C738.122 89.0391 738.825 87.1875 739.74 85.4531C740.677 83.7188 741.802 82.125 743.115 80.6719C744.427 79.2188 745.892 77.9648 747.509 76.9102C749.15 75.8555 750.919 75.0352 752.818 74.4492C754.716 73.8633 756.72 73.5703 758.829 73.5703C762.228 73.5703 765.322 74.0977 768.111 75.1523C770.923 76.207 773.314 77.7188 775.282 79.6875C777.275 81.6328 778.81 84 779.888 86.7891C780.99 89.5547 781.54 92.6484 781.54 96.0703ZM765.931 96.9844C765.931 95.9766 765.779 95.0039 765.474 94.0664C765.193 93.1055 764.771 92.2617 764.208 91.5352C763.646 90.7852 762.943 90.1875 762.099 89.7422C761.279 89.2734 760.329 89.0391 759.251 89.0391C758.15 89.0391 757.165 89.2383 756.298 89.6367C755.431 90.0352 754.681 90.5859 754.048 91.2891C753.439 91.9688 752.97 92.7773 752.642 93.7148C752.314 94.6289 752.15 95.6016 752.15 96.6328C752.15 97.6172 752.29 98.6016 752.572 99.5859C752.853 100.57 753.275 101.461 753.837 102.258C754.4 103.055 755.091 103.699 755.911 104.191C756.755 104.684 757.728 104.93 758.829 104.93C759.931 104.93 760.915 104.719 761.782 104.297C762.673 103.852 763.423 103.266 764.032 102.539C764.642 101.789 765.111 100.934 765.439 99.9727C765.767 99.0117 765.931 98.0156 765.931 96.9844Z" transform="translate(29 390)" fill="#212529"/>
<path d="M9.04775 0H0V18.1429H9.04775V0Z" transform="translate(576.428 120.535)" fill="#212529"/>
<path d="M9.04823 0H0V18.1429H9.04823V0Z" transform="translate(558.332 120.535)" fill="#212529"/>
<path d="M9.04775 0H0V18.1429H9.04775V0Z" transform="translate(594.524 120.535)" fill="#212529"/>
<path d="M9.04823 0H0V18.1429H9.04823V0Z" transform="translate(612.619 120.535)" fill="#212529"/>
<path d="M22.6201 0H0V9.07143H22.6201V0Z" transform="translate(621.668 242.803)" fill="#212529"/>
<path d="M22.6201 0H0V9.07143H22.6201V0Z" transform="translate(621.668 260.946)" fill="#212529"/>
<path d="M22.6201 0H0V9.07167H22.6201V0Z" transform="translate(621.668 224.66)" fill="#212529"/>
<path d="M22.6201 0H0V9.07143H22.6201V0Z" transform="translate(621.668 206.517)" fill="#212529"/>
<path d="M22.6201 0H0V9.07143H22.6201V0Z" transform="translate(621.668 188.375)" fill="#212529"/>
<path d="M22.6201 0H0V9.07143H22.6201V0Z" transform="translate(621.668 170.232)" fill="#212529"/>
<path d="M22.6201 0H0V9.07143H22.6201V0Z" transform="translate(621.668 152.286)" fill="#212529"/>
<path d="M22.6201 0H0V9.07143H22.6201V0Z" transform="translate(535.907 242.803)" fill="#212529"/>
<path d="M22.6201 0H0V9.07143H22.6201V0Z" transform="translate(535.907 260.946)" fill="#212529"/>
<path d="M22.6201 0H0V9.07167H22.6201V0Z" transform="translate(535.907 224.66)" fill="#212529"/>
<path d="M22.6201 0H0V9.07143H22.6201V0Z" transform="translate(535.907 206.517)" fill="#212529"/>
<path d="M22.6201 0H0V9.07143H22.6201V0Z" transform="translate(535.907 188.375)" fill="#212529"/>
<path d="M22.6201 0H0V9.07143H22.6201V0Z" transform="translate(535.907 170.232)" fill="#212529"/>
<path d="M22.6201 0H0V9.07143H22.6201V0Z" transform="translate(535.907 152.286)" fill="#212529"/>
<path d="M9.04775 0H0V18.1429H9.04775V0Z" transform="translate(576.428 283.428)" fill="#212529"/>
<path d="M9.04823 0H0V18.1429H9.04823V0Z" transform="translate(558.332 283.428)" fill="#212529"/>
<path d="M9.04775 0H0V18.1429H9.04775V0Z" transform="translate(594.524 283.428)" fill="#212529"/>
<path d="M9.04823 0H0V18.1429H9.04823V0Z" transform="translate(612.619 283.428)" fill="#212529"/>
<path d="M91.2669 190.107H26.1602C11.8014 190.107 0 178.274 0 163.878V26.2285C0 11.8325 11.8014 0 26.1602 0H91.2669C105.626 0 117.428 11.8325 117.428 26.2285V163.878C117.624 178.274 105.822 190.107 91.2669 190.107ZM26.3571 9.07143C16.9157 9.07143 9.24464 16.7626 9.24464 26.2285V163.878C9.24464 173.344 16.9157 181.035 26.3571 181.035H91.4638C100.905 181.035 108.576 173.344 108.576 163.878V26.2285C108.576 16.7626 100.905 9.07143 91.4638 9.07143H26.3571Z" transform="translate(531.188 116)" fill="#212529"/>
<path d="M36.1919 18.1431C36.1919 28.2006 28.1275 36.286 18.096 36.286C8.06446 36.286 0 28.2006 0 18.1431C0 8.0856 8.06446 0 18.096 0C28.1275 0 36.1919 8.0856 36.1919 18.1431Z" transform="translate(571.902 192.91)" fill="#FFCD30"/>
<path d="M22.6201 45.3574C10.2282 45.3574 0 35.1027 0 22.6787C0 10.2547 10.2282 0 22.6201 0C35.012 0 45.2402 10.0575 45.2402 22.6787C45.2402 35.2999 35.012 45.3574 22.6201 45.3574ZM22.6201 9.07143C15.1456 9.07143 9.04823 15.1849 9.04823 22.6787C9.04823 30.1725 15.1456 36.2857 22.6201 36.2857C30.0945 36.2857 36.1919 30.1725 36.1919 22.6787C36.1919 15.1849 30.0945 9.07143 22.6201 9.07143Z" transform="translate(567.379 188.375)" fill="#212529"/>
<path d="M9.04823 0H0V9.07143H9.04823V0Z" transform="translate(585.476 206.518)" fill="#212529"/>
<path d="M35.9951 22.4813H8.85134C6.49098 22.4813 4.13024 21.4954 2.55667 19.9178C0.786402 18.1429 0 15.9735 0 13.607V0H9.04775V13.607H36.1919V0H45.2402V13.607C45.2402 15.9735 44.2566 18.3401 42.683 19.9178C40.7161 21.4954 38.3554 22.4813 35.9951 22.4813Z" transform="translate(567.577 301.769)" fill="#212529"/>
<path d="M9.04775 0H0V36.286H9.04775V0Z" transform="translate(594.524 319.714)" fill="#212529"/>
<path d="M9.04775 0H0V36.286H9.04775V0Z" transform="translate(576.428 319.714)" fill="#212529"/>
<path d="M9.04775 0H0V99.5891H9.04775V0Z" transform="translate(675.761 161.16)" fill="#12ABE3"/>
<path d="M9.04823 0H0V45.3574H9.04823V0Z" transform="translate(657.664 188.375)" fill="#12ABE3"/>
<path d="M9.04775 0H0V45.3574H9.04775V0Z" transform="translate(693.857 188.375)" fill="#12ABE3"/>
<path d="M9.04823 0H0V18.1431H9.04823V0Z" transform="translate(711.951 201.981)" fill="#12ABE3"/>
<path d="M9.04775 0H0V99.5891H9.04775V0Z" transform="translate(495.193 161.16)" fill="#12ABE3"/>
<path d="M9.04823 0H0V45.3574H9.04823V0Z" transform="translate(513.287 188.375)" fill="#12ABE3"/>
<path d="M9.04775 0H0V45.3574H9.04775V0Z" transform="translate(477.097 188.375)" fill="#12ABE3"/>
<path d="M9.04823 0H0V18.1431H9.04823V0Z" transform="translate(459 201.981)" fill="#12ABE3"/>
</g>
<defs>
<clipPath id="clip0">
<rect width="1200" height="800" fill="white"/>
</clipPath>
</defs>
</svg>
