<svg width="1200" height="800" viewBox="0 0 1200 800" fill="none" xmlns="http://www.w3.org/2000/svg">
<g clip-path="url(#clip0)">
<rect width="1200" height="800" fill="white"/>
<rect width="1200" height="800" fill="white"/>
<path d="M0 0C31.1151 538.332 113.638 1018.29 230.657 1387.99V0H0Z" transform="translate(1228.99 570.668) rotate(90.0001)" fill="#EF4631"/>
<path d="M0 0C13.5283 516.713 73.0528 992.348 166.398 1381.5V0H0Z" transform="translate(1229 634.926) rotate(90.0001)" fill="#12ABE3"/>
<path d="M0.676409 0C-5.19087e-06 38.9156 5.16063e-06 77.8312 5.16063e-06 116.747C5.16063e-06 557.79 35.1736 972.89 98.0801 1333.94V0H0.676409Z" transform="translate(1229 703.921) rotate(90.0001)" fill="#2EB349"/>
<path d="M11.4991 0C4.05849 138.367 0 281.057 0 428.072C0 739.397 16.9104 1035.59 48.0254 1312.32V0H11.4991Z" transform="translate(1229 753.3) rotate(90.0001)" fill="#FFCD30"/>
<path d="M355.095 2.20312L346.868 50.9297L326.9 51.3516L322.611 26.1094L318.322 49.5234L298.353 50.2266L290.056 2.20312L307.493 0.65625L311.009 29.8359L315.72 0.65625H329.431L334.915 30.1875L337.728 0.65625L355.095 2.20312ZM395.963 22.5938C395.963 24.6328 395.823 26.6719 395.542 28.7109C391.534 28.9688 387.549 29.3906 383.588 29.9766C379.627 30.5391 375.667 31.1016 371.706 31.6641C372.315 33.3516 373.264 34.6992 374.553 35.707C375.866 36.7148 377.424 37.2188 379.229 37.2188C380.167 37.2188 381.186 37.043 382.288 36.6914C383.413 36.3398 384.526 35.9062 385.627 35.3906C386.729 34.8516 387.784 34.2773 388.792 33.668C389.799 33.0586 390.667 32.5078 391.393 32.0156L389.706 47.9766C388.792 48.6797 387.795 49.2773 386.717 49.7695C385.663 50.2617 384.561 50.6602 383.413 50.9648C382.264 51.2695 381.104 51.4922 379.932 51.6328C378.76 51.7734 377.612 51.8438 376.487 51.8438C374.167 51.8438 372.045 51.5273 370.124 50.8945C368.202 50.2617 366.456 49.3828 364.885 48.2578C363.338 47.1094 361.979 45.7617 360.807 44.2148C359.635 42.668 358.663 40.9805 357.889 39.1523C357.116 37.3242 356.53 35.3906 356.131 33.3516C355.733 31.3125 355.534 29.25 355.534 27.1641C355.534 24.9844 355.733 22.8047 356.131 20.625C356.53 18.4453 357.127 16.3477 357.924 14.332C358.745 12.3164 359.764 10.4531 360.983 8.74219C362.225 7.00781 363.667 5.49609 365.307 4.20703C366.948 2.91797 368.799 1.91016 370.862 1.18359C372.948 0.457031 375.245 0.09375 377.752 0.09375C379.838 0.09375 381.737 0.386719 383.448 0.972656C385.182 1.53516 386.717 2.33203 388.053 3.36328C389.413 4.37109 390.584 5.57812 391.569 6.98438C392.577 8.39062 393.397 9.9375 394.03 11.625C394.686 13.2891 395.167 15.0586 395.471 16.9336C395.799 18.7852 395.963 20.6719 395.963 22.5938ZM381.901 20.7656C381.901 20.1094 381.831 19.4414 381.69 18.7617C381.549 18.0586 381.315 17.4258 380.987 16.8633C380.682 16.3008 380.272 15.8438 379.756 15.4922C379.241 15.1172 378.596 14.9297 377.823 14.9297C376.885 14.9297 376.053 15.1875 375.327 15.7031C374.624 16.1953 374.014 16.8281 373.499 17.6016C372.983 18.3516 372.561 19.1719 372.233 20.0625C371.905 20.9531 371.659 21.7734 371.495 22.5234L381.901 21.5391V20.7656ZM439.926 38.4844C439.926 40.4297 439.562 42.1055 438.836 43.5117C438.133 44.918 437.183 46.1133 435.988 47.0977C434.793 48.082 433.41 48.8906 431.84 49.5234C430.293 50.1328 428.676 50.6133 426.988 50.9648C425.301 51.3164 423.601 51.5508 421.89 51.668C420.203 51.7852 418.621 51.8438 417.144 51.8438C415.691 51.8438 414.179 51.7852 412.609 51.668C411.062 51.5742 409.515 51.3984 407.969 51.1406C406.422 50.8828 404.898 50.543 403.398 50.1211C401.898 49.6758 400.48 49.125 399.144 48.4688L399.074 3.1875C400.387 2.64844 401.781 2.16797 403.258 1.74609C404.734 1.30078 406.234 0.9375 407.758 0.65625C409.304 0.351562 410.84 0.128906 412.363 -0.0117188C413.887 -0.175781 415.363 -0.257812 416.793 -0.257812C418.457 -0.257812 420.133 -0.152344 421.82 0.0585938C423.531 0.269531 425.172 0.621094 426.742 1.11328C428.312 1.60547 429.777 2.25 431.137 3.04688C432.496 3.82031 433.679 4.78125 434.687 5.92969C435.719 7.07813 436.515 8.41406 437.078 9.9375C437.664 11.4609 437.957 13.2187 437.957 15.2109C437.957 16.5234 437.769 17.7539 437.394 18.9023C437.019 20.0508 436.48 21.082 435.777 21.9961C435.074 22.9102 434.219 23.6953 433.211 24.3516C432.203 24.9844 431.066 25.4531 429.801 25.7578C431.324 26.1562 432.707 26.7422 433.949 27.5156C435.215 28.2891 436.281 29.2266 437.148 30.3281C438.039 31.4297 438.719 32.6719 439.187 34.0547C439.679 35.4375 439.926 36.9141 439.926 38.4844ZM422.066 18.4453C422.066 17.7656 421.926 17.1914 421.644 16.7227C421.363 16.2305 421.012 15.832 420.59 15.5273C420.191 15.2227 419.746 15 419.254 14.8594C418.785 14.7188 418.363 14.6484 417.988 14.6484C417.519 14.6484 417.062 14.7188 416.617 14.8594C416.172 15 415.738 15.1641 415.316 15.3516L415.105 23.1562C415.644 23.1562 416.312 23.1094 417.109 23.0156C417.906 22.9219 418.668 22.7227 419.394 22.418C420.144 22.0898 420.777 21.6211 421.293 21.0117C421.808 20.3789 422.066 19.5234 422.066 18.4453ZM417.074 29.9062C416.394 29.9062 415.738 29.9766 415.105 30.1172L414.965 38.1328C415.316 38.2031 415.656 38.2734 415.984 38.3438C416.336 38.3906 416.676 38.4141 417.004 38.4141C417.496 38.4141 418.035 38.3672 418.621 38.2734C419.207 38.1562 419.758 37.9453 420.273 37.6406C420.789 37.3125 421.211 36.8789 421.539 36.3398C421.89 35.8008 422.066 35.0859 422.066 34.1953C422.066 33.3047 421.89 32.5781 421.539 32.0156C421.211 31.4531 420.801 31.0195 420.308 30.7148C419.816 30.3867 419.277 30.1758 418.691 30.082C418.105 29.9648 417.566 29.9062 417.074 29.9062ZM478.157 33C478.157 36.2109 477.595 38.9883 476.47 41.332C475.368 43.6523 473.845 45.5742 471.899 47.0977C469.978 48.5977 467.716 49.7109 465.114 50.4375C462.536 51.1406 459.759 51.4922 456.782 51.4922C455.634 51.4922 454.368 51.3398 452.985 51.0352C451.626 50.7305 450.243 50.3555 448.837 49.9102C447.431 49.4414 446.071 48.9492 444.759 48.4336C443.47 47.8945 442.321 47.3906 441.314 46.9219L442.86 33.1406C444.853 34.3359 447.056 35.25 449.47 35.8828C451.907 36.4922 454.298 36.7969 456.642 36.7969C457.087 36.7969 457.626 36.7852 458.259 36.7617C458.892 36.7148 459.489 36.6094 460.052 36.4453C460.638 36.2578 461.13 35.9883 461.528 35.6367C461.927 35.2852 462.126 34.7812 462.126 34.125C462.126 33.6797 461.985 33.3047 461.704 33C461.423 32.6719 461.06 32.4141 460.614 32.2266C460.169 32.0156 459.665 31.8633 459.103 31.7695C458.54 31.6523 457.989 31.5703 457.45 31.5234C456.911 31.4766 456.407 31.4531 455.939 31.4531C455.47 31.4531 455.095 31.4531 454.814 31.4531C452.798 31.4531 450.958 31.1367 449.294 30.5039C447.653 29.8711 446.235 28.9805 445.04 27.832C443.868 26.6602 442.954 25.2539 442.298 23.6133C441.642 21.9492 441.314 20.1094 441.314 18.0938C441.314 15.3281 441.864 12.8555 442.966 10.6758C444.091 8.47266 445.579 6.60937 447.431 5.08594C449.306 3.53906 451.45 2.35547 453.864 1.53516C456.278 0.714844 458.774 0.304688 461.353 0.304688C462.501 0.304688 463.685 0.351562 464.903 0.445312C466.122 0.515625 467.329 0.65625 468.524 0.867188C469.743 1.07812 470.927 1.34766 472.075 1.67578C473.224 2.00391 474.314 2.41406 475.345 2.90625L474.009 17.1797C472.415 16.6406 470.739 16.1953 468.982 15.8438C467.247 15.4688 465.548 15.2812 463.884 15.2812C463.579 15.2812 463.181 15.293 462.689 15.3164C462.22 15.3164 461.716 15.3516 461.177 15.4219C460.661 15.4688 460.134 15.5508 459.595 15.668C459.056 15.7852 458.575 15.9492 458.153 16.1602C457.732 16.3477 457.392 16.6055 457.134 16.9336C456.876 17.2617 456.759 17.6484 456.782 18.0938C456.806 18.6094 456.993 19.0078 457.345 19.2891C457.72 19.5703 458.189 19.7812 458.751 19.9219C459.337 20.0391 459.97 20.0977 460.649 20.0977C461.353 20.0977 462.044 20.0859 462.724 20.0625C463.403 20.0156 464.036 19.9805 464.622 19.957C465.208 19.9102 465.689 19.8984 466.064 19.9219C467.939 20.0391 469.626 20.4375 471.126 21.1172C472.626 21.7969 473.892 22.6992 474.923 23.8242C475.978 24.9492 476.774 26.2969 477.314 27.8672C477.876 29.4141 478.157 31.125 478.157 33ZM499.514 1.5L497.053 49.3828L482.217 50.1562L480.811 2.48438L499.514 1.5ZM540.347 1.42969L539.996 16.3359L529.519 16.7578L528.254 49.3828L513.418 50.1562L512.082 17.5312L501.605 18.0938L502.027 1.5L540.347 1.42969ZM581.602 22.5938C581.602 24.6328 581.462 26.6719 581.181 28.7109C577.173 28.9688 573.188 29.3906 569.227 29.9766C565.266 30.5391 561.306 31.1016 557.345 31.6641C557.954 33.3516 558.903 34.6992 560.192 35.707C561.505 36.7148 563.063 37.2188 564.868 37.2188C565.806 37.2188 566.825 37.043 567.927 36.6914C569.052 36.3398 570.165 35.9062 571.266 35.3906C572.368 34.8516 573.423 34.2773 574.431 33.668C575.438 33.0586 576.306 32.5078 577.032 32.0156L575.345 47.9766C574.431 48.6797 573.434 49.2773 572.356 49.7695C571.302 50.2617 570.2 50.6602 569.052 50.9648C567.903 51.2695 566.743 51.4922 565.571 51.6328C564.399 51.7734 563.251 51.8438 562.126 51.8438C559.806 51.8438 557.684 51.5273 555.763 50.8945C553.841 50.2617 552.095 49.3828 550.524 48.2578C548.977 47.1094 547.618 45.7617 546.446 44.2148C545.274 42.668 544.302 40.9805 543.528 39.1523C542.755 37.3242 542.169 35.3906 541.77 33.3516C541.372 31.3125 541.173 29.25 541.173 27.1641C541.173 24.9844 541.372 22.8047 541.77 20.625C542.169 18.4453 542.766 16.3477 543.563 14.332C544.384 12.3164 545.403 10.4531 546.622 8.74219C547.864 7.00781 549.306 5.49609 550.946 4.20703C552.587 2.91797 554.438 1.91016 556.501 1.18359C558.587 0.457031 560.884 0.09375 563.391 0.09375C565.477 0.09375 567.376 0.386719 569.087 0.972656C570.821 1.53516 572.356 2.33203 573.692 3.36328C575.052 4.37109 576.224 5.57812 577.208 6.98438C578.216 8.39062 579.036 9.9375 579.669 11.625C580.325 13.2891 580.806 15.0586 581.11 16.9336C581.438 18.7852 581.602 20.6719 581.602 22.5938ZM567.54 20.7656C567.54 20.1094 567.47 19.4414 567.329 18.7617C567.188 18.0586 566.954 17.4258 566.626 16.8633C566.321 16.3008 565.911 15.8438 565.395 15.4922C564.88 15.1172 564.235 14.9297 563.462 14.9297C562.524 14.9297 561.692 15.1875 560.966 15.7031C560.263 16.1953 559.653 16.8281 559.138 17.6016C558.622 18.3516 558.2 19.1719 557.872 20.0625C557.544 20.9531 557.298 21.7734 557.134 22.5234L567.54 21.5391V20.7656ZM639.257 23.0859C639.257 26.3672 638.835 29.3086 637.992 31.9102C637.148 34.5117 635.964 36.8203 634.441 38.8359C632.941 40.8281 631.148 42.5273 629.062 43.9336C626.976 45.3398 624.691 46.5 622.207 47.4141C619.722 48.3047 617.074 48.9609 614.261 49.3828C611.472 49.8047 608.601 50.0156 605.648 50.0156C604.546 50.0156 603.468 49.9922 602.414 49.9453C601.359 49.875 600.281 49.7812 599.179 49.6641L600.164 3.89062C602.742 3.07031 605.39 2.49609 608.109 2.16797C610.851 1.81641 613.57 1.64062 616.265 1.64062C619.617 1.64062 622.699 2.10937 625.511 3.04688C628.324 3.98438 630.75 5.36719 632.789 7.19531C634.828 9 636.41 11.2383 637.535 13.9102C638.683 16.5586 639.257 19.6172 639.257 23.0859ZM615.351 36.5859C616.757 36.375 618.035 35.9531 619.183 35.3203C620.355 34.6641 621.363 33.8672 622.207 32.9297C623.05 31.9688 623.695 30.8906 624.14 29.6953C624.609 28.4766 624.843 27.1875 624.843 25.8281C624.843 24.4922 624.703 23.25 624.421 22.1016C624.14 20.9297 623.683 19.9219 623.05 19.0781C622.417 18.2109 621.585 17.5312 620.554 17.0391C619.523 16.5234 618.257 16.2422 616.757 16.1953L615.351 36.5859ZM681.427 22.5938C681.427 24.6328 681.286 26.6719 681.005 28.7109C676.997 28.9688 673.012 29.3906 669.052 29.9766C665.091 30.5391 661.13 31.1016 657.169 31.6641C657.778 33.3516 658.727 34.6992 660.016 35.707C661.329 36.7148 662.887 37.2188 664.692 37.2188C665.63 37.2188 666.649 37.043 667.751 36.6914C668.876 36.3398 669.989 35.9062 671.091 35.3906C672.192 34.8516 673.247 34.2773 674.255 33.668C675.262 33.0586 676.13 32.5078 676.856 32.0156L675.169 47.9766C674.255 48.6797 673.259 49.2773 672.18 49.7695C671.126 50.2617 670.024 50.6602 668.876 50.9648C667.727 51.2695 666.567 51.4922 665.395 51.6328C664.223 51.7734 663.075 51.8438 661.95 51.8438C659.63 51.8438 657.509 51.5273 655.587 50.8945C653.665 50.2617 651.919 49.3828 650.348 48.2578C648.802 47.1094 647.442 45.7617 646.27 44.2148C645.098 42.668 644.126 40.9805 643.352 39.1523C642.579 37.3242 641.993 35.3906 641.594 33.3516C641.196 31.3125 640.997 29.25 640.997 27.1641C640.997 24.9844 641.196 22.8047 641.594 20.625C641.993 18.4453 642.591 16.3477 643.387 14.332C644.208 12.3164 645.227 10.4531 646.446 8.74219C647.688 7.00781 649.13 5.49609 650.77 4.20703C652.411 2.91797 654.262 1.91016 656.325 1.18359C658.411 0.457031 660.708 0.09375 663.216 0.09375C665.302 0.09375 667.2 0.386719 668.911 0.972656C670.645 1.53516 672.18 2.33203 673.516 3.36328C674.876 4.37109 676.048 5.57812 677.032 6.98438C678.04 8.39062 678.86 9.9375 679.493 11.625C680.149 13.2891 680.63 15.0586 680.934 16.9336C681.262 18.7852 681.427 20.6719 681.427 22.5938ZM667.364 20.7656C667.364 20.1094 667.294 19.4414 667.153 18.7617C667.012 18.0586 666.778 17.4258 666.45 16.8633C666.145 16.3008 665.735 15.8438 665.219 15.4922C664.704 15.1172 664.059 14.9297 663.286 14.9297C662.348 14.9297 661.516 15.1875 660.79 15.7031C660.087 16.1953 659.477 16.8281 658.962 17.6016C658.446 18.3516 658.024 19.1719 657.696 20.0625C657.368 20.9531 657.122 21.7734 656.958 22.5234L667.364 21.5391V20.7656ZM720.502 33C720.502 36.2109 719.939 38.9883 718.814 41.332C717.713 43.6523 716.189 45.5742 714.244 47.0977C712.322 48.5977 710.061 49.7109 707.459 50.4375C704.881 51.1406 702.104 51.4922 699.127 51.4922C697.979 51.4922 696.713 51.3398 695.33 51.0352C693.971 50.7305 692.588 50.3555 691.182 49.9102C689.775 49.4414 688.416 48.9492 687.104 48.4336C685.814 47.8945 684.666 47.3906 683.658 46.9219L685.205 33.1406C687.197 34.3359 689.4 35.25 691.814 35.8828C694.252 36.4922 696.643 36.7969 698.986 36.7969C699.432 36.7969 699.971 36.7852 700.604 36.7617C701.236 36.7148 701.834 36.6094 702.396 36.4453C702.982 36.2578 703.475 35.9883 703.873 35.6367C704.271 35.2852 704.471 34.7812 704.471 34.125C704.471 33.6797 704.33 33.3047 704.049 33C703.768 32.6719 703.404 32.4141 702.959 32.2266C702.514 32.0156 702.01 31.8633 701.447 31.7695C700.885 31.6523 700.334 31.5703 699.795 31.5234C699.256 31.4766 698.752 31.4531 698.283 31.4531C697.814 31.4531 697.439 31.4531 697.158 31.4531C695.143 31.4531 693.303 31.1367 691.639 30.5039C689.998 29.8711 688.58 28.9805 687.385 27.832C686.213 26.6602 685.299 25.2539 684.643 23.6133C683.986 21.9492 683.658 20.1094 683.658 18.0938C683.658 15.3281 684.209 12.8555 685.311 10.6758C686.436 8.47266 687.924 6.60937 689.775 5.08594C691.65 3.53906 693.795 2.35547 696.209 1.53516C698.623 0.714844 701.119 0.304688 703.697 0.304688C704.846 0.304688 706.029 0.351562 707.248 0.445312C708.467 0.515625 709.674 0.65625 710.869 0.867188C712.088 1.07812 713.271 1.34766 714.42 1.67578C715.568 2.00391 716.658 2.41406 717.689 2.90625L716.354 17.1797C714.76 16.6406 713.084 16.1953 711.326 15.8438C709.592 15.4688 707.893 15.2812 706.229 15.2812C705.924 15.2812 705.525 15.293 705.033 15.3164C704.564 15.3164 704.061 15.3516 703.521 15.4219C703.006 15.4688 702.479 15.5508 701.939 15.668C701.4 15.7852 700.92 15.9492 700.498 16.1602C700.076 16.3477 699.736 16.6055 699.479 16.9336C699.221 17.2617 699.104 17.6484 699.127 18.0938C699.15 18.6094 699.338 19.0078 699.689 19.2891C700.064 19.5703 700.533 19.7812 701.096 19.9219C701.682 20.0391 702.314 20.0977 702.994 20.0977C703.697 20.0977 704.389 20.0859 705.068 20.0625C705.748 20.0156 706.381 19.9805 706.967 19.957C707.553 19.9102 708.033 19.8984 708.408 19.9219C710.283 20.0391 711.971 20.4375 713.471 21.1172C714.971 21.7969 716.236 22.6992 717.268 23.8242C718.322 24.9492 719.119 26.2969 719.658 27.8672C720.221 29.4141 720.502 31.125 720.502 33ZM741.859 1.5L739.398 49.3828L724.562 50.1562L723.156 2.48438L741.859 1.5ZM787.965 43.125C786.864 44.5078 785.505 45.7148 783.887 46.7461C782.27 47.7773 780.536 48.6328 778.684 49.3125C776.833 49.9922 774.934 50.5078 772.989 50.8594C771.044 51.1875 769.192 51.3516 767.434 51.3516C764.036 51.3516 760.907 50.7773 758.047 49.6289C755.188 48.4805 752.715 46.8867 750.63 44.8477C748.567 42.7852 746.95 40.3359 745.778 37.5C744.606 34.6641 744.02 31.5703 744.02 28.2188C744.02 25.6641 744.313 23.1797 744.899 20.7656C745.485 18.3516 746.317 16.0898 747.395 13.9805C748.497 11.8711 749.833 9.9375 751.403 8.17969C752.973 6.42188 754.755 4.91016 756.747 3.64453C758.739 2.37891 760.919 1.40625 763.286 0.726562C765.676 0.0234375 768.208 -0.328125 770.88 -0.328125C771.887 -0.328125 772.965 -0.28125 774.114 -0.1875C775.262 -0.117188 776.399 0.0234375 777.524 0.234375C778.672 0.421875 779.786 0.691406 780.864 1.04297C781.942 1.39453 782.926 1.82812 783.817 2.34375L782.833 15.7734C781.52 15.2812 780.161 14.9531 778.755 14.7891C777.372 14.6016 776.012 14.5078 774.676 14.5078C772.801 14.5078 771.044 14.7656 769.403 15.2812C767.786 15.7734 766.368 16.5117 765.149 17.4961C763.954 18.4805 763.005 19.7109 762.301 21.1875C761.598 22.6641 761.247 24.375 761.247 26.3203C761.247 27.5391 761.411 28.7227 761.739 29.8711C762.067 30.9961 762.559 32.0039 763.215 32.8945C763.895 33.7617 764.727 34.4648 765.712 35.0039C766.719 35.543 767.88 35.8125 769.192 35.8125C770.083 35.8125 770.997 35.6953 771.934 35.4609C772.895 35.2266 773.715 34.8281 774.395 34.2656L774.536 31.5234L766.098 31.3828L766.52 20.8359C770.012 20.7188 773.505 20.625 776.997 20.5547C780.489 20.4609 784.005 20.3438 787.544 20.2031L787.965 43.125ZM835.021 33.2109C835.021 35.8594 834.986 38.4844 834.916 41.0859C834.869 43.6641 834.787 46.2656 834.67 48.8906L814.42 48.5391C815.123 44.3906 815.732 40.2539 816.248 36.1289C816.764 31.9805 817.021 27.7969 817.021 23.5781C817.021 23.2734 817.01 22.7812 816.986 22.1016C816.963 21.4219 816.916 20.6602 816.846 19.8164C816.775 18.9492 816.67 18.0703 816.529 17.1797C816.412 16.2656 816.236 15.4336 816.002 14.6836C815.791 13.9336 815.521 13.3242 815.193 12.8555C814.889 12.3633 814.514 12.1172 814.068 12.1172C813.271 12.1172 812.592 12.3516 812.029 12.8203C811.49 13.2891 811.033 13.8984 810.658 14.6484C810.307 15.375 810.025 16.1953 809.814 17.1094C809.603 18.0234 809.439 18.9375 809.322 19.8516C809.228 20.7656 809.158 21.6328 809.111 22.4531C809.088 23.25 809.076 23.9062 809.076 24.4219C808.959 28.5703 808.865 32.6953 808.795 36.7969C808.724 40.875 808.631 45 808.514 49.1719L790.584 49.9453C791.053 41.6719 791.498 33.4453 791.92 25.2656C792.365 17.0859 792.717 8.85937 792.974 0.585938L809.568 -0.257812L809.428 5.36719C810.084 4.57031 810.787 3.82031 811.537 3.11719C812.31 2.41406 813.131 1.81641 813.998 1.32422C814.865 0.808594 815.779 0.410156 816.74 0.128906C817.724 -0.175781 818.756 -0.328125 819.834 -0.328125C821.826 -0.328125 823.572 0 825.072 0.65625C826.572 1.3125 827.861 2.20312 828.939 3.32812C830.017 4.45312 830.92 5.78906 831.646 7.33594C832.373 8.85937 832.959 10.4883 833.404 12.2227C833.849 13.957 834.189 15.7734 834.424 17.6719C834.658 19.5469 834.81 21.3984 834.881 23.2266C834.974 25.0547 835.021 26.8242 835.021 28.5352C835.021 30.2461 835.021 31.8047 835.021 33.2109ZM467.557 90.5859C467.557 92.8594 467.217 94.875 466.537 96.6328C465.858 98.3906 464.92 99.9375 463.725 101.273C462.553 102.586 461.17 103.699 459.576 104.613C457.983 105.504 456.272 106.242 454.444 106.828C452.639 107.391 450.764 107.812 448.819 108.094C446.873 108.352 444.963 108.492 443.088 108.516V123.492H426.705C426.705 120.82 426.705 118.219 426.705 115.688C426.729 113.156 426.741 110.648 426.741 108.164C426.764 105.656 426.776 103.137 426.776 100.605C426.799 98.0742 426.823 95.4609 426.846 92.7656C426.893 89.9062 426.905 87.0469 426.881 84.1875C426.858 81.3281 426.916 78.4453 427.057 75.5391C430.057 74.6484 433.057 73.9805 436.057 73.5352C439.057 73.0898 442.151 72.8672 445.338 72.8672C447.143 72.8672 448.948 73.0195 450.752 73.3242C452.557 73.6055 454.28 74.0625 455.92 74.6953C457.584 75.3281 459.119 76.125 460.526 77.0859C461.955 78.0234 463.186 79.1484 464.217 80.4609C465.248 81.7734 466.057 83.2734 466.643 84.9609C467.252 86.6484 467.557 88.5234 467.557 90.5859ZM451.948 91.7812C451.948 90.2578 451.479 89.0742 450.541 88.2305C449.627 87.3633 448.432 86.9297 446.955 86.9297C446.463 86.9297 445.948 86.9766 445.409 87.0703C444.893 87.1406 444.401 87.2344 443.932 87.3516L443.51 97.6172C443.838 97.6641 444.155 97.6875 444.459 97.6875C444.764 97.6875 445.08 97.6875 445.409 97.6875C446.252 97.6875 447.061 97.5469 447.834 97.2656C448.631 96.9844 449.334 96.5859 449.944 96.0703C450.553 95.5312 451.034 94.9102 451.385 94.207C451.76 93.4805 451.948 92.6719 451.948 91.7812ZM511.484 89.1094C511.484 90.9375 511.32 92.6016 510.992 94.1016C510.687 95.5781 510.195 96.9375 509.515 98.1797C508.836 99.4219 507.957 100.57 506.879 101.625C505.8 102.68 504.5 103.688 502.976 104.648L511.343 119.555L495.523 122.648L490.109 107.672L485.75 107.812L485.117 122.438H470C470.117 117.094 470.222 111.773 470.316 106.477C470.433 101.18 470.562 95.8594 470.703 90.5156C470.75 87.8203 470.796 85.1484 470.843 82.5C470.89 79.8516 470.984 77.1797 471.125 74.4844C472.765 73.875 474.382 73.3711 475.976 72.9727C477.57 72.5742 479.164 72.2695 480.757 72.0586C482.375 71.8242 484.004 71.6719 485.644 71.6016C487.308 71.5078 489.007 71.4609 490.742 71.4609C493.414 71.4609 495.992 71.8359 498.476 72.5859C500.984 73.3125 503.199 74.4141 505.121 75.8906C507.043 77.3672 508.578 79.207 509.726 81.4102C510.898 83.6133 511.484 86.1797 511.484 89.1094ZM495.734 90.2344C495.734 89.25 495.593 88.3477 495.312 87.5273C495.054 86.707 494.656 86.0039 494.117 85.418C493.601 84.8086 492.945 84.3398 492.148 84.0117C491.375 83.6602 490.461 83.4844 489.406 83.4844C488.937 83.4844 488.48 83.5195 488.035 83.5898C487.589 83.6367 487.156 83.7188 486.734 83.8359L486.171 96.9141H487.015C488.023 96.9141 489.043 96.7852 490.074 96.5273C491.129 96.2695 492.066 95.8711 492.886 95.332C493.73 94.793 494.41 94.1016 494.925 93.2578C495.464 92.4141 495.734 91.4062 495.734 90.2344ZM558.118 96.0703C558.118 98.2031 557.872 100.266 557.38 102.258C556.888 104.227 556.173 106.078 555.235 107.812C554.321 109.547 553.196 111.141 551.86 112.594C550.548 114.023 549.059 115.254 547.395 116.285C545.755 117.316 543.962 118.125 542.016 118.711C540.071 119.273 538.009 119.555 535.829 119.555C533.72 119.555 531.704 119.285 529.782 118.746C527.884 118.207 526.102 117.457 524.438 116.496C522.774 115.512 521.263 114.34 519.903 112.98C518.567 111.598 517.419 110.074 516.458 108.41C515.52 106.723 514.782 104.918 514.243 102.996C513.727 101.074 513.47 99.0703 513.47 96.9844C513.47 94.9453 513.716 92.9531 514.208 91.0078C514.7 89.0391 515.403 87.1875 516.317 85.4531C517.255 83.7188 518.38 82.125 519.692 80.6719C521.005 79.2188 522.47 77.9648 524.087 76.9102C525.727 75.8555 527.497 75.0352 529.395 74.4492C531.294 73.8633 533.298 73.5703 535.407 73.5703C538.806 73.5703 541.899 74.0977 544.688 75.1523C547.501 76.207 549.891 77.7188 551.86 79.6875C553.852 81.6328 555.388 84 556.466 86.7891C557.567 89.5547 558.118 92.6484 558.118 96.0703ZM542.509 96.9844C542.509 95.9766 542.356 95.0039 542.052 94.0664C541.77 93.1055 541.349 92.2617 540.786 91.5352C540.224 90.7852 539.52 90.1875 538.677 89.7422C537.856 89.2734 536.907 89.0391 535.829 89.0391C534.727 89.0391 533.743 89.2383 532.876 89.6367C532.009 90.0352 531.259 90.5859 530.626 91.2891C530.016 91.9688 529.548 92.7773 529.22 93.7148C528.891 94.6289 528.727 95.6016 528.727 96.6328C528.727 97.6172 528.868 98.6016 529.149 99.5859C529.431 100.57 529.852 101.461 530.415 102.258C530.977 103.055 531.669 103.699 532.489 104.191C533.333 104.684 534.306 104.93 535.407 104.93C536.509 104.93 537.493 104.719 538.36 104.297C539.251 103.852 540.001 103.266 540.61 102.539C541.22 101.789 541.688 100.934 542.016 99.9727C542.345 99.0117 542.509 98.0156 542.509 96.9844ZM594.838 74.9766L593.572 89.8125C592.893 89.625 592.225 89.4961 591.568 89.4258C590.912 89.3555 590.244 89.3203 589.565 89.3203C587.901 89.3203 586.307 89.5312 584.783 89.9531C583.283 90.375 581.947 91.0195 580.776 91.8867C579.627 92.7539 578.701 93.8555 577.998 95.1914C577.318 96.5039 576.979 98.0625 576.979 99.8672C576.979 101.18 577.166 102.328 577.541 103.312C577.94 104.273 578.49 105.082 579.193 105.738C579.92 106.371 580.787 106.852 581.795 107.18C582.826 107.508 583.963 107.672 585.205 107.672C586.072 107.672 586.963 107.59 587.877 107.426C588.791 107.238 589.705 106.992 590.619 106.688C591.533 106.383 592.412 106.031 593.256 105.633C594.1 105.234 594.885 104.812 595.611 104.367L595.049 120.891C594.135 121.359 593.151 121.781 592.096 122.156C591.041 122.508 589.951 122.812 588.826 123.07C587.725 123.352 586.611 123.562 585.486 123.703C584.385 123.844 583.33 123.914 582.322 123.914C578.994 123.914 575.959 123.293 573.217 122.051C570.498 120.809 568.154 119.121 566.186 116.988C564.24 114.832 562.729 112.336 561.651 109.5C560.572 106.664 560.033 103.641 560.033 100.43C560.033 96.5859 560.572 93 561.651 89.6719C562.752 86.3438 564.358 83.4609 566.467 81.0234C568.6 78.5625 571.225 76.6406 574.342 75.2578C577.483 73.8516 581.08 73.1484 585.135 73.1484C586.752 73.1484 588.393 73.2773 590.057 73.5352C591.721 73.793 593.315 74.2734 594.838 74.9766ZM638.167 94.5938C638.167 96.6328 638.027 98.6719 637.746 100.711C633.738 100.969 629.753 101.391 625.792 101.977C621.831 102.539 617.871 103.102 613.91 103.664C614.519 105.352 615.468 106.699 616.757 107.707C618.07 108.715 619.628 109.219 621.433 109.219C622.371 109.219 623.39 109.043 624.492 108.691C625.617 108.34 626.73 107.906 627.831 107.391C628.933 106.852 629.988 106.277 630.996 105.668C632.003 105.059 632.871 104.508 633.597 104.016L631.91 119.977C630.996 120.68 629.999 121.277 628.921 121.77C627.867 122.262 626.765 122.66 625.617 122.965C624.468 123.27 623.308 123.492 622.136 123.633C620.964 123.773 619.816 123.844 618.691 123.844C616.371 123.844 614.249 123.527 612.328 122.895C610.406 122.262 608.66 121.383 607.089 120.258C605.542 119.109 604.183 117.762 603.011 116.215C601.839 114.668 600.867 112.98 600.093 111.152C599.32 109.324 598.734 107.391 598.335 105.352C597.937 103.312 597.738 101.25 597.738 99.1641C597.738 96.9844 597.937 94.8047 598.335 92.625C598.734 90.4453 599.331 88.3477 600.128 86.332C600.949 84.3164 601.968 82.4531 603.187 80.7422C604.429 79.0078 605.871 77.4961 607.511 76.207C609.152 74.918 611.003 73.9102 613.066 73.1836C615.152 72.457 617.449 72.0938 619.956 72.0938C622.042 72.0938 623.941 72.3867 625.652 72.9727C627.386 73.5352 628.921 74.332 630.257 75.3633C631.617 76.3711 632.789 77.5781 633.773 78.9844C634.781 80.3906 635.601 81.9375 636.234 83.625C636.89 85.2891 637.371 87.0586 637.675 88.9336C638.003 90.7852 638.167 92.6719 638.167 94.5938ZM624.105 92.7656C624.105 92.1094 624.035 91.4414 623.894 90.7617C623.753 90.0586 623.519 89.4258 623.191 88.8633C622.886 88.3008 622.476 87.8438 621.96 87.4922C621.445 87.1172 620.8 86.9297 620.027 86.9297C619.089 86.9297 618.257 87.1875 617.531 87.7031C616.828 88.1953 616.218 88.8281 615.703 89.6016C615.187 90.3516 614.765 91.1719 614.437 92.0625C614.109 92.9531 613.863 93.7734 613.699 94.5234L624.105 93.5391V92.7656ZM677.243 105C677.243 108.211 676.68 110.988 675.555 113.332C674.454 115.652 672.93 117.574 670.985 119.098C669.063 120.598 666.802 121.711 664.2 122.438C661.622 123.141 658.844 123.492 655.868 123.492C654.719 123.492 653.454 123.34 652.071 123.035C650.712 122.73 649.329 122.355 647.923 121.91C646.516 121.441 645.157 120.949 643.844 120.434C642.555 119.895 641.407 119.391 640.399 118.922L641.946 105.141C643.938 106.336 646.141 107.25 648.555 107.883C650.993 108.492 653.384 108.797 655.727 108.797C656.173 108.797 656.712 108.785 657.344 108.762C657.977 108.715 658.575 108.609 659.137 108.445C659.723 108.258 660.216 107.988 660.614 107.637C661.012 107.285 661.212 106.781 661.212 106.125C661.212 105.68 661.071 105.305 660.79 105C660.509 104.672 660.145 104.414 659.7 104.227C659.255 104.016 658.751 103.863 658.188 103.77C657.626 103.652 657.075 103.57 656.536 103.523C655.997 103.477 655.493 103.453 655.024 103.453C654.555 103.453 654.18 103.453 653.899 103.453C651.884 103.453 650.044 103.137 648.38 102.504C646.739 101.871 645.321 100.98 644.126 99.832C642.954 98.6602 642.04 97.2539 641.384 95.6133C640.727 93.9492 640.399 92.1094 640.399 90.0938C640.399 87.3281 640.95 84.8555 642.052 82.6758C643.177 80.4727 644.665 78.6094 646.516 77.0859C648.391 75.5391 650.536 74.3555 652.95 73.5352C655.364 72.7148 657.86 72.3047 660.438 72.3047C661.587 72.3047 662.77 72.3516 663.989 72.4453C665.208 72.5156 666.415 72.6562 667.61 72.8672C668.829 73.0781 670.012 73.3477 671.161 73.6758C672.309 74.0039 673.399 74.4141 674.43 74.9062L673.094 89.1797C671.501 88.6406 669.825 88.1953 668.067 87.8438C666.333 87.4688 664.634 87.2812 662.969 87.2812C662.665 87.2812 662.266 87.293 661.774 87.3164C661.305 87.3164 660.802 87.3516 660.262 87.4219C659.747 87.4688 659.219 87.5508 658.68 87.668C658.141 87.7852 657.661 87.9492 657.239 88.1602C656.817 88.3477 656.477 88.6055 656.219 88.9336C655.962 89.2617 655.844 89.6484 655.868 90.0938C655.891 90.6094 656.079 91.0078 656.43 91.2891C656.805 91.5703 657.274 91.7812 657.837 91.9219C658.423 92.0391 659.055 92.0977 659.735 92.0977C660.438 92.0977 661.13 92.0859 661.809 92.0625C662.489 92.0156 663.122 91.9805 663.708 91.957C664.294 91.9102 664.774 91.8984 665.149 91.9219C667.024 92.0391 668.712 92.4375 670.212 93.1172C671.712 93.7969 672.977 94.6992 674.009 95.8242C675.063 96.9492 675.86 98.2969 676.399 99.8672C676.962 101.414 677.243 103.125 677.243 105ZM715.932 105C715.932 108.211 715.369 110.988 714.244 113.332C713.143 115.652 711.619 117.574 709.674 119.098C707.752 120.598 705.49 121.711 702.889 122.438C700.311 123.141 697.533 123.492 694.557 123.492C693.408 123.492 692.143 123.34 690.76 123.035C689.4 122.73 688.018 122.355 686.611 121.91C685.205 121.441 683.846 120.949 682.533 120.434C681.244 119.895 680.096 119.391 679.088 118.922L680.635 105.141C682.627 106.336 684.83 107.25 687.244 107.883C689.682 108.492 692.072 108.797 694.416 108.797C694.861 108.797 695.4 108.785 696.033 108.762C696.666 108.715 697.264 108.609 697.826 108.445C698.412 108.258 698.904 107.988 699.303 107.637C699.701 107.285 699.9 106.781 699.9 106.125C699.9 105.68 699.76 105.305 699.479 105C699.197 104.672 698.834 104.414 698.389 104.227C697.943 104.016 697.439 103.863 696.877 103.77C696.314 103.652 695.764 103.57 695.225 103.523C694.686 103.477 694.182 103.453 693.713 103.453C693.244 103.453 692.869 103.453 692.588 103.453C690.572 103.453 688.732 103.137 687.068 102.504C685.428 101.871 684.01 100.98 682.814 99.832C681.643 98.6602 680.729 97.2539 680.072 95.6133C679.416 93.9492 679.088 92.1094 679.088 90.0938C679.088 87.3281 679.639 84.8555 680.74 82.6758C681.865 80.4727 683.354 78.6094 685.205 77.0859C687.08 75.5391 689.225 74.3555 691.639 73.5352C694.053 72.7148 696.549 72.3047 699.127 72.3047C700.275 72.3047 701.459 72.3516 702.678 72.4453C703.896 72.5156 705.104 72.6562 706.299 72.8672C707.518 73.0781 708.701 73.3477 709.85 73.6758C710.998 74.0039 712.088 74.4141 713.119 74.9062L711.783 89.1797C710.189 88.6406 708.514 88.1953 706.756 87.8438C705.021 87.4688 703.322 87.2812 701.658 87.2812C701.354 87.2812 700.955 87.293 700.463 87.3164C699.994 87.3164 699.49 87.3516 698.951 87.4219C698.436 87.4688 697.908 87.5508 697.369 87.668C696.83 87.7852 696.35 87.9492 695.928 88.1602C695.506 88.3477 695.166 88.6055 694.908 88.9336C694.65 89.2617 694.533 89.6484 694.557 90.0938C694.58 90.6094 694.768 91.0078 695.119 91.2891C695.494 91.5703 695.963 91.7812 696.525 91.9219C697.111 92.0391 697.744 92.0977 698.424 92.0977C699.127 92.0977 699.818 92.0859 700.498 92.0625C701.178 92.0156 701.811 91.9805 702.396 91.957C702.982 91.9102 703.463 91.8984 703.838 91.9219C705.713 92.0391 707.4 92.4375 708.9 93.1172C710.4 93.7969 711.666 94.6992 712.697 95.8242C713.752 96.9492 714.549 98.2969 715.088 99.8672C715.65 101.414 715.932 103.125 715.932 105Z" transform="translate(29 390)" fill="#212529"/>
<path d="M229.808 114.736H220.954V108.394L196.511 104.742L195.934 101.667C194.971 96.2859 193.624 91.0969 191.699 85.9078L190.544 82.8329L209.791 67.4579L203.44 56.5032L180.343 65.536L178.226 63.0375C174.762 58.8093 170.913 54.9656 166.678 51.5062L164.176 49.3922L173.222 26.3297L162.251 19.9875L146.854 39.2063L143.774 38.0531C138.77 36.1312 133.381 34.786 127.992 33.8251L124.912 33.2484L121.255 8.84069H108.553L104.896 33.2484L101.816 33.8251C96.427 34.786 91.2303 36.1312 86.0337 38.0531L82.9542 39.2063L67.5567 19.9875L56.5859 26.3297L65.632 49.3922L63.1299 51.5062C58.8956 54.9656 55.0462 58.8093 51.5818 63.0375L49.4646 65.536L26.3683 56.5032L20.0168 67.4579L39.2637 82.8329L38.109 85.9078C36.1843 90.9047 34.837 96.2859 33.8746 101.667L33.2972 104.742L8.85364 108.394V114.736H0V100.706L25.5985 96.8625C26.3683 93.0188 27.3306 89.3672 28.6779 85.7157L8.46868 69.5719L22.5189 45.3563L46.7701 54.7734C49.2722 51.8906 51.9666 49.2 54.8537 46.7015L45.4228 22.486L69.6738 8.45629L85.8412 28.636C89.4981 27.4829 93.155 26.3297 97.0044 25.5609L100.854 0H128.762L132.611 25.5609C136.461 26.3297 140.117 27.2907 143.774 28.636L159.942 8.45629L184.193 22.486L174.762 46.7015C177.649 49.2 180.343 51.8906 182.846 54.7734L207.097 45.3563L221.147 69.5719L200.938 85.7157C202.092 89.3672 203.247 93.0188 204.017 96.8625L229.616 100.706V114.736H229.808Z" transform="translate(485 109)" fill="#212529"/>
<path d="M36.3766 62.8453C36.3766 48.2391 48.3097 36.3235 62.9374 36.3235C77.565 36.3235 89.4981 48.2391 89.4981 62.8453H125.875C125.875 28.0594 97.7743 0 62.9374 0C28.1005 0 0 28.0594 0 62.8453H36.3766Z" transform="translate(537.158 160.891)" fill="#212529"/>
<path d="M61.975 30.9421H53.1214C53.1214 18.8343 43.3055 8.84058 30.9875 8.84058C18.8619 8.84058 8.85353 18.6421 8.85353 30.9421H0C0 13.8374 13.8577 0 30.9875 0C48.1172 0 61.975 13.8374 61.975 30.9421Z" transform="translate(568.916 192.794)" fill="#212529"/>
<path d="M168.025 0H0V8.84058H168.025V0Z" transform="translate(485.192 245.646)" fill="#212529"/>
<path d="M31.5648 0H0V8.84058H31.5648V0Z" transform="translate(683.435 245.646)" fill="#212529"/>
<path d="M15.0126 29.9812C6.73639 29.9812 0 23.2547 0 14.9906C0 6.72654 6.73639 0 15.0126 0C23.2887 0 30.0251 6.72654 30.0251 14.9906C30.0251 23.2547 23.2887 29.9812 15.0126 29.9812ZM15.0126 8.84058C11.5481 8.84058 8.85353 11.5312 8.85353 14.9906C8.85353 18.45 11.5481 21.1406 15.0126 21.1406C18.477 21.1406 21.1716 18.45 21.1716 14.9906C21.1716 11.5312 18.477 8.84058 15.0126 8.84058Z" transform="translate(644.556 235.075)" fill="#EF4631"/>
<path d="M115.674 0H0V8.84058H115.674V0Z" transform="translate(485.192 275.627)" fill="#212529"/>
<path d="M83.9164 0H0V8.84058H83.9164V0Z" transform="translate(631.083 275.627)" fill="#212529"/>
<path d="M15.0126 29.9812C6.73639 29.9812 0 23.2547 0 14.9906C0 6.72654 6.73639 0 15.0126 0C23.2887 0 30.0252 6.72654 30.0252 14.9906C30.0252 23.2547 23.2887 29.9812 15.0126 29.9812ZM15.0126 8.84058C11.5481 8.84058 8.85364 11.5312 8.85364 14.9906C8.85364 18.45 11.5481 21.1406 15.0126 21.1406C18.477 21.1406 21.1716 18.45 21.1716 14.9906C21.1716 11.5312 18.2845 8.84058 15.0126 8.84058Z" transform="translate(592.204 265.057)" fill="#12ABE3"/>
<path d="M30.6025 0H0V8.84069H30.6025V0Z" transform="translate(485.192 305.607)" fill="#212529"/>
<path d="M168.988 0H0V8.84069H168.988V0Z" transform="translate(546.012 305.607)" fill="#212529"/>
<path d="M15.0127 29.9813C6.73651 29.9813 0 23.2548 0 14.9907C0 6.72665 6.73651 0 15.0127 0C23.2888 0 30.0252 6.72665 30.0252 14.9907C30.0252 23.2548 23.2888 29.9813 15.0127 29.9813ZM15.0127 8.84069C11.5482 8.84069 8.85364 11.5313 8.85364 14.9907C8.85364 18.4501 11.5482 21.1406 15.0127 21.1406C18.4771 21.1406 21.1716 18.4501 21.1716 14.9907C21.1716 11.5313 18.2846 8.84069 15.0127 8.84069Z" transform="translate(507.134 295.037)" fill="#2EB349"/>
<path d="M97.7742 0H0V8.84058H97.7742V0Z" transform="translate(485.192 335.589)" fill="#212529"/>
<path d="M101.816 0H0V8.84058H101.816V0Z" transform="translate(612.993 335.589)" fill="#212529"/>
<path d="M15.0126 29.9812C6.73639 29.9812 0 23.2547 0 14.9906C0 6.72654 6.73639 0 15.0126 0C23.2887 0 30.0251 6.72654 30.0251 14.9906C30.0251 23.2547 23.2887 29.9812 15.0126 29.9812ZM15.0126 8.84058C11.5481 8.84058 8.85353 11.5312 8.85353 14.9906C8.85353 18.45 11.5481 21.1406 15.0126 21.1406C18.477 21.1406 21.1716 18.45 21.1716 14.9906C21.1716 11.5312 18.477 8.84058 15.0126 8.84058Z" transform="translate(574.113 325.019)" fill="#FFCD30"/>
</g>
<defs>
<clipPath id="clip0">
<rect width="1200" height="800" fill="white"/>
</clipPath>
</defs>
</svg>
