<svg width="1200" height="800" viewBox="0 0 1200 800" fill="none" xmlns="http://www.w3.org/2000/svg">
<g clip-path="url(#clip0)">
<rect width="1200" height="800" fill="white"/>
<rect width="1200" height="800" fill="white"/>
<path d="M0 0C31.1151 538.332 113.638 1018.29 230.657 1387.99V0H0Z" transform="translate(1228.99 570.668) rotate(90.0001)" fill="#EF4631"/>
<path d="M0 0C13.5283 516.713 73.0528 992.348 166.398 1381.5V0H0Z" transform="translate(1229 634.925) rotate(90.0001)" fill="#12ABE3"/>
<path d="M0.676409 0C-5.19087e-06 38.9156 5.16063e-06 77.8312 5.16063e-06 116.747C5.16063e-06 557.79 35.1736 972.89 98.0801 1333.94V0H0.676409Z" transform="translate(1229 703.921) rotate(90.0001)" fill="#2EB349"/>
<path d="M11.4991 0C4.05849 138.367 0 281.057 0 428.072C0 739.397 16.9104 1035.59 48.0254 1312.32V0H11.4991Z" transform="translate(1229 753.299) rotate(90.0001)" fill="#FFCD30"/>
<path d="M358.373 2.20312L350.146 50.9297L330.178 51.3516L325.889 26.1094L321.599 49.5234L301.631 50.2266L293.334 2.20312L310.771 0.65625L314.287 29.8359L318.998 0.65625H332.709L338.193 30.1875L341.006 0.65625L358.373 2.20312ZM399.241 22.5938C399.241 24.6328 399.101 26.6719 398.819 28.7109C394.812 28.9688 390.827 29.3906 386.866 29.9766C382.905 30.5391 378.944 31.1016 374.984 31.6641C375.593 33.3516 376.542 34.6992 377.831 35.707C379.144 36.7148 380.702 37.2188 382.507 37.2188C383.444 37.2188 384.464 37.043 385.566 36.6914C386.691 36.3398 387.804 35.9062 388.905 35.3906C390.007 34.8516 391.062 34.2773 392.069 33.668C393.077 33.0586 393.944 32.5078 394.671 32.0156L392.984 47.9766C392.069 48.6797 391.073 49.2773 389.995 49.7695C388.941 50.2617 387.839 50.6602 386.691 50.9648C385.542 51.2695 384.382 51.4922 383.21 51.6328C382.038 51.7734 380.89 51.8438 379.765 51.8438C377.444 51.8438 375.323 51.5273 373.401 50.8945C371.48 50.2617 369.734 49.3828 368.163 48.2578C366.616 47.1094 365.257 45.7617 364.085 44.2148C362.913 42.668 361.941 40.9805 361.167 39.1523C360.394 37.3242 359.808 35.3906 359.409 33.3516C359.011 31.3125 358.812 29.25 358.812 27.1641C358.812 24.9844 359.011 22.8047 359.409 20.625C359.808 18.4453 360.405 16.3477 361.202 14.332C362.023 12.3164 363.042 10.4531 364.261 8.74219C365.503 7.00781 366.944 5.49609 368.585 4.20703C370.226 2.91797 372.077 1.91016 374.14 1.18359C376.226 0.457031 378.523 0.09375 381.03 0.09375C383.116 0.09375 385.015 0.386719 386.726 0.972656C388.46 1.53516 389.995 2.33203 391.331 3.36328C392.691 4.37109 393.862 5.57812 394.847 6.98438C395.855 8.39062 396.675 9.9375 397.308 11.625C397.964 13.2891 398.444 15.0586 398.749 16.9336C399.077 18.7852 399.241 20.6719 399.241 22.5938ZM385.179 20.7656C385.179 20.1094 385.109 19.4414 384.968 18.7617C384.827 18.0586 384.593 17.4258 384.265 16.8633C383.96 16.3008 383.55 15.8438 383.034 15.4922C382.519 15.1172 381.874 14.9297 381.101 14.9297C380.163 14.9297 379.331 15.1875 378.605 15.7031C377.901 16.1953 377.292 16.8281 376.776 17.6016C376.261 18.3516 375.839 19.1719 375.511 20.0625C375.183 20.9531 374.937 21.7734 374.773 22.5234L385.179 21.5391V20.7656ZM443.204 38.4844C443.204 40.4297 442.84 42.1055 442.114 43.5117C441.411 44.918 440.461 46.1133 439.266 47.0977C438.071 48.082 436.688 48.8906 435.118 49.5234C433.571 50.1328 431.954 50.6133 430.266 50.9648C428.579 51.3164 426.879 51.5508 425.168 51.668C423.481 51.7852 421.899 51.8438 420.422 51.8438C418.969 51.8438 417.457 51.7852 415.887 51.668C414.34 51.5742 412.793 51.3984 411.246 51.1406C409.7 50.8828 408.176 50.543 406.676 50.1211C405.176 49.6758 403.758 49.125 402.422 48.4688L402.352 3.1875C403.664 2.64844 405.059 2.16797 406.536 1.74609C408.012 1.30078 409.512 0.9375 411.036 0.65625C412.582 0.351562 414.118 0.128906 415.641 -0.0117188C417.164 -0.175781 418.641 -0.257812 420.071 -0.257812C421.735 -0.257812 423.411 -0.152344 425.098 0.0585938C426.809 0.269531 428.45 0.621094 430.02 1.11328C431.59 1.60547 433.055 2.25 434.414 3.04688C435.774 3.82031 436.957 4.78125 437.965 5.92969C438.996 7.07813 439.793 8.41406 440.356 9.9375C440.942 11.4609 441.235 13.2187 441.235 15.2109C441.235 16.5234 441.047 17.7539 440.672 18.9023C440.297 20.0508 439.758 21.082 439.055 21.9961C438.352 22.9102 437.496 23.6953 436.489 24.3516C435.481 24.9844 434.344 25.4531 433.079 25.7578C434.602 26.1562 435.985 26.7422 437.227 27.5156C438.493 28.2891 439.559 29.2266 440.426 30.3281C441.317 31.4297 441.996 32.6719 442.465 34.0547C442.957 35.4375 443.204 36.9141 443.204 38.4844ZM425.344 18.4453C425.344 17.7656 425.204 17.1914 424.922 16.7227C424.641 16.2305 424.289 15.832 423.868 15.5273C423.469 15.2227 423.024 15 422.532 14.8594C422.063 14.7188 421.641 14.6484 421.266 14.6484C420.797 14.6484 420.34 14.7188 419.895 14.8594C419.45 15 419.016 15.1641 418.594 15.3516L418.383 23.1562C418.922 23.1562 419.59 23.1094 420.387 23.0156C421.184 22.9219 421.946 22.7227 422.672 22.418C423.422 22.0898 424.055 21.6211 424.571 21.0117C425.086 20.3789 425.344 19.5234 425.344 18.4453ZM420.352 29.9062C419.672 29.9062 419.016 29.9766 418.383 30.1172L418.243 38.1328C418.594 38.2031 418.934 38.2734 419.262 38.3438C419.614 38.3906 419.954 38.4141 420.282 38.4141C420.774 38.4141 421.313 38.3672 421.899 38.2734C422.485 38.1562 423.036 37.9453 423.551 37.6406C424.067 37.3125 424.489 36.8789 424.817 36.3398C425.168 35.8008 425.344 35.0859 425.344 34.1953C425.344 33.3047 425.168 32.5781 424.817 32.0156C424.489 31.4531 424.079 31.0195 423.586 30.7148C423.094 30.3867 422.555 30.1758 421.969 30.082C421.383 29.9648 420.844 29.9062 420.352 29.9062ZM481.435 33C481.435 36.2109 480.873 38.9883 479.748 41.332C478.646 43.6523 477.123 45.5742 475.177 47.0977C473.256 48.5977 470.994 49.7109 468.392 50.4375C465.814 51.1406 463.037 51.4922 460.06 51.4922C458.912 51.4922 457.646 51.3398 456.263 51.0352C454.904 50.7305 453.521 50.3555 452.115 49.9102C450.709 49.4414 449.349 48.9492 448.037 48.4336C446.748 47.8945 445.599 47.3906 444.591 46.9219L446.138 33.1406C448.131 34.3359 450.334 35.25 452.748 35.8828C455.185 36.4922 457.576 36.7969 459.92 36.7969C460.365 36.7969 460.904 36.7852 461.537 36.7617C462.17 36.7148 462.767 36.6094 463.33 36.4453C463.916 36.2578 464.408 35.9883 464.806 35.6367C465.205 35.2852 465.404 34.7812 465.404 34.125C465.404 33.6797 465.263 33.3047 464.982 33C464.701 32.6719 464.338 32.4141 463.892 32.2266C463.447 32.0156 462.943 31.8633 462.381 31.7695C461.818 31.6523 461.267 31.5703 460.728 31.5234C460.189 31.4766 459.685 31.4531 459.216 31.4531C458.748 31.4531 458.373 31.4531 458.091 31.4531C456.076 31.4531 454.236 31.1367 452.572 30.5039C450.931 29.8711 449.513 28.9805 448.318 27.832C447.146 26.6602 446.232 25.2539 445.576 23.6133C444.92 21.9492 444.591 20.1094 444.591 18.0938C444.591 15.3281 445.142 12.8555 446.244 10.6758C447.369 8.47266 448.857 6.60937 450.709 5.08594C452.584 3.53906 454.728 2.35547 457.142 1.53516C459.556 0.714844 462.052 0.304688 464.631 0.304688C465.779 0.304688 466.963 0.351562 468.181 0.445312C469.4 0.515625 470.607 0.65625 471.802 0.867188C473.021 1.07812 474.205 1.34766 475.353 1.67578C476.502 2.00391 477.591 2.41406 478.623 2.90625L477.287 17.1797C475.693 16.6406 474.017 16.1953 472.259 15.8438C470.525 15.4688 468.826 15.2812 467.162 15.2812C466.857 15.2812 466.459 15.293 465.966 15.3164C465.498 15.3164 464.994 15.3516 464.455 15.4219C463.939 15.4688 463.412 15.5508 462.873 15.668C462.334 15.7852 461.853 15.9492 461.431 16.1602C461.009 16.3477 460.67 16.6055 460.412 16.9336C460.154 17.2617 460.037 17.6484 460.06 18.0938C460.084 18.6094 460.271 19.0078 460.623 19.2891C460.998 19.5703 461.466 19.7812 462.029 19.9219C462.615 20.0391 463.248 20.0977 463.927 20.0977C464.631 20.0977 465.322 20.0859 466.002 20.0625C466.681 20.0156 467.314 19.9805 467.9 19.957C468.486 19.9102 468.966 19.8984 469.341 19.9219C471.216 20.0391 472.904 20.4375 474.404 21.1172C475.904 21.7969 477.17 22.6992 478.201 23.8242C479.256 24.9492 480.052 26.2969 480.591 27.8672C481.154 29.4141 481.435 31.125 481.435 33ZM503.425 1.5L499.558 49.3828L484.722 50.1562V2.48438L503.425 1.5ZM543.766 0.726562L543.414 15.6328L532.938 16.0547L530.266 49.3828L515.43 50.1562L515.5 16.8281L505.024 17.3906L505.446 0.796875L543.766 0.726562ZM579.712 0.304688C579.572 2.50781 579.443 4.6875 579.326 6.84375C579.208 9 579.056 11.1797 578.869 13.3828L563.962 14.1562L563.611 18.5859H574.087L573.314 29.4844L562.767 29.8359L562.416 34.9688H571.134H577.322C577.181 37.5469 577.029 40.1133 576.865 42.668C576.724 45.1992 576.595 47.7422 576.478 50.2969L546.173 51L547.298 0.304688H579.712ZM627.348 30.9609L625.871 46.5703L596.27 48.8906C596.41 40.7109 596.563 32.5781 596.727 24.4922C596.914 16.4062 597.137 8.27344 597.395 0.09375H615.676C615.137 5.22656 614.621 10.3594 614.129 15.4922C613.637 20.6016 613.285 25.7578 613.074 30.9609C614.176 31.0078 615.266 31.0312 616.344 31.0312C617.422 31.0312 618.512 31.0312 619.613 31.0312C620.926 31.0312 622.215 31.0195 623.481 30.9961C624.746 30.9727 626.035 30.9609 627.348 30.9609ZM674.052 47.9766L656.615 50.2266L654.505 42.2812H646.49L644.732 50.2266L626.802 48.4688L640.794 1.64062L660.341 0.65625L674.052 47.9766ZM653.24 31.5234L650.568 19.2891L647.966 31.5234H653.24ZM716.362 11.9062C716.362 13.6406 716.28 15.5508 716.116 17.6367C715.952 19.7227 715.682 21.8789 715.307 24.1055C714.932 26.332 714.44 28.5938 713.831 30.8906C713.245 33.1641 712.506 35.3555 711.616 37.4648C710.725 39.5742 709.682 41.5547 708.487 43.4062C707.315 45.2344 705.956 46.8398 704.409 48.2227C702.885 49.582 701.174 50.6484 699.276 51.4219C697.378 52.2188 695.268 52.6172 692.948 52.6172C690.229 52.6172 687.862 52.1719 685.846 51.2812C683.854 50.4141 682.143 49.2422 680.714 47.7656C679.284 46.2656 678.112 44.5312 677.198 42.5625C676.284 40.5703 675.569 38.4727 675.053 36.2695C674.538 34.043 674.174 31.7812 673.964 29.4844C673.776 27.1641 673.682 24.9375 673.682 22.8047C673.682 19.5234 673.846 16.2539 674.174 12.9961C674.503 9.71484 674.971 6.44531 675.581 3.1875L692.034 3.82031C691.401 7.5 690.85 11.2031 690.381 14.9297C689.936 18.6328 689.714 22.3594 689.714 26.1094C689.714 26.5078 689.725 27.1055 689.749 27.9023C689.796 28.6758 689.866 29.5547 689.96 30.5391C690.053 31.5 690.182 32.4961 690.346 33.5273C690.534 34.5352 690.78 35.4609 691.085 36.3047C691.389 37.1484 691.753 37.8398 692.174 38.3789C692.62 38.918 693.135 39.1875 693.721 39.1875C694.401 39.1875 695.01 38.8711 695.549 38.2383C696.089 37.582 696.557 36.7148 696.956 35.6367C697.378 34.5586 697.741 33.3164 698.046 31.9102C698.35 30.5039 698.608 29.0391 698.819 27.5156C699.03 25.9922 699.194 24.4688 699.311 22.9453C699.452 21.4219 699.557 20.0039 699.628 18.6914C699.721 17.3789 699.78 16.2188 699.803 15.2109C699.827 14.2031 699.839 13.4531 699.839 12.9609C699.839 11.1328 699.803 9.31641 699.733 7.51172C699.686 5.68359 699.604 3.86719 699.487 2.0625H715.94C716.221 5.29688 716.362 8.57812 716.362 11.9062ZM763.102 33.2109C763.102 35.8594 763.066 38.4844 762.996 41.0859C762.949 43.6641 762.867 46.2656 762.75 48.8906L742.5 48.5391C743.203 44.3906 743.812 40.2539 744.328 36.1289C744.844 31.9805 745.102 27.7969 745.102 23.5781C745.102 23.2734 745.09 22.7812 745.066 22.1016C745.043 21.4219 744.996 20.6602 744.926 19.8164C744.855 18.9492 744.75 18.0703 744.609 17.1797C744.492 16.2656 744.316 15.4336 744.082 14.6836C743.871 13.9336 743.602 13.3242 743.273 12.8555C742.969 12.3633 742.594 12.1172 742.148 12.1172C741.352 12.1172 740.672 12.3516 740.109 12.8203C739.57 13.2891 739.113 13.8984 738.738 14.6484C738.387 15.375 738.105 16.1953 737.894 17.1094C737.684 18.0234 737.519 18.9375 737.402 19.8516C737.309 20.7656 737.238 21.6328 737.191 22.4531C737.168 23.25 737.156 23.9062 737.156 24.4219C737.039 28.5703 736.945 32.6953 736.875 36.7969C736.805 40.875 736.711 45 736.594 49.1719L718.664 49.9453C719.133 41.6719 719.578 33.4453 720 25.2656C720.445 17.0859 720.797 8.85937 721.055 0.585938L737.648 -0.257812L737.508 5.36719C738.164 4.57031 738.867 3.82031 739.617 3.11719C740.391 2.41406 741.211 1.81641 742.078 1.32422C742.945 0.808594 743.859 0.410156 744.82 0.128906C745.805 -0.175781 746.836 -0.328125 747.914 -0.328125C749.906 -0.328125 751.652 0 753.152 0.65625C754.652 1.3125 755.941 2.20312 757.019 3.32812C758.098 4.45312 759 5.78906 759.727 7.33594C760.453 8.85937 761.039 10.4883 761.484 12.2227C761.93 13.957 762.269 15.7734 762.504 17.6719C762.738 19.5469 762.891 21.3984 762.961 23.2266C763.055 25.0547 763.102 26.8242 763.102 28.5352C763.102 30.2461 763.102 31.8047 763.102 33.2109ZM800.7 2.97656L799.435 17.8125C798.755 17.625 798.087 17.4961 797.431 17.4258C796.775 17.3555 796.107 17.3203 795.427 17.3203C793.763 17.3203 792.169 17.5312 790.646 17.9531C789.146 18.375 787.81 19.0195 786.638 19.8867C785.49 20.7539 784.564 21.8555 783.861 23.1914C783.181 24.5039 782.841 26.0625 782.841 27.8672C782.841 29.1797 783.029 30.3281 783.404 31.3125C783.802 32.2734 784.353 33.082 785.056 33.7383C785.782 34.3711 786.65 34.8516 787.657 35.1797C788.689 35.5078 789.825 35.6719 791.068 35.6719C791.935 35.6719 792.825 35.5898 793.74 35.4258C794.654 35.2383 795.568 34.9922 796.482 34.6875C797.396 34.3828 798.275 34.0312 799.118 33.6328C799.962 33.2344 800.747 32.8125 801.474 32.3672L800.911 48.8906C799.997 49.3594 799.013 49.7812 797.958 50.1562C796.904 50.5078 795.814 50.8125 794.689 51.0703C793.587 51.3516 792.474 51.5625 791.349 51.7031C790.247 51.8438 789.193 51.9141 788.185 51.9141C784.857 51.9141 781.822 51.293 779.079 50.0508C776.361 48.8086 774.017 47.1211 772.048 44.9883C770.103 42.832 768.591 40.3359 767.513 37.5C766.435 34.6641 765.896 31.6406 765.896 28.4297C765.896 24.5859 766.435 21 767.513 17.6719C768.615 14.3437 770.22 11.4609 772.329 9.02344C774.462 6.5625 777.087 4.64062 780.204 3.25781C783.345 1.85156 786.943 1.14844 790.997 1.14844C792.615 1.14844 794.255 1.27734 795.919 1.53516C797.583 1.79297 799.177 2.27344 800.7 2.97656ZM846.526 49.5938L828.948 50.4375L828.807 35.6016H820.721L820.229 51H804.479L805.815 1.57031L822.549 2.34375L821.495 27.5859H829.299L829.37 1.14844L845.401 1.57031L846.526 49.5938ZM437.165 73.5703L435.196 88.4062C434.517 88.2188 433.837 88.0898 433.157 88.0195C432.478 87.9492 431.798 87.9141 431.118 87.9141C429.384 87.9141 427.732 88.1484 426.161 88.6172C424.591 89.0625 423.196 89.7539 421.978 90.6914C420.782 91.6289 419.821 92.8008 419.095 94.207C418.392 95.6133 418.04 97.2656 418.04 99.1641C418.04 100.383 418.228 101.438 418.603 102.328C419.001 103.219 419.552 103.957 420.255 104.543C420.958 105.129 421.79 105.562 422.751 105.844C423.712 106.125 424.767 106.266 425.915 106.266C426.782 106.266 427.685 106.172 428.622 105.984C429.56 105.797 430.485 105.551 431.399 105.246C432.314 104.941 433.204 104.59 434.071 104.191C434.939 103.793 435.735 103.383 436.462 102.961L435.056 119.484C434.142 119.953 433.146 120.375 432.067 120.75C431.013 121.102 429.923 121.418 428.798 121.699C427.673 121.957 426.548 122.156 425.423 122.297C424.298 122.438 423.22 122.508 422.189 122.508C419.212 122.508 416.435 121.957 413.857 120.855C411.278 119.754 409.04 118.242 407.142 116.32C405.243 114.398 403.743 112.137 402.642 109.535C401.564 106.91 401.024 104.086 401.024 101.062C401.024 97.0547 401.599 93.2812 402.747 89.7422C403.896 86.1797 405.583 83.0625 407.81 80.3906C410.036 77.7188 412.79 75.6094 416.071 74.0625C419.376 72.5156 423.173 71.7422 427.462 71.7422C429.079 71.7422 430.732 71.8711 432.419 72.1289C434.13 72.3867 435.712 72.8672 437.165 73.5703ZM481.83 121.594L464.252 122.438L464.112 107.602H456.026L455.534 123H439.784L441.119 73.5703L457.854 74.3438L456.799 99.5859H464.604L464.674 73.1484L480.705 73.5703L481.83 121.594ZM525.125 94.5938C525.125 96.6328 524.984 98.6719 524.703 100.711C520.695 100.969 516.711 101.391 512.75 101.977C508.789 102.539 504.828 103.102 500.867 103.664C501.476 105.352 502.425 106.699 503.714 107.707C505.027 108.715 506.586 109.219 508.39 109.219C509.328 109.219 510.347 109.043 511.449 108.691C512.574 108.34 513.687 107.906 514.789 107.391C515.89 106.852 516.945 106.277 517.953 105.668C518.961 105.059 519.828 104.508 520.554 104.016L518.867 119.977C517.953 120.68 516.957 121.277 515.879 121.77C514.824 122.262 513.722 122.66 512.574 122.965C511.425 123.27 510.265 123.492 509.093 123.633C507.922 123.773 506.773 123.844 505.648 123.844C503.328 123.844 501.207 123.527 499.285 122.895C497.363 122.262 495.617 121.383 494.047 120.258C492.5 119.109 491.14 117.762 489.968 116.215C488.797 114.668 487.824 112.98 487.05 111.152C486.277 109.324 485.691 107.391 485.293 105.352C484.894 103.312 484.695 101.25 484.695 99.1641C484.695 96.9844 484.894 94.8047 485.293 92.625C485.691 90.4453 486.289 88.3477 487.086 86.332C487.906 84.3164 488.925 82.4531 490.144 80.7422C491.386 79.0078 492.828 77.4961 494.468 76.207C496.109 74.918 497.961 73.9102 500.023 73.1836C502.109 72.457 504.406 72.0938 506.914 72.0938C509 72.0938 510.898 72.3867 512.609 72.9727C514.343 73.5352 515.879 74.332 517.214 75.3633C518.574 76.3711 519.746 77.5781 520.73 78.9844C521.738 80.3906 522.558 81.9375 523.191 83.625C523.847 85.2891 524.328 87.0586 524.632 88.9336C524.961 90.7852 525.125 92.6719 525.125 94.5938ZM511.062 92.7656C511.062 92.1094 510.992 91.4414 510.851 90.7617C510.711 90.0586 510.476 89.4258 510.148 88.8633C509.843 88.3008 509.433 87.8438 508.918 87.4922C508.402 87.1172 507.757 86.9297 506.984 86.9297C506.047 86.9297 505.214 87.1875 504.488 87.7031C503.785 88.1953 503.175 88.8281 502.66 89.6016C502.144 90.3516 501.722 91.1719 501.394 92.0625C501.066 92.9531 500.82 93.7734 500.656 94.5234L511.062 93.5391V92.7656ZM561.704 74.9766L560.438 89.8125C559.759 89.625 559.091 89.4961 558.434 89.4258C557.778 89.3555 557.11 89.3203 556.431 89.3203C554.766 89.3203 553.173 89.5312 551.649 89.9531C550.149 90.375 548.813 91.0195 547.641 91.8867C546.493 92.7539 545.567 93.8555 544.864 95.1914C544.184 96.5039 543.845 98.0625 543.845 99.8672C543.845 101.18 544.032 102.328 544.407 103.312C544.806 104.273 545.356 105.082 546.059 105.738C546.786 106.371 547.653 106.852 548.661 107.18C549.692 107.508 550.829 107.672 552.071 107.672C552.938 107.672 553.829 107.59 554.743 107.426C555.657 107.238 556.571 106.992 557.485 106.688C558.399 106.383 559.278 106.031 560.122 105.633C560.966 105.234 561.751 104.812 562.477 104.367L561.915 120.891C561.001 121.359 560.016 121.781 558.962 122.156C557.907 122.508 556.817 122.812 555.692 123.07C554.591 123.352 553.477 123.562 552.352 123.703C551.251 123.844 550.196 123.914 549.188 123.914C545.86 123.914 542.825 123.293 540.083 122.051C537.364 120.809 535.02 119.121 533.052 116.988C531.106 114.832 529.595 112.336 528.516 109.5C527.438 106.664 526.899 103.641 526.899 100.43C526.899 96.5859 527.438 93 528.516 89.6719C529.618 86.3438 531.224 83.4609 533.333 81.0234C535.466 78.5625 538.091 76.6406 541.208 75.2578C544.349 73.8516 547.946 73.1484 552.001 73.1484C553.618 73.1484 555.259 73.2773 556.923 73.5352C558.587 73.793 560.181 74.2734 561.704 74.9766ZM609.006 77.5781L593.467 96.0703L607.74 120.258L591.428 123.141L580.74 108.656L580.178 122.438L565.553 123L566.678 72.6562L583.061 73.5703L581.795 88.0547L591.99 73.3594L609.006 77.5781ZM640.734 104.367L639.257 119.977L609.656 122.297L610.781 72.0938H629.062L626.46 104.367H640.734ZM661.458 73.5L658.997 121.383L644.161 122.156L642.755 74.4844L661.458 73.5ZM701.096 105C701.096 108.211 700.533 110.988 699.408 113.332C698.307 115.652 696.783 117.574 694.838 119.098C692.916 120.598 690.654 121.711 688.053 122.438C685.475 123.141 682.697 123.492 679.721 123.492C678.572 123.492 677.307 123.34 675.924 123.035C674.564 122.73 673.182 122.355 671.775 121.91C670.369 121.441 669.01 120.949 667.697 120.434C666.408 119.895 665.26 119.391 664.252 118.922L665.799 105.141C667.791 106.336 669.994 107.25 672.408 107.883C674.846 108.492 677.236 108.797 679.58 108.797C680.025 108.797 680.564 108.785 681.197 108.762C681.83 108.715 682.428 108.609 682.99 108.445C683.576 108.258 684.068 107.988 684.467 107.637C684.865 107.285 685.064 106.781 685.064 106.125C685.064 105.68 684.924 105.305 684.643 105C684.361 104.672 683.998 104.414 683.553 104.227C683.107 104.016 682.604 103.863 682.041 103.77C681.479 103.652 680.928 103.57 680.389 103.523C679.85 103.477 679.346 103.453 678.877 103.453C678.408 103.453 678.033 103.453 677.752 103.453C675.736 103.453 673.896 103.137 672.232 102.504C670.592 101.871 669.174 100.98 667.979 99.832C666.807 98.6602 665.893 97.2539 665.236 95.6133C664.58 93.9492 664.252 92.1094 664.252 90.0938C664.252 87.3281 664.803 84.8555 665.904 82.6758C667.029 80.4727 668.518 78.6094 670.369 77.0859C672.244 75.5391 674.389 74.3555 676.803 73.5352C679.217 72.7148 681.713 72.3047 684.291 72.3047C685.439 72.3047 686.623 72.3516 687.842 72.4453C689.061 72.5156 690.268 72.6562 691.463 72.8672C692.682 73.0781 693.865 73.3477 695.014 73.6758C696.162 74.0039 697.252 74.4141 698.283 74.9062L696.947 89.1797C695.354 88.6406 693.678 88.1953 691.92 87.8438C690.186 87.4688 688.486 87.2812 686.822 87.2812C686.518 87.2812 686.119 87.293 685.627 87.3164C685.158 87.3164 684.654 87.3516 684.115 87.4219C683.6 87.4688 683.072 87.5508 682.533 87.668C681.994 87.7852 681.514 87.9492 681.092 88.1602C680.67 88.3477 680.33 88.6055 680.072 88.9336C679.814 89.2617 679.697 89.6484 679.721 90.0938C679.744 90.6094 679.932 91.0078 680.283 91.2891C680.658 91.5703 681.127 91.7812 681.689 91.9219C682.275 92.0391 682.908 92.0977 683.588 92.0977C684.291 92.0977 684.982 92.0859 685.662 92.0625C686.342 92.0156 686.975 91.9805 687.561 91.957C688.146 91.9102 688.627 91.8984 689.002 91.9219C690.877 92.0391 692.564 92.4375 694.064 93.1172C695.564 93.7969 696.83 94.6992 697.861 95.8242C698.916 96.9492 699.713 98.2969 700.252 99.8672C700.814 101.414 701.096 103.125 701.096 105ZM740.488 73.4297L740.136 88.3359L729.659 88.7578L728.394 121.383L713.558 122.156L712.222 89.5312L701.745 90.0938L702.167 73.5L740.488 73.4297Z" transform="translate(29 387)" fill="#212529"/>
<path d="M162.284 194.452H0V0H162.284V8.16136H8.16724V186.29H162.284V194.452Z" transform="translate(494 151.548)" fill="#212529"/>
<path d="M162.284 33.7097H0V0H162.284V8.16125H8.16724V25.5483H162.284V33.7097Z" transform="translate(494 126)" fill="#212529"/>
<path d="M144.529 0H0V159.145H144.529V0Z" transform="translate(511.755 169.113)" fill="#53372A"/>
<path d="M8.16767 0H0V8.16136H8.16767V0Z" transform="translate(544.247 138.774)" fill="#212529"/>
<path d="M8.16767 0H0V8.16136H8.16767V0Z" transform="translate(527.912 138.774)" fill="#212529"/>
<path d="M8.16724 0H0V8.16136H8.16724V0Z" transform="translate(511.755 138.774)" fill="#212529"/>
<path d="M24.5026 0H0V24.484H24.5026V0Z" transform="translate(530.221 187.564)" fill="white"/>
<path d="M8.16724 0H0V8.16125H8.16724V0Z" transform="translate(538.389 195.726)" fill="#2EB349"/>
<path d="M74.9282 0H0V8.16136H74.9282V0Z" transform="translate(562.893 187.564)" fill="#2EB349"/>
<path d="M37.4641 0H0V8.16136H37.4641V0Z" transform="translate(562.892 203.887)" fill="#2EB349"/>
<path d="M24.5026 0H0V24.4838H24.5026V0Z" transform="translate(530.222 220.21)" fill="white"/>
<path d="M8.16724 0H0V8.16136H8.16724V0Z" transform="translate(538.389 228.371)" fill="#2EB349"/>
<path d="M74.9282 0H0V8.16125H74.9282V0Z" transform="translate(562.893 220.21)" fill="#2EB349"/>
<path d="M37.4641 0H0V8.16125H37.4641V0Z" transform="translate(562.893 236.532)" fill="#2EB349"/>
<path d="M24.5026 0H0V24.4838H24.5026V0Z" transform="translate(530.222 252.855)" fill="white"/>
<path d="M74.9282 0H0V8.16125H74.9282V0Z" transform="translate(562.893 252.855)" fill="white"/>
<path d="M37.4641 0H0V8.16136H37.4641V0Z" transform="translate(562.893 269.177)" fill="white"/>
<path d="M24.5026 0H0V24.4838H24.5026V0Z" transform="translate(530.222 285.323)" fill="white"/>
<path d="M74.9282 0H0V8.16125H74.9282V0Z" transform="translate(562.893 285.323)" fill="white"/>
<path d="M37.4641 0H0V8.16125H37.4641V0Z" transform="translate(562.893 301.645)" fill="white"/>
<path d="M29.2965 156.484L14.5594 141.758L0 156.484V0H29.2965V156.484Z" transform="translate(672.619 155.629)" fill="#12ABE3"/>
<path d="M8.16724 0H0V141.935H8.16724V0Z" transform="translate(683.096 155.629)" fill="#212529"/>
<path d="M18.6432 190.371L0 157.548V0H8.16767V155.419L18.6432 173.871L29.2965 155.419V0H37.4641V157.548L18.6432 190.371Z" transform="translate(668.535 155.629)" fill="#212529"/>
<path d="M29.4742 23.242L17.5777 11.5323L5.85938 23.242L0 17.5646L17.5777 0L35.1558 17.5646L29.4742 23.242Z" transform="translate(669.602 291.71)" fill="#212529"/>
<path d="M37.4641 33.5323H0V11.3549C0 8.33875 1.24314 5.50004 3.37379 3.37101C5.50444 1.24198 8.34531 0 11.3637 0H26.1008C29.1192 0 31.9601 1.24198 34.0908 3.37101C36.2214 5.50004 37.4641 8.33875 37.4641 11.3549V33.5323ZM8.16767 25.3709H29.2965V11.3549C29.2965 10.4678 28.9413 9.5806 28.4087 9.04834C27.876 8.51608 26.9886 8.16125 26.1008 8.16125H11.3637C10.476 8.16125 9.5881 8.51608 9.05544 9.04834C8.52278 9.5806 8.16767 10.4678 8.16767 11.3549V25.3709Z" transform="translate(668.536 126.177)" fill="#212529"/>
</g>
<defs>
<clipPath id="clip0">
<rect width="1200" height="800" fill="white"/>
</clipPath>
</defs>
</svg>
