<?xml version="1.0" encoding="utf-8"?>
<!-- Generator: Adobe Illustrator 19.1.0, SVG Export Plug-In . SVG Version: 6.00 Build 0)  -->
<svg version="1.1" id="Layer_1" xmlns="http://www.w3.org/2000/svg" xmlns:xlink="http://www.w3.org/1999/xlink" x="0px" y="0px"
	 width="700px" height="351px" viewBox="0 0 700 351" style="enable-background:new 0 0 700 351;" xml:space="preserve">
<style type="text/css">
	.st0{fill:#AA8A04;}
	.st1{fill:#FFFFFF;}
	.st2{display:none;}
	.st3{font-family:'Streetwear';}
	.st4{font-size:9.7318px;}
</style>
<g>
	<path d="M310.4,74.2l0.2,40.8c1.9-1,3.9-1.9,5.9-2.6l-0.2-38.2l7.6,0l0.2,35.6c2-0.6,3.9-1.2,5.9-1.8l-0.2-33.9l7.6,0l0.2,31.6
		c2-0.6,4-1.3,5.9-2.1l-0.1-29.6l7.6,0l0.1,26.2c2-1,3.9-2,5.9-3.1L356.7,74l7.6,0l0.1,19.1c2-1,3.9-2.1,5.9-3.1l-0.1-16l7.6,0
		l0.1,12.2c1.9-1,3.9-1.9,5.9-2.8l0-9.5l7.6,0l0,6.4c2-0.8,3.9-1.6,5.9-2.3l0-4.1l7.6,0l0,1.4c7.5-2.5,15.2-4.6,22.9-5.8
		c5.1-0.8,10-1.7,14.7-1.7c10.4-5.6,22.7-10.8,33.6-10.5V46l-241.2,1.2c-10.5,0.1-18.9,8.6-18.9,19l0,4.3l0,4.3l0.2,41.5
		c0,1.6,1.3,2.9,3,2.9c1.6,0,2.9-1.3,2.9-3l-0.2-41.5l7.6,0l0.2,41.5c0,1.6,1.3,2.9,3,2.9c1.6,0,2.9-1.3,2.9-3l-0.2-41.5l7.6,0
		l0.2,41.5c0,1.6,1.3,2.9,3,2.9c1.6,0,2.9-1.3,2.9-3l-0.2-41.5l7.6,0l0.2,41.5c0,1.6,1.3,3,3,2.9c1.6,0,2.9-1.3,2.9-3l-0.2-41.5
		l7.6,0l0.2,41.5c0,1.6,1.3,3,3,2.9c1.6,0,3-1.3,2.9-3l-0.2-41.5l7.6,0l0.2,41.5c0,1.6,1.3,2.9,3,2.9c1.6,0,3-1.4,2.9-3l-0.2-41.5
		l7.6,0l0.2,41.5c0,1.6,1.3,3,3,2.9c1.6,0,2.9-1.3,2.9-3l-0.2-41.5L310.4,74.2z"/>
</g>
<rect x="343.1" y="264.7" class="st0" width="18.9" height="14.9"/>
<g id="scissors">
	<path d="M482,321.4c10-4.1,18.5-10.8,17.9-25c-0.6-13.6-10.4-20-11-20.4c-16.5-9.1-28.7-3.7-38.3-0.9c-17.3,5.1-23.3,8.9-44,5.6
		c-6.6-1-14.2-3.3-21.9-6c-6.6,3.4-12.7,6.4-17.6,8.2c26.9,0.9,56.2,8.7,67.1,16.4c7,5,14.6,12.1,22.9,18.6
		C464.9,324.1,474.4,323.8,482,321.4z M463.9,314.9c-11.8-4.6-18.1-16.6-14.1-26.8c4-10.2,16.8-14.7,28.6-10.1
		c11.8,4.6,18.1,16.6,14.1,26.8C488.5,315,475.7,319.6,463.9,314.9z"/>
	<path d="M547.2,206.5c0,0-8.6,18.4-19.8,26.2c-11.3,7.7-15.8,0.6-19.8-5.4c-4.1-6-22.9-15.7-37.2-5.2c-14.2,10.5-16,25.2-38.3,26.9
		c-11,0-9.4-4.5-17-2.4c-7.6,2.1-7.3,10.2-29.6,12.2c-22.3,2-51.2,0.8-75,3.2c-17.1,1.7-61.7,7.9-88,11.9c1.1,2.5,2.3,4.9,3.6,7.3
		c36.1,1.5,119,4.2,129.5,2.6c13-2,42.7-23.2,63.4-25.9c20.7-2.7,26.6,1.3,43.8,6.8c17.2,5.5,42.3,19.6,88-56.4L547.2,206.5z
		 M346.9,271.5c-0.1-2.8,1.8-5.2,4.4-5.8l0.4,11.3C349.1,276.6,347,274.3,346.9,271.5z M354,276.9l-0.4-11.3
		c2.7,0.4,4.7,2.7,4.8,5.5C358.5,273.9,356.7,276.3,354,276.9z M490.7,262.5c-11.9,4.3-24.6-0.6-28.3-10.8
		c-3.7-10.3,2.9-22.1,14.8-26.4c11.9-4.3,24.6,0.6,28.3,10.8C509.2,246.4,502.6,258.2,490.7,262.5z"/>
</g>
<path id="background" class="st1" d="M503.4,201.2c8.1,0.3,10.8,3.1,13.2,2.4c6.8-2,8.8-31.7,0-67.8c-7.5-30.6-17.9-46.1-15.2-75.7
	c0.5-5.3,1.3-9.7,1.8-12.5c0.1-0.1,0.2-0.2,0.3-0.3c-15.1,0.4-37,2.1-62.5,8.7c-5.5,1.4-15.2,4.1-52.4,19.3
	c-40.6,16.6-96.4,40.1-96.4,40.1s-18.7,7.9-33.8,11.9c-5.9,1.6-13.1,3.3-13.1,3.3c-3.5,0.9-6.4,1.6-8.3,2
	c-13.8,0.8-27.5,1.7-41.3,2.5c0.6,25.5,1.2,51.1,1.8,76.6c-9.2,29.4-6.4,56.4,8.8,68.7c13,10.6,31.1,7.2,53.5,3
	c29.9-5.6,41.8-15.1,93.5-37.8c18.7-8.2,33.7-14.7,52.7-21.5c20.4-7.3,50.1-16.3,88-22.3C496.3,201.5,499.5,201,503.4,201.2z"/>
<g id="barbers">
	<g>
		<path d="M243.1,269.5c-7.7,1-12.1,1.2-19.1,1.2c0-4.1,0-6.1,0-10.2c1,0,1,0,3,0c0-8.8,0-13.3,0-22.1c-2,0-2,0-3,0
			c0-4.1,0-6.1,0-10.2c8,0,12.3-0.3,20.7-1.4c4.1-0.5,7.2-0.8,9.4-0.7c2.2,0.2,3.9,1,5.2,2.6c1.3,1.6,1.9,3.6,1.9,6
			c0,2.4-0.6,4.4-1.8,6.1c-1.2,1.7-2.7,3.1-4.5,4c2.4,0.4,4.3,1.4,5.6,3c1.3,1.6,2,3.6,2,6c0,2.8-0.7,5.4-2.2,7.8
			c-1.5,2.3-3.4,4-6,5.1C251.7,267.9,248,268.9,243.1,269.5z M240,236.8c0,3.1,0,4.6,0,7.7c1-0.1,1.7-0.2,2.8-0.3
			c2-0.2,3.3-0.8,3.9-1.6c0.6-0.8,0.9-1.8,0.9-2.9c0-1-0.3-1.8-0.8-2.6c-0.5-0.7-1.9-0.9-4.4-0.6C241.4,236.6,241,236.7,240,236.8z
			 M240,252.2c0,3.3,0,5,0,8.4c1-0.1,1.7-0.2,2.9-0.3c1.9-0.2,3.2-0.7,4.1-1.5c0.8-0.7,1.2-1.9,1.2-3.4c0-1.4-0.4-2.5-1.1-3
			c-0.7-0.6-2.1-0.7-4.2-0.4C241.7,252.1,241,252.1,240,252.2z"/>
		<path d="M277,262c-5,1.6-8,2.4-13,3.7c0-4.1,0-6.1,0-10.2c1-0.2,1.5-0.4,2.6-0.6c2.6-9.5,3.7-14.3,6.3-23.8
			c-1.1,0.3-1.9,0.5-2.9,0.8c0-4.1,0-6.1,0-10.2c10-2.6,15-4.3,25-7.9c0,4.1,0,6.1,0,10.2c-1,0.4-1.8,0.6-2.9,1
			c2.6,7.9,3.8,11.9,6.4,19.7c1-0.4,1.4-0.6,2.4-1c0,4.1,0,6.1,0,10.2c-7,2.8-11,4-18,6.4c0-3.7,0-5.6,0-9.3c1-0.4,1.9-0.6,3.1-1
			c-0.5-2-0.7-2.9-1.2-4.9c-3.5,1.2-5.2,1.7-8.7,2.7c-0.6,2.3-1.1,3.5-1.7,5.8c1.1-0.3,1.6-0.5,2.6-0.8C277,256.4,277,258.3,277,262
			z M280.7,229.4c-1.3,5.1-1.9,7.6-3.2,12.7c2.4-0.7,3.7-1.1,6.1-1.9C282.4,235.9,281.9,233.7,280.7,229.4z"/>
		<path d="M322,245c-7,3.3-11,4.8-18,7.8c0-4.1,0-6.1,0-10.2c1-0.4,1-0.7,3-1.1c0-8.8,0-13.3,0-22.1c-2,0.4-2,0.7-3,1.1
			c0-4.1,0-6.1,0-10.2c7-2.9,11.1-4.5,18.5-7.8c1.7-0.7,3.2-1.4,4.6-2c1.4-0.6,2.6-1,3.6-1.3c1-0.3,1.9-0.6,2.8-0.7
			c2.4-0.5,4.3,0,5.8,1.4c1.5,1.4,2.3,3.6,2.3,6.6c0,2.2-0.5,4.4-1.4,6.6c-0.9,2.2-2.1,4.1-3.6,5.6c1.9,3,2.9,4.5,4.8,7.5
			c1-0.5,1.6-0.7,2.6-1.2c0,4.1,0,6.1,0,10.2c-5,2.3-7.5,3.5-12.4,5.7c-3-5.6-4.4-8.4-7.4-14c-1.7,0.7-2.2,1.1-4.2,1.8
			c0,2.9,0,4.3,0,7.2c1-0.4,1-0.7,2-1.1C322,238.9,322,240.9,322,245z M320,213c0,3.2,0,4.8,0,8.1c0-0.3,0.8-0.4,1.4-0.6
			c1.9-0.8,3.2-1.5,3.9-1.9c0.7-0.5,1.3-1.2,1.8-2.1c0.5-0.9,0.8-1.8,0.8-2.9c0-1.1-0.3-1.9-0.8-2.3c-0.5-0.4-1.2-0.6-1.9-0.4
			c-0.7,0.2-2,0.7-4,1.6C320.6,212.7,320,212.8,320,213z"/>
		<path d="M366.2,224.6c-7.7,3.7-11.2,5.5-19.2,9.2c0-4.1,0-6.1,0-10.2c1-0.6,2-0.8,3-1.4c0-8.8,0-13.3,0-22.1c-1,0.6-2,0.8-3,1.4
			c0-4.1,0-6.1,0-10.2c8-3.9,12.4-6,20.8-9.9c4.1-1.9,7.2-3.2,9.5-3.6c2.2-0.4,3.9,0,5.2,1.2c1.3,1.2,1.9,3.1,1.9,5.6
			c0,2.4-0.6,4.6-1.8,6.6c-1.2,2-2.7,3.7-4.5,5.1c2.4-0.2,4.3,0.3,5.6,1.6c1.3,1.3,2,3.1,2,5.5c0,2.8-0.7,5.6-2.2,8.3
			c-1.5,2.7-3.5,4.9-6,6.7C374.8,220.2,371.1,222.3,366.2,224.6z M363,193c0,3.1,0,4.6,0,7.7c1-0.6,1.8-0.8,2.9-1.4
			c2-0.9,3.3-1.9,3.9-2.9c0.6-1,0.9-2.1,0.9-3.2c0-1-0.3-1.8-0.8-2.3s-2-0.2-4.5,0.9C364.5,192.3,364,192.6,363,193z M363,208.5
			c0,3.3,0,5,0,8.4c1-0.6,1.8-0.8,3-1.4c1.9-0.9,3.3-1.9,4.1-2.9c0.8-1,1.2-2.3,1.2-3.8c0-1.4-0.4-2.3-1.1-2.7c-0.7-0.3-2.2,0-4.3,1
			C364.8,207.6,364,207.9,363,208.5z"/>
		<path d="M422,199.8c-11,4.2-21,8.9-32,13.7c0-4.1,0-6.1,0-10.2c1-0.5,1-0.7,3-1.2c0-8.8,0-13.3,0-22.1c-2,0.5-2,0.7-3,1.2
			c0-4.1,0-6.1,0-10.2c11-4.9,21-9.6,32-13.8c0,5.4,0,8.1,0,13.6c-3,1.4-5,2.1-8,3.5c0-1.4,0-2,0-3.4c-4,1.3-5,1.9-8,3.2
			c0,2.6,0,3.9,0,6.5c2-1.1,4-1.7,7-2.8c0,3.5,0,5.2,0,8.6c-3,1.1-5,1.7-7,2.8c0,2.8,0,4.2,0,7c3-1.3,4-2,8-3.2c0-1.4,0-2,0-3.4
			c3-1.5,5-2.2,8-3.5C422,191.7,422,194.4,422,199.8z"/>
		<path d="M446,191.8c-7,2.2-11,3.4-18,6.1c0-4.1,0-6.1,0-10.2c1-0.4,1-0.6,2-1c0-8.8,0-13.3,0-22.1c-1,0.4-1,0.6-2,1
			c0-4.1,0-6.1,0-10.2c7-2.7,10.9-3.9,18.4-6.1c1.7-0.5,3.1-0.9,4.5-1.2c1.4-0.3,2.6-0.5,3.6-0.7c1-0.1,1.9-0.2,2.8-0.2
			c2.4,0.1,4.3,1,5.8,2.8c1.5,1.8,2.3,4.2,2.3,7.2c0,2.2-0.5,4.3-1.4,6.3c-0.9,2-2.1,3.5-3.6,4.7c1.9,3.5,3.1,5.2,5,8.7
			c1-0.2,1.7-0.3,2.7-0.5c0,4.1,0,6.1,0,10.2c-5,0.9-7.6,1.5-12.6,2.7c-3-6.2-4.4-9.3-7.3-15.3c-1.7,0.5-3.1,0.7-4.1,1.2
			c0,2.9,0,4.3,0,7.2c1-0.3,1-0.5,2-0.8C446,185.7,446,187.8,446,191.8z M444,159.5c0,3.2,0,4.8,0,8.1c0-0.2,0.7-0.3,1.2-0.4
			c1.9-0.6,3.1-1,3.8-1.3c0.7-0.3,1.3-0.9,1.8-1.7c0.5-0.8,0.7-1.7,0.7-2.8c0-1.1-0.3-1.9-0.8-2.4c-0.5-0.5-1.2-0.8-1.9-0.7
			c-0.8,0.1-1.9,0.4-3.9,1C444.5,159.3,444,159.3,444,159.5z"/>
		<path d="M478,185c-3,0.4-4,0.6-7,1.1c0-5.4,0-8.2,0-13.6c3-0.5,4.4-0.8,7.5-1.1c0.9,3.6,2.5,5.2,5.1,5c1.8-0.2,2.7-1.1,2.7-3
			c0-1-0.3-1.7-1-2.3c-0.7-0.6-2.2-1.5-4.4-2.4c-2.8-1.2-4.8-2.3-6.2-3.3c-1.2-0.9-2.3-2.1-3.1-3.8c-0.9-1.7-1.3-3.6-1.3-5.8
			c0-3.9,1-7.2,3.1-9.7c2-2.5,4.8-4,7.8-4.3c3-0.3,5.8,0.5,7.8,2.5c0-1,0-1.6,0-2.6c3-0.2,4-0.2,7-0.3c0,4.8,0,7.2,0,12.1
			c-3,0-4.4,0.1-7.5,0.3c-0.9-3.3-2.5-4.8-4.9-4.6c-1.7,0.2-2.5,1.1-2.5,2.9c0,0.9,0.3,1.5,0.7,1.8c0.5,0.4,2,1.2,4.5,2.6
			c3.4,1.8,5.6,3.3,6.7,4.2c0.6,0.5,1.2,1.1,1.8,1.9c0.6,0.8,1.1,1.7,1.5,2.6c0.9,2,1.4,4.1,1.4,6.5c0,3.6-1.1,6.6-3.2,9.1
			c-2.1,2.5-5,3.9-8.2,4.1c-3,0.2-5.3-0.6-8.3-2.5C478,183.3,478,183.9,478,185z"/>
	</g>
</g>
<g id="middle_line_prestige">
	<path d="M493.4,124.8c-3.7-0.2-9.1,0.5-15.2,0.9c-55.4,3.6-135,50.2-197.7,72.5c-36.2,12.8-50.3,13.7-63.8,14.6v4.1
		c2.1-0.1,5.9-0.3,11.1-0.6c57.3-2.4,158.7-67.2,238.9-80.8c12.6-1.7,3.9-1.2,26.6-2.3c0,0,0.1,0,0.1,0V124.8z"/>
	<path class="st2" d="M559.8,130.8c-19.1,0-25.8-1.6-25.8,4.8c0,2.3,2,4.8,4.8,4.8c7.4,0,13.7,0,21,0h21.6c0,47.7-1.6,51.3,4.8,51.3
		c6.4,0,4.8-3,4.8-56.1C591.1,129.1,585.3,130.8,559.8,130.8z"/>
</g>
<g>
	<g>
		<path d="M236,190.8c-8,0.9-12,1.1-19,1.1c0-3.8,0-5.7,0-9.5c1,0,2,0,3,0c0-8.3,0-12.4,0-20.7c-1,0-2,0-3,0c0-3.8,0-5.7,0-9.5
			c8,0,11.9-0.3,19.9-1.2c4.6-0.6,7.9-0.6,10,0.1c2.1,0.7,3.7,1.9,4.7,3.6c1,1.7,1.5,3.7,1.5,6c0,2.8-0.6,5.3-1.8,7.3
			c-1.2,2.1-2.8,3.8-4.7,4.9c-1.9,1.2-4.6,2.1-8.7,2.6c-2,0.3-2.8,0.4-4.8,0.6c0,2.2,0,3.3,0,5.6c1-0.1,1-0.2,3-0.3
			C236,185.1,236,187,236,190.8z M233,160.1c0,3,0,4.5,0,7.5c1-0.1,1.2-0.1,2.2-0.3c1.7-0.2,2.9-0.6,3.6-1.2c0.7-0.6,1.1-1.6,1.1-3
			c0-0.9-0.2-1.7-0.6-2.3c-0.4-0.6-0.9-0.9-1.6-1c-0.6-0.1-1.5,0-3,0.1C233.9,160,233,160,233,160.1z"/>
		<path d="M274,182.8c-7,2.1-11,3-18,4.6c0-3.8,0-5.7,0-9.5c1-0.2,2-0.4,3-0.6c0-8.3,0-12.4,0-20.7c-1,0.2-2,0.4-3,0.6
			c0-3.8,0-5.7,0-9.5c7-1.6,10.7-2.5,17.8-4.6c1.6-0.5,3.1-0.9,4.5-1.2c1.4-0.4,2.6-0.6,3.5-0.8c1-0.2,1.9-0.3,2.7-0.4
			c2.3-0.2,4.1,0.5,5.6,2c1.4,1.5,2.2,3.6,2.2,6.4c0,2.1-0.4,4.1-1.3,6.1c-0.9,2-2,3.6-3.4,4.9c1.8,3,2.5,4.5,4.3,7.5
			c0.9-0.3,1.2-0.5,2.2-0.8c0,3.8,0,5.7,0,9.5c-4,1.7-6.9,2.5-11.6,4c-2.8-5.6-4.4-8.4-7.3-14c-1.6,0.5-2.2,0.7-4.2,1.2
			c0,2.7,0,4,0,6.7c1-0.3,2-0.4,3-0.7C274,177,274,178.9,274,182.8z M271,152.4c0,3,0,4.5,0,7.6c1-0.2,1.1-0.2,1.7-0.4
			c1.8-0.5,3.2-1,3.9-1.3c0.7-0.3,1.4-0.9,1.8-1.7c0.5-0.7,0.8-1.6,0.8-2.7c0-1-0.2-1.8-0.7-2.2c-0.5-0.5-1.1-0.7-1.8-0.6
			c-0.7,0.1-2.3,0.4-4.2,1C271.9,152.2,272,152.3,271,152.4z"/>
		<path d="M328,162.4c-10,4.4-20,8.6-31,12.6c0-3.8,0-5.7,0-9.5c1-0.4,2-0.6,3-0.9c0-8.3,0-12.4,0-20.7c-1,0.4-2,0.6-3,1
			c0-3.8,0-5.7,0-9.5c11-4,21-8.2,31-12.6c0,5.1,0,7.6,0,12.7c-3,1.5-5,2.2-8,3.6c0-1.3,0-1.9,0-3.2c-3,1.2-5,1.9-8,3.1
			c0,2.4,0,3.7,0,6.1c3-1,4-1.6,7-2.7c0,3.2,0,4.9,0,8.1c-3,1.1-4,1.6-7,2.7c0,2.6,0,3.9,0,6.5c3-1.2,5-1.8,8-3.1c0-1.3,0-1.9,0-3.2
			c3-1.4,5-2.2,8-3.6C328,154.7,328,157.3,328,162.4z"/>
		<path d="M341,157c-3,1.3-5,1.9-8,3.2c0-5.1,0-7.7,0-12.8c3-1.3,4.5-1.9,7.5-3.2c0.9,3.1,2.6,4.1,5,3c1.7-0.8,2.7-2,2.7-3.7
			c0-0.9-0.3-1.5-0.9-1.8c-0.7-0.3-2-0.6-4.1-0.8c-2.6-0.3-4.6-0.7-5.9-1.2c-1.2-0.5-2.2-1.4-3-2.7c-0.8-1.3-1.2-3-1.2-5.1
			c0-3.7,1-7,3-10c2-2.9,4.2-5,7-6.3c2.9-1.3,5.1-1.4,7.1-0.3c0-1,0-1.5,0-2.5c3-1.3,5-2,8-3.3c0,4.5,0,6.8,0,11.3
			c-3,1.3-4.5,2-7.4,3.3c-0.9-2.7-2.5-3.6-4.8-2.6c-1.6,0.7-2.4,1.9-2.4,3.6c0,0.8,0.2,1.3,0.7,1.5c0.4,0.2,1.9,0.5,4.2,0.9
			c3.2,0.5,5.3,1,6.4,1.4c0.5,0.2,1.1,0.6,1.7,1.1c0.6,0.5,1,1.1,1.4,1.8c0.9,1.5,1.3,3.3,1.3,5.5c0,3.3-1,6.6-3,9.8
			c-2,3.2-4.4,5.6-7.5,7c-2.9,1.3-5.6,1.4-7.6,0.4C341,155.5,341,156,341,157z"/>
		<path d="M388,136c-7,3.1-11,4.7-18,7.9c0-3.8,0-5.7,0-9.5c1-0.5,2-0.7,3-1.2c0-8.3,0-12.4,0-20.7c-2,0.7-3,1-4,1.7
			c0,2.9,0,4.3,0,7.2c-2,1.1-4,1.6-6,2.7c0-6.7,0-10.1,0-16.8c11-4.8,21-9.5,32-14c0,6.7,0,10.1,0,16.8c-2,1-4,1.5-6,2.5
			c0-2.9,0-4.3,0-7.2c-1,0.6-2,0.9-4,1.6c0,8.3,0,12.4,0,20.7c1-0.5,2-0.7,3-1.2C388,130.3,388,132.2,388,136z"/>
		<path d="M417,124.6c-7,2.6-11,4.1-18,7.1c0-3.8,0-5.7,0-9.5c1-0.5,1-0.7,3-1.2c0-8.3,0-12.4,0-20.7c-2,0.5-2,0.7-3,1.2
			c0-3.8,0-5.7,0-9.5c7-3,11-4.4,18-7.1c0,3.8,0,5.7,0,9.5c-1,0.4-2,0.6-3,1.1c0,8.3,0,12.4,0,20.7c1-0.4,2-0.6,3-1.1
			C417,118.9,417,120.8,417,124.6z"/>
		<path d="M445.5,102.1c-1.3,0.3-1.5,0.5-3.5,0.9c0-3,0-4.5,0-7.6c6-1.6,9-2.3,14.8-3.4c0,4.3-0.1,7.6-0.6,9.9
			c-0.5,2.1-1.5,4.4-3,6.9c-1.5,2.4-3.3,4.3-5.5,5.8c-2.2,1.5-4.5,2.6-6.9,3.2c-3.7,1-7,1.2-10,0.7c-3-0.5-5.3-2.2-7-4.9
			c-1.6-2.7-2.5-6.2-2.5-10.3c0-6.2,1.7-11.8,5-16.7c3.3-4.9,7.4-8.1,12.2-9.4c4-1.1,7.5-0.7,9.5,1.1c0-1.1,0-1.7,0-2.8
			c3-0.8,5-1.1,8-1.8c0,5.6,0,8.3,0,13.9c-3,0.7-4.8,1-7.9,1.8c-0.7-1.5-1.6-2.6-2.7-3.2c-1.1-0.6-2.4-0.7-3.9-0.3
			c-2.1,0.6-3.6,1.8-4.6,3.7c-1,1.9-1.4,5.1-1.4,9.5c0,4.4,0.5,7.2,1.5,8.5c1,1.3,2.4,1.7,4.3,1.1
			C444.2,107.9,445.5,105.7,445.5,102.1z"/>
		<path d="M493,109.5c-11-0.1-21,1-31,2.9c0-3.8,0-5.7,0-9.5c1-0.2,1-0.3,2-0.4c0-8.3,0-12.4,0-20.7c-1,0.2-1,0.3-2,0.4
			c0-3.8,0-5.7,0-9.5c10-1.9,20-3,31-2.9c0,5.1,0,7.6,0,12.7c-4,0-5,0-9,0.2c0-1.3,0-1.9,0-3.2c-3,0.2-4,0.3-7,0.6
			c0,2.4,0,3.7,0,6.1c2-0.3,4-0.4,6-0.5c0,3.2,0,4.9,0,8.1c-2,0.2-4,0.3-6,0.5c0,2.6,0,3.9,0,6.5c3-0.3,4-0.4,7-0.6
			c0-1.3,0-1.9,0-3.2c4-0.2,5-0.2,9-0.2C493,101.8,493,104.4,493,109.5z"/>
	</g>
</g>
<path d="M476,47.5h-17.4C405.8,58,339.4,94.4,280.5,117.2C242.9,131,229.1,131,215,132v4.1c0.7,0,5.3-0.3,12.8-0.7
	c57.2-2.4,158.8-67.2,238.9-80.8c6-0.8,7.2-1.1,9.3-1.3V47.5z"/>
<g id="bottom_line_prestige_1_">
	<path d="M485.5,198.7c-55.4,3.6-131.2,46.6-197.7,72.5c-38,14-51.7,13.8-66,14.8c0,0-0.1,0-0.1,0v4c0.2,0,0.3,0.1,0.5,0.1
		c0,0,4.7-0.3,12.9-0.7c57.3-2.4,158.7-67.2,238.9-80.8c12.6-1.7,4-1.2,26.4-2.3v-8.3C496.7,197.6,491.5,198.3,485.5,198.7z"/>
	<path class="st2" d="M567.1,203.8c-19.1,0-25.8-1.6-25.8,4.8c0,2.3,2,4.8,4.8,4.8c7.4,0,13.7,0,21,0h21.6c0,47.7-1.6,51.3,4.8,51.3
		c6.4,0,4.8-3,4.8-56.1C598.4,202.1,592.6,203.8,567.1,203.8z"/>
</g>
<text transform="matrix(1 0 0 1 232.8428 66.7577)" class="st0 st3 st4">EST - 2017</text>
</svg>
