<svg width="315" height="248" viewBox="0 0 315 248" fill="none" xmlns="http://www.w3.org/2000/svg"><path d="M108.309 0H38.072v201.1h70.237V0z" fill="#12ABE3"/><path d="M88.209 20.134H58.175v80.534h30.034V20.133z" fill="#fff"/><path d="M93.648 106.117H52.736V14.686h40.912v91.43zM63.615 95.22H82.77V25.58H63.615v69.64z" fill="#212529"/><path d="M88.209 166.044c0 8.29-6.622 15.16-15.135 15.16-8.277 0-15.135-6.87-15.135-15.16s6.621-15.16 15.135-15.16c8.513 0 15.135 6.87 15.135 15.16z" fill="#fff"/><path d="M73.31 186.651c-11.35 0-20.574-9.238-20.574-20.608 0-11.37 9.223-20.607 20.575-20.607 11.35 0 20.574 9.238 20.574 20.607 0 11.37-9.46 20.608-20.574 20.608zm0-30.319c-5.202 0-9.695 4.263-9.695 9.712 0 5.21 4.256 9.711 9.696 9.711 5.439 0 9.695-4.264 9.695-9.711-.236-5.449-4.493-9.712-9.695-9.712zm5.438-40.504H67.87v20.134h10.878v-20.134z" fill="#212529"/><path d="M192.735 0H122.5v201.1h70.236V0z" fill="#12ABE3"/><path d="M172.399 20.134h-30.034v80.534h30.034V20.133z" fill="#fff"/><path d="M178.074 106.117h-40.912V14.686h40.912v91.43zm-30.27-10.896h19.155V25.58h-19.155v69.64z" fill="#212529"/><path d="M172.635 166.044c0 8.29-6.858 15.16-15.135 15.16-8.277 0-15.135-6.87-15.135-15.16s6.621-15.16 15.135-15.16c8.277 0 15.135 6.87 15.135 15.16z" fill="#fff"/><path d="M157.498 186.651c-11.351 0-20.574-9.238-20.574-20.608 0-11.37 9.223-20.607 20.574-20.607 11.352 0 20.575 9.238 20.575 20.607 0 11.37-9.224 20.608-20.575 20.608zm0-30.319c-5.202 0-9.696 4.263-9.696 9.712 0 5.21 4.257 9.711 9.696 9.711 5.203 0 9.696-4.264 9.696-9.711 0-5.449-4.257-9.712-9.696-9.712zm5.442-40.504h-10.88v20.134h10.878v-20.134z" fill="#212529"/><path d="M276.924 0h-70.236v201.1h70.236V0z" fill="#2EB349"/><path d="M256.823 20.134h-30.034v80.534h30.034V20.133z" fill="#fff"/><path d="M262.263 106.117h-40.912V14.686h40.912v91.43zM232.23 95.22h19.155V25.58H232.23v69.64z" fill="#212529"/><path d="M256.824 166.044c0 8.29-6.621 15.16-15.135 15.16-8.277 0-15.135-6.87-15.135-15.16s6.622-15.16 15.135-15.16c8.514 0 15.135 6.87 15.135 15.16z" fill="#fff"/><path d="M241.925 186.651c-11.35 0-20.574-9.238-20.574-20.608 0-11.37 9.223-20.607 20.575-20.607 11.35 0 20.574 9.238 20.574 20.607 0 11.37-9.46 20.608-20.574 20.608zm0-30.319c-5.202 0-9.695 4.263-9.695 9.712 0 5.21 4.256 9.711 9.696 9.711 5.202 0 9.695-4.264 9.695-9.711-.236-5.449-4.493-9.712-9.696-9.712zm5.437-40.504h-10.878v20.134h10.878v-20.134zM315 238.288H0v-36.951h315v36.951zM10.878 227.392h293.243v-15.16H10.878v15.16z" fill="#212529"/><path d="M43.513 232.841H32.635v15.16h10.878v-15.16zm238.85 0h-10.878v15.16h10.878v-15.16z" fill="#212529"/></svg>