<svg width="240" height="235" viewBox="0 0 240 235" fill="none" xmlns="http://www.w3.org/2000/svg"><path d="M20.1 49.017v142.815h80.805v-22.996C81.809 161.17 68.14 142.41 68.14 120.424c0-28.845 23.316-52.043 51.86-52.043 28.743 0 51.859 23.4 51.859 52.043a51.94 51.94 0 0 1-32.764 48.412v22.996H219.9V49.017H20.1z" fill="#FFCD30"/><path d="M240 211.802H129.648v-9.279h101.106V38.124H9.246v164.4h101.106v9.278H0V28.845h240v182.957z" fill="#212529"/><path d="M240 38.124H0V0h240v38.124zM9.246 28.845h221.508V9.077H9.246v19.768z" fill="#212529"/><path d="M66.13 14.322h-9.246v9.28h9.246v-9.28zm-18.492 0h-9.246v9.28h9.246v-9.28zm-18.291.001H20.1v9.279h9.246v-9.28zM120 177.108c-31.156 0-56.483-25.417-56.483-56.683s25.326-56.682 56.482-56.682 56.483 25.416 56.483 56.682c0 31.266-25.327 56.683-56.483 56.683zm0-104.288c-26.131 0-47.237 21.382-47.237 47.403 0 26.022 21.307 47.404 47.236 47.404 26.13 0 47.237-21.382 47.237-47.404 0-26.021-21.106-47.403-47.237-47.403z" fill="#212529"/><path d="M143.919 191.63H96.08v-23.197h9.246v13.918h29.347v-13.918h9.246v23.197z" fill="#212529"/><path d="M134.27 186.991h-9.246v48.008h9.246v-48.008zm-19.296.001h-9.246V235h9.246v-48.008zm-12.864-48.413l-18.09-18.357 18.09-18.154 6.633 6.455-11.658 11.7 11.658 11.9-6.633 6.456zm35.779 0l-6.633-6.455 11.86-11.902-11.86-11.7 6.633-6.454 18.09 18.154-18.09 18.357zm-17.648-44.67l-9.013 51.251 9.106 1.613 9.013-51.252-9.106-1.612z" fill="#212529"/><path d="M46.432 97.228h-9.246v9.278h9.246v-9.278zm0 18.558h-9.246v9.279h9.246v-9.279zm0 18.355h-9.246v9.279h9.246v-9.279zm156.382-36.913h-9.246v9.278h9.246v-9.278zm-.001 18.558h-9.246v9.279h9.246v-9.279zm0 18.355h-9.246v9.279h9.246v-9.279z" fill="#fff"/></svg>