<svg width="286" height="239" viewBox="0 0 286 239" fill="none" xmlns="http://www.w3.org/2000/svg"><path d="M144.491 62.294H114.4V73.71h30.092V62.294z" fill="#EF4631"/><path d="M176.82 101.507h-32.33v11.416h32.33v-11.416zm0 19.606h-32.33v11.416h32.33v-11.416zm0 58.819h-32.33v11.416h32.33v-11.416zm0 19.607h-32.33v11.416h32.33V199.54z" fill="#212529"/><path d="M176.822 81.9h-62.423v11.417h62.423V81.9z" fill="#12ABE3"/><path d="M144.491 140.72H114.4v11.416h30.092V140.72z" fill="#EF4631"/><path d="M176.822 160.326h-62.423v11.416h62.423v-11.416z" fill="#12ABE3"/><path d="M221.585 101.507h-32.33v11.416h32.33v-11.416z" fill="#EF4631"/><path d="M251.678 121.113h-62.423v11.416h62.423v-11.416z" fill="#212529"/><path d="M221.585 179.932h-32.33v11.416h32.33v-11.416z" fill="#EF4631"/><path d="M251.678 199.539h-62.423v11.416h62.423V199.54zM221.585 81.9h-32.33v11.417h32.33V81.9zm0 78.426h-32.33v11.416h32.33v-11.416z" fill="#212529"/><path d="M286 239H0V34.25h286V239zM11.44 227.583h263.12V45.666H11.44v181.917z" fill="#212529"/><path d="M286 45.666H0V0h286v45.666zM11.44 34.249h263.12V11.416H11.44V34.25z" fill="#212529"/><path d="M28.601 17.124h-11.44v11.417h11.44V17.124zm22.879 0H40.04v11.417h11.44V17.124zm22.879 0h-11.44v11.417h11.44V17.124zm17.162 22.834h-11.44v193.334h11.44V39.958z" fill="#212529"/><path d="M68.64 62.294H22.88v50.63h45.76v-50.63z" fill="#12ABE3"/><path d="M68.64 121.113H22.88v11.416h45.76v-11.416zm0 19.607H22.88v11.416h45.76V140.72zm0 19.606H22.88v11.416h45.76v-11.416zm0 19.606H22.88v11.416h45.76v-11.416z" fill="#212529"/></svg>