<svg width="179" height="193" viewBox="0 0 179 193" fill="none" xmlns="http://www.w3.org/2000/svg"><path d="M146.489 193H0V0h113.432l33.057 33.09V193zm-138.77-7.727H138.77V36.45L110.076 7.727H7.551v177.546h.168z" fill="#212529"/><path d="M142.63 38.633h-34.735V3.863h7.719v27.043h27.015v7.727zm-69.47-7.726H22.318v7.726h50.844v-7.726zm51.011 15.453H22.317v7.727h101.854V46.36zm0 15.453H22.317v7.727h101.854v-7.727zM111.755 77.1H22.317v7.726h89.438v-7.727z" fill="#212529"/><path d="M142.536 71.167L73.125 140.65l27.052 27.08 69.411-69.482-27.052-27.08z" fill="#FFCD30"/><path d="M100.175 171.5c-1.007 0-2.013-.336-2.685-1.176l-27.016-27.043c-1.51-1.512-1.51-4.032 0-5.375l69.47-69.54c1.51-1.513 4.027-1.513 5.37 0l27.015 27.043c.67.672 1.174 1.68 1.174 2.687 0 1.008-.335 2.016-1.174 2.688l-69.47 69.54c-.67.84-1.677 1.176-2.684 1.176zm-21.478-30.907l21.646 21.669 63.931-63.998-21.646-21.668-63.931 63.997z" fill="#212529"/><path d="M153.324 81.94l-69.42 69.472 5.457 5.464 69.42-69.472-5.457-5.465z" fill="#212529"/><path d="M169.646 103.639l-32.553-32.587 2.685-2.687c4.363-4.367 10.068-6.719 16.276-6.719 6.209 0 11.914 2.352 16.277 6.719 8.893 8.902 8.893 23.516 0 32.586l-2.685 2.688zm-21.31-32.083l20.974 20.997c3.356-5.88 2.685-13.606-2.349-18.477-2.852-2.856-6.712-4.535-10.739-4.535-2.852-.168-5.537.672-7.887 2.015zm-48.16 99.944H69.3v-30.907h7.719v23.348h23.156v7.559z" fill="#212529"/></svg>