<svg width="397" height="246" viewBox="0 0 397 246" fill="none" xmlns="http://www.w3.org/2000/svg"><path d="M364.685 217.381H32.6V17.344c0-4.625 1.73-8.96 5.193-12.14C40.967 2.023 45.295 0 49.912 0h297.462c4.616 0 8.943 1.735 12.117 5.203 3.174 3.18 5.194 7.516 5.194 12.141v200.037zM45.584 204.084h305.829V17.344c0-1.156-.29-2.023-1.154-2.89-.866-.868-1.731-1.157-2.885-1.157H49.624c-1.155 0-2.02.29-2.886 1.156-.866.868-1.154 1.735-1.154 2.891v186.74z" fill="#212529"/><path d="M376.227 246H20.774c-5.482 0-10.676-2.023-14.715-6.07C2.019 235.883 0 230.68 0 225.187v-20.813h397v20.813c0 5.493-2.308 10.696-6.059 14.743-4.039 3.758-9.232 6.07-14.714 6.07zM13.272 217.382v7.516c0 2.024.865 4.047 2.308 5.492 1.443 1.446 3.462 2.313 5.482 2.313h355.165c2.02 0 4.039-.867 5.482-2.313 1.442-1.445 2.308-3.468 2.308-5.492v-7.516H13.272z" fill="#212529"/><path d="M105.598 145.981H67.226v36.423h38.372V145.98zm55.974-27.75h-38.373v64.174h38.373V118.23zm55.972-27.751h-38.373v91.924h38.373V90.48zm55.974-27.752h-38.373v119.675h38.373V62.73zm55.969-27.75h-38.373v147.426h38.373V34.978z" fill="#2EB349"/><path d="M179.169 59.26H67.224v13.297h111.945V59.258zm-53.953 23.993H67.224v13.298h57.992V83.253zm53.953-48.275H67.224v13.297h111.945V34.978z" fill="#212529"/></svg>