<svg width="239" height="248" viewBox="0 0 239 248" fill="none" xmlns="http://www.w3.org/2000/svg"><path d="M182.953 248H0V28.8h182.953V38H9.207v200.8h173.746v9.2z" fill="#212529"/><path d="M182.953 38H0V0h182.953v9.2H9.207v19.6h173.746V38z" fill="#212529"/><path d="M182.952 48.6H20.016V228h162.936V48.6z" fill="#53372A"/><path d="M65.854 14.4h-9.207v9.2h9.207v-9.2zm-18.414 0h-9.21v9.2h9.208v-9.2zm-18.217 0h-9.207v9.2h9.207v-9.2z" fill="#212529"/><path d="M68.457 69.4H40.834V97h27.623V69.4z" fill="#fff"/><path d="M59.25 78.6h-9.208v9.2h9.207v-9.2zm102.888-9.2H77.667v9.2h84.47v-9.2zm-42.237 18.4H77.666V97h42.236v-9.2z" fill="#2EB349"/><path d="M68.458 106.2H40.835v27.6h27.623v-27.6z" fill="#fff"/><path d="M59.25 115.4h-9.208v9.2h9.207v-9.2zm102.888-9.2H77.667v9.2h84.47v-9.2zm-42.237 18.4H77.666v9.2h42.236v-9.2z" fill="#2EB349"/><path d="M68.458 143H40.835v27.6h27.623V143zm93.68 0H77.667v9.2h84.47V143zm-42.237 18.4H77.666v9.2h42.236v-9.2zm-51.443 18.2H40.835v27.6h27.623v-27.6zm93.68 0H77.667v9.2h84.47v-9.2zM119.901 198H77.666v9.2h42.236V198z" fill="#fff"/><path d="M234.396 209.8l-16.614-16.6-16.414 16.6V33.4h33.028v176.4z" fill="#12ABE3"/><path d="M222.386 33.4h-9.207v160h9.207v-160z" fill="#212529"/><path d="M217.781 248l-21.017-37V33.4h9.208v175.2l11.81 20.8 12.01-20.8V33.4h9.207V211l-21.218 37z" fill="#212529"/><path d="M231.194 213l-13.412-13.2-13.21 13.2-6.606-6.4 19.816-19.8 19.817 19.8-6.405 6.4zM239 38h-42.235V13c0-3.4 1.401-6.6 3.803-9 2.402-2.4 5.605-3.8 9.008-3.8h16.614c3.403 0 6.606 1.4 9.007 3.8C237.6 6.4 239 9.6 239 13v25zm-33.027-9.2h23.82V13c0-1-.4-2-1.001-2.6-.6-.6-1.601-1-2.602-1h-16.614c-1 0-2.002.4-2.602 1-.6.6-1.001 1.6-1.001 2.6v15.8z" fill="#212529"/></svg>