<svg width="1200" height="800" viewBox="0 0 1200 800" fill="none" xmlns="http://www.w3.org/2000/svg"><g clip-path="url(#a)"><path fill="#fff" d="M0 0h1200v800H0z"/><path fill="#fff" d="M0 0h1200v800H0z"/><path d="M1228.99 570.668C690.658 601.782 210.7 684.304-159 801.323l1387.99.002V570.668z" fill="#EF4631"/><path d="M1229 634.925c-516.713 13.527-992.348 73.051-1381.5 166.396l1381.5.002V634.925z" fill="#12ABE3"/><path d="M1229 704.596c-38.916-.676-77.831-.676-116.747-.676-441.043-.001-856.143 35.172-1217.193 98.078L1229 802v-97.404z" fill="#2EB349"/><path d="M1229 764.798a7969.025 7969.025 0 0 0-428.072-11.5c-311.325 0-607.518 16.91-884.248 48.024l1312.32.002v-36.526z" fill="#FFCD30"/><path d="M414.566 428.484c0 1.946-.364 3.622-1.09 5.028a10.914 10.914 0 0 1-2.848 3.586c-1.195.984-2.578 1.793-4.148 2.425a29.768 29.768 0 0 1-4.852 1.442 37.533 37.533 0 0 1-5.098.703 68.7 68.7 0 0 1-4.746.176c-1.453 0-2.965-.059-4.535-.176a44.61 44.61 0 0 1-4.64-.527 42.939 42.939 0 0 1-4.571-1.02 27.165 27.165 0 0 1-4.254-1.652l-.07-45.282a39.69 39.69 0 0 1 4.184-1.44 41.882 41.882 0 0 1 4.5-1.09 45.402 45.402 0 0 1 4.605-.669c1.523-.164 3-.246 4.43-.246 1.664 0 3.34.106 5.027.317a27.72 27.72 0 0 1 4.922 1.054 21.178 21.178 0 0 1 4.394 1.934 13.689 13.689 0 0 1 3.551 2.883c1.032 1.148 1.828 2.484 2.391 4.007.586 1.524.879 3.282.879 5.274a11.82 11.82 0 0 1-.563 3.691 10.247 10.247 0 0 1-1.617 3.094 10.28 10.28 0 0 1-2.566 2.356c-1.008.632-2.145 1.101-3.41 1.406 1.523.398 2.906.984 4.148 1.758a11.957 11.957 0 0 1 3.199 2.812 11.98 11.98 0 0 1 2.039 3.727c.492 1.382.739 2.86.739 4.43zm-17.86-20.039c0-.68-.14-1.254-.422-1.722a3.738 3.738 0 0 0-1.054-1.196 3.985 3.985 0 0 0-1.336-.668 4.459 4.459 0 0 0-1.266-.21c-.469 0-.926.07-1.371.21-.445.141-.879.305-1.301.493l-.211 7.804c.539 0 1.207-.047 2.004-.14a8.414 8.414 0 0 0 2.285-.598 5.164 5.164 0 0 0 1.899-1.406c.515-.633.773-1.489.773-2.567zm-4.992 11.461c-.68 0-1.336.07-1.969.211l-.14 8.016c.351.07.691.14 1.019.21.352.048.692.071 1.02.071.492 0 1.031-.047 1.617-.14a5.24 5.24 0 0 0 1.652-.633 3.949 3.949 0 0 0 1.266-1.301c.351-.54.527-1.254.527-2.145 0-.89-.176-1.617-.527-2.18-.328-.562-.738-.996-1.231-1.3a4.029 4.029 0 0 0-1.617-.633 8.292 8.292 0 0 0-1.617-.176zm68.079-5.836c0 2.133-.246 4.196-.738 6.188a23.748 23.748 0 0 1-2.144 5.554 22.69 22.69 0 0 1-3.375 4.782 21.183 21.183 0 0 1-4.465 3.691 21.957 21.957 0 0 1-5.379 2.426c-1.946.562-4.008.844-6.188.844a22.29 22.29 0 0 1-6.047-.809 23.451 23.451 0 0 1-5.343-2.25 22.806 22.806 0 0 1-4.535-3.516 23.387 23.387 0 0 1-3.446-4.57 25.036 25.036 0 0 1-2.215-5.414 23.128 23.128 0 0 1-.773-6.012c0-2.039.246-4.03.738-5.976a24.724 24.724 0 0 1 2.11-5.555 24.414 24.414 0 0 1 3.375-4.781 22.353 22.353 0 0 1 4.394-3.762 21.483 21.483 0 0 1 5.309-2.46c1.898-.587 3.902-.88 6.011-.88 3.399 0 6.493.528 9.282 1.582 2.812 1.055 5.203 2.567 7.172 4.535 1.992 1.946 3.527 4.313 4.605 7.102 1.102 2.766 1.652 5.86 1.652 9.281zm-15.609.914c0-1.007-.152-1.98-.457-2.918a7.54 7.54 0 0 0-1.266-2.53 6.235 6.235 0 0 0-2.109-1.794c-.82-.469-1.77-.703-2.848-.703-1.101 0-2.086.2-2.953.598a6.835 6.835 0 0 0-2.25 1.652 7.102 7.102 0 0 0-1.406 2.426 8.575 8.575 0 0 0-.492 2.918c0 .984.14 1.969.422 2.953a8.778 8.778 0 0 0 1.265 2.672 6.806 6.806 0 0 0 2.074 1.933c.844.493 1.817.739 2.918.739 1.102 0 2.086-.211 2.954-.633a6.97 6.97 0 0 0 2.25-1.758 8.272 8.272 0 0 0 1.406-2.566 9.188 9.188 0 0 0 .492-2.989zm62.243-.914c0 2.133-.246 4.196-.738 6.188a23.748 23.748 0 0 1-2.144 5.554 22.617 22.617 0 0 1-3.375 4.782 21.183 21.183 0 0 1-4.465 3.691 21.957 21.957 0 0 1-5.379 2.426c-1.945.562-4.008.844-6.188.844a22.29 22.29 0 0 1-6.047-.809 23.451 23.451 0 0 1-5.343-2.25 22.806 22.806 0 0 1-4.535-3.516 23.387 23.387 0 0 1-3.446-4.57 25.036 25.036 0 0 1-2.215-5.414 23.128 23.128 0 0 1-.773-6.012c0-2.039.246-4.03.738-5.976a24.724 24.724 0 0 1 2.11-5.555 24.414 24.414 0 0 1 3.375-4.781 22.353 22.353 0 0 1 4.394-3.762 21.483 21.483 0 0 1 5.309-2.46c1.898-.587 3.902-.88 6.011-.88 3.399 0 6.493.528 9.282 1.582 2.812 1.055 5.203 2.567 7.172 4.535 1.992 1.946 3.527 4.313 4.605 7.102 1.102 2.766 1.652 5.86 1.652 9.281zm-15.609.914c0-1.007-.152-1.98-.457-2.918a7.54 7.54 0 0 0-1.266-2.53 6.235 6.235 0 0 0-2.109-1.794c-.82-.469-1.77-.703-2.848-.703-1.101 0-2.086.2-2.953.598a6.835 6.835 0 0 0-2.25 1.652 7.102 7.102 0 0 0-1.406 2.426 8.575 8.575 0 0 0-.492 2.918c0 .984.14 1.969.422 2.953a8.778 8.778 0 0 0 1.265 2.672 6.798 6.798 0 0 0 2.075 1.933c.843.493 1.816.739 2.917.739 1.102 0 2.086-.211 2.954-.633a6.97 6.97 0 0 0 2.25-1.758 8.272 8.272 0 0 0 1.406-2.566 9.188 9.188 0 0 0 .492-2.989zm56.021-23.554l-.352 14.906-10.476.422-1.266 32.625-14.836.773-1.336-32.625-10.476.563.422-16.594 38.32-.07zM585.598 423c0 3.21-.563 5.988-1.688 8.332-1.101 2.32-2.625 4.242-4.57 5.766-1.922 1.5-4.184 2.613-6.785 3.34-2.578.703-5.356 1.054-8.332 1.054-1.149 0-2.414-.152-3.797-.457a49.911 49.911 0 0 1-4.148-1.125 82.537 82.537 0 0 1-4.079-1.476 97.074 97.074 0 0 1-3.445-1.512l1.547-13.781c1.992 1.195 4.195 2.109 6.609 2.742 2.438.61 4.829.914 7.172.914.446 0 .985-.012 1.617-.035a8.67 8.67 0 0 0 1.793-.317c.586-.187 1.079-.457 1.477-.808.398-.352.598-.856.598-1.512a1.6 1.6 0 0 0-.422-1.125 2.878 2.878 0 0 0-1.09-.773 5.703 5.703 0 0 0-1.512-.457c-.562-.118-1.113-.2-1.652-.247a17.543 17.543 0 0 0-1.512-.07h-1.125c-2.015 0-3.855-.316-5.519-.95-1.641-.632-3.059-1.523-4.254-2.671-1.172-1.172-2.086-2.578-2.742-4.219-.657-1.664-.985-3.504-.985-5.52 0-2.765.551-5.238 1.652-7.417 1.125-2.203 2.614-4.067 4.465-5.59 1.875-1.547 4.02-2.73 6.434-3.55a23.097 23.097 0 0 1 7.488-1.231c1.149 0 2.332.047 3.551.14 1.219.07 2.426.211 3.621.422 1.219.211 2.402.48 3.551.809a20.92 20.92 0 0 1 3.269 1.23l-1.336 14.274a40.35 40.35 0 0 0-5.027-1.336 24.075 24.075 0 0 0-5.098-.563c-.304 0-.703.012-1.195.035-.469 0-.973.036-1.512.106a13 13 0 0 0-1.582.246 6.12 6.12 0 0 0-1.441.492 2.625 2.625 0 0 0-1.02.774 1.673 1.673 0 0 0-.351 1.16c.023.515.211.914.562 1.195.375.281.844.492 1.407.633a9.674 9.674 0 0 0 1.898.176c.703 0 1.395-.012 2.074-.035.68-.047 1.313-.082 1.899-.106a10.514 10.514 0 0 1 1.441-.035c1.875.117 3.563.516 5.063 1.195 1.5.68 2.765 1.582 3.797 2.707 1.054 1.125 1.851 2.473 2.39 4.043.563 1.547.844 3.258.844 5.133zm39.392-31.57l-.352 14.906-10.476.422-1.266 32.625-14.836.773-1.336-32.625-10.476.563.421-16.594 38.321-.07zm43.927 15.68c0 1.827-.164 3.492-.492 4.992a14.58 14.58 0 0 1-1.477 4.078 14.669 14.669 0 0 1-2.637 3.445c-1.078 1.055-2.379 2.063-3.902 3.023l8.367 14.907-15.82 3.093-5.414-14.976-4.36.14-.632 14.625h-15.118c.118-5.343.223-10.664.317-15.96.117-5.297.246-10.618.387-15.961.046-2.696.093-5.368.14-8.016.047-2.648.141-5.32.281-8.016a45.96 45.96 0 0 1 4.852-1.511 42.918 42.918 0 0 1 4.781-.914 48.53 48.53 0 0 1 4.887-.457 90.629 90.629 0 0 1 5.098-.141c2.671 0 5.25.375 7.734 1.125 2.508.726 4.723 1.828 6.645 3.305 1.921 1.476 3.457 3.316 4.605 5.52 1.172 2.202 1.758 4.769 1.758 7.698zm-15.75 1.124c0-.984-.141-1.886-.422-2.707a5.507 5.507 0 0 0-1.195-2.109c-.516-.61-1.172-1.078-1.969-1.406-.774-.352-1.688-.528-2.742-.528a8.69 8.69 0 0 0-1.371.106 7.971 7.971 0 0 0-1.301.246l-.563 13.078h.844c1.008 0 2.027-.129 3.059-.387 1.054-.258 1.992-.656 2.812-1.195a6.374 6.374 0 0 0 2.039-2.074c.539-.844.809-1.852.809-3.024zm63.263 29.743l-17.438 2.25-2.109-7.946h-8.016l-1.758 7.946-17.929-1.758 13.992-46.828 19.547-.985 13.711 47.32zm-20.813-16.454l-2.672-12.234-2.601 12.234h5.273zm63.228-12.937c0 2.273-.34 4.289-1.019 6.047-.68 1.758-1.618 3.304-2.813 4.64a16.566 16.566 0 0 1-4.148 3.34 28.034 28.034 0 0 1-5.133 2.215 36.4 36.4 0 0 1-5.625 1.266 48.197 48.197 0 0 1-5.731.422v14.976h-16.382v-7.805c.023-2.53.035-5.039.035-7.523.023-2.508.035-5.027.035-7.558.023-2.532.047-5.145.07-7.84.047-2.86.059-5.72.035-8.579-.023-2.859.035-5.742.176-8.648 3-.89 6-1.559 9-2.004 3-.445 6.094-.668 9.281-.668 1.805 0 3.61.153 5.414.457 1.805.281 3.528.739 5.168 1.371 1.664.633 3.2 1.43 4.606 2.39 1.43.938 2.66 2.063 3.691 3.376 1.031 1.312 1.84 2.812 2.426 4.5.609 1.687.914 3.562.914 5.625zm-15.609 1.195c0-1.523-.469-2.707-1.407-3.55-.914-.868-2.109-1.301-3.585-1.301a9.1 9.1 0 0 0-1.547.14 13.74 13.74 0 0 0-1.477.282l-.422 10.265c.328.047.645.07.949.07h.95c.843 0 1.652-.14 2.425-.421.797-.282 1.5-.68 2.11-1.196a6.13 6.13 0 0 0 1.441-1.863c.375-.727.563-1.535.563-2.426zm68.096 13.5c0 3.117-.504 5.824-1.512 8.121-.984 2.274-2.367 4.172-4.148 5.696-1.781 1.5-3.914 2.625-6.399 3.375-2.461.726-5.168 1.09-8.121 1.09-1.336 0-2.707-.13-4.113-.387a33.145 33.145 0 0 1-4.184-1.055 35.357 35.357 0 0 1-4.043-1.582 35.265 35.265 0 0 1-3.621-1.969l1.336-14.133a27.19 27.19 0 0 0 2.989 1.758 40.293 40.293 0 0 0 3.41 1.477c1.195.422 2.39.762 3.586 1.02 1.218.257 2.39.386 3.515.386.657 0 1.325-.047 2.004-.14a6.684 6.684 0 0 0 1.899-.598 3.563 3.563 0 0 0 1.371-1.196c.375-.515.562-1.183.562-2.003 0-.516-.234-.997-.703-1.442a6.246 6.246 0 0 0-1.687-1.125 9.26 9.26 0 0 0-2.039-.738c-.704-.188-1.29-.281-1.758-.281-.328 0-.727.023-1.196.07-.445.023-.902.07-1.371.14-.468.07-.925.176-1.371.317-.422.117-.75.27-.984.457l.211-10.055c.398.047.773.082 1.125.106.351.023.726.035 1.125.035.82 0 1.711-.07 2.672-.21a10.758 10.758 0 0 0 2.672-.81 5.79 5.79 0 0 0 2.039-1.617c.562-.68.843-1.558.843-2.636 0-.774-.211-1.395-.632-1.864a4.075 4.075 0 0 0-1.582-1.125 7.64 7.64 0 0 0-2.004-.527 15.538 15.538 0 0 0-1.969-.14c-1.899 0-3.774.327-5.625.984a14.506 14.506 0 0 0-4.852 2.882l-2.953-12.796c2.156-1.758 4.606-3.094 7.348-4.008 2.765-.938 5.543-1.406 8.332-1.406 2.555 0 4.992.375 7.312 1.125 2.344.726 4.407 1.816 6.188 3.27 1.781 1.429 3.199 3.198 4.254 5.308 1.054 2.11 1.582 4.547 1.582 7.312 0 .797-.117 1.606-.352 2.426a13.28 13.28 0 0 1-2.355 4.57 11.979 11.979 0 0 1-1.723 1.723c.984.445 1.793 1.043 2.426 1.793a9.344 9.344 0 0 1 1.512 2.496c.375.914.632 1.887.773 2.918.141 1.008.211 2.004.211 2.988zm-406.619 65.883c0 3.352-.105 6.691-.316 10.02a493.86 493.86 0 0 1-.738 10.019l-18.071.844c.539-4.078 1.02-8.156 1.442-12.235.445-4.101.668-8.203.668-12.304a46.126 46.126 0 0 0-.176-3.55 33.102 33.102 0 0 0-.246-2.532 16.73 16.73 0 0 0-.422-2.426c-.164-.75-.375-1.36-.633-1.828-.258-.469-.562-.703-.914-.703-.82 0-1.465.316-1.933.949-.469.61-.821 1.348-1.055 2.215-.211.867-.34 1.758-.387 2.672-.047.89-.07 1.617-.07 2.18 0 .984.023 1.968.07 2.952.047.985.07 1.993.07 3.024 0 3.633-.093 7.254-.281 10.863-.164 3.61-.375 7.231-.633 10.864l-16.664.632a368.42 368.42 0 0 0 1.407-12.199c.421-4.078.632-8.168.632-12.27 0-.257-.011-.726-.035-1.406a47.23 47.23 0 0 0-.14-2.285 37.003 37.003 0 0 0-.246-2.637 21.782 21.782 0 0 0-.458-2.496c-.164-.773-.375-1.406-.632-1.898-.258-.492-.575-.738-.95-.738-.585 0-1.078.234-1.476.703-.399.445-.727 1.031-.984 1.758a16.06 16.06 0 0 0-.563 2.425 50.305 50.305 0 0 0-.281 2.567 104.42 104.42 0 0 0-.106 2.355c0 .703-.011 1.23-.035 1.582l-.773 25.664h-17.719c.375-3.961.75-7.933 1.125-11.918.398-3.984.738-7.957 1.019-11.918.305-3.984.551-7.968.739-11.953.187-3.984.281-7.968.281-11.953l16.734-.703-.07 4.078a22.241 22.241 0 0 1 1.758-1.969 14.773 14.773 0 0 1 2.074-1.793c.75-.539 1.535-.972 2.356-1.3a7.116 7.116 0 0 1 2.601-.493c1.149 0 2.18.094 3.094.282a7.5 7.5 0 0 1 2.461.879c.75.421 1.406 1.007 1.969 1.757.562.727 1.054 1.653 1.476 2.778.75-.82 1.5-1.582 2.25-2.285a14.338 14.338 0 0 1 2.426-1.793 11.066 11.066 0 0 1 2.742-1.196c.984-.28 2.074-.422 3.27-.422 2.273 0 4.207.446 5.8 1.336a11.833 11.833 0 0 1 3.973 3.48c1.078 1.454 1.91 3.118 2.496 4.993a36.353 36.353 0 0 1 1.371 5.836c.305 2.016.492 4.02.563 6.012.094 1.992.14 3.82.14 5.484zm43.189-4.57c0 2.039-.14 4.078-.422 6.117-4.008.258-7.992.68-11.953 1.266l-11.883 1.687c.61 1.688 1.559 3.035 2.848 4.043 1.312 1.008 2.871 1.512 4.676 1.512.937 0 1.957-.176 3.058-.528a26.536 26.536 0 0 0 3.34-1.3 40.667 40.667 0 0 0 3.164-1.723 60.766 60.766 0 0 0 2.602-1.652l-1.688 15.961c-.914.703-1.91 1.3-2.988 1.793-1.055.492-2.156.89-3.305 1.195a25.308 25.308 0 0 1-3.48.668c-1.172.14-2.32.211-3.445.211-2.321 0-4.442-.317-6.364-.949a19.288 19.288 0 0 1-5.238-2.637 20.21 20.21 0 0 1-4.078-4.043 23.511 23.511 0 0 1-2.918-5.063 29.22 29.22 0 0 1-1.758-5.8 32.236 32.236 0 0 1-.598-6.188c0-2.18.2-4.36.598-6.539.399-2.18.996-4.277 1.793-6.293a27.362 27.362 0 0 1 3.059-5.59 22.07 22.07 0 0 1 4.324-4.535c1.641-1.289 3.492-2.297 5.555-3.023 2.086-.727 4.382-1.09 6.89-1.09 2.086 0 3.985.293 5.696.879 1.734.562 3.269 1.359 4.605 2.39a15.657 15.657 0 0 1 3.516 3.621 19.983 19.983 0 0 1 2.461 4.641 25.667 25.667 0 0 1 1.441 5.309 32.38 32.38 0 0 1 .492 5.66zm-14.062-1.828c0-.657-.071-1.325-.211-2.004a6.132 6.132 0 0 0-.703-1.899 3.855 3.855 0 0 0-1.231-1.37c-.516-.376-1.16-.563-1.933-.563-.938 0-1.77.257-2.497.773a7.079 7.079 0 0 0-1.828 1.899 11.11 11.11 0 0 0-1.265 2.46 18.857 18.857 0 0 0-.739 2.461l10.407-.984v-.773zm56.934 2.32c0 3.281-.421 6.223-1.265 8.824-.844 2.602-2.027 4.91-3.551 6.926a22.274 22.274 0 0 1-5.379 5.098 31.944 31.944 0 0 1-6.855 3.48c-2.485.891-5.133 1.547-7.946 1.969-2.789.422-5.66.633-8.613.633-1.101 0-2.18-.024-3.234-.071a82.2 82.2 0 0 1-3.235-.281l.985-45.773a43.216 43.216 0 0 1 7.945-1.723 64.076 64.076 0 0 1 8.156-.527c3.352 0 6.434.468 9.246 1.406 2.813.937 5.239 2.32 7.278 4.148 2.039 1.805 3.621 4.043 4.746 6.715 1.148 2.649 1.722 5.707 1.722 9.176zm-23.906 13.5c1.406-.211 2.684-.633 3.832-1.266a11.76 11.76 0 0 0 3.024-2.39 10.329 10.329 0 0 0 1.933-3.235c.469-1.218.703-2.507.703-3.867 0-1.336-.14-2.578-.421-3.726-.282-1.172-.739-2.18-1.372-3.024-.632-.867-1.464-1.547-2.496-2.039-1.031-.516-2.297-.797-3.797-.844l-1.406 20.391zm45.193-35.086l-2.461 47.883-14.836.773-1.406-47.672 18.703-.984zm47.372 46.477l-17.437 2.25-2.11-7.946h-8.015l-1.758 7.946-17.93-1.758 13.992-46.828 19.547-.985 13.711 47.321zm-20.812-16.454l-2.672-12.234-2.602 12.234h5.274zm84.303-6.68c0 3.563-.668 6.962-2.004 10.196-1.312 3.234-3.293 6.07-5.941 8.508l4.851 5.765-12.867 8.297-3.023-8.297c-.891.188-1.793.329-2.707.422a25.78 25.78 0 0 1-2.707.141c-2.25 0-4.407-.281-6.469-.844a25.699 25.699 0 0 1-5.801-2.355 23.874 23.874 0 0 1-4.922-3.727 24.802 24.802 0 0 1-3.832-4.851 24.287 24.287 0 0 1-2.461-5.766 24.894 24.894 0 0 1-.844-6.504c0-2.226.27-4.383.809-6.469a26.86 26.86 0 0 1 2.356-5.941 25.465 25.465 0 0 1 3.691-5.063 23.83 23.83 0 0 1 4.851-3.972 22.905 22.905 0 0 1 5.766-2.602c2.063-.61 4.231-.914 6.504-.914 3.633 0 6.961.551 9.984 1.652 3.047 1.102 5.661 2.684 7.84 4.747 2.18 2.062 3.879 4.582 5.098 7.558 1.219 2.953 1.828 6.293 1.828 10.02zm-17.086.985c0-1.078-.164-2.121-.492-3.129-.305-1.031-.762-1.933-1.371-2.707a6.669 6.669 0 0 0-2.285-1.898c-.914-.469-1.969-.703-3.164-.703-1.172 0-2.227.21-3.164.632a7.056 7.056 0 0 0-2.426 1.688 8.059 8.059 0 0 0-1.547 2.566c-.352.985-.527 2.051-.527 3.2 0 1.078.152 2.144.457 3.199a9.859 9.859 0 0 0 1.406 2.812 7.222 7.222 0 0 0 2.285 2.004c.914.516 1.969.774 3.164.774 1.148 0 2.191-.223 3.129-.668a7.384 7.384 0 0 0 2.426-1.864 8.004 8.004 0 0 0 1.547-2.672 9.387 9.387 0 0 0 .562-3.234zm62.244-24.328a693.424 693.424 0 0 0-2.707 24.644 2554.96 2554.96 0 0 0-2.145 24.645l-14.414 1.055.633-5.414a7.386 7.386 0 0 1-1.653 1.406 9.68 9.68 0 0 1-1.968.984c-.703.235-1.43.41-2.18.528-.75.093-1.465.129-2.145.105a12.047 12.047 0 0 1-4.5-.914 15.641 15.641 0 0 1-3.867-2.391 19.56 19.56 0 0 1-3.164-3.48 25.638 25.638 0 0 1-2.39-4.184 26.57 26.57 0 0 1-1.477-4.5c-.328-1.523-.492-3-.492-4.429 0-2.11.035-4.29.105-6.54.094-2.273.246-4.546.457-6.82.211-2.273.481-4.523.809-6.75.351-2.226.785-4.36 1.301-6.398 2.859.14 5.73.27 8.613.387 2.883.117 5.754.152 8.613.105-.539 2.04-1.078 4.09-1.617 6.152a131.55 131.55 0 0 0-1.406 6.188 80.048 80.048 0 0 0-1.02 6.223 51.505 51.505 0 0 0-.386 6.328c0 .492.023 1.195.07 2.109.047.914.164 1.816.351 2.707.211.891.516 1.676.914 2.356.422.656 1.008.984 1.758.984.891 0 1.688-.375 2.391-1.125.703-.773 1.324-1.805 1.863-3.094.539-1.289.996-2.777 1.371-4.465.399-1.687.727-3.445.985-5.273.281-1.852.504-3.715.668-5.59.164-1.875.281-3.633.351-5.273a116.2 116.2 0 0 0 .176-4.465 90.99 90.99 0 0 0 .07-3.059c0-.469-.011-.926-.035-1.37a28.474 28.474 0 0 0-.105-1.372 300.065 300.065 0 0 0 9.07.14h3.516c1.195-.023 2.39-.07 3.586-.14zm41.501 21.094a44.76 44.76 0 0 1-.422 6.117c-4.008.258-7.992.68-11.953 1.266l-11.883 1.687c.609 1.688 1.559 3.035 2.848 4.043 1.312 1.008 2.871 1.512 4.675 1.512.938 0 1.957-.176 3.059-.528a26.595 26.595 0 0 0 3.34-1.3 40.85 40.85 0 0 0 3.164-1.723 60.05 60.05 0 0 0 2.601-1.652l-1.687 15.961c-.914.703-1.91 1.3-2.988 1.793-1.055.492-2.157.89-3.305 1.195a25.337 25.337 0 0 1-3.48.668 29.05 29.05 0 0 1-3.446.211c-2.32 0-4.441-.317-6.363-.949a19.288 19.288 0 0 1-5.238-2.637 20.184 20.184 0 0 1-4.078-4.043 23.511 23.511 0 0 1-2.918-5.063 29.154 29.154 0 0 1-1.758-5.8 32.156 32.156 0 0 1-.598-6.188c0-2.18.199-4.36.598-6.539.398-2.18.996-4.277 1.793-6.293a27.407 27.407 0 0 1 3.058-5.59 22.074 22.074 0 0 1 4.325-4.535c1.64-1.289 3.492-2.297 5.554-3.023 2.086-.727 4.383-1.09 6.891-1.09 2.086 0 3.984.293 5.695.879 1.735.562 3.27 1.359 4.606 2.39a15.632 15.632 0 0 1 3.515 3.621 19.945 19.945 0 0 1 2.461 4.641 25.669 25.669 0 0 1 1.442 5.309 32.38 32.38 0 0 1 .492 5.66zm-14.063-1.828c0-.657-.07-1.325-.211-2.004a6.106 6.106 0 0 0-.703-1.899 3.852 3.852 0 0 0-1.23-1.37c-.516-.376-1.16-.563-1.934-.563-.937 0-1.769.257-2.496.773a7.079 7.079 0 0 0-1.828 1.899 11.07 11.07 0 0 0-1.266 2.46 18.842 18.842 0 0 0-.738 2.461l10.406-.984v-.773zm58.306-3.657c0 1.829-.164 3.493-.492 4.993a14.58 14.58 0 0 1-1.477 4.078 14.643 14.643 0 0 1-2.636 3.445c-1.078 1.055-2.379 2.063-3.903 3.023l8.368 14.907-15.821 3.093-5.414-14.976-4.359.14-.633 14.626h-15.117c.117-5.344.222-10.665.316-15.961.117-5.297.246-10.618.387-15.961l.141-8.016c.046-2.648.14-5.32.281-8.016a45.93 45.93 0 0 1 4.851-1.511 42.912 42.912 0 0 1 4.782-.914 48.526 48.526 0 0 1 4.886-.457 90.607 90.607 0 0 1 5.098-.141c2.672 0 5.25.375 7.734 1.125 2.508.726 4.723 1.828 6.645 3.305 1.922 1.476 3.457 3.316 4.605 5.52 1.172 2.202 1.758 4.769 1.758 7.698zm-15.75 1.125c0-.984-.14-1.886-.422-2.707a5.507 5.507 0 0 0-1.195-2.109c-.516-.61-1.172-1.078-1.969-1.406-.773-.352-1.687-.528-2.742-.528a8.81 8.81 0 0 0-1.371.106 7.991 7.991 0 0 0-1.301.246l-.562 13.078h.843c1.008 0 2.028-.129 3.059-.387 1.055-.258 1.992-.656 2.813-1.195a6.394 6.394 0 0 0 2.039-2.074c.539-.844.808-1.852.808-3.024zm37.283-16.734l-2.461 47.883-14.836.773-1.406-47.672 18.703-.984zm42.837 21.094a44.76 44.76 0 0 1-.422 6.117c-4.008.258-7.992.68-11.953 1.266l-11.883 1.687c.609 1.688 1.559 3.035 2.848 4.043 1.312 1.008 2.871 1.512 4.676 1.512.937 0 1.957-.176 3.058-.528a26.595 26.595 0 0 0 3.34-1.3 40.667 40.667 0 0 0 3.164-1.723 60.766 60.766 0 0 0 2.602-1.652l-1.688 15.961c-.914.703-1.91 1.3-2.988 1.793-1.055.492-2.156.89-3.305 1.195a25.308 25.308 0 0 1-3.48.668 29.05 29.05 0 0 1-3.446.211c-2.32 0-4.441-.317-6.363-.949a19.288 19.288 0 0 1-5.238-2.637 20.21 20.21 0 0 1-4.078-4.043 23.511 23.511 0 0 1-2.918-5.063 29.154 29.154 0 0 1-1.758-5.8 32.156 32.156 0 0 1-.598-6.188c0-2.18.199-4.36.598-6.539.398-2.18.996-4.277 1.793-6.293a27.407 27.407 0 0 1 3.058-5.59 22.1 22.1 0 0 1 4.325-4.535c1.64-1.289 3.492-2.297 5.554-3.023 2.086-.727 4.383-1.09 6.891-1.09 2.086 0 3.984.293 5.695.879 1.735.562 3.27 1.359 4.606 2.39a15.632 15.632 0 0 1 3.515 3.621 19.908 19.908 0 0 1 2.461 4.641 25.606 25.606 0 0 1 1.442 5.309 32.38 32.38 0 0 1 .492 5.66zm-14.063-1.828c0-.657-.07-1.325-.211-2.004a6.106 6.106 0 0 0-.703-1.899 3.843 3.843 0 0 0-1.23-1.37c-.516-.376-1.16-.563-1.934-.563-.937 0-1.769.257-2.496.773a7.079 7.079 0 0 0-1.828 1.899c-.516.75-.937 1.57-1.266 2.46a18.842 18.842 0 0 0-.738 2.461l10.406-.984v-.773zM857.271 495c0 3.211-.562 5.988-1.687 8.332-1.102 2.32-2.625 4.242-4.57 5.766-1.922 1.5-4.184 2.613-6.786 3.34-2.578.703-5.355 1.054-8.332 1.054-1.148 0-2.414-.152-3.797-.457a50.146 50.146 0 0 1-4.148-1.125 83.322 83.322 0 0 1-4.078-1.476 95.523 95.523 0 0 1-3.445-1.512l1.546-13.781c1.993 1.195 4.196 2.109 6.61 2.742 2.437.609 4.828.914 7.172.914.445 0 .984-.012 1.617-.035a8.695 8.695 0 0 0 1.793-.317c.586-.187 1.078-.457 1.476-.808.399-.352.598-.856.598-1.512a1.6 1.6 0 0 0-.422-1.125 2.865 2.865 0 0 0-1.09-.773 5.678 5.678 0 0 0-1.511-.457c-.563-.118-1.114-.2-1.653-.247a17.86 17.86 0 0 0-1.511-.07h-1.125c-2.016 0-3.856-.316-5.52-.949-1.641-.633-3.059-1.524-4.254-2.672-1.172-1.172-2.086-2.578-2.742-4.219-.656-1.664-.984-3.504-.984-5.52 0-2.765.55-5.238 1.652-7.417 1.125-2.203 2.613-4.067 4.465-5.59 1.875-1.547 4.019-2.73 6.433-3.55a23.12 23.12 0 0 1 7.489-1.231c1.148 0 2.332.047 3.55.14 1.219.07 2.426.211 3.622.422 1.218.211 2.402.48 3.55.809 1.149.328 2.239.738 3.27 1.23l-1.336 14.274a40.442 40.442 0 0 0-5.027-1.336 24.09 24.09 0 0 0-5.098-.563c-.305 0-.703.012-1.195.035-.469 0-.973.036-1.512.106-.516.047-1.043.129-1.582.246a6.129 6.129 0 0 0-1.442.492 2.629 2.629 0 0 0-1.019.774 1.674 1.674 0 0 0-.352 1.16c.024.515.211.914.563 1.195.375.281.844.492 1.406.633a9.684 9.684 0 0 0 1.899.176c.703 0 1.394-.012 2.074-.036a66.085 66.085 0 0 1 1.898-.105 10.528 10.528 0 0 1 1.442-.035c1.875.117 3.562.515 5.062 1.195 1.5.68 2.766 1.582 3.797 2.707 1.055 1.125 1.852 2.473 2.391 4.043.562 1.547.843 3.258.843 5.133z" fill="#212529"/><path d="M636.309 347H558.32v-26.22h10.02v16.17h57.948v-16.17h10.02V347z" fill="#242D3C"/><path d="M650.685 336.949H543.941V347h106.744v-10.05z" fill="#212529"/><path d="M717.782 294.164h-211.31V252.43c0-1.311-1.09-2.622-2.614-2.622h-27.013v-109.47c0-3.495 1.307-6.773 3.921-9.395 2.614-2.404 5.882-3.933 9.368-3.933h114.368v96.578c0 3.496 2.832 6.336 6.318 6.336h66.661c3.485 0 6.317-2.84 6.317-6.336V127.01h20.913c3.486 0 6.754 1.311 9.368 3.933 2.396 2.404 3.921 5.9 3.921 9.396v153.825h-.218zm-201.29-10.051h191.269V140.339c0-.874-.436-1.53-.871-2.185-.872-.875-1.743-.875-2.179-.875h-10.892v86.527c0 8.959-7.407 16.388-16.338 16.388H610.82c-9.15 0-16.338-7.429-16.338-16.388v-86.745H490.133c-.87 0-1.742.437-2.178.874-.653.656-.871 1.311-.871 2.185v99.637h16.992c6.97 0 12.635 5.681 12.635 12.673v31.683h-.218z" fill="#242D3C"/><path d="M704.711 321.258H506.472v-37.364h211.31v24.035c0 3.496-1.307 6.774-3.921 9.396-2.396 2.622-5.664 3.933-9.15 3.933zm-188.218-10.051H704.71c.436 0 1.525-.219 2.179-.874.653-.656.871-1.311.871-2.185v-13.984H516.493v17.043z" fill="#212529"/><path d="M688.809 151.482v72.324c0 6.337-5.011 11.362-11.328 11.362H610.82c-6.317 0-11.328-5.025-11.328-11.362v-72.324h-98.248v93.3h2.832c4.14 0 7.625 3.497 7.625 7.648v17.48h182.118V151.482h-5.01z" fill="#EF4631"/><path d="M486.647 255.271h-9.585v10.051h9.585v-10.051zm5.663 75.164h-21.131v10.051h21.131v-10.051z" fill="#212529"/><path d="M503.858 356h-44.223c-6.971 0-12.635-5.681-12.635-12.673V252.43c0-6.992 5.664-12.673 12.635-12.673h44.223c6.97 0 12.635 5.681 12.635 12.673v90.897c0 6.992-5.664 12.673-12.635 12.673zm-44.223-106.192c-1.307 0-2.614 1.093-2.614 2.622v90.897c0 1.311 1.09 2.622 2.614 2.622h44.223c1.307 0 2.614-1.092 2.614-2.622V252.43c0-1.31-1.09-2.622-2.614-2.622h-44.223zM648.942 127.01h-9.585v10.051h9.585V127.01z" fill="#212529"/><path d="M658.528 210.696h-28.973v10.051h28.973v-10.051z" fill="#242D3C"/><path d="M677.48 240.194h-66.66c-9.15 0-16.339-7.429-16.339-16.388v-99.418c0-8.959 7.407-16.388 16.338-16.388h66.661c8.932 0 16.338 7.43 16.338 16.388v99.418c0 8.959-7.406 16.388-16.338 16.388zm-66.66-122.361c-3.486 0-6.318 2.84-6.318 6.336v99.419c0 3.496 2.832 6.336 6.317 6.336h66.661c3.486 0 6.318-2.84 6.318-6.336v-99.419c0-3.496-2.832-6.336-6.318-6.336h-66.66z" fill="#212529"/></g><defs><clipPath id="a"><path fill="#fff" d="M0 0h1200v800H0z"/></clipPath></defs></svg>