<svg width="1200" height="800" viewBox="0 0 1200 800" fill="none" xmlns="http://www.w3.org/2000/svg"><g clip-path="url(#a)"><path fill="#fff" d="M0 0h1200v800H0z"/><path fill="#fff" d="M0 0h1200v800H0z"/><path d="M343.945 437.54c0 5.655-1.539 9.983-4.617 12.983-3.062 2.985-7.476 4.477-13.242 4.477h-9.492v-34.266h10.5c5.328 0 9.468 1.477 12.422 4.43 2.953 2.953 4.429 7.078 4.429 12.375zm-4.218.14c0-4.47-1.125-7.836-3.375-10.102-2.235-2.265-5.563-3.398-9.985-3.398h-5.789v27.375h4.852c4.75 0 8.32-1.164 10.711-3.492 2.39-2.344 3.586-5.805 3.586-10.383zM370.711 455h-19.102v-34.266h19.102v3.54h-15.117v11.038h14.203v3.516h-14.203v12.61h15.117V455zm26.953-9.117c0 3.015-1.094 5.367-3.281 7.054-2.188 1.688-5.156 2.532-8.906 2.532-4.063 0-7.188-.524-9.375-1.57v-3.844a24.674 24.674 0 0 0 4.593 1.406c1.657.344 3.297.516 4.922.516 2.656 0 4.656-.5 6-1.5 1.344-1.016 2.016-2.422 2.016-4.22 0-1.187-.242-2.155-.727-2.905-.468-.766-1.265-1.47-2.39-2.11-1.11-.64-2.805-1.367-5.086-2.18-3.188-1.14-5.469-2.492-6.844-4.054-1.359-1.563-2.039-3.602-2.039-6.117 0-2.641.992-4.743 2.976-6.305 1.985-1.563 4.61-2.344 7.875-2.344 3.407 0 6.54.625 9.399 1.875l-1.242 3.469c-2.828-1.188-5.578-1.781-8.25-1.781-2.11 0-3.758.453-4.946 1.36-1.187.905-1.781 2.163-1.781 3.772 0 1.188.219 2.165.656 2.93.438.75 1.172 1.445 2.204 2.086 1.046.625 2.64 1.32 4.781 2.086 3.593 1.281 6.062 2.656 7.406 4.125 1.359 1.469 2.039 3.375 2.039 5.719zm7.008 9.117v-34.266h3.984V455h-3.984zm28.476-17.953h11.649v16.664a37.44 37.44 0 0 1-5.531 1.312c-1.875.297-4.047.446-6.516.446-5.188 0-9.227-1.54-12.117-4.617-2.891-3.094-4.336-7.422-4.336-12.985 0-3.562.711-6.68 2.133-9.351 1.437-2.688 3.5-4.735 6.187-6.141 2.688-1.422 5.836-2.133 9.445-2.133 3.657 0 7.063.672 10.219 2.016l-1.547 3.515c-3.093-1.312-6.07-1.968-8.929-1.968-4.172 0-7.43 1.242-9.774 3.726-2.343 2.485-3.515 5.93-3.515 10.336 0 4.625 1.125 8.133 3.375 10.524 2.265 2.39 5.586 3.586 9.961 3.586 2.375 0 4.695-.274 6.96-.82v-10.548h-7.664v-3.562zM479.812 455h-4.546l-18.727-28.758h-.187c.25 3.375.375 6.469.375 9.281V455h-3.68v-34.266h4.5l18.68 28.641h.187c-.031-.422-.102-1.773-.211-4.055-.109-2.297-.148-3.937-.117-4.922v-19.664h3.726V455z" fill="#EF4631"/><path d="M516.375 423.805c-3.766 0-6.742 1.258-8.93 3.773-2.172 2.5-3.257 5.93-3.257 10.29 0 4.484 1.046 7.952 3.14 10.405 2.11 2.438 5.11 3.657 9 3.657 2.391 0 5.117-.43 8.18-1.29v3.493c-2.375.89-5.305 1.336-8.789 1.336-5.047 0-8.946-1.531-11.696-4.594-2.734-3.062-4.101-7.414-4.101-13.055 0-3.53.656-6.625 1.969-9.28 1.328-2.657 3.234-4.704 5.718-6.142 2.5-1.437 5.438-2.156 8.813-2.156 3.594 0 6.734.656 9.422 1.969l-1.688 3.422c-2.594-1.219-5.187-1.828-7.781-1.828zm19.594 16.945V455h-3.985v-34.266h9.399c4.203 0 7.305.805 9.305 2.414 2.015 1.61 3.023 4.032 3.023 7.266 0 4.531-2.297 7.594-6.891 9.188L556.125 455h-4.711l-8.297-14.25h-7.148zm0-3.422h5.461c2.812 0 4.875-.555 6.187-1.664 1.313-1.125 1.969-2.805 1.969-5.039 0-2.266-.672-3.898-2.016-4.898-1.328-1-3.468-1.5-6.422-1.5h-5.179v13.101zM580.758 455h-19.102v-34.266h19.102v3.54h-15.117v11.038h14.203v3.516h-14.203v12.61h15.117V455zm29.156 0l-4.266-10.898h-13.734L587.695 455h-4.031l13.547-34.406h3.351L614.039 455h-4.125zm-5.508-14.484l-3.984-10.618c-.516-1.343-1.047-2.992-1.594-4.945-.344 1.5-.836 3.149-1.476 4.945l-4.032 10.618h11.086zM629.297 455h-3.985v-30.727h-10.851v-3.539h25.687v3.54h-10.851V455zm35.133 0h-19.102v-34.266h19.102v3.54h-15.118v11.038h14.204v3.516h-14.204v12.61h15.118V455z" fill="#12ABE3"/><path d="M711.867 437.54c0 5.655-1.539 9.983-4.617 12.983-3.062 2.985-7.477 4.477-13.242 4.477h-9.492v-34.266h10.5c5.328 0 9.468 1.477 12.422 4.43 2.953 2.953 4.429 7.078 4.429 12.375zm-4.219.14c0-4.47-1.125-7.836-3.375-10.102-2.234-2.265-5.562-3.398-9.984-3.398H688.5v27.375h4.852c4.75 0 8.32-1.164 10.71-3.492 2.391-2.344 3.586-5.805 3.586-10.383zM738.633 455h-19.102v-34.266h19.102v3.54h-15.117v11.038h14.203v3.516h-14.203v12.61h15.117V455zm27.187-34.266h4.289L757.758 455h-3.938l-12.281-34.266h4.219l7.875 22.172a62.188 62.188 0 0 1 2.156 7.43 62.154 62.154 0 0 1 2.203-7.57l7.828-22.032zM793.945 455h-19.101v-34.266h19.101v3.54h-15.117v11.038h14.203v3.516h-14.203v12.61h15.117V455zm7.617 0v-34.266h3.985v30.657h15.117V455h-19.102zm54.68-17.18c0 5.485-1.39 9.797-4.172 12.938-2.765 3.14-6.617 4.71-11.554 4.71-5.047 0-8.946-1.538-11.696-4.616-2.734-3.094-4.101-7.454-4.101-13.079 0-5.578 1.375-9.898 4.125-12.96 2.75-3.079 6.656-4.618 11.718-4.618 4.922 0 8.766 1.563 11.532 4.688 2.765 3.125 4.148 7.437 4.148 12.937zm-27.304 0c0 4.64.984 8.164 2.953 10.57 1.984 2.391 4.859 3.587 8.625 3.587 3.796 0 6.664-1.196 8.601-3.586 1.938-2.391 2.906-5.914 2.906-10.57 0-4.61-.968-8.102-2.906-10.477-1.922-2.39-4.773-3.586-8.555-3.586-3.796 0-6.687 1.203-8.671 3.61-1.969 2.39-2.953 5.874-2.953 10.452zm56.695-7.101c0 3.468-1.188 6.14-3.563 8.015-2.359 1.86-5.742 2.79-10.148 2.79h-4.031V455h-3.985v-34.266h8.883c8.563 0 12.844 3.329 12.844 9.985zm-17.742 7.383h3.586c3.531 0 6.085-.57 7.664-1.711 1.578-1.141 2.367-2.97 2.367-5.485 0-2.265-.742-3.953-2.227-5.062-1.484-1.11-3.797-1.664-6.937-1.664h-4.453v13.922z" fill="#2EB349"/><path d="M408.374 384l-14.906-42.926h-.282c.399 6.375.598 12.352.598 17.93V384h-7.629v-51.398h11.848l14.273 40.886h.211l14.695-40.886h11.883V384h-8.086v-25.418c0-2.555.059-5.883.176-9.984.141-4.102.258-6.586.352-7.453h-.282L415.792 384h-7.418zm76.113 0l-5.133-14.273h-19.652L454.675 384h-8.86l19.231-51.61h9.14L493.417 384h-8.93zm-7.348-21.516l-4.816-13.992c-.352-.937-.844-2.414-1.477-4.43-.609-2.015-1.031-3.492-1.265-4.43-.633 2.884-1.559 6.036-2.777 9.458l-4.641 13.394h14.976zM539.436 384h-9.738l-16.137-23.273-4.957 4.043V384h-8.402v-51.398h8.402v24.539a317.787 317.787 0 0 1 6.856-8.122l13.886-16.417h9.563c-8.977 10.546-15.41 18.058-19.301 22.535L539.436 384zm35.895 0h-29.074v-51.398h29.074v7.101h-20.672v13.992h19.371v7.032h-19.371v16.136h20.672V384zm61.734 0l-5.133-14.273H612.28L607.253 384h-8.86l19.231-51.61h9.14L645.995 384h-8.93zm-7.347-21.516l-4.817-13.992c-.351-.937-.844-2.414-1.476-4.43-.61-2.015-1.032-3.492-1.266-4.43-.633 2.884-1.559 6.036-2.777 9.458l-4.641 13.394h14.977zM718.909 384h-9.141l-8.718-30.656c-.375-1.336-.844-3.258-1.407-5.766-.562-2.531-.902-4.289-1.019-5.273-.235 1.5-.621 3.445-1.16 5.836-.516 2.39-.95 4.171-1.301 5.343L687.655 384h-9.141l-6.644-25.734-6.75-25.664h8.578l7.348 29.953c1.148 4.804 1.968 9.047 2.461 12.726.257-1.992.644-4.218 1.16-6.68.515-2.46.984-4.453 1.406-5.976l8.367-30.023h8.332l8.578 30.164c.821 2.789 1.688 6.96 2.602 12.515.352-3.351 1.195-7.617 2.531-12.797l7.313-29.882h8.508L718.909 384zm49.781 0h-29.074v-51.398h29.074v7.101h-20.672v13.992h19.371v7.032h-19.371v16.136h20.672V384zm11.145-51.398h15.258c7.078 0 12.187 1.03 15.328 3.093 3.164 2.063 4.746 5.32 4.746 9.774 0 3-.774 5.496-2.321 7.488-1.546 1.992-3.773 3.246-6.679 3.762v.351c3.609.68 6.258 2.028 7.945 4.043 1.711 1.993 2.567 4.7 2.567 8.121 0 4.618-1.618 8.239-4.852 10.864-3.211 2.601-7.688 3.902-13.43 3.902h-18.562v-51.398zm8.402 21.234h8.086c3.516 0 6.082-.55 7.699-1.652 1.617-1.125 2.426-3.024 2.426-5.696 0-2.414-.879-4.16-2.637-5.238-1.734-1.078-4.5-1.617-8.297-1.617h-7.277v14.203zm0 6.82v16.278h8.93c3.515 0 6.164-.668 7.945-2.004 1.805-1.36 2.707-3.492 2.707-6.399 0-2.672-.914-4.652-2.742-5.941-1.828-1.29-4.606-1.934-8.332-1.934h-8.508z" fill="#212529"/><path d="M1228.99 570.668C690.658 601.782 210.7 684.304-159 801.323l1387.99.002V570.668z" fill="#EF4631"/><path d="M1229 634.925c-516.713 13.527-992.348 73.051-1381.5 166.396l1381.5.002V634.925z" fill="#12ABE3"/><path d="M1229 704.597c-38.916-.676-77.831-.676-116.747-.676-441.043-.001-856.143 35.172-1217.193 98.078L1229 802v-97.404z" fill="#2EB349"/><path d="M1229 764.798a7969.025 7969.025 0 0 0-428.072-11.5c-311.325 0-607.518 16.91-884.248 48.024l1312.32.002v-36.526z" fill="#FFCD30"/></g><defs><clipPath id="a"><path fill="#fff" d="M0 0h1200v800H0z"/></clipPath></defs></svg>