<svg width="1200" height="800" viewBox="0 0 1200 800" fill="none" xmlns="http://www.w3.org/2000/svg"><g clip-path="url(#a)"><path fill="#fff" d="M0 0h1200v800H0z"/><path fill="#fff" d="M0 0h1200v800H0z"/><path fill="#fff" fill-opacity=".92" d="M0 0h1200v800H0z"/><path d="M369.422 385h-2.414v-32.016h-11.133v-2.25h24.68v2.25h-11.133V385zm36.726-12.773c0 4.156-1.007 7.406-3.023 9.75-2.016 2.328-4.797 3.492-8.344 3.492-2.234 0-4.203-.54-5.906-1.617-1.703-1.079-3.008-2.625-3.914-4.641-.906-2.016-1.359-4.344-1.359-6.984 0-4.157 1.007-7.391 3.023-9.704 2.016-2.328 4.781-3.492 8.297-3.492 3.5 0 6.242 1.18 8.226 3.54 2 2.343 3 5.562 3 9.656zm-20.109 0c0 3.5.766 6.234 2.297 8.203 1.547 1.953 3.726 2.93 6.539 2.93 2.813 0 4.984-.977 6.516-2.93 1.547-1.97 2.32-4.703 2.32-8.203 0-3.516-.781-6.243-2.344-8.18-1.547-1.938-3.726-2.906-6.539-2.906-2.812 0-4.984.968-6.516 2.906-1.515 1.922-2.273 4.648-2.273 8.18zm48.234 0c0 4.156-1.007 7.406-3.023 9.75-2.016 2.328-4.797 3.492-8.344 3.492-2.234 0-4.203-.54-5.906-1.617-1.703-1.079-3.008-2.625-3.914-4.641-.906-2.016-1.359-4.344-1.359-6.984 0-4.157 1.007-7.391 3.023-9.704 2.016-2.328 4.781-3.492 8.297-3.492 3.5 0 6.242 1.18 8.226 3.54 2 2.343 3 5.562 3 9.656zm-20.109 0c0 3.5.766 6.234 2.297 8.203 1.547 1.953 3.727 2.93 6.539 2.93s4.984-.977 6.516-2.93c1.546-1.97 2.32-4.703 2.32-8.203 0-3.516-.781-6.243-2.344-8.18-1.547-1.938-3.726-2.906-6.539-2.906-2.812 0-4.984.968-6.515 2.906-1.516 1.922-2.274 4.648-2.274 8.18zM443.648 385h-2.32v-36.469h2.32V385zM468 378.367c0 2.281-.867 4.04-2.602 5.274-1.734 1.218-4.195 1.828-7.382 1.828-3.407 0-6.11-.524-8.11-1.57v-2.508a17.9 17.9 0 0 0 8.11 1.921c2.515 0 4.422-.414 5.718-1.242 1.313-.843 1.969-1.96 1.969-3.351 0-1.282-.523-2.36-1.57-3.235-1.031-.875-2.735-1.734-5.11-2.578-2.546-.922-4.335-1.71-5.367-2.367-1.031-.672-1.812-1.422-2.344-2.25-.515-.844-.773-1.867-.773-3.07 0-1.906.797-3.414 2.391-4.524 1.609-1.11 3.851-1.664 6.726-1.664 2.75 0 5.36.516 7.828 1.547l-.867 2.11c-2.5-1.032-4.82-1.547-6.961-1.547-2.078 0-3.726.343-4.945 1.03-1.219.688-1.828 1.642-1.828 2.86 0 1.328.469 2.39 1.406 3.188.953.797 2.805 1.687 5.555 2.672 2.297.828 3.968 1.578 5.015 2.25 1.047.656 1.829 1.406 2.344 2.25.531.843.797 1.836.797 2.976zm25.758 5.04c1.469 0 2.75-.126 3.844-.376v1.875c-1.125.375-2.422.563-3.891.563-2.25 0-3.914-.602-4.992-1.805-1.063-1.203-1.594-3.094-1.594-5.672V361.54h-3.773v-1.36l3.773-1.054 1.172-5.766h1.195v6.164h7.477v2.016h-7.477v16.125c0 1.953.344 3.398 1.031 4.336.688.937 1.766 1.406 3.235 1.406zm30.422-11.18c0 4.156-1.008 7.406-3.024 9.75-2.015 2.328-4.797 3.492-8.344 3.492-2.234 0-4.203-.54-5.906-1.617-1.703-1.079-3.008-2.625-3.914-4.641-.906-2.016-1.359-4.344-1.359-6.984 0-4.157 1.008-7.391 3.023-9.704 2.016-2.328 4.782-3.492 8.297-3.492 3.5 0 6.242 1.18 8.227 3.54 2 2.343 3 5.562 3 9.656zm-20.11 0c0 3.5.766 6.234 2.297 8.203 1.547 1.953 3.727 2.93 6.539 2.93 2.813 0 4.985-.977 6.516-2.93 1.547-1.97 2.32-4.703 2.32-8.203 0-3.516-.781-6.243-2.344-8.18-1.546-1.938-3.726-2.906-6.539-2.906-2.812 0-4.984.968-6.515 2.906-1.516 1.922-2.274 4.648-2.274 8.18zM575.531 385v-16.71c0-2.485-.484-4.298-1.453-5.438-.969-1.141-2.453-1.711-4.453-1.711-2.609 0-4.539.718-5.789 2.156-1.25 1.437-1.875 3.695-1.875 6.773V385h-2.367v-17.414c0-4.297-1.969-6.445-5.906-6.445-2.672 0-4.618.78-5.836 2.343-1.219 1.547-1.829 4.032-1.829 7.453V385h-2.32v-25.477h1.922l.492 3.493h.141a7.229 7.229 0 0 1 3-2.93c1.297-.703 2.726-1.055 4.289-1.055 4.015 0 6.594 1.508 7.734 4.524h.094c.828-1.453 1.937-2.57 3.328-3.352 1.406-.781 3-1.172 4.781-1.172 2.782 0 4.868.742 6.258 2.227 1.391 1.484 2.086 3.844 2.086 7.078V385h-2.297zm31.617-12.773c0 4.156-1.007 7.406-3.023 9.75-2.016 2.328-4.797 3.492-8.344 3.492-2.234 0-4.203-.54-5.906-1.617-1.703-1.079-3.008-2.625-3.914-4.641-.906-2.016-1.359-4.344-1.359-6.984 0-4.157 1.007-7.391 3.023-9.704 2.016-2.328 4.781-3.492 8.297-3.492 3.5 0 6.242 1.18 8.226 3.54 2 2.343 3 5.562 3 9.656zm-20.109 0c0 3.5.766 6.234 2.297 8.203 1.547 1.953 3.726 2.93 6.539 2.93 2.813 0 4.984-.977 6.516-2.93 1.547-1.97 2.32-4.703 2.32-8.203 0-3.516-.781-6.243-2.344-8.18-1.547-1.938-3.726-2.906-6.539-2.906-2.812 0-4.984.968-6.516 2.906-1.515 1.922-2.273 4.648-2.273 8.18zM631.969 385v-16.523c0-2.563-.539-4.422-1.617-5.579-1.079-1.171-2.75-1.757-5.016-1.757-3.047 0-5.281.773-6.703 2.32-1.406 1.531-2.11 4.023-2.11 7.477V385h-2.32v-25.477h1.969l.445 3.493h.141c1.656-2.657 4.601-3.985 8.836-3.985 5.781 0 8.672 3.102 8.672 9.305V385h-2.297zm12.867 0h-2.32v-25.477h2.32V385zm-2.648-32.555c0-1.5.492-2.25 1.476-2.25.484 0 .859.196 1.125.586.281.39.422.946.422 1.664 0 .703-.141 1.258-.422 1.664a1.27 1.27 0 0 1-1.125.61c-.984 0-1.476-.758-1.476-2.274zm17.929 30.961c1.469 0 2.75-.125 3.844-.375v1.875c-1.125.375-2.422.563-3.891.563-2.25 0-3.914-.602-4.992-1.805-1.062-1.203-1.594-3.094-1.594-5.672V361.54h-3.773v-1.36l3.773-1.054 1.172-5.766h1.196v6.164h7.476v2.016h-7.476v16.125c0 1.953.343 3.398 1.031 4.336.687.937 1.765 1.406 3.234 1.406zm30.422-11.18c0 4.157-1.008 7.407-3.023 9.75-2.016 2.329-4.797 3.493-8.344 3.493-2.234 0-4.203-.54-5.906-1.617-1.704-1.079-3.008-2.625-3.914-4.641-.907-2.016-1.36-4.344-1.36-6.984 0-4.157 1.008-7.391 3.024-9.704 2.015-2.328 4.781-3.492 8.296-3.492 3.5 0 6.243 1.18 8.227 3.54 2 2.343 3 5.562 3 9.656zm-20.109 0c0 3.5.765 6.235 2.297 8.204 1.546 1.953 3.726 2.93 6.539 2.93 2.812 0 4.984-.977 6.515-2.93 1.547-1.97 2.321-4.703 2.321-8.203 0-3.516-.782-6.243-2.344-8.18-1.547-1.938-3.727-2.906-6.539-2.906-2.813 0-4.985.968-6.516 2.906-1.515 1.922-2.273 4.648-2.273 8.18zm37.195-13.195c1.078 0 2.234.11 3.469.328l-.446 2.227a13.571 13.571 0 0 0-3.304-.399c-2.172 0-3.953.922-5.344 2.766-1.391 1.844-2.086 4.172-2.086 6.984V385h-2.32v-25.477h1.968l.235 4.594h.164c1.047-1.875 2.164-3.187 3.351-3.937 1.188-.766 2.626-1.149 4.313-1.149zm36.937 19.336c0 2.281-.867 4.04-2.601 5.274-1.734 1.218-4.195 1.828-7.383 1.828-3.406 0-6.109-.524-8.109-1.57v-2.508a17.893 17.893 0 0 0 8.109 1.921c2.516 0 4.422-.414 5.719-1.242 1.312-.843 1.969-1.96 1.969-3.351 0-1.282-.524-2.36-1.571-3.235-1.031-.875-2.734-1.734-5.109-2.578-2.547-.922-4.336-1.71-5.367-2.367-1.031-.672-1.813-1.422-2.344-2.25-.516-.844-.773-1.867-.773-3.07 0-1.906.796-3.414 2.39-4.524 1.61-1.11 3.852-1.664 6.727-1.664 2.75 0 5.359.516 7.828 1.547l-.867 2.11c-2.5-1.032-4.821-1.547-6.961-1.547-2.078 0-3.727.343-4.946 1.03-1.218.688-1.828 1.642-1.828 2.86 0 1.328.469 2.39 1.407 3.188.953.797 2.804 1.687 5.554 2.672 2.297.828 3.969 1.578 5.016 2.25 1.047.656 1.828 1.406 2.344 2.25.531.843.796 1.836.796 2.976zM766.594 385l-.586-4.031h-.188c-1.281 1.64-2.601 2.804-3.961 3.492-1.343.672-2.937 1.008-4.781 1.008-2.5 0-4.445-.64-5.836-1.922-1.39-1.281-2.086-3.055-2.086-5.32 0-2.485 1.032-4.415 3.094-5.79 2.078-1.375 5.078-2.101 9-2.18l4.852-.14v-1.687c0-2.422-.493-4.25-1.477-5.485-.984-1.234-2.57-1.851-4.758-1.851-2.359 0-4.805.656-7.336 1.968l-.867-2.015c2.797-1.313 5.563-1.969 8.297-1.969 2.797 0 4.883.727 6.258 2.18 1.39 1.453 2.086 3.719 2.086 6.797V385h-1.711zm-9.375-1.64c2.719 0 4.859-.774 6.422-2.32 1.578-1.563 2.367-3.728 2.367-6.493v-2.508l-4.453.188c-3.578.171-6.133.734-7.664 1.687-1.516.938-2.274 2.406-2.274 4.406 0 1.594.485 2.836 1.453 3.727.985.875 2.368 1.312 4.149 1.312zm21.679 1.64h-2.32v-36.469h2.32V385zm18.844.469c-3.703 0-6.594-1.14-8.672-3.422-2.062-2.281-3.093-5.477-3.093-9.586 0-4.063 1-7.313 3-9.75 2-2.453 4.695-3.68 8.085-3.68 3 0 5.368 1.047 7.102 3.14 1.734 2.095 2.602 4.938 2.602 8.532v1.875h-18.352c.031 3.5.844 6.172 2.438 8.016 1.609 1.843 3.906 2.765 6.89 2.765 1.453 0 2.727-.101 3.82-.304 1.11-.203 2.508-.64 4.196-1.313v2.11c-1.438.625-2.766 1.046-3.985 1.265-1.218.235-2.562.352-4.031.352zm-.68-24.375c-2.453 0-4.421.812-5.906 2.437-1.484 1.61-2.351 3.938-2.601 6.985h15.75c0-2.954-.641-5.258-1.922-6.914-1.281-1.672-3.055-2.508-5.321-2.508zm32.532 17.273c0 2.281-.867 4.04-2.602 5.274-1.734 1.218-4.195 1.828-7.383 1.828-3.406 0-6.109-.524-8.109-1.57v-2.508a17.896 17.896 0 0 0 8.109 1.921c2.516 0 4.422-.414 5.719-1.242 1.313-.843 1.969-1.96 1.969-3.351 0-1.282-.524-2.36-1.57-3.235-1.032-.875-2.735-1.734-5.11-2.578-2.547-.922-4.336-1.71-5.367-2.367-1.031-.672-1.812-1.422-2.344-2.25-.515-.844-.773-1.867-.773-3.07 0-1.906.797-3.414 2.39-4.524 1.61-1.11 3.852-1.664 6.727-1.664 2.75 0 5.359.516 7.828 1.547l-.867 2.11c-2.5-1.032-4.82-1.547-6.961-1.547-2.078 0-3.727.343-4.945 1.03-1.219.688-1.828 1.642-1.828 2.86 0 1.328.468 2.39 1.406 3.188.953.797 2.805 1.687 5.555 2.672 2.296.828 3.968 1.578 5.015 2.25 1.047.656 1.828 1.406 2.344 2.25.531.843.797 1.836.797 2.976zM426.516 451l-.586-4.031h-.188c-1.281 1.64-2.601 2.804-3.961 3.492-1.343.672-2.937 1.008-4.781 1.008-2.5 0-4.445-.641-5.836-1.922s-2.086-3.055-2.086-5.32c0-2.485 1.031-4.415 3.094-5.789 2.078-1.376 5.078-2.102 9-2.18l4.851-.141v-1.687c0-2.422-.492-4.25-1.476-5.485-.985-1.234-2.57-1.851-4.758-1.851-2.359 0-4.805.656-7.336 1.969l-.867-2.016c2.797-1.313 5.562-1.969 8.297-1.969 2.797 0 4.883.727 6.258 2.18 1.39 1.453 2.086 3.719 2.086 6.797V451h-1.711zm-9.375-1.641c2.718 0 4.859-.773 6.421-2.32 1.579-1.562 2.368-3.727 2.368-6.492v-2.508l-4.453.188c-3.579.171-6.133.734-7.665 1.687-1.515.938-2.273 2.406-2.273 4.406 0 1.594.484 2.836 1.453 3.727.985.875 2.367 1.312 4.149 1.312zM454.266 451v-16.523c0-2.563-.539-4.422-1.618-5.579-1.078-1.171-2.75-1.757-5.015-1.757-3.047 0-5.281.773-6.703 2.32-1.407 1.531-2.11 4.023-2.11 7.477V451h-2.32v-25.477h1.969l.445 3.493h.141c1.656-2.657 4.601-3.985 8.836-3.985 5.781 0 8.671 3.102 8.671 9.305V451h-2.296zm19.875-25.969c1.843 0 3.437.336 4.781 1.008 1.344.672 2.547 1.82 3.609 3.445h.141a121.413 121.413 0 0 1-.141-5.789v-9.164h2.297V451h-1.523l-.586-3.891h-.188c-1.937 2.907-4.719 4.36-8.343 4.36-3.516 0-6.204-1.094-8.063-3.281-1.859-2.188-2.789-5.376-2.789-9.563 0-4.406.922-7.773 2.766-10.102 1.843-2.328 4.523-3.492 8.039-3.492zm0 2.11c-2.782 0-4.875.976-6.282 2.93-1.39 1.952-2.086 4.788-2.086 8.507 0 7.219 2.805 10.828 8.415 10.828 2.874 0 4.984-.836 6.328-2.508 1.343-1.671 2.015-4.429 2.015-8.273v-.398c0-3.938-.664-6.766-1.992-8.485-1.312-1.734-3.445-2.601-6.398-2.601zm42.632 24.328c-3.921 0-6.781-1.469-8.578-4.407h-.164l.071 1.969c.062 1.157.093 2.422.093 3.797v9.703h-2.32v-37.008h1.969l.445 3.633h.141c1.75-2.75 4.547-4.125 8.39-4.125 3.438 0 6.055 1.133 7.852 3.399 1.812 2.25 2.719 5.53 2.719 9.843 0 4.188-.953 7.438-2.86 9.75-1.89 2.297-4.476 3.446-7.758 3.446zm-.046-2.063c2.609 0 4.625-.968 6.046-2.906 1.438-1.938 2.157-4.648 2.157-8.133 0-7.484-2.703-11.226-8.11-11.226-2.968 0-5.148.82-6.539 2.46-1.39 1.626-2.086 4.282-2.086 7.969v.75c0 3.985.664 6.828 1.993 8.532 1.343 1.703 3.523 2.554 6.539 2.554zm28.031 2.063c-3.703 0-6.594-1.141-8.672-3.422-2.063-2.281-3.094-5.477-3.094-9.586 0-4.063 1-7.313 3-9.75 2-2.453 4.696-3.68 8.086-3.68 3 0 5.367 1.047 7.102 3.14 1.734 2.095 2.601 4.938 2.601 8.532v1.875H535.43c.031 3.5.843 6.172 2.437 8.016 1.61 1.844 3.906 2.765 6.891 2.765 1.453 0 2.726-.101 3.82-.304 1.11-.203 2.508-.641 4.195-1.313v2.11c-1.437.625-2.765 1.046-3.984 1.265-1.219.235-2.562.352-4.031.352zm-.68-24.375c-2.453 0-4.422.812-5.906 2.437-1.484 1.61-2.352 3.938-2.602 6.985h15.75c0-2.954-.64-5.258-1.922-6.914-1.281-1.672-3.054-2.508-5.32-2.508zm26.766-2.063a20 20 0 0 1 3.468.328l-.445 2.227a13.573 13.573 0 0 0-3.305-.399c-2.171 0-3.953.922-5.343 2.766-1.391 1.844-2.086 4.172-2.086 6.985V451h-2.321v-25.477h1.969l.235 4.594h.164c1.047-1.875 2.164-3.187 3.351-3.937 1.188-.766 2.625-1.149 4.313-1.149zm18.14 2.508h-6V451h-2.32v-23.46h-4.734v-1.36l4.734-.867v-1.97c0-3.124.57-5.413 1.711-6.866 1.156-1.47 3.039-2.204 5.648-2.204 1.407 0 2.813.211 4.219.633l-.539 2.016a12.436 12.436 0 0 0-3.726-.586c-1.813 0-3.102.539-3.868 1.617-.75 1.063-1.125 2.797-1.125 5.203v2.367h6v2.016zm25.993 10.688c0 4.156-1.008 7.406-3.024 9.75-2.015 2.328-4.797 3.492-8.344 3.492-2.234 0-4.203-.539-5.906-1.617-1.703-1.079-3.008-2.625-3.914-4.641-.906-2.016-1.359-4.344-1.359-6.984 0-4.157 1.008-7.391 3.023-9.704 2.016-2.328 4.781-3.492 8.297-3.492 3.5 0 6.242 1.18 8.227 3.54 2 2.343 3 5.562 3 9.656zm-20.11 0c0 3.5.766 6.234 2.297 8.203 1.547 1.953 3.727 2.929 6.539 2.929 2.813 0 4.985-.976 6.516-2.929 1.547-1.969 2.32-4.703 2.32-8.203 0-3.516-.781-6.243-2.344-8.18-1.547-1.938-3.726-2.906-6.539-2.906-2.812 0-4.984.968-6.515 2.906-1.516 1.922-2.274 4.648-2.274 8.18zm37.195-13.196c1.079 0 2.235.11 3.469.328l-.445 2.227a13.58 13.58 0 0 0-3.305-.399c-2.172 0-3.953.922-5.343 2.766-1.391 1.844-2.086 4.172-2.086 6.985V451h-2.321v-25.477H624l.234 4.594h.164c1.047-1.875 2.164-3.187 3.352-3.937 1.188-.766 2.625-1.149 4.312-1.149zm40.5 25.969v-16.711c0-2.484-.484-4.297-1.453-5.437-.968-1.141-2.453-1.711-4.453-1.711-2.609 0-4.539.718-5.789 2.156-1.25 1.437-1.875 3.695-1.875 6.773V451h-2.367v-17.414c0-4.297-1.969-6.445-5.906-6.445-2.672 0-4.617.78-5.836 2.343-1.219 1.547-1.828 4.032-1.828 7.454V451h-2.321v-25.477h1.922l.492 3.493h.141a7.229 7.229 0 0 1 3-2.93c1.297-.703 2.727-1.055 4.289-1.055 4.016 0 6.594 1.508 7.734 4.524h.094c.828-1.453 1.938-2.57 3.328-3.352 1.407-.781 3-1.172 4.782-1.172 2.781 0 4.867.742 6.257 2.227 1.391 1.484 2.086 3.844 2.086 7.078V451h-2.297zm26.016 0l-.586-4.031h-.187c-1.282 1.64-2.602 2.804-3.961 3.492-1.344.672-2.938 1.008-4.782 1.008-2.5 0-4.445-.641-5.835-1.922-1.391-1.281-2.086-3.055-2.086-5.32 0-2.485 1.031-4.415 3.093-5.789 2.078-1.376 5.078-2.102 9-2.18l4.852-.141v-1.687c0-2.422-.492-4.25-1.477-5.485-.984-1.234-2.57-1.851-4.757-1.851-2.36 0-4.805.656-7.336 1.969l-.868-2.016c2.797-1.313 5.563-1.969 8.297-1.969 2.797 0 4.883.727 6.258 2.18 1.391 1.453 2.086 3.719 2.086 6.797V451h-1.711zm-9.375-1.641c2.719 0 4.859-.773 6.422-2.32 1.578-1.562 2.367-3.727 2.367-6.492v-2.508l-4.453.188c-3.578.171-6.133.734-7.664 1.687-1.516.938-2.273 2.406-2.273 4.406 0 1.594.484 2.836 1.453 3.727.984.875 2.367 1.312 4.148 1.312zM726.328 451v-16.523c0-2.563-.539-4.422-1.617-5.579-1.078-1.171-2.75-1.757-5.016-1.757-3.047 0-5.281.773-6.703 2.32-1.406 1.531-2.109 4.023-2.109 7.477V451h-2.321v-25.477h1.969l.446 3.493h.14c1.656-2.657 4.602-3.985 8.836-3.985 5.781 0 8.672 3.102 8.672 9.305V451h-2.297zm20.719.469c-3.641 0-6.492-1.149-8.555-3.446-2.062-2.296-3.094-5.5-3.094-9.609 0-4.219 1.071-7.5 3.211-9.844 2.141-2.36 5.071-3.539 8.789-3.539 2.204 0 4.313.383 6.329 1.149l-.633 2.062c-2.203-.734-4.117-1.101-5.742-1.101-3.125 0-5.493.968-7.102 2.906-1.609 1.922-2.414 4.695-2.414 8.32 0 3.438.805 6.133 2.414 8.086 1.609 1.938 3.859 2.906 6.75 2.906 2.312 0 4.461-.414 6.445-1.242v2.156c-1.625.797-3.757 1.196-6.398 1.196zm22.945 0c-3.703 0-6.594-1.141-8.672-3.422-2.062-2.281-3.093-5.477-3.093-9.586 0-4.063 1-7.313 3-9.75 2-2.453 4.695-3.68 8.085-3.68 3 0 5.368 1.047 7.102 3.14 1.734 2.095 2.602 4.938 2.602 8.532v1.875h-18.352c.031 3.5.844 6.172 2.438 8.016 1.609 1.844 3.906 2.765 6.89 2.765 1.453 0 2.727-.101 3.82-.304 1.11-.203 2.508-.641 4.196-1.313v2.11c-1.438.625-2.766 1.046-3.985 1.265-1.218.235-2.562.352-4.031.352zm-.68-24.375c-2.453 0-4.421.812-5.906 2.437-1.484 1.61-2.351 3.938-2.601 6.985h15.75c0-2.954-.641-5.258-1.922-6.914-1.281-1.672-3.055-2.508-5.321-2.508zm16.266 22.078c0-1.531.625-2.297 1.875-2.297 1.281 0 1.922.766 1.922 2.297 0 1.531-.641 2.297-1.922 2.297-1.25 0-1.875-.766-1.875-2.297z" fill="#271A15"/><path d="M404.167 296.629c0 6.599-1.832 11.648-5.496 15.148-3.664 3.482-8.942 5.223-15.832 5.223h-11.184v-39.977h12.359c6.362 0 11.312 1.714 14.848 5.141 3.537 3.427 5.305 8.249 5.305 14.465zm-6.891.219c0-9.57-4.475-14.356-13.426-14.356h-5.66v29.012h4.649c9.625 0 14.437-4.886 14.437-14.656zM418.522 317h-6.426v-30.242h6.426V317zm-6.808-38.254c0-1.148.31-2.032.929-2.652.638-.62 1.541-.93 2.707-.93 1.131 0 2.006.31 2.625.93.638.62.957 1.504.957 2.652 0 1.094-.319 1.96-.957 2.598-.619.62-1.494.93-2.625.93-1.166 0-2.069-.31-2.707-.93-.619-.638-.929-1.504-.929-2.598zm41.562 8.012v3.527l-5.168.957c.474.638.866 1.422 1.176 2.352.31.93.465 1.914.465 2.953 0 3.117-1.076 5.569-3.227 7.355-2.151 1.787-5.113 2.68-8.886 2.68a14.4 14.4 0 0 1-2.625-.219c-1.386.857-2.079 1.86-2.079 3.008 0 .693.319 1.212.957 1.559.657.346 1.851.52 3.582.52h5.278c3.336 0 5.87.71 7.601 2.132 1.732 1.422 2.598 3.473 2.598 6.152 0 3.428-1.413 6.07-4.238 7.93-2.826 1.86-6.909 2.79-12.25 2.79-4.12 0-7.265-.73-9.434-2.188-2.169-1.459-3.254-3.537-3.254-6.235 0-1.86.584-3.427 1.75-4.703 1.185-1.258 2.835-2.133 4.949-2.625-.856-.364-1.567-.948-2.132-1.75-.547-.82-.821-1.677-.821-2.57 0-1.13.319-2.087.957-2.871.638-.784 1.586-1.559 2.844-2.324-1.568-.675-2.844-1.769-3.828-3.282-.966-1.531-1.449-3.317-1.449-5.36 0-3.28 1.03-5.823 3.09-7.628 2.078-1.805 5.031-2.707 8.859-2.707.857 0 1.75.064 2.68.191.948.11 1.659.228 2.133.356h10.472zm-23.762 34.945c0 1.386.62 2.452 1.86 3.2 1.258.747 3.017 1.12 5.277 1.12 3.5 0 6.107-.5 7.82-1.503 1.714-1.003 2.571-2.334 2.571-3.993 0-1.312-.474-2.251-1.422-2.816-.93-.547-2.671-.82-5.223-.82h-4.867c-1.841 0-3.309.428-4.402 1.285-1.076.875-1.614 2.05-1.614 3.527zm2.762-25.156c0 1.896.483 3.354 1.449 4.375.985 1.02 2.388 1.531 4.211 1.531 3.719 0 5.578-1.987 5.578-5.96 0-1.97-.464-3.483-1.394-4.54-.912-1.075-2.306-1.613-4.184-1.613-1.859 0-3.272.529-4.238 1.586-.948 1.057-1.422 2.597-1.422 4.62zM465.335 317h-6.426v-30.242h6.426V317zm-6.809-38.254c0-1.148.31-2.032.93-2.652.638-.62 1.54-.93 2.707-.93 1.13 0 2.005.31 2.625.93.638.62.957 1.504.957 2.652 0 1.094-.319 1.96-.957 2.598-.62.62-1.495.93-2.625.93-1.167 0-2.069-.31-2.707-.93-.62-.638-.93-1.504-.93-2.598zm27.289 33.606a15.62 15.62 0 0 0 4.703-.739v4.84c-.711.31-1.631.565-2.761.766a17.94 17.94 0 0 1-3.473.328c-6.089 0-9.133-3.208-9.133-9.625v-16.297h-4.129v-2.844l4.43-2.351 2.187-6.399h3.965v6.727h8.614v4.867h-8.614v16.188c0 1.549.383 2.697 1.149 3.445.784.729 1.804 1.094 3.062 1.094zM515.511 317l-1.286-4.21h-.218c-1.459 1.84-2.926 3.098-4.403 3.773-1.476.656-3.372.984-5.687.984-2.972 0-5.296-.802-6.973-2.406-1.659-1.604-2.488-3.874-2.488-6.809 0-3.117 1.157-5.469 3.473-7.055 2.315-1.586 5.842-2.451 10.582-2.597l5.222-.164v-1.614c0-1.932-.456-3.372-1.367-4.32-.893-.966-2.288-1.45-4.184-1.45-1.549 0-3.035.229-4.457.684a33.644 33.644 0 0 0-4.101 1.614l-2.078-4.594c1.64-.857 3.436-1.504 5.386-1.941 1.951-.456 3.792-.684 5.524-.684 3.846 0 6.745.839 8.695 2.516 1.969 1.677 2.953 4.31 2.953 7.902V317h-4.593zm-9.571-4.375c2.334 0 4.202-.647 5.606-1.941 1.422-1.313 2.133-3.145 2.133-5.496v-2.625l-3.883.164c-3.026.109-5.232.62-6.617 1.53-1.368.894-2.051 2.27-2.051 4.13 0 1.349.401 2.397 1.203 3.144.802.73 2.005 1.094 3.609 1.094zM535.499 317h-6.426v-42.547h6.426V317zm49.246 0h-6.453v-18.648c0-2.315-.438-4.038-1.313-5.168-.875-1.149-2.242-1.723-4.101-1.723-2.479 0-4.302.811-5.469 2.434-1.148 1.604-1.723 4.283-1.723 8.039V317h-6.425v-30.242h5.031l.902 3.965h.328c.839-1.44 2.051-2.552 3.637-3.336 1.604-.784 3.363-1.176 5.277-1.176 4.649 0 7.73 1.586 9.243 4.758h.437c.893-1.495 2.151-2.662 3.773-3.5 1.623-.839 3.482-1.258 5.579-1.258 3.609 0 6.234.911 7.875 2.734 1.658 1.823 2.488 4.603 2.488 8.34V317h-6.426v-18.648c0-2.315-.447-4.038-1.34-5.168-.875-1.149-2.242-1.723-4.101-1.723-2.498 0-4.33.784-5.496 2.352-1.149 1.549-1.723 3.937-1.723 7.164V317zm46.976 0l-1.285-4.21h-.218c-1.459 1.84-2.926 3.098-4.403 3.773-1.476.656-3.372.984-5.687.984-2.972 0-5.296-.802-6.973-2.406-1.659-1.604-2.488-3.874-2.488-6.809 0-3.117 1.157-5.469 3.472-7.055 2.316-1.586 5.843-2.451 10.582-2.597l5.223-.164v-1.614c0-1.932-.456-3.372-1.367-4.32-.893-.966-2.288-1.45-4.184-1.45-1.549 0-3.035.229-4.457.684a33.58 33.58 0 0 0-4.101 1.614l-2.078-4.594c1.64-.857 3.436-1.504 5.386-1.941 1.951-.456 3.792-.684 5.524-.684 3.846 0 6.745.839 8.695 2.516 1.969 1.677 2.953 4.31 2.953 7.902V317h-4.594zm-9.57-4.375c2.334 0 4.202-.647 5.606-1.941 1.422-1.313 2.132-3.145 2.132-5.496v-2.625l-3.882.164c-3.026.109-5.232.62-6.618 1.53-1.367.894-2.05 2.27-2.05 4.13 0 1.349.401 2.397 1.203 3.144.802.73 2.005 1.094 3.609 1.094zm38.473-26.414c1.294 0 2.361.091 3.199.273l-.629 5.989a12.138 12.138 0 0 0-2.844-.328c-2.57 0-4.657.838-6.261 2.515-1.586 1.677-2.379 3.856-2.379 6.535V317h-6.426v-30.242h5.031l.848 5.332h.328c1.003-1.805 2.306-3.236 3.91-4.293 1.623-1.057 3.363-1.586 5.223-1.586zm15.039 14.82l3.637-4.539 9.132-9.734h7.411l-12.168 12.988L696.608 317h-7.547l-9.707-13.262-3.527 2.899V317h-6.371v-42.547h6.371v20.754l-.328 5.824h.164zm39.047 16.516c-4.703 0-8.386-1.367-11.047-4.102-2.643-2.752-3.965-6.535-3.965-11.347 0-4.94 1.231-8.823 3.691-11.649 2.461-2.825 5.843-4.238 10.145-4.238 3.992 0 7.146 1.212 9.461 3.637 2.315 2.424 3.473 5.76 3.473 10.007v3.473h-20.153c.091 2.935.884 5.195 2.379 6.781 1.495 1.568 3.6 2.352 6.317 2.352 1.786 0 3.445-.164 4.976-.492 1.55-.347 3.208-.912 4.977-1.696v5.223a19.737 19.737 0 0 1-4.758 1.586c-1.604.31-3.436.465-5.496.465zm-1.176-26.469c-2.042 0-3.682.647-4.922 1.942-1.221 1.294-1.95 3.18-2.187 5.66h13.726c-.036-2.498-.638-4.384-1.805-5.66-1.166-1.295-2.77-1.942-4.812-1.942zm31.5 21.274c1.568 0 3.135-.246 4.703-.739v4.84c-.711.31-1.631.565-2.762.766a17.954 17.954 0 0 1-3.472.328c-6.089 0-9.133-3.208-9.133-9.625v-16.297h-4.129v-2.844l4.43-2.351 2.187-6.399h3.965v6.727h8.613v4.867h-8.613v16.188c0 1.549.383 2.697 1.148 3.445.784.729 1.805 1.094 3.063 1.094zM762.233 317h-6.426v-30.242h6.426V317zm-6.808-38.254c0-1.148.31-2.032.929-2.652.638-.62 1.541-.93 2.707-.93 1.131 0 2.006.31 2.625.93.638.62.957 1.504.957 2.652 0 1.094-.319 1.96-.957 2.598-.619.62-1.494.93-2.625.93-1.166 0-2.069-.31-2.707-.93-.619-.638-.929-1.504-.929-2.598zM798.054 317H791.6v-18.594c0-2.333-.474-4.074-1.421-5.222-.93-1.149-2.416-1.723-4.458-1.723-2.716 0-4.703.802-5.96 2.406-1.258 1.604-1.887 4.293-1.887 8.067V317h-6.426v-30.242h5.031l.903 3.965h.328c.911-1.44 2.206-2.552 3.883-3.336 1.677-.784 3.536-1.176 5.578-1.176 7.255 0 10.883 3.691 10.883 11.074V317zm34.48-30.242v3.527l-5.168.957c.474.638.866 1.422 1.176 2.352.31.93.465 1.914.465 2.953 0 3.117-1.076 5.569-3.227 7.355-2.151 1.787-5.113 2.68-8.887 2.68-.966 0-1.841-.073-2.625-.219-1.385.857-2.078 1.86-2.078 3.008 0 .693.319 1.212.957 1.559.657.346 1.851.52 3.582.52h5.278c3.336 0 5.869.71 7.601 2.132 1.732 1.422 2.598 3.473 2.598 6.152 0 3.428-1.413 6.07-4.238 7.93-2.826 1.86-6.909 2.79-12.25 2.79-4.12 0-7.265-.73-9.434-2.188-2.169-1.459-3.254-3.537-3.254-6.235 0-1.86.583-3.427 1.75-4.703 1.185-1.258 2.835-2.133 4.949-2.625-.856-.364-1.567-.948-2.133-1.75-.546-.82-.82-1.677-.82-2.57 0-1.13.319-2.087.957-2.871.638-.784 1.586-1.559 2.844-2.324-1.568-.675-2.844-1.769-3.828-3.282-.966-1.531-1.449-3.317-1.449-5.36 0-3.28 1.03-5.823 3.089-7.628 2.079-1.805 5.032-2.707 8.86-2.707.857 0 1.75.064 2.68.191.947.11 1.658.228 2.132.356h10.473zm-23.762 34.945c0 1.385.62 2.452 1.86 3.2 1.257.747 3.017 1.12 5.277 1.12 3.5 0 6.107-.5 7.82-1.504 1.714-1.002 2.571-2.333 2.571-3.992 0-1.312-.474-2.251-1.422-2.816-.93-.547-2.671-.82-5.223-.82h-4.867c-1.841 0-3.309.428-4.402 1.285-1.076.875-1.614 2.05-1.614 3.527zm2.762-25.156c0 1.896.483 3.354 1.449 4.375.985 1.02 2.388 1.531 4.211 1.531 3.719 0 5.578-1.987 5.578-5.96 0-1.97-.465-3.483-1.394-4.54-.912-1.075-2.306-1.613-4.184-1.613-1.859 0-3.272.528-4.238 1.586-.948 1.057-1.422 2.597-1.422 4.62z" fill="#212529"/><path d="M1228.99 570.668C690.658 601.782 210.7 684.304-159 801.323l1387.99.002V570.668z" fill="#EF4631"/><path d="M1229 634.925c-516.713 13.527-992.348 73.051-1381.5 166.396l1381.5.002V634.925z" fill="#12ABE3"/><path d="M1229 704.597c-38.916-.676-77.831-.676-116.747-.676-441.043-.001-856.143 35.172-1217.193 98.078L1229 802v-97.404z" fill="#2EB349"/><path d="M1229 764.798a7969.025 7969.025 0 0 0-428.072-11.5c-311.325 0-607.518 16.91-884.248 48.024l1312.32.002v-36.526z" fill="#FFCD30"/><path d="M971.877 132.816c1.257-2.098 2.095-4.196 2.095-6.714 0-7.133-5.864-13.008-12.984-13.008-3.351 0-6.283 1.259-8.796 3.357-3.351-5.035-8.796-8.812-15.497-8.812-3.77 0-7.121 1.26-10.053 2.937-1.675-15.525-14.659-27.694-30.575-27.694-11.309 0-20.942 5.875-26.387 14.687-2.513-1.26-5.445-2.098-8.377-2.098-10.052 0-18.01 8.392-18.01 18.462 0 2.938.837 5.875 2.094 8.392h-2.094c-13.403 0-24.293 10.91-24.293 24.338C819 160.09 829.89 171 843.293 171H967.27c10.471 0 19.267-8.812 19.267-19.302.419-9.231-6.283-17.204-14.66-18.882zm198.66-35.597c1.039-3.106 2.078-6.21 2.078-9.834 0-14.49-11.949-26.394-26.496-26.394-2.078 0-4.675.517-6.753 1.035 1.039-3.105 1.558-6.728 1.558-10.35 0-19.15-15.585-34.676-34.807-34.676-15.586 0-28.573 10.35-33.25 24.324-4.155-4.14-9.87-6.728-16.104-6.728-12.468 0-22.34 9.834-22.34 22.255 0 1.552 0 3.622.52 5.175-16.624 2.588-28.573 16.561-28.573 33.64 0 19.149 15.585 34.158 34.288 34.158h125.722c9.352 0 16.625-7.246 16.625-16.562 0-7.763-5.195-13.973-12.468-16.043z" fill="#12ABE3" fill-opacity=".11"/><path d="M91.243 65.226c1.6-1.534 3.755-1.511 5.732-2 5.087-1.29 10.219-.867 15.306-.178 3.266.444 6.376 1.445 9.308 3.312 2.044 1.289 4.599 1.822 6.576 3.4 2.31 1.868 5.065 3.223 6.776 5.802.555.844 1.266 1.6.822 2.734-.245.622.088 1.222.533 1.578 3.288 2.823 4.865 6.668 6.687 10.446 2.754 5.668 3.843 11.803 5.709 17.738 1.022 3.267-.044 6.645-1.222 9.802-1.155 3.111-2.132 6.312-3.599 9.29-1.31 2.623-2.999 5.113-4.82 7.447-3.022 3.845-5.999 7.824-10.42 10.246-.133-1.378 1.022-1.778 1.867-2.445 1.021-.822 2.088-1.467 2.843-2.734 1.689-2.822 3.244-5.69 4.799-8.58 1.577-2.955 1.755-6.6 5.242-9.223-1.31.222-1.732.31-2.288.4.578-.712 1.067-1.312 1.533-1.89.511-.644 1.022-1.311 1.6-2.022-.956 0-2.266 1.155-2.577-.378-.267-1.29 1.155-.734 1.866-.934.51-.133.955-.355 1.2-.844.155-.29.133-.934-.112-.845-1.844.711-1.732-1.245-2.577-1.734-2.021-1.178-2.643-2.333-1.355-4.467.489-.823.6-2.023-.178-2.823-.577-.6-.51-1.09-.022-1.467.867-.667.356-.622-.155-1.267-.978-1.2-1.733-2.978-.844-4.512.822-1.378 1.11 1.245 2.088.556-1.577-4.913-1.866-5.446-3.31-6.157.244 1.8-.045 1.511-1.644 3.156-1.577 1.6-1.777-.822-2.733-.49.356-2.977-2.577-4.067-3.62-6.267-.712-1.512-1.889-2.8-2.867-4.201-.11 1.69-1.221 3.379.556 4.468.422.266 0 .933-.133 1.422-.223.845-.378 1.8.244 2.4 1.755 1.69.933 3.201-.222 4.624-1.111 1.378-1.777 2.734-1.355 4.556.644 2.823-.045 5.135-2.688 6.69-1.222.734-1.644 1.846-.667 3.157 0 .067 0 .156.022.222-.022-.066-.022-.155-.044-.222 1.377-.956 2.777-1.934 4.154-2.89h-.022c.466.778-.044 1.179-.578 1.668-1.91 1.822-3.22 4.067-4.887 6.468 3.377-.267 4.065-3.379 6.043-4.69 1 .555-.622 1.133.133 1.511.355.178 1.11-.8 1.31.289.134.667-.444 1.29-.955 1.334-2.554.2-2.666 2.467-3.51 4.045-.444.822-1.044 1.445-1.555 2.178-1.644 2.334-4.865 3.023-5.954 5.957 3.244-1.156 8.087-5.312 9.753-8.202.822-1.422 1.155-3.445 3.577-3.2.244.022.822-.534.822-.8-.111-2.268 2.51-2.779 2.954-4.69.067-.334.667-.534 1.089-.29.444.245.355.667.333 1.112-.289 4-.8 7.957-2.577 11.625-.6 1.267.356 2.556-.755 4.045-2.244 3.045-4.199 6.201-7.642 8.113-.8.444-1.844.844-2.177 2.29 3.62-1.801 6.442-4.335 10.285-6.647-1.688 2.067-2.71 3.757-3.51 5.58-.266.577-.6 1.133-1.222 1.133-2.443-.045-4.11 1.845-5.287 3.245-1.8 2.09-3.754 3.779-6.153 4.801-1.378.578-3.066 1.867-4.421 1.223-2.488-1.156-4.488-.29-6.51.733-.733.378-1.132.533-1.999.356-.688-.156-2.355-1.134-2.421.933-.022 1.312-.222 2.756 1.866 2.423.733-.111 1.555.022 2.244-.222 4.11-1.467 8.552-.8 12.685-1.956.11-.023.266.177.4.289-3.488 2.445-7.62 2.956-11.62 3.067-6.22.155-12.44 0-18.327-2.89-4.243-2.089-8.042-4.69-11.263-8.023-1.333-1.4-1.355-3.824-2.844-5.402-2.888-3.023-4.065-7.046-5.998-10.624-.155-.29-.2-.845-.4-.89-4.598-1.266-3.865-5.623-4.754-8.734-1.555-5.446-1.955-11.136-.8-16.782 1.445-7.046 4.421-13.403 8.865-19.07.91-1.156 1.466-2.69 3.02-3.29-.755 2.623-2.287 4.979-3.71 7.157-1.865 2.845-2.776 5.846-3.665 8.957-.266.912-.555 2.112 1.111 2.534.6.156 1.489 1.69 1.022 2.067-2.333 1.779-1.155 4.424-1.733 6.602-.089.355-.888 1.778.245 2.49 2.11 1.333-.223 1.11-.69 1.733.778.778 1.867 1.4 1.978 2.645-.51.822-1.333-.822-1.644.2-.2.622.422.911 1 1.222 1.377.756 1.844 1.912.089 2.579-.933.355-.911.911-.978 1.467-.155 1.2.978.822 1.577 1.133-.444.356-1.4.867-1.155 1.156 1.4 1.8 1.111 4.601 3.421 5.868-1.821-2.023-.822-4.934-2.266-7.046 1.556.178 2.977 2.067 2.31 3.312-.399.756-.31 1.2.09 1.8.955 1.356 1.666 3.023 2.932 4.001 1.222.934 2.066 3.223 4.332 2.045h.022c1.267.89 2.533 1.756 3.8 2.667.51.378 1.043.623 1.576.178.622-.533.09-1.022-.155-1.534-.489-.91-1.6-1.555-1.333-2.822h.022c1.822 1.244 3.932 1.756 6.043 2.245.933.2 1.91.533 2.51-.445.378-.6.733-1.578.267-2.112-.6-.71-1.444-1.044-2.644-.578-1.533.6-5.02-1.844-5.576-3.556 2.555.067 5.132 1.178 7.82.223-.222-.312-.267-.512-.4-.556-2.621-1.023-5.643-1.245-7.509-3.89-.644-.934-.71.578-1.066.622-.889.134-1.489 1.134-2.422.867-.288-.089-.688-.711-.6-.978.29-.956 1.067-1.378 2.044-1.578 1.622-.333.534-1.111.178-1.69-1.177-1.888-2.799-3.555-3.199-5.778 2.155.2 3.888 1.133 5.198 2.845.134.178.445.356.667.333 3.732-.422 5.887 3.179 9.286 3.601 1.288.156 2.932 1.378 2.8-1.289-.068-1.356 1.576-1.378 1.687-1.311 1.955 1.066 3.6-.778 5.421-.467.955.178 1.622-.156 2.244-.89-1.422-.4-2.688-2.178-4.288-.177-.222.267-1.266-.089-1.933-.222-.822-.156-1.621-.423-2.443-.512-.6-.066-1.31.645-1.755-.266-.222-.49-.178-1 .289-1.356.6-.49 1.221-1 1.932-.156v.2c0-.066-.022-.133-.022-.2 3.71-.6 6.287-3.045 8.708-5.623.69-.734.933-1.934 1.222-2.979.2-.777-.91-1.155-1-.91-.577 1.51-2.51.666-3.11 1.955.09.8 1.222-.022 1.289.8.022.467-.333.69-.71.912-3.022 1.889-7.22 1.089-9.731 4.178-.134.156-.667.067-.978-.022-2.332-.778-4.754-.978-6.753-2.978-1.089-1.09-1.222-3.045-3.11-3.423-.378-.067-.311-.734.089-1.045.355-.289.777-.267 1.177-.067.644.334.267 1.356 1.066 1.6 2.355-2.511 2.622-2.511 3.51-.022-1.044.112-3.02-.533-2.31 1.379.266.666 1.288 2.4 2.843 2.6.378.045.978.422.934-.244-.09-1.4.888-.956 1.6-1.223.932-.378 2.22-.778 1.332-2.356-.311-.533-.333-1.067.578-1.29 1.444-.333 1.999-1.622 2.776-2.733-3.932-.178-.51-2.467-1.044-3.712-.466-1.067.845-1.867 2.11-1.756.823.067 1.622.422 2.444.556.6.11 1.267.11.978-.867-.333-1.156-3.821-2.445-4.799-1.778-1.599 1.067-2.776 2.734-5.109 3.8 1.066-3.022 4.487-4.8 2.688-8.112-1.089.2-1.333 1.356-2.022 2.045-.622.6-1.244.578-1.799.133-.6-.467.178-.822.267-1.245.422-1.8 2.088-2.511 3.154-3.734 1.466-1.69 1.844-4.6 4.91-4.6.177 0 .444-.29.51-.512.49-1.578 1.49-1.111 2.511-.711.844.333 1.733.622 2.6.911.555.2 1.221.533 1.665.111.6-.556-.11-1.045-.377-1.511-.711-1.245-.2-1.49.977-1.334.467.067.911.578 1.6-.044-1.333-2.067-4.177-1.378-5.62-3.045v.022c.688-.378 1.288-1.245 2.176-.356.29.267.689.711 1 .178.155-.267.089-.911-.133-1.134-.49-.51-1.133-.889-2.022-1.533 2.6-.49 4.265-1.823 4.799-4.29.044-.178.377-.29.6-.445h-.023c.378.645.755 1.267 1.422 2.356-.6-4.09-4.243-6.445-8.064-5.512-2.155.534-4.399.756-6.465 1.8-1.444.645-3.043.845-4.332-.422zm31.146 66.303c-.133.29-.2.667-.422.845-4.443 3.312-9.264 5.89-14.684 7.201-1.022.245-1.955.534-3.022 1.223 8.775 1.222 20.705-7.068 22.149-12.958-.311.266-.689.555-1.066.866.31-2.2 1.821-3.734 3.065-5.4.334-.445.734-1.09.156-1.534-.355-.267-1.044-.134-1.355.31-1.178 1.623-3.577 2.468-3.11 5.113.089.467-.378 1.022-.667.911-1.955-.755-2.443 1.112-3.443 1.934-1.733 1.467-3.954 1.912-5.843 3.067-.422.267-1.044.334-.844 1 .178.645.755.556 1.266.49 2.31-.312 4.577-.778 6.043-2.868.489-.689 1.044-1.044 1.777-.2zm-6.065-38.275c.511 4.335.6 8.18-.2 12.025-.133.623-1.266 1.334-.044 1.8.777.29 1.244-.6 1.666-1.244 2.577-4.112 2.222-8.246-1.422-12.58zm2.533 14.492c-2.466 1.734-4.91 3.446-7.376 5.18 2.822-1.179 5.62-2.357 7.376-5.18zm1.577-1.489a4.505 4.505 0 0 0-.244-.733c0-.023-.356.022-.422.11-.134.267-.2.556-.311.845.155-.044.31-.066.977-.222zm-53.25-6.312c.022-.045.089-.111.067-.156-.023-.044-.09-.089-.134-.133-.044.089-.089.155-.133.244.067.022.133.022.2.045z" fill="#FFCD30"/><path d="M69.028 118.838c-.6-.29-1.733.066-1.577-1.134.066-.533.022-1.111.977-1.467 1.755-.667 1.31-1.822-.089-2.578-.555-.311-1.177-.6-1-1.223.312-1.022 1.134.623 1.644-.2-.11-1.245-1.2-1.867-1.977-2.645.445-.622 2.8-.4.689-1.733-1.133-.712-.333-2.112-.244-2.49.577-2.178-.6-4.8 1.732-6.601.467-.356-.422-1.912-1.021-2.067-1.667-.423-1.378-1.623-1.111-2.534.888-3.112 1.8-6.113 3.665-8.958 1.422-2.178 2.955-4.512 3.71-7.157 4.532-5.69 10.175-9.913 16.817-12.87 1.31 1.268 2.888 1.068 4.221.379 2.066-1.045 4.31-1.29 6.465-1.8 3.843-.934 7.464 1.422 8.064 5.511-.666-1.089-1.044-1.733-1.422-2.356 0-.066-.022-.155-.022-.222.022.067.022.156.044.222-.2.156-.555.267-.6.445-.555 2.467-2.221 3.8-4.798 4.29.889.644 1.533 1.022 2.022 1.533.222.223.288.867.133 1.134-.311.533-.71.111-1-.178-.91-.867-1.488-.022-2.177.356-1.977-2.2-2.666-2.2-4.998.066 1.71.134 3.376 1.467 5.02-.11 1.467 1.666 4.31.977 5.62 3.045-.688.6-1.132.088-1.599.044-1.177-.156-1.688.089-.977 1.333.266.467.977.956.377 1.512-.444.422-1.11.089-1.666-.111-.866-.311-1.755-.578-2.599-.911-1.044-.423-2.044-.867-2.51.71-.067.2-.333.512-.511.512-3.088 0-3.443 2.912-4.91 4.601-1.066 1.223-2.732 1.934-3.154 3.734-.09.422-.867.756-.267 1.245.556.444 1.178.467 1.8-.133.71-.69.933-1.845 2.021-2.045 1.8 3.311-1.621 5.09-2.688 8.112 2.355-1.089 3.51-2.733 5.11-3.8 1-.667 4.487.622 4.798 1.778.289.978-.378.978-.977.867-.822-.134-1.622-.49-2.444-.556-1.266-.111-2.555.689-2.11 1.756.533 1.245-2.888 3.512 1.044 3.712-.778 1.111-1.333 2.4-2.777 2.734-.911.2-.867.733-.578 1.289.889 1.578-.4 1.978-1.333 2.356-.688.267-1.688-.178-1.6 1.222.045.69-.555.29-.932.245-1.555-.2-2.577-1.934-2.844-2.6-.733-1.89 1.244-1.268 2.31-1.379-.888-2.49-1.155-2.49-3.51.023-.8-.245-.422-1.267-1.066-1.6-.4-.223-.822-.223-1.177.066-.4.311-.467.956-.09 1.044 1.89.356 2.023 2.334 3.111 3.423 2 2 4.443 2.2 6.754 2.979.31.111.844.178.977.022 2.533-3.09 6.709-2.29 9.73-4.179.378-.244.756-.444.711-.91-.066-.823-1.177.021-1.288-.801.6-1.29 2.532-.445 3.11-1.956.089-.267 1.2.133 1 .911-.29 1.045-.534 2.245-1.222 2.979-2.422 2.578-4.999 5.023-8.709 5.623h.023c-.711-.845-1.333-.333-1.933.156-.467.378-.511.889-.289 1.356.444.91 1.155.222 1.755.266.822.09 1.622.356 2.444.511.666.112 1.71.49 1.932.223 1.6-1.978 2.866-.223 4.288.178-.622.733-1.288 1.044-2.244.889-1.8-.312-3.465 1.533-5.42.466-.111-.066-1.755-.066-1.689 1.312.134 2.667-1.51 1.445-2.799 1.289-3.421-.422-5.576-4.023-9.286-3.6-.2.021-.533-.156-.666-.334-1.311-1.712-3.044-2.667-5.199-2.845.4 2.222 2.022 3.89 3.2 5.779.355.578 1.443 1.333-.178 1.689-.978.2-1.755.622-2.044 1.578-.067.267.31.89.6.978.933.267 1.533-.733 2.421-.867.356-.044.422-1.556 1.066-.622 1.867 2.645 4.866 2.867 7.51 3.89.11.044.177.244.4.555-2.711.934-5.266-.155-7.82-.222.555 1.711 4.043 4.134 5.575 3.556 1.2-.466 2.022-.133 2.644.578.467.534.111 1.512-.267 2.112-.622.956-1.6.644-2.51.444-2.11-.489-4.22-1-6.042-2.245 0-.088.022-.2.022-.289-.022.09-.045.2-.067.29-.244 1.266.844 1.889 1.333 2.822.267.49.778 1 .156 1.534-.534.444-1.067.2-1.578-.178-1.244-.911-2.532-1.778-3.799-2.667v-.667h-.222c.067.222.134.445.2.645-2.266 1.155-3.11-1.112-4.332-2.045-1.266-.956-1.977-2.645-2.932-4.001-.4-.578-.511-1.045-.09-1.8.667-1.223-.754-3.135-2.31-3.312l.045.089zm11.085-11.47c-.555.223-.933-.933-1.466-.266-.333.422.045.933.333 1.333.29.378.622.934 1.156.49.533-.445.288-1.045-.023-1.557 0-.088-.022-.155-.022-.244 0 .067 0 .156.022.244zm11.241-24.05c-.577-.644-1.133-.4-1.666.134-1.666 1.734-3.399 3.445-4.998 5.268-1.156 1.312-1.355 3.023-1.4 4.69-.022.356.178.956.444 1.067.556.244.867-.245 1.089-.734 1.622-3.423 3.421-6.757 6.531-9.09.644-.467.267-.867 0-1.334zm31.657 29.762c-.977-1.31-.555-2.422.667-3.155 2.666-1.578 3.332-3.868 2.688-6.69-.422-1.823.244-3.201 1.355-4.557 1.155-1.423 1.977-2.934.222-4.623-.622-.6-.466-1.556-.244-2.4.133-.468.577-1.135.133-1.423-1.777-1.112-.666-2.779-.555-4.468.977 1.4 2.155 2.69 2.865 4.2 1.045 2.201 3.977 3.29 3.622 6.269.955-.334 1.133 2.09 2.732.489 1.622-1.645 1.91-1.356 1.644-3.156 1.444.71 1.733 1.244 3.31 6.156-.955.667-1.266-1.933-2.088-.555-.911 1.533-.133 3.312.844 4.512.51.644 1.022.578.156 1.267-.49.378-.556.867.022 1.467.777.822.666 2 .177 2.823-1.288 2.111-.666 3.29 1.356 4.467.844.49.733 2.445 2.577 1.734.244-.089.266.533.11.845-.244.489-.688.689-1.199.844-.71.2-2.133-.355-1.866.934.31 1.533 1.622.378 2.577.378-.556.71-1.067 1.378-1.6 2.022-.466.578-.955 1.178-1.532 1.89.555-.09.977-.178 2.288-.4-3.466 2.622-3.644 6.267-5.243 9.224-1.555 2.89-3.11 5.756-4.799 8.58-.755 1.266-1.821 1.91-2.843 2.733-.822.667-2 1.067-1.866 2.445-3.221 2.178-6.132 4.868-10.042 5.89-.133-.089-.31-.31-.4-.289-4.154 1.156-8.575.49-12.684 1.956-.69.245-1.489.09-2.244.223-2.11.31-1.91-1.134-1.866-2.423.044-2.09 1.733-1.09 2.421-.934.844.178 1.244.045 2-.355 2.021-1.023 4.02-1.89 6.509-.734 1.355.645 3.043-.644 4.42-1.222 2.4-1.023 4.355-2.712 6.154-4.801 1.2-1.378 2.844-3.29 5.287-3.245.645.022.978-.556 1.222-1.134.8-1.8 1.822-3.49 3.51-5.579-3.82 2.312-6.664 4.868-10.285 6.646.333-1.423 1.377-1.845 2.177-2.29 3.443-1.911 5.398-5.09 7.642-8.112 1.11-1.49.133-2.779.755-4.046 1.777-3.667 2.288-7.624 2.577-11.624.022-.445.111-.867-.333-1.112-.444-.244-1.022-.044-1.089.29-.444 1.91-3.065 2.422-2.954 4.69.022.266-.556.844-.822.8-2.4-.245-2.755 1.777-3.577 3.2-1.688 2.89-6.51 7.046-9.752 8.202 1.088-2.934 4.31-3.623 5.953-5.957.511-.734 1.11-1.356 1.555-2.178.844-1.578.956-3.868 3.51-4.046.489-.044 1.089-.644.956-1.333-.2-1.09-.978-.111-1.311-.29-.756-.377.844-.955-.134-1.51-1.977 1.289-2.665 4.4-6.042 4.69 1.666-2.401 2.977-4.646 4.887-6.469.511-.489 1.044-.889.578-1.667.577-.444 1.377-.689 1.422-1.622-.844.2-2.022.089-1.4 1.622-1.377.956-2.777 1.934-4.154 2.89l.044.022zm26.703 62.77c2.422-.09 3.932 1.822 5.865 2.778.733.356.2 1.356 0 2.09-.31 1.244-.889.177-1.31.133-1.422-.111-2.666.644-4.177.555-4.488-.266-7.353-3.134-10.308-5.912-2.532-2.378-5.065-4.779-7.398-7.357-3.332-3.69-7.109-7.135-7.864-12.514-.222-1.6.556-2.645 1.577-3.512.822-.711.845-2.823 2.8-1.778.133.067.377.111.488.022 2.71-1.911 5.243.045 7.798.49 3.132.533 4.887 3.333 7.02 5.245 3.399 3.045 6.265 6.735 9.752 9.758 1.444 1.244.378 2.933 1.133 4.245-1.11.622-2.221.911-3.554.733-1.377-.155-2.777-1.089-3.999 1.2-.777 1.468-.755 1.29.489 1.712.933.334 1.177 1.378 1.733 2.09-.445.4-1.266.71-.6 1.533.289.356.866.356 1.089.067.577-.69-.311-1.045-.534-1.578zm3.221-7.535c-.866-.245-1.621-.29-2.221-.645-.91-.533-2.133-.644-2.533-1.978-.844-2.823-4.243-4.868-7.664-4.534 3.177 2.622 6.154 5.156 9.197 7.624 1.022.8 2.11.955 3.222-.467zM52.522 90.876c.089.4.044.911.267 1.223 1.421 1.867.133 2.333-1.333 3.022-1.111.512-3.421-1.289-3.288 1.645-.667-.089-1.4-.022-1.955-.31-6.487-3.58-13.485-6.113-19.838-9.959-2.422-1.444-4.132-3.556-5.932-5.579-.044-.066-.11-.133-.133-.2-.955-1.689.466-8.38 1.977-8.246 2.2.2 3.732-1.422 6.087-1 4.154.778 7.264 3.045 10.486 5.312 1.8 1.267 4.243 1 5.842 2.712.422.467 1.089.711 1.333 1.4-.977.89-1.91-.933-2.954.29 2.82 1.955 5.931 3.422 8.93 5.045 1.177.644 2.422 1.2 3.51 1.978.667.467 1.244 1.289.867 2.2-.423.978-1.311.578-1.978.356-.71-.222-1.288-.289-1.888.2-.444-.734-1.022-.711-1.644-.289-.044.044.045.49.178.6.577.422 1.022-.022 1.466-.4zM69.45 65.004c2.71 2.178.71 4.979-.6 7.557-1.244 2.445-3.754 2.423-6.287 2.6-5.465.423-8.042-3.6-11.419-6.579-2.888-2.556-4.998-5.8-7.93-8.268-1.111-.934-1.8-2.045-1.978-3.623-.31-2.89-.266-5.69.756-8.446.688-1.845 3.799-3.157 5.554-2.179 1.31.734 2.776.09 4.198 1.045 3.177 2.156 5.42 5.157 8.02 7.824 2.377 2.445 3.977 5.646 7.309 7.202.8.377 1.266 1.511 2.377 2.867zM54.41 61.18c-.333-.467-.6-.534-.977-.534-1.333-.044-3.133.2-1.578-2.089.067-.089-.044-.378-.066-.378-1.489 0-2.488-1.467-3.866-1.445-1.177.023-1.888 1.067-1.155 2.156 1.844 2.801 3.71 5.624 5.887 8.158.8.933 1.977 1.267 2.377 2.845.333 1.289 2 1.734 3.555 1.4.977-.2 1.799-.8 1.51-1.6-.444-1.312-.2-3.245-2.266-3.601-.777-.133-1.177-.578-1.6-1.311-.688-1.245-2.487-1.845-1.82-3.601zm85.596-24.271c1.222 2.023 1.022 4.623-.844 6.69-1.2 1.334-1.844 2.756-1.933 4.846 2.044-1.4 2.688-3.868 5.02-5.424-.71 2.29-1.71 4.09-.644 6.046 1.267-.667 2.689-1.2 3.866-2.067.977-.734 1.844-.867 2.688-.2 1 .778.6 1.978.067 2.734a689.511 689.511 0 0 1-10.553 14.825c-.955 1.29-3.22 1.6-3.798 1.045-1.533-1.445-2.2-.111-3.2.356-.821.377-1.666.777-2.51 1.133-.488.2-1.066 1-1.466-.244-.2-.623-1.266-.823-.622-1.89 1.177-2 2-4.245 3.643-5.979.645-.667 1.2-1.378.445-2.156-.889-.911-1.755.045-2.044.645-.8 1.69-3.6 2.423-2.377 5.179.244.533-.711 1.956-1.444 2.4-.622.378-1.822.09-2.533-.578-.866-.8-.688-1.845-.4-2.823.2-.733.534-1.422 1.222-1.844h-.044c1.733-.534.333-1.712.11-2.023-.666-.911-.643-1.578-.066-2.445 2.466-3.734 5.11-7.38 6.687-11.625.244-.689 1.222-1.089 1.866-1.622h-.044c.11.289.2.867.533.622 2.932-2.245 5.687-4.69 7.553-7.957.4-.711.644-1.845 1.622-1.334.71.378.355 1.534.177 2.312-.11.533-.4 1.111-1 1.378l-.133-.045.156.045zm-7.687 19.96l.134-.178-.2.044.066.134zm-20.571-3.934c-1.71 1.644-3.31 3.645-5.354 4.956-.8.511-2.71.511-3.932-.667-2.2-2.133-3.132-4.756-2.621-7.668 1.044-5.934 2.31-11.847 3.576-17.76.2-.888-.222-1.6-.155-2.444.155-2.734 2.021-4.623 3.221-6.802.644-1.178 7.664-2.956 8.864-2.467 1.866.756 1.2 2.8 1.888 4.179.222.467-.6 1.422.8.933 1.178-.422.71.534.866.934 1.356 3.356.49 6.646-.577 9.802-1.31 3.89-1.644 8.002-2.955 11.891-.688 2.068-.955 4.312-3.62 5.113zm4.91-19.382c-1.422 1.133-1.333 2.756-1.71 4.8 1.976-1.533 1.799-3.178 1.687-4.8.267-.267.645-.49.29-.934-.045-.044-.178-.066-.223-.044-.489.289-.222.644-.044.978zm-1.71-11.358c-1.178-.311-2.489-1.067-3.422-.756-.778.267-2.377 1.29-1.333 2.934.689 1.09-.266 1.445-.866 1.978-.467.422-1.422.534-1.244 1.378.2.956.866.667 1.555.423.577-.2.51.333.577.755.333 1.845-.066 3.601-.688 5.313-.334.889-1.822 1.689.088 2.533.534.245.156.934.09 1.356-.2 1.667-.334 3.334-.778 4.957-.178.644-.844 2 .622 2.222 1.088.156 1.821-.4 2.066-1.689a427.122 427.122 0 0 1 3.421-16.692c.267-1.29.355-3.068-.089-4.712zm-91.684 98.532c-5.198-3.112-1.821-7.001-.577-10.758.4-1.2 1.466-.978 2.332-1.044 4.221-.356 8.442-.712 12.663-.956.777-.044 1.466-.289 2.2-.378.488-.067 1.266-.444 1.288.6.044 1.734.91.69 1.644.578 3.465-.533 6.887-1.778 10.441-.355 1.4.555 3.31 3.956 2.821 5.334-1.066 2.912-1.6 6.38-5.953 6.112-5.843 3.935-12.796 3.112-19.239 4.424-3.243.6-5.998.066-7.62-3.557zm13.063-8.668c-2.488-.8-4.999-.756-7.553-.712-2.089.045-3.6.534-4.243 2.579-.178.533-1.378.822-.49 1.622.534.49 1.2.556 1.867.178 1.444-.8 2.644-.422 3.754 1.267.29-1.911 1.289-2.178 2.688-2.223 1.822-.044 3.733-.377 3.977-2.711zm8.93 4.134c-.022-1.623-.488-2.2-1.2-2.2-1.154-.023-1.688-.912-1.599-1.579.445-3.067-2.132-.066-2.665-1.4-.267-.645-.867.133-1 .534-.289.889-1.333 1.044-1.844 1.844 1.11.49 2.066.578 3.088.423.466-.067 1.377-.023 1.377.022.222 2.778 2.666.711 3.843 2.356zm69.313 48.433c.755.644.844 1.911 1.066 3.156 1.022 5.779 2.933 11.336 4.532 16.959.578 2.045.311 4.2 1.51 6.201.867 1.467-3.931 6.335-5.709 6.046-.488-.089-1.044-.178-1.4-.489-1.554-1.356-2.82-3.134-5.264-2.912-.222.023-.622-.377-.711-.666-1.111-3.423-4.31-5.802-4.754-9.647-.222-1.845-1.222-3.579-1.4-5.512-.133-1.4-1.155-2.645.822-3.846.755-.466.2-2.533-.2-3.823-.866-2.778.844-4.934 1.888-7.157.867-1.822 4.044-1.956 5.954-.778.622.378 1.51.29 2.133.645.533.333.866 1 1.533 1.823zm-7.887.244c-1.555-.133-.955.956-1.066 1.8-.4 2.979 2.333 4.913 2.421 7.713 0 .29.534.956.867.6 1.022-1.178 1.755-.066 2.643.134 1.822.422 3.044.31 3.11-2.2.045-1.823-1.421-2.935-1.354-4.735.066-1.467.377-3.934-2.689-2.912-.177.067-.533-.333-.777-.533-1.11-1-2.177-1.756-3.155.133zm-25.614 17.47c.089 2.067-1.155 3.045-2.488 4.156-1.267 1.045-2.066.378-2.8-.355-.777-.8-.533-1.867.09-2.712 1.532-2 1.799-5.29-.09-6.424-1.888-1.133-1.421-2.111-1.244-3.778.49-4.535 1.489-8.913 2.644-13.292.578-2.2 1.089-4.534 4.11-4.6.689-.023.6-.712.888-1.09 1.022-1.29 2.133-2.245 3.755-.756.289.267.71.49 1.088.511 2.444.156 3.155.978 2.688 3.268-.666 3.223-.733 6.512-1.044 9.735-.533 5.468-1.2 10.936-1.688 16.426-.155 1.6-2.244 1.89-2.688 3.534-.156.6-.889-.267-1.31-.622-1.134-1.023-1.2-2.579-1.911-4.001zm85.262-72.26c-3.754 1.2-7.664 1.29-11.552 1.423-.622.022-1.466-.667-1.11-1 2.132-2.023-.134-3.224-1-4.09-1.378-1.334-.378-1.734.422-2.179 1.888-1.022 3.843-1.911 5.776-2.845.066-.044.2-.044.222-.11 2.132-4.757 6.598-2.401 9.93-2.98 4.688-.822 9.242-1.933 13.685-3.622 1.177-.445 1.91-.667 2.732.911.533 1.045 2.4 1.467 3.755 2 .8.334 1.266.8 1.444 1.579 1.4 5.779-1.289 10.068-6.932 12.425-4.132 1.733-8.308 2.933-12.707 3.422-2.466.267-4.998.312-7.464-.2-.467-.088-1.155-.022-1.177-.689-.023-.578.622-.978 1.044-.866 1.51.355 2.421-1.09 3.798-1.112 1.955-.044 1.245-1 .556-1.89.022-.132.022-.244.044-.377 4.554-.067 8.886-1.356 13.44-1.978.156.711-.866 2.334 1.333 2.134 1.489-.134 2.666-.312 2.022-2.268-.267-.777.022-1.444.578-2.067.288-.333.888-.978.377-1.267-2.155-1.178-.2-1.355.356-2.022.6-.711 1.733-1 2-2.312-1.911.534-3.555 1.112-5.221 1.423-.911.178-2.378.333-2.577-.867-.178-1.134 1.221-1.067 2.066-1.29.244-.066.51-.066.733-.155.622-.267 1.288-.556.888-1.467-.4-.867-.977-.4-1.466-.155-5.976 3.156-12.552 3.445-19.083 3.912-.333.022-.71-.045-.822.333-.066.178.156.622.222.622 1.8-.155 2.577 1.245 3.777 2.2 1.644 1.312 2.421-.422 3.266-1.488.31-.4.533-1.445 1.2-.734.954 1.022-.6 1.912-.512 3 .045.556-.222 1.223-1.222 1.2-3.199-.132-3.199-.088-2.754 3.09-.023.134-.045.245-.067.356zM146.87 81.919c-2.066.933-3.643 1.844-4.82 3.623-.822-1.445-2.488-2.268-2.644-4.068.933-.756 1.533 1.534 2.355.067.689-1.223-.156-1.867-1-2.468-1.288-.91-1.2-1.6-.355-3.067 3.887-6.69 11.04-9.335 16.639-13.87 2.177-1.755 4.288-3.467 5.532-6.045.533-1.09 1.844-2.245 2.732-1.912 2.622 1 5.243-2.334 7.753.223 1.844 1.867 2.044 4.69 3.999 6.579.378.355-.578 2.845-1.489 3.712-2.177 2.045-2.999 5.023-5.331 6.934-.867.712-1.444 1.868-2.51 2.401-2.644 1.311-3.866 4.067-6.22 5.757-3.689 2.645-8.132 3.912-11.686 6.779-.91.733-2.555.667-3.865.69-1.289.021-1.644-2.024-.6-3.424.422-.511 1.222-.645 1.51-1.911zm4.355-7.135c-1.667 1.178-3.244 2.245-4.777 3.356-.51.378-1.288.645-1.022 1.534.156.466.445.978.978 1.067.8.11 1.133-.49 1.466-1.112.355-.644.866-1.222 1.31-1.822.4-.534.756-1.29 1.578-.712.644.445 1.022 1.112.666 1.979a61.412 61.412 0 0 0-.955 2.6c-.155.467-.555.934-.177 1.423.466.622.888-.111 1.332-.134 2.422-.133 3.777-2.622 5.865-3.023 3.732-.71 5.776-3.734 8.087-5.912 3.332-3.112 5.709-7.335 7.997-11.847-2.688 1.2-5.243 1.578-7.642 2.8a18.59 18.59 0 0 1 3.977-5.912c.888-.867.51-1.822.688-2.734.067-.333-.288-.733-.622-.578-1.466.667-3.399-.088-4.532 1.667-2.999 4.713-7.42 7.891-11.974 10.892-.8.51-1.51 1.111-1.088 2.356.8-.445 1.555-.89 2.288-1.312-.355 3.512-3.754 3.935-5.687 5.868.866.378 1.2-.955 2.244-.444zM79.447 38.998c-1.133-2.578-.778-5.379-1.555-8.001-.133-.467-.622-1.245.222-1.49.644-.177 1.177.178 1.533.956 1.4 3.023 3.288 5.801 4.932 8.669 1.355 2.356 3.31 5.134 2.11 8.38-.311.844.244 1.466.555 2.11 1.2 2.401-.755 5.446 1.511 7.647.245.244-.044.733-.422.689-1.666-.178-2.621 2.49-4.62 1.022-1.622-1.178-3.378-.222-3.444 1.779-.045 1.822-1.444.755-2.044.866-1.177.2-2.244-.555-1.91-1.956.888-3.711-.2-6.512-3.066-9.046-2.066-1.823-1.71-4.734-2.022-7.246-.11-.911.045-1.845-.133-2.734-.311-1.556-.4-2.734 1.8-2.156.444.111.844.267 1.199-.4 1.555-2.867 1.6-2.845 3.643-.222.356.444.733.889 1.089 1.333.222-.066.422-.133.622-.2zm75.887 88.552c3.288.445 5.91 2.423 8.487 4.18 2.177 1.51 4.665 2.155 6.886 3.4 1.067.6 2.31.778 3.133 1.934 1.066 1.489 2.466-.823 4.02.333-1.643 2.156-.244 4.912-1.221 7.402-.333.844.51 1.533 1.022 2.2v-.044c-2.11 1.333-3.799-.6-5.732-.778-.71-.067-1.355-.69-2.421-.511.71.689 2.4.733 1.155 2.4-.866 1.178.71 1.29 1.51 1.578.578.2 1.645-.111 1.533.845-.133 1-1.11.6-1.821.644-1.71.09-3.532-.689-5.065 1.067-.289.312-2.244-.666-3.333-1.244-4.576-2.468-9.219-4.801-13.529-7.691-2.199-1.49-3.62-3.49-4.42-6.112-.645-2.09-2.089-3.912-1.422-6.38.377-1.378.755-2.711 2.155-3.134 2.266-.689 4.576-1.333 6.997-1.178-1.4.934-2.154 3.49-4.465 2.09-1.066-.645-1.977-.823-2.643 0-.822 1.022-.067 2 .688 2.845 1.089 1.222 2.666 1.69 3.955 2.6.91.645 1.688 1.178-.045 1.756-.666.223-1.422.823-.8 1.467 1.022 1.067.778 3.29 2.51 3.423 1.667.134 2.91.423 3.466 2.067.2.6.422 1.245 1.133 1.112 2.733-.511 3.577 3.312 6.576 2.778.666-.111 2.221.2 3.377.245.288.022.755-.445.844-.778.178-.578-.289-.956-.8-1.045-1.155-.2-2.021-.733-2.577-1.778v-.222c.022.066.022.133.045.222-3.155 1.156-2.533-1.845-3.444-3.134v-.022c.933-.223 1.6.377 2.355.733.666.311 1.666.89 2 .133.444-.978-.512-1.644-1.445-1.933-1.088-.334-2.288-.467-2.888-1.845.756-.133 1.378-.222 2.022-.334h-.022c1.866 1.156 3.643 2.579 6.087 2.179.333-1.178-.644-1.978-1.267-2.2-2.465-.89-3.354-4.602-6.753-3.713-.333.09-.4-.244-.4-.489-.133-1.911-1.777-2.356-3.066-2.934-1.11-.489-1.777-1.222-2.377-2.133zM43.636 160.18c-.555.355-1.11.733-1.666 1.111-.933-.733-.09-3.378-2.666-2.422-.333.11-.844-.712-.489-1.4.156-.312.933-.712.445-.912-2.577-1-.623-2.4-.29-3.623-1.021-.467-1.843 1.267-2.776.089.489-.378.977-.756 1.466-1.156 2.488-.934 4.465-2.69 6.265-4.468 2.888-2.822 6.509-2.556 9.952-3.178.156-.022.444-.045.489.044 1.044 2.09 2.466.623 3.754.4.378 1.756-1.11 2.2-2.066 3.023-.644.556-1.4 1.245-.91 2.112.621 1.111 1.355-.334 2.177-.178-.578.6-1.022 1.311-.467 1.934.644.733 1.022-.311 1.533-.511.955-.4 1.866-.89 2.888-1.379-.356 1.445-.867 2.579-2.11 3.29-.756.422-1.356 1-1.2 2.023-1.644 1.178-3.288 2.334-4.932 3.512-.955-.178-2.244.11-2.666-.912-.666-1.556-1.533-1.067-2.532-.622-1.2.533-2.4 1.045-3.577 1.622-.778.334-1.089.845-.622 1.6zm8.486-5.58c1.6.468 2.8.379 3.71-.888.378-.534 0-.778-.377-.934-1.644-.711-2.378.467-3.333 1.823zm-.289.846c-.155.022-.288.066-.444.088.022.156.067.29.089.445.155-.022.355-.022.422-.111.067-.067-.022-.267-.067-.423z" fill="#FFCD30"/><path d="M164.51 143.242c.555 1.045 1.421 1.6 2.576 1.779.511.089 1 .466.8 1.044-.111.334-.577.8-.844.778-1.155-.066-2.71-.355-3.377-.244-2.999.533-3.843-3.29-6.576-2.779-.71.134-.91-.51-1.133-1.111-.577-1.645-1.821-1.934-3.465-2.067-1.755-.134-1.51-2.356-2.51-3.423-.6-.645.133-1.223.8-1.467 1.71-.578.932-1.111.044-1.756-1.289-.911-2.844-1.378-3.955-2.6-.755-.845-1.51-1.823-.688-2.846.666-.844 1.577-.644 2.643 0 2.31 1.4 3.066-1.133 4.466-2.089.91-.089 1.532.422 2.043 1.067.6.911 1.267 1.645 2.355 2.134 1.289.578 2.933 1.022 3.066 2.934.022.244.089.578.4.489 3.399-.912 4.287 2.8 6.753 3.712.622.222 1.6 1.022 1.267 2.2-2.444.4-4.221-1-6.087-2.178.222-.222.533-.445.333-.823-.045-.066-.333-.11-.378-.066-.31.289-.089.6.067.867-.622.11-1.244.2-2.022.333.6 1.378 1.777 1.511 2.888 1.845.933.289 1.889.956 1.444 1.934-.333.778-1.333.177-2-.134-.755-.333-1.421-.956-2.354-.733-.689-.89-1.377-1.778-2.688-1.178-.4-.534-.689-1.29-1.222-1.512-.889-.4-1.933-.467-2.91-.689-.022 1.156.955 1.556 1.6 2.223.888.933 1.71 1.867 2.532-.045.666.934 1.222 2.068 2.688 1.223.91 1.311.311 4.29 3.443 3.134v.044zM57.92 154.978c-.155-1 .445-1.6 1.2-2.022 1.266-.712 1.777-1.845 2.11-3.29-1.022.49-1.932 1-2.888 1.378-.51.2-.888 1.245-1.533.511-.555-.622-.088-1.333.467-1.933-.822-.156-1.555 1.267-2.177.177-.489-.866.267-1.555.91-2.111.956-.823 2.444-1.29 2.067-3.023-1.289.222-2.71 1.69-3.755-.4-.044-.067-.31-.067-.488-.044-3.444.6-7.087.333-9.953 3.178-1.8 1.778-3.776 3.534-6.265 4.468-1.355-.223-.733-.667-.133-1.112 1.91-1.378 3.71-2.934 5.71-4.134 3.554-2.134 5.82-5.779 9.463-7.78.445-.244.933-.889 1.222-.8 3.932 1.267 7.353-2.467 11.485-1.089-.888 1.667-1.888 3.134-3.598 3.623-2.466.712-1.622 2.334-.978 3.534.622 1.112 1.777 2.09 3.199.623.422-.445 1.066-.956 1.733-.245.51.556.266 1.134-.067 1.623-2.177 3.245-3.754 7.135-7.73 8.868zm-21.748-1.955c.933 1.178 1.755-.556 2.776-.09-.333 1.223-2.288 2.601.29 3.624.51.2-.267.6-.445.911-.356.69.155 1.512.489 1.4 2.577-.933 1.732 1.69 2.665 2.423-2.82-.2-5.531-.867-8.175-1.822-.555-.2-.022-4.78.689-5.046.822-.311.889-1.29 1.71-1.4zm-.245 4.245c.467-.067.8-.222.955-.756-.444.112-.8.223-.955.756zm7.709 2.912c-.467-.756-.156-1.267.533-1.6 1.177-.556 2.377-1.09 3.577-1.623 1-.445 1.888-.934 2.532.622.422 1.023 1.733.734 2.666.911-1.222 1.045-2.421 2.112-3.665 3.179-.956-1.378.488-1.956.821-3.134-1.755.378-2.643 1.8-3.998 2.29-.778.31-2.177 1.577-2.466-.645zm6.531-62.68c-.044.133-.067.266-.11.4-.179-.067-.356-.156-.534-.222.089-.112.133-.312.244-.356.111 0 .245.133.4.178zm117.608 12.803c-.555.31-1.022.222-1.466-.223.022-.11.067-.244.089-.355.51-.29 1-.2 1.422.2-.023.133-.023.244-.045.378zm9.864 36.718c.067-.022.133-.022.2-.044h-.2v.044zm-55.027-87.374c0-.111.022-.2.022-.311.022.044.067.111.044.133-.022.067-.089.111-.133.156l.067.022zm8.553-17.737c0-.089.022-.2.022-.289.022.045.044.089.022.133-.022.067-.067.112-.111.156h.067zm-5.821 86.819c.378-.311.733-.6 1.067-.867-1.444 5.89-13.374 14.18-22.149 12.958 1.066-.689 2-.978 3.021-1.222 5.42-1.312 10.242-3.89 14.685-7.202.222-.178.288-.555.422-.844.977-.956 1.955-1.89 2.954-2.823z" fill="#FFCD30"/><path d="M125.344 128.728c-.978.934-1.977 1.867-2.955 2.8-.733-.844-1.266-.51-1.8.245-1.465 2.09-3.71 2.557-6.042 2.868-.51.066-1.088.155-1.266-.49-.178-.666.422-.733.844-1 1.866-1.155 4.088-1.622 5.843-3.067.977-.822 1.466-2.69 3.443-1.934.267.112.733-.466.667-.91-.467-2.624 1.932-3.49 3.11-5.113.333-.445 1-.6 1.355-.311.6.444.178 1.089-.155 1.533-1.245 1.645-2.733 3.179-3.044 5.38zm-9.02-35.474c3.621 4.357 3.999 8.469 1.4 12.58-.423.645-.867 1.534-1.667 1.245-1.221-.466-.066-1.177.045-1.8.822-3.845.733-7.713.222-12.025zm2.532 14.492c-1.732 2.823-4.554 4-7.375 5.179 2.466-1.734 4.91-3.445 7.375-5.179zm-49.85 11.092c1.466 2.112.466 5.023 2.266 7.046-2.31-1.267-2-4.068-3.421-5.868-.223-.289.71-.8 1.155-1.156v-.022zm51.428-12.581c-.666.156-.822.178-.955.222.089-.289.156-.577.311-.844.044-.09.4-.134.422-.111.089.31.178.622.222.733zm-53.25-6.312c-.067-.023-.111-.045-.178-.067.045-.089.09-.156.134-.245.044.045.11.09.133.134-.022.067-.067.133-.089.178zm29.969 11.491c0 .067.022.133.022.2 0-.044 0-.133-.022-.2zm25.836 1.645c.022.067.022.156.044.222 0-.066 0-.155-.022-.222h-.022zM91.354 83.319c.267.489.645.867.023 1.333-3.133 2.357-4.91 5.668-6.532 9.091-.222.49-.533.978-1.088.734-.267-.111-.445-.712-.445-1.067.045-1.69.267-3.379 1.4-4.69 1.6-1.823 3.31-3.512 4.999-5.268.51-.555 1.088-.8 1.643-.133zm10.841-8.758c-1.643 1.556-3.287.245-5.02.112 2.332-2.29 3.043-2.29 4.998-.067l.022-.045zm-22.104 32.808c.333.51.556 1.111.045 1.556-.533.444-.867-.112-1.156-.49-.288-.4-.688-.889-.333-1.333.533-.69.889.489 1.444.267zm-1.421 22.605a23.044 23.044 0 0 0-.2-.645h.222v.667l-.022-.022zm1.444-22.606c0-.088-.023-.155-.023-.244 0 .067 0 .156.023.244zm2.443 21.116c.022-.089.045-.2.067-.289 0 .089-.022.2-.022.289h-.045zm26.036-61.502c-.022-.067-.022-.156-.044-.222.022.066.022.133.044.222zm18.55 43.188c-.622-1.534.556-1.423 1.4-1.623-.022.934-.844 1.178-1.4 1.623zm25.792 58.145c-1.11 1.422-2.199 1.267-3.22.444-3.044-2.467-6.021-4.979-9.198-7.624 3.421-.333 6.842 1.734 7.664 4.535.4 1.333 1.622 1.444 2.533 1.978.6.378 1.377.422 2.221.667zm-3.221 7.535c.244.533 1.133.89.555 1.6-.222.29-.8.29-1.088-.066-.667-.823.133-1.112.6-1.534h-.067zM52.522 90.876c-.444.378-.866.822-1.466.333-.133-.11-.244-.555-.178-.6.622-.422 1.222-.422 1.644.29v-.023zM54.41 61.18c-.688 1.757 1.111 2.38 1.844 3.602.444.733.822 1.178 1.6 1.311 2.066.356 1.821 2.29 2.265 3.6.267.801-.533 1.401-1.51 1.601-1.577.311-3.221-.111-3.555-1.4-.4-1.556-1.577-1.912-2.377-2.845-2.177-2.534-4.043-5.357-5.887-8.158-.733-1.089-.022-2.156 1.156-2.156 1.377-.022 2.377 1.445 3.865 1.445.022 0 .133.311.067.378-1.578 2.267.244 2.023 1.577 2.09.355 0 .644.066.955.533zm77.909-4.311l-.089-.111.2-.067-.111.178zm7.687-19.96l-.133-.022.133.044v-.022zm-25.058-14.714c.444 1.667.355 3.445.066 4.734a427.225 427.225 0 0 0-3.421 16.693c-.244 1.289-.977 1.844-2.066 1.689-1.466-.223-.8-1.578-.622-2.223.466-1.645.578-3.312.777-4.957.045-.444.445-1.133-.088-1.355-1.91-.845-.422-1.645-.09-2.534.623-1.712 1.023-3.445.69-5.313-.067-.422 0-.955-.578-.755-.689.244-1.355.533-1.555-.423-.178-.844.777-.955 1.244-1.378.6-.555 1.555-.911.866-1.978-1.044-1.645.556-2.667 1.333-2.934.955-.333 2.266.423 3.444.734zm1.687 11.335c.111 1.623.267 3.268-1.688 4.802.378-2.023.311-3.646 1.71-4.801h-.022z" fill="#FFCD30"/><path d="M116.658 33.553c-.178-.334-.422-.667.044-.978.045-.023.178 0 .222.044.356.445-.022.667-.288.934h.022zm-80.331 78.506c-.244 2.356-2.155 2.69-3.976 2.734-1.4.044-2.4.31-2.688 2.222-1.111-1.689-2.289-2.09-3.755-1.267-.666.378-1.333.311-1.866-.178-.888-.8.311-1.089.489-1.622.666-2.067 2.155-2.534 4.243-2.578 2.533-.09 5.065-.112 7.553.689zm8.931 4.134c-1.178-1.645-3.622.422-3.822-2.356 0-.044-.91-.089-1.377-.022-1.022.155-1.977.089-3.088-.423.489-.8 1.555-.955 1.844-1.844.133-.4.733-1.2 1-.534.555 1.334 3.132-1.667 2.666 1.4-.09.645.444 1.556 1.6 1.579.688 0 1.154.577 1.177 2.2zm61.425 48.677c1-1.89 2.044-1.134 3.133-.156.244.222.6.6.777.533 3.044-1.022 2.755 1.445 2.688 2.912-.066 1.8 1.4 2.934 1.356 4.734-.067 2.512-1.289 2.623-3.11 2.2-.867-.2-1.622-1.31-2.644-.132-.311.377-.844-.29-.867-.6-.088-2.801-2.82-4.735-2.421-7.713.111-.823-.467-1.89 1.088-1.779zm61.137-54.946c-.422-.4-.889-.489-1.422-.2-.444-3.178-.444-3.222 2.755-3.09 1.022.045 1.266-.644 1.221-1.2-.088-1.088 1.467-1.978.511-3-.666-.711-.888.333-1.2.734-.843 1.089-1.62 2.822-3.265 1.489-1.177-.956-1.977-2.356-3.776-2.2-.067 0-.267-.445-.223-.623.111-.378.49-.289.822-.333 6.532-.467 13.107-.756 19.083-3.912.467-.245 1.067-.712 1.467.155.4.911-.245 1.2-.89 1.467-.221.089-.488.089-.732.156-.844.244-2.266.155-2.066 1.289.2 1.2 1.644 1.045 2.577.867 1.688-.311 3.332-.89 5.22-1.423-.288 1.312-1.421 1.6-1.999 2.312-.555.667-2.51.844-.355 2.022.51.29-.09.934-.378 1.267-.556.623-.844 1.29-.578 2.068.644 1.955-.533 2.133-2.021 2.267-2.2.2-1.178-1.423-1.333-2.134-4.532.667-8.864 1.978-13.418 2.022zm7.086-3.778c-.688-1.067-1.8-1.067-2.754-1.29-.311-.066-.311.801-.111 1.068.8 1.089 1.866.289 2.865.222zm-6.709-2.023c.245-.133.378-.378.156-.578-.222-.2-.578-.4-.844-.355-.4.066-.378.467-.178.755.222.29.533.334.866.178zm.267 4.001c-.022-.155-.022-.355-.111-.422s-.356 0-.422.089c-.067.089 0 .355.089.4.089.066.288-.045.444-.067zm-17.24-33.34c-1.044-.512-1.377.822-2.221.422 1.933-1.934 5.332-2.356 5.687-5.868-.755.422-1.51.845-2.288 1.311-.422-1.244.289-1.844 1.088-2.356 4.554-3 8.975-6.2 11.974-10.89 1.111-1.734 3.044-1.001 4.532-1.668.334-.155.689.267.622.578-.177.911.2 1.867-.688 2.734-1.667 1.667-3.022 3.6-3.977 5.912 2.4-1.222 4.976-1.6 7.642-2.8-2.288 4.512-4.665 8.735-7.997 11.847-2.31 2.178-4.355 5.179-8.087 5.912-2.088.4-3.443 2.89-5.865 3.023-.444.022-.866.756-1.332.133-.378-.489.022-.955.177-1.422.29-.867.6-1.756.956-2.6.333-.868-.023-1.534-.667-1.979-.822-.578-1.177.2-1.577.711-.445.6-.955 1.178-1.31 1.823-.334.622-.667 1.223-1.467 1.111-.533-.066-.822-.578-.978-1.067-.288-.866.49-1.155 1.022-1.533 1.511-1.09 3.088-2.156 4.754-3.334zm13.307 68.459c-.022-.066-.022-.133-.044-.222v.222h.044zM52.122 154.6c.955-1.355 1.688-2.533 3.332-1.822.378.156.756.4.378.934-.91 1.266-2.11 1.355-3.71.889zm-.288.845c.022.156.133.356.066.422-.066.09-.289.067-.422.111-.022-.155-.067-.289-.089-.444.156-.022.311-.045.445-.089zM158.4 138.886c-.821 1.912-1.643.978-2.532.045-.644-.667-1.644-1.067-1.6-2.223.978.222 2.022.289 2.91.689.512.222.8.978 1.222 1.49zm2.688 1.223c-1.466.845-2.022-.29-2.688-1.223v.023c1.31-.6 2 .289 2.688 1.2zm2.044-3.29c-.156-.289-.356-.578-.067-.867.066-.067.355-.022.378.067.2.378-.134.578-.334.822l.023-.022zM35.927 157.268c.156-.534.511-.645.955-.756-.155.511-.488.667-.955.756z" fill="#FFCD30"/><path d="M174.907 106.146c-1 .044-2.066.867-2.866-.222-.2-.267-.222-1.134.11-1.067.956.222 2.067.244 2.756 1.289zm-6.71-2.023c-.333.156-.644.111-.866-.178-.2-.288-.222-.689.178-.755.266-.045.6.178.844.355.222.2.066.445-.156.578zm.267 4.001c-.156.023-.334.134-.445.067-.089-.044-.133-.333-.089-.4.067-.089.334-.156.423-.089.088.067.066.267.11.422z" fill="#FFCD30"/><path d="M1084.718 406.697s-4.234 8.483-2.157 14.091c2.078 5.609 8.77 7.535 8.77 7.535s2.432-7.99.95-12.496c-1.582-4.406-7.563-9.13-7.563-9.13zm-20.078 19.319s5.569 7.722 11.466 8.446c5.897.724 10.817-4.256 10.817-4.256s-5.976-5.924-10.573-6.643c-4.798-.72-11.71 2.453-11.71 2.453zm32.225 17.73s-6.705 1.173-9.02 4.764c-2.314 3.59-.633 8.297-.633 8.297s5.708-1.977 7.62-4.77c1.911-2.892 2.033-8.291 2.033-8.291zm-22.482-4.09s-1.826 6.493.36 10.201c2.185 3.61 7.183 4.13 7.183 4.13s.624-5.998-1.064-8.905c-1.589-2.907-6.479-5.426-6.479-5.426zm-20.433 7.917s2.268 8.01 6.958 10.428c4.69 2.42 10.201-.359 10.201-.359s-3.173-6.712-6.865-8.627c-3.592-2.015-10.294-1.442-10.294-1.442zm73.09-45.306s-9.194-1.537-13.908 2.044c-4.715 3.581-4.543 10.482-4.543 10.482s8.3-.067 12.012-2.752c3.81-2.685 6.439-9.774 6.439-9.774zm-24.05-13.297s-5.63 7.477-4.654 13.281c.977 5.804 7.164 8.93 7.164 8.93s3.83-7.386 3.149-11.988c-.682-4.603-5.66-10.223-5.66-10.223zm45.437 64.783s-6.492-1.926-10.201.259c-3.71 2.185-4.23 7.183-4.23 7.183s5.998.724 8.904-.864c2.907-1.689 5.527-6.578 5.527-6.578zm3.734 17.215s-3.376-5.914-7.472-6.93c-4.096-1.017-8.009 2.168-8.009 2.168s3.782 4.715 7.078 5.528c3.197.913 8.403-.766 8.403-.766zm-10.998-50.345s-8.207 1.767-10.925 6.256c-2.718 4.49-.341 10.199-.341 10.199s6.91-2.672 9.125-6.264c2.214-3.39 2.14-10.191 2.14-10.191zm-19.583-5.578s-5.23 7.479-4.053 13.084c1.178 5.604 7.266 8.429 7.266 8.429s3.43-7.286 2.647-11.69c-.782-4.503-5.86-9.823-5.86-9.823z" fill="#2EB349"/><path d="M1155.547 498.982c-.496-.802-.792-1.803-.789-2.703l-17.72 5.129 10.955-13.857c.402-.398-.197-.7-.797-.803l-5.493-1.722-7.266 16.471-24.833 8.3-.954-36.604 7.528-6.87 18-.127.808-1.697-16.8-.067 16.963-15.732-.59-2.603-11.44 10.054 7.364-15.97-4.096-1.117-6.178 19.576-11.34 9.854-2.38-54.91-2.6-.01-.413 28.198-9.747-13.039-6.403.675 15.638 15.462-1.245 36.096-15.348-12.862-.07-7.4-2.373-6.81-.05 12.5-10.473-6.842-2.799-.311 31.298 25.425-.267 16.9-31.242-14.726-4.259-10.217c-.899-.204-1.802.693-1.406 1.594l3.069 7.813-16.48-5.267.296 1.102 29.244 14.017-16.204 1.035 1.993 1.708 17.604-.83 16.862 9.368-.804 75.698 10.7.043-.823-68.904 45.36-15.018z" fill="#53372A"/><path d="M1043.27 492.231s4.974 6.72 10.171 7.441c5.198.621 9.515-3.762 9.515-3.762s-5.279-5.22-9.376-5.837c-4.198-.617-10.31 2.158-10.31 2.158zm2.823 20.212s8.893 1.735 13.606-1.646c4.614-3.381 4.74-10.081 4.74-10.081s-8.098-.233-11.809 2.353c-3.71 2.585-6.537 9.374-6.537 9.374zm-13.023-43.853s2.265 8.81 7.354 11.53c4.989 2.72 9.096.936 9.096.936s-3.27-7.313-7.261-9.63c-3.891-2.215-9.189-2.836-9.189-2.836zm98.793 1.797s-1.826 6.493.36 10.201c2.185 3.61 7.183 4.13 7.183 4.13s.624-5.998-1.064-8.905c-1.588-3.007-6.479-5.426-6.479-5.426zm32.874 5.531s-8.213 3.367-10.234 8.56c-2.021 5.191 1.457 10.705 1.457 10.705s6.716-4.073 8.333-8.166c1.816-4.093.444-11.099.444-11.099zm-48.163 15.207s7.183 4.33 12.29 2.85c5.105-1.48 7.328-7.27 7.328-7.27s-6.889-2.729-10.993-1.645c-4.105 1.084-8.625 6.065-8.625 6.065zm-41.498-23.667s-5.126 6.68-4.247 11.883c.879 5.204 6.368 8.026 6.368 8.026s3.426-6.586 2.843-10.689c-.484-4.102-4.964-9.22-4.964-9.22zm99.314 44.999s-1.467-8.305-5.956-11.123c-4.388-2.918-10.297-.742-10.297-.742s2.472 7.01 5.962 9.324c3.591 2.315 10.29 2.541 10.29 2.541z" fill="#2EB349"/><path d="M103.56 693.963c8.848-2.196 17.836 3.249 20.067 12.237 2.206 8.891-3.292 17.93-12.139 20.126-8.944 2.22-17.957-3.323-20.066-12.238-2.23-8.988 3.17-18.003 12.138-20.125zm6.304 25.817c5.25-1.303 8.46-6.663 7.152-11.94-1.31-5.275-6.654-8.512-11.904-7.21-5.25 1.303-8.461 6.664-7.152 11.94 1.285 5.178 6.63 8.415 11.904 7.21zm-68.713-24.02c12.348-3.065 24.98 4.587 27.962 17.019 3.08 12.408-4.51 25.078-16.882 28.044-12.348 3.064-24.98-4.588-27.962-17.02-3.08-12.407 4.535-24.98 16.882-28.044zm8.922 36.368c7.583-1.882 12.181-9.557 10.387-17.202-1.89-7.62-9.543-12.256-17.151-10.471-7.583 1.881-12.181 9.556-10.387 17.201 1.915 7.719 9.568 12.354 17.151 10.472zm26.967-68.092l10.306-2.557 1.333 5.374-1.847.458 2.255 9.086-6.612 1.64-2.254-9.085-1.847.458-1.334-5.374zm-39.948-9.171l2.255 9.086-6.611 1.64-3.152-12.7 7.508 1.974z" fill="#53372A"/><path d="M30.326 673.347c-.485-1.954.367-3.929 1.825-5.12.34-.293.778-.609 1.265-.73l.388-.096 24.817-6.054 7.291-1.81a2.914 2.914 0 0 1 3.523 2.134 2.914 2.914 0 0 1-2.117 3.533l-2.527.627 7.524 16.595 26.663-6.513c2.625-.652 5.2.991 5.83 3.531l-.297 9.201c-.704.071-1.385.24-2.065.41-11.57 2.87-18.576 14.565-15.715 26.094l-12.347 3.064c-.023-2.172-.265-4.394-.799-6.543-3.66-14.753-18.504-23.827-33.306-20.257-1.75.434-3.354 1.04-4.934 1.743l-5.02-19.81zm21.571 14.975l16.528-4.101-8.203-17.67-19.737 4.897 4.073 16.413c2.576-.017 4.982.112 7.34.461z" fill="#53372A"/></g><defs><clipPath id="a"><path fill="#fff" d="M0 0h1200v800H0z"/></clipPath></defs></svg>