<svg width="1200" height="800" viewBox="0 0 1200 800" fill="none" xmlns="http://www.w3.org/2000/svg"><g clip-path="url(#a)"><path fill="#fff" d="M0 0h1200v800H0z"/><path fill="#fff" d="M0 0h1200v800H0z"/><path d="M1228.99 570.668C690.658 601.782 210.7 684.304-159 801.323l1387.99.002V570.668z" fill="#EF4631"/><path d="M1229 634.926c-516.713 13.527-992.348 73.051-1381.5 166.396l1381.5.002V634.926z" fill="#12ABE3"/><path d="M1229 704.597c-38.916-.676-77.831-.676-116.747-.676-441.043-.001-856.143 35.172-1217.193 98.078L1229 802v-97.404z" fill="#2EB349"/><path d="M1229 764.8a7969.025 7969.025 0 0 0-428.072-11.5c-311.325-.001-607.518 16.909-884.248 48.023l1312.32.002V764.8z" fill="#FFCD30"/><path d="M280.904 392.203l-8.226 48.727-19.969.422-4.289-25.243-4.289 23.414-19.969.704-8.297-48.024 17.438-1.547 3.515 29.18 4.711-29.18h13.711l5.485 29.531 2.812-29.53 17.367 1.546zm40.869 20.39c0 2.04-.141 4.079-.422 6.118-4.008.258-7.992.68-11.953 1.266l-11.883 1.687c.609 1.688 1.559 3.035 2.848 4.043 1.312 1.008 2.871 1.512 4.675 1.512.938 0 1.957-.176 3.059-.528a26.6 26.6 0 0 0 3.34-1.3 40.747 40.747 0 0 0 3.164-1.723 60.214 60.214 0 0 0 2.601-1.652l-1.687 15.96a15.31 15.31 0 0 1-2.988 1.793 19.795 19.795 0 0 1-3.305 1.196 25.307 25.307 0 0 1-3.481.668c-1.171.14-2.32.21-3.445.21-2.32 0-4.441-.316-6.363-.949a19.281 19.281 0 0 1-5.238-2.636 20.202 20.202 0 0 1-4.079-4.043 23.536 23.536 0 0 1-2.917-5.063 29.163 29.163 0 0 1-1.758-5.8 32.145 32.145 0 0 1-.598-6.188c0-2.18.199-4.36.598-6.539.398-2.18.996-4.277 1.793-6.293a27.407 27.407 0 0 1 3.058-5.59 22.095 22.095 0 0 1 4.324-4.535c1.641-1.289 3.493-2.297 5.555-3.023 2.086-.727 4.383-1.09 6.891-1.09 2.086 0 3.984.293 5.695.879 1.734.562 3.27 1.359 4.606 2.39a15.633 15.633 0 0 1 3.515 3.621 19.946 19.946 0 0 1 2.461 4.641 25.669 25.669 0 0 1 1.442 5.309 32.38 32.38 0 0 1 .492 5.66zm-14.063-1.827c0-.657-.07-1.325-.211-2.004a6.106 6.106 0 0 0-.703-1.899 3.861 3.861 0 0 0-1.23-1.37c-.516-.376-1.16-.563-1.934-.563-.937 0-1.769.258-2.496.773a7.079 7.079 0 0 0-1.828 1.899 11.07 11.07 0 0 0-1.266 2.46 18.842 18.842 0 0 0-.738 2.461l10.406-.984v-.773zm58.025 17.718c0 1.946-.363 3.622-1.09 5.028a10.901 10.901 0 0 1-2.848 3.586c-1.195.984-2.578 1.793-4.148 2.425a29.768 29.768 0 0 1-4.852 1.442 37.52 37.52 0 0 1-5.097.703c-1.688.117-3.27.176-4.746.176-1.453 0-2.965-.059-4.535-.176a44.66 44.66 0 0 1-4.641-.527 42.92 42.92 0 0 1-4.57-1.02 27.165 27.165 0 0 1-4.254-1.652l-.071-45.282a39.769 39.769 0 0 1 4.184-1.44 41.998 41.998 0 0 1 4.5-1.09 45.443 45.443 0 0 1 4.605-.669c1.524-.164 3-.246 4.43-.246 1.664 0 3.34.106 5.027.317a27.72 27.72 0 0 1 4.922 1.054 21.186 21.186 0 0 1 4.395 1.934 13.706 13.706 0 0 1 3.551 2.883c1.031 1.148 1.828 2.484 2.39 4.007.586 1.524.879 3.282.879 5.274 0 1.312-.187 2.543-.562 3.691a10.227 10.227 0 0 1-1.618 3.094 10.28 10.28 0 0 1-2.566 2.356c-1.008.632-2.144 1.101-3.41 1.406 1.523.398 2.906.984 4.148 1.758a11.977 11.977 0 0 1 3.2 2.812 12.021 12.021 0 0 1 2.039 3.727c.492 1.382.738 2.86.738 4.43zm-17.859-20.039c0-.68-.141-1.254-.422-1.722a3.74 3.74 0 0 0-1.055-1.196 3.976 3.976 0 0 0-1.336-.668 4.459 4.459 0 0 0-1.266-.21c-.468 0-.925.07-1.371.21-.445.141-.879.305-1.3.493l-.211 7.804c.539 0 1.207-.047 2.004-.14a8.433 8.433 0 0 0 2.285-.598 5.16 5.16 0 0 0 1.898-1.406c.516-.633.774-1.489.774-2.567zm-4.993 11.461c-.679 0-1.336.07-1.968.211l-.141 8.016c.352.07.691.14 1.02.21a7.52 7.52 0 0 0 1.019.071c.492 0 1.031-.047 1.617-.14a5.255 5.255 0 0 0 1.653-.633 3.956 3.956 0 0 0 1.265-1.301c.352-.54.528-1.254.528-2.145 0-.89-.176-1.617-.528-2.18-.328-.562-.738-.996-1.23-1.3a4.034 4.034 0 0 0-1.617-.633 8.294 8.294 0 0 0-1.618-.176zm80.085-6.82c0 3.281-.422 6.223-1.266 8.824-.843 2.602-2.027 4.91-3.551 6.926a22.25 22.25 0 0 1-5.378 5.098 31.949 31.949 0 0 1-6.856 3.48c-2.484.89-5.133 1.547-7.945 1.969-2.789.422-5.66.633-8.613.633-1.102 0-2.18-.024-3.235-.07a82.377 82.377 0 0 1-3.234-.282l.984-45.773a43.234 43.234 0 0 1 7.945-1.723 64.1 64.1 0 0 1 8.157-.527c3.351 0 6.433.468 9.246 1.406 2.812.937 5.238 2.32 7.277 4.148 2.039 1.805 3.621 4.043 4.746 6.715 1.149 2.649 1.723 5.707 1.723 9.176zm-23.906 13.5c1.406-.211 2.683-.633 3.832-1.266a11.751 11.751 0 0 0 3.023-2.39 10.343 10.343 0 0 0 1.934-3.235c.468-1.218.703-2.508.703-3.867 0-1.336-.141-2.578-.422-3.726-.281-1.172-.738-2.18-1.371-3.024-.633-.867-1.465-1.547-2.496-2.039-1.031-.516-2.297-.797-3.797-.844l-1.406 20.39zm66.075-13.992c0 2.039-.141 4.078-.422 6.117-4.008.258-7.992.68-11.953 1.266l-11.883 1.687c.61 1.688 1.559 3.035 2.848 4.043 1.312 1.008 2.871 1.512 4.676 1.512.937 0 1.957-.176 3.058-.528a26.541 26.541 0 0 0 3.34-1.3 40.564 40.564 0 0 0 3.164-1.723 60.935 60.935 0 0 0 2.602-1.652l-1.688 15.96a15.31 15.31 0 0 1-2.988 1.793 19.763 19.763 0 0 1-3.305 1.196 25.293 25.293 0 0 1-3.48.668c-1.172.14-2.32.21-3.445.21-2.321 0-4.442-.316-6.364-.949a19.281 19.281 0 0 1-5.238-2.636 20.197 20.197 0 0 1-4.078-4.043 23.498 23.498 0 0 1-2.918-5.063 29.23 29.23 0 0 1-1.758-5.8 32.225 32.225 0 0 1-.598-6.188c0-2.18.2-4.36.598-6.539.399-2.18.996-4.277 1.793-6.293a27.362 27.362 0 0 1 3.059-5.59 22.068 22.068 0 0 1 4.324-4.535c1.64-1.289 3.492-2.297 5.555-3.023 2.085-.727 4.382-1.09 6.89-1.09 2.086 0 3.985.293 5.695.879 1.735.562 3.27 1.359 4.606 2.39a15.658 15.658 0 0 1 3.516 3.621 19.984 19.984 0 0 1 2.461 4.641 25.667 25.667 0 0 1 1.441 5.309 32.38 32.38 0 0 1 .492 5.66zm-14.062-1.828c0-.657-.071-1.325-.211-2.004a6.132 6.132 0 0 0-.703-1.899 3.855 3.855 0 0 0-1.231-1.37c-.516-.376-1.16-.563-1.934-.563-.937 0-1.769.258-2.496.773a7.079 7.079 0 0 0-1.828 1.899 11.11 11.11 0 0 0-1.265 2.46 18.857 18.857 0 0 0-.739 2.461l10.407-.984v-.773zM504.213 423c0 3.21-.563 5.988-1.688 8.332-1.101 2.32-2.625 4.242-4.57 5.766-1.922 1.5-4.184 2.613-6.785 3.34-2.579.703-5.356 1.054-8.332 1.054-1.149 0-2.414-.152-3.797-.457a49.931 49.931 0 0 1-4.149-1.125 82.867 82.867 0 0 1-4.078-1.476 97.074 97.074 0 0 1-3.445-1.512l1.547-13.781c1.992 1.195 4.195 2.109 6.609 2.742 2.438.61 4.828.914 7.172.914.445 0 .984-.012 1.617-.035a8.67 8.67 0 0 0 1.793-.317c.586-.187 1.078-.457 1.477-.808.398-.352.597-.856.597-1.512 0-.445-.14-.82-.422-1.125a2.874 2.874 0 0 0-1.089-.773 5.726 5.726 0 0 0-1.512-.457 14.1 14.1 0 0 0-1.652-.247 17.56 17.56 0 0 0-1.512-.07h-1.125c-2.016 0-3.856-.316-5.52-.95-1.64-.632-3.058-1.523-4.254-2.671-1.171-1.172-2.086-2.578-2.742-4.219-.656-1.664-.984-3.504-.984-5.52 0-2.765.551-5.238 1.652-7.417 1.125-2.203 2.613-4.067 4.465-5.59 1.875-1.547 4.02-2.73 6.434-3.55a23.097 23.097 0 0 1 7.488-1.231c1.148 0 2.332.047 3.551.14 1.218.07 2.425.211 3.621.422 1.219.211 2.402.48 3.551.809a20.92 20.92 0 0 1 3.269 1.23l-1.336 14.274a40.396 40.396 0 0 0-5.027-1.336 24.09 24.09 0 0 0-5.098-.563c-.305 0-.703.012-1.195.035-.469 0-.973.036-1.512.106-.516.047-1.043.129-1.582.246a6.12 6.12 0 0 0-1.441.492 2.625 2.625 0 0 0-1.02.774 1.668 1.668 0 0 0-.351 1.16c.023.515.211.914.562 1.195.375.281.844.492 1.406.633a9.684 9.684 0 0 0 1.899.176c.703 0 1.394-.012 2.074-.035.68-.047 1.312-.082 1.898-.106a10.528 10.528 0 0 1 1.442-.035c1.875.117 3.562.516 5.062 1.195 1.5.68 2.766 1.582 3.797 2.707 1.055 1.125 1.852 2.473 2.391 4.043.562 1.547.844 3.258.844 5.133zm21.356-31.5l-2.461 47.883-14.836.773-1.406-47.672 18.703-.984zm46.107 41.625c-1.102 1.383-2.461 2.59-4.078 3.621a26.87 26.87 0 0 1-5.203 2.567 34.091 34.091 0 0 1-5.696 1.546c-1.945.329-3.796.493-5.554.493-3.399 0-6.528-.575-9.387-1.723-2.859-1.149-5.332-2.742-7.418-4.781-2.062-2.063-3.68-4.512-4.851-7.348-1.172-2.836-1.758-5.93-1.758-9.281 0-2.555.293-5.04.879-7.453a30.832 30.832 0 0 1 2.496-6.786 28.362 28.362 0 0 1 4.008-5.8 25.374 25.374 0 0 1 5.343-4.535 24.972 24.972 0 0 1 6.539-2.918c2.391-.704 4.922-1.055 7.594-1.055 1.008 0 2.086.047 3.234.14 1.149.07 2.286.211 3.411.422 1.148.188 2.261.457 3.339.809a15.47 15.47 0 0 1 2.954 1.3l-.985 13.43a17.262 17.262 0 0 0-4.078-.984 30.33 30.33 0 0 0-4.078-.281c-1.875 0-3.633.258-5.273.773-1.618.492-3.036 1.23-4.254 2.215-1.196.984-2.145 2.215-2.848 3.691-.703 1.477-1.055 3.188-1.055 5.133 0 1.22.164 2.403.492 3.551a9.586 9.586 0 0 0 1.477 3.023 8.05 8.05 0 0 0 2.496 2.11c1.008.539 2.168.808 3.481.808.89 0 1.804-.117 2.742-.351.961-.234 1.781-.633 2.461-1.195l.14-2.743-8.437-.14.422-10.547c3.492-.117 6.984-.211 10.476-.281a819.3 819.3 0 0 0 10.547-.352l.422 22.922zm47.056-9.914c0 2.648-.035 5.273-.106 7.875a288.34 288.34 0 0 1-.246 7.805l-20.25-.352a287.33 287.33 0 0 0 1.828-12.41c.516-4.149.774-8.332.774-12.55a49.664 49.664 0 0 0-.176-3.763 35.243 35.243 0 0 0-.316-2.636 14.527 14.527 0 0 0-.528-2.496c-.211-.75-.48-1.36-.808-1.829-.305-.492-.68-.738-1.125-.738-.797 0-1.477.235-2.039.703-.539.47-.996 1.078-1.371 1.828a11.638 11.638 0 0 0-.844 2.461 27.975 27.975 0 0 0-.492 2.743 57.785 57.785 0 0 0-.211 2.601 67.253 67.253 0 0 0-.035 1.969c-.118 4.148-.211 8.273-.282 12.375-.07 4.078-.164 8.203-.281 12.375l-17.93.773c.469-8.273.914-16.5 1.336-24.68.446-8.18.797-16.406 1.055-24.68l16.594-.843-.141 5.625a23.924 23.924 0 0 1 2.11-2.25c.773-.703 1.593-1.3 2.46-1.793a11.889 11.889 0 0 1 2.743-1.195 10.397 10.397 0 0 1 3.093-.457c1.993 0 3.739.328 5.239.984 1.5.656 2.789 1.547 3.867 2.672 1.078 1.125 1.98 2.461 2.707 4.008a26.903 26.903 0 0 1 1.758 4.887 43.15 43.15 0 0 1 1.019 5.449c.235 1.875.387 3.726.457 5.555.094 1.828.141 3.597.141 5.308v4.676zm59.799-14.625c0 2.273-.339 4.289-1.019 6.047-.68 1.758-1.617 3.304-2.813 4.64a16.548 16.548 0 0 1-4.148 3.34 28.034 28.034 0 0 1-5.133 2.215 36.4 36.4 0 0 1-5.625 1.266 48.165 48.165 0 0 1-5.73.422v14.976H637.68v-7.805c.023-2.53.035-5.039.035-7.523.023-2.508.035-5.027.035-7.558.024-2.532.047-5.145.07-7.84.047-2.86.059-5.72.036-8.579-.024-2.859.035-5.742.175-8.648 3-.89 6-1.559 9-2.004 3-.445 6.094-.668 9.282-.668 1.804 0 3.609.153 5.414.457 1.804.281 3.527.739 5.168 1.371a21.956 21.956 0 0 1 4.605 2.39 15.4 15.4 0 0 1 3.692 3.376c1.031 1.312 1.839 2.812 2.425 4.5.61 1.687.914 3.562.914 5.625zm-15.609 1.195c0-1.523-.469-2.707-1.406-3.55-.914-.868-2.11-1.301-3.586-1.301a9.11 9.11 0 0 0-1.547.14 13.74 13.74 0 0 0-1.477.282l-.422 10.265c.329.047.645.07.95.07h.949a7.05 7.05 0 0 0 2.426-.421c.797-.282 1.5-.68 2.109-1.196a6.13 6.13 0 0 0 1.441-1.863c.375-.727.563-1.535.563-2.426zm61.786 4.29c0 2.132-.246 4.195-.738 6.187a23.748 23.748 0 0 1-2.144 5.554 22.69 22.69 0 0 1-3.375 4.782 21.183 21.183 0 0 1-4.465 3.691 21.957 21.957 0 0 1-5.379 2.426c-1.946.562-4.008.844-6.188.844a22.29 22.29 0 0 1-6.047-.809 23.451 23.451 0 0 1-5.343-2.25 22.806 22.806 0 0 1-4.535-3.516 23.387 23.387 0 0 1-3.446-4.57 25.036 25.036 0 0 1-2.215-5.414 23.128 23.128 0 0 1-.773-6.012c0-2.039.246-4.03.738-5.976a24.724 24.724 0 0 1 2.11-5.555 24.414 24.414 0 0 1 3.375-4.781 22.353 22.353 0 0 1 4.394-3.762 21.483 21.483 0 0 1 5.309-2.46c1.898-.587 3.902-.88 6.011-.88 3.399 0 6.493.528 9.282 1.582 2.812 1.055 5.203 2.567 7.172 4.535 1.992 1.946 3.527 4.313 4.605 7.102 1.102 2.766 1.652 5.86 1.652 9.281zm-15.609.913c0-1.007-.152-1.98-.457-2.918a7.54 7.54 0 0 0-1.266-2.53 6.235 6.235 0 0 0-2.109-1.794c-.82-.469-1.77-.703-2.848-.703-1.101 0-2.086.2-2.953.598a6.835 6.835 0 0 0-2.25 1.652 7.102 7.102 0 0 0-1.406 2.426 8.575 8.575 0 0 0-.492 2.918c0 .984.14 1.969.422 2.953a8.778 8.778 0 0 0 1.265 2.672 6.806 6.806 0 0 0 2.074 1.933c.844.493 1.817.739 2.918.739 1.102 0 2.086-.211 2.954-.633a6.97 6.97 0 0 0 2.25-1.758 8.272 8.272 0 0 0 1.406-2.566 9.188 9.188 0 0 0 .492-2.989zm58.622-1.898c0 3.281-.422 6.223-1.265 8.824-.844 2.602-2.028 4.91-3.551 6.926a22.255 22.255 0 0 1-5.379 5.098 31.94 31.94 0 0 1-6.855 3.48c-2.485.89-5.133 1.547-7.946 1.969-2.789.422-5.66.633-8.613.633-1.102 0-2.18-.024-3.234-.07a82.592 82.592 0 0 1-3.235-.282l.985-45.773a43.216 43.216 0 0 1 7.945-1.723 64.084 64.084 0 0 1 8.156-.527c3.352 0 6.434.468 9.246 1.406 2.813.937 5.239 2.32 7.278 4.148 2.039 1.805 3.621 4.043 4.746 6.715 1.148 2.649 1.722 5.707 1.722 9.176zm-23.906 13.5c1.406-.211 2.684-.633 3.832-1.266a11.756 11.756 0 0 0 3.024-2.39 10.34 10.34 0 0 0 1.933-3.235c.469-1.218.703-2.508.703-3.867 0-1.336-.14-2.578-.422-3.726-.281-1.172-.738-2.18-1.371-3.024-.633-.867-1.465-1.547-2.496-2.039-1.031-.516-2.297-.797-3.797-.844l-1.406 20.39zm60.38-33.61l-1.265 14.836a12.58 12.58 0 0 0-2.004-.386 18.81 18.81 0 0 0-2.004-.106c-1.664 0-3.258.211-4.781.633-1.5.422-2.836 1.066-4.008 1.934-1.149.867-2.074 1.968-2.778 3.304-.679 1.313-1.019 2.871-1.019 4.676 0 1.313.187 2.461.562 3.445.399.961.95 1.77 1.653 2.426.726.633 1.593 1.114 2.601 1.442 1.032.328 2.168.492 3.41.492.868 0 1.758-.082 2.672-.246a23.84 23.84 0 0 0 2.743-.739 24.665 24.665 0 0 0 4.992-2.32l-.563 16.524c-.914.468-1.898.89-2.953 1.265a35.193 35.193 0 0 1-3.269.914 27.054 27.054 0 0 1-3.34.633c-1.102.14-2.157.211-3.164.211-3.328 0-6.364-.621-9.106-1.863-2.719-1.242-5.062-2.93-7.031-5.063-1.945-2.156-3.457-4.652-4.535-7.488-1.078-2.836-1.617-5.86-1.617-9.07 0-3.844.539-7.43 1.617-10.758 1.101-3.328 2.707-6.211 4.816-8.649 2.133-2.46 4.758-4.382 7.875-5.765 3.141-1.406 6.738-2.11 10.793-2.11 1.617 0 3.258.13 4.922.387a17.86 17.86 0 0 1 4.781 1.442zm48.427 45l-17.437 2.25-2.11-7.945h-8.015l-1.758 7.946-17.93-1.758 13.992-46.828 19.547-.985 13.711 47.32zm-20.812-16.453l-2.672-12.234-2.602 12.234h5.274zM890.116 423c0 3.21-.563 5.988-1.688 8.332-1.101 2.32-2.625 4.242-4.57 5.766-1.922 1.5-4.184 2.613-6.785 3.34-2.578.703-5.356 1.054-8.332 1.054-1.149 0-2.414-.152-3.797-.457a49.931 49.931 0 0 1-4.149-1.125 82.867 82.867 0 0 1-4.078-1.476 97.074 97.074 0 0 1-3.445-1.512l1.547-13.781c1.992 1.195 4.195 2.109 6.609 2.742 2.438.61 4.828.914 7.172.914.445 0 .984-.012 1.617-.035a8.67 8.67 0 0 0 1.793-.317c.586-.187 1.078-.457 1.477-.808.398-.352.597-.856.597-1.512 0-.445-.14-.82-.421-1.125a2.886 2.886 0 0 0-1.09-.773 5.714 5.714 0 0 0-1.512-.457c-.562-.118-1.113-.2-1.652-.247a17.543 17.543 0 0 0-1.512-.07h-1.125c-2.016 0-3.855-.316-5.52-.95-1.64-.632-3.058-1.523-4.253-2.671-1.172-1.172-2.086-2.578-2.743-4.219-.656-1.664-.984-3.504-.984-5.52 0-2.765.551-5.238 1.652-7.417 1.125-2.203 2.614-4.067 4.465-5.59 1.875-1.547 4.02-2.73 6.434-3.55a23.097 23.097 0 0 1 7.488-1.231c1.148 0 2.332.047 3.551.14 1.219.07 2.426.211 3.621.422 1.219.211 2.402.48 3.551.809a20.92 20.92 0 0 1 3.269 1.23l-1.336 14.274a40.35 40.35 0 0 0-5.027-1.336 24.082 24.082 0 0 0-5.098-.563c-.304 0-.703.012-1.195.035-.469 0-.973.036-1.512.106a13 13 0 0 0-1.582.246 6.12 6.12 0 0 0-1.441.492 2.625 2.625 0 0 0-1.02.774 1.668 1.668 0 0 0-.351 1.16c.023.515.211.914.562 1.195.375.281.844.492 1.406.633a9.684 9.684 0 0 0 1.899.176c.703 0 1.394-.012 2.074-.035.68-.047 1.313-.082 1.899-.106a10.514 10.514 0 0 1 1.441-.035c1.875.117 3.562.516 5.062 1.195 1.5.68 2.766 1.582 3.797 2.707 1.055 1.125 1.852 2.473 2.391 4.043.562 1.547.844 3.258.844 5.133zm39.392-31.57l-.352 14.906-10.477.422-1.265 32.625-14.836.773-1.336-32.625-10.477.563.422-16.594 38.321-.07zM968.267 423c0 3.21-.563 5.988-1.688 8.332-1.101 2.32-2.625 4.242-4.57 5.766-1.922 1.5-4.184 2.613-6.785 3.34-2.578.703-5.356 1.054-8.332 1.054-1.149 0-2.414-.152-3.797-.457a49.931 49.931 0 0 1-4.149-1.125 82.867 82.867 0 0 1-4.078-1.476 97.074 97.074 0 0 1-3.445-1.512l1.547-13.781c1.992 1.195 4.195 2.109 6.609 2.742 2.438.61 4.828.914 7.172.914.445 0 .984-.012 1.617-.035a8.67 8.67 0 0 0 1.793-.317c.586-.187 1.078-.457 1.477-.808.398-.352.597-.856.597-1.512 0-.445-.14-.82-.421-1.125a2.886 2.886 0 0 0-1.09-.773 5.726 5.726 0 0 0-1.512-.457 14.1 14.1 0 0 0-1.652-.247 17.543 17.543 0 0 0-1.512-.07h-1.125c-2.016 0-3.856-.316-5.52-.95-1.64-.632-3.058-1.523-4.254-2.671-1.171-1.172-2.085-2.578-2.742-4.219-.656-1.664-.984-3.504-.984-5.52 0-2.765.551-5.238 1.652-7.417 1.125-2.203 2.614-4.067 4.465-5.59 1.875-1.547 4.02-2.73 6.434-3.55a23.097 23.097 0 0 1 7.488-1.231c1.148 0 2.332.047 3.551.14 1.219.07 2.426.211 3.621.422 1.219.211 2.402.48 3.551.809a20.92 20.92 0 0 1 3.269 1.23l-1.336 14.274a40.396 40.396 0 0 0-5.027-1.336 24.082 24.082 0 0 0-5.098-.563c-.304 0-.703.012-1.195.035-.469 0-.973.036-1.512.106a13 13 0 0 0-1.582.246 6.12 6.12 0 0 0-1.441.492 2.625 2.625 0 0 0-1.02.774 1.668 1.668 0 0 0-.351 1.16c.023.515.211.914.562 1.195.375.281.844.492 1.406.633a9.684 9.684 0 0 0 1.899.176c.703 0 1.394-.012 2.074-.035.68-.047 1.313-.082 1.899-.106a10.512 10.512 0 0 1 1.441-.035c1.875.117 3.562.516 5.062 1.195 1.5.68 2.766 1.582 3.797 2.707 1.055 1.125 1.852 2.473 2.391 4.043.562 1.547.844 3.258.844 5.133zm-541.221 40.43l-.352 14.906-10.476.422-1.266 32.625-14.836.773-1.336-32.625-10.476.563.422-16.594 38.32-.07zm45.474 22.64c0 2.133-.246 4.196-.738 6.188a23.735 23.735 0 0 1-2.145 5.554 22.601 22.601 0 0 1-3.375 4.782 21.165 21.165 0 0 1-4.465 3.691 21.935 21.935 0 0 1-5.379 2.426c-1.945.562-4.007.844-6.187.844-2.11 0-4.125-.27-6.047-.809a23.45 23.45 0 0 1-5.344-2.25 22.767 22.767 0 0 1-4.535-3.516 23.357 23.357 0 0 1-3.445-4.57 24.973 24.973 0 0 1-2.215-5.414 23.085 23.085 0 0 1-.774-6.012c0-2.039.247-4.03.739-5.976a24.722 24.722 0 0 1 2.109-5.555 24.498 24.498 0 0 1 3.375-4.781 22.357 22.357 0 0 1 4.395-3.762 21.478 21.478 0 0 1 5.308-2.46c1.899-.587 3.903-.88 6.012-.88 3.398 0 6.492.528 9.281 1.582 2.813 1.055 5.203 2.567 7.172 4.535 1.992 1.946 3.527 4.313 4.606 7.102 1.101 2.766 1.652 5.86 1.652 9.281zm-15.609.914c0-1.007-.153-1.98-.457-2.918a7.578 7.578 0 0 0-1.266-2.53 6.254 6.254 0 0 0-2.109-1.794c-.821-.469-1.77-.703-2.848-.703-1.102 0-2.086.2-2.953.598a6.835 6.835 0 0 0-2.25 1.652c-.61.68-1.078 1.488-1.407 2.426a8.575 8.575 0 0 0-.492 2.918c0 .984.141 1.969.422 2.953a8.762 8.762 0 0 0 1.266 2.672 6.79 6.79 0 0 0 2.074 1.933c.844.493 1.816.739 2.918.739s2.086-.211 2.953-.633a6.939 6.939 0 0 0 2.25-1.758 8.267 8.267 0 0 0 1.406-2.566 9.189 9.189 0 0 0 .493-2.989zm64.404 7.383l-1.476 15.61-29.602 2.32 1.125-50.203h18.282l-2.602 32.273h14.273zm20.724-30.867l-2.461 47.883-14.836.773-1.406-47.672 18.703-.984zm39.638 31.5c0 3.211-.562 5.988-1.687 8.332-1.102 2.32-2.625 4.242-4.571 5.766-1.921 1.5-4.183 2.613-6.785 3.34-2.578.703-5.355 1.054-8.332 1.054-1.148 0-2.414-.152-3.797-.457a50.146 50.146 0 0 1-4.148-1.125 83.322 83.322 0 0 1-4.078-1.476 96.418 96.418 0 0 1-3.446-1.512l1.547-13.781c1.993 1.195 4.196 2.109 6.61 2.742 2.437.609 4.828.914 7.172.914.445 0 .984-.012 1.617-.035a8.695 8.695 0 0 0 1.793-.317c.586-.187 1.078-.457 1.476-.808.399-.352.598-.856.598-1.512a1.6 1.6 0 0 0-.422-1.125 2.865 2.865 0 0 0-1.09-.773 5.678 5.678 0 0 0-1.511-.457c-.563-.118-1.114-.2-1.653-.247a17.864 17.864 0 0 0-1.512-.07h-1.125c-2.015 0-3.855-.316-5.519-.949-1.641-.633-3.059-1.524-4.254-2.672-1.172-1.172-2.086-2.578-2.742-4.219-.656-1.664-.985-3.504-.985-5.52 0-2.765.551-5.237 1.653-7.417 1.125-2.203 2.613-4.067 4.465-5.59 1.875-1.547 4.019-2.73 6.433-3.55a23.099 23.099 0 0 1 7.489-1.231c1.148 0 2.332.047 3.55.14 1.219.07 2.426.211 3.621.422 1.219.211 2.403.48 3.551.809 1.149.328 2.238.738 3.27 1.23l-1.336 14.274a40.412 40.412 0 0 0-5.028-1.336 24.073 24.073 0 0 0-5.097-.563c-.305 0-.703.012-1.196.035-.468 0-.972.036-1.511.106-.516.047-1.043.129-1.582.246a6.129 6.129 0 0 0-1.442.492 2.621 2.621 0 0 0-1.019.774 1.674 1.674 0 0 0-.352 1.16c.024.515.211.914.563 1.195.375.281.843.492 1.406.633a9.68 9.68 0 0 0 1.898.176c.704 0 1.395-.012 2.075-.036a66.085 66.085 0 0 1 1.898-.105 10.514 10.514 0 0 1 1.441-.035c1.875.117 3.563.515 5.063 1.195 1.5.68 2.766 1.582 3.797 2.707 1.055 1.125 1.851 2.473 2.39 4.043.563 1.547.844 3.258.844 5.133zm39.392-31.57l-.351 14.906-10.477.422-1.266 32.625-14.836.773-1.335-32.625-10.477.563.422-16.594 38.32-.07zm41.255 21.164c0 2.039-.14 4.078-.422 6.117-4.007.258-7.992.68-11.953 1.266l-11.882 1.687c.609 1.688 1.558 3.035 2.847 4.043 1.313 1.008 2.871 1.512 4.676 1.512.937 0 1.957-.176 3.059-.528a26.523 26.523 0 0 0 3.339-1.3 40.485 40.485 0 0 0 3.164-1.723 60.766 60.766 0 0 0 2.602-1.652l-1.687 15.961c-.915.703-1.911 1.3-2.989 1.793-1.054.492-2.156.89-3.304 1.195a25.351 25.351 0 0 1-3.481.668c-1.172.14-2.32.211-3.445.211-2.321 0-4.442-.317-6.364-.949a19.316 19.316 0 0 1-5.238-2.637 20.21 20.21 0 0 1-4.078-4.043 23.553 23.553 0 0 1-2.918-5.063 29.287 29.287 0 0 1-1.758-5.8 32.235 32.235 0 0 1-.597-6.188c0-2.18.199-4.36.597-6.539.399-2.18.996-4.277 1.793-6.293a27.41 27.41 0 0 1 3.059-5.59 22.07 22.07 0 0 1 4.324-4.535c1.641-1.289 3.492-2.297 5.555-3.023 2.086-.727 4.383-1.09 6.89-1.09 2.086 0 3.985.293 5.696.879 1.734.562 3.269 1.359 4.605 2.39a15.636 15.636 0 0 1 3.516 3.621 19.945 19.945 0 0 1 2.461 4.641 25.667 25.667 0 0 1 1.441 5.309 32.38 32.38 0 0 1 .492 5.66zm-14.062-1.828c0-.657-.07-1.325-.211-2.004a6.132 6.132 0 0 0-.703-1.899 3.855 3.855 0 0 0-1.231-1.37c-.515-.376-1.16-.563-1.933-.563-.938 0-1.77.258-2.496.773a7.067 7.067 0 0 0-1.829 1.899 11.11 11.11 0 0 0-1.265 2.46 18.842 18.842 0 0 0-.738 2.461l10.406-.984v-.773zm60.732 12.445c0 2.648-.036 5.273-.106 7.875-.047 2.578-.129 5.18-.246 7.805l-20.25-.352a288.77 288.77 0 0 0 1.828-12.41c.516-4.149.774-8.332.774-12.55 0-.306-.012-.798-.036-1.477-.023-.68-.07-1.442-.14-2.286a35.252 35.252 0 0 0-.317-2.636 14.626 14.626 0 0 0-.527-2.496c-.211-.75-.48-1.36-.809-1.828-.304-.493-.679-.739-1.125-.739-.796 0-1.476.235-2.039.703-.539.47-.996 1.078-1.371 1.828a11.695 11.695 0 0 0-.844 2.461c-.21.914-.375 1.829-.492 2.743a59.29 59.29 0 0 0-.211 2.601 70.989 70.989 0 0 0-.035 1.969c-.117 4.148-.211 8.273-.281 12.375-.07 4.078-.164 8.203-.281 12.375l-17.93.773c.469-8.273.914-16.5 1.336-24.68.445-8.18.797-16.406 1.055-24.68l16.593-.843-.14 5.625a23.909 23.909 0 0 1 2.109-2.25c.774-.703 1.594-1.3 2.461-1.793a11.866 11.866 0 0 1 2.742-1.195 10.408 10.408 0 0 1 3.094-.457c1.992 0 3.738.328 5.238.984 1.5.657 2.789 1.547 3.867 2.672 1.079 1.125 1.981 2.461 2.708 4.008a26.828 26.828 0 0 1 1.757 4.887c.446 1.734.785 3.55 1.02 5.449a64.9 64.9 0 0 1 .457 5.555c.094 1.828.141 3.597.141 5.308v4.676zm56.072-31.781l-.351 14.906-10.477.422-1.265 32.625-14.836.773-1.336-32.625-10.477.563.422-16.594 38.32-.07zm45.474 22.64c0 2.133-.246 4.196-.738 6.188a23.69 23.69 0 0 1-2.145 5.554 22.601 22.601 0 0 1-3.375 4.782 21.16 21.16 0 0 1-4.464 3.691 21.969 21.969 0 0 1-5.379 2.426c-1.946.562-4.008.844-6.188.844-2.109 0-4.125-.27-6.047-.809a23.442 23.442 0 0 1-5.343-2.25 22.802 22.802 0 0 1-4.536-3.516 23.396 23.396 0 0 1-3.445-4.57 25.023 25.023 0 0 1-2.215-5.414 23.128 23.128 0 0 1-.773-6.012c0-2.039.246-4.03.738-5.976a24.677 24.677 0 0 1 2.11-5.555 24.413 24.413 0 0 1 3.375-4.781 22.351 22.351 0 0 1 4.394-3.762 21.485 21.485 0 0 1 5.309-2.46c1.898-.587 3.902-.88 6.011-.88 3.399 0 6.493.528 9.282 1.582 2.812 1.055 5.203 2.567 7.171 4.536 1.993 1.945 3.528 4.312 4.606 7.101 1.102 2.766 1.652 5.86 1.652 9.281zm-15.609.914c0-1.007-.152-1.98-.457-2.918a7.54 7.54 0 0 0-1.266-2.53 6.235 6.235 0 0 0-2.109-1.794c-.82-.469-1.77-.703-2.848-.703-1.101 0-2.086.2-2.953.598a6.835 6.835 0 0 0-2.25 1.652 7.102 7.102 0 0 0-1.406 2.426 8.575 8.575 0 0 0-.492 2.918c0 .984.14 1.969.422 2.953a8.783 8.783 0 0 0 1.265 2.672 6.8 6.8 0 0 0 2.074 1.933c.844.493 1.817.739 2.918.739 1.102 0 2.086-.211 2.953-.633a6.939 6.939 0 0 0 2.25-1.758 8.249 8.249 0 0 0 1.407-2.566 9.188 9.188 0 0 0 .492-2.989zM585.476 120.535h-9.048v18.143h9.048v-18.143zm-18.096 0h-9.048v18.143h9.048v-18.143zm36.192 0h-9.048v18.143h9.048v-18.143zm18.095 0h-9.048v18.143h9.048v-18.143zm22.621 122.268h-22.62v9.071h22.62v-9.071zm0 18.143h-22.62v9.071h22.62v-9.071zm0-36.286h-22.62v9.072h22.62v-9.072zm0-18.143h-22.62v9.071h22.62v-9.071zm0-18.142h-22.62v9.071h22.62v-9.071zm0-18.143h-22.62v9.071h22.62v-9.071zm0-17.946h-22.62v9.071h22.62v-9.071zm-85.761 90.517h-22.62v9.071h22.62v-9.071zm0 18.143h-22.62v9.071h22.62v-9.071zm0-36.286h-22.62v9.072h22.62v-9.072zm0-18.143h-22.62v9.071h22.62v-9.071zm0-18.142h-22.62v9.071h22.62v-9.071zm0-18.143h-22.62v9.071h22.62v-9.071zm0-17.946h-22.62v9.071h22.62v-9.071zm26.949 131.142h-9.048v18.143h9.048v-18.143zm-18.096 0h-9.048v18.143h9.048v-18.143zm36.192 0h-9.048v18.143h9.048v-18.143zm18.095 0h-9.048v18.143h9.048v-18.143z" fill="#212529"/><path d="M622.455 306.107h-65.107c-14.359 0-26.16-11.833-26.16-26.229v-137.65c0-14.396 11.801-26.228 26.16-26.228h65.107c14.359 0 26.161 11.832 26.161 26.228v137.65c.196 14.396-11.606 26.229-26.161 26.229zm-64.91-181.036c-9.441 0-17.112 7.692-17.112 17.157v137.65c0 9.466 7.67 17.157 17.112 17.157h65.107c9.441 0 17.112-7.691 17.112-17.157v-137.65c0-9.465-7.671-17.157-17.112-17.157h-65.107z" fill="#212529"/><path d="M608.094 211.053c0 10.058-8.064 18.143-18.096 18.143s-18.096-8.085-18.096-18.143c0-10.057 8.064-18.143 18.096-18.143s18.096 8.086 18.096 18.143z" fill="#FFCD30"/><path d="M590 233.732c-12.393 0-22.621-10.254-22.621-22.678 0-12.424 10.228-22.679 22.62-22.679 12.392 0 22.62 10.057 22.62 22.679 0 12.62-10.228 22.678-22.62 22.678zm0-36.286c-7.475 0-13.573 6.114-13.573 13.608 0 7.493 6.098 13.607 13.572 13.607 7.474 0 13.572-6.114 13.572-13.607 0-7.494-6.098-13.608-13.572-13.608z" fill="#212529"/><path d="M594.524 206.518h-9.048v9.071h9.048v-9.071zm9.048 117.732h-27.144c-2.36 0-4.72-.986-6.294-2.563-1.77-1.775-2.557-3.945-2.557-6.311v-13.607h9.048v13.607h27.144v-13.607h9.048v13.607c0 2.367-.983 4.733-2.557 6.31-1.967 1.578-4.328 2.564-6.688 2.564z" fill="#212529"/><path d="M603.572 319.714h-9.048V356h9.048v-36.286zm-18.096 0h-9.048V356h9.048v-36.286z" fill="#212529"/><path d="M684.809 161.16h-9.048v99.59h9.048v-99.59zm-18.097 27.215h-9.048v45.357h9.048v-45.357zm36.193 0h-9.048v45.357h9.048v-45.357zM721 201.981h-9.049v18.143h9.048v-18.143zM504.24 161.16h-9.047v99.59h9.048v-99.59zm18.095 27.215h-9.048v45.357h9.048v-45.357zm-36.19 0h-9.048v45.357h9.048v-45.357zm-18.097 13.606H459v18.143h9.048v-18.143z" fill="#12ABE3"/></g><defs><clipPath id="a"><path fill="#fff" d="M0 0h1200v800H0z"/></clipPath></defs></svg>