<svg width="1200" height="800" viewBox="0 0 1200 800" fill="none" xmlns="http://www.w3.org/2000/svg"><g clip-path="url(#a)"><path fill="#fff" d="M0 0h1200v800H0z"/><path fill="#fff" d="M0 0h1200v800H0z"/><path d="M1228.99 570.668C690.658 601.782 210.7 684.304-159 801.323l1387.99.002V570.668z" fill="#EF4631"/><path d="M1229 634.926c-516.713 13.527-992.348 73.051-1381.5 166.396l1381.5.002V634.926z" fill="#12ABE3"/><path d="M1229 704.597c-38.916-.676-77.831-.676-116.747-.676-441.043-.001-856.143 35.172-1217.193 98.078L1229 802v-97.404z" fill="#2EB349"/><path d="M1229 764.8a7969.025 7969.025 0 0 0-428.072-11.5c-311.325-.001-607.518 16.909-884.248 48.023l1312.32.002V764.8z" fill="#FFCD30"/><path d="M384.095 392.203l-8.227 48.727-19.968.422-4.289-25.243-4.289 23.414-19.969.704-8.297-48.024 17.437-1.547 3.516 29.18 4.711-29.18h13.711l5.484 29.531 2.813-29.53 17.367 1.546zm40.868 20.39c0 2.04-.14 4.079-.421 6.118-4.008.258-7.993.68-11.954 1.266l-11.882 1.687c.609 1.688 1.558 3.035 2.847 4.043 1.313 1.008 2.871 1.512 4.676 1.512.938 0 1.957-.176 3.059-.528a26.528 26.528 0 0 0 3.339-1.3 40.586 40.586 0 0 0 3.165-1.723 60.84 60.84 0 0 0 2.601-1.652l-1.687 15.96a15.264 15.264 0 0 1-2.989 1.793 19.752 19.752 0 0 1-3.304 1.196 25.336 25.336 0 0 1-3.481.668c-1.172.14-2.32.21-3.445.21-2.32 0-4.442-.316-6.363-.949a19.302 19.302 0 0 1-5.239-2.636 20.197 20.197 0 0 1-4.078-4.043 23.54 23.54 0 0 1-2.918-5.063 29.296 29.296 0 0 1-1.758-5.8 32.224 32.224 0 0 1-.597-6.188c0-2.18.199-4.36.597-6.539.399-2.18.996-4.277 1.793-6.293a27.41 27.41 0 0 1 3.059-5.59 22.095 22.095 0 0 1 4.324-4.535c1.641-1.289 3.492-2.297 5.555-3.023 2.086-.727 4.383-1.09 6.89-1.09 2.086 0 3.985.293 5.696.879 1.734.562 3.269 1.359 4.605 2.39a15.637 15.637 0 0 1 3.516 3.621 19.946 19.946 0 0 1 2.461 4.641 25.605 25.605 0 0 1 1.441 5.309 32.38 32.38 0 0 1 .492 5.66zm-14.062-1.827c0-.657-.07-1.325-.211-2.004a6.132 6.132 0 0 0-.703-1.899 3.855 3.855 0 0 0-1.231-1.37c-.515-.376-1.16-.563-1.933-.563-.938 0-1.77.258-2.496.773a7.064 7.064 0 0 0-1.828 1.899 11.07 11.07 0 0 0-1.266 2.46 18.842 18.842 0 0 0-.738 2.461l10.406-.984v-.773zm58.025 17.718c0 1.946-.364 3.622-1.09 5.028a10.914 10.914 0 0 1-2.848 3.586c-1.195.984-2.578 1.793-4.148 2.425a29.768 29.768 0 0 1-4.852 1.442 37.533 37.533 0 0 1-5.098.703 68.7 68.7 0 0 1-4.746.176c-1.453 0-2.965-.059-4.535-.176a44.61 44.61 0 0 1-4.64-.527 42.939 42.939 0 0 1-4.571-1.02 27.165 27.165 0 0 1-4.254-1.652l-.07-45.282a39.769 39.769 0 0 1 4.184-1.44 41.882 41.882 0 0 1 4.5-1.09 45.402 45.402 0 0 1 4.605-.669c1.524-.164 3-.246 4.43-.246 1.664 0 3.34.106 5.027.317a27.72 27.72 0 0 1 4.922 1.054 21.21 21.21 0 0 1 4.395 1.934 13.7 13.7 0 0 1 3.55 2.883c1.032 1.148 1.828 2.484 2.391 4.007.586 1.524.879 3.282.879 5.274a11.82 11.82 0 0 1-.563 3.691 10.247 10.247 0 0 1-1.617 3.094 10.28 10.28 0 0 1-2.566 2.356c-1.008.632-2.145 1.101-3.41 1.406 1.523.398 2.906.984 4.148 1.758a11.957 11.957 0 0 1 3.199 2.812 11.98 11.98 0 0 1 2.039 3.727c.492 1.382.739 2.86.739 4.43zm-17.86-20.039c0-.68-.14-1.254-.422-1.722a3.726 3.726 0 0 0-1.054-1.196 3.985 3.985 0 0 0-1.336-.668 4.459 4.459 0 0 0-1.266-.21c-.469 0-.926.07-1.371.21-.445.141-.879.305-1.301.493l-.211 7.804c.539 0 1.207-.047 2.004-.14a8.414 8.414 0 0 0 2.285-.598 5.164 5.164 0 0 0 1.899-1.406c.515-.633.773-1.489.773-2.567zm-4.992 11.461c-.68 0-1.336.07-1.969.211l-.14 8.016c.351.07.691.14 1.019.21.352.048.692.071 1.02.071.492 0 1.031-.047 1.617-.14a5.24 5.24 0 0 0 1.652-.633 3.949 3.949 0 0 0 1.266-1.301c.351-.54.527-1.254.527-2.145 0-.89-.176-1.617-.527-2.18-.328-.562-.738-.996-1.231-1.3a4.029 4.029 0 0 0-1.617-.633 8.292 8.292 0 0 0-1.617-.176zM507.157 423c0 3.21-.562 5.988-1.687 8.332-1.102 2.32-2.625 4.242-4.571 5.766-1.921 1.5-4.183 2.613-6.785 3.34-2.578.703-5.355 1.054-8.332 1.054-1.148 0-2.414-.152-3.797-.457a49.911 49.911 0 0 1-4.148-1.125 82.495 82.495 0 0 1-4.078-1.476 96.274 96.274 0 0 1-3.445-1.512l1.546-13.781c1.993 1.195 4.196 2.109 6.61 2.742 2.437.61 4.828.914 7.172.914.445 0 .984-.012 1.617-.035a8.682 8.682 0 0 0 1.793-.317c.586-.187 1.078-.457 1.476-.808.399-.352.598-.856.598-1.512a1.6 1.6 0 0 0-.422-1.125 2.87 2.87 0 0 0-1.09-.773 5.707 5.707 0 0 0-1.511-.458 14.178 14.178 0 0 0-1.653-.246 17.538 17.538 0 0 0-1.511-.07h-1.125c-2.016 0-3.856-.316-5.52-.95-1.641-.632-3.059-1.523-4.254-2.671-1.172-1.172-2.086-2.578-2.742-4.219-.656-1.664-.984-3.504-.984-5.52 0-2.765.55-5.238 1.652-7.417 1.125-2.203 2.613-4.067 4.465-5.59 1.875-1.547 4.019-2.73 6.433-3.55a23.099 23.099 0 0 1 7.489-1.231c1.148 0 2.332.047 3.55.14 1.219.07 2.426.211 3.621.422 1.219.211 2.403.48 3.551.809a20.89 20.89 0 0 1 3.27 1.23l-1.336 14.274a40.442 40.442 0 0 0-5.027-1.336 24.09 24.09 0 0 0-5.098-.563c-.305 0-.703.012-1.195.035-.469 0-.973.036-1.512.106-.516.047-1.043.129-1.582.246a6.129 6.129 0 0 0-1.442.492 2.629 2.629 0 0 0-1.019.774 1.674 1.674 0 0 0-.352 1.16c.024.515.211.914.563 1.195.375.281.844.492 1.406.633a9.68 9.68 0 0 0 1.898.176c.704 0 1.395-.012 2.075-.036a66.085 66.085 0 0 1 1.898-.105 10.528 10.528 0 0 1 1.442-.035c1.875.117 3.562.515 5.062 1.195 1.5.68 2.766 1.582 3.797 2.707 1.055 1.125 1.851 2.473 2.391 4.043.562 1.547.843 3.258.843 5.133zm21.357-31.5l-2.461 47.883-14.836.773-1.406-47.672 18.703-.984zm40.833-.07l-.351 14.906-10.477.422-1.265 32.625-14.836.773-1.336-32.625-10.477.563.422-16.594 38.32-.07zm41.255 21.164c0 2.039-.14 4.078-.421 6.117-4.008.258-7.993.68-11.954 1.266l-11.882 1.687c.609 1.688 1.558 3.035 2.847 4.043 1.313 1.008 2.871 1.512 4.676 1.512.938 0 1.957-.176 3.059-.528a26.528 26.528 0 0 0 3.339-1.3 40.586 40.586 0 0 0 3.165-1.723 60.84 60.84 0 0 0 2.601-1.652l-1.687 15.96a15.264 15.264 0 0 1-2.989 1.793 19.752 19.752 0 0 1-3.304 1.196 25.336 25.336 0 0 1-3.481.668c-1.172.14-2.32.21-3.445.21-2.32 0-4.442-.316-6.363-.949a19.302 19.302 0 0 1-5.239-2.636 20.197 20.197 0 0 1-4.078-4.043 23.54 23.54 0 0 1-2.918-5.063 29.296 29.296 0 0 1-1.758-5.8 32.224 32.224 0 0 1-.597-6.188c0-2.18.199-4.36.597-6.539.399-2.18.996-4.277 1.793-6.293a27.41 27.41 0 0 1 3.059-5.59 22.095 22.095 0 0 1 4.324-4.535c1.641-1.289 3.492-2.297 5.555-3.023 2.086-.727 4.383-1.09 6.89-1.09 2.086 0 3.985.293 5.696.879 1.734.562 3.269 1.359 4.605 2.39a15.617 15.617 0 0 1 3.516 3.621 19.946 19.946 0 0 1 2.461 4.641 25.605 25.605 0 0 1 1.441 5.309 32.38 32.38 0 0 1 .492 5.66zm-14.062-1.828c0-.657-.07-1.325-.211-2.004a6.132 6.132 0 0 0-.703-1.899 3.855 3.855 0 0 0-1.231-1.37c-.515-.376-1.16-.563-1.933-.563-.938 0-1.77.257-2.496.773a7.064 7.064 0 0 0-1.828 1.899 11.07 11.07 0 0 0-1.266 2.46 18.842 18.842 0 0 0-.738 2.461l10.406-.984v-.773zm71.717 2.32c0 3.281-.422 6.223-1.265 8.824-.844 2.602-2.028 4.91-3.551 6.926a22.255 22.255 0 0 1-5.379 5.098 31.94 31.94 0 0 1-6.855 3.48c-2.485.89-5.133 1.547-7.946 1.969-2.789.422-5.66.633-8.613.633-1.102 0-2.18-.024-3.234-.07a82.592 82.592 0 0 1-3.235-.282l.985-45.773a43.216 43.216 0 0 1 7.945-1.723 64.084 64.084 0 0 1 8.156-.527c3.352 0 6.434.468 9.246 1.406 2.813.937 5.239 2.32 7.278 4.148 2.039 1.805 3.621 4.043 4.746 6.715 1.148 2.649 1.722 5.707 1.722 9.176zm-23.906 13.5c1.406-.211 2.684-.633 3.832-1.266a11.756 11.756 0 0 0 3.024-2.39 10.34 10.34 0 0 0 1.933-3.235c.469-1.218.703-2.508.703-3.867 0-1.336-.14-2.578-.422-3.726-.281-1.172-.738-2.18-1.371-3.024-.633-.867-1.465-1.547-2.496-2.039-1.031-.516-2.297-.797-3.797-.844l-1.406 20.39zm66.076-13.992c0 2.039-.141 4.078-.422 6.117-4.008.258-7.993.68-11.953 1.266l-11.883 1.687c.609 1.688 1.558 3.035 2.847 4.043 1.313 1.008 2.871 1.512 4.676 1.512.938 0 1.957-.176 3.059-.528a26.6 26.6 0 0 0 3.34-1.3 40.747 40.747 0 0 0 3.164-1.723 60.84 60.84 0 0 0 2.601-1.652l-1.687 15.96a15.235 15.235 0 0 1-2.989 1.793 19.752 19.752 0 0 1-3.304 1.196 25.336 25.336 0 0 1-3.481.668c-1.172.14-2.32.21-3.445.21-2.32 0-4.441-.316-6.363-.949a19.302 19.302 0 0 1-5.239-2.636 20.223 20.223 0 0 1-4.078-4.043 23.54 23.54 0 0 1-2.918-5.063 29.296 29.296 0 0 1-1.758-5.8 32.224 32.224 0 0 1-.597-6.188c0-2.18.199-4.36.597-6.539.399-2.18.997-4.277 1.793-6.293a27.41 27.41 0 0 1 3.059-5.59 22.095 22.095 0 0 1 4.324-4.535c1.641-1.289 3.492-2.297 5.555-3.023 2.086-.727 4.383-1.09 6.891-1.09 2.086 0 3.984.293 5.695.879 1.734.562 3.269 1.359 4.605 2.39a15.617 15.617 0 0 1 3.516 3.621 19.946 19.946 0 0 1 2.461 4.641 25.605 25.605 0 0 1 1.441 5.309 32.38 32.38 0 0 1 .493 5.66zm-14.063-1.828c0-.657-.07-1.325-.211-2.004a6.132 6.132 0 0 0-.703-1.899 3.855 3.855 0 0 0-1.231-1.37c-.515-.376-1.16-.563-1.933-.563-.938 0-1.77.257-2.496.773a7.064 7.064 0 0 0-1.828 1.899 11.07 11.07 0 0 0-1.266 2.46 18.842 18.842 0 0 0-.738 2.461l10.406-.984v-.773zM749.502 423c0 3.21-.563 5.988-1.688 8.332-1.101 2.32-2.625 4.242-4.57 5.766-1.922 1.5-4.183 2.613-6.785 3.34-2.578.703-5.355 1.054-8.332 1.054-1.148 0-2.414-.152-3.797-.457a49.911 49.911 0 0 1-4.148-1.125 82.127 82.127 0 0 1-4.078-1.476 96.381 96.381 0 0 1-3.446-1.512l1.547-13.781c1.992 1.195 4.195 2.109 6.609 2.742 2.438.61 4.829.914 7.172.914.446 0 .985-.012 1.618-.035a8.672 8.672 0 0 0 1.792-.317c.586-.187 1.079-.457 1.477-.808.398-.352.598-.856.598-1.512a1.6 1.6 0 0 0-.422-1.125 2.878 2.878 0 0 0-1.09-.773 5.703 5.703 0 0 0-1.512-.458 14.13 14.13 0 0 0-1.652-.246 17.543 17.543 0 0 0-1.512-.07h-1.125c-2.015 0-3.855-.316-5.519-.95-1.641-.632-3.059-1.523-4.254-2.671-1.172-1.172-2.086-2.578-2.742-4.219-.657-1.664-.985-3.504-.985-5.52 0-2.765.551-5.238 1.653-7.417 1.125-2.203 2.613-4.067 4.464-5.59 1.875-1.547 4.02-2.73 6.434-3.55a23.097 23.097 0 0 1 7.488-1.231c1.149 0 2.332.047 3.551.14 1.219.07 2.426.211 3.621.422 1.219.211 2.402.48 3.551.809a20.92 20.92 0 0 1 3.269 1.23l-1.335 14.274a40.412 40.412 0 0 0-5.028-1.336 24.073 24.073 0 0 0-5.097-.563c-.305 0-.704.012-1.196.035-.469 0-.972.036-1.512.106a13.03 13.03 0 0 0-1.582.246 6.12 6.12 0 0 0-1.441.492 2.614 2.614 0 0 0-1.019.774 1.674 1.674 0 0 0-.352 1.16c.023.515.211.914.562 1.195.375.281.844.492 1.407.633a9.674 9.674 0 0 0 1.898.176c.703 0 1.395-.012 2.074-.036a67.74 67.74 0 0 1 1.899-.105 10.514 10.514 0 0 1 1.441-.035c1.875.117 3.563.515 5.063 1.195 1.5.68 2.765 1.582 3.797 2.707 1.054 1.125 1.851 2.473 2.39 4.043.563 1.547.844 3.258.844 5.133zm21.357-31.5l-2.461 47.883-14.836.773-1.406-47.672 18.703-.984zm46.106 41.625c-1.101 1.383-2.46 2.59-4.078 3.621a26.841 26.841 0 0 1-5.203 2.566 34.08 34.08 0 0 1-5.695 1.547c-1.945.328-3.797.493-5.555.493-3.398 0-6.527-.575-9.387-1.723-2.859-1.149-5.332-2.742-7.417-4.781-2.063-2.063-3.68-4.512-4.852-7.348-1.172-2.836-1.758-5.93-1.758-9.281 0-2.555.293-5.04.879-7.453a30.832 30.832 0 0 1 2.496-6.786 28.441 28.441 0 0 1 4.008-5.8 25.38 25.38 0 0 1 5.344-4.535 24.972 24.972 0 0 1 6.539-2.918c2.39-.704 4.922-1.055 7.594-1.055 1.007 0 2.085.047 3.234.14 1.148.07 2.285.211 3.41.422 1.148.188 2.262.457 3.34.809 1.078.352 2.062.785 2.953 1.3l-.984 13.43a17.274 17.274 0 0 0-4.078-.984 30.345 30.345 0 0 0-4.079-.281c-1.875 0-3.632.258-5.273.773-1.617.492-3.035 1.23-4.254 2.215-1.195.984-2.144 2.215-2.848 3.691-.703 1.477-1.054 3.188-1.054 5.133 0 1.22.164 2.403.492 3.551a9.563 9.563 0 0 0 1.476 3.023 8.043 8.043 0 0 0 2.497 2.11c1.007.539 2.168.808 3.48.808.891 0 1.805-.117 2.742-.351.961-.234 1.781-.633 2.461-1.195l.141-2.743-8.438-.14.422-10.547c3.492-.117 6.985-.211 10.477-.281a819.3 819.3 0 0 0 10.547-.352l.421 22.922zm47.056-9.914c0 2.648-.035 5.273-.105 7.875-.047 2.578-.129 5.18-.246 7.805l-20.25-.352a288.895 288.895 0 0 0 1.828-12.41c.516-4.149.773-8.332.773-12.55 0-.306-.011-.798-.035-1.477-.023-.68-.07-1.442-.14-2.286a35.252 35.252 0 0 0-.317-2.636 14.626 14.626 0 0 0-.527-2.496c-.211-.75-.481-1.36-.809-1.829-.304-.492-.679-.738-1.125-.738-.797 0-1.476.235-2.039.703-.539.47-.996 1.078-1.371 1.828a11.695 11.695 0 0 0-.844 2.461 27.975 27.975 0 0 0-.492 2.743 57.785 57.785 0 0 0-.211 2.601 70.989 70.989 0 0 0-.035 1.969c-.117 4.148-.211 8.273-.281 12.375-.071 4.078-.164 8.203-.281 12.375l-17.93.773c.469-8.273.914-16.5 1.336-24.68.445-8.18.797-16.406 1.054-24.68l16.594-.843-.14 5.625a23.914 23.914 0 0 1 2.109-2.25 13.77 13.77 0 0 1 2.461-1.793 11.863 11.863 0 0 1 2.742-1.195 10.404 10.404 0 0 1 3.094-.457c1.992 0 3.738.328 5.238.984 1.5.656 2.789 1.547 3.867 2.672 1.078 1.125 1.981 2.461 2.707 4.008a26.753 26.753 0 0 1 1.758 4.887c.445 1.734.785 3.55 1.02 5.449.234 1.875.386 3.726.457 5.555.093 1.828.14 3.597.14 5.308v4.676zm-367.464 57.375c0 2.273-.34 4.289-1.02 6.047-.679 1.758-1.617 3.304-2.812 4.64a16.54 16.54 0 0 1-4.149 3.34 27.975 27.975 0 0 1-5.132 2.215 36.4 36.4 0 0 1-5.625 1.266 48.282 48.282 0 0 1-5.731.422v14.976h-16.383v-7.804c.024-2.532.036-5.04.036-7.524.023-2.508.035-5.027.035-7.559.023-2.53.047-5.144.07-7.84.047-2.859.059-5.718.035-8.577-.023-2.86.035-5.743.176-8.649 3-.89 6-1.558 9-2.004 3-.445 6.094-.668 9.281-.668 1.805 0 3.61.153 5.414.457 1.805.282 3.528.739 5.168 1.371a21.99 21.99 0 0 1 4.606 2.39 15.392 15.392 0 0 1 3.691 3.376c1.031 1.312 1.84 2.812 2.426 4.5.609 1.687.914 3.562.914 5.625zm-15.609 1.195c0-1.523-.469-2.707-1.407-3.55-.914-.868-2.109-1.301-3.586-1.301a9.03 9.03 0 0 0-1.546.14 13.74 13.74 0 0 0-1.477.282l-.422 10.265c.328.047.645.07.949.07h.95c.843 0 1.652-.14 2.425-.421.797-.282 1.5-.68 2.11-1.196a6.13 6.13 0 0 0 1.441-1.863c.375-.727.563-1.535.563-2.426zm59.536-2.672c0 1.828-.164 3.493-.492 4.993a14.58 14.58 0 0 1-1.477 4.078 14.643 14.643 0 0 1-2.636 3.445c-1.079 1.055-2.379 2.063-3.903 3.023l8.367 14.907-15.82 3.093-5.414-14.976-4.359.14-.633 14.626H499c.117-5.344.222-10.665.316-15.961.117-5.297.246-10.618.387-15.961l.14-8.016c.047-2.648.141-5.32.282-8.016a45.858 45.858 0 0 1 4.851-1.511 42.939 42.939 0 0 1 4.781-.914 48.573 48.573 0 0 1 4.887-.457 90.58 90.58 0 0 1 5.098-.141c2.672 0 5.25.375 7.734 1.125 2.508.726 4.723 1.828 6.645 3.305 1.922 1.476 3.457 3.316 4.605 5.52 1.172 2.202 1.758 4.769 1.758 7.698zm-15.75 1.125c0-.984-.141-1.886-.422-2.707a5.507 5.507 0 0 0-1.195-2.109c-.516-.61-1.172-1.078-1.969-1.406-.773-.352-1.687-.528-2.742-.528a8.69 8.69 0 0 0-1.371.106 7.971 7.971 0 0 0-1.301.246l-.563 13.078h.844c1.008 0 2.028-.129 3.059-.387 1.055-.258 1.992-.656 2.812-1.195a6.374 6.374 0 0 0 2.039-2.074c.539-.844.809-1.852.809-3.024zm62.384 5.836c0 2.133-.246 4.196-.738 6.188a23.69 23.69 0 0 1-2.145 5.554 22.601 22.601 0 0 1-3.375 4.782 21.165 21.165 0 0 1-4.465 3.691 21.935 21.935 0 0 1-5.379 2.426c-1.945.562-4.007.844-6.187.844-2.109 0-4.125-.27-6.047-.809a23.45 23.45 0 0 1-5.344-2.25 22.796 22.796 0 0 1-4.535-3.516 23.357 23.357 0 0 1-3.445-4.57 24.973 24.973 0 0 1-2.215-5.414 23.085 23.085 0 0 1-.773-6.012c0-2.039.246-4.03.738-5.976a24.722 24.722 0 0 1 2.109-5.555 24.498 24.498 0 0 1 3.375-4.781 22.386 22.386 0 0 1 4.395-3.762 21.478 21.478 0 0 1 5.308-2.46c1.899-.587 3.903-.88 6.012-.88 3.399 0 6.492.528 9.281 1.582 2.813 1.055 5.203 2.567 7.172 4.535 1.992 1.946 3.528 4.313 4.606 7.102 1.101 2.766 1.652 5.86 1.652 9.281zm-15.609.914c0-1.007-.153-1.98-.457-2.918-.282-.96-.703-1.804-1.266-2.53a6.245 6.245 0 0 0-2.109-1.794c-.821-.469-1.77-.703-2.848-.703-1.102 0-2.086.2-2.953.598a6.835 6.835 0 0 0-2.25 1.652c-.61.68-1.078 1.488-1.406 2.426a8.55 8.55 0 0 0-.493 2.918c0 .984.141 1.969.422 2.953a8.785 8.785 0 0 0 1.266 2.672 6.79 6.79 0 0 0 2.074 1.933c.844.493 1.817.739 2.918.739 1.102 0 2.086-.211 2.953-.633a6.939 6.939 0 0 0 2.25-1.758 8.246 8.246 0 0 0 1.406-2.566 9.162 9.162 0 0 0 .493-2.989zm52.329-22.007l-1.266 14.835a12.537 12.537 0 0 0-2.004-.386 18.791 18.791 0 0 0-2.003-.106c-1.664 0-3.258.211-4.782.633-1.5.422-2.836 1.066-4.007 1.934-1.149.867-2.075 1.968-2.778 3.304-.68 1.313-1.019 2.871-1.019 4.676 0 1.313.187 2.461.562 3.445.399.961.949 1.77 1.652 2.426.727.633 1.594 1.114 2.602 1.442 1.031.328 2.168.492 3.41.492.867 0 1.758-.082 2.672-.246a24.014 24.014 0 0 0 5.379-1.793 24.727 24.727 0 0 0 2.355-1.266l-.562 16.524c-.914.468-1.898.89-2.953 1.265a35.152 35.152 0 0 1-3.27.914 26.964 26.964 0 0 1-3.34.633 24.931 24.931 0 0 1-3.164.211c-3.328 0-6.363-.621-9.105-1.863-2.719-1.242-5.063-2.93-7.031-5.063-1.946-2.156-3.457-4.652-4.535-7.488-1.079-2.836-1.618-5.859-1.618-9.07 0-3.844.539-7.43 1.618-10.758 1.101-3.328 2.707-6.211 4.816-8.649 2.133-2.46 4.758-4.382 7.875-5.765 3.141-1.406 6.738-2.11 10.793-2.11 1.617 0 3.258.13 4.922.387a17.88 17.88 0 0 1 4.781 1.442zm43.329 19.617c0 2.039-.14 4.078-.421 6.117-4.008.258-7.993.68-11.954 1.266l-11.882 1.687c.609 1.688 1.558 3.035 2.847 4.043 1.313 1.008 2.871 1.512 4.676 1.512.938 0 1.957-.176 3.059-.528a26.523 26.523 0 0 0 3.339-1.3 40.69 40.69 0 0 0 3.165-1.723 60.672 60.672 0 0 0 2.601-1.652l-1.687 15.961c-.914.703-1.911 1.3-2.989 1.793-1.054.492-2.156.89-3.304 1.195a25.351 25.351 0 0 1-3.481.668c-1.172.14-2.32.211-3.445.211-2.32 0-4.442-.317-6.363-.949a19.308 19.308 0 0 1-5.239-2.637 20.21 20.21 0 0 1-4.078-4.043 23.553 23.553 0 0 1-2.918-5.063 29.287 29.287 0 0 1-1.758-5.8 32.235 32.235 0 0 1-.597-6.188c0-2.18.199-4.36.597-6.539.399-2.18.996-4.277 1.793-6.293a27.41 27.41 0 0 1 3.059-5.59 22.096 22.096 0 0 1 4.324-4.535c1.641-1.289 3.492-2.297 5.555-3.023 2.086-.727 4.383-1.09 6.89-1.09 2.086 0 3.985.293 5.696.879 1.734.562 3.269 1.359 4.605 2.39a15.616 15.616 0 0 1 3.516 3.621 19.945 19.945 0 0 1 2.461 4.641 25.605 25.605 0 0 1 1.441 5.309 32.38 32.38 0 0 1 .492 5.66zm-14.062-1.828c0-.657-.07-1.325-.211-2.004a6.132 6.132 0 0 0-.703-1.899 3.855 3.855 0 0 0-1.231-1.37c-.515-.376-1.16-.563-1.933-.563-.938 0-1.77.257-2.496.773a7.064 7.064 0 0 0-1.828 1.899 11.07 11.07 0 0 0-1.266 2.46 18.842 18.842 0 0 0-.738 2.461l10.406-.984v-.773zM706.243 495c0 3.211-.563 5.988-1.688 8.332-1.101 2.32-2.625 4.242-4.57 5.766-1.922 1.5-4.183 2.613-6.785 3.34-2.578.703-5.356 1.054-8.332 1.054-1.149 0-2.414-.152-3.797-.457a50.146 50.146 0 0 1-4.148-1.125 83.365 83.365 0 0 1-4.079-1.476 96.311 96.311 0 0 1-3.445-1.512l1.547-13.781c1.992 1.195 4.195 2.109 6.609 2.742 2.438.609 4.829.914 7.172.914.446 0 .985-.012 1.617-.035a8.683 8.683 0 0 0 1.793-.317c.586-.187 1.079-.457 1.477-.808.398-.352.598-.856.598-1.512a1.6 1.6 0 0 0-.422-1.125 2.873 2.873 0 0 0-1.09-.773 5.674 5.674 0 0 0-1.512-.457c-.562-.118-1.113-.2-1.652-.247a17.864 17.864 0 0 0-1.512-.07h-1.125c-2.015 0-3.855-.316-5.519-.949-1.641-.633-3.059-1.524-4.254-2.672-1.172-1.172-2.086-2.578-2.742-4.219-.657-1.664-.985-3.504-.985-5.52 0-2.765.551-5.238 1.653-7.417 1.125-2.203 2.613-4.067 4.464-5.59 1.875-1.547 4.02-2.73 6.434-3.55a23.097 23.097 0 0 1 7.488-1.231c1.149 0 2.332.047 3.551.14 1.219.07 2.426.211 3.621.422 1.219.211 2.402.48 3.551.809a20.92 20.92 0 0 1 3.269 1.23l-1.336 14.274a40.35 40.35 0 0 0-5.027-1.336 24.075 24.075 0 0 0-5.098-.563c-.304 0-.703.012-1.195.035-.469 0-.972.036-1.512.106a13 13 0 0 0-1.582.246 6.12 6.12 0 0 0-1.441.492 2.625 2.625 0 0 0-1.02.774 1.673 1.673 0 0 0-.351 1.16c.023.515.211.914.562 1.195.375.281.844.492 1.407.633a9.674 9.674 0 0 0 1.898.176c.703 0 1.395-.012 2.074-.036a67.74 67.74 0 0 1 1.899-.105 10.514 10.514 0 0 1 1.441-.035c1.875.117 3.563.515 5.063 1.195 1.5.68 2.765 1.582 3.797 2.707 1.054 1.125 1.851 2.473 2.39 4.043.563 1.547.844 3.258.844 5.133zm38.689 0c0 3.211-.563 5.988-1.688 8.332-1.101 2.32-2.625 4.242-4.57 5.766-1.922 1.5-4.184 2.613-6.785 3.34-2.578.703-5.356 1.054-8.332 1.054-1.149 0-2.414-.152-3.797-.457a50.167 50.167 0 0 1-4.149-1.125 83.701 83.701 0 0 1-4.078-1.476 96.311 96.311 0 0 1-3.445-1.512l1.547-13.781c1.992 1.195 4.195 2.109 6.609 2.742 2.438.609 4.828.914 7.172.914.445 0 .984-.012 1.617-.035a8.683 8.683 0 0 0 1.793-.317c.586-.187 1.078-.457 1.477-.808.398-.352.597-.856.597-1.512 0-.445-.14-.82-.421-1.125a2.88 2.88 0 0 0-1.09-.773 5.696 5.696 0 0 0-1.512-.457c-.563-.118-1.113-.2-1.652-.247a17.864 17.864 0 0 0-1.512-.07h-1.125c-2.016 0-3.856-.316-5.52-.949-1.64-.633-3.058-1.524-4.254-2.672-1.171-1.172-2.085-2.578-2.742-4.219-.656-1.664-.984-3.504-.984-5.52 0-2.765.551-5.238 1.652-7.417 1.125-2.203 2.614-4.067 4.465-5.59 1.875-1.547 4.02-2.73 6.434-3.55a23.097 23.097 0 0 1 7.488-1.231c1.148 0 2.332.047 3.551.14 1.218.07 2.426.211 3.621.422 1.219.211 2.402.48 3.551.809a20.92 20.92 0 0 1 3.269 1.23l-1.336 14.274a40.396 40.396 0 0 0-5.027-1.336 24.09 24.09 0 0 0-5.098-.563c-.304 0-.703.012-1.195.035-.469 0-.973.036-1.512.106a13 13 0 0 0-1.582.246 6.12 6.12 0 0 0-1.441.492 2.625 2.625 0 0 0-1.02.774 1.668 1.668 0 0 0-.351 1.16c.023.515.211.914.562 1.195.375.281.844.492 1.406.633a9.684 9.684 0 0 0 1.899.176c.703 0 1.394-.012 2.074-.036.68-.046 1.313-.082 1.898-.105a10.528 10.528 0 0 1 1.442-.035c1.875.117 3.562.515 5.062 1.195 1.5.68 2.766 1.582 3.797 2.707 1.055 1.125 1.852 2.473 2.391 4.043.562 1.547.844 3.258.844 5.133zm-30.124-271.264h-8.854v-6.342l-24.443-3.652-.577-3.075c-.963-5.381-2.31-10.57-4.235-15.76l-1.155-3.074 19.247-15.375-6.351-10.955-23.097 9.033-2.117-2.498a81.74 81.74 0 0 0-11.548-11.532l-2.502-2.114 9.046-23.062-10.971-6.343-15.397 19.22-3.08-1.154c-5.004-1.922-10.393-3.267-15.782-4.228l-3.08-.577-3.657-24.407h-12.702l-3.657 24.407-3.08.577c-5.389.961-10.586 2.306-15.782 4.228l-3.08 1.153-15.397-19.219-10.971 6.343 9.046 23.062-2.502 2.114a81.798 81.798 0 0 0-11.548 11.531l-2.117 2.499-23.097-9.033-6.351 10.955 19.247 15.375-1.155 3.075c-1.925 4.997-3.272 10.378-4.234 15.759l-.578 3.075-24.443 3.652v6.342H485v-14.03l25.598-3.844c.77-3.843 1.733-7.495 3.08-11.146l-20.21-16.144 14.05-24.216 24.252 9.417a80.069 80.069 0 0 1 8.084-8.072l-9.431-24.215 24.25-14.03 16.168 20.18c3.657-1.153 7.314-2.306 11.163-3.075l3.85-25.561h27.908l3.849 25.56c3.85.77 7.506 1.73 11.163 3.076l16.168-20.18 24.251 14.03-9.431 24.215a80.177 80.177 0 0 1 8.084 8.072l24.251-9.417 14.05 24.216-20.209 16.144c1.154 3.651 2.309 7.303 3.079 11.146l25.599 3.844v14.03h.192z" fill="#212529"/><path d="M573.535 223.736c0-14.606 11.933-26.521 26.56-26.521 14.628 0 26.561 11.915 26.561 26.521h36.377c0-34.786-28.1-62.845-62.938-62.845-34.836 0-62.937 28.06-62.937 62.845h36.377z" fill="#212529"/><path d="M630.891 223.736h-8.854c0-12.108-9.815-22.101-22.133-22.101-12.126 0-22.134 9.801-22.134 22.101h-8.854c0-17.105 13.858-30.942 30.988-30.942s30.987 13.837 30.987 30.942zm22.326 21.91H485.192v8.84h168.025v-8.84zm61.783 0h-31.565v8.84H715v-8.84z" fill="#212529"/><path d="M659.569 265.056c-8.277 0-15.013-6.726-15.013-14.99s6.736-14.991 15.013-14.991c8.276 0 15.012 6.727 15.012 14.99 0 8.265-6.736 14.991-15.012 14.991zm0-21.14c-3.465 0-6.16 2.69-6.16 6.15 0 3.459 2.695 6.15 6.16 6.15 3.464 0 6.159-2.691 6.159-6.15 0-3.46-2.695-6.15-6.16-6.15z" fill="#EF4631"/><path d="M600.866 275.627H485.192v8.84h115.674v-8.84zm114.134 0h-83.917v8.84h83.916v-8.84z" fill="#212529"/><path d="M607.217 295.038c-8.277 0-15.013-6.726-15.013-14.99s6.736-14.991 15.013-14.991c8.276 0 15.012 6.727 15.012 14.99 0 8.265-6.736 14.991-15.012 14.991zm0-21.14c-3.465 0-6.16 2.69-6.16 6.15 0 3.459 2.695 6.15 6.16 6.15 3.464 0 6.159-2.691 6.159-6.15 0-3.46-2.888-6.15-6.16-6.15z" fill="#12ABE3"/><path d="M515.794 305.607h-30.602v8.84h30.602v-8.84zm199.206 0H546.012v8.84H715v-8.84z" fill="#212529"/><path d="M522.147 325.018c-8.276 0-15.013-6.726-15.013-14.99s6.737-14.991 15.013-14.991 15.012 6.727 15.012 14.99c0 8.265-6.736 14.991-15.012 14.991zm0-21.14c-3.465 0-6.16 2.69-6.16 6.15 0 3.46 2.695 6.15 6.16 6.15 3.464 0 6.159-2.69 6.159-6.15 0-3.46-2.887-6.15-6.16-6.15z" fill="#2EB349"/><path d="M582.966 335.589h-97.774v8.84h97.774v-8.84zm131.843 0H612.993v8.84h101.816v-8.84z" fill="#212529"/><path d="M589.126 355c-8.277 0-15.013-6.726-15.013-14.99s6.736-14.991 15.013-14.991c8.276 0 15.012 6.727 15.012 14.99 0 8.265-6.736 14.991-15.012 14.991zm0-21.14c-3.465 0-6.16 2.69-6.16 6.15 0 3.459 2.695 6.15 6.16 6.15 3.464 0 6.159-2.691 6.159-6.15 0-3.46-2.695-6.15-6.16-6.15z" fill="#FFCD30"/></g><defs><clipPath id="a"><path fill="#fff" d="M0 0h1200v800H0z"/></clipPath></defs></svg>