<svg width="1200" height="800" viewBox="0 0 1200 800" fill="none" xmlns="http://www.w3.org/2000/svg"><g clip-path="url(#a)"><path fill="#fff" d="M0 0h1200v800H0z"/><path fill="#fff" d="M0 0h1200v800H0z"/><path d="M1228.99 570.668C690.658 601.782 210.7 684.304-159 801.323l1387.99.002V570.668z" fill="#EF4631"/><path d="M1229 634.925c-516.713 13.527-992.348 73.051-1381.5 166.396l1381.5.002V634.925z" fill="#12ABE3"/><path d="M1229 704.597c-38.916-.676-77.831-.676-116.747-.676-441.043-.001-856.143 35.172-1217.193 98.078L1229 802v-97.404z" fill="#2EB349"/><path d="M1229 764.798a7969.025 7969.025 0 0 0-428.072-11.5c-311.325 0-607.518 16.91-884.248 48.024l1312.32.002v-36.526z" fill="#FFCD30"/><path d="M387.373 389.203l-8.227 48.727-19.968.422-4.289-25.243-4.29 23.414-19.968.704-8.297-48.024 17.437-1.547 3.516 29.18 4.711-29.18h13.711l5.484 29.531 2.813-29.53 17.367 1.546zm40.868 20.39c0 2.04-.14 4.079-.422 6.118-4.007.258-7.992.68-11.953 1.266l-11.882 1.687c.609 1.688 1.558 3.035 2.847 4.043 1.313 1.008 2.871 1.512 4.676 1.512.937 0 1.957-.176 3.059-.528a26.528 26.528 0 0 0 3.339-1.3 40.383 40.383 0 0 0 3.164-1.723 60.935 60.935 0 0 0 2.602-1.652l-1.687 15.96a15.294 15.294 0 0 1-2.989 1.793 19.752 19.752 0 0 1-3.304 1.196 25.336 25.336 0 0 1-3.481.668c-1.172.14-2.32.21-3.445.21-2.321 0-4.442-.316-6.364-.949a19.31 19.31 0 0 1-5.238-2.636 20.197 20.197 0 0 1-4.078-4.043 23.54 23.54 0 0 1-2.918-5.063 29.296 29.296 0 0 1-1.758-5.8 32.224 32.224 0 0 1-.597-6.188c0-2.18.199-4.36.597-6.539.399-2.18.996-4.277 1.793-6.293a27.41 27.41 0 0 1 3.059-5.59 22.068 22.068 0 0 1 4.324-4.535c1.641-1.289 3.492-2.297 5.555-3.023 2.086-.727 4.383-1.09 6.89-1.09 2.086 0 3.985.293 5.696.879 1.734.562 3.269 1.359 4.605 2.39a15.637 15.637 0 0 1 3.516 3.621 19.946 19.946 0 0 1 2.461 4.641 25.667 25.667 0 0 1 1.441 5.309 32.38 32.38 0 0 1 .492 5.66zm-14.062-1.827c0-.657-.07-1.325-.211-2.004a6.132 6.132 0 0 0-.703-1.899 3.855 3.855 0 0 0-1.231-1.37c-.515-.376-1.16-.563-1.933-.563-.938 0-1.77.258-2.496.773a7.067 7.067 0 0 0-1.829 1.899 11.11 11.11 0 0 0-1.265 2.46 18.842 18.842 0 0 0-.738 2.461l10.406-.984v-.773zm58.025 17.718c0 1.946-.364 3.622-1.09 5.028a10.914 10.914 0 0 1-2.848 3.586c-1.195.984-2.578 1.793-4.148 2.425a29.768 29.768 0 0 1-4.852 1.442 37.533 37.533 0 0 1-5.098.703 68.7 68.7 0 0 1-4.746.176c-1.453 0-2.965-.059-4.535-.176a44.66 44.66 0 0 1-4.641-.527 42.975 42.975 0 0 1-4.57-1.02 27.165 27.165 0 0 1-4.254-1.652l-.07-45.282a39.69 39.69 0 0 1 4.184-1.44 41.882 41.882 0 0 1 4.5-1.09 45.402 45.402 0 0 1 4.605-.669c1.523-.164 3-.246 4.43-.246 1.664 0 3.34.106 5.027.317a27.72 27.72 0 0 1 4.922 1.054 21.178 21.178 0 0 1 4.394 1.934 13.689 13.689 0 0 1 3.551 2.883c1.031 1.148 1.828 2.484 2.391 4.007.586 1.524.879 3.282.879 5.274a11.82 11.82 0 0 1-.563 3.691 10.247 10.247 0 0 1-1.617 3.094c-.703.914-1.559 1.7-2.566 2.356-1.008.632-2.145 1.101-3.41 1.406 1.523.398 2.906.984 4.148 1.758a11.957 11.957 0 0 1 3.199 2.812 12 12 0 0 1 2.039 3.727c.492 1.382.739 2.86.739 4.43zm-17.86-20.039c0-.68-.14-1.254-.422-1.722a3.738 3.738 0 0 0-1.054-1.196 3.985 3.985 0 0 0-1.336-.668 4.459 4.459 0 0 0-1.266-.21c-.469 0-.926.07-1.371.21-.445.141-.879.305-1.301.493l-.211 7.804c.539 0 1.207-.047 2.004-.14a8.414 8.414 0 0 0 2.285-.598 5.164 5.164 0 0 0 1.899-1.406c.515-.633.773-1.489.773-2.567zm-4.992 11.461c-.68 0-1.336.07-1.969.211l-.14 8.016c.351.07.691.14 1.019.21.352.048.692.071 1.02.071.492 0 1.031-.047 1.617-.14a5.24 5.24 0 0 0 1.652-.633 3.949 3.949 0 0 0 1.266-1.301c.351-.54.527-1.254.527-2.145 0-.89-.176-1.617-.527-2.18-.328-.562-.738-.996-1.231-1.3a4.029 4.029 0 0 0-1.617-.633 8.292 8.292 0 0 0-1.617-.176zM510.435 420c0 3.21-.562 5.988-1.687 8.332-1.102 2.32-2.625 4.242-4.571 5.766-1.921 1.5-4.183 2.613-6.785 3.34-2.578.703-5.355 1.054-8.332 1.054-1.148 0-2.414-.152-3.797-.457a49.911 49.911 0 0 1-4.148-1.125 82.495 82.495 0 0 1-4.078-1.476 97.183 97.183 0 0 1-3.446-1.512l1.547-13.781c1.993 1.195 4.196 2.109 6.61 2.742 2.437.61 4.828.914 7.172.914.445 0 .984-.012 1.617-.035a8.682 8.682 0 0 0 1.793-.317c.586-.187 1.078-.457 1.476-.808.399-.352.598-.856.598-1.512a1.6 1.6 0 0 0-.422-1.125 2.87 2.87 0 0 0-1.09-.773 5.707 5.707 0 0 0-1.511-.458 14.178 14.178 0 0 0-1.653-.246 17.543 17.543 0 0 0-1.512-.07h-1.125c-2.015 0-3.855-.316-5.519-.95-1.641-.632-3.059-1.523-4.254-2.671-1.172-1.172-2.086-2.578-2.742-4.219-.656-1.664-.985-3.504-.985-5.52 0-2.765.551-5.238 1.653-7.417 1.125-2.203 2.613-4.067 4.465-5.59 1.875-1.547 4.019-2.73 6.433-3.55a23.099 23.099 0 0 1 7.489-1.231c1.148 0 2.332.047 3.55.14 1.219.07 2.426.211 3.621.422 1.219.211 2.403.48 3.551.809 1.149.328 2.238.738 3.27 1.23l-1.336 14.274a40.412 40.412 0 0 0-5.028-1.336 24.073 24.073 0 0 0-5.097-.563c-.305 0-.703.012-1.196.035-.468 0-.972.036-1.511.106-.516.047-1.043.129-1.582.246a6.129 6.129 0 0 0-1.442.492 2.621 2.621 0 0 0-1.019.774 1.674 1.674 0 0 0-.352 1.16c.024.515.211.914.563 1.195.375.281.843.492 1.406.633a9.68 9.68 0 0 0 1.898.176c.704 0 1.395-.012 2.075-.036a66.085 66.085 0 0 1 1.898-.105 10.514 10.514 0 0 1 1.441-.035c1.875.117 3.563.515 5.063 1.195 1.5.68 2.766 1.582 3.797 2.707 1.055 1.125 1.851 2.473 2.39 4.043.563 1.547.844 3.258.844 5.133zm21.99-31.5l-3.867 47.883-14.836.773v-47.672l18.703-.984zm40.341-.773l-.352 14.906-10.476.422-2.672 33.328-14.836.773.07-33.328-10.476.563.422-16.594 38.32-.07zm35.946-.422a708.11 708.11 0 0 0-.386 6.539c-.118 2.156-.27 4.336-.457 6.539l-14.907.773-.351 4.43h10.476l-.773 10.898-10.547.352-.351 5.133h14.906a814.458 814.458 0 0 1-.457 7.699 773.06 773.06 0 0 0-.387 7.629l-30.305.703 1.125-50.695h32.414zm47.636 30.656l-1.477 15.61-29.601 2.32c.14-8.18.293-16.313.457-24.399.187-8.086.41-16.219.668-24.398h18.281a1707.216 1707.216 0 0 0-1.547 15.398 279.521 279.521 0 0 0-1.055 15.469c1.102.047 2.192.07 3.27.07h3.269c1.313 0 2.602-.012 3.868-.035 1.265-.023 2.554-.035 3.867-.035zm46.704 17.016l-17.437 2.25-2.11-7.946h-8.015l-1.758 7.946-17.93-1.758 13.992-46.828 19.547-.985 13.711 47.32zm-20.812-16.454l-2.672-12.234-2.602 12.234h5.274zm63.122-19.617c0 1.735-.082 3.645-.246 5.73a75.233 75.233 0 0 1-2.285 13.254 47.173 47.173 0 0 1-2.215 6.575 38.692 38.692 0 0 1-3.129 5.941 23.236 23.236 0 0 1-4.078 4.817 17.677 17.677 0 0 1-5.133 3.199c-1.898.797-4.008 1.195-6.328 1.195-2.719 0-5.086-.445-7.102-1.336-1.992-.867-3.703-2.039-5.132-3.515-1.43-1.5-2.602-3.235-3.516-5.204a33.208 33.208 0 0 1-2.145-6.293 50.464 50.464 0 0 1-1.089-6.785 82.803 82.803 0 0 1-.282-6.68c0-3.28.164-6.55.492-9.808.329-3.281.797-6.55 1.407-9.809l16.453.633a248.676 248.676 0 0 0-1.653 11.11 93.618 93.618 0 0 0-.667 11.18c0 .398.011.995.035 1.792.047.774.117 1.653.211 2.637.093.961.222 1.957.386 2.988.188 1.008.434 1.934.739 2.778.304.843.668 1.535 1.089 2.074.446.539.961.808 1.547.808.68 0 1.289-.316 1.828-.949.54-.656 1.008-1.523 1.407-2.601.422-1.078.785-2.32 1.09-3.727.304-1.406.562-2.87.773-4.394a75.37 75.37 0 0 0 .492-4.57c.141-1.524.246-2.942.317-4.255.093-1.312.152-2.472.175-3.48.024-1.008.036-1.758.036-2.25 0-1.828-.036-3.645-.106-5.45a139.733 139.733 0 0 0-.246-5.449h16.453c.281 3.235.422 6.516.422 9.844zm46.74 21.305c0 2.648-.036 5.273-.106 7.875-.047 2.578-.129 5.18-.246 7.805l-20.25-.352a288.895 288.895 0 0 0 1.828-12.41c.516-4.149.774-8.332.774-12.55 0-.306-.012-.798-.036-1.477-.023-.68-.07-1.442-.14-2.286a35.252 35.252 0 0 0-.317-2.636 14.626 14.626 0 0 0-.527-2.496c-.211-.75-.48-1.36-.809-1.829-.304-.492-.679-.738-1.125-.738-.796 0-1.476.235-2.039.703-.539.47-.996 1.078-1.371 1.828a11.695 11.695 0 0 0-.844 2.461c-.21.914-.375 1.829-.492 2.743a59.29 59.29 0 0 0-.211 2.601 70.989 70.989 0 0 0-.035 1.969c-.117 4.148-.211 8.273-.281 12.375-.07 4.078-.164 8.203-.281 12.375l-17.93.773c.469-8.273.914-16.5 1.336-24.68.445-8.18.797-16.406 1.055-24.68l16.593-.843-.14 5.625a23.914 23.914 0 0 1 2.109-2.25 13.76 13.76 0 0 1 2.461-1.793 11.863 11.863 0 0 1 2.742-1.195 10.409 10.409 0 0 1 3.094-.457c1.992 0 3.738.328 5.238.984 1.5.656 2.789 1.547 3.867 2.672 1.079 1.125 1.981 2.461 2.708 4.008a26.826 26.826 0 0 1 1.757 4.887c.446 1.734.785 3.55 1.02 5.449a64.9 64.9 0 0 1 .457 5.555c.094 1.828.141 3.597.141 5.308v4.676zm37.598-30.234l-1.265 14.835a12.58 12.58 0 0 0-2.004-.386 18.796 18.796 0 0 0-2.004-.106c-1.664 0-3.258.211-4.781.633-1.5.422-2.836 1.066-4.008 1.934-1.148.867-2.074 1.968-2.777 3.304-.68 1.313-1.02 2.871-1.02 4.676 0 1.313.188 2.461.563 3.445.398.961.949 1.77 1.652 2.426.726.633 1.594 1.114 2.601 1.442 1.032.328 2.168.492 3.411.492.867 0 1.757-.082 2.672-.246a23.77 23.77 0 0 0 2.742-.739 24.665 24.665 0 0 0 4.992-2.32l-.563 16.524c-.914.468-1.898.89-2.953 1.265a35.106 35.106 0 0 1-3.269.914 27.054 27.054 0 0 1-3.34.633 25.13 25.13 0 0 1-3.164.211c-3.328 0-6.363-.621-9.106-1.863-2.718-1.242-5.062-2.93-7.031-5.063-1.945-2.156-3.457-4.652-4.535-7.488-1.078-2.836-1.617-5.86-1.617-9.07 0-3.844.539-7.43 1.617-10.758 1.102-3.328 2.707-6.211 4.816-8.649 2.133-2.46 4.758-4.382 7.875-5.765 3.141-1.406 6.739-2.11 10.793-2.11 1.618 0 3.258.13 4.922.387a17.86 17.86 0 0 1 4.781 1.442zm45.826 46.617l-17.578.843-.141-14.835h-8.086L849.229 438h-15.75l1.336-49.43 16.734.774-1.054 25.242h7.804l.071-26.438 16.031.422 1.125 48.024zM466.165 460.57l-1.969 14.836a12.48 12.48 0 0 0-2.039-.387 19.79 19.79 0 0 0-2.039-.105c-1.734 0-3.386.234-4.957.703-1.57.445-2.965 1.137-4.183 2.074a10.561 10.561 0 0 0-2.883 3.516c-.703 1.406-1.055 3.059-1.055 4.957 0 1.219.188 2.274.563 3.164a6.041 6.041 0 0 0 1.652 2.215c.703.586 1.535 1.019 2.496 1.301.961.281 2.016.422 3.164.422.867 0 1.77-.094 2.707-.282a22.918 22.918 0 0 0 2.777-.738 26.203 26.203 0 0 0 2.672-1.055 28.062 28.062 0 0 0 2.391-1.23l-1.406 16.523c-.914.469-1.91.891-2.989 1.266a43.912 43.912 0 0 1-3.269.949c-1.125.258-2.25.457-3.375.598a26.025 26.025 0 0 1-3.234.211c-2.977 0-5.754-.551-8.332-1.653-2.579-1.101-4.817-2.613-6.715-4.535-1.899-1.922-3.399-4.183-4.5-6.785-1.078-2.625-1.618-5.449-1.618-8.473 0-4.007.575-7.78 1.723-11.32 1.149-3.562 2.836-6.68 5.063-9.351 2.226-2.672 4.98-4.782 8.261-6.328 3.305-1.547 7.102-2.32 11.391-2.32 1.617 0 3.27.128 4.957.386 1.711.258 3.293.738 4.746 1.441zm44.665 48.024l-17.578.844-.14-14.836h-8.086L484.534 510h-15.75l1.335-49.43 16.735.774-1.055 25.242h7.805l.07-26.438 16.031.422 1.125 48.024zm43.295-27a44.76 44.76 0 0 1-.422 6.117c-4.008.258-7.992.68-11.953 1.266l-11.883 1.687c.609 1.688 1.558 3.035 2.847 4.043 1.313 1.008 2.872 1.512 4.676 1.512.938 0 1.957-.176 3.059-.528a26.595 26.595 0 0 0 3.34-1.3 40.85 40.85 0 0 0 3.164-1.723 60.05 60.05 0 0 0 2.601-1.652l-1.687 15.961c-.914.703-1.91 1.3-2.988 1.793-1.055.492-2.157.89-3.305 1.195a25.351 25.351 0 0 1-3.481.668c-1.171.14-2.32.211-3.445.211-2.32 0-4.441-.317-6.363-.949a19.288 19.288 0 0 1-5.238-2.637 20.215 20.215 0 0 1-4.079-4.043 23.595 23.595 0 0 1-2.918-5.063 29.219 29.219 0 0 1-1.757-5.8 32.156 32.156 0 0 1-.598-6.188c0-2.18.199-4.36.598-6.539.398-2.18.996-4.277 1.793-6.293a27.359 27.359 0 0 1 3.058-5.59 22.096 22.096 0 0 1 4.324-4.535c1.641-1.289 3.493-2.297 5.555-3.023 2.086-.727 4.383-1.09 6.891-1.09 2.086 0 3.984.293 5.695.879 1.734.562 3.27 1.359 4.605 2.39a15.616 15.616 0 0 1 3.516 3.621 19.945 19.945 0 0 1 2.461 4.641 25.605 25.605 0 0 1 1.441 5.309c.329 1.851.493 3.738.493 5.66zm-14.063-1.828c0-.657-.07-1.325-.211-2.004a6.106 6.106 0 0 0-.703-1.899 3.861 3.861 0 0 0-1.23-1.37c-.516-.376-1.161-.563-1.934-.563-.937 0-1.77.257-2.496.773a7.064 7.064 0 0 0-1.828 1.899 11.07 11.07 0 0 0-1.266 2.46 18.842 18.842 0 0 0-.738 2.461l10.406-.984v-.773zm50.642-17.79l-1.266 14.836a12.537 12.537 0 0 0-2.004-.386 18.791 18.791 0 0 0-2.003-.106c-1.665 0-3.258.211-4.782.633-1.5.422-2.836 1.066-4.008 1.934-1.148.867-2.074 1.968-2.777 3.304-.68 1.313-1.019 2.871-1.019 4.676 0 1.313.187 2.461.562 3.445.399.961.949 1.77 1.652 2.426.727.633 1.594 1.114 2.602 1.442 1.031.328 2.168.492 3.41.492.867 0 1.758-.082 2.672-.246a24.014 24.014 0 0 0 5.379-1.793 24.727 24.727 0 0 0 2.355-1.266l-.562 16.524a24.48 24.48 0 0 1-2.953 1.265 35.152 35.152 0 0 1-3.27.914 26.964 26.964 0 0 1-3.34.633 24.931 24.931 0 0 1-3.164.211c-3.328 0-6.363-.621-9.105-1.863-2.719-1.242-5.063-2.93-7.031-5.063-1.946-2.156-3.457-4.652-4.536-7.488-1.078-2.836-1.617-5.859-1.617-9.07 0-3.844.539-7.43 1.617-10.758 1.102-3.328 2.708-6.211 4.817-8.649 2.133-2.46 4.758-4.382 7.875-5.765 3.141-1.406 6.738-2.11 10.793-2.11 1.617 0 3.258.13 4.922.387a17.88 17.88 0 0 1 4.781 1.442zm47.302 2.602l-15.539 18.492 14.273 24.188-16.312 2.883-10.688-14.485-.562 13.782-14.625.562 1.125-50.344 16.383.914-1.266 14.485 10.195-14.696 17.016 4.22zm31.728 26.789l-1.477 15.61-29.601 2.32 1.125-50.203h18.281l-2.602 32.273h14.274zm20.724-30.867l-2.461 47.883-14.836.773-1.406-47.672 18.703-.984zm39.638 31.5c0 3.211-.563 5.988-1.688 8.332-1.101 2.32-2.625 4.242-4.57 5.766-1.922 1.5-4.184 2.613-6.785 3.34-2.578.703-5.356 1.054-8.332 1.054-1.149 0-2.414-.152-3.797-.457a50.167 50.167 0 0 1-4.149-1.125 83.701 83.701 0 0 1-4.078-1.476 96.311 96.311 0 0 1-3.445-1.512l1.547-13.781c1.992 1.195 4.195 2.109 6.609 2.742 2.438.609 4.828.914 7.172.914.445 0 .984-.012 1.617-.035a8.683 8.683 0 0 0 1.793-.317c.586-.187 1.078-.457 1.477-.808.398-.352.597-.856.597-1.512 0-.445-.14-.82-.421-1.125a2.88 2.88 0 0 0-1.09-.773 5.685 5.685 0 0 0-1.512-.457c-.562-.118-1.113-.2-1.652-.247a17.864 17.864 0 0 0-1.512-.07h-1.125c-2.016 0-3.856-.316-5.52-.949-1.64-.633-3.058-1.524-4.253-2.672-1.172-1.172-2.086-2.578-2.743-4.219-.656-1.664-.984-3.504-.984-5.52 0-2.765.551-5.238 1.652-7.417 1.125-2.203 2.614-4.067 4.465-5.59 1.875-1.547 4.02-2.73 6.434-3.55a23.097 23.097 0 0 1 7.488-1.231c1.148 0 2.332.047 3.551.14 1.219.07 2.426.211 3.621.422 1.219.211 2.402.48 3.551.809a20.92 20.92 0 0 1 3.269 1.23l-1.336 14.274a40.35 40.35 0 0 0-5.027-1.336 24.082 24.082 0 0 0-5.098-.563c-.304 0-.703.012-1.195.035-.469 0-.973.036-1.512.106a13 13 0 0 0-1.582.246 6.12 6.12 0 0 0-1.441.492 2.625 2.625 0 0 0-1.02.774 1.668 1.668 0 0 0-.351 1.16c.023.515.211.914.562 1.195.375.281.844.492 1.406.633a9.684 9.684 0 0 0 1.899.176c.703 0 1.394-.012 2.074-.036a67.74 67.74 0 0 1 1.899-.105 10.512 10.512 0 0 1 1.441-.035c1.875.117 3.562.515 5.062 1.195 1.5.68 2.766 1.582 3.797 2.707 1.055 1.125 1.852 2.473 2.391 4.043.562 1.547.844 3.258.844 5.133zm39.392-31.57l-.352 14.906-10.477.422-1.265 32.625-14.836.773-1.336-32.625-10.477.563.422-16.594 38.321-.07zM656.284 346H494V151.548h162.284v8.161H502.167v178.129h154.117V346z" fill="#212529"/><path d="M656.284 159.71H494V126h162.284v8.161H502.167v17.387h154.117v8.162z" fill="#212529"/><path d="M656.284 169.113H511.755v159.145h144.529V169.113z" fill="#53372A"/><path d="M552.415 138.774h-8.168v8.161h8.168v-8.161zm-16.335 0h-8.168v8.161h8.168v-8.161zm-16.158 0h-8.167v8.161h8.167v-8.161z" fill="#212529"/><path d="M554.724 187.564H530.22v24.484h24.503v-24.484z" fill="#fff"/><path d="M546.556 195.726h-8.167v8.161h8.167v-8.161zm91.265-8.162h-74.928v8.161h74.928v-8.161zm-37.465 16.323h-37.464v8.161h37.464v-8.161z" fill="#2EB349"/><path d="M554.725 220.21h-24.503v24.484h24.503V220.21z" fill="#fff"/><path d="M546.556 228.371h-8.167v8.161h8.167v-8.161zm91.265-8.161h-74.928v8.161h74.928v-8.161zm-37.464 16.322h-37.464v8.161h37.464v-8.161z" fill="#2EB349"/><path d="M554.725 252.855h-24.503v24.484h24.503v-24.484zm83.096 0h-74.928v8.161h74.928v-8.161zm-37.464 16.322h-37.464v8.161h37.464v-8.161zm-45.632 16.146h-24.503v24.484h24.503v-24.484zm83.096 0h-74.928v8.161h74.928v-8.161zm-37.464 16.322h-37.464v8.161h37.464v-8.161z" fill="#fff"/><path d="M701.916 312.113l-14.738-14.726-14.559 14.726V155.629h29.297v156.484z" fill="#12ABE3"/><path d="M691.263 155.629h-8.167v141.935h8.167V155.629z" fill="#212529"/><path d="M687.178 346l-18.643-32.823V155.629h8.168v155.419l10.475 18.452 10.654-18.452V155.629h8.167v157.548L687.18 346z" fill="#212529"/><path d="M699.076 314.952l-11.896-11.71-11.719 11.71-5.859-5.677 17.578-17.565 17.578 17.565-5.682 5.677zM706 159.71h-37.464v-22.178c0-3.016 1.243-5.855 3.374-7.984 2.13-2.129 4.971-3.371 7.99-3.371h14.737c3.018 0 5.86 1.242 7.99 3.371s3.373 4.968 3.373 7.984v22.177zm-29.296-8.162h21.129v-14.016c0-.887-.356-1.774-.888-2.307-.533-.532-1.42-.887-2.308-.887H679.9c-.888 0-1.776.355-2.309.887-.532.533-.887 1.42-.887 2.307v14.016z" fill="#212529"/></g><defs><clipPath id="a"><path fill="#fff" d="M0 0h1200v800H0z"/></clipPath></defs></svg>