<svg width="315" height="248" viewBox="0 0 315 248" fill="none" xmlns="http://www.w3.org/2000/svg">
<path d="M70.2366 0H0V201.1H70.2366V0Z" transform="translate(38.0723)" fill="#12ABE3"/>
<path d="M30.0339 0H0V80.5349H30.0339V0Z" transform="translate(58.1748 20.1335)" fill="white"/>
<path d="M40.912 91.4308H0V0H40.912V91.4308ZM10.8783 80.5349H30.0337V10.896H10.8783V80.5349Z" transform="translate(52.7363 14.6858)" fill="#212529"/>
<path d="M30.2704 15.1596C30.2704 23.4499 23.6487 30.3191 15.1352 30.3191C6.85816 30.3191 0 23.4499 0 15.1596C0 6.86921 6.62168 0 15.1352 0C23.6487 0 30.2704 6.86921 30.2704 15.1596Z" transform="translate(57.9385 150.884)" fill="white"/>
<path d="M20.5742 41.215C9.22285 41.215 0 31.9771 0 20.6075C0 9.23785 9.22285 0 20.5742 0C31.9255 0 41.1487 9.23785 41.1487 20.6075C41.1487 31.9771 31.6891 41.215 20.5742 41.215ZM20.5742 10.896C15.3715 10.896 10.8783 15.1595 10.8783 20.6075C10.8783 25.8186 15.135 30.319 20.5742 30.319C26.0134 30.319 30.2701 26.0554 30.2701 20.6075C30.0336 15.1595 25.7769 10.896 20.5742 10.896Z" transform="translate(52.7363 145.436)" fill="#212529"/>
<path d="M10.8783 0H0V20.1337H10.8783V0Z" transform="translate(67.8701 115.828)" fill="#212529"/>
<path d="M70.2363 0H0V201.1H70.2363V0Z" transform="translate(122.499)" fill="#12ABE3"/>
<path d="M30.0337 0H0V80.5349H30.0337V0Z" transform="translate(142.365 20.1335)" fill="white"/>
<path d="M40.9123 91.4308H0V0H40.9123V91.4308ZM10.6419 80.5349H29.7972V10.896H10.6419V80.5349Z" transform="translate(137.162 14.6858)" fill="#212529"/>
<path d="M30.2701 15.1596C30.2701 23.4499 23.4119 30.3191 15.1349 30.3191C6.85787 30.3191 0 23.4499 0 15.1596C0 6.86921 6.62139 0 15.1349 0C23.4119 0 30.2701 6.86921 30.2701 15.1596Z" transform="translate(142.365 150.884)" fill="white"/>
<path d="M20.5742 41.215C9.22285 41.215 0 31.9771 0 20.6075C0 9.23785 9.22285 0 20.5742 0C31.9255 0 41.1487 9.23785 41.1487 20.6075C41.1487 31.9771 31.9255 41.215 20.5742 41.215ZM20.5742 10.896C15.3715 10.896 10.8783 15.1595 10.8783 20.6075C10.8783 25.8186 15.135 30.319 20.5742 30.319C25.7769 30.319 30.2704 26.0554 30.2704 20.6075C30.2704 15.1595 26.0134 10.896 20.5742 10.896Z" transform="translate(136.924 145.436)" fill="#212529"/>
<path d="M10.8783 0H0V20.1337H10.8783V0Z" transform="translate(152.061 115.828)" fill="#212529"/>
<path d="M70.2363 0H0V201.1H70.2363V0Z" transform="translate(206.688)" fill="#2EB349"/>
<path d="M30.0337 0H0V80.5349H30.0337V0Z" transform="translate(226.789 20.1335)" fill="white"/>
<path d="M40.9123 91.4308H0V0H40.9123V91.4308ZM10.8786 80.5349H30.0339V10.896H10.8786V80.5349Z" transform="translate(221.351 14.6858)" fill="#212529"/>
<path d="M30.2701 15.1596C30.2701 23.4499 23.6487 30.3191 15.1352 30.3191C6.85816 30.3191 0 23.4499 0 15.1596C0 6.86921 6.62168 0 15.1352 0C23.6487 0 30.2701 6.86921 30.2701 15.1596Z" transform="translate(226.554 150.884)" fill="white"/>
<path d="M20.5745 41.215C9.22314 41.215 0 31.9771 0 20.6075C0 9.23785 9.22314 0 20.5745 0C31.9258 0 41.1487 9.23785 41.1487 20.6075C41.1487 31.9771 31.6893 41.215 20.5745 41.215ZM20.5745 10.896C15.3718 10.896 10.8786 15.1595 10.8786 20.6075C10.8786 25.8186 15.1353 30.319 20.5745 30.319C25.7772 30.319 30.2704 26.0554 30.2704 20.6075C30.0339 15.1595 25.7772 10.896 20.5745 10.896Z" transform="translate(221.351 145.436)" fill="#212529"/>
<path d="M10.8783 0H0V20.1337H10.8783V0Z" transform="translate(236.484 115.828)" fill="#212529"/>
<path d="M315 36.9512H0V0H315V36.9512ZM10.8783 26.0554H304.121V10.8958H10.8783V26.0554Z" transform="translate(0 201.337)" fill="#212529"/>
<path d="M10.8783 0H0V15.1594H10.8783V0Z" transform="translate(32.6348 232.841)" fill="#212529"/>
<path d="M10.8783 0H0V15.1594H10.8783V0Z" transform="translate(271.485 232.841)" fill="#212529"/>
</svg>
