<svg width="286" height="239" viewBox="0 0 286 239" fill="none" xmlns="http://www.w3.org/2000/svg">
<path d="M30.0921 0H0V11.4163H30.0921V0Z" transform="translate(114.399 62.2942)" fill="#EF4631"/>
<path d="M32.3304 0H0V11.4163H32.3304V0Z" transform="translate(144.49 101.507)" fill="#212529"/>
<path d="M32.3304 0H0V11.4165H32.3304V0Z" transform="translate(144.49 121.113)" fill="#212529"/>
<path d="M32.3304 0H0V11.4165H32.3304V0Z" transform="translate(144.49 179.932)" fill="#212529"/>
<path d="M32.3304 0H0V11.4163H32.3304V0Z" transform="translate(144.49 199.539)" fill="#212529"/>
<path d="M62.4226 0H0V11.4165H62.4226V0Z" transform="translate(114.399 81.9001)" fill="#12ABE3"/>
<path d="M30.0921 0H0V11.4163H30.0921V0Z" transform="translate(114.399 140.72)" fill="#EF4631"/>
<path d="M62.4226 0H0V11.4163H62.4226V0Z" transform="translate(114.399 160.326)" fill="#12ABE3"/>
<path d="M32.3304 0H0V11.4163H32.3304V0Z" transform="translate(189.255 101.507)" fill="#EF4631"/>
<path d="M62.4227 0H0V11.4165H62.4227V0Z" transform="translate(189.255 121.113)" fill="#212529"/>
<path d="M32.3304 0H0V11.4165H32.3304V0Z" transform="translate(189.255 179.932)" fill="#EF4631"/>
<path d="M62.4227 0H0V11.4163H62.4227V0Z" transform="translate(189.255 199.539)" fill="#212529"/>
<path d="M32.3304 0H0V11.4165H32.3304V0Z" transform="translate(189.255 81.9001)" fill="#212529"/>
<path d="M32.3304 0H0V11.4163H32.3304V0Z" transform="translate(189.255 160.326)" fill="#212529"/>
<path d="M286 204.751H0V0H286V204.751ZM11.4399 193.334H274.56V11.4165H11.4399V193.334Z" transform="translate(0 34.2493)" fill="#212529"/>
<path d="M286 45.6657H0V0H286V45.6657ZM11.4399 34.2492H274.56V11.4165H11.4399V34.2492Z" fill="#212529"/>
<path d="M11.4399 0H0V11.4163H11.4399V0Z" transform="translate(17.1611 17.1243)" fill="#212529"/>
<path d="M11.4401 0H0V11.4163H11.4401V0Z" transform="translate(40.0391 17.1243)" fill="#212529"/>
<path d="M11.4401 0H0V11.4163H11.4401V0Z" transform="translate(62.9189 17.1243)" fill="#212529"/>
<path d="M11.4399 0H0V193.334H11.4399V0Z" transform="translate(80.0811 39.9578)" fill="#212529"/>
<path d="M45.7599 0H0V50.6292H45.7599V0Z" transform="translate(22.8799 62.2942)" fill="#12ABE3"/>
<path d="M45.7599 0H0V11.4165H45.7599V0Z" transform="translate(22.8799 121.113)" fill="#212529"/>
<path d="M45.7599 0H0V11.4163H45.7599V0Z" transform="translate(22.8799 140.72)" fill="#212529"/>
<path d="M45.7599 0H0V11.4163H45.7599V0Z" transform="translate(22.8799 160.326)" fill="#212529"/>
<path d="M45.7599 0H0V11.4165H45.7599V0Z" transform="translate(22.8799 179.932)" fill="#212529"/>
</svg>
