<svg width="240" height="235" viewBox="0 0 240 235" fill="none" xmlns="http://www.w3.org/2000/svg">
<path d="M0 0V142.815H80.804V119.819C61.7085 112.154 48.04 93.3947 48.04 71.4076C48.04 42.5622 71.3567 19.3648 99.8995 19.3648C128.643 19.3648 151.759 42.7639 151.759 71.4076C151.759 93.3947 138.291 112.154 118.995 119.819V142.815H199.799V0H0Z" transform="translate(20.1006 49.0166)" fill="#FFCD30"/>
<path d="M240 182.957H129.648V173.678H230.754V9.27902H9.24594V173.678H110.352V182.957H0V0H240V182.957Z" transform="translate(0 28.8452)" fill="#212529"/>
<path d="M240 38.1244H0V0H240V38.1244ZM9.24594 28.8454H230.754V9.07723H9.24594V28.8454Z" fill="#212529"/>
<path d="M9.24594 0H0V9.27902H9.24594V0Z" transform="translate(56.8838 14.3223)" fill="#212529"/>
<path d="M9.24644 0H0V9.27902H9.24644V0Z" transform="translate(38.3916 14.3223)" fill="#212529"/>
<path d="M9.24594 0H0V9.27902H9.24594V0Z" transform="translate(20.1006 14.3228)" fill="#212529"/>
<path d="M56.4827 113.365C25.3269 113.365 0 87.9483 0 56.6823C0 25.4163 25.3269 0 56.4827 0C87.6385 0 112.965 25.4163 112.965 56.6823C112.965 87.9483 87.6385 113.365 56.4827 113.365ZM56.4827 9.07723C30.352 9.07723 9.24644 30.4592 9.24644 56.4805C9.24644 82.5019 30.553 103.884 56.4827 103.884C82.6133 103.884 103.719 82.5019 103.719 56.4805C103.719 30.4592 82.6133 9.07723 56.4827 9.07723Z" transform="translate(63.5166 63.7427)" fill="#212529"/>
<path d="M47.8388 23.1974H0V0H9.24594V13.9185H38.5929V0H47.8388V23.1974Z" transform="translate(96.0801 168.433)" fill="#212529"/>
<path d="M9.24644 0H0V48.0084H9.24644V0Z" transform="translate(125.024 186.991)" fill="#212529"/>
<path d="M9.24644 0H0V48.0084H9.24644V0Z" transform="translate(105.728 186.992)" fill="#212529"/>
<path d="M18.0905 36.5107L0 18.1545L18.0905 0L24.7232 6.45494L13.0653 18.1545L24.7232 30.0558L18.0905 36.5107Z" transform="translate(84.0195 102.068)" fill="#212529"/>
<path d="M6.63278 36.5107L0 30.0558L11.8591 18.1545L0 6.45494L6.63278 0L24.7232 18.1545L6.63278 36.5107Z" transform="translate(131.256 102.068)" fill="#212529"/>
<path d="M52.0369 0H0V9.24718H52.0369V0Z" transform="matrix(0.173206 -0.984905 0.984695 0.174396 111.228 145.16)" fill="#212529"/>
<path d="M9.24594 0H0V9.2789H9.24594V0Z" transform="translate(37.1865 97.2275)" fill="white"/>
<path d="M9.24594 0H0V9.2789H9.24594V0Z" transform="translate(37.1865 115.786)" fill="white"/>
<path d="M9.24594 0H0V9.2789H9.24594V0Z" transform="translate(37.1865 134.141)" fill="white"/>
<path d="M9.24594 0H0V9.2789H9.24594V0Z" transform="translate(193.568 97.2275)" fill="white"/>
<path d="M9.24594 0H0V9.2789H9.24594V0Z" transform="translate(193.567 115.786)" fill="white"/>
<path d="M9.24594 0H0V9.2789H9.24594V0Z" transform="translate(193.567 134.141)" fill="white"/>
</svg>
