<svg width="271" height="248" viewBox="0 0 271 248" fill="none" xmlns="http://www.w3.org/2000/svg">
<path d="M77.9887 26.2203H0V0H10.0209V16.1691H67.9678V0H77.9887V26.2203Z" transform="translate(111.32 212.78)" fill="#242D3C"/>
<path d="M106.744 0H0V10.0512H106.744V0Z" transform="translate(96.9414 228.949)" fill="#212529"/>
<path d="M240.937 167.154H29.627V125.42C29.627 124.109 28.5377 122.798 27.0128 122.798H0V13.3286C0 9.83255 1.30708 6.55504 3.92122 3.93301C6.53537 1.52949 9.80302 0 13.2885 0H127.657V96.5779C127.657 100.074 130.489 102.914 133.975 102.914H200.636C204.121 102.914 206.953 100.074 206.953 96.5779V0H227.866C231.352 0 234.62 1.31099 237.234 3.93301C239.63 6.33654 241.155 9.83255 241.155 13.3286V167.154H240.937ZM39.6479 157.103H230.916V13.3286C230.916 12.4546 230.48 11.7991 230.045 11.1436C229.173 10.2695 228.302 10.2695 227.866 10.2695H216.974V96.7964C216.974 105.755 209.567 113.184 200.636 113.184H133.975C124.825 113.184 117.637 105.755 117.637 96.7964V10.051H13.2885C12.4172 10.051 11.5458 10.4881 11.1101 10.9251C10.4566 11.5806 10.2387 12.2361 10.2387 13.1101V112.747H27.2307C34.2017 112.747 39.8657 118.428 39.8657 125.42V157.103H39.6479Z" transform="translate(29.8447 19.0096)" fill="#242D3C"/>
<path d="M198.239 37.3638H0V0H211.31V24.0352C211.31 27.5313 210.003 30.8088 207.389 33.4308C204.993 36.0528 201.725 37.3638 198.239 37.3638ZM10.0209 27.3128H198.239C198.675 27.3128 199.764 27.0942 200.418 26.4387C201.071 25.7832 201.289 25.1277 201.289 24.2537V10.2696H10.0209V27.3128Z" transform="translate(59.4717 175.894)" fill="#212529"/>
<path d="M187.565 0V72.3243C187.565 78.6609 182.554 83.6864 176.237 83.6864H109.576C103.259 83.6864 98.2483 78.6609 98.2483 72.3243V0H0V93.3005H2.832C6.97106 93.3005 10.4566 96.7965 10.4566 100.948V118.428H192.575V0H187.565Z" transform="translate(54.2441 43.4817)" fill="#EF4631"/>
<path d="M9.58522 0H0V10.0512H9.58522V0Z" transform="translate(30.0615 147.271)" fill="#212529"/>
<path d="M21.131 0H0V10.051H21.131V0Z" transform="translate(24.1787 222.435)" fill="#212529"/>
<path d="M56.8576 116.243H12.635C5.66395 116.243 0 110.562 0 103.57V12.6731C0 5.68103 5.66395 0 12.635 0H56.8576C63.8287 0 69.4927 5.68103 69.4927 12.6731V103.57C69.4927 110.562 63.8287 116.243 56.8576 116.243ZM12.635 10.051C11.3279 10.051 10.0209 11.1436 10.0209 12.6731V103.57C10.0209 104.881 11.1101 106.192 12.635 106.192H56.8576C58.1647 106.192 59.4718 105.1 59.4718 103.57V12.6731C59.4718 11.3621 58.3826 10.051 56.8576 10.051H12.635Z" transform="translate(0 131.757)" fill="#212529"/>
<path d="M9.58519 0H0V10.051H9.58519V0Z" transform="translate(192.357 19.0096)" fill="#212529"/>
<path d="M28.9735 0H0V10.051H28.9735V0Z" transform="translate(182.555 102.696)" fill="#242D3C"/>
<path d="M82.9991 132.194H16.3384C7.18887 132.194 0 124.765 0 115.806V16.3877C0 7.42908 7.40671 0 16.3384 0H82.9991C91.9307 0 99.3375 7.42908 99.3375 16.3877V115.806C99.3375 124.765 91.9307 132.194 82.9991 132.194ZM16.3384 9.8326C12.8528 9.8326 10.0209 12.673 10.0209 16.1691V115.588C10.0209 119.084 12.8528 121.924 16.3384 121.924H82.9991C86.4846 121.924 89.3166 119.084 89.3166 115.588V16.1691C89.3166 12.673 86.4846 9.8326 82.9991 9.8326H16.3384Z" transform="translate(147.481)" fill="#212529"/>
</svg>
