<svg width="179" height="193" viewBox="0 0 179 193" fill="none" xmlns="http://www.w3.org/2000/svg">
<path d="M146.489 193H0V0H113.432L146.489 33.0905V193ZM7.71893 185.273H138.77V36.45L110.076 7.72668H7.55097V185.273H7.71893Z" fill="#212529"/>
<path d="M34.7344 34.7702H0V0H7.71873V27.0436H34.7344V34.7702Z" transform="translate(107.895 3.86279)" fill="#212529"/>
<path d="M50.8433 0H0V7.72668H50.8433V0Z" transform="translate(22.3174 30.9067)" fill="#212529"/>
<path d="M101.854 0H0V7.72678H101.854V0Z" transform="translate(22.3174 46.3604)" fill="#212529"/>
<path d="M101.854 0H0V7.72678H101.854V0Z" transform="translate(22.3174 61.8135)" fill="#212529"/>
<path d="M89.4371 0H0V7.72668H89.4371V0Z" transform="translate(22.3174 77.0991)" fill="#212529"/>
<path d="M98.2131 0H0V38.2779H98.2131V0Z" transform="translate(73.125 140.649) scale(0.999476 1.0005) rotate(-45)" fill="#FFCD30"/>
<path d="M30.8332 104.269C29.8264 104.269 28.8197 103.933 28.1485 103.093L1.13265 76.0493C-0.377548 74.5376 -0.377548 72.018 1.13265 70.6742L70.6016 1.13381C72.1118 -0.377937 74.6289 -0.377937 75.9713 1.13381L102.987 28.1773C103.658 28.8492 104.161 29.8571 104.161 30.8649C104.161 31.8727 103.826 32.8805 102.987 33.5524L33.518 103.093C32.8468 103.933 31.84 104.269 30.8332 104.269ZM9.35485 73.3618L31.001 95.0302L94.9325 31.0328L73.2863 9.36438L9.35485 73.3618Z" transform="translate(69.3418 67.2314)" fill="#212529"/>
<path d="M98.2131 0H0V7.72281H98.2131V0Z" transform="translate(83.9033 151.412) scale(0.999476 1.00051) rotate(-44.9919)" fill="#212529"/>
<path d="M32.5531 41.993L0 9.4064L2.68475 6.71888C7.04753 2.35161 12.7526 0 18.9612 0C25.1698 0 30.8751 2.35161 35.2378 6.71888C44.1312 15.6214 44.1312 30.2349 35.2378 39.3054L32.5531 41.993ZM11.2425 9.91029L32.2174 30.9068C35.5734 25.0278 34.9021 17.3011 29.8681 12.4299C27.0156 9.57435 23.1563 7.89471 19.1292 7.89471C16.2766 7.72674 13.5917 8.56652 11.2425 9.91029Z" transform="translate(137.093 61.646)" fill="#212529"/>
<path d="M30.8751 30.9068H0V0H7.71873V23.3481H30.8751V30.9068Z" transform="translate(69.3008 140.593)" fill="#212529"/>
</svg>
