<svg width="124" height="108" viewBox="0 0 124 108" fill="none" xmlns="http://www.w3.org/2000/svg">
<path d="M105.6 107.5H0.0999756V41.5H105.6L123.9 59.8V89.1L105.6 107.5ZM4.70001 102.9H103.7L119.3 87.3V61.8L103.7 46.2H4.70001V102.9Z" fill="#53372A"/>
<path d="M104.6 81.7C100.6 81.7 97.4 78.5 97.4 74.5C97.4 70.5 100.6 67.3 104.6 67.3C108.6 67.3 111.8 70.5 111.8 74.5C111.8 78.5 108.6 81.7 104.6 81.7ZM104.6 71.9C103.2 71.9 102 73.1 102 74.5C102 75.9 103.2 77.1 104.6 77.1C106 77.1 107.2 75.9 107.2 74.5C107.3 73.1 106.1 71.9 104.6 71.9Z" fill="#53372A"/>
<path d="M89.7 52H10.5V97H89.7V52Z" fill="#FFCD30"/>
<path d="M58.6 86.1998H43.8C42.5 86.1998 41.5 85.1999 41.5 83.8999V65.1998C41.5 63.8998 42.5 62.8999 43.8 62.8999H58.6V67.4999H46.1V81.5999H58.6V86.1998Z" fill="#53372A"/>
<path d="M52.4 72.1997H41.6V76.7998H52.4V72.1997Z" fill="#53372A"/>
<path d="M72.9 86.1998H69.8C67.9 86.1998 66.2 85.4998 64.9 84.1998C63.6 82.8998 62.9 81.0999 62.9 79.2999V69.9999C62.9 68.0999 63.6 66.3999 64.9 65.0999C66.2 63.7999 68 63.0999 69.8 63.0999H72.9C74.8 63.0999 76.5 63.7999 77.8 65.0999C79.1 66.3999 79.8 68.1999 79.8 69.9999V79.2999C79.8 81.1999 79.1 82.8998 77.7 84.1998C76.5 85.3998 74.7 86.1998 72.9 86.1998ZM69.8 67.4999C69.2 67.4999 68.6 67.6998 68.1 68.1998C67.6 68.6998 67.4 69.2999 67.4 69.8999V79.1998C67.4 79.7998 67.6 80.3999 68.1 80.8999C68.5 81.2999 69.1 81.5999 69.8 81.5999H72.9C73.5 81.5999 74.1 81.3999 74.6 80.8999C75.1 80.3999 75.3 79.8998 75.3 79.1998V69.8999C75.3 69.2999 75.1 68.6998 74.6 68.1998C74.1 67.6998 73.5 67.4999 72.9 67.4999H69.8Z" fill="#53372A"/>
<path d="M30.5 86.1998H27.4C25.5 86.1998 23.8 85.4998 22.5 84.1998C21.2 82.8998 20.5 81.0999 20.5 79.2999H25.1C25.1 79.8999 25.3 80.4999 25.8 80.9999C26.2 81.3999 26.8 81.6998 27.5 81.6998H30.6C31.2 81.6998 31.8 81.4999 32.3 80.9999C32.8 80.4999 33 79.9999 33 79.2999C33 78.6999 32.8 78.0999 32.3 77.5999C31.9 77.1999 31.3 76.8999 30.6 76.8999H27.5C25.6 76.8999 23.9 76.1999 22.6 74.8999C21.3 73.5999 20.6 71.7999 20.6 69.9999C20.6 68.0999 21.3 66.3999 22.6 65.0999C23.9 63.7999 25.7 63.0999 27.5 63.0999H30.6C32.5 63.0999 34.2 63.7999 35.5 65.0999C36.8 66.3999 37.5 68.1999 37.5 69.9999H32.9C32.9 69.3999 32.7 68.7999 32.2 68.2999C31.8 67.8999 31.2 67.5999 30.5 67.5999H27.4C26.8 67.5999 26.2 67.7999 25.7 68.2999C25.3 68.6999 25 69.2999 25 69.9999C25 70.5999 25.2 71.1998 25.7 71.6998C26.1 72.0998 26.7 72.3999 27.4 72.3999H30.5C32.4 72.3999 34.1 73.0999 35.4 74.3999C36.7 75.6999 37.4 77.4999 37.4 79.2999C37.4 81.1999 36.7 82.8998 35.4 84.1998C34.1 85.3998 32.4 86.1998 30.5 86.1998Z" fill="#53372A"/>
<path d="M106.9 69.6H102.3V43.8C102.3 41.6 103.2 39.4 104.8 37.8C106.4 36.2001 108.5 35.3 110.8 35.3H115.5C116.5 35.3 117.5 34.9 118.2 34.2C118.9 33.5 119.3 32.5 119.3 31.5C119.3 30.5 118.9 29.5 118.2 28.8C117.5 28.1 116.5 27.7 115.5 27.7H77.5C75.2 27.7 73.1 26.8 71.5 25.2C69.9 23.6 69 21.5 69 19.2C69 16.9 69.9 14.8 71.5 13.2C73.1 11.6 75.2 10.7 77.5 10.7H98.6C99.6 10.7 100.6 10.3 101.3 9.59998C102 8.89998 102.4 7.90002 102.4 6.90002V0.800049H107V6.90002C107 9.20002 106.1 11.3 104.5 12.9C102.9 14.5 100.8 15.4 98.5 15.4H77.4C76.4 15.4 75.4 15.8 74.7 16.5C74 17.2 73.6 18.2 73.6 19.2C73.6 20.2 74 21.2 74.7 21.9C75.4 22.6 76.4 23 77.4 23H115.4C117.7 23 119.8 23.9 121.4 25.5C123 27.1 123.9 29.2 123.9 31.5C123.9 33.8 123 35.9 121.4 37.5C119.8 39.1 117.7 40 115.4 40H110.7C109.7 40 108.7 40.4 108 41.1C107.3 41.8 106.9 42.8 106.9 43.8V69.6Z" fill="#53372A"/>
</svg>
