<svg width="397" height="246" viewBox="0 0 397 246" fill="none" xmlns="http://www.w3.org/2000/svg">
<path d="M332.084 217.381H0V17.3442C0 12.7191 1.73089 8.38318 5.1931 5.20341C8.3668 2.02363 12.6948 0 17.311 0H314.773C319.389 0 323.716 1.73456 326.89 5.20341C330.064 8.38318 332.084 12.7191 332.084 17.3442V217.381ZM12.9833 204.084H318.812V17.3442C318.812 16.1879 318.523 15.3207 317.658 14.4535C316.792 13.5863 315.927 13.2972 314.773 13.2972H17.0226C15.8685 13.2972 15.003 13.5863 14.1374 14.4535C13.2719 15.3207 12.9833 16.1879 12.9833 17.3442V204.084V204.084Z" transform="translate(32.6006)" fill="#212529"/>
<path d="M376.227 41.6262H20.7735C15.2916 41.6262 10.098 39.6028 6.0588 35.5558C2.01955 31.5088 0 26.3056 0 20.8133V0H397V20.8133C397 26.3056 394.692 31.5088 390.941 35.5558C386.902 39.3137 381.709 41.6262 376.227 41.6262ZM13.2717 13.0082V20.5243C13.2717 22.5478 14.1374 24.571 15.58 26.0163C17.0226 27.4617 19.0423 28.329 21.0619 28.329H376.227C378.247 28.329 380.266 27.4617 381.709 26.0163C383.151 24.571 384.017 22.5478 384.017 20.5243V13.0082H13.2717Z" transform="translate(0 204.374)" fill="#212529"/>
<path d="M38.3726 0H0V36.4228H38.3726V0Z" transform="translate(67.2256 145.981)" fill="#2EB349"/>
<path d="M38.3726 0H0V64.1735H38.3726V0Z" transform="translate(123.199 118.231)" fill="#2EB349"/>
<path d="M38.373 0H0V91.9242H38.373V0Z" transform="translate(179.171 90.48)" fill="#2EB349"/>
<path d="M38.373 0H0V119.675H38.373V0Z" transform="translate(235.145 62.7285)" fill="#2EB349"/>
<path d="M38.373 0H0V147.426H38.373V0Z" transform="translate(291.114 34.978)" fill="#2EB349"/>
<path d="M111.945 0H0V13.2972H111.945V0Z" transform="translate(67.2236 59.2593)" fill="#212529"/>
<path d="M57.9919 0H0V13.2972H57.9919V0Z" transform="translate(67.2236 83.2534)" fill="#212529"/>
<path d="M111.945 0H0V13.2972H111.945V0Z" transform="translate(67.2236 34.978)" fill="#212529"/>
</svg>
