<svg width="262" height="240" viewBox="0 0 262 240" fill="none" xmlns="http://www.w3.org/2000/svg">
<path d="M9.04775 0H0V18.1429H9.04775V0Z" transform="translate(117.428 4.5354)" fill="#212529"/>
<path d="M9.04823 0H0V18.1429H9.04823V0Z" transform="translate(99.332 4.5354)" fill="#212529"/>
<path d="M9.04775 0H0V18.1429H9.04775V0Z" transform="translate(135.524 4.5354)" fill="#212529"/>
<path d="M9.04823 0H0V18.1429H9.04823V0Z" transform="translate(153.619 4.5354)" fill="#212529"/>
<path d="M22.6201 0H0V9.07143H22.6201V0Z" transform="translate(162.668 126.803)" fill="#212529"/>
<path d="M22.6201 0H0V9.07143H22.6201V0Z" transform="translate(162.668 144.946)" fill="#212529"/>
<path d="M22.6201 0H0V9.07167H22.6201V0Z" transform="translate(162.668 108.66)" fill="#212529"/>
<path d="M22.6201 0H0V9.07143H22.6201V0Z" transform="translate(162.668 90.5173)" fill="#212529"/>
<path d="M22.6201 0H0V9.07143H22.6201V0Z" transform="translate(162.668 72.375)" fill="#212529"/>
<path d="M22.6201 0H0V9.07143H22.6201V0Z" transform="translate(162.668 54.2317)" fill="#212529"/>
<path d="M22.6201 0H0V9.07143H22.6201V0Z" transform="translate(162.668 36.2856)" fill="#212529"/>
<path d="M22.6201 0H0V9.07143H22.6201V0Z" transform="translate(76.9072 126.803)" fill="#212529"/>
<path d="M22.6201 0H0V9.07143H22.6201V0Z" transform="translate(76.9072 144.946)" fill="#212529"/>
<path d="M22.6201 0H0V9.07167H22.6201V0Z" transform="translate(76.9072 108.66)" fill="#212529"/>
<path d="M22.6201 0H0V9.07143H22.6201V0Z" transform="translate(76.9072 90.5173)" fill="#212529"/>
<path d="M22.6201 0H0V9.07143H22.6201V0Z" transform="translate(76.9072 72.375)" fill="#212529"/>
<path d="M22.6201 0H0V9.07143H22.6201V0Z" transform="translate(76.9072 54.2317)" fill="#212529"/>
<path d="M22.6201 0H0V9.07143H22.6201V0Z" transform="translate(76.9072 36.2856)" fill="#212529"/>
<path d="M9.04775 0H0V18.1429H9.04775V0Z" transform="translate(117.428 167.428)" fill="#212529"/>
<path d="M9.04823 0H0V18.1429H9.04823V0Z" transform="translate(99.332 167.428)" fill="#212529"/>
<path d="M9.04775 0H0V18.1429H9.04775V0Z" transform="translate(135.524 167.428)" fill="#212529"/>
<path d="M9.04823 0H0V18.1429H9.04823V0Z" transform="translate(153.619 167.428)" fill="#212529"/>
<path d="M91.2669 190.107H26.1602C11.8014 190.107 0 178.274 0 163.878V26.2285C0 11.8325 11.8014 0 26.1602 0H91.2669C105.626 0 117.428 11.8325 117.428 26.2285V163.878C117.624 178.274 105.822 190.107 91.2669 190.107ZM26.3571 9.07143C16.9157 9.07143 9.24464 16.7626 9.24464 26.2285V163.878C9.24464 173.344 16.9157 181.035 26.3571 181.035H91.4638C100.905 181.035 108.576 173.344 108.576 163.878V26.2285C108.576 16.7626 100.905 9.07143 91.4638 9.07143H26.3571Z" transform="translate(72.1875)" fill="#212529"/>
<path d="M36.1919 18.1431C36.1919 28.2006 28.1275 36.286 18.096 36.286C8.06446 36.286 0 28.2006 0 18.1431C0 8.0856 8.06446 0 18.096 0C28.1275 0 36.1919 8.0856 36.1919 18.1431Z" transform="translate(112.902 76.9104)" fill="#FFCD30"/>
<path d="M22.6201 45.3574C10.2282 45.3574 0 35.1027 0 22.6787C0 10.2547 10.2282 0 22.6201 0C35.012 0 45.2402 10.0575 45.2402 22.6787C45.2402 35.2999 35.012 45.3574 22.6201 45.3574ZM22.6201 9.07143C15.1456 9.07143 9.04823 15.1849 9.04823 22.6787C9.04823 30.1725 15.1456 36.2857 22.6201 36.2857C30.0945 36.2857 36.1919 30.1725 36.1919 22.6787C36.1919 15.1849 30.0945 9.07143 22.6201 9.07143Z" transform="translate(108.379 72.375)" fill="#212529"/>
<path d="M9.04823 0H0V9.07143H9.04823V0Z" transform="translate(126.476 90.5183)" fill="#212529"/>
<path d="M35.9951 22.4813H8.85134C6.49098 22.4813 4.13024 21.4954 2.55667 19.9178C0.786402 18.1429 0 15.9735 0 13.607V0H9.04775V13.607H36.1919V0H45.2402V13.607C45.2402 15.9735 44.2566 18.3401 42.683 19.9178C40.7161 21.4954 38.3554 22.4813 35.9951 22.4813Z" transform="translate(108.577 185.769)" fill="#212529"/>
<path d="M9.04775 0H0V36.286H9.04775V0Z" transform="translate(135.524 203.714)" fill="#212529"/>
<path d="M9.04775 0H0V36.286H9.04775V0Z" transform="translate(117.428 203.714)" fill="#212529"/>
<path d="M9.04775 0H0V99.5891H9.04775V0Z" transform="translate(216.761 45.1602)" fill="#12ABE3"/>
<path d="M9.04823 0H0V45.3574H9.04823V0Z" transform="translate(198.664 72.3752)" fill="#12ABE3"/>
<path d="M9.04775 0H0V45.3574H9.04775V0Z" transform="translate(234.857 72.3752)" fill="#12ABE3"/>
<path d="M9.04823 0H0V18.1431H9.04823V0Z" transform="translate(252.951 85.9812)" fill="#12ABE3"/>
<path d="M9.04775 0H0V99.5891H9.04775V0Z" transform="translate(36.1934 45.1599)" fill="#12ABE3"/>
<path d="M9.04823 0H0V45.3574H9.04823V0Z" transform="translate(54.2871 72.375)" fill="#12ABE3"/>
<path d="M9.04775 0H0V45.3574H9.04775V0Z" transform="translate(18.0967 72.375)" fill="#12ABE3"/>
<path d="M9.04823 0H0V18.1431H9.04823V0Z" transform="translate(0 85.9812)" fill="#12ABE3"/>
</svg>
