<svg width="239" height="248" viewBox="0 0 239 248" fill="none" xmlns="http://www.w3.org/2000/svg">
<path d="M182.953 219.2H0V0H182.953V9.20007H9.2074V210H182.953V219.2Z" transform="translate(0 28.7999)" fill="#212529"/>
<path d="M182.953 38H0V0H182.953V9.19995H9.2074V28.7999H182.953V38Z" fill="#212529"/>
<path d="M162.936 0H0V179.4H162.936V0Z" transform="translate(20.0156 48.6)" fill="#53372A"/>
<path d="M9.20788 0H0V9.20007H9.20788V0Z" transform="translate(56.6465 14.3999)" fill="#212529"/>
<path d="M9.20788 0H0V9.20007H9.20788V0Z" transform="translate(38.2314 14.3999)" fill="#212529"/>
<path d="M9.20739 0H0V9.20007H9.20739V0Z" transform="translate(20.0156 14.3999)" fill="#212529"/>
<path d="M27.6232 0H0V27.6001H27.6232V0Z" transform="translate(40.834 69.3998)" fill="white"/>
<path d="M9.20739 0H0V9.19995H9.20739V0Z" transform="translate(50.042 78.6)" fill="#2EB349"/>
<path d="M84.4709 0H0V9.20007H84.4709V0Z" transform="translate(77.667 69.3998)" fill="#2EB349"/>
<path d="M42.2355 0H0V9.20007H42.2355V0Z" transform="translate(77.666 87.7999)" fill="#2EB349"/>
<path d="M27.6232 0H0V27.6H27.6232V0Z" transform="translate(40.835 106.2)" fill="white"/>
<path d="M9.20739 0H0V9.20007H9.20739V0Z" transform="translate(50.042 115.4)" fill="#2EB349"/>
<path d="M84.4709 0H0V9.19995H84.4709V0Z" transform="translate(77.667 106.2)" fill="#2EB349"/>
<path d="M42.2355 0H0V9.19995H42.2355V0Z" transform="translate(77.666 124.6)" fill="#2EB349"/>
<path d="M27.6232 0H0V27.6H27.6232V0Z" transform="translate(40.835 143)" fill="white"/>
<path d="M84.4709 0H0V9.19995H84.4709V0Z" transform="translate(77.667 143)" fill="white"/>
<path d="M42.2355 0H0V9.20007H42.2355V0Z" transform="translate(77.666 161.4)" fill="white"/>
<path d="M27.6232 0H0V27.6H27.6232V0Z" transform="translate(40.835 179.6)" fill="white"/>
<path d="M84.4709 0H0V9.19995H84.4709V0Z" transform="translate(77.667 179.6)" fill="white"/>
<path d="M42.2355 0H0V9.19995H42.2355V0Z" transform="translate(77.666 198)" fill="white"/>
<path d="M33.0276 176.4L16.4136 159.8L0 176.4V0H33.0276V176.4Z" transform="translate(201.368 33.3999)" fill="#12ABE3"/>
<path d="M9.20739 0H0V160H9.20739V0Z" transform="translate(213.179 33.3999)" fill="#212529"/>
<path d="M21.0175 214.6L0 177.6V0H9.20788V175.2L21.0175 196L33.0276 175.2V0H42.2355V177.6L21.0175 214.6Z" transform="translate(196.764 33.3999)" fill="#212529"/>
<path d="M33.2279 26.2001L19.8164 13L6.60561 26.2001L0 19.8L19.8164 0L39.6332 19.8L33.2279 26.2001Z" transform="translate(197.966 186.8)" fill="#212529"/>
<path d="M42.2355 37.8H0V12.8C0 9.40005 1.40146 6.20005 3.80347 3.80005C6.20547 1.40005 9.40815 0 12.811 0H29.425C32.8278 0 36.0305 1.40005 38.4325 3.80005C40.8345 6.20005 42.2355 9.40005 42.2355 12.8V37.8V37.8ZM9.20788 28.6H33.0276V12.8C33.0276 11.8 32.6272 10.8 32.0267 10.2C31.4262 9.59995 30.4258 9.19995 29.425 9.19995H12.811C11.8102 9.19995 10.8092 9.59995 10.2087 10.2C9.60822 10.8 9.20788 11.8 9.20788 12.8V28.6V28.6Z" transform="translate(196.765 0.199951)" fill="#212529"/>
</svg>
