<svg width="230" height="246" viewBox="0 0 230 246" fill="none" xmlns="http://www.w3.org/2000/svg">
<path d="M229.808 114.736H220.954V108.394L196.511 104.742L195.934 101.667C194.971 96.2859 193.624 91.0969 191.699 85.9078L190.544 82.8329L209.791 67.4579L203.44 56.5032L180.343 65.536L178.226 63.0375C174.762 58.8093 170.913 54.9656 166.678 51.5062L164.176 49.3922L173.222 26.3297L162.251 19.9875L146.854 39.2063L143.774 38.0531C138.77 36.1312 133.381 34.786 127.992 33.8251L124.912 33.2484L121.255 8.84069H108.553L104.896 33.2484L101.816 33.8251C96.427 34.786 91.2303 36.1312 86.0337 38.0531L82.9542 39.2063L67.5567 19.9875L56.5859 26.3297L65.632 49.3922L63.1299 51.5062C58.8956 54.9656 55.0462 58.8093 51.5818 63.0375L49.4646 65.536L26.3683 56.5032L20.0168 67.4579L39.2637 82.8329L38.109 85.9078C36.1843 90.9047 34.837 96.2859 33.8746 101.667L33.2972 104.742L8.85364 108.394V114.736H0V100.706L25.5985 96.8625C26.3683 93.0188 27.3306 89.3672 28.6779 85.7157L8.46868 69.5719L22.5189 45.3563L46.7701 54.7734C49.2722 51.8906 51.9666 49.2 54.8537 46.7015L45.4228 22.486L69.6738 8.45629L85.8412 28.636C89.4981 27.4829 93.155 26.3297 97.0044 25.5609L100.854 0H128.762L132.611 25.5609C136.461 26.3297 140.117 27.2907 143.774 28.636L159.942 8.45629L184.193 22.486L174.762 46.7015C177.649 49.2 180.343 51.8906 182.846 54.7734L207.097 45.3563L221.147 69.5719L200.938 85.7157C202.092 89.3672 203.247 93.0188 204.017 96.8625L229.616 100.706V114.736H229.808Z" fill="#212529"/>
<path d="M36.3766 62.8453C36.3766 48.2391 48.3097 36.3235 62.9374 36.3235C77.565 36.3235 89.4981 48.2391 89.4981 62.8453H125.875C125.875 28.0594 97.7743 0 62.9374 0C28.1005 0 0 28.0594 0 62.8453H36.3766Z" transform="translate(52.1582 51.8906)" fill="#212529"/>
<path d="M61.975 30.9421H53.1214C53.1214 18.8343 43.3055 8.84058 30.9875 8.84058C18.8619 8.84058 8.85353 18.6421 8.85353 30.9421H0C0 13.8374 13.8577 0 30.9875 0C48.1172 0 61.975 13.8374 61.975 30.9421Z" transform="translate(83.916 83.7944)" fill="#212529"/>
<path d="M168.025 0H0V8.84058H168.025V0Z" transform="translate(0.192383 136.646)" fill="#212529"/>
<path d="M31.5648 0H0V8.84058H31.5648V0Z" transform="translate(198.435 136.646)" fill="#212529"/>
<path d="M15.0126 29.9812C6.73639 29.9812 0 23.2547 0 14.9906C0 6.72654 6.73639 0 15.0126 0C23.2887 0 30.0251 6.72654 30.0251 14.9906C30.0251 23.2547 23.2887 29.9812 15.0126 29.9812ZM15.0126 8.84058C11.5481 8.84058 8.85353 11.5312 8.85353 14.9906C8.85353 18.45 11.5481 21.1406 15.0126 21.1406C18.477 21.1406 21.1716 18.45 21.1716 14.9906C21.1716 11.5312 18.477 8.84058 15.0126 8.84058Z" transform="translate(159.556 126.075)" fill="#EF4631"/>
<path d="M115.674 0H0V8.84058H115.674V0Z" transform="translate(0.192383 166.627)" fill="#212529"/>
<path d="M83.9164 0H0V8.84058H83.9164V0Z" transform="translate(146.083 166.627)" fill="#212529"/>
<path d="M15.0126 29.9812C6.73639 29.9812 0 23.2547 0 14.9906C0 6.72654 6.73639 0 15.0126 0C23.2887 0 30.0252 6.72654 30.0252 14.9906C30.0252 23.2547 23.2887 29.9812 15.0126 29.9812ZM15.0126 8.84058C11.5481 8.84058 8.85364 11.5312 8.85364 14.9906C8.85364 18.45 11.5481 21.1406 15.0126 21.1406C18.477 21.1406 21.1716 18.45 21.1716 14.9906C21.1716 11.5312 18.2845 8.84058 15.0126 8.84058Z" transform="translate(107.204 156.057)" fill="#12ABE3"/>
<path d="M30.6025 0H0V8.84069H30.6025V0Z" transform="translate(0.192383 196.607)" fill="#212529"/>
<path d="M168.988 0H0V8.84069H168.988V0Z" transform="translate(61.0117 196.607)" fill="#212529"/>
<path d="M15.0127 29.9813C6.73651 29.9813 0 23.2548 0 14.9907C0 6.72665 6.73651 0 15.0127 0C23.2888 0 30.0252 6.72665 30.0252 14.9907C30.0252 23.2548 23.2888 29.9813 15.0127 29.9813ZM15.0127 8.84069C11.5482 8.84069 8.85364 11.5313 8.85364 14.9907C8.85364 18.4501 11.5482 21.1406 15.0127 21.1406C18.4771 21.1406 21.1716 18.4501 21.1716 14.9907C21.1716 11.5313 18.2846 8.84069 15.0127 8.84069Z" transform="translate(22.1338 186.037)" fill="#2EB349"/>
<path d="M97.7742 0H0V8.84058H97.7742V0Z" transform="translate(0.192383 226.589)" fill="#212529"/>
<path d="M101.816 0H0V8.84058H101.816V0Z" transform="translate(127.993 226.589)" fill="#212529"/>
<path d="M15.0126 29.9812C6.73639 29.9812 0 23.2547 0 14.9906C0 6.72654 6.73639 0 15.0126 0C23.2887 0 30.0251 6.72654 30.0251 14.9906C30.0251 23.2547 23.2887 29.9812 15.0126 29.9812ZM15.0126 8.84058C11.5481 8.84058 8.85353 11.5312 8.85353 14.9906C8.85353 18.45 11.5481 21.1406 15.0126 21.1406C18.477 21.1406 21.1716 18.45 21.1716 14.9906C21.1716 11.5312 18.477 8.84058 15.0126 8.84058Z" transform="translate(89.1133 216.019)" fill="#FFCD30"/>
</svg>
