<svg width="271" height="248" viewBox="0 0 271 248" fill="none" xmlns="http://www.w3.org/2000/svg"><path d="M189.309 239H111.32v-26.22h10.02v16.17h57.948v-16.17h10.02V239z" fill="#242D3C"/><path d="M203.685 228.949H96.941V239h106.744v-10.05z" fill="#212529"/><path d="M270.782 186.164H59.472V144.43c0-1.311-1.09-2.622-2.615-2.622H29.845V32.338c0-3.496 1.307-6.773 3.92-9.395 2.615-2.404 5.883-3.933 9.368-3.933h114.369v96.577c0 3.497 2.832 6.337 6.318 6.337h66.66c3.486 0 6.318-2.84 6.318-6.337V19.01h20.913c3.486 0 6.754 1.31 9.368 3.933 2.396 2.403 3.92 5.9 3.92 9.395v153.826h-.217zm-201.29-10.051h191.269V32.338c0-.874-.436-1.53-.871-2.185-.872-.874-1.743-.874-2.18-.874h-10.89v86.527c0 8.959-7.407 16.388-16.338 16.388H163.82c-9.15 0-16.338-7.43-16.338-16.388V29.061H43.133c-.871 0-1.743.437-2.178.874-.654.655-.872 1.31-.872 2.185v99.637h16.992c6.971 0 12.635 5.68 12.635 12.673v31.683h-.217z" fill="#242D3C"/><path d="M257.71 213.258H59.473v-37.364h211.31v24.035c0 3.496-1.307 6.774-3.921 9.396-2.396 2.622-5.664 3.933-9.15 3.933zM69.494 203.207H257.71c.436 0 1.525-.219 2.179-.874.653-.656.87-1.311.87-2.185v-13.984H69.494v17.043z" fill="#212529"/><path d="M241.81 43.482v72.324c0 6.337-5.012 11.362-11.329 11.362h-66.66c-6.318 0-11.329-5.025-11.329-11.362V43.482H54.244v93.3h2.832c4.14 0 7.625 3.496 7.625 7.648v17.48h182.118V43.482h-5.01z" fill="#EF4631"/><path d="M39.647 147.271h-9.585v10.051h9.585v-10.051zm5.663 75.164H24.179v10.051h21.13v-10.051z" fill="#212529"/><path d="M56.858 248H12.635C5.664 248 0 242.319 0 235.327V144.43c0-6.992 5.664-12.673 12.635-12.673h44.223c6.97 0 12.635 5.681 12.635 12.673v90.897c0 6.992-5.664 12.673-12.635 12.673zM12.635 141.808c-1.307 0-2.614 1.093-2.614 2.622v90.897c0 1.311 1.09 2.622 2.614 2.622h44.223c1.307 0 2.614-1.092 2.614-2.622V144.43c0-1.31-1.09-2.622-2.614-2.622H12.635zM201.942 19.01h-9.585v10.05h9.585V19.01z" fill="#212529"/><path d="M211.529 102.696h-28.974v10.051h28.974v-10.051z" fill="#242D3C"/><path d="M230.48 132.194h-66.66c-9.15 0-16.339-7.429-16.339-16.388V16.388C147.481 7.429 154.888 0 163.819 0h66.661c8.932 0 16.339 7.43 16.339 16.388v99.418c0 8.959-7.407 16.388-16.339 16.388zM163.82 9.833c-3.486 0-6.318 2.84-6.318 6.336v99.419c0 3.496 2.832 6.336 6.317 6.336h66.661c3.486 0 6.318-2.84 6.318-6.336V16.169c0-3.496-2.832-6.336-6.318-6.336h-66.66z" fill="#212529"/></svg>