<svg width="124" height="108" viewBox="0 0 124 108" fill="none" xmlns="http://www.w3.org/2000/svg"><path d="M105.6 107.5H.1v-66h105.5l18.3 18.3v29.3l-18.3 18.4zM4.7 102.9h99l15.6-15.6V61.8l-15.6-15.6h-99v56.7z" fill="#53372A"/><path d="M104.6 81.7c-4 0-7.2-3.2-7.2-7.2s3.2-7.2 7.2-7.2 7.2 3.2 7.2 7.2-3.2 7.2-7.2 7.2zm0-9.8c-1.4 0-2.6 1.2-2.6 2.6 0 1.4 1.2 2.6 2.6 2.6 1.4 0 2.6-1.2 2.6-2.6.1-1.4-1.1-2.6-2.6-2.6z" fill="#53372A"/><path d="M89.7 52H10.5v45h79.2V52z" fill="#FFCD30"/><path d="M58.6 86.2H43.8c-1.3 0-2.3-1-2.3-2.3V65.2c0-1.3 1-2.3 2.3-2.3h14.8v4.6H46.1v14.1h12.5v4.6z" fill="#53372A"/><path d="M52.4 72.2H41.6v4.6h10.8v-4.6zm20.5 14h-3.1c-1.9 0-3.6-.7-4.9-2-1.3-1.3-2-3.1-2-4.9V70c0-1.9.7-3.6 2-4.9 1.3-1.3 3.1-2 4.9-2h3.1c1.9 0 3.6.7 4.9 2 1.3 1.3 2 3.1 2 4.9v9.3c0 1.9-.7 3.6-2.1 4.9-1.2 1.2-3 2-4.8 2zm-3.1-18.7c-.6 0-1.2.2-1.7.7-.5.5-.7 1.1-.7 1.7v9.3c0 .6.2 1.2.7 1.7.4.4 1 .7 1.7.7h3.1c.6 0 1.2-.2 1.7-.7.5-.5.7-1 .7-1.7v-9.3c0-.6-.2-1.2-.7-1.7-.5-.5-1.1-.7-1.7-.7h-3.1zM30.5 86.2h-3.1c-1.9 0-3.6-.7-4.9-2-1.3-1.3-2-3.1-2-4.9h4.6c0 .6.2 1.2.7 1.7.4.4 1 .7 1.7.7h3.1c.6 0 1.2-.2 1.7-.7.5-.5.7-1 .7-1.7 0-.6-.2-1.2-.7-1.7-.4-.4-1-.7-1.7-.7h-3.1c-1.9 0-3.6-.7-4.9-2-1.3-1.3-2-3.1-2-4.9 0-1.9.7-3.6 2-4.9 1.3-1.3 3.1-2 4.9-2h3.1c1.9 0 3.6.7 4.9 2 1.3 1.3 2 3.1 2 4.9h-4.6c0-.6-.2-1.2-.7-1.7-.4-.4-1-.7-1.7-.7h-3.1c-.6 0-1.2.2-1.7.7-.4.4-.7 1-.7 1.7 0 .6.2 1.2.7 1.7.4.4 1 .7 1.7.7h3.1c1.9 0 3.6.7 4.9 2 1.3 1.3 2 3.1 2 4.9 0 1.9-.7 3.6-2 4.9-1.3 1.2-3 2-4.9 2zm76.4-16.6h-4.6V43.8c0-2.2.9-4.4 2.5-6 1.6-1.6 3.7-2.5 6-2.5h4.7c1 0 2-.4 2.7-1.1.7-.7 1.1-1.7 1.1-2.7 0-1-.4-2-1.1-2.7-.7-.7-1.7-1.1-2.7-1.1h-38c-2.3 0-4.4-.9-6-2.5-1.6-1.6-2.5-3.7-2.5-6s.9-4.4 2.5-6c1.6-1.6 3.7-2.5 6-2.5h21.1c1 0 2-.4 2.7-1.1.7-.7 1.1-1.7 1.1-2.7V.8h4.6v6.1c0 2.3-.9 4.4-2.5 6-1.6 1.6-3.7 2.5-6 2.5H77.4c-1 0-2 .4-2.7 1.1-.7.7-1.1 1.7-1.1 2.7 0 1 .4 2 1.1 2.7.7.7 1.7 1.1 2.7 1.1h38c2.3 0 4.4.9 6 2.5 1.6 1.6 2.5 3.7 2.5 6s-.9 4.4-2.5 6c-1.6 1.6-3.7 2.5-6 2.5h-4.7c-1 0-2 .4-2.7 1.1-.7.7-1.1 1.7-1.1 2.7v25.8z" fill="#53372A"/></svg>