<svg width="262" height="240" viewBox="0 0 262 240" fill="none" xmlns="http://www.w3.org/2000/svg"><path d="M126.476 4.535h-9.048v18.143h9.048V4.535zm-18.096 0h-9.048v18.143h9.048V4.535zm36.192 0h-9.048v18.143h9.048V4.535zm18.095 0h-9.048v18.143h9.048V4.535zm22.621 122.268h-22.62v9.071h22.62v-9.071zm0 18.143h-22.62v9.071h22.62v-9.071zm0-36.286h-22.62v9.072h22.62v-9.072zm0-18.143h-22.62v9.072h22.62v-9.072zm0-18.142h-22.62v9.071h22.62v-9.071zm0-18.143h-22.62v9.071h22.62v-9.071zm0-17.946h-22.62v9.071h22.62v-9.071zm-85.761 90.517h-22.62v9.071h22.62v-9.071zm0 18.143h-22.62v9.071h22.62v-9.071zm0-36.286h-22.62v9.072h22.62v-9.072zm0-18.143h-22.62v9.072h22.62v-9.072zm0-18.142h-22.62v9.071h22.62v-9.071zm0-18.143h-22.62v9.071h22.62v-9.071zm0-17.946h-22.62v9.071h22.62v-9.071zm26.949 131.142h-9.048v18.143h9.048v-18.143zm-18.096 0h-9.048v18.143h9.048v-18.143zm36.192 0h-9.048v18.143h9.048v-18.143zm18.095 0h-9.048v18.143h9.048v-18.143z" fill="#212529"/><path d="M163.454 190.107H98.348c-14.36 0-26.16-11.833-26.16-26.229V26.228C72.188 11.832 83.988 0 98.348 0h65.106c14.36 0 26.162 11.832 26.162 26.229v137.649c.195 14.396-11.607 26.229-26.162 26.229zM98.544 9.071c-9.44 0-17.112 7.692-17.112 17.157v137.65c0 9.466 7.671 17.157 17.113 17.157h65.106c9.442 0 17.112-7.691 17.112-17.157V26.228c0-9.465-7.67-17.157-17.112-17.157H98.545z" fill="#212529"/><path d="M149.094 95.053c0 10.058-8.064 18.143-18.096 18.143s-18.096-8.085-18.096-18.143c0-10.057 8.064-18.143 18.096-18.143s18.096 8.086 18.096 18.143z" fill="#FFCD30"/><path d="M131 117.732c-12.393 0-22.621-10.254-22.621-22.678 0-12.424 10.228-22.679 22.62-22.679 12.392 0 22.62 10.057 22.62 22.679 0 12.62-10.228 22.678-22.62 22.678zm0-36.286c-7.475 0-13.573 6.114-13.573 13.608 0 7.493 6.098 13.607 13.572 13.607 7.475 0 13.572-6.114 13.572-13.607 0-7.494-6.098-13.608-13.572-13.608z" fill="#212529"/><path d="M135.524 90.518h-9.048v9.072h9.048v-9.072zm9.048 117.732h-27.144c-2.36 0-4.72-.986-6.294-2.563-1.77-1.775-2.557-3.945-2.557-6.311v-13.607h9.048v13.607h27.144v-13.607h9.048v13.607c0 2.367-.983 4.733-2.557 6.31-1.967 1.578-4.328 2.564-6.688 2.564z" fill="#212529"/><path d="M144.572 203.714h-9.048V240h9.048v-36.286zm-18.096 0h-9.048V240h9.048v-36.286z" fill="#212529"/><path d="M225.809 45.16h-9.048v99.59h9.048V45.16zm-18.097 27.215h-9.048v45.358h9.048V72.375zm36.193 0h-9.048v45.358h9.048V72.375zM262 85.981h-9.049v18.143h9.048V85.981zM45.241 45.16h-9.048v99.589h9.048v-99.59zm18.094 27.215h-9.048v45.357h9.048V72.375zm-36.191 0h-9.047v45.357h9.047V72.375zM9.048 85.981H0v18.143h9.048V85.981z" fill="#12ABE3"/></svg>