<svg width="230" height="246" viewBox="0 0 230 246" fill="none" xmlns="http://www.w3.org/2000/svg"><path d="M229.808 114.736h-8.854v-6.342l-24.443-3.652-.577-3.075c-.963-5.381-2.31-10.57-4.235-15.76l-1.155-3.074 19.247-15.375-6.351-10.955-23.097 9.033-2.117-2.498a81.74 81.74 0 0 0-11.548-11.532l-2.502-2.114 9.046-23.062-10.971-6.342-15.397 19.218-3.08-1.153c-5.004-1.922-10.393-3.267-15.782-4.228l-3.08-.577-3.657-24.407h-12.702l-3.657 24.407-3.08.577c-5.389.961-10.586 2.306-15.782 4.228l-3.08 1.153-15.397-19.219-10.971 6.343 9.046 23.062-2.502 2.114a81.798 81.798 0 0 0-11.548 11.532l-2.117 2.498-23.097-9.033-6.351 10.955 19.247 15.375-1.155 3.075c-1.925 4.997-3.272 10.378-4.234 15.759l-.578 3.075-24.443 3.652v6.342H0v-14.03l25.599-3.844c.77-3.843 1.732-7.495 3.079-11.146L8.468 69.572l14.05-24.216 24.252 9.417a80.069 80.069 0 0 1 8.084-8.072l-9.431-24.215 24.25-14.03 16.168 20.18c3.657-1.153 7.314-2.306 11.163-3.075L100.854 0h27.908l3.849 25.56c3.85.77 7.506 1.73 11.163 3.076l16.168-20.18 24.251 14.03-9.431 24.216a80.177 80.177 0 0 1 8.084 8.071l24.251-9.417 14.05 24.216-20.209 16.144c1.154 3.651 2.309 7.303 3.079 11.147l25.599 3.843v14.03h.192z" fill="#212529"/><path d="M88.535 114.736c0-14.606 11.933-26.522 26.56-26.522 14.628 0 26.561 11.916 26.561 26.522h36.377c0-34.786-28.1-62.845-62.937-62.845-34.837 0-62.938 28.059-62.938 62.845h36.377z" fill="#212529"/><path d="M145.891 114.736h-8.854c0-12.107-9.816-22.101-22.134-22.101-12.125 0-22.133 9.801-22.133 22.101h-8.854c0-17.104 13.858-30.942 30.988-30.942s30.987 13.838 30.987 30.942zm22.326 21.91H.192v8.84h168.025v-8.84zm61.783 0h-31.565v8.84H230v-8.84z" fill="#212529"/><path d="M174.569 156.056c-8.277 0-15.013-6.726-15.013-14.99s6.736-14.991 15.013-14.991c8.276 0 15.012 6.727 15.012 14.99 0 8.265-6.736 14.991-15.012 14.991zm0-21.14c-3.465 0-6.16 2.69-6.16 6.15 0 3.459 2.695 6.15 6.16 6.15 3.464 0 6.159-2.691 6.159-6.15 0-3.46-2.695-6.15-6.16-6.15z" fill="#EF4631"/><path d="M115.866 166.627H.192v8.84h115.674v-8.84zm114.134 0h-83.917v8.84h83.916v-8.84z" fill="#212529"/><path d="M122.217 186.038c-8.277 0-15.013-6.726-15.013-14.99s6.736-14.991 15.013-14.991c8.276 0 15.012 6.727 15.012 14.99 0 8.265-6.736 14.991-15.012 14.991zm0-21.14c-3.465 0-6.16 2.69-6.16 6.15 0 3.459 2.695 6.15 6.16 6.15 3.464 0 6.159-2.691 6.159-6.15 0-3.46-2.888-6.15-6.16-6.15z" fill="#12ABE3"/><path d="M30.795 196.607H.192v8.84h30.603v-8.84zm199.205 0H61.012v8.84H230v-8.84z" fill="#212529"/><path d="M37.147 216.018c-8.277 0-15.013-6.726-15.013-14.99s6.736-14.991 15.013-14.991c8.276 0 15.012 6.727 15.012 14.99 0 8.265-6.736 14.991-15.012 14.991zm0-21.14c-3.465 0-6.16 2.69-6.16 6.15 0 3.46 2.695 6.15 6.16 6.15 3.464 0 6.158-2.69 6.158-6.15 0-3.46-2.887-6.15-6.158-6.15z" fill="#2EB349"/><path d="M97.967 226.589H.192v8.84h97.775v-8.84zm131.842 0H127.993v8.84h101.816v-8.84z" fill="#212529"/><path d="M104.126 246c-8.276 0-15.013-6.726-15.013-14.99s6.737-14.991 15.013-14.991 15.012 6.727 15.012 14.99c0 8.265-6.736 14.991-15.012 14.991zm0-21.14c-3.465 0-6.16 2.69-6.16 6.15 0 3.459 2.695 6.15 6.16 6.15 3.464 0 6.159-2.691 6.159-6.15 0-3.46-2.695-6.15-6.16-6.15z" fill="#FFCD30"/></svg>