<svg id="Layer_1" xmlns="http://www.w3.org/2000/svg" viewBox="-312.5 140 83.1 72"><style>.st0{fill:#2faf4a}.st1{fill:#ffcd30}.st2{fill:#2aaae1}.st3{fill:#ef5833}.st4{stroke-linejoin:round}.st4,.st5{fill:none;stroke:#543729;stroke-width:4;stroke-miterlimit:10}</style><g id="XMLID_6_"><path class="st0" d="M-254.4 144.3l20.9 49.1-15.8-14.1-21.9-19.6z"/><path class="st1" d="M-233.5 193.4l-37.1 14.2-36.7-14.4.2-.5 14.7-13.6.2.2h42.9z"/><path class="st2" d="M-271.2 159.7l21.9 19.6h-42.9l-.2-.2z"/><path class="st3" d="M-288.3 144.3l17.1 15.4-21.2 19.4-14.7 13.6z"/><path class="st4" d="M-233.5 193.4l-15.8-14.1-21.9-19.6-17.1-15.4-18.8 48.4-.2.5 36.7 14.4 37.1-14.2-20.9-49.1-16.8 15.4-21.2 19.4-14.7 13.6-.2.2"/><path class="st5" d="M-292.2 179.3h42.9"/></g></svg>