<svg width="1200" height="800" viewBox="0 0 1200 800" fill="none" xmlns="http://www.w3.org/2000/svg"><g clip-path="url(#a)"><path fill="#fff" d="M0 0h1200v800H0z"/><path fill="#fff" d="M0 0h1200v800H0z"/><path d="M1228.99 570.668C690.658 601.782 210.7 684.304-159 801.323l1387.99.002V570.668z" fill="#EF4631"/><path d="M1229 634.926c-516.713 13.527-992.348 73.051-1381.5 166.396l1381.5.002V634.926z" fill="#12ABE3"/><path d="M1229 704.596c-38.916-.676-77.831-.676-116.747-.676-441.043-.001-856.143 35.172-1217.193 98.078L1229 802v-97.404z" fill="#2EB349"/><path d="M1229 764.798a7969.025 7969.025 0 0 0-428.072-11.5c-311.325 0-607.518 16.91-884.248 48.024l1312.32.002v-36.526z" fill="#FFCD30"/><path d="M279.928 426.484c0 1.946-.363 3.622-1.089 5.028a10.927 10.927 0 0 1-2.848 3.586c-1.195.984-2.578 1.793-4.149 2.425a29.757 29.757 0 0 1-4.851 1.442 37.555 37.555 0 0 1-5.098.703 68.7 68.7 0 0 1-4.746.176c-1.453 0-2.965-.059-4.535-.176a44.66 44.66 0 0 1-4.641-.527 42.92 42.92 0 0 1-4.57-1.02 27.165 27.165 0 0 1-4.254-1.652l-.07-45.282a39.75 39.75 0 0 1 4.183-1.44 41.998 41.998 0 0 1 4.5-1.09 45.42 45.42 0 0 1 4.606-.669c1.523-.164 3-.246 4.43-.246a40.5 40.5 0 0 1 5.027.317c1.711.21 3.351.562 4.922 1.054a21.178 21.178 0 0 1 4.394 1.934 13.689 13.689 0 0 1 3.551 2.883c1.031 1.148 1.828 2.484 2.391 4.007.586 1.524.879 3.282.879 5.274a11.82 11.82 0 0 1-.563 3.691 10.247 10.247 0 0 1-1.617 3.094c-.703.914-1.559 1.7-2.566 2.356-1.008.632-2.145 1.101-3.411 1.406 1.524.398 2.907.984 4.149 1.758a11.972 11.972 0 0 1 3.199 2.812 12 12 0 0 1 2.039 3.727c.492 1.382.738 2.86.738 4.43zm-17.859-20.039c0-.68-.141-1.254-.422-1.722a3.729 3.729 0 0 0-1.055-1.196 3.971 3.971 0 0 0-1.335-.668 4.459 4.459 0 0 0-1.266-.21c-.469 0-.926.07-1.371.21a12.31 12.31 0 0 0-1.301.493l-.211 7.804c.539 0 1.207-.047 2.004-.14a8.414 8.414 0 0 0 2.285-.598 5.164 5.164 0 0 0 1.899-1.406c.515-.633.773-1.489.773-2.567zm-4.992 11.461c-.68 0-1.336.07-1.969.211l-.141 8.016c.352.07.692.14 1.02.21.352.048.691.071 1.02.071.492 0 1.031-.047 1.617-.14a5.25 5.25 0 0 0 1.652-.633 3.949 3.949 0 0 0 1.266-1.301c.351-.54.527-1.254.527-2.145 0-.89-.176-1.617-.527-2.18-.328-.562-.739-.996-1.231-1.3a4.029 4.029 0 0 0-1.617-.633 8.292 8.292 0 0 0-1.617-.176zm64.001-7.312c0 2.039-.141 4.078-.422 6.117-4.008.258-7.992.68-11.953 1.266l-11.883 1.687c.61 1.688 1.559 3.035 2.848 4.043 1.312 1.008 2.871 1.512 4.676 1.512.937 0 1.957-.176 3.058-.528a26.541 26.541 0 0 0 3.34-1.3 40.564 40.564 0 0 0 3.164-1.723 60.935 60.935 0 0 0 2.602-1.652l-1.688 15.96a15.31 15.31 0 0 1-2.988 1.793 19.763 19.763 0 0 1-3.305 1.196 25.293 25.293 0 0 1-3.48.668c-1.172.14-2.32.21-3.445.21-2.321 0-4.442-.316-6.364-.949a19.281 19.281 0 0 1-5.238-2.636 20.197 20.197 0 0 1-4.078-4.043 23.498 23.498 0 0 1-2.918-5.063 29.163 29.163 0 0 1-1.758-5.8 32.225 32.225 0 0 1-.598-6.188c0-2.18.2-4.36.598-6.539.398-2.18.996-4.277 1.793-6.293a27.362 27.362 0 0 1 3.059-5.59 22.068 22.068 0 0 1 4.324-4.535c1.64-1.289 3.492-2.297 5.555-3.023 2.085-.727 4.382-1.09 6.89-1.09 2.086 0 3.985.293 5.695.879 1.735.562 3.27 1.359 4.606 2.39a15.658 15.658 0 0 1 3.516 3.621 19.943 19.943 0 0 1 2.46 4.641 25.606 25.606 0 0 1 1.442 5.309 32.38 32.38 0 0 1 .492 5.66zm-14.062-1.828c0-.657-.071-1.325-.211-2.004a6.132 6.132 0 0 0-.703-1.899 3.855 3.855 0 0 0-1.231-1.37c-.516-.376-1.16-.563-1.934-.563-.937 0-1.769.258-2.496.773a7.079 7.079 0 0 0-1.828 1.899 11.11 11.11 0 0 0-1.265 2.46 18.703 18.703 0 0 0-.739 2.461l10.407-.984v-.773zM360.154 421c0 3.21-.563 5.988-1.688 8.332-1.102 2.32-2.625 4.242-4.57 5.766-1.922 1.5-4.184 2.613-6.785 3.34-2.579.703-5.356 1.054-8.332 1.054-1.149 0-2.415-.152-3.797-.457a49.826 49.826 0 0 1-4.149-1.125 82.867 82.867 0 0 1-4.078-1.476 97.074 97.074 0 0 1-3.445-1.512l1.547-13.781c1.992 1.195 4.195 2.109 6.609 2.742 2.438.61 4.828.914 7.172.914.445 0 .984-.012 1.617-.035a8.67 8.67 0 0 0 1.793-.317c.586-.187 1.078-.457 1.477-.808.398-.352.597-.856.597-1.512 0-.445-.14-.82-.422-1.125a2.874 2.874 0 0 0-1.089-.773 5.726 5.726 0 0 0-1.512-.457 14.1 14.1 0 0 0-1.652-.247 17.56 17.56 0 0 0-1.512-.07h-1.125c-2.016 0-3.856-.316-5.52-.95-1.64-.632-3.058-1.523-4.254-2.671-1.172-1.172-2.086-2.578-2.742-4.219-.656-1.664-.984-3.504-.984-5.52 0-2.765.551-5.238 1.652-7.417 1.125-2.203 2.613-4.067 4.465-5.59 1.875-1.547 4.02-2.73 6.434-3.55a23.097 23.097 0 0 1 7.488-1.231c1.148 0 2.332.047 3.551.14 1.218.07 2.425.211 3.621.422 1.218.211 2.402.48 3.551.809a20.92 20.92 0 0 1 3.269 1.23l-1.336 14.274a40.396 40.396 0 0 0-5.027-1.336 24.09 24.09 0 0 0-5.098-.563c-.305 0-.703.012-1.195.035-.469 0-.973.036-1.512.106-.516.047-1.043.129-1.582.246a6.12 6.12 0 0 0-1.441.492 2.625 2.625 0 0 0-1.02.774 1.668 1.668 0 0 0-.351 1.16c.023.515.21.914.562 1.195.375.281.844.492 1.406.633a9.684 9.684 0 0 0 1.899.176c.703 0 1.394-.012 2.074-.035.68-.047 1.312-.082 1.898-.106a10.528 10.528 0 0 1 1.442-.035c1.875.117 3.562.516 5.062 1.195 1.5.68 2.766 1.582 3.797 2.707 1.055 1.125 1.852 2.473 2.391 4.043.562 1.547.844 3.258.844 5.133zm39.391-31.57l-.351 14.906-10.477.422-1.265 32.625-14.836.773-1.336-32.625-10.477.563.422-16.594 38.32-.07zm80.999.773l-8.227 47.32-19.968.422-4.289-23.836-4.289 22.008-19.969.703-8.297-45.21 17.437-1.547 3.516 27.773 4.711-25.664h13.711l5.484 26.016 2.813-29.532 17.367 1.547zm40.868 20.39c0 2.04-.14 4.079-.421 6.118-4.008.258-7.993.68-11.954 1.266l-11.882 1.687c.609 1.688 1.558 3.035 2.847 4.043 1.313 1.008 2.871 1.512 4.676 1.512.938 0 1.957-.176 3.059-.528a26.6 26.6 0 0 0 3.34-1.3 40.747 40.747 0 0 0 3.164-1.723 60.84 60.84 0 0 0 2.601-1.652l-1.687 15.96a15.264 15.264 0 0 1-2.989 1.793 19.752 19.752 0 0 1-3.304 1.196 25.336 25.336 0 0 1-3.481.668c-1.172.14-2.32.21-3.445.21-2.32 0-4.442-.316-6.363-.949a19.302 19.302 0 0 1-5.239-2.636 20.197 20.197 0 0 1-4.078-4.043 23.54 23.54 0 0 1-2.918-5.063 29.296 29.296 0 0 1-1.758-5.8 32.224 32.224 0 0 1-.597-6.188c0-2.18.199-4.36.597-6.539.399-2.18.997-4.277 1.793-6.293a27.41 27.41 0 0 1 3.059-5.59 22.095 22.095 0 0 1 4.324-4.535c1.641-1.289 3.492-2.297 5.555-3.023 2.086-.727 4.383-1.09 6.891-1.09 2.085 0 3.984.293 5.695.879 1.734.562 3.269 1.359 4.605 2.39a15.617 15.617 0 0 1 3.516 3.621 19.946 19.946 0 0 1 2.461 4.641 25.605 25.605 0 0 1 1.441 5.309 32.38 32.38 0 0 1 .492 5.66zm-14.062-1.827c0-.657-.07-1.325-.211-2.004a6.132 6.132 0 0 0-.703-1.899 3.855 3.855 0 0 0-1.231-1.37c-.515-.376-1.16-.563-1.933-.563-.938 0-1.77.258-2.496.773a7.064 7.064 0 0 0-1.828 1.899 11.07 11.07 0 0 0-1.266 2.46 18.842 18.842 0 0 0-.738 2.461l10.406-.984v-.773zm58.025 17.718c0 1.946-.364 3.622-1.09 5.028a10.914 10.914 0 0 1-2.848 3.586c-1.195.984-2.578 1.793-4.148 2.425a29.768 29.768 0 0 1-4.852 1.442 37.533 37.533 0 0 1-5.098.703 68.7 68.7 0 0 1-4.746.176c-1.453 0-2.964-.059-4.535-.176a44.61 44.61 0 0 1-4.64-.527 42.939 42.939 0 0 1-4.571-1.02 27.165 27.165 0 0 1-4.254-1.652l-.07-45.282a39.769 39.769 0 0 1 4.184-1.44 41.882 41.882 0 0 1 4.5-1.09 45.443 45.443 0 0 1 4.605-.669c1.524-.164 3-.246 4.43-.246 1.664 0 3.34.106 5.027.317a27.72 27.72 0 0 1 4.922 1.054 21.21 21.21 0 0 1 4.395 1.934 13.684 13.684 0 0 1 3.55 2.883c1.032 1.148 1.828 2.484 2.391 4.007.586 1.524.879 3.282.879 5.274a11.82 11.82 0 0 1-.563 3.691 10.247 10.247 0 0 1-1.617 3.094 10.28 10.28 0 0 1-2.566 2.356c-1.008.632-2.145 1.101-3.41 1.406 1.523.398 2.906.984 4.148 1.758a11.957 11.957 0 0 1 3.199 2.812 11.98 11.98 0 0 1 2.039 3.727c.493 1.382.739 2.86.739 4.43zm-17.86-20.039c0-.68-.14-1.254-.422-1.722a3.726 3.726 0 0 0-1.054-1.196 3.985 3.985 0 0 0-1.336-.668 4.459 4.459 0 0 0-1.266-.21c-.469 0-.926.07-1.371.21-.445.141-.879.305-1.301.493l-.211 7.804c.539 0 1.207-.047 2.004-.14a8.414 8.414 0 0 0 2.285-.598 5.164 5.164 0 0 0 1.899-1.406c.515-.633.773-1.489.773-2.567zm-4.992 11.461c-.68 0-1.336.07-1.969.211l-.14 8.016c.351.07.691.14 1.019.21.352.048.692.071 1.02.071.492 0 1.031-.047 1.617-.14a5.24 5.24 0 0 0 1.652-.633 3.949 3.949 0 0 0 1.266-1.301c.351-.54.527-1.254.527-2.145 0-.89-.176-1.617-.527-2.18-.328-.562-.738-.996-1.231-1.3a4.029 4.029 0 0 0-1.617-.633 8.292 8.292 0 0 0-1.617-.176zM603.606 421c0 3.21-.562 5.988-1.687 8.332-1.102 2.32-2.625 4.242-4.57 5.766-1.922 1.5-4.184 2.613-6.786 3.34-2.578.703-5.355 1.054-8.332 1.054-1.148 0-2.414-.152-3.797-.457a49.911 49.911 0 0 1-4.148-1.125 82.495 82.495 0 0 1-4.078-1.476 96.274 96.274 0 0 1-3.445-1.512l1.546-13.781c1.993 1.195 4.196 2.109 6.61 2.742 2.437.61 4.828.914 7.172.914.445 0 .984-.012 1.617-.035a8.682 8.682 0 0 0 1.793-.317c.586-.187 1.078-.457 1.476-.808.399-.352.598-.856.598-1.512a1.6 1.6 0 0 0-.422-1.125 2.87 2.87 0 0 0-1.09-.773 5.707 5.707 0 0 0-1.511-.458 14.178 14.178 0 0 0-1.653-.246 17.538 17.538 0 0 0-1.511-.07h-1.125c-2.016 0-3.856-.316-5.52-.95-1.641-.632-3.059-1.523-4.254-2.671-1.172-1.172-2.086-2.578-2.742-4.219-.656-1.664-.984-3.504-.984-5.52 0-2.765.55-5.238 1.652-7.417 1.125-2.203 2.613-4.067 4.465-5.59 1.875-1.547 4.019-2.73 6.433-3.55a23.121 23.121 0 0 1 7.489-1.231c1.148 0 2.332.047 3.55.14 1.219.07 2.426.211 3.622.422 1.218.211 2.402.48 3.55.809a20.89 20.89 0 0 1 3.27 1.23l-1.336 14.274a40.442 40.442 0 0 0-5.027-1.336 24.09 24.09 0 0 0-5.098-.563c-.305 0-.703.012-1.195.035-.469 0-.973.036-1.512.106-.516.047-1.043.129-1.582.246a6.129 6.129 0 0 0-1.442.492 2.629 2.629 0 0 0-1.019.774 1.674 1.674 0 0 0-.352 1.16c.024.515.211.914.563 1.195.375.281.844.492 1.406.633a9.684 9.684 0 0 0 1.899.176c.703 0 1.394-.012 2.074-.036a66.085 66.085 0 0 1 1.898-.105 10.528 10.528 0 0 1 1.442-.035c1.875.117 3.562.515 5.062 1.195 1.5.68 2.766 1.582 3.797 2.707 1.055 1.125 1.852 2.473 2.391 4.043.562 1.547.843 3.258.843 5.133zm21.357-31.5l-2.461 47.883-14.836.773-1.406-47.672 18.703-.984zm40.833-.07l-.351 14.906-10.477.422-1.265 32.625-14.836.773-1.336-32.625-10.477.563.422-16.594 38.32-.07zm41.256 21.164c0 2.039-.141 4.078-.422 6.117-4.008.258-7.993.68-11.953 1.266l-11.883 1.687c.609 1.688 1.558 3.035 2.847 4.043 1.313 1.008 2.871 1.512 4.676 1.512.938 0 1.957-.176 3.059-.528a26.6 26.6 0 0 0 3.34-1.3 40.747 40.747 0 0 0 3.164-1.723 60.84 60.84 0 0 0 2.601-1.652l-1.687 15.96a15.235 15.235 0 0 1-2.989 1.793 19.752 19.752 0 0 1-3.304 1.196 25.336 25.336 0 0 1-3.481.668c-1.172.14-2.32.21-3.445.21-2.32 0-4.441-.316-6.363-.949a19.302 19.302 0 0 1-5.239-2.636 20.223 20.223 0 0 1-4.078-4.043 23.54 23.54 0 0 1-2.918-5.063 29.296 29.296 0 0 1-1.758-5.8 32.224 32.224 0 0 1-.597-6.188c0-2.18.199-4.36.597-6.539.399-2.18.997-4.277 1.793-6.293a27.41 27.41 0 0 1 3.059-5.59 22.095 22.095 0 0 1 4.324-4.535c1.641-1.289 3.492-2.297 5.555-3.023 2.086-.727 4.383-1.09 6.891-1.09 2.086 0 3.984.293 5.695.879 1.734.562 3.269 1.359 4.605 2.39a15.617 15.617 0 0 1 3.516 3.621 19.946 19.946 0 0 1 2.461 4.641 25.605 25.605 0 0 1 1.441 5.309 32.38 32.38 0 0 1 .493 5.66zm-14.063-1.828c0-.657-.07-1.325-.211-2.004a6.132 6.132 0 0 0-.703-1.899 3.855 3.855 0 0 0-1.231-1.37c-.515-.376-1.16-.563-1.933-.563-.938 0-1.77.257-2.496.773a7.064 7.064 0 0 0-1.828 1.899 11.07 11.07 0 0 0-1.266 2.46 18.842 18.842 0 0 0-.738 2.461l10.406-.984v-.773zm71.717 2.32c0 3.281-.422 6.223-1.265 8.824-.844 2.602-2.028 4.91-3.551 6.926a22.255 22.255 0 0 1-5.379 5.098 31.94 31.94 0 0 1-6.855 3.48c-2.485.89-5.133 1.547-7.946 1.969-2.789.422-5.66.633-8.613.633-1.102 0-2.18-.024-3.234-.07a82.592 82.592 0 0 1-3.235-.282l.985-45.773a43.216 43.216 0 0 1 7.945-1.723 64.084 64.084 0 0 1 8.156-.527c3.352 0 6.434.468 9.246 1.406 2.813.937 5.239 2.32 7.278 4.148 2.039 1.805 3.621 4.043 4.746 6.715 1.148 2.649 1.722 5.707 1.722 9.176zm-23.906 13.5c1.406-.211 2.684-.633 3.832-1.266a11.756 11.756 0 0 0 3.024-2.39 10.34 10.34 0 0 0 1.933-3.235c.469-1.218.703-2.508.703-3.867 0-1.336-.14-2.578-.422-3.726-.281-1.172-.738-2.18-1.371-3.024-.632-.867-1.465-1.547-2.496-2.039-1.031-.516-2.297-.797-3.797-.844l-1.406 20.39zm66.076-13.992c0 2.039-.141 4.078-.422 6.117-4.008.258-7.992.68-11.953 1.266l-11.883 1.687c.609 1.688 1.558 3.035 2.847 4.043 1.313 1.008 2.872 1.512 4.676 1.512.938 0 1.957-.176 3.059-.528a26.6 26.6 0 0 0 3.34-1.3 40.747 40.747 0 0 0 3.164-1.723 60.214 60.214 0 0 0 2.601-1.652l-1.687 15.96a15.31 15.31 0 0 1-2.988 1.793 19.795 19.795 0 0 1-3.305 1.196 25.336 25.336 0 0 1-3.481.668c-1.172.14-2.32.21-3.445.21-2.32 0-4.441-.316-6.363-.949a19.302 19.302 0 0 1-5.239-2.636 20.223 20.223 0 0 1-4.078-4.043 23.54 23.54 0 0 1-2.918-5.063 29.227 29.227 0 0 1-1.757-5.8 32.145 32.145 0 0 1-.598-6.188c0-2.18.199-4.36.598-6.539.398-2.18.996-4.277 1.793-6.293a27.359 27.359 0 0 1 3.058-5.59 22.095 22.095 0 0 1 4.324-4.535c1.641-1.289 3.493-2.297 5.555-3.023 2.086-.727 4.383-1.09 6.891-1.09 2.086 0 3.984.293 5.695.879 1.734.562 3.27 1.359 4.605 2.39a15.617 15.617 0 0 1 3.516 3.621 19.946 19.946 0 0 1 2.461 4.641 25.605 25.605 0 0 1 1.441 5.309c.329 1.851.493 3.738.493 5.66zm-14.063-1.828c0-.657-.07-1.325-.211-2.004a6.106 6.106 0 0 0-.703-1.899 3.861 3.861 0 0 0-1.23-1.37c-.516-.376-1.161-.563-1.934-.563-.938 0-1.77.257-2.496.773a7.064 7.064 0 0 0-1.828 1.899 11.07 11.07 0 0 0-1.266 2.46 18.842 18.842 0 0 0-.738 2.461l10.406-.984v-.773zM845.951 421c0 3.21-.562 5.988-1.687 8.332-1.102 2.32-2.625 4.242-4.571 5.766-1.922 1.5-4.183 2.613-6.785 3.34-2.578.703-5.355 1.054-8.332 1.054-1.148 0-2.414-.152-3.797-.457a49.911 49.911 0 0 1-4.148-1.125 82.127 82.127 0 0 1-4.078-1.476 97.183 97.183 0 0 1-3.446-1.512l1.547-13.781c1.992 1.195 4.195 2.109 6.61 2.742 2.437.61 4.828.914 7.171.914.446 0 .985-.012 1.618-.035a8.693 8.693 0 0 0 1.793-.317c.586-.187 1.078-.457 1.476-.808.399-.352.598-.856.598-1.512a1.6 1.6 0 0 0-.422-1.125 2.878 2.878 0 0 0-1.09-.773 5.703 5.703 0 0 0-1.512-.458 14.13 14.13 0 0 0-1.652-.246 17.543 17.543 0 0 0-1.512-.07h-1.125c-2.015 0-3.855-.316-5.519-.95-1.641-.632-3.059-1.523-4.254-2.671-1.172-1.172-2.086-2.578-2.742-4.219-.657-1.664-.985-3.504-.985-5.52 0-2.765.551-5.238 1.653-7.417 1.125-2.203 2.613-4.067 4.464-5.59 1.875-1.547 4.02-2.73 6.434-3.55a23.097 23.097 0 0 1 7.488-1.231c1.149 0 2.332.047 3.551.14 1.219.07 2.426.211 3.621.422 1.219.211 2.403.48 3.551.809a20.97 20.97 0 0 1 3.27 1.23l-1.336 14.274a40.412 40.412 0 0 0-5.028-1.336 24.073 24.073 0 0 0-5.097-.563c-.305 0-.704.012-1.196.035-.468 0-.972.036-1.511.106-.516.047-1.043.129-1.582.246-.54.117-1.02.281-1.442.492a2.614 2.614 0 0 0-1.019.774 1.674 1.674 0 0 0-.352 1.16c.023.515.211.914.563 1.195.375.281.843.492 1.406.633a9.68 9.68 0 0 0 1.898.176c.703 0 1.395-.012 2.074-.036a67.74 67.74 0 0 1 1.899-.105 10.514 10.514 0 0 1 1.441-.035c1.875.117 3.563.515 5.063 1.195 1.5.68 2.765 1.582 3.797 2.707 1.054 1.125 1.851 2.473 2.39 4.043.563 1.547.844 3.258.844 5.133zm21.357-31.5l-2.461 47.883-14.836.773-1.406-47.672 18.703-.984zm46.106 41.625c-1.101 1.383-2.461 2.59-4.078 3.621a26.841 26.841 0 0 1-5.203 2.566 34.08 34.08 0 0 1-5.695 1.547c-1.945.328-3.797.493-5.555.493-3.398 0-6.527-.575-9.387-1.723-2.859-1.149-5.332-2.742-7.418-4.781-2.062-2.063-3.679-4.512-4.851-7.348-1.172-2.836-1.758-5.93-1.758-9.281 0-2.555.293-5.04.879-7.453a30.832 30.832 0 0 1 2.496-6.786 28.441 28.441 0 0 1 4.008-5.8 25.355 25.355 0 0 1 5.344-4.535 24.972 24.972 0 0 1 6.539-2.918c2.39-.704 4.922-1.055 7.593-1.055 1.008 0 2.086.047 3.235.14 1.148.07 2.285.211 3.41.422 1.148.188 2.262.457 3.34.809 1.078.352 2.062.785 2.953 1.3l-.984 13.43a17.27 17.27 0 0 0-4.079-.984 30.32 30.32 0 0 0-4.078-.281c-1.875 0-3.632.258-5.273.773-1.617.492-3.035 1.23-4.254 2.215-1.195.984-2.145 2.215-2.848 3.691-.703 1.477-1.054 3.188-1.054 5.133 0 1.22.164 2.403.492 3.551a9.563 9.563 0 0 0 1.476 3.023 8.043 8.043 0 0 0 2.497 2.11c1.007.539 2.167.808 3.48.808.891 0 1.805-.117 2.742-.351.961-.234 1.781-.633 2.461-1.195l.141-2.743-8.438-.14.422-10.547c3.492-.117 6.984-.211 10.477-.281 3.492-.094 7.007-.211 10.547-.352l.421 22.922zm47.056-9.914c0 2.648-.035 5.273-.105 7.875-.047 2.578-.129 5.18-.246 7.805l-20.25-.352a288.895 288.895 0 0 0 1.828-12.41c.516-4.149.773-8.332.773-12.55 0-.306-.011-.798-.035-1.477-.023-.68-.07-1.442-.14-2.286a35.252 35.252 0 0 0-.317-2.636 14.626 14.626 0 0 0-.527-2.496c-.211-.75-.481-1.36-.809-1.829-.304-.492-.679-.738-1.125-.738-.797 0-1.476.235-2.039.703-.539.47-.996 1.078-1.371 1.828a11.695 11.695 0 0 0-.844 2.461 27.975 27.975 0 0 0-.492 2.743 57.785 57.785 0 0 0-.211 2.601 70.989 70.989 0 0 0-.035 1.969c-.117 4.148-.211 8.273-.281 12.375-.07 4.078-.164 8.203-.281 12.375l-17.93.773c.469-8.273.914-16.5 1.336-24.68.445-8.18.797-16.406 1.055-24.68l16.593-.843-.14 5.625a23.914 23.914 0 0 1 2.109-2.25 13.76 13.76 0 0 1 2.461-1.793 11.863 11.863 0 0 1 2.742-1.195 10.409 10.409 0 0 1 3.094-.457c1.992 0 3.738.328 5.238.984 1.5.656 2.789 1.547 3.867 2.672 1.079 1.125 1.981 2.461 2.707 4.008a26.753 26.753 0 0 1 1.758 4.887c.446 1.734.785 3.55 1.02 5.449a64.9 64.9 0 0 1 .457 5.555c.094 1.828.14 3.597.14 5.308v4.676zm-609.738 77.273c0 1.946-.364 3.621-1.09 5.028a10.923 10.923 0 0 1-2.848 3.586c-1.195.984-2.578 1.793-4.148 2.425a29.76 29.76 0 0 1-4.852 1.442 37.604 37.604 0 0 1-5.097.703c-1.688.117-3.27.176-4.747.176-1.453 0-2.964-.059-4.535-.176a44.912 44.912 0 0 1-4.64-.527 42.965 42.965 0 0 1-4.571-1.02 27.154 27.154 0 0 1-4.254-1.652l-.07-45.281a39.764 39.764 0 0 1 4.184-1.442 41.897 41.897 0 0 1 4.5-1.09 45.46 45.46 0 0 1 4.605-.668c1.524-.164 3-.246 4.43-.246 1.664 0 3.34.106 5.027.317a27.72 27.72 0 0 1 4.922 1.054 21.209 21.209 0 0 1 4.395 1.934 13.682 13.682 0 0 1 3.55 2.883c1.032 1.148 1.829 2.484 2.391 4.008.586 1.523.879 3.28.879 5.273a11.82 11.82 0 0 1-.563 3.691 10.247 10.247 0 0 1-1.617 3.094 10.28 10.28 0 0 1-2.566 2.356c-1.008.632-2.145 1.101-3.41 1.406 1.523.398 2.906.984 4.148 1.758a11.963 11.963 0 0 1 3.199 2.812 11.984 11.984 0 0 1 2.039 3.727c.493 1.383.739 2.859.739 4.429zm-17.86-20.039c0-.68-.14-1.254-.422-1.722a3.726 3.726 0 0 0-1.054-1.196 3.985 3.985 0 0 0-1.336-.668 4.459 4.459 0 0 0-1.266-.21c-.469 0-.926.07-1.371.21-.445.141-.879.305-1.301.493l-.211 7.804c.539 0 1.207-.047 2.004-.14a8.414 8.414 0 0 0 2.285-.598 5.164 5.164 0 0 0 1.899-1.406c.515-.633.773-1.489.773-2.567zm-4.992 11.461a9.09 9.09 0 0 0-1.969.211l-.14 8.016c.351.07.691.14 1.019.211.352.047.692.07 1.02.07.492 0 1.031-.047 1.617-.141a5.251 5.251 0 0 0 1.652-.632 3.959 3.959 0 0 0 1.266-1.301c.352-.539.527-1.254.527-2.145 0-.89-.175-1.617-.527-2.179-.328-.563-.738-.996-1.231-1.301a4.033 4.033 0 0 0-1.617-.633 8.309 8.309 0 0 0-1.617-.176zm56.302 2.461l-1.476 15.61-29.602 2.32 1.125-50.203h18.281l-2.601 32.273h14.273zm45.826-8.297c0 2.133-.246 4.196-.739 6.188a23.732 23.732 0 0 1-2.144 5.554 22.601 22.601 0 0 1-3.375 4.782 21.19 21.19 0 0 1-4.465 3.691 21.969 21.969 0 0 1-5.379 2.426c-1.945.562-4.008.844-6.187.844-2.11 0-4.125-.27-6.047-.809a23.43 23.43 0 0 1-5.344-2.25 22.767 22.767 0 0 1-4.535-3.516 23.362 23.362 0 0 1-3.446-4.57 25.02 25.02 0 0 1-2.214-5.414 23.085 23.085 0 0 1-.774-6.012c0-2.039.246-4.03.738-5.976a24.773 24.773 0 0 1 2.11-5.555 24.413 24.413 0 0 1 3.375-4.781 22.351 22.351 0 0 1 4.394-3.762 21.501 21.501 0 0 1 5.309-2.46c1.898-.587 3.902-.88 6.012-.88 3.398 0 6.492.528 9.281 1.582 2.812 1.055 5.203 2.567 7.172 4.535 1.992 1.946 3.527 4.313 4.605 7.102 1.102 2.766 1.653 5.86 1.653 9.281zm-15.61.914c0-1.007-.152-1.98-.457-2.918a7.557 7.557 0 0 0-1.265-2.53 6.248 6.248 0 0 0-2.11-1.794c-.82-.469-1.769-.703-2.847-.703-1.102 0-2.086.2-2.954.598a6.835 6.835 0 0 0-2.25 1.652 7.102 7.102 0 0 0-1.406 2.426 8.575 8.575 0 0 0-.492 2.918c0 .984.141 1.969.422 2.953a8.783 8.783 0 0 0 1.265 2.672 6.793 6.793 0 0 0 2.075 1.933c.843.493 1.816.739 2.918.739 1.101 0 2.086-.211 2.953-.633a6.96 6.96 0 0 0 2.25-1.758 8.267 8.267 0 0 0 1.406-2.566 9.188 9.188 0 0 0 .492-2.989zm61.294 18.141c-1.101 1.383-2.46 2.59-4.078 3.621a26.811 26.811 0 0 1-5.203 2.566 33.994 33.994 0 0 1-5.695 1.547c-1.945.329-3.797.493-5.555.493-3.398 0-6.527-.575-9.387-1.723-2.859-1.149-5.332-2.742-7.417-4.781-2.063-2.063-3.68-4.512-4.852-7.348-1.172-2.836-1.758-5.93-1.758-9.281 0-2.555.293-5.04.879-7.453a30.832 30.832 0 0 1 2.496-6.786 28.441 28.441 0 0 1 4.008-5.8 25.382 25.382 0 0 1 5.344-4.536 24.97 24.97 0 0 1 6.539-2.917c2.39-.704 4.922-1.055 7.594-1.055 1.007 0 2.085.047 3.234.14 1.148.07 2.285.211 3.41.422 1.148.188 2.262.457 3.34.809 1.078.351 2.062.785 2.953 1.3l-.984 13.43a17.274 17.274 0 0 0-4.078-.984 30.345 30.345 0 0 0-4.079-.281c-1.875 0-3.632.258-5.273.773-1.617.492-3.035 1.23-4.254 2.215-1.195.984-2.144 2.215-2.848 3.691-.703 1.477-1.054 3.188-1.054 5.133 0 1.22.164 2.403.492 3.551a9.57 9.57 0 0 0 1.476 3.024 8.043 8.043 0 0 0 2.497 2.109c1.007.539 2.168.808 3.48.808.891 0 1.805-.117 2.742-.351.961-.234 1.781-.633 2.461-1.195l.141-2.743-8.438-.14.422-10.547c3.492-.117 6.985-.211 10.477-.281a819.3 819.3 0 0 0 10.547-.352l.421 22.922zM515.155 493c0 3.211-.563 5.988-1.688 8.332-1.101 2.32-2.625 4.242-4.57 5.766-1.922 1.5-4.184 2.613-6.785 3.34-2.578.703-5.356 1.054-8.332 1.054-1.149 0-2.414-.152-3.797-.457a50.167 50.167 0 0 1-4.149-1.125 83.701 83.701 0 0 1-4.078-1.476 96.311 96.311 0 0 1-3.445-1.512l1.547-13.781c1.992 1.195 4.195 2.109 6.609 2.742 2.438.609 4.828.914 7.172.914.445 0 .984-.012 1.617-.035a8.683 8.683 0 0 0 1.793-.317c.586-.187 1.078-.457 1.477-.808.398-.352.597-.856.597-1.512 0-.445-.14-.82-.421-1.125a2.88 2.88 0 0 0-1.09-.773 5.696 5.696 0 0 0-1.512-.457c-.563-.118-1.113-.2-1.652-.247a17.864 17.864 0 0 0-1.512-.07h-1.125c-2.016 0-3.856-.316-5.52-.949-1.64-.633-3.058-1.524-4.254-2.672-1.171-1.172-2.085-2.578-2.742-4.219-.656-1.664-.984-3.504-.984-5.52 0-2.765.551-5.238 1.652-7.417 1.125-2.203 2.614-4.067 4.465-5.59 1.875-1.547 4.02-2.73 6.434-3.55a23.097 23.097 0 0 1 7.488-1.231c1.148 0 2.332.047 3.551.14 1.218.07 2.426.211 3.621.422 1.219.211 2.402.48 3.551.809a20.92 20.92 0 0 1 3.269 1.23l-1.336 14.274a40.396 40.396 0 0 0-5.027-1.336 24.09 24.09 0 0 0-5.098-.563c-.304 0-.703.012-1.195.035-.469 0-.973.036-1.512.106a13 13 0 0 0-1.582.246 6.12 6.12 0 0 0-1.441.492 2.625 2.625 0 0 0-1.02.774 1.668 1.668 0 0 0-.351 1.16c.023.515.211.914.562 1.195.375.281.844.492 1.406.633a9.684 9.684 0 0 0 1.899.176c.703 0 1.394-.012 2.074-.036.68-.046 1.313-.082 1.898-.105a10.528 10.528 0 0 1 1.442-.035c1.875.117 3.562.515 5.062 1.195 1.5.68 2.766 1.582 3.797 2.707 1.055 1.125 1.852 2.473 2.391 4.043.562 1.547.844 3.258.844 5.133zm55.018-31.57l-.352 14.906-10.476.422-1.266 32.625-14.836.773-1.336-32.625-10.476.563.421-16.594 38.321-.07zm45.474 22.64c0 2.133-.246 4.196-.739 6.188a23.732 23.732 0 0 1-2.144 5.554 22.601 22.601 0 0 1-3.375 4.782 21.19 21.19 0 0 1-4.465 3.691 21.969 21.969 0 0 1-5.379 2.426c-1.945.562-4.008.844-6.187.844-2.11 0-4.125-.27-6.047-.809a23.43 23.43 0 0 1-5.344-2.25 22.767 22.767 0 0 1-4.535-3.516 23.317 23.317 0 0 1-3.445-4.57 24.973 24.973 0 0 1-2.215-5.414 23.085 23.085 0 0 1-.774-6.012c0-2.039.246-4.03.739-5.976a24.722 24.722 0 0 1 2.109-5.555 24.413 24.413 0 0 1 3.375-4.781 22.351 22.351 0 0 1 4.394-3.762 21.501 21.501 0 0 1 5.309-2.46c1.898-.587 3.902-.88 6.012-.88 3.398 0 6.492.528 9.281 1.582 2.812 1.055 5.203 2.567 7.172 4.535 1.992 1.946 3.527 4.313 4.605 7.102 1.102 2.766 1.653 5.86 1.653 9.281zm-15.61.914c0-1.007-.152-1.98-.457-2.918a7.557 7.557 0 0 0-1.265-2.53 6.248 6.248 0 0 0-2.11-1.794c-.82-.469-1.769-.703-2.847-.703-1.102 0-2.086.2-2.954.598a6.835 6.835 0 0 0-2.25 1.652 7.102 7.102 0 0 0-1.406 2.426 8.575 8.575 0 0 0-.492 2.918c0 .984.141 1.969.422 2.953a8.762 8.762 0 0 0 1.266 2.672 6.778 6.778 0 0 0 2.074 1.933c.844.493 1.816.739 2.918.739 1.101 0 2.086-.211 2.953-.633a6.96 6.96 0 0 0 2.25-1.758 8.267 8.267 0 0 0 1.406-2.566 9.188 9.188 0 0 0 .492-2.989zm66.831-23.976a674.88 674.88 0 0 0-.387 6.539 212.01 212.01 0 0 1-.457 6.539l-14.906.773v4.43h12.937l-.703 10.899-12.304.351.07 19.406-17.789.352 1.125-49.29h32.414zm45.368 23.062c0 2.133-.246 4.196-.738 6.188a23.732 23.732 0 0 1-2.144 5.554 22.674 22.674 0 0 1-3.375 4.782 21.19 21.19 0 0 1-4.465 3.691 21.969 21.969 0 0 1-5.379 2.426c-1.946.562-4.008.844-6.188.844-2.109 0-4.125-.27-6.047-.809a23.442 23.442 0 0 1-5.343-2.25 22.802 22.802 0 0 1-4.536-3.516 23.396 23.396 0 0 1-3.445-4.57 25.023 25.023 0 0 1-2.215-5.414 23.128 23.128 0 0 1-.773-6.012c0-2.039.246-4.03.738-5.976a24.677 24.677 0 0 1 2.11-5.555 24.413 24.413 0 0 1 3.375-4.781 22.351 22.351 0 0 1 4.394-3.762 21.485 21.485 0 0 1 5.309-2.46c1.898-.587 3.902-.88 6.011-.88 3.399 0 6.493.528 9.282 1.582 2.812 1.055 5.203 2.567 7.172 4.535 1.992 1.946 3.527 4.313 4.605 7.102 1.102 2.766 1.652 5.86 1.652 9.281zm-15.609.914c0-1.007-.152-1.98-.457-2.918a7.54 7.54 0 0 0-1.266-2.53 6.235 6.235 0 0 0-2.109-1.794c-.82-.469-1.77-.703-2.848-.703-1.101 0-2.086.2-2.953.598a6.835 6.835 0 0 0-2.25 1.652 7.102 7.102 0 0 0-1.406 2.426 8.575 8.575 0 0 0-.492 2.918c0 .984.14 1.969.422 2.953a8.783 8.783 0 0 0 1.265 2.672 6.8 6.8 0 0 0 2.074 1.933c.844.493 1.817.739 2.918.739 1.102 0 2.086-.211 2.954-.633a6.96 6.96 0 0 0 2.25-1.758 8.267 8.267 0 0 0 1.406-2.566 9.188 9.188 0 0 0 .492-2.989zm49.622 7.383l-1.476 15.61-29.602 2.32 1.125-50.203h18.281l-2.601 32.273h14.273zm33.205 0l-1.477 15.61-29.601 2.32 1.125-50.203h18.281l-2.602 32.273h14.274zm45.825-8.297c0 2.133-.246 4.196-.738 6.188a23.69 23.69 0 0 1-2.145 5.554 22.601 22.601 0 0 1-3.375 4.782 21.16 21.16 0 0 1-4.464 3.691 21.969 21.969 0 0 1-5.379 2.426c-1.946.562-4.008.844-6.188.844-2.109 0-4.125-.27-6.047-.809a23.468 23.468 0 0 1-5.344-2.25 22.796 22.796 0 0 1-4.535-3.516 23.357 23.357 0 0 1-3.445-4.57 25.023 25.023 0 0 1-2.215-5.414 23.128 23.128 0 0 1-.773-6.012c0-2.039.246-4.03.738-5.976a24.722 24.722 0 0 1 2.109-5.555 24.498 24.498 0 0 1 3.375-4.781 22.386 22.386 0 0 1 4.395-3.762 21.485 21.485 0 0 1 5.309-2.46c1.898-.587 3.902-.88 6.011-.88 3.399 0 6.492.528 9.281 1.582 2.813 1.055 5.204 2.567 7.172 4.535 1.993 1.946 3.528 4.313 4.606 7.102 1.101 2.766 1.652 5.86 1.652 9.281zm-15.609.914c0-1.007-.153-1.98-.457-2.918a7.54 7.54 0 0 0-1.266-2.53 6.235 6.235 0 0 0-2.109-1.794c-.821-.469-1.77-.703-2.848-.703-1.101 0-2.086.2-2.953.598a6.835 6.835 0 0 0-2.25 1.652 7.102 7.102 0 0 0-1.406 2.426 8.575 8.575 0 0 0-.492 2.918c0 .984.14 1.969.421 2.953a8.809 8.809 0 0 0 1.266 2.672 6.8 6.8 0 0 0 2.074 1.933c.844.493 1.817.739 2.918.739 1.102 0 2.086-.211 2.953-.633a6.939 6.939 0 0 0 2.25-1.758 8.269 8.269 0 0 0 1.407-2.566 9.188 9.188 0 0 0 .492-2.989zm81.298-22.78l-8.227 47.319-19.968.422-4.289-23.836-4.29 22.008-19.968.703-8.297-45.21 17.437-1.548 3.516 27.774 4.711-25.664h13.711l5.484 26.016 2.813-29.532 17.367 1.547z" fill="#212529"/><path d="M563.432 122h-65.777v188.126h65.777V122z" fill="#12ABE3"/><path d="M544.608 140.835h-28.127v75.339h28.127v-75.339z" fill="#fff"/><path d="M549.702 221.27h-38.314v-85.532h38.314v85.532zm-28.126-10.193h17.939v-65.146h-17.94v65.146z" fill="#212529"/><path d="M544.608 277.332c0 7.755-6.2 14.181-14.174 14.181-7.751 0-14.174-6.426-14.174-14.181 0-7.756 6.201-14.182 14.174-14.182s14.174 6.426 14.174 14.181z" fill="#fff"/><path d="M530.656 296.609c-10.63 0-19.268-8.642-19.268-19.278s8.637-19.278 19.268-19.278c10.63 0 19.268 8.642 19.268 19.278s-8.859 19.278-19.268 19.278zm0-28.363c-4.872 0-9.08 3.989-9.08 9.085 0 4.875 3.986 9.085 9.08 9.085 5.094 0 9.08-3.989 9.08-9.085-.221-5.097-4.208-9.085-9.08-9.085zm5.093-37.891H525.56v18.835h10.188v-18.835z" fill="#212529"/><path d="M642.499 122h-65.777v188.126h65.777V122z" fill="#12ABE3"/><path d="M623.453 140.835h-28.127v75.339h28.127v-75.339z" fill="#fff"/><path d="M628.768 221.27h-38.315v-85.532h38.315v85.532zm-28.349-10.193h17.94v-65.146h-17.94v65.146z" fill="#212529"/><path d="M623.674 277.332c0 7.755-6.423 14.181-14.174 14.181-7.752 0-14.174-6.426-14.174-14.181 0-7.756 6.201-14.182 14.174-14.182 7.751 0 14.174 6.426 14.174 14.181z" fill="#fff"/><path d="M609.498 296.609c-10.63 0-19.268-8.642-19.268-19.278s8.637-19.278 19.268-19.278c10.63 0 19.268 8.642 19.268 19.278s-8.637 19.278-19.268 19.278zm0-28.363c-4.872 0-9.08 3.989-9.08 9.085 0 4.875 3.986 9.085 9.08 9.085 4.872 0 9.08-3.989 9.08-9.085 0-5.097-3.986-9.085-9.08-9.085zm5.096-37.891h-10.188v18.835h10.188v-18.835z" fill="#212529"/><path d="M721.342 122h-65.777v188.126h65.777V122z" fill="#2EB349"/><path d="M702.517 140.835H674.39v75.339h28.127v-75.339z" fill="#fff"/><path d="M707.612 221.27h-38.315v-85.532h38.315v85.532zm-28.127-10.193h17.939v-65.146h-17.94v65.146z" fill="#212529"/><path d="M702.517 277.332c0 7.755-6.2 14.181-14.174 14.181-7.751 0-14.174-6.426-14.174-14.181 0-7.756 6.201-14.182 14.174-14.182s14.174 6.426 14.174 14.181z" fill="#fff"/><path d="M688.565 296.609c-10.63 0-19.268-8.642-19.268-19.278s8.638-19.278 19.268-19.278 19.268 8.642 19.268 19.278-8.859 19.278-19.268 19.278zm0-28.363c-4.872 0-9.08 3.989-9.08 9.085 0 4.875 3.986 9.085 9.08 9.085 4.872 0 9.08-3.989 9.08-9.085-.221-5.097-4.207-9.085-9.08-9.085zm5.093-37.891H683.47v18.835h10.188v-18.835zM757 344.915H462v-34.567h295v34.567zm-284.812-10.193h274.624v-14.181H472.188v14.181z" fill="#212529"/><path d="M502.75 339.819h-10.188V354h10.188v-14.18zm223.686 0h-10.188V354h10.188v-14.18z" fill="#212529"/></g><defs><clipPath id="a"><path fill="#fff" d="M0 0h1200v800H0z"/></clipPath></defs></svg>