<svg width="1200" height="800" viewBox="0 0 1200 800" fill="none" xmlns="http://www.w3.org/2000/svg"><g clip-path="url(#a)"><path fill="#fff" d="M0 0h1200v800H0z"/><path fill="#fff" d="M0 0h1200v800H0z"/><path d="M1228.99 570.668C690.658 601.782 210.7 684.304-159 801.323l1387.99.002V570.668z" fill="#EF4631"/><path d="M1229 634.926c-516.713 13.527-992.348 73.051-1381.5 166.396l1381.5.002V634.926z" fill="#12ABE3"/><path d="M1229 704.597c-38.916-.676-77.831-.676-116.747-.676-441.043-.001-856.143 35.172-1217.193 98.078L1229 802v-97.404z" fill="#2EB349"/><path d="M1229 764.8a7969.025 7969.025 0 0 0-428.072-11.5c-311.325-.001-607.518 16.909-884.248 48.023l1312.32.002V764.8z" fill="#FFCD30"/><path d="M343.165 428.484c0 1.946-.364 3.622-1.09 5.028a10.914 10.914 0 0 1-2.848 3.586c-1.195.984-2.578 1.793-4.148 2.425a29.768 29.768 0 0 1-4.852 1.442 37.533 37.533 0 0 1-5.098.703 68.7 68.7 0 0 1-4.746.176c-1.453 0-2.964-.059-4.535-.176a44.61 44.61 0 0 1-4.64-.527 42.939 42.939 0 0 1-4.571-1.02 27.165 27.165 0 0 1-4.254-1.652l-.07-45.282a39.769 39.769 0 0 1 4.184-1.44 41.882 41.882 0 0 1 4.5-1.09 45.443 45.443 0 0 1 4.605-.669c1.524-.164 3-.246 4.43-.246 1.664 0 3.34.106 5.027.317a27.72 27.72 0 0 1 4.922 1.054 21.21 21.21 0 0 1 4.395 1.934 13.684 13.684 0 0 1 3.55 2.883c1.032 1.148 1.828 2.484 2.391 4.007.586 1.524.879 3.282.879 5.274a11.82 11.82 0 0 1-.563 3.691 10.247 10.247 0 0 1-1.617 3.094 10.28 10.28 0 0 1-2.566 2.356c-1.008.632-2.145 1.101-3.41 1.406 1.523.398 2.906.984 4.148 1.758a11.957 11.957 0 0 1 3.199 2.812 11.98 11.98 0 0 1 2.039 3.727c.493 1.382.739 2.86.739 4.43zm-17.86-20.039c0-.68-.14-1.254-.422-1.722a3.726 3.726 0 0 0-1.054-1.196 3.985 3.985 0 0 0-1.336-.668 4.459 4.459 0 0 0-1.266-.21c-.469 0-.926.07-1.371.21-.445.141-.879.305-1.301.493l-.211 7.804c.539 0 1.207-.047 2.004-.14a8.414 8.414 0 0 0 2.285-.598 5.164 5.164 0 0 0 1.899-1.406c.515-.633.773-1.489.773-2.567zm-4.992 11.461c-.68 0-1.336.07-1.969.211l-.14 8.016c.351.07.691.14 1.019.21.352.048.692.071 1.02.071.492 0 1.031-.047 1.617-.14a5.24 5.24 0 0 0 1.652-.633 3.949 3.949 0 0 0 1.266-1.301c.351-.54.527-1.254.527-2.145 0-.89-.176-1.617-.527-2.18-.328-.562-.738-.996-1.231-1.3a4.029 4.029 0 0 0-1.617-.633 8.292 8.292 0 0 0-1.617-.176zm68.079-5.836c0 2.133-.246 4.196-.738 6.188a23.748 23.748 0 0 1-2.144 5.554 22.617 22.617 0 0 1-3.375 4.782 21.183 21.183 0 0 1-4.465 3.691 21.957 21.957 0 0 1-5.379 2.426c-1.945.562-4.008.844-6.188.844a22.29 22.29 0 0 1-6.047-.809 23.451 23.451 0 0 1-5.343-2.25 22.806 22.806 0 0 1-4.535-3.516 23.387 23.387 0 0 1-3.446-4.57 25.036 25.036 0 0 1-2.215-5.414 23.128 23.128 0 0 1-.773-6.012c0-2.039.246-4.03.738-5.976a24.724 24.724 0 0 1 2.11-5.555 24.414 24.414 0 0 1 3.375-4.781 22.353 22.353 0 0 1 4.394-3.762 21.483 21.483 0 0 1 5.309-2.46c1.898-.587 3.902-.88 6.011-.88 3.399 0 6.493.528 9.282 1.582 2.812 1.055 5.203 2.567 7.172 4.535 1.992 1.946 3.527 4.313 4.605 7.102 1.102 2.766 1.652 5.86 1.652 9.281zm-15.609.914c0-1.007-.152-1.98-.457-2.918a7.54 7.54 0 0 0-1.266-2.53 6.235 6.235 0 0 0-2.109-1.794c-.82-.469-1.77-.703-2.848-.703-1.101 0-2.086.2-2.953.598a6.835 6.835 0 0 0-2.25 1.652 7.102 7.102 0 0 0-1.406 2.426 8.575 8.575 0 0 0-.492 2.918c0 .984.14 1.969.422 2.953a8.778 8.778 0 0 0 1.265 2.672 6.798 6.798 0 0 0 2.075 1.933c.843.493 1.816.739 2.917.739 1.102 0 2.086-.211 2.954-.633a6.97 6.97 0 0 0 2.25-1.758 8.272 8.272 0 0 0 1.406-2.566 9.188 9.188 0 0 0 .492-2.989zm62.243-.914c0 2.133-.246 4.196-.738 6.188a23.748 23.748 0 0 1-2.144 5.554 22.617 22.617 0 0 1-3.375 4.782 21.183 21.183 0 0 1-4.465 3.691 21.957 21.957 0 0 1-5.379 2.426c-1.945.562-4.008.844-6.188.844-2.109 0-4.125-.27-6.046-.809a23.44 23.44 0 0 1-5.344-2.25 22.806 22.806 0 0 1-4.535-3.516 23.387 23.387 0 0 1-3.446-4.57 25.087 25.087 0 0 1-2.215-5.414 23.128 23.128 0 0 1-.773-6.012c0-2.039.246-4.03.738-5.976a24.773 24.773 0 0 1 2.11-5.555 24.414 24.414 0 0 1 3.375-4.781 22.353 22.353 0 0 1 4.394-3.762 21.483 21.483 0 0 1 5.309-2.46c1.898-.587 3.902-.88 6.012-.88 3.398 0 6.492.528 9.281 1.582 2.812 1.055 5.203 2.567 7.172 4.535 1.992 1.946 3.527 4.313 4.605 7.102 1.102 2.766 1.652 5.86 1.652 9.281zm-15.609.914c0-1.007-.152-1.98-.457-2.918a7.54 7.54 0 0 0-1.266-2.53 6.235 6.235 0 0 0-2.109-1.794c-.82-.469-1.769-.703-2.848-.703-1.101 0-2.086.2-2.953.598a6.835 6.835 0 0 0-2.25 1.652 7.102 7.102 0 0 0-1.406 2.426 8.575 8.575 0 0 0-.492 2.918c0 .984.14 1.969.422 2.953a8.778 8.778 0 0 0 1.265 2.672 6.798 6.798 0 0 0 2.075 1.933c.843.493 1.816.739 2.918.739 1.101 0 2.085-.211 2.953-.633a6.97 6.97 0 0 0 2.25-1.758 8.272 8.272 0 0 0 1.406-2.566 9.188 9.188 0 0 0 .492-2.989zm56.021-23.554l-.352 14.906-10.476.422-1.266 32.625-14.836.773-1.336-32.625-10.476.563.422-16.594 38.32-.07zM514.197 423c0 3.21-.563 5.988-1.688 8.332-1.101 2.32-2.625 4.242-4.57 5.766-1.922 1.5-4.183 2.613-6.785 3.34-2.578.703-5.355 1.054-8.332 1.054-1.148 0-2.414-.152-3.797-.457a49.911 49.911 0 0 1-4.148-1.125 82.127 82.127 0 0 1-4.078-1.476 96.381 96.381 0 0 1-3.446-1.512l1.547-13.781c1.992 1.195 4.195 2.109 6.609 2.742 2.438.61 4.829.914 7.172.914.446 0 .985-.012 1.618-.035a8.672 8.672 0 0 0 1.792-.317c.586-.187 1.079-.457 1.477-.808.398-.352.598-.856.598-1.512a1.6 1.6 0 0 0-.422-1.125 2.878 2.878 0 0 0-1.09-.773 5.703 5.703 0 0 0-1.512-.457c-.562-.118-1.113-.2-1.652-.247a17.543 17.543 0 0 0-1.512-.07h-1.125c-2.015 0-3.855-.316-5.519-.95-1.641-.632-3.059-1.523-4.254-2.671-1.172-1.172-2.086-2.578-2.742-4.219-.657-1.664-.985-3.504-.985-5.52 0-2.765.551-5.238 1.653-7.417 1.125-2.203 2.613-4.067 4.464-5.59 1.875-1.547 4.02-2.73 6.434-3.55a23.097 23.097 0 0 1 7.488-1.231c1.149 0 2.332.047 3.551.14 1.219.07 2.426.211 3.621.422 1.219.211 2.402.48 3.551.809a20.92 20.92 0 0 1 3.269 1.23l-1.335 14.274a40.412 40.412 0 0 0-5.028-1.336 24.073 24.073 0 0 0-5.097-.563c-.305 0-.704.012-1.196.035-.469 0-.972.036-1.512.106a13.03 13.03 0 0 0-1.582.246 6.12 6.12 0 0 0-1.441.492 2.614 2.614 0 0 0-1.019.774 1.674 1.674 0 0 0-.352 1.16c.023.515.211.914.562 1.195.375.281.844.492 1.407.633a9.674 9.674 0 0 0 1.898.176c.703 0 1.395-.012 2.074-.035.68-.047 1.313-.082 1.899-.106a10.514 10.514 0 0 1 1.441-.035c1.875.117 3.563.516 5.063 1.195 1.5.68 2.765 1.582 3.797 2.707 1.054 1.125 1.851 2.473 2.39 4.043.563 1.547.844 3.258.844 5.133zm39.392-31.57l-.352 14.906-10.476.422-1.266 32.625-14.836.773-1.336-32.625-10.476.563.422-16.594 38.32-.07zm43.927 15.68c0 1.827-.164 3.492-.492 4.992a14.58 14.58 0 0 1-1.477 4.078 14.642 14.642 0 0 1-2.637 3.445c-1.078 1.055-2.379 2.063-3.902 3.023l8.367 14.907-15.82 3.093-5.414-14.976-4.36.14-.632 14.625h-15.118c.118-5.343.223-10.664.317-15.96.117-5.297.246-10.618.387-15.961.046-2.696.093-5.368.14-8.016.047-2.648.141-5.32.281-8.016a45.96 45.96 0 0 1 4.852-1.511 42.962 42.962 0 0 1 4.781-.914 48.53 48.53 0 0 1 4.887-.457 90.629 90.629 0 0 1 5.098-.141c2.672 0 5.25.375 7.734 1.125 2.508.726 4.723 1.828 6.645 3.305 1.921 1.476 3.457 3.316 4.605 5.52 1.172 2.202 1.758 4.769 1.758 7.698zm-15.75 1.124c0-.984-.141-1.886-.422-2.707a5.507 5.507 0 0 0-1.195-2.109c-.516-.61-1.172-1.078-1.969-1.406-.774-.352-1.688-.528-2.742-.528a8.69 8.69 0 0 0-1.371.106 7.971 7.971 0 0 0-1.301.246l-.563 13.078h.844c1.008 0 2.027-.129 3.059-.387 1.054-.258 1.992-.656 2.812-1.195a6.374 6.374 0 0 0 2.039-2.074c.539-.844.809-1.852.809-3.024zm63.263 29.743l-17.438 2.25-2.109-7.946h-8.016l-1.758 7.946-17.929-1.758 13.992-46.828 19.547-.985 13.711 47.32zm-20.813-16.454l-2.672-12.234-2.601 12.234h5.273zm63.228-12.937c0 2.273-.34 4.289-1.019 6.047-.68 1.758-1.618 3.304-2.813 4.64a16.566 16.566 0 0 1-4.148 3.34 28.034 28.034 0 0 1-5.133 2.215 36.4 36.4 0 0 1-5.625 1.266 48.182 48.182 0 0 1-5.731.422v14.976h-16.382v-7.805c.023-2.53.035-5.039.035-7.523.023-2.508.035-5.027.035-7.558.023-2.532.047-5.145.07-7.84.047-2.86.059-5.72.035-8.579-.023-2.859.036-5.742.176-8.648 3-.89 6-1.559 9-2.004 3-.445 6.094-.668 9.281-.668 1.805 0 3.61.153 5.414.457 1.805.281 3.528.739 5.168 1.371 1.664.633 3.2 1.43 4.606 2.39 1.43.938 2.66 2.063 3.691 3.376 1.032 1.312 1.84 2.812 2.426 4.5.609 1.687.914 3.562.914 5.625zm-15.609 1.195c0-1.523-.469-2.707-1.406-3.55-.915-.868-2.11-1.301-3.586-1.301a9.1 9.1 0 0 0-1.547.14 13.74 13.74 0 0 0-1.477.282l-.422 10.265c.328.047.645.07.949.07h.95c.843 0 1.652-.14 2.425-.421.797-.282 1.5-.68 2.11-1.196a6.13 6.13 0 0 0 1.441-1.863c.375-.727.563-1.535.563-2.426zm68.096 13.5c0 3.117-.504 5.824-1.512 8.121-.984 2.274-2.367 4.172-4.148 5.696-1.781 1.5-3.914 2.625-6.399 3.375-2.461.726-5.168 1.09-8.121 1.09-1.336 0-2.707-.13-4.113-.387a33.145 33.145 0 0 1-4.184-1.055 35.357 35.357 0 0 1-4.043-1.582 35.265 35.265 0 0 1-3.621-1.969l1.336-14.133a27.19 27.19 0 0 0 2.989 1.758 40.293 40.293 0 0 0 3.41 1.477c1.195.422 2.39.762 3.586 1.02 1.218.257 2.39.386 3.515.386.657 0 1.325-.047 2.004-.14a6.684 6.684 0 0 0 1.899-.598 3.563 3.563 0 0 0 1.371-1.196c.375-.515.562-1.183.562-2.003 0-.516-.234-.997-.703-1.442a6.246 6.246 0 0 0-1.687-1.125 9.26 9.26 0 0 0-2.039-.738c-.704-.188-1.289-.281-1.758-.281-.328 0-.727.023-1.196.07-.445.023-.902.07-1.371.14-.468.07-.925.176-1.371.317-.422.117-.75.27-.984.457l.211-10.055c.398.047.773.082 1.125.106.351.023.726.035 1.125.035.82 0 1.711-.07 2.672-.21a10.758 10.758 0 0 0 2.672-.81 5.79 5.79 0 0 0 2.039-1.617c.562-.68.843-1.558.843-2.636 0-.774-.211-1.395-.632-1.864a4.075 4.075 0 0 0-1.582-1.125 7.64 7.64 0 0 0-2.004-.527 15.538 15.538 0 0 0-1.969-.14c-1.899 0-3.774.327-5.625.984a14.506 14.506 0 0 0-4.852 2.882l-2.953-12.796c2.156-1.758 4.606-3.094 7.348-4.008 2.765-.938 5.543-1.406 8.332-1.406 2.555 0 4.992.375 7.312 1.125 2.344.726 4.407 1.816 6.188 3.27 1.781 1.429 3.199 3.198 4.254 5.308 1.054 2.11 1.582 4.547 1.582 7.312 0 .797-.117 1.606-.352 2.426a13.28 13.28 0 0 1-2.355 4.57 11.928 11.928 0 0 1-1.723 1.723c.985.445 1.793 1.043 2.426 1.793a9.344 9.344 0 0 1 1.512 2.496c.375.914.632 1.887.773 2.918.141 1.008.211 2.004.211 2.988zm55.792-31.851l-.352 14.906-10.477.422-1.265 32.625-14.836.773-1.336-32.625-10.477.563.422-16.594 38.321-.07zm44.454 48.164l-17.578.843-.141-14.835h-8.086L813.88 441h-15.75l1.336-49.43 16.734.774-1.054 25.242h7.804l.071-26.438 16.031.422 1.125 48.024zm43.294-27c0 2.039-.14 4.078-.422 6.117-4.007.258-7.992.68-11.953 1.266l-11.883 1.687c.61 1.688 1.559 3.035 2.848 4.043 1.313 1.008 2.871 1.512 4.676 1.512.937 0 1.957-.176 3.058-.528a26.541 26.541 0 0 0 3.34-1.3 40.383 40.383 0 0 0 3.164-1.723 60.935 60.935 0 0 0 2.602-1.652l-1.688 15.96a15.31 15.31 0 0 1-2.988 1.793 19.763 19.763 0 0 1-3.305 1.196 25.293 25.293 0 0 1-3.48.668c-1.172.14-2.32.21-3.445.21-2.321 0-4.442-.316-6.364-.949a19.281 19.281 0 0 1-5.238-2.636 20.197 20.197 0 0 1-4.078-4.043 23.498 23.498 0 0 1-2.918-5.063 29.296 29.296 0 0 1-1.758-5.8 32.224 32.224 0 0 1-.597-6.188c0-2.18.199-4.36.597-6.539.399-2.18.996-4.277 1.793-6.293a27.362 27.362 0 0 1 3.059-5.59 22.068 22.068 0 0 1 4.324-4.535c1.641-1.289 3.492-2.297 5.555-3.023 2.086-.727 4.382-1.09 6.89-1.09 2.086 0 3.985.293 5.696.879 1.734.562 3.269 1.359 4.605 2.39a15.658 15.658 0 0 1 3.516 3.621 19.984 19.984 0 0 1 2.461 4.641 25.667 25.667 0 0 1 1.441 5.309 32.38 32.38 0 0 1 .492 5.66zm-14.062-1.828c0-.657-.071-1.325-.211-2.004a6.132 6.132 0 0 0-.703-1.899 3.855 3.855 0 0 0-1.231-1.37c-.515-.376-1.16-.563-1.933-.563-.938 0-1.77.257-2.497.773a7.079 7.079 0 0 0-1.828 1.899 11.11 11.11 0 0 0-1.265 2.46 19.013 19.013 0 0 0-.739 2.461l10.407-.984v-.773zM474.681 495c0 3.211-.562 5.988-1.687 8.332-1.102 2.32-2.625 4.242-4.57 5.766-1.922 1.5-4.184 2.613-6.786 3.34-2.578.703-5.355 1.054-8.332 1.054-1.148 0-2.414-.152-3.797-.457a50.146 50.146 0 0 1-4.148-1.125 83.322 83.322 0 0 1-4.078-1.476 95.523 95.523 0 0 1-3.445-1.512l1.546-13.781c1.993 1.195 4.196 2.109 6.61 2.742 2.437.609 4.828.914 7.172.914.445 0 .984-.012 1.617-.035a8.695 8.695 0 0 0 1.793-.317c.586-.187 1.078-.457 1.476-.808.399-.352.598-.856.598-1.512a1.6 1.6 0 0 0-.422-1.125 2.865 2.865 0 0 0-1.09-.773 5.678 5.678 0 0 0-1.511-.457c-.563-.118-1.114-.2-1.653-.247a17.86 17.86 0 0 0-1.511-.07h-1.125c-2.016 0-3.856-.316-5.52-.949-1.641-.633-3.059-1.524-4.254-2.672-1.172-1.172-2.086-2.578-2.742-4.219-.656-1.664-.984-3.504-.984-5.52 0-2.765.55-5.238 1.652-7.417 1.125-2.203 2.613-4.067 4.465-5.59 1.875-1.547 4.019-2.73 6.433-3.55a23.12 23.12 0 0 1 7.489-1.231c1.148 0 2.332.047 3.55.14 1.219.07 2.426.211 3.622.422 1.218.211 2.402.48 3.55.809 1.149.328 2.239.738 3.27 1.23l-1.336 14.274a40.442 40.442 0 0 0-5.027-1.336 24.09 24.09 0 0 0-5.098-.563c-.305 0-.703.012-1.195.035-.469 0-.973.036-1.512.106-.516.047-1.043.129-1.582.246a6.129 6.129 0 0 0-1.442.492 2.629 2.629 0 0 0-1.019.774 1.674 1.674 0 0 0-.352 1.16c.024.515.211.914.563 1.195.375.281.844.492 1.406.633a9.684 9.684 0 0 0 1.899.176c.703 0 1.394-.012 2.074-.036a66.085 66.085 0 0 1 1.898-.105 10.528 10.528 0 0 1 1.442-.035c1.875.117 3.562.515 5.062 1.195 1.5.68 2.766 1.582 3.797 2.707 1.055 1.125 1.852 2.473 2.391 4.043.562 1.547.843 3.258.843 5.133zm46.845 14.977l-17.437 2.25-2.11-7.946h-8.015l-1.758 7.946-17.93-1.758 13.993-46.828 19.546-.985 13.711 47.321zm-20.812-16.454l-2.672-12.234-2.602 12.234h5.274zM559.02 495c0 3.211-.563 5.988-1.688 8.332-1.101 2.32-2.625 4.242-4.57 5.766-1.922 1.5-4.184 2.613-6.785 3.34-2.578.703-5.356 1.054-8.332 1.054-1.149 0-2.414-.152-3.797-.457a50.273 50.273 0 0 1-4.149-1.125 83.701 83.701 0 0 1-4.078-1.476 96.311 96.311 0 0 1-3.445-1.512l1.547-13.781c1.992 1.195 4.195 2.109 6.609 2.742 2.438.609 4.828.914 7.172.914.445 0 .985-.012 1.617-.035a8.683 8.683 0 0 0 1.793-.317c.586-.187 1.078-.457 1.477-.808.398-.352.598-.856.598-1.512a1.6 1.6 0 0 0-.422-1.125 2.88 2.88 0 0 0-1.09-.773 5.685 5.685 0 0 0-1.512-.457c-.562-.118-1.113-.2-1.652-.247a17.864 17.864 0 0 0-1.512-.07h-1.125c-2.016 0-3.855-.316-5.52-.949-1.64-.633-3.058-1.524-4.253-2.672-1.172-1.172-2.086-2.578-2.743-4.219-.656-1.664-.984-3.504-.984-5.52 0-2.765.551-5.238 1.652-7.417 1.125-2.203 2.614-4.067 4.465-5.59 1.875-1.547 4.02-2.73 6.434-3.55a23.097 23.097 0 0 1 7.488-1.231c1.149 0 2.332.047 3.551.14 1.219.07 2.426.211 3.621.422 1.219.211 2.402.48 3.551.809a20.92 20.92 0 0 1 3.269 1.23l-1.336 14.274a40.35 40.35 0 0 0-5.027-1.336 24.082 24.082 0 0 0-5.098-.563c-.304 0-.703.012-1.195.035-.469 0-.973.036-1.512.106a13 13 0 0 0-1.582.246 6.12 6.12 0 0 0-1.441.492 2.625 2.625 0 0 0-1.02.774 1.673 1.673 0 0 0-.351 1.16c.023.515.211.914.562 1.195.375.281.844.492 1.407.633a9.666 9.666 0 0 0 1.898.176c.703 0 1.394-.012 2.074-.036a67.74 67.74 0 0 1 1.899-.105 10.514 10.514 0 0 1 1.441-.035c1.875.117 3.563.515 5.063 1.195 1.5.68 2.765 1.582 3.796 2.707 1.055 1.125 1.852 2.473 2.391 4.043.563 1.547.844 3.258.844 5.133zm38.688 0c0 3.211-.562 5.988-1.687 8.332-1.102 2.32-2.625 4.242-4.57 5.766-1.922 1.5-4.184 2.613-6.785 3.34-2.579.703-5.356 1.054-8.333 1.054-1.148 0-2.414-.152-3.796-.457a50.06 50.06 0 0 1-4.149-1.125 83.701 83.701 0 0 1-4.078-1.476 96.311 96.311 0 0 1-3.445-1.512l1.547-13.781c1.992 1.195 4.195 2.109 6.609 2.742 2.437.609 4.828.914 7.172.914.445 0 .984-.012 1.617-.035a8.683 8.683 0 0 0 1.793-.317c.586-.187 1.078-.457 1.477-.808.398-.352.597-.856.597-1.512 0-.445-.14-.82-.422-1.125a2.87 2.87 0 0 0-1.089-.773 5.696 5.696 0 0 0-1.512-.457c-.563-.118-1.113-.2-1.653-.247a17.86 17.86 0 0 0-1.511-.07h-1.125c-2.016 0-3.856-.316-5.52-.949-1.64-.633-3.058-1.524-4.254-2.672-1.172-1.172-2.086-2.578-2.742-4.219-.656-1.664-.984-3.504-.984-5.52 0-2.765.551-5.238 1.652-7.417 1.125-2.203 2.613-4.067 4.465-5.59 1.875-1.547 4.019-2.73 6.434-3.55a23.097 23.097 0 0 1 7.488-1.231c1.148 0 2.332.047 3.551.14 1.218.07 2.425.211 3.621.422 1.218.211 2.402.48 3.55.809 1.149.328 2.239.738 3.27 1.23l-1.336 14.274a40.396 40.396 0 0 0-5.027-1.336 24.09 24.09 0 0 0-5.098-.563c-.305 0-.703.012-1.195.035-.469 0-.973.036-1.512.106-.516.047-1.043.129-1.582.246a6.105 6.105 0 0 0-1.441.492 2.625 2.625 0 0 0-1.02.774 1.674 1.674 0 0 0-.352 1.16c.024.515.211.914.563 1.195.375.281.844.492 1.406.633a9.684 9.684 0 0 0 1.899.176c.703 0 1.394-.012 2.074-.036a67.68 67.68 0 0 1 1.898-.105 10.528 10.528 0 0 1 1.442-.035c1.875.117 3.562.515 5.062 1.195 1.5.68 2.766 1.582 3.797 2.707 1.055 1.125 1.852 2.473 2.391 4.043.562 1.547.843 3.258.843 5.133zm81.28-30.797l-8.226 47.32-19.969.422-4.289-23.836-4.289 22.008-19.969.703-8.297-45.21 17.438-1.547 3.515 27.773 4.711-25.664h13.711l5.485 26.016 2.812-29.532 17.367 1.547zm44.42 45.774l-17.438 2.25-2.109-7.946h-8.016l-1.758 7.946-17.929-1.758 13.992-46.828 19.547-.985 13.711 47.321zm-20.813-16.454l-2.672-12.234-2.601 12.234h5.273zm61.329-28.125l-16.523 27 .492 19.899h-18.07l.422-19.758-12.867-26.086 17.929-2.25 5.625 15.188 6.117-15.188 16.875 1.195z" fill="#212529"/><path d="M491.101 174.017v142.815h80.804v-22.996c-19.096-7.665-32.764-26.424-32.764-48.411 0-28.846 23.317-52.043 51.86-52.043 28.743 0 51.859 23.399 51.859 52.043a51.94 51.94 0 0 1-32.764 48.411v22.996H690.9V174.017H491.101z" fill="#FFCD30"/><path d="M711 336.802H600.648v-9.279h101.106V163.124H480.246v164.399h101.106v9.279H471V153.845h240v182.957z" fill="#212529"/><path d="M711 163.124H471V125h240v38.124zm-230.754-9.279h221.508v-19.768H480.246v19.768z" fill="#212529"/><path d="M537.13 139.322h-9.246v9.279h9.246v-9.279zm-18.492 0h-9.246v9.279h9.246v-9.279zm-18.291.001H491.1v9.279h9.246v-9.279zM591 302.108c-31.156 0-56.483-25.417-56.483-56.683s25.327-56.682 56.483-56.682c31.156 0 56.482 25.416 56.482 56.682 0 31.266-25.326 56.683-56.482 56.683zm0-104.288c-26.131 0-47.237 21.382-47.237 47.404 0 26.02 21.307 47.403 47.237 47.403 26.13 0 47.236-21.382 47.236-47.404 0-26.02-21.106-47.403-47.236-47.403z" fill="#212529"/><path d="M614.919 316.63H567.08v-23.197h9.246v13.918h29.347v-13.918h9.246v23.197z" fill="#212529"/><path d="M605.27 311.991h-9.246v48.008h9.246v-48.008zm-19.296.001h-9.246V360h9.246v-48.008zm-12.864-48.413l-18.09-18.356 18.09-18.155 6.633 6.455-11.658 11.7 11.658 11.9-6.633 6.456zm35.779 0l-6.633-6.455 11.86-11.902-11.86-11.7 6.633-6.454 18.09 18.155-18.09 18.356zm-17.648-44.67l-9.013 51.251 9.106 1.613 9.013-51.252-9.106-1.612z" fill="#212529"/><path d="M517.433 222.228h-9.246v9.279h9.246v-9.279zm0 18.558h-9.246v9.279h9.246v-9.279zm0 18.355h-9.246v9.279h9.246v-9.279zm156.381-36.913h-9.246v9.279h9.246v-9.279zm-.001 18.558h-9.246v9.279h9.246v-9.279zm0 18.355h-9.246v9.279h9.246v-9.279z" fill="#fff"/></g><defs><clipPath id="a"><path fill="#fff" d="M0 0h1200v800H0z"/></clipPath></defs></svg>