<svg width="1200" height="800" viewBox="0 0 1200 800" fill="none" xmlns="http://www.w3.org/2000/svg"><g clip-path="url(#a)"><path fill="#fff" d="M0 0h1200v800H0z"/><path fill="#fff" d="M0 0h1200v800H0z"/><path d="M1228.99 570.668C690.658 601.782 210.7 684.304-159 801.323l1387.99.002V570.668z" fill="#EF4631"/><path d="M1229 634.926c-516.713 13.527-992.348 73.051-1381.5 166.396l1381.5.002V634.926z" fill="#12ABE3"/><path d="M1229 704.597c-38.916-.676-77.831-.676-116.747-.676-441.043-.001-856.143 35.172-1217.193 98.078L1229 802v-97.404z" fill="#2EB349"/><path d="M1229 764.8a7969.025 7969.025 0 0 0-428.072-11.5c-311.325-.001-607.518 16.909-884.248 48.023l1312.32.002V764.8z" fill="#FFCD30"/><path d="M268.811 441l-17.579.844-.14-16.242h-8.086L242.514 441h-15.75l1.336-49.43 16.734.774-1.055 25.242h7.805l.07-27.14 16.032.421L268.811 441zm47.161-26.93c0 2.133-.246 4.196-.738 6.188a23.75 23.75 0 0 1-2.145 5.554 22.617 22.617 0 0 1-3.375 4.782 21.158 21.158 0 0 1-4.465 3.691 21.923 21.923 0 0 1-5.379 2.426c-1.945.562-4.007.844-6.187.844a22.29 22.29 0 0 1-6.047-.809 23.459 23.459 0 0 1-5.344-2.25 22.806 22.806 0 0 1-4.535-3.516 23.382 23.382 0 0 1-3.445-4.57 24.986 24.986 0 0 1-2.215-5.414 23.085 23.085 0 0 1-.773-6.012c0-2.039.246-4.03.738-5.976a24.722 24.722 0 0 1 2.109-5.555 24.498 24.498 0 0 1 3.375-4.781 22.387 22.387 0 0 1 4.395-3.762 21.476 21.476 0 0 1 5.308-2.46c1.899-.587 3.903-.88 6.012-.88 3.398 0 6.492.528 9.281 1.582 2.813 1.055 5.203 2.567 7.172 4.535 1.992 1.946 3.527 4.313 4.606 7.102 1.101 2.766 1.652 5.86 1.652 9.281zm-15.609.914c0-1.007-.153-1.98-.457-2.918a7.578 7.578 0 0 0-1.266-2.53 6.254 6.254 0 0 0-2.109-1.794c-.821-.469-1.77-.703-2.848-.703-1.102 0-2.086.2-2.953.598a6.835 6.835 0 0 0-2.25 1.652c-.61.68-1.078 1.488-1.406 2.426a8.55 8.55 0 0 0-.493 2.918c0 .984.141 1.969.422 2.953a8.757 8.757 0 0 0 1.266 2.672 6.795 6.795 0 0 0 2.074 1.933c.844.493 1.816.739 2.918.739s2.086-.211 2.953-.633a6.95 6.95 0 0 0 2.25-1.758 8.251 8.251 0 0 0 1.406-2.566 9.162 9.162 0 0 0 .493-2.989zm81.298-22.78l-8.227 47.32-19.969.421-4.289-23.836-4.289 22.008-19.968.703-8.297-45.21 17.437-1.547 3.516 27.773 4.711-25.664h13.711l5.484 26.016 2.813-29.532 17.367 1.547zm54.772-.774l-.352 14.906-10.476.422-1.266 32.625-14.836.773-1.336-32.625-10.476.563.421-16.594 38.321-.07zm45.474 22.64c0 2.133-.246 4.196-.739 6.188a23.748 23.748 0 0 1-2.144 5.554 22.617 22.617 0 0 1-3.375 4.782 21.183 21.183 0 0 1-4.465 3.691 21.957 21.957 0 0 1-5.379 2.426c-1.945.562-4.008.844-6.187.844-2.11 0-4.125-.27-6.047-.809a23.44 23.44 0 0 1-5.344-2.25 22.806 22.806 0 0 1-4.535-3.516 23.387 23.387 0 0 1-3.446-4.57 25.034 25.034 0 0 1-2.214-5.414 23.085 23.085 0 0 1-.774-6.012c0-2.039.246-4.03.738-5.976a24.773 24.773 0 0 1 2.11-5.555 24.414 24.414 0 0 1 3.375-4.781 22.353 22.353 0 0 1 4.394-3.762 21.5 21.5 0 0 1 5.309-2.46c1.898-.587 3.902-.88 6.012-.88 3.398 0 6.492.528 9.281 1.582 2.812 1.055 5.203 2.567 7.172 4.535 1.992 1.946 3.527 4.313 4.605 7.102 1.102 2.766 1.653 5.86 1.653 9.281zm-15.61.914c0-1.007-.152-1.98-.457-2.918a7.557 7.557 0 0 0-1.265-2.53 6.248 6.248 0 0 0-2.11-1.794c-.82-.469-1.769-.703-2.847-.703-1.102 0-2.086.2-2.954.598a6.835 6.835 0 0 0-2.25 1.652 7.102 7.102 0 0 0-1.406 2.426 8.575 8.575 0 0 0-.492 2.918c0 .984.141 1.969.422 2.953a8.757 8.757 0 0 0 1.266 2.672 6.784 6.784 0 0 0 2.074 1.933c.843.493 1.816.739 2.918.739 1.101 0 2.086-.211 2.953-.633a6.97 6.97 0 0 0 2.25-1.758 8.272 8.272 0 0 0 1.406-2.566 9.188 9.188 0 0 0 .492-2.989zm72.807-2.39c0 2.039-.14 4.078-.421 6.117-4.008.258-7.993.68-11.954 1.266l-11.882 1.687c.609 1.688 1.558 3.035 2.847 4.043 1.313 1.008 2.871 1.512 4.676 1.512.938 0 1.957-.176 3.059-.528a26.6 26.6 0 0 0 3.34-1.3 40.747 40.747 0 0 0 3.164-1.723 60.84 60.84 0 0 0 2.601-1.652l-1.687 15.96a15.264 15.264 0 0 1-2.989 1.793 19.752 19.752 0 0 1-3.304 1.196 25.336 25.336 0 0 1-3.481.668c-1.172.14-2.32.21-3.445.21-2.32 0-4.442-.316-6.363-.949a19.302 19.302 0 0 1-5.239-2.636 20.197 20.197 0 0 1-4.078-4.043 23.54 23.54 0 0 1-2.918-5.063 29.296 29.296 0 0 1-1.758-5.8 32.224 32.224 0 0 1-.597-6.188c0-2.18.199-4.36.597-6.539.399-2.18.997-4.277 1.793-6.293a27.41 27.41 0 0 1 3.059-5.59 22.095 22.095 0 0 1 4.324-4.535c1.641-1.289 3.492-2.297 5.555-3.023 2.086-.727 4.383-1.09 6.891-1.09 2.085 0 3.984.293 5.695.879 1.734.562 3.269 1.359 4.605 2.39a15.617 15.617 0 0 1 3.516 3.621 19.946 19.946 0 0 1 2.461 4.641 25.605 25.605 0 0 1 1.441 5.309 32.38 32.38 0 0 1 .492 5.66zm-14.062-1.828c0-.657-.07-1.325-.211-2.004a6.132 6.132 0 0 0-.703-1.899 3.855 3.855 0 0 0-1.231-1.37c-.515-.376-1.16-.563-1.933-.563-.938 0-1.77.258-2.496.773a7.064 7.064 0 0 0-1.828 1.899 11.07 11.07 0 0 0-1.266 2.46 18.842 18.842 0 0 0-.738 2.461l10.406-.984v-.773zm56.935 2.32c0 3.281-.422 6.223-1.266 8.824-.844 2.602-2.027 4.91-3.551 6.926a22.255 22.255 0 0 1-5.379 5.098 31.918 31.918 0 0 1-6.855 3.48c-2.484.89-5.133 1.547-7.945 1.969a57.51 57.51 0 0 1-8.614.633c-1.101 0-2.179-.024-3.234-.07a82.377 82.377 0 0 1-3.234-.282l.984-45.773a43.234 43.234 0 0 1 7.945-1.723 64.1 64.1 0 0 1 8.157-.527c3.351 0 6.433.468 9.246 1.406 2.812.937 5.238 2.32 7.277 4.148 2.039 1.805 3.621 4.043 4.746 6.715 1.149 2.649 1.723 5.707 1.723 9.176zm-23.906 13.5c1.406-.211 2.683-.633 3.832-1.266a11.768 11.768 0 0 0 3.023-2.39 10.343 10.343 0 0 0 1.934-3.235c.468-1.218.703-2.508.703-3.867 0-1.336-.141-2.578-.422-3.726-.281-1.172-.738-2.18-1.371-3.024-.633-.867-1.465-1.547-2.496-2.039-1.032-.516-2.297-.797-3.797-.844l-1.406 20.39zm45.192-35.086l-2.461 47.883-14.836.773-1.406-47.672 18.703-.984zm40.833-.07l-.351 14.906-10.477.422-1.265 32.625-14.836.773-1.336-32.625-10.477.563.422-16.594 38.32-.07zm51.046 1.547l-1.266 14.836a12.537 12.537 0 0 0-2.004-.387 18.791 18.791 0 0 0-2.003-.106c-1.665 0-3.258.211-4.782.633-1.5.422-2.836 1.066-4.008 1.934-1.148.867-2.074 1.968-2.777 3.304-.68 1.313-1.019 2.872-1.019 4.676 0 1.313.187 2.461.562 3.445.399.961.949 1.77 1.652 2.426.727.633 1.594 1.114 2.602 1.442 1.031.328 2.168.492 3.41.492.867 0 1.758-.082 2.672-.246a23.77 23.77 0 0 0 2.742-.739 24.525 24.525 0 0 0 4.992-2.32l-.562 16.524a24.48 24.48 0 0 1-2.953 1.265 35.214 35.214 0 0 1-3.27.914 27.019 27.019 0 0 1-3.34.633c-1.101.14-2.156.211-3.164.211-3.328 0-6.363-.621-9.105-1.863-2.719-1.242-5.063-2.93-7.031-5.063-1.946-2.156-3.457-4.652-4.536-7.488-1.078-2.836-1.617-5.86-1.617-9.07 0-3.844.539-7.43 1.617-10.758 1.102-3.328 2.707-6.211 4.817-8.649 2.133-2.46 4.758-4.382 7.875-5.765 3.14-1.406 6.738-2.11 10.793-2.11 1.617 0 3.258.13 4.922.387a17.86 17.86 0 0 1 4.781 1.442zm46.915 21.093c0 2.133-.246 4.196-.738 6.188a23.706 23.706 0 0 1-2.145 5.555 22.617 22.617 0 0 1-3.375 4.78 21.152 21.152 0 0 1-4.464 3.692 21.957 21.957 0 0 1-5.379 2.426c-1.946.562-4.008.844-6.188.844a22.29 22.29 0 0 1-6.047-.809 23.451 23.451 0 0 1-5.343-2.25 22.841 22.841 0 0 1-4.536-3.515 23.382 23.382 0 0 1-3.445-4.57 25.036 25.036 0 0 1-2.215-5.415 23.128 23.128 0 0 1-.773-6.012c0-2.039.246-4.03.738-5.976a24.722 24.722 0 0 1 2.109-5.555 24.498 24.498 0 0 1 3.375-4.781 22.387 22.387 0 0 1 4.395-3.762 21.483 21.483 0 0 1 5.309-2.46c1.898-.587 3.902-.88 6.011-.88 3.399 0 6.493.528 9.282 1.582 2.812 1.055 5.203 2.567 7.171 4.535 1.993 1.946 3.528 4.313 4.606 7.102 1.101 2.766 1.652 5.86 1.652 9.281zm-15.609.914c0-1.007-.152-1.98-.457-2.918a7.54 7.54 0 0 0-1.266-2.53 6.235 6.235 0 0 0-2.109-1.794c-.82-.469-1.77-.703-2.848-.703-1.101 0-2.086.2-2.953.598a6.835 6.835 0 0 0-2.25 1.652 7.102 7.102 0 0 0-1.406 2.426 8.575 8.575 0 0 0-.492 2.918c0 .984.14 1.969.422 2.953a8.778 8.778 0 0 0 1.265 2.672 6.806 6.806 0 0 0 2.074 1.933c.844.493 1.817.739 2.918.739 1.102 0 2.086-.211 2.953-.633a6.95 6.95 0 0 0 2.25-1.758 8.254 8.254 0 0 0 1.407-2.566 9.188 9.188 0 0 0 .492-2.989zm61.997 8.227c0 2.648-.035 5.273-.105 7.875-.047 2.578-.129 5.18-.246 7.805l-20.25-.352a288.895 288.895 0 0 0 1.828-12.41c.515-4.148.773-8.332.773-12.55 0-.306-.011-.798-.035-1.477-.023-.68-.07-1.442-.141-2.286a34.726 34.726 0 0 0-.316-2.636 14.626 14.626 0 0 0-.527-2.496c-.211-.75-.481-1.36-.809-1.828-.305-.493-.68-.739-1.125-.739-.797 0-1.476.235-2.039.703-.539.47-.996 1.078-1.371 1.828a11.638 11.638 0 0 0-.844 2.461 27.975 27.975 0 0 0-.492 2.743 57.785 57.785 0 0 0-.211 2.601 70.989 70.989 0 0 0-.035 1.969c-.117 4.148-.211 8.273-.281 12.375a1138.71 1138.71 0 0 1-.282 12.375l-17.929.773c.469-8.273.914-16.5 1.336-24.68.445-8.18.797-16.406 1.054-24.68l16.594-.843-.14 5.625a23.914 23.914 0 0 1 2.109-2.25 13.77 13.77 0 0 1 2.461-1.793 11.863 11.863 0 0 1 2.742-1.195 10.404 10.404 0 0 1 3.094-.457c1.992 0 3.738.328 5.238.984 1.5.657 2.789 1.547 3.867 2.672 1.078 1.125 1.981 2.461 2.707 4.008a26.753 26.753 0 0 1 1.758 4.887c.445 1.734.785 3.55 1.02 5.449.234 1.875.386 3.726.457 5.555.093 1.828.14 3.597.14 5.308v4.676zm41.291-31.781l-.352 14.906-10.477.422-1.265 32.625-14.836.773-1.336-32.625-10.477.563.422-16.594 38.321-.07zm41.255 21.164c0 2.039-.141 4.078-.422 6.117-4.008.258-7.992.68-11.953 1.266l-11.883 1.687c.609 1.688 1.559 3.035 2.848 4.043 1.312 1.008 2.871 1.512 4.675 1.512.938 0 1.957-.176 3.059-.528a26.6 26.6 0 0 0 3.34-1.3 40.747 40.747 0 0 0 3.164-1.723 60.214 60.214 0 0 0 2.601-1.652l-1.687 15.96a15.31 15.31 0 0 1-2.988 1.794c-1.055.492-2.157.89-3.305 1.195a25.307 25.307 0 0 1-3.481.668c-1.171.14-2.32.21-3.445.21-2.32 0-4.441-.316-6.363-.949a19.281 19.281 0 0 1-5.238-2.636 20.202 20.202 0 0 1-4.079-4.043 23.536 23.536 0 0 1-2.917-5.063 29.163 29.163 0 0 1-1.758-5.8 32.145 32.145 0 0 1-.598-6.188c0-2.18.199-4.36.598-6.539.398-2.18.996-4.277 1.793-6.293a27.407 27.407 0 0 1 3.058-5.59 22.095 22.095 0 0 1 4.324-4.535c1.641-1.289 3.493-2.297 5.555-3.023 2.086-.727 4.383-1.09 6.891-1.09 2.086 0 3.984.293 5.695.879 1.734.562 3.27 1.359 4.606 2.39a15.633 15.633 0 0 1 3.515 3.621 19.946 19.946 0 0 1 2.461 4.641 25.669 25.669 0 0 1 1.442 5.309 32.38 32.38 0 0 1 .492 5.66zm-14.063-1.828c0-.657-.07-1.325-.211-2.004a6.106 6.106 0 0 0-.703-1.899 3.861 3.861 0 0 0-1.23-1.37c-.516-.376-1.16-.563-1.934-.563-.937 0-1.769.258-2.496.773a7.079 7.079 0 0 0-1.828 1.899 11.07 11.07 0 0 0-1.266 2.46 18.842 18.842 0 0 0-.738 2.461l10.406-.984v-.773zm60.732 12.445c0 2.648-.035 5.273-.106 7.875a288.34 288.34 0 0 1-.246 7.805l-20.25-.352a287.33 287.33 0 0 0 1.828-12.41c.516-4.148.774-8.332.774-12.55a49.664 49.664 0 0 0-.176-3.763 35.243 35.243 0 0 0-.316-2.636 14.527 14.527 0 0 0-.528-2.496c-.211-.75-.48-1.36-.808-1.828-.305-.493-.68-.739-1.125-.739-.797 0-1.477.235-2.039.703-.539.47-.996 1.078-1.371 1.828a11.638 11.638 0 0 0-.844 2.461 27.975 27.975 0 0 0-.492 2.743 57.785 57.785 0 0 0-.211 2.601 67.253 67.253 0 0 0-.035 1.969c-.118 4.148-.211 8.273-.282 12.375-.07 4.078-.164 8.203-.281 12.375l-17.93.773c.469-8.273.914-16.5 1.336-24.68.446-8.18.797-16.406 1.055-24.68l16.594-.843-.141 5.625a23.924 23.924 0 0 1 2.11-2.25c.773-.703 1.593-1.3 2.46-1.793a11.889 11.889 0 0 1 2.743-1.195 10.397 10.397 0 0 1 3.093-.457c1.993 0 3.739.328 5.239.984 1.5.657 2.789 1.547 3.867 2.672 1.078 1.125 1.98 2.461 2.707 4.008a26.903 26.903 0 0 1 1.758 4.887 43.15 43.15 0 0 1 1.019 5.449c.235 1.875.387 3.726.457 5.555.094 1.828.141 3.597.141 5.308v4.676zm41.29-31.781l-.351 14.906-10.477.422-1.265 32.625-14.836.773-1.336-32.625-10.477.563.422-16.594 38.32-.07zM374.663 463.5l-2.461 47.883-14.836.773-1.406-47.672 18.703-.984zm47.232 31.711c0 2.648-.035 5.273-.106 7.875-.046 2.578-.128 5.18-.246 7.805l-20.25-.352a287.206 287.206 0 0 0 1.828-12.41c.516-4.149.774-8.332.774-12.55a49.664 49.664 0 0 0-.176-3.763 35.243 35.243 0 0 0-.316-2.636 14.527 14.527 0 0 0-.528-2.496c-.211-.75-.48-1.36-.808-1.828-.305-.493-.68-.739-1.125-.739-.797 0-1.477.235-2.039.703-.539.47-.996 1.078-1.371 1.828a11.638 11.638 0 0 0-.844 2.461 27.975 27.975 0 0 0-.492 2.743 57.785 57.785 0 0 0-.211 2.601 67.253 67.253 0 0 0-.035 1.969c-.118 4.148-.211 8.273-.282 12.375-.07 4.078-.164 8.203-.281 12.375l-17.93.773c.469-8.273.914-16.5 1.336-24.68.446-8.18.797-16.406 1.055-24.68l16.594-.843-.141 5.625a23.92 23.92 0 0 1 2.11-2.25 13.72 13.72 0 0 1 2.46-1.793 11.892 11.892 0 0 1 2.743-1.195 10.397 10.397 0 0 1 3.093-.457c1.993 0 3.739.328 5.239.984 1.5.657 2.789 1.547 3.867 2.672 1.078 1.125 1.98 2.461 2.707 4.008a26.905 26.905 0 0 1 1.758 4.887 43.15 43.15 0 0 1 1.019 5.449c.235 1.875.387 3.726.457 5.555.094 1.828.141 3.597.141 5.308v4.676zm82.264-31.008l-8.226 48.727-19.969.422-4.289-25.243-4.289 23.414-19.969.704-8.297-48.024 17.438-1.547 3.515 29.18 4.711-29.18h13.711l5.484 29.532 2.813-29.532 17.367 1.547zm45.087 21.867c0 2.133-.246 4.196-.738 6.188a23.732 23.732 0 0 1-2.144 5.554 22.674 22.674 0 0 1-3.375 4.782 21.19 21.19 0 0 1-4.465 3.691 21.969 21.969 0 0 1-5.379 2.426c-1.946.562-4.008.844-6.188.844-2.109 0-4.125-.27-6.047-.809a23.442 23.442 0 0 1-5.343-2.25 22.802 22.802 0 0 1-4.536-3.516 23.396 23.396 0 0 1-3.445-4.57 25.023 25.023 0 0 1-2.215-5.414 23.128 23.128 0 0 1-.773-6.012c0-2.039.246-4.03.738-5.976a24.677 24.677 0 0 1 2.11-5.555 24.413 24.413 0 0 1 3.375-4.781 22.351 22.351 0 0 1 4.394-3.762 21.485 21.485 0 0 1 5.309-2.46c1.898-.587 3.902-.88 6.011-.88 3.399 0 6.493.528 9.282 1.582 2.812 1.055 5.203 2.567 7.172 4.536 1.992 1.945 3.527 4.312 4.605 7.101 1.102 2.766 1.652 5.86 1.652 9.281zm-15.609.914c0-1.007-.152-1.98-.457-2.918a7.54 7.54 0 0 0-1.266-2.53 6.235 6.235 0 0 0-2.109-1.794c-.82-.469-1.77-.703-2.848-.703-1.101 0-2.086.2-2.953.598a6.835 6.835 0 0 0-2.25 1.652 7.102 7.102 0 0 0-1.406 2.426 8.575 8.575 0 0 0-.492 2.918c0 .984.14 1.969.422 2.953a8.783 8.783 0 0 0 1.265 2.672 6.8 6.8 0 0 0 2.074 1.933c.844.493 1.817.739 2.918.739 1.102 0 2.086-.211 2.954-.633a6.96 6.96 0 0 0 2.25-1.758 8.267 8.267 0 0 0 1.406-2.566 9.188 9.188 0 0 0 .492-2.989zm59.993-7.875c0 1.829-.164 3.493-.492 4.993a14.61 14.61 0 0 1-1.476 4.078 14.675 14.675 0 0 1-2.637 3.445c-1.078 1.055-2.379 2.063-3.902 3.023l8.367 14.907-15.821 3.093-5.414-14.976-4.359.14-.633 14.626h-15.117c.117-5.344.223-10.665.316-15.961.118-5.297.246-10.618.387-15.961l.141-8.016c.047-2.648.14-5.32.281-8.016a45.946 45.946 0 0 1 4.852-1.511 42.852 42.852 0 0 1 4.781-.914 48.518 48.518 0 0 1 4.887-.457 90.571 90.571 0 0 1 5.097-.141c2.672 0 5.25.375 7.735 1.125 2.507.727 4.722 1.828 6.644 3.305 1.922 1.476 3.457 3.316 4.606 5.52 1.171 2.202 1.757 4.769 1.757 7.698zm-15.75 1.125c0-.984-.14-1.886-.422-2.707a5.494 5.494 0 0 0-1.195-2.109c-.515-.61-1.172-1.078-1.969-1.406-.773-.352-1.687-.528-2.742-.528a8.81 8.81 0 0 0-1.371.106 7.991 7.991 0 0 0-1.301.246l-.562 13.078h.844a12.57 12.57 0 0 0 3.058-.387c1.055-.257 1.992-.656 2.813-1.195a6.394 6.394 0 0 0 2.039-2.074c.539-.844.808-1.852.808-3.024zm58.763 4.852c0 3.281-.422 6.223-1.265 8.824-.844 2.602-2.028 4.91-3.551 6.926a22.274 22.274 0 0 1-5.379 5.098 31.944 31.944 0 0 1-6.855 3.48c-2.485.891-5.133 1.547-7.946 1.969-2.789.422-5.66.633-8.613.633-1.102 0-2.18-.024-3.234-.071a82.2 82.2 0 0 1-3.235-.281l.985-45.773a43.216 43.216 0 0 1 7.945-1.723 64.076 64.076 0 0 1 8.156-.527c3.352 0 6.434.468 9.246 1.406 2.813.937 5.239 2.32 7.278 4.148 2.039 1.805 3.621 4.043 4.746 6.715 1.148 2.649 1.722 5.707 1.722 9.176zm-23.906 13.5c1.406-.211 2.684-.633 3.832-1.266a11.76 11.76 0 0 0 3.024-2.39 10.329 10.329 0 0 0 1.933-3.235c.469-1.218.703-2.507.703-3.867 0-1.336-.14-2.578-.422-3.726-.281-1.172-.738-2.18-1.371-3.024-.632-.867-1.465-1.547-2.496-2.039-1.031-.516-2.297-.797-3.797-.844l-1.406 20.391zm67.798-19.406c0 2.273-.34 4.289-1.019 6.047-.68 1.757-1.617 3.293-2.813 4.605a16.535 16.535 0 0 1-4.148 3.34 26.62 26.62 0 0 1-5.133 2.25c-1.805.562-3.68.984-5.625 1.266a48.246 48.246 0 0 1-5.73.421v16.383h-16.383a3695.403 3695.403 0 0 1 .14-32.133c.047-2.859.059-5.718.035-8.578-.023-2.86.036-5.742.176-8.648 3-.89 6-1.559 9-2.004 3-.445 6.094-.668 9.282-.668 1.804 0 3.609.152 5.414.457 1.804.281 3.527.738 5.168 1.371a21.957 21.957 0 0 1 4.605 2.39c1.43.938 2.66 2.063 3.691 3.376 1.032 1.312 1.84 2.812 2.426 4.5.61 1.664.914 3.539.914 5.625zm-15.609 1.195c0-1.523-.469-2.707-1.406-3.55-.914-.868-2.11-1.302-3.586-1.302-.492 0-1.008.047-1.547.141a13.74 13.74 0 0 0-1.477.281l-.422 10.266c.329.047.645.07.95.07h.949c.844 0 1.652-.14 2.426-.422.796-.28 1.5-.68 2.109-1.195a6.132 6.132 0 0 0 1.441-1.863c.375-.727.563-1.535.563-2.426zm59.466-1.266c0 1.829-.164 3.493-.492 4.993a14.58 14.58 0 0 1-1.477 4.078 14.621 14.621 0 0 1-2.637 3.445c-1.078 1.055-2.378 2.063-3.902 3.023l8.367 14.907-15.82 3.093-5.414-14.976-4.359.14-.633 14.626h-15.117c.117-5.344.222-10.665.316-15.961.117-5.297.246-10.618.387-15.961l.14-8.016c.047-2.648.141-5.32.282-8.016a45.858 45.858 0 0 1 4.851-1.511 42.939 42.939 0 0 1 4.781-.914 48.545 48.545 0 0 1 4.887-.457 90.58 90.58 0 0 1 5.098-.141c2.672 0 5.25.375 7.734 1.125 2.508.726 4.723 1.828 6.645 3.305 1.922 1.476 3.457 3.316 4.605 5.52 1.172 2.202 1.758 4.769 1.758 7.698zm-15.75 1.125c0-.984-.141-1.886-.422-2.707a5.507 5.507 0 0 0-1.195-2.109c-.516-.61-1.172-1.078-1.969-1.406-.773-.352-1.687-.528-2.742-.528a8.81 8.81 0 0 0-1.371.106 7.971 7.971 0 0 0-1.301.246l-.563 13.078h.844c1.008 0 2.028-.129 3.059-.387 1.054-.258 1.992-.656 2.812-1.195a6.374 6.374 0 0 0 2.039-2.074c.539-.844.809-1.852.809-3.024zm57.814 4.36a44.76 44.76 0 0 1-.422 6.117c-4.008.258-7.992.68-11.953 1.266l-11.883 1.687c.609 1.688 1.558 3.035 2.848 4.043 1.312 1.008 2.871 1.512 4.675 1.512.938 0 1.957-.176 3.059-.528a26.595 26.595 0 0 0 3.34-1.3 40.85 40.85 0 0 0 3.164-1.723 60.05 60.05 0 0 0 2.601-1.652l-1.687 15.961c-.914.703-1.91 1.3-2.988 1.793-1.055.492-2.157.89-3.305 1.195a25.351 25.351 0 0 1-3.481.668c-1.171.14-2.32.211-3.445.211-2.32 0-4.441-.317-6.363-.949a19.288 19.288 0 0 1-5.238-2.637 20.215 20.215 0 0 1-4.079-4.043 23.595 23.595 0 0 1-2.918-5.063 29.219 29.219 0 0 1-1.757-5.8 32.156 32.156 0 0 1-.598-6.188c0-2.18.199-4.36.598-6.539.398-2.18.996-4.277 1.793-6.293a27.359 27.359 0 0 1 3.058-5.59 22.096 22.096 0 0 1 4.324-4.535c1.641-1.289 3.493-2.297 5.555-3.023 2.086-.727 4.383-1.09 6.891-1.09 2.086 0 3.984.293 5.695.879 1.734.562 3.27 1.359 4.606 2.39a15.632 15.632 0 0 1 3.515 3.621 19.945 19.945 0 0 1 2.461 4.641 25.669 25.669 0 0 1 1.442 5.309 32.38 32.38 0 0 1 .492 5.66zm-14.063-1.828c0-.657-.07-1.325-.211-2.004a6.106 6.106 0 0 0-.703-1.899 3.861 3.861 0 0 0-1.23-1.37c-.516-.376-1.16-.563-1.934-.563-.937 0-1.769.257-2.496.773a7.064 7.064 0 0 0-1.828 1.899 11.07 11.07 0 0 0-1.266 2.46 18.842 18.842 0 0 0-.738 2.461l10.406-.984v-.773zM805.531 495c0 3.211-.562 5.988-1.687 8.332-1.102 2.32-2.625 4.242-4.571 5.766-1.921 1.5-4.183 2.613-6.785 3.34-2.578.703-5.355 1.054-8.332 1.054-1.148 0-2.414-.152-3.797-.457a50.146 50.146 0 0 1-4.148-1.125 83.322 83.322 0 0 1-4.078-1.476 96.418 96.418 0 0 1-3.446-1.512l1.547-13.781c1.993 1.195 4.196 2.109 6.61 2.742 2.437.609 4.828.914 7.172.914.445 0 .984-.012 1.617-.035a8.695 8.695 0 0 0 1.793-.317c.586-.187 1.078-.457 1.476-.808.399-.352.598-.856.598-1.512a1.6 1.6 0 0 0-.422-1.125 2.865 2.865 0 0 0-1.09-.773 5.678 5.678 0 0 0-1.511-.457c-.563-.118-1.114-.2-1.653-.247a17.864 17.864 0 0 0-1.512-.07h-1.125c-2.015 0-3.855-.316-5.519-.949-1.641-.633-3.059-1.524-4.254-2.672-1.172-1.172-2.086-2.578-2.742-4.219-.656-1.664-.985-3.504-.985-5.52 0-2.765.551-5.238 1.653-7.417 1.125-2.203 2.613-4.067 4.465-5.59 1.875-1.547 4.019-2.73 6.433-3.55a23.099 23.099 0 0 1 7.489-1.231c1.148 0 2.332.047 3.55.14 1.219.07 2.426.211 3.621.422 1.219.211 2.403.48 3.551.809 1.149.328 2.238.738 3.27 1.23l-1.336 14.274a40.412 40.412 0 0 0-5.028-1.336 24.073 24.073 0 0 0-5.097-.563c-.305 0-.703.012-1.196.035-.468 0-.972.036-1.511.106-.516.047-1.043.129-1.582.246a6.129 6.129 0 0 0-1.442.492 2.621 2.621 0 0 0-1.019.774 1.674 1.674 0 0 0-.352 1.16c.024.515.211.914.563 1.195.375.281.843.492 1.406.633a9.68 9.68 0 0 0 1.898.176c.704 0 1.395-.012 2.075-.036a66.085 66.085 0 0 1 1.898-.105 10.514 10.514 0 0 1 1.441-.035c1.875.117 3.563.515 5.063 1.195 1.5.68 2.766 1.582 3.797 2.707 1.055 1.125 1.851 2.473 2.39 4.043.563 1.547.844 3.258.844 5.133zm38.689 0c0 3.211-.563 5.988-1.688 8.332-1.101 2.32-2.625 4.242-4.57 5.766-1.922 1.5-4.183 2.613-6.785 3.34-2.578.703-5.355 1.054-8.332 1.054-1.148 0-2.414-.152-3.797-.457a50.146 50.146 0 0 1-4.148-1.125 82.947 82.947 0 0 1-4.078-1.476 95.63 95.63 0 0 1-3.446-1.512l1.547-13.781c1.992 1.195 4.195 2.109 6.609 2.742 2.438.609 4.829.914 7.172.914.446 0 .985-.012 1.618-.035a8.707 8.707 0 0 0 1.793-.317c.585-.187 1.078-.457 1.476-.808.399-.352.598-.856.598-1.512a1.6 1.6 0 0 0-.422-1.125 2.873 2.873 0 0 0-1.09-.773 5.674 5.674 0 0 0-1.512-.457c-.562-.118-1.113-.2-1.652-.247a17.864 17.864 0 0 0-1.512-.07h-1.125c-2.015 0-3.855-.316-5.519-.949-1.641-.633-3.059-1.524-4.254-2.672-1.172-1.172-2.086-2.578-2.742-4.219-.657-1.664-.985-3.504-.985-5.52 0-2.765.551-5.238 1.653-7.417 1.125-2.203 2.613-4.067 4.464-5.59 1.875-1.547 4.02-2.73 6.434-3.55a23.097 23.097 0 0 1 7.488-1.231c1.149 0 2.332.047 3.551.14 1.219.07 2.426.211 3.621.422 1.219.211 2.403.48 3.551.809a20.92 20.92 0 0 1 3.269 1.23l-1.335 14.274a40.412 40.412 0 0 0-5.028-1.336 24.073 24.073 0 0 0-5.097-.563c-.305 0-.704.012-1.196.035-.469 0-.972.036-1.511.106-.516.047-1.043.129-1.583.246a6.12 6.12 0 0 0-1.441.492 2.614 2.614 0 0 0-1.019.774 1.674 1.674 0 0 0-.352 1.16c.023.515.211.914.562 1.195.375.281.844.492 1.407.633a9.674 9.674 0 0 0 1.898.176c.703 0 1.395-.012 2.074-.036a67.74 67.74 0 0 1 1.899-.105 10.514 10.514 0 0 1 1.441-.035c1.875.117 3.563.515 5.063 1.195 1.5.68 2.765 1.582 3.797 2.707 1.054 1.125 1.851 2.473 2.39 4.043.563 1.547.844 3.258.844 5.133zM671.489 345H525V152h113.432l33.057 33.09V345zm-138.77-7.727H663.77V188.45l-28.694-28.723H532.551v177.546h.168z" fill="#212529"/><path d="M667.63 190.633h-34.735v-34.77h7.719v27.044h27.015v7.726zm-69.47-7.726h-50.843v7.727h50.843v-7.727zm51.011 15.453H547.317v7.727h101.854v-7.727zm0 15.453H547.317v7.727h101.854v-7.727zm-12.417 15.286h-89.437v7.727h89.437v-7.727z" fill="#212529"/><path d="M667.536 223.167l-69.411 69.482 27.052 27.08 69.411-69.482-27.052-27.08z" fill="#FFCD30"/><path d="M625.175 323.5c-1.007 0-2.013-.336-2.684-1.176l-27.016-27.044c-1.51-1.511-1.51-4.031 0-5.375l69.469-69.54c1.51-1.512 4.027-1.512 5.37 0l27.015 27.043c.671.672 1.174 1.68 1.174 2.688 0 1.008-.335 2.016-1.174 2.687l-69.469 69.541c-.671.84-1.678 1.176-2.685 1.176zm-21.478-30.907l21.646 21.668 63.932-63.997-21.647-21.669-63.931 63.998z" fill="#212529"/><path d="M678.324 233.94l-69.421 69.472 5.457 5.464 69.42-69.472-5.456-5.465z" fill="#212529"/><path d="M694.646 255.639l-32.553-32.587 2.685-2.687c4.363-4.367 10.068-6.719 16.276-6.719 6.209 0 11.914 2.352 16.277 6.719 8.893 8.902 8.893 23.516 0 32.586l-2.685 2.688zm-21.31-32.083l20.974 20.997c3.356-5.88 2.685-13.606-2.349-18.477-2.852-2.856-6.712-4.535-10.739-4.535-2.852-.168-5.537.672-7.886 2.015zm-48.16 99.944h-30.875v-30.907h7.719v23.348h23.156v7.559z" fill="#212529"/></g><defs><clipPath id="a"><path fill="#fff" d="M0 0h1200v800H0z"/></clipPath></defs></svg>