<svg width="1200" height="800" viewBox="0 0 1200 800" fill="none" xmlns="http://www.w3.org/2000/svg"><g clip-path="url(#a)"><path fill="#fff" d="M0 0h1200v800H0z"/><path fill="#fff" d="M0 0h1200v800H0z"/><path d="M1228.99 570.668C690.658 601.782 210.7 684.304-159 801.323l1387.99.002V570.668z" fill="#EF4631"/><path d="M1229 634.926c-516.713 13.527-992.348 73.051-1381.5 166.396l1381.5.002V634.926z" fill="#12ABE3"/><path d="M1229 704.597c-38.916-.676-77.831-.676-116.747-.676-441.043-.001-856.143 35.172-1217.193 98.078L1229 802v-97.404z" fill="#2EB349"/><path d="M1229 764.8a7969.025 7969.025 0 0 0-428.072-11.5c-311.325-.001-607.518 16.909-884.248 48.023l1312.32.002V764.8z" fill="#FFCD30"/><path d="M362.588 401.906c0 1.735-.082 3.645-.246 5.73a74.901 74.901 0 0 1-2.286 13.254 47.04 47.04 0 0 1-2.214 6.575 38.692 38.692 0 0 1-3.129 5.941 23.267 23.267 0 0 1-4.078 4.817 17.677 17.677 0 0 1-5.133 3.199c-1.899.797-4.008 1.195-6.328 1.195-2.719 0-5.086-.445-7.102-1.336-1.992-.867-3.703-2.039-5.133-3.515-1.429-1.5-2.601-3.235-3.515-5.204a33.208 33.208 0 0 1-2.145-6.293 50.626 50.626 0 0 1-1.09-6.785 83.25 83.25 0 0 1-.281-6.68c0-3.28.164-6.55.492-9.808.328-3.281.797-6.55 1.406-9.809l16.454.633a248.676 248.676 0 0 0-1.653 11.11 93.619 93.619 0 0 0-.668 11.18c0 .398.012.995.035 1.792.047.774.118 1.653.211 2.637.094.961.223 1.957.387 2.988.188 1.008.434 1.934.738 2.778.305.843.668 1.535 1.09 2.074.446.539.961.808 1.547.808.68 0 1.289-.316 1.828-.949.539-.656 1.008-1.523 1.406-2.601.422-1.078.786-2.32 1.09-3.727.305-1.406.563-2.87.774-4.394a75.37 75.37 0 0 0 .492-4.57c.141-1.524.246-2.942.316-4.255.094-1.312.153-2.472.176-3.48.024-1.008.035-1.758.035-2.25 0-1.828-.035-3.645-.105-5.45a139.733 139.733 0 0 0-.246-5.449h16.453c.281 3.235.422 6.516.422 9.844zm46.739 21.305c0 2.648-.035 5.273-.105 7.875-.047 2.578-.129 5.18-.246 7.805l-20.25-.352a288.895 288.895 0 0 0 1.828-12.41c.515-4.148.773-8.332.773-12.55 0-.306-.011-.798-.035-1.477-.023-.68-.07-1.442-.141-2.286a34.726 34.726 0 0 0-.316-2.636 14.626 14.626 0 0 0-.527-2.496c-.211-.75-.481-1.36-.809-1.828-.305-.493-.68-.739-1.125-.739-.797 0-1.476.235-2.039.703-.539.47-.996 1.078-1.371 1.828a11.638 11.638 0 0 0-.844 2.461 27.975 27.975 0 0 0-.492 2.743 57.785 57.785 0 0 0-.211 2.601 70.989 70.989 0 0 0-.035 1.969c-.117 4.148-.211 8.273-.281 12.375a1138.71 1138.71 0 0 1-.282 12.375l-17.929.773c.469-8.273.914-16.5 1.336-24.68.445-8.18.797-16.406 1.054-24.68l16.594-.843-.14 5.625a23.914 23.914 0 0 1 2.109-2.25 13.77 13.77 0 0 1 2.461-1.793 11.863 11.863 0 0 1 2.742-1.195 10.404 10.404 0 0 1 3.094-.457c1.992 0 3.738.328 5.238.984 1.5.657 2.789 1.547 3.867 2.672 1.078 1.125 1.981 2.461 2.707 4.008a26.753 26.753 0 0 1 1.758 4.887c.445 1.734.785 3.55 1.02 5.449.234 1.875.386 3.726.457 5.555.093 1.828.14 3.597.14 5.308v4.676zm43.892-10.125c0 3.281-.422 6.223-1.265 8.824-.844 2.602-2.028 4.91-3.551 6.926a22.255 22.255 0 0 1-5.379 5.098 31.925 31.925 0 0 1-6.856 3.48c-2.484.89-5.132 1.547-7.945 1.969-2.789.422-5.66.633-8.613.633-1.102 0-2.18-.024-3.235-.07a82.712 82.712 0 0 1-3.234-.282l.984-45.773a43.245 43.245 0 0 1 7.946-1.723 64.084 64.084 0 0 1 8.156-.527c3.352 0 6.434.468 9.246 1.406 2.813.937 5.238 2.32 7.277 4.148 2.039 1.805 3.621 4.043 4.746 6.715 1.149 2.649 1.723 5.707 1.723 9.176zm-23.906 13.5c1.406-.211 2.683-.633 3.832-1.266a11.734 11.734 0 0 0 3.023-2.39 10.324 10.324 0 0 0 1.934-3.235c.469-1.218.703-2.507.703-3.867 0-1.336-.141-2.578-.422-3.726-.281-1.172-.738-2.18-1.371-3.024-.633-.867-1.465-1.547-2.496-2.039-1.031-.516-2.297-.797-3.797-.844l-1.406 20.39zm66.075-13.992c0 2.039-.14 4.078-.422 6.117-4.007.258-7.992.68-11.953 1.266l-11.882 1.687c.609 1.688 1.558 3.035 2.847 4.043 1.313 1.008 2.871 1.512 4.676 1.512.937 0 1.957-.176 3.059-.528a26.528 26.528 0 0 0 3.339-1.3 40.383 40.383 0 0 0 3.164-1.723 60.935 60.935 0 0 0 2.602-1.652l-1.687 15.96a15.347 15.347 0 0 1-2.989 1.794c-1.054.492-2.156.89-3.304 1.195a25.336 25.336 0 0 1-3.481.668c-1.172.14-2.32.21-3.445.21-2.321 0-4.442-.316-6.363-.949a19.302 19.302 0 0 1-5.239-2.636 20.197 20.197 0 0 1-4.078-4.043 23.54 23.54 0 0 1-2.918-5.063 29.296 29.296 0 0 1-1.758-5.8 32.224 32.224 0 0 1-.597-6.188c0-2.18.199-4.36.597-6.539.399-2.18.996-4.277 1.793-6.293a27.41 27.41 0 0 1 3.059-5.59 22.068 22.068 0 0 1 4.324-4.535c1.641-1.289 3.492-2.297 5.555-3.023 2.086-.727 4.383-1.09 6.89-1.09 2.086 0 3.985.293 5.696.879 1.734.562 3.269 1.359 4.605 2.39a15.637 15.637 0 0 1 3.516 3.621 19.946 19.946 0 0 1 2.461 4.641 25.667 25.667 0 0 1 1.441 5.309 32.38 32.38 0 0 1 .492 5.66zm-14.062-1.828c0-.657-.07-1.325-.211-2.004a6.132 6.132 0 0 0-.703-1.899 3.855 3.855 0 0 0-1.231-1.37c-.515-.376-1.16-.563-1.933-.563-.938 0-1.77.258-2.496.773a7.064 7.064 0 0 0-1.828 1.899 11.07 11.07 0 0 0-1.266 2.46 18.842 18.842 0 0 0-.738 2.461l10.406-.984v-.773zm58.306-3.657c0 1.829-.164 3.493-.492 4.993a14.58 14.58 0 0 1-1.477 4.078 14.669 14.669 0 0 1-2.637 3.445c-1.078 1.055-2.379 2.063-3.902 3.023l8.367 14.907-15.82 3.093-5.414-14.976-4.36.14-.632 14.626h-15.118c.118-5.344.223-10.665.317-15.961.117-5.297.246-10.618.387-15.961.046-2.696.093-5.368.14-8.016.047-2.648.141-5.32.281-8.016a45.96 45.96 0 0 1 4.852-1.511 42.918 42.918 0 0 1 4.781-.914 48.53 48.53 0 0 1 4.887-.457 90.629 90.629 0 0 1 5.098-.141c2.671 0 5.25.375 7.734 1.125 2.508.727 4.723 1.828 6.645 3.305 1.921 1.476 3.457 3.316 4.605 5.52 1.172 2.202 1.758 4.769 1.758 7.698zm-15.75 1.125c0-.984-.141-1.886-.422-2.707a5.507 5.507 0 0 0-1.195-2.109c-.516-.61-1.172-1.078-1.969-1.406-.774-.352-1.688-.528-2.742-.528a8.81 8.81 0 0 0-1.371.106 7.971 7.971 0 0 0-1.301.246l-.563 13.078h.844c1.008 0 2.027-.129 3.059-.387 1.054-.258 1.992-.656 2.812-1.195a6.374 6.374 0 0 0 2.039-2.074c.539-.844.809-1.852.809-3.024zM578.848 423c0 3.21-.563 5.988-1.688 8.332-1.101 2.32-2.625 4.242-4.57 5.766-1.922 1.5-4.184 2.613-6.785 3.34-2.578.703-5.356 1.054-8.332 1.054-1.149 0-2.414-.152-3.797-.457a49.911 49.911 0 0 1-4.148-1.125 82.537 82.537 0 0 1-4.079-1.476 97.074 97.074 0 0 1-3.445-1.512l1.547-13.781c1.992 1.195 4.195 2.109 6.609 2.742 2.438.61 4.829.914 7.172.914.446 0 .985-.012 1.617-.035a8.67 8.67 0 0 0 1.793-.317c.586-.187 1.079-.457 1.477-.808.398-.352.598-.856.598-1.512a1.6 1.6 0 0 0-.422-1.125 2.878 2.878 0 0 0-1.09-.773 5.703 5.703 0 0 0-1.512-.457c-.562-.118-1.113-.2-1.652-.247a17.543 17.543 0 0 0-1.512-.07h-1.125c-2.015 0-3.855-.316-5.519-.95-1.641-.632-3.059-1.523-4.254-2.671-1.172-1.172-2.086-2.578-2.742-4.219-.657-1.664-.985-3.504-.985-5.52 0-2.765.551-5.238 1.652-7.417 1.125-2.203 2.614-4.067 4.465-5.59 1.875-1.547 4.02-2.73 6.434-3.55a23.097 23.097 0 0 1 7.488-1.231c1.149 0 2.332.047 3.551.14 1.219.07 2.426.211 3.621.422 1.219.211 2.402.48 3.551.809a20.92 20.92 0 0 1 3.269 1.23l-1.336 14.274a40.35 40.35 0 0 0-5.027-1.336 24.075 24.075 0 0 0-5.098-.563c-.304 0-.703.012-1.195.035-.469 0-.973.036-1.512.106a13 13 0 0 0-1.582.246 6.12 6.12 0 0 0-1.441.492 2.625 2.625 0 0 0-1.02.774 1.673 1.673 0 0 0-.351 1.16c.023.515.211.914.562 1.195.375.281.844.492 1.407.633a9.674 9.674 0 0 0 1.898.176c.703 0 1.395-.012 2.074-.035.68-.047 1.313-.082 1.899-.106a10.514 10.514 0 0 1 1.441-.035c1.875.117 3.563.516 5.063 1.195 1.5.68 2.765 1.582 3.797 2.707 1.054 1.125 1.851 2.473 2.39 4.043.563 1.547.844 3.258.844 5.133zm39.392-31.57l-.352 14.906-10.476.422-1.266 32.625-14.836.773-1.336-32.625-10.476.563.421-16.594 38.321-.07zm42.485 46.547l-17.437 2.25-2.109-7.946h-8.016l-1.758 7.946-17.93-1.758 13.993-46.828 19.546-.985 13.711 47.32zm-20.812-16.454l-2.672-12.234-2.602 12.234h5.274zm65.9 1.688c0 2.648-.036 5.273-.106 7.875-.047 2.578-.129 5.18-.246 7.805l-20.25-.352a287.33 287.33 0 0 0 1.828-12.41c.516-4.148.774-8.332.774-12.55 0-.306-.012-.798-.036-1.477-.023-.68-.07-1.442-.14-2.286a34.735 34.735 0 0 0-.317-2.636 14.626 14.626 0 0 0-.527-2.496c-.211-.75-.48-1.36-.809-1.828-.304-.493-.679-.739-1.125-.739-.796 0-1.476.235-2.039.703-.539.47-.996 1.078-1.371 1.828a11.695 11.695 0 0 0-.843 2.461 28.28 28.28 0 0 0-.493 2.743 59.29 59.29 0 0 0-.211 2.601 70.989 70.989 0 0 0-.035 1.969c-.117 4.148-.211 8.273-.281 12.375-.07 4.078-.164 8.203-.281 12.375l-17.93.773c.469-8.273.914-16.5 1.336-24.68.445-8.18.797-16.406 1.055-24.68l16.593-.843-.14 5.625a23.914 23.914 0 0 1 2.109-2.25 13.76 13.76 0 0 1 2.461-1.793 11.863 11.863 0 0 1 2.742-1.195 10.409 10.409 0 0 1 3.094-.457c1.992 0 3.738.328 5.238.984 1.5.657 2.789 1.547 3.868 2.672 1.078 1.125 1.98 2.461 2.707 4.008a26.826 26.826 0 0 1 1.757 4.887c.446 1.734.786 3.55 1.02 5.449a64.9 64.9 0 0 1 .457 5.555c.094 1.828.141 3.597.141 5.308v4.676zm43.891-10.125c0 3.281-.421 6.223-1.265 8.824-.844 2.602-2.028 4.91-3.551 6.926a22.255 22.255 0 0 1-5.379 5.098 31.94 31.94 0 0 1-6.855 3.48c-2.485.89-5.133 1.547-7.946 1.969-2.789.422-5.66.633-8.613.633a74.2 74.2 0 0 1-3.234-.07 82.592 82.592 0 0 1-3.235-.282l.985-45.773a43.216 43.216 0 0 1 7.945-1.723 64.084 64.084 0 0 1 8.156-.527c3.352 0 6.434.468 9.246 1.406 2.813.937 5.239 2.32 7.278 4.148 2.039 1.805 3.621 4.043 4.746 6.715 1.148 2.649 1.722 5.707 1.722 9.176zm-23.906 13.5c1.406-.211 2.684-.633 3.832-1.266a11.756 11.756 0 0 0 3.024-2.39 10.34 10.34 0 0 0 1.933-3.235c.469-1.218.703-2.507.703-3.867 0-1.336-.14-2.578-.421-3.726-.282-1.172-.739-2.18-1.372-3.024-.632-.867-1.464-1.547-2.496-2.039-1.031-.516-2.297-.797-3.797-.844l-1.406 20.39zm45.193-35.086l-2.461 47.883-14.836.773-1.406-47.672 18.703-.984zm47.232 31.71c0 2.65-.036 5.274-.106 7.876-.047 2.578-.129 5.18-.246 7.805l-20.25-.352a287.33 287.33 0 0 0 1.828-12.41c.516-4.148.774-8.332.774-12.55 0-.306-.012-.798-.036-1.477-.023-.68-.07-1.442-.14-2.286a34.735 34.735 0 0 0-.317-2.636 14.626 14.626 0 0 0-.527-2.496c-.211-.75-.48-1.36-.809-1.828-.304-.493-.679-.739-1.125-.739-.796 0-1.476.235-2.039.703-.539.47-.996 1.078-1.371 1.828a11.695 11.695 0 0 0-.843 2.461 28.28 28.28 0 0 0-.493 2.743 59.29 59.29 0 0 0-.211 2.601 70.989 70.989 0 0 0-.035 1.969c-.117 4.148-.211 8.273-.281 12.375-.07 4.078-.164 8.203-.281 12.375l-17.93.773c.469-8.273.914-16.5 1.336-24.68.445-8.18.797-16.406 1.055-24.68l16.593-.843-.14 5.625a23.914 23.914 0 0 1 2.109-2.25 13.76 13.76 0 0 1 2.461-1.793 11.863 11.863 0 0 1 2.742-1.195 10.409 10.409 0 0 1 3.094-.457c1.992 0 3.738.328 5.238.984 1.5.657 2.789 1.547 3.868 2.672 1.078 1.125 1.98 2.461 2.707 4.008a26.826 26.826 0 0 1 1.757 4.887c.446 1.734.786 3.55 1.02 5.449a64.9 64.9 0 0 1 .457 5.555c.094 1.828.141 3.597.141 5.308v4.676zm46.563 9.915c-1.101 1.383-2.461 2.59-4.078 3.621a26.841 26.841 0 0 1-5.203 2.567 34.08 34.08 0 0 1-5.695 1.546c-1.945.329-3.797.493-5.555.493-3.398 0-6.527-.575-9.387-1.723-2.859-1.148-5.332-2.742-7.418-4.781-2.062-2.063-3.679-4.512-4.851-7.348-1.172-2.836-1.758-5.93-1.758-9.281 0-2.555.293-5.04.879-7.453a30.832 30.832 0 0 1 2.496-6.785 28.441 28.441 0 0 1 4.008-5.801 25.355 25.355 0 0 1 5.344-4.535 24.972 24.972 0 0 1 6.539-2.918c2.39-.704 4.922-1.055 7.593-1.055 1.008 0 2.086.047 3.235.14 1.148.07 2.285.211 3.41.422 1.148.188 2.262.457 3.34.809 1.078.352 2.062.785 2.953 1.3l-.984 13.43a17.27 17.27 0 0 0-4.079-.984 30.32 30.32 0 0 0-4.078-.281c-1.875 0-3.632.258-5.273.773-1.617.492-3.035 1.23-4.254 2.215-1.195.985-2.145 2.215-2.848 3.692-.703 1.476-1.054 3.187-1.054 5.132 0 1.22.164 2.403.492 3.551a9.563 9.563 0 0 0 1.476 3.024 8.05 8.05 0 0 0 2.496 2.109c1.008.539 2.168.808 3.481.808.891 0 1.805-.117 2.742-.351.961-.234 1.781-.633 2.461-1.195l.141-2.743-8.438-.14.422-10.547c3.492-.117 6.984-.211 10.477-.281 3.492-.094 7.007-.211 10.547-.352l.421 22.922zm-533.117 72.703c-1.102 1.383-2.461 2.59-4.079 3.621a26.872 26.872 0 0 1-5.203 2.567 31.915 31.915 0 0 1-5.695 1.511c-1.945.352-3.797.528-5.555.528-3.398 0-6.527-.61-9.386-1.828-2.86-1.219-5.332-2.895-7.418-5.028-2.063-2.156-3.68-4.687-4.852-7.594-1.172-2.906-1.758-6.035-1.758-9.386 0-2.555.293-5.051.879-7.488a32.008 32.008 0 0 1 2.496-6.926 28.998 28.998 0 0 1 4.008-5.977 25.532 25.532 0 0 1 5.344-4.71 25.317 25.317 0 0 1 6.539-3.06c2.367-.726 4.898-1.09 7.594-1.09 1.007 0 2.086.048 3.234.141 1.148.07 2.285.211 3.41.422 1.149.188 2.262.457 3.34.809 1.078.351 2.062.785 2.953 1.3l-.984 13.43a17.28 17.28 0 0 0-4.078-.984 30.345 30.345 0 0 0-4.079-.281c-1.875 0-3.632.293-5.273.879-1.617.562-3.035 1.382-4.254 2.46-1.195 1.079-2.144 2.391-2.848 3.938-.703 1.547-1.054 3.293-1.054 5.238 0 1.22.164 2.403.492 3.551a9.55 9.55 0 0 0 1.477 3.024 8.028 8.028 0 0 0 2.496 2.109c1.007.539 2.168.808 3.48.808.891 0 1.805-.117 2.742-.351.961-.234 1.782-.633 2.461-1.195l.141-2.743-8.438-.14.422-10.547c3.492-.117 6.985-.211 10.477-.281a819.3 819.3 0 0 0 10.547-.352l.422 23.625zm46.88-19.758c0 2.133-.246 4.196-.739 6.188a23.732 23.732 0 0 1-2.144 5.554 22.601 22.601 0 0 1-3.375 4.782 21.19 21.19 0 0 1-4.465 3.691 21.969 21.969 0 0 1-5.379 2.426c-1.945.562-4.008.844-6.187.844-2.11 0-4.125-.27-6.047-.809a23.43 23.43 0 0 1-5.344-2.25 22.767 22.767 0 0 1-4.535-3.516 23.317 23.317 0 0 1-3.445-4.57 24.973 24.973 0 0 1-2.215-5.414 23.085 23.085 0 0 1-.774-6.012c0-2.039.246-4.03.739-5.976a24.722 24.722 0 0 1 2.109-5.555 24.413 24.413 0 0 1 3.375-4.781 22.351 22.351 0 0 1 4.394-3.762 21.501 21.501 0 0 1 5.309-2.46c1.898-.587 3.902-.88 6.012-.88 3.398 0 6.492.528 9.281 1.582 2.812 1.055 5.203 2.567 7.172 4.536 1.992 1.945 3.527 4.312 4.605 7.101 1.102 2.766 1.653 5.86 1.653 9.281zm-15.61.914c0-1.007-.152-1.98-.457-2.918a7.557 7.557 0 0 0-1.265-2.53 6.248 6.248 0 0 0-2.11-1.794c-.82-.469-1.769-.703-2.847-.703-1.102 0-2.086.2-2.954.598a6.835 6.835 0 0 0-2.25 1.652 7.102 7.102 0 0 0-1.406 2.426 8.575 8.575 0 0 0-.492 2.918c0 .984.141 1.969.422 2.953a8.762 8.762 0 0 0 1.266 2.672 6.778 6.778 0 0 0 2.074 1.933c.844.493 1.816.739 2.918.739 1.101 0 2.086-.211 2.953-.633a6.96 6.96 0 0 0 2.25-1.758 8.267 8.267 0 0 0 1.406-2.566 9.188 9.188 0 0 0 .492-2.989zm62.244-.914c0 2.133-.246 4.196-.739 6.188a23.732 23.732 0 0 1-2.144 5.554 22.601 22.601 0 0 1-3.375 4.782 21.19 21.19 0 0 1-4.465 3.691 21.969 21.969 0 0 1-5.379 2.426c-1.945.562-4.008.844-6.187.844-2.11 0-4.125-.27-6.047-.809a23.43 23.43 0 0 1-5.344-2.25 22.767 22.767 0 0 1-4.535-3.516 23.357 23.357 0 0 1-3.445-4.57 24.973 24.973 0 0 1-2.215-5.414 23.085 23.085 0 0 1-.774-6.012c0-2.039.246-4.03.739-5.976a24.722 24.722 0 0 1 2.109-5.555 24.413 24.413 0 0 1 3.375-4.781 22.351 22.351 0 0 1 4.394-3.762 21.501 21.501 0 0 1 5.309-2.46c1.899-.587 3.902-.88 6.012-.88 3.398 0 6.492.528 9.281 1.582 2.813 1.055 5.203 2.567 7.172 4.536 1.992 1.945 3.527 4.312 4.605 7.101 1.102 2.766 1.653 5.86 1.653 9.281zm-15.61.914c0-1.007-.152-1.98-.457-2.918a7.557 7.557 0 0 0-1.265-2.53 6.248 6.248 0 0 0-2.11-1.794c-.82-.469-1.769-.703-2.847-.703-1.102 0-2.086.2-2.953.598a6.814 6.814 0 0 0-2.25 1.652c-.61.68-1.079 1.488-1.407 2.426a8.575 8.575 0 0 0-.492 2.918c0 .984.141 1.969.422 2.953a8.762 8.762 0 0 0 1.266 2.672 6.79 6.79 0 0 0 2.074 1.933c.844.493 1.816.739 2.918.739 1.101 0 2.086-.211 2.953-.633a6.939 6.939 0 0 0 2.25-1.758 8.267 8.267 0 0 0 1.406-2.566 9.188 9.188 0 0 0 .492-2.989zm61.295 18.141c-1.102 1.383-2.461 2.59-4.079 3.621a26.811 26.811 0 0 1-5.203 2.566 33.994 33.994 0 0 1-5.695 1.547c-1.945.329-3.797.493-5.555.493-3.398 0-6.527-.575-9.386-1.723-2.86-1.149-5.332-2.742-7.418-4.781-2.063-2.063-3.68-4.512-4.852-7.348-1.172-2.836-1.758-5.93-1.758-9.281 0-2.555.293-5.04.879-7.453a30.832 30.832 0 0 1 2.496-6.785 28.441 28.441 0 0 1 4.008-5.801 25.382 25.382 0 0 1 5.344-4.535 24.97 24.97 0 0 1 6.539-2.918c2.391-.704 4.922-1.055 7.594-1.055 1.007 0 2.086.047 3.234.14 1.148.07 2.285.211 3.41.422 1.149.188 2.262.457 3.34.809 1.078.351 2.063.785 2.953 1.3l-.984 13.43a17.274 17.274 0 0 0-4.078-.984 30.342 30.342 0 0 0-4.078-.281c-1.875 0-3.633.258-5.274.773-1.617.492-3.035 1.23-4.254 2.215-1.195.984-2.144 2.215-2.847 3.691-.704 1.477-1.055 3.188-1.055 5.133 0 1.22.164 2.403.492 3.551a9.55 9.55 0 0 0 1.477 3.024 8.028 8.028 0 0 0 2.496 2.109c1.007.539 2.168.808 3.48.808.891 0 1.805-.117 2.742-.351.961-.234 1.782-.633 2.461-1.195l.141-2.743-8.438-.14.422-10.547c3.492-.117 6.985-.211 10.477-.281a819.3 819.3 0 0 0 10.547-.352l.422 22.922zm34.259-10.758l-1.477 15.61-29.601 2.32 1.125-50.203h18.281l-2.602 32.273h14.274zm41.606-9.773c0 2.039-.14 4.078-.422 6.117-4.007.258-7.992.68-11.953 1.266l-11.882 1.687c.609 1.688 1.558 3.035 2.847 4.043 1.313 1.008 2.871 1.512 4.676 1.512.937 0 1.957-.176 3.059-.528a26.523 26.523 0 0 0 3.339-1.3 40.485 40.485 0 0 0 3.164-1.723 60.766 60.766 0 0 0 2.602-1.652l-1.687 15.961c-.915.703-1.911 1.3-2.989 1.793-1.054.492-2.156.89-3.304 1.195a25.351 25.351 0 0 1-3.481.668c-1.172.14-2.32.211-3.445.211-2.321 0-4.442-.317-6.363-.949a19.308 19.308 0 0 1-5.239-2.637 20.21 20.21 0 0 1-4.078-4.043 23.553 23.553 0 0 1-2.918-5.063 29.287 29.287 0 0 1-1.758-5.8 32.235 32.235 0 0 1-.597-6.188c0-2.18.199-4.36.597-6.539.399-2.18.996-4.277 1.793-6.293a27.41 27.41 0 0 1 3.059-5.59 22.07 22.07 0 0 1 4.324-4.535c1.641-1.289 3.492-2.297 5.555-3.023 2.086-.727 4.383-1.09 6.89-1.09 2.086 0 3.985.293 5.696.879 1.734.562 3.269 1.359 4.605 2.39a15.636 15.636 0 0 1 3.516 3.621 19.945 19.945 0 0 1 2.461 4.641 25.667 25.667 0 0 1 1.441 5.309 32.38 32.38 0 0 1 .492 5.66zm-14.062-1.828c0-.657-.07-1.325-.211-2.004a6.132 6.132 0 0 0-.703-1.899 3.855 3.855 0 0 0-1.231-1.37c-.515-.376-1.16-.563-1.933-.563-.938 0-1.77.258-2.496.773a7.064 7.064 0 0 0-1.828 1.899 11.07 11.07 0 0 0-1.266 2.46 18.842 18.842 0 0 0-.738 2.461l10.406-.984v-.773zm76.217 27.211l-17.437 2.25-2.11-7.946h-8.015l-1.758 7.946-17.93-1.758 13.992-46.828 19.547-.985 13.711 47.321zm-20.812-16.454l-2.672-12.234-2.602 12.234h5.274zm65.899 1.688c0 2.648-.035 5.273-.105 7.875-.047 2.578-.129 5.18-.246 7.805l-20.25-.352a288.77 288.77 0 0 0 1.828-12.41c.516-4.149.773-8.332.773-12.55 0-.306-.011-.798-.035-1.477-.023-.68-.07-1.442-.14-2.286a35.252 35.252 0 0 0-.317-2.636 14.626 14.626 0 0 0-.527-2.496c-.211-.75-.481-1.36-.809-1.828-.304-.493-.679-.739-1.125-.739-.797 0-1.476.235-2.039.703-.539.47-.996 1.078-1.371 1.828a11.695 11.695 0 0 0-.844 2.461 27.975 27.975 0 0 0-.492 2.743 57.785 57.785 0 0 0-.211 2.601 70.989 70.989 0 0 0-.035 1.969c-.117 4.148-.211 8.273-.281 12.375-.07 4.078-.164 8.203-.281 12.375l-17.93.773c.469-8.273.914-16.5 1.336-24.68.445-8.18.797-16.406 1.055-24.68l16.593-.843-.14 5.625a23.909 23.909 0 0 1 2.109-2.25 13.77 13.77 0 0 1 2.461-1.793 11.866 11.866 0 0 1 2.742-1.195 10.408 10.408 0 0 1 3.094-.457c1.992 0 3.738.328 5.238.984 1.5.657 2.789 1.547 3.867 2.672 1.078 1.125 1.981 2.461 2.707 4.008a26.756 26.756 0 0 1 1.758 4.887c.446 1.734.785 3.55 1.02 5.449.234 1.875.386 3.726.457 5.555.094 1.828.14 3.597.14 5.308v4.676zm48.392 14.766l-17.437 2.25-2.11-7.946h-8.015l-1.758 7.946-17.93-1.758 13.992-46.828 19.547-.985 13.711 47.321zm-20.812-16.454l-2.672-12.234-2.602 12.234h5.274zm53.103.844l-1.477 15.61-29.602 2.32 1.125-50.203h18.282l-2.602 32.273h14.274zm40.095-28.969l-16.524 27 .492 19.899h-18.07l.422-19.758-12.867-26.086 17.929-2.25 5.625 15.188 6.118-15.188 16.875 1.195zm38.196-1.968l-.351 14.906-10.477.422-1.266 32.625-14.836.773-1.335-32.625-10.477.563.422-16.594 38.32-.07zm21.076.07l-2.461 47.883-14.836.773-1.407-47.672 18.704-.984zm37.142 1.477l-1.266 14.836a12.58 12.58 0 0 0-2.004-.387 18.796 18.796 0 0 0-2.004-.106c-1.664 0-3.258.211-4.781.633-1.5.422-2.836 1.066-4.008 1.934-1.148.867-2.074 1.968-2.777 3.304-.68 1.313-1.02 2.871-1.02 4.676 0 1.313.188 2.461.563 3.445.398.961.949 1.77 1.652 2.426.727.633 1.594 1.114 2.602 1.442 1.031.328 2.168.492 3.41.492.867 0 1.758-.082 2.672-.246a24.014 24.014 0 0 0 5.378-1.793 24.87 24.87 0 0 0 2.356-1.266l-.563 16.524c-.914.468-1.898.89-2.953 1.265a35.044 35.044 0 0 1-3.269.914 27 27 0 0 1-3.34.633 24.943 24.943 0 0 1-3.164.211c-3.328 0-6.363-.621-9.106-1.863-2.718-1.242-5.062-2.93-7.031-5.063-1.945-2.156-3.457-4.652-4.535-7.488-1.078-2.836-1.617-5.859-1.617-9.07 0-3.844.539-7.43 1.617-10.758 1.102-3.328 2.707-6.211 4.816-8.649 2.133-2.46 4.758-4.382 7.875-5.765 3.141-1.406 6.739-2.11 10.793-2.11 1.618 0 3.258.13 4.922.387 1.664.258 3.258.738 4.782 1.442zM911.297 495c0 3.211-.563 5.988-1.688 8.332-1.101 2.32-2.625 4.242-4.57 5.766-1.922 1.5-4.184 2.613-6.785 3.34-2.578.703-5.356 1.054-8.332 1.054-1.149 0-2.414-.152-3.797-.457a50.167 50.167 0 0 1-4.149-1.125 83.701 83.701 0 0 1-4.078-1.476 96.311 96.311 0 0 1-3.445-1.512L876 495.141c1.992 1.195 4.195 2.109 6.609 2.742 2.438.609 4.828.914 7.172.914.445 0 .984-.012 1.617-.035a8.683 8.683 0 0 0 1.793-.317c.586-.187 1.078-.457 1.477-.808.398-.352.597-.856.597-1.512 0-.445-.14-.82-.421-1.125a2.88 2.88 0 0 0-1.09-.773 5.696 5.696 0 0 0-1.512-.457c-.563-.118-1.113-.2-1.652-.247a17.864 17.864 0 0 0-1.512-.07h-1.125c-2.016 0-3.856-.316-5.52-.949-1.64-.633-3.058-1.524-4.254-2.672-1.171-1.172-2.085-2.578-2.742-4.219-.656-1.664-.984-3.504-.984-5.52 0-2.765.551-5.238 1.652-7.417 1.125-2.203 2.614-4.067 4.465-5.59 1.875-1.547 4.02-2.73 6.434-3.55a23.097 23.097 0 0 1 7.488-1.231c1.148 0 2.332.047 3.551.14 1.218.07 2.426.211 3.621.422 1.219.211 2.402.48 3.551.809a20.92 20.92 0 0 1 3.269 1.23l-1.336 14.274a40.396 40.396 0 0 0-5.027-1.336 24.09 24.09 0 0 0-5.098-.563c-.304 0-.703.012-1.195.035-.469 0-.973.036-1.512.106a13 13 0 0 0-1.582.246 6.12 6.12 0 0 0-1.441.492 2.625 2.625 0 0 0-1.02.774 1.668 1.668 0 0 0-.351 1.16c.023.515.211.914.562 1.195.375.281.844.492 1.406.633a9.684 9.684 0 0 0 1.899.176c.703 0 1.394-.012 2.074-.036.68-.046 1.313-.082 1.898-.105a10.528 10.528 0 0 1 1.442-.035c1.875.117 3.562.515 5.062 1.195 1.5.68 2.766 1.582 3.797 2.707 1.055 1.125 1.852 2.473 2.391 4.043.562 1.547.844 3.258.844 5.133zM733.952 313.965H466.278V152.96c0-3.723 1.395-7.213 4.186-9.772 2.558-2.56 6.047-4.188 9.768-4.188h239.767c3.721 0 7.209 1.396 9.767 4.188 2.558 2.56 4.186 6.05 4.186 9.772v161.005zm-257.209-10.702h246.512V152.96c0-.93-.233-1.629-.93-2.327-.698-.698-1.396-.93-2.326-.93h-240c-.93 0-1.628.232-2.326.93-.697.698-.93 1.396-.93 2.327v150.303z" fill="#212529"/><path d="M743.256 337H456.744c-4.418 0-8.605-1.629-11.86-4.886-3.256-3.257-4.884-7.445-4.884-11.866v-16.752h320v16.752c0 4.42-1.86 8.609-4.884 11.866-3.255 3.025-7.441 4.886-11.86 4.886zm-292.558-23.034v6.05c0 1.628.697 3.257 1.86 4.42 1.163 1.163 2.791 1.861 4.419 1.861h286.279c1.628 0 3.256-.698 4.419-1.861 1.162-1.163 1.86-2.792 1.86-4.42v-6.05H450.698z" fill="#212529"/><path d="M525.117 256.497h-30.93v29.316h30.93v-29.316zm45.117-22.335h-30.93v51.652h30.93v-51.652zm45.116-22.336h-30.931v73.988h30.93v-73.988zm45.116-22.337h-30.93v96.324h30.93V189.49zm45.115-22.336h-30.93v118.66h30.93v-118.66z" fill="#2EB349"/><path d="M584.418 186.697h-90.232V197.4h90.232v-10.703zm-43.488 19.312h-46.744v10.703h46.744v-10.703zm43.488-38.856h-90.232v10.703h90.232v-10.703z" fill="#212529"/></g><defs><clipPath id="a"><path fill="#fff" d="M0 0h1200v800H0z"/></clipPath></defs></svg>